%FSLAX25Y25*%
%MOIN*%
G70*
G01*
G75*
G04 Layer_Physical_Order=2*
G04 Layer_Color=32768*
%ADD10R,0.07087X0.05118*%
%ADD11O,0.06693X0.01181*%
%ADD12R,0.04724X0.05512*%
%ADD13R,0.02953X0.00984*%
%ADD14R,0.02953X0.01457*%
%ADD15R,0.05512X0.04724*%
%ADD16R,0.05118X0.07087*%
%ADD17R,0.02756X0.01575*%
%ADD18R,0.21654X0.07874*%
%ADD19O,0.02165X0.05906*%
%ADD20O,0.00984X0.06102*%
%ADD21O,0.06102X0.00984*%
%ADD22R,0.02165X0.05709*%
%ADD23C,0.01693*%
%ADD24R,0.12598X0.03937*%
%ADD25R,0.03937X0.03937*%
%ADD26R,0.05906X0.05118*%
%ADD27C,0.00500*%
%ADD28C,0.01000*%
%ADD29C,0.02000*%
%ADD30C,0.15748*%
%ADD31R,0.05906X0.05906*%
%ADD32C,0.05906*%
%ADD33C,0.06000*%
%ADD34C,0.08700*%
%ADD35C,0.07500*%
%ADD36C,0.06496*%
%ADD37R,0.06496X0.06496*%
%ADD38C,0.09843*%
%ADD39C,0.01700*%
%ADD40C,0.03000*%
%ADD41C,0.04000*%
%ADD42C,0.04000*%
%ADD43C,0.10274*%
G04:AMPARAMS|DCode=44|XSize=118.74mil|YSize=118.74mil|CornerRadius=0mil|HoleSize=0mil|Usage=FLASHONLY|Rotation=0.000|XOffset=0mil|YOffset=0mil|HoleType=Round|Shape=Relief|Width=8mil|Gap=10mil|Entries=4|*
%AMTHD44*
7,0,0,0.11874,0.09874,0.00800,45*
%
%ADD44THD44*%
%ADD45C,0.05943*%
G04:AMPARAMS|DCode=46|XSize=75.433mil|YSize=75.433mil|CornerRadius=0mil|HoleSize=0mil|Usage=FLASHONLY|Rotation=0.000|XOffset=0mil|YOffset=0mil|HoleType=Round|Shape=Relief|Width=8mil|Gap=10mil|Entries=4|*
%AMTHD46*
7,0,0,0.07543,0.05543,0.00800,45*
%
%ADD46THD46*%
%ADD47C,0.05900*%
%ADD48C,0.08600*%
%ADD49C,0.15200*%
%ADD50C,0.07400*%
G04:AMPARAMS|DCode=51|XSize=79.37mil|YSize=79.37mil|CornerRadius=0mil|HoleSize=0mil|Usage=FLASHONLY|Rotation=0.000|XOffset=0mil|YOffset=0mil|HoleType=Round|Shape=Relief|Width=8mil|Gap=10mil|Entries=4|*
%AMTHD51*
7,0,0,0.07937,0.05937,0.00800,45*
%
%ADD51THD51*%
%ADD52C,0.06337*%
%ADD53C,0.13424*%
G04:AMPARAMS|DCode=54|XSize=56mil|YSize=56mil|CornerRadius=0mil|HoleSize=0mil|Usage=FLASHONLY|Rotation=0.000|XOffset=0mil|YOffset=0mil|HoleType=Round|Shape=Relief|Width=8mil|Gap=10mil|Entries=4|*
%AMTHD54*
7,0,0,0.05600,0.03600,0.00800,45*
%
%ADD54THD54*%
G04:AMPARAMS|DCode=55|XSize=46mil|YSize=46mil|CornerRadius=0mil|HoleSize=0mil|Usage=FLASHONLY|Rotation=0.000|XOffset=0mil|YOffset=0mil|HoleType=Round|Shape=Relief|Width=8mil|Gap=10mil|Entries=4|*
%AMTHD55*
7,0,0,0.04600,0.02600,0.00800,45*
%
%ADD55THD55*%
G04:AMPARAMS|DCode=56|XSize=60mil|YSize=60mil|CornerRadius=0mil|HoleSize=0mil|Usage=FLASHONLY|Rotation=0.000|XOffset=0mil|YOffset=0mil|HoleType=Round|Shape=Relief|Width=8mil|Gap=10mil|Entries=4|*
%AMTHD56*
7,0,0,0.06000,0.04000,0.00800,45*
%
%ADD56THD56*%
D40*
X318500Y186000D02*
D03*
X317000Y191500D02*
D03*
X320500Y181500D02*
D03*
X332350Y179613D02*
D03*
X333500Y175000D02*
D03*
X334000Y167500D02*
D03*
X338166Y165334D02*
D03*
X341000Y166500D02*
D03*
X301500Y187000D02*
D03*
X303663Y171163D02*
D03*
X301500Y168500D02*
D03*
X299500Y175000D02*
D03*
X304500Y178800D02*
D03*
X285500Y185000D02*
D03*
X290164Y185164D02*
D03*
X332500Y184500D02*
D03*
X297000Y173500D02*
D03*
X291500Y173016D02*
D03*
X319000Y167500D02*
D03*
X321000Y170500D02*
D03*
X331500Y162500D02*
D03*
X330000Y160000D02*
D03*
X317500Y173000D02*
D03*
X320500Y165000D02*
D03*
X315500Y163000D02*
D03*
X303500Y162500D02*
D03*
X320000Y156500D02*
D03*
X333000Y147500D02*
D03*
X325500Y158000D02*
D03*
X323000Y156500D02*
D03*
X318000Y154500D02*
D03*
X308350Y145351D02*
D03*
X310825Y147825D02*
D03*
X313300Y150300D02*
D03*
X315775Y152775D02*
D03*
X338500Y189500D02*
D03*
X337500Y186000D02*
D03*
X334000Y192500D02*
D03*
X333000Y207000D02*
D03*
X328500Y191000D02*
D03*
X338000Y201000D02*
D03*
X337500Y207500D02*
D03*
X339000Y211500D02*
D03*
X342500Y210500D02*
D03*
Y188500D02*
D03*
Y185000D02*
D03*
X342000Y180500D02*
D03*
X342500Y198500D02*
D03*
X342000Y203000D02*
D03*
X361000Y213000D02*
D03*
X366000Y218500D02*
D03*
X369500Y219500D02*
D03*
X365276Y223323D02*
D03*
X358976D02*
D03*
X346400Y210724D02*
D03*
X346637Y201578D02*
D03*
X346587Y198378D02*
D03*
X346536Y195178D02*
D03*
X346435Y188778D02*
D03*
X337000Y215000D02*
D03*
X346378Y213874D02*
D03*
X352677Y210724D02*
D03*
Y213874D02*
D03*
X398500Y212500D02*
D03*
X346378Y220173D02*
D03*
X283638Y166500D02*
D03*
X302000Y165000D02*
D03*
X282500Y185000D02*
D03*
X279500D02*
D03*
X343000Y157500D02*
D03*
X295500Y197000D02*
D03*
X343500Y168500D02*
D03*
X383000Y219500D02*
D03*
X398000Y228000D02*
D03*
X397803Y231197D02*
D03*
X396932Y215957D02*
D03*
X390472Y216980D02*
D03*
X368382Y229622D02*
D03*
X358976Y226472D02*
D03*
X353500Y235500D02*
D03*
X355500Y233500D02*
D03*
X362126Y226472D02*
D03*
X365276Y229622D02*
D03*
X358976D02*
D03*
X362126D02*
D03*
X365276Y226472D02*
D03*
X349528Y223323D02*
D03*
X393622Y217024D02*
D03*
Y220173D02*
D03*
X387323Y229622D02*
D03*
X390472Y223323D02*
D03*
X387323Y226472D02*
D03*
X352677Y229622D02*
D03*
X349528D02*
D03*
X402088Y228412D02*
D03*
X398000Y218000D02*
D03*
X393622Y223323D02*
D03*
Y229622D02*
D03*
X374724Y223323D02*
D03*
Y226472D02*
D03*
X371524Y226465D02*
D03*
Y223316D02*
D03*
X374500Y219249D02*
D03*
X380750Y216250D02*
D03*
X380000Y219500D02*
D03*
X379500Y201000D02*
D03*
X401500Y164000D02*
D03*
X387323Y201276D02*
D03*
X409500Y168000D02*
D03*
X411000Y165500D02*
D03*
X339000Y218000D02*
D03*
X339073Y220214D02*
D03*
X398000Y168500D02*
D03*
X393000Y167000D02*
D03*
X395500Y174500D02*
D03*
X393500Y178500D02*
D03*
X402413Y193400D02*
D03*
X400100Y191900D02*
D03*
X393622Y185528D02*
D03*
X390422Y185535D02*
D03*
X393622Y198126D02*
D03*
X380500Y203500D02*
D03*
X383000Y196500D02*
D03*
X387323Y198126D02*
D03*
X387330Y188728D02*
D03*
X393622Y188677D02*
D03*
X390465Y194926D02*
D03*
X323000Y173000D02*
D03*
Y176000D02*
D03*
X292000Y189000D02*
D03*
X293500Y192500D02*
D03*
X299000Y188500D02*
D03*
X291000Y207500D02*
D03*
X296000Y203500D02*
D03*
X291500Y210500D02*
D03*
X295000Y207500D02*
D03*
X242500Y168000D02*
D03*
X244500Y164500D02*
D03*
X247500Y167500D02*
D03*
X250500Y169000D02*
D03*
X367000Y194500D02*
D03*
X358500Y204000D02*
D03*
X384000Y171500D02*
D03*
X377867Y188728D02*
D03*
X387323Y185528D02*
D03*
X379500Y192000D02*
D03*
X384173Y188677D02*
D03*
X371575D02*
D03*
X374667Y188691D02*
D03*
X374724Y185528D02*
D03*
X371575D02*
D03*
X377867D02*
D03*
X398500Y184000D02*
D03*
X387323Y182378D02*
D03*
X381024D02*
D03*
X377874D02*
D03*
X381682Y165682D02*
D03*
X368000Y162000D02*
D03*
X371000Y165000D02*
D03*
X372000Y161500D02*
D03*
X321638Y189862D02*
D03*
X365262Y182392D02*
D03*
X362126Y182378D02*
D03*
X362133Y185578D02*
D03*
X365600Y185809D02*
D03*
X374674Y182385D02*
D03*
X371575Y182378D02*
D03*
X386500Y174000D02*
D03*
X378346Y178800D02*
D03*
X376700Y168600D02*
D03*
X349578Y182385D02*
D03*
X359027D02*
D03*
X377000Y166400D02*
D03*
X374500Y164000D02*
D03*
X326500Y176000D02*
D03*
X332284Y165216D02*
D03*
X339328Y169500D02*
D03*
X335500Y177250D02*
D03*
X355827Y182378D02*
D03*
X358000Y163000D02*
D03*
X355000Y164000D02*
D03*
X351500Y165000D02*
D03*
X353000Y175000D02*
D03*
X352654Y194976D02*
D03*
X364500Y192500D02*
D03*
X349585Y185542D02*
D03*
X343500Y178500D02*
D03*
X352778Y182500D02*
D03*
X352654Y191847D02*
D03*
X352677Y185528D02*
D03*
X345500Y170000D02*
D03*
X374500Y169500D02*
D03*
X360500Y178500D02*
D03*
X356000Y178000D02*
D03*
X351500D02*
D03*
X348000Y178500D02*
D03*
X346378Y182378D02*
D03*
X358976Y188677D02*
D03*
X355827Y185528D02*
D03*
X346385Y185578D02*
D03*
X349549Y188742D02*
D03*
X349599Y191942D02*
D03*
X303000Y176500D02*
D03*
X357000Y202000D02*
D03*
X338500Y177000D02*
D03*
X346486Y191978D02*
D03*
X349528Y198126D02*
D03*
Y201276D02*
D03*
X359000Y192500D02*
D03*
Y195500D02*
D03*
X352677Y198126D02*
D03*
D41*
X275191Y177191D02*
D03*
X268991D02*
D03*
X276500Y214000D02*
D03*
X259379Y212121D02*
D03*
X476500Y247000D02*
D03*
X477500Y241500D02*
D03*
X476500Y251000D02*
D03*
X199500Y210000D02*
D03*
X486000Y260500D02*
D03*
X218500Y146500D02*
D03*
X223000Y203000D02*
D03*
X480000Y223000D02*
D03*
X440000Y191000D02*
D03*
X272000Y286000D02*
D03*
X229209Y292291D02*
D03*
X218791Y293291D02*
D03*
X184209Y292291D02*
D03*
X273000Y143500D02*
D03*
X458000Y118000D02*
D03*
X553543Y169457D02*
D03*
X546000Y146000D02*
D03*
X498957Y187543D02*
D03*
X528291Y190209D02*
D03*
X461543Y283543D02*
D03*
X452000Y277000D02*
D03*
X277000Y206500D02*
D03*
X329500Y218000D02*
D03*
X317709Y228791D02*
D03*
X244945Y231055D02*
D03*
X207803Y202803D02*
D03*
X338500Y151000D02*
D03*
X337000Y145000D02*
D03*
X430000Y214000D02*
D03*
X436000Y220500D02*
D03*
X457500Y204500D02*
D03*
X456000Y199000D02*
D03*
X455000Y188000D02*
D03*
X462500Y196500D02*
D03*
X324000Y253500D02*
D03*
X335000Y247000D02*
D03*
X282500Y158500D02*
D03*
X303500Y143000D02*
D03*
X309500Y126000D02*
D03*
X301500Y159500D02*
D03*
X287500D02*
D03*
X272000Y191000D02*
D03*
X267646Y191646D02*
D03*
X412000Y178500D02*
D03*
X417000Y200500D02*
D03*
X412500Y226500D02*
D03*
X418000Y225500D02*
D03*
X477500Y196000D02*
D03*
X459000Y191500D02*
D03*
X275000Y210000D02*
D03*
X264496Y208004D02*
D03*
X258197Y205303D02*
D03*
X290000Y203500D02*
D03*
X450000Y179000D02*
D03*
X442000Y173000D02*
D03*
X421500Y151000D02*
D03*
X424500Y119500D02*
D03*
X409500Y126000D02*
D03*
X404000Y127000D02*
D03*
X449500Y133500D02*
D03*
X446500Y129500D02*
D03*
X434500Y136000D02*
D03*
X416500Y132000D02*
D03*
X421500Y134000D02*
D03*
X456000Y218000D02*
D03*
X402000Y225000D02*
D03*
X449000Y217500D02*
D03*
X441500Y223000D02*
D03*
X442000Y217500D02*
D03*
X433000Y218000D02*
D03*
X498000Y271000D02*
D03*
X488000Y223000D02*
D03*
X484500Y226500D02*
D03*
X480500Y230000D02*
D03*
X475500Y226500D02*
D03*
X402000Y220000D02*
D03*
X250000Y144500D02*
D03*
X299500Y235500D02*
D03*
X298500Y129000D02*
D03*
X304000Y131000D02*
D03*
X234291Y135709D02*
D03*
X211209D02*
D03*
X198354Y158354D02*
D03*
X208154Y141654D02*
D03*
X204654Y146346D02*
D03*
X230000Y159000D02*
D03*
X245000Y144000D02*
D03*
X468000Y251500D02*
D03*
X364500Y269500D02*
D03*
X417000Y167000D02*
D03*
X165500Y158000D02*
D03*
X442500Y163500D02*
D03*
X167500Y154000D02*
D03*
X169500Y149500D02*
D03*
X171000Y143500D02*
D03*
X434500Y152000D02*
D03*
X453000Y148500D02*
D03*
X451579Y154921D02*
D03*
X449000Y148500D02*
D03*
X446000Y138000D02*
D03*
X450500Y139000D02*
D03*
X453000Y143500D02*
D03*
X440000Y134000D02*
D03*
X181000Y133000D02*
D03*
X178500Y136500D02*
D03*
X441000Y145000D02*
D03*
X179500Y141000D02*
D03*
X183500Y142000D02*
D03*
X163055Y230555D02*
D03*
X169354Y230646D02*
D03*
X188252Y231248D02*
D03*
X204000Y230500D02*
D03*
X269000Y270250D02*
D03*
Y275000D02*
D03*
X264500Y272500D02*
D03*
X265000Y267500D02*
D03*
X269000Y265000D02*
D03*
X265000Y262500D02*
D03*
X269000Y259500D02*
D03*
X266000Y257000D02*
D03*
X210500Y275000D02*
D03*
X201000D02*
D03*
X197000Y273000D02*
D03*
X191500Y275500D02*
D03*
X187500Y274000D02*
D03*
X172504Y276004D02*
D03*
X221500Y251000D02*
D03*
X170500Y218500D02*
D03*
X358000Y259000D02*
D03*
X341709Y246291D02*
D03*
X359000Y240000D02*
D03*
X548500Y340791D02*
D03*
X368291Y352291D02*
D03*
X363000Y333000D02*
D03*
X382500Y340500D02*
D03*
X388000D02*
D03*
X402000Y351587D02*
D03*
X352000Y335500D02*
D03*
X348619Y344381D02*
D03*
X259791Y339500D02*
D03*
X255291Y348000D02*
D03*
X229791Y327000D02*
D03*
X252291Y338500D02*
D03*
X224291Y327000D02*
D03*
X221500Y340709D02*
D03*
X664000Y349000D02*
D03*
X672000Y242000D02*
D03*
X485500Y280000D02*
D03*
X570500Y252000D02*
D03*
X596500Y251000D02*
D03*
X471500Y270000D02*
D03*
X502000Y268000D02*
D03*
X532500Y243000D02*
D03*
X512500Y218000D02*
D03*
X480500Y234000D02*
D03*
X375500Y255500D02*
D03*
X292000Y287543D02*
D03*
X144500Y161500D02*
D03*
X144000Y177500D02*
D03*
X144500Y193500D02*
D03*
Y209500D02*
D03*
X210500Y230500D02*
D03*
X303500Y263500D02*
D03*
X213500Y228000D02*
D03*
X479750Y238250D02*
D03*
X165500Y219000D02*
D03*
X159500Y218500D02*
D03*
X144500D02*
D03*
X174500Y216000D02*
D03*
X220000Y228000D02*
D03*
X225000Y230000D02*
D03*
X227500Y226500D02*
D03*
X232500Y230000D02*
D03*
X235500Y226500D02*
D03*
X238791Y230000D02*
D03*
X241500Y226500D02*
D03*
X438500Y160500D02*
D03*
X449500D02*
D03*
X446500Y172500D02*
D03*
X451000Y167000D02*
D03*
X434500Y163500D02*
D03*
X446500Y156000D02*
D03*
X508000Y161500D02*
D03*
X473000Y189000D02*
D03*
X520110Y156890D02*
D03*
X468500Y182500D02*
D03*
X526500Y168500D02*
D03*
X491138Y187811D02*
D03*
X499500Y178500D02*
D03*
X511000Y176500D02*
D03*
X493500Y224000D02*
D03*
X497500D02*
D03*
X468500Y231000D02*
D03*
X471000Y239500D02*
D03*
X433500Y240000D02*
D03*
X502500Y223000D02*
D03*
X471500Y244000D02*
D03*
X463000Y243500D02*
D03*
X166205Y275295D02*
D03*
X182000Y276000D02*
D03*
X178500Y274000D02*
D03*
X262500Y254000D02*
D03*
X317500Y131000D02*
D03*
X322500Y132500D02*
D03*
X237500Y166500D02*
D03*
X254000Y168000D02*
D03*
X257500Y165500D02*
D03*
X234500Y163000D02*
D03*
X236000Y158500D02*
D03*
X267500Y167000D02*
D03*
X260500Y162500D02*
D03*
X264500Y164000D02*
D03*
X270500D02*
D03*
X274500Y167000D02*
D03*
X216500Y232000D02*
D03*
X246500Y217000D02*
D03*
X248000Y221000D02*
D03*
X248500Y225500D02*
D03*
X335000Y229500D02*
D03*
X332500Y227000D02*
D03*
X336000Y224000D02*
D03*
X198811Y177189D02*
D03*
X216811D02*
D03*
X210953Y181047D02*
D03*
X223189Y170811D02*
D03*
X219000Y185000D02*
D03*
X228500D02*
D03*
X233000Y186500D02*
D03*
X235189Y178811D02*
D03*
X433500Y245000D02*
D03*
X432000Y234000D02*
D03*
X407500Y226500D02*
D03*
X284500Y225000D02*
D03*
X417000Y263000D02*
D03*
X407500Y256500D02*
D03*
X367000Y254000D02*
D03*
X371500Y270000D02*
D03*
X401500Y259500D02*
D03*
X424000D02*
D03*
X377000Y274500D02*
D03*
X348000Y281500D02*
D03*
X407000Y238000D02*
D03*
X424000Y255000D02*
D03*
X349000Y287500D02*
D03*
X412000Y286500D02*
D03*
X439000Y290000D02*
D03*
X406000Y173000D02*
D03*
X416500Y177000D02*
D03*
X408500Y176500D02*
D03*
X403500Y182500D02*
D03*
X417000Y194000D02*
D03*
X420000Y180500D02*
D03*
X405500Y164500D02*
D03*
X415500Y218500D02*
D03*
X406500Y192000D02*
D03*
X402250Y186750D02*
D03*
X277500Y155500D02*
D03*
X248500Y158000D02*
D03*
X314000Y225000D02*
D03*
X292500Y214000D02*
D03*
X331000Y213500D02*
D03*
X195500Y110000D02*
D03*
X292500Y106000D02*
D03*
D42*
X100000Y100000D02*
Y373000D01*
X699000D01*
X700000Y100000D01*
X100000D02*
X700000D01*
D43*
X160000Y340000D02*
D03*
X148189Y321496D02*
D03*
D44*
X136378Y340000D02*
D03*
D45*
X380000Y110000D02*
D03*
X370000D02*
D03*
X360000D02*
D03*
X330000D02*
D03*
X450000D02*
D03*
X440000D02*
D03*
X430000D02*
D03*
X420000D02*
D03*
X410000D02*
D03*
X400000D02*
D03*
X450000Y300000D02*
D03*
X440000D02*
D03*
X430000D02*
D03*
X420000D02*
D03*
X410000D02*
D03*
X400000D02*
D03*
X390000D02*
D03*
X380000D02*
D03*
X364000D02*
D03*
X354000D02*
D03*
X344000D02*
D03*
X334000D02*
D03*
X324000D02*
D03*
X314000D02*
D03*
X294000D02*
D03*
D46*
X350000Y110000D02*
D03*
X340000D02*
D03*
X304000Y300000D02*
D03*
D47*
X593000Y268000D02*
D03*
Y276000D02*
D03*
Y284000D02*
D03*
X603000Y272000D02*
D03*
Y280000D02*
D03*
Y288000D02*
D03*
D48*
X629000Y326600D02*
D03*
Y257400D02*
D03*
D49*
Y311000D02*
D03*
Y273000D02*
D03*
D50*
X654000Y321600D02*
D03*
X664000D02*
D03*
X654000Y262400D02*
D03*
X664000D02*
D03*
D51*
X119000Y239000D02*
D03*
Y229000D02*
D03*
Y219000D02*
D03*
Y209000D02*
D03*
Y199000D02*
D03*
Y189000D02*
D03*
Y179000D02*
D03*
Y169000D02*
D03*
Y159000D02*
D03*
D52*
X129000Y239000D02*
D03*
Y229000D02*
D03*
Y219000D02*
D03*
Y209000D02*
D03*
Y199000D02*
D03*
Y189000D02*
D03*
Y179000D02*
D03*
Y169000D02*
D03*
Y159000D02*
D03*
X119000Y149000D02*
D03*
X129000D02*
D03*
D53*
X124984Y114000D02*
D03*
Y274000D02*
D03*
D54*
X481000Y247000D02*
D03*
X215500Y217000D02*
D03*
X373000Y129000D02*
D03*
X457500Y177000D02*
D03*
X447543Y245957D02*
D03*
X489500Y262500D02*
D03*
X228000Y204000D02*
D03*
X205000Y288500D02*
D03*
X190000Y290000D02*
D03*
X168000D02*
D03*
X163055Y290945D02*
D03*
X445500Y199000D02*
D03*
X456043Y210457D02*
D03*
X432000Y186000D02*
D03*
X279709Y303709D02*
D03*
X226291D02*
D03*
X251756Y282244D02*
D03*
X191709Y304709D02*
D03*
X183791Y303709D02*
D03*
X302000Y152000D02*
D03*
X483500Y118000D02*
D03*
X546484Y150984D02*
D03*
X539709Y190291D02*
D03*
X558917Y241583D02*
D03*
X471957Y260457D02*
D03*
X450291Y257291D02*
D03*
X440457Y259543D02*
D03*
X273945Y202445D02*
D03*
X306291Y229209D02*
D03*
X198354Y202854D02*
D03*
X192055Y202945D02*
D03*
X331500Y199000D02*
D03*
X352291Y141709D02*
D03*
X297000Y142000D02*
D03*
X236500Y127000D02*
D03*
X209000Y115291D02*
D03*
X185500Y133000D02*
D03*
X207803Y157803D02*
D03*
X224000Y159000D02*
D03*
X446000Y151500D02*
D03*
X178803Y231303D02*
D03*
X197701Y225701D02*
D03*
X348000Y263500D02*
D03*
X548500Y318291D02*
D03*
X515500Y329291D02*
D03*
X509000Y308791D02*
D03*
X196000Y317000D02*
D03*
X266291Y318000D02*
D03*
X420500Y323000D02*
D03*
X396000Y325000D02*
D03*
X379709Y352291D02*
D03*
X382000Y345500D02*
D03*
X338500Y329000D02*
D03*
X251791Y357000D02*
D03*
X252291Y344000D02*
D03*
X214791Y319500D02*
D03*
X507000Y270000D02*
D03*
X517500Y268000D02*
D03*
X532000Y220500D02*
D03*
X510500Y280500D02*
D03*
X522500Y227500D02*
D03*
X579791Y221291D02*
D03*
X598709Y223791D02*
D03*
X543500Y300500D02*
D03*
X483000Y299291D02*
D03*
X499500Y206500D02*
D03*
X379500Y240500D02*
D03*
X423500Y232500D02*
D03*
X487654Y230154D02*
D03*
X462957Y236457D02*
D03*
X286000Y106000D02*
D03*
D55*
X406000Y199000D02*
D03*
X363701Y217201D02*
D03*
X359500Y217000D02*
D03*
X356259Y211200D02*
D03*
X370000Y211000D02*
D03*
X346500Y233500D02*
D03*
X360500Y234000D02*
D03*
X365276Y210724D02*
D03*
Y201276D02*
D03*
X371575Y207575D02*
D03*
X355827Y226472D02*
D03*
X393622D02*
D03*
X374724Y229622D02*
D03*
Y210724D02*
D03*
Y201276D02*
D03*
X370000Y201000D02*
D03*
X375500Y206000D02*
D03*
X393622Y201276D02*
D03*
X390472Y198126D02*
D03*
X364500Y206000D02*
D03*
X381017Y185578D02*
D03*
X393622Y182378D02*
D03*
X375500Y179000D02*
D03*
X362000Y192500D02*
D03*
X352677Y201276D02*
D03*
X356500Y199000D02*
D03*
D56*
X110000Y290000D02*
D03*
Y310500D02*
D03*
M02*
