%FSLAX25Y25*%
%MOIN*%
G70*
G01*
G75*
G04 Layer_Physical_Order=4*
G04 Layer_Color=16711680*
%ADD10R,0.07087X0.05118*%
%ADD11O,0.06693X0.01181*%
%ADD12R,0.04724X0.05512*%
%ADD13R,0.02953X0.00984*%
%ADD14R,0.02953X0.01457*%
%ADD15R,0.05512X0.04724*%
%ADD16R,0.05118X0.07087*%
%ADD17R,0.02756X0.01575*%
%ADD18R,0.21654X0.07874*%
%ADD19O,0.02165X0.05906*%
%ADD20O,0.00984X0.06102*%
%ADD21O,0.06102X0.00984*%
%ADD22R,0.02165X0.05709*%
%ADD23C,0.01693*%
%ADD24R,0.12598X0.03937*%
%ADD25R,0.03937X0.03937*%
%ADD26R,0.05906X0.05118*%
%ADD27C,0.00500*%
%ADD28C,0.01000*%
%ADD29C,0.02000*%
%ADD30C,0.15748*%
%ADD31R,0.05906X0.05906*%
%ADD32C,0.05906*%
%ADD33C,0.06000*%
%ADD34C,0.08700*%
%ADD35C,0.07500*%
%ADD36C,0.06496*%
%ADD37R,0.06496X0.06496*%
%ADD38C,0.09843*%
%ADD39C,0.01700*%
%ADD40C,0.03000*%
%ADD41C,0.04000*%
%ADD42C,0.04000*%
%ADD43C,0.10274*%
G04:AMPARAMS|DCode=44|XSize=118.74mil|YSize=118.74mil|CornerRadius=0mil|HoleSize=0mil|Usage=FLASHONLY|Rotation=0.000|XOffset=0mil|YOffset=0mil|HoleType=Round|Shape=Relief|Width=8mil|Gap=10mil|Entries=4|*
%AMTHD44*
7,0,0,0.11874,0.09874,0.00800,45*
%
%ADD44THD44*%
%ADD45C,0.05943*%
G04:AMPARAMS|DCode=46|XSize=75.433mil|YSize=75.433mil|CornerRadius=0mil|HoleSize=0mil|Usage=FLASHONLY|Rotation=0.000|XOffset=0mil|YOffset=0mil|HoleType=Round|Shape=Relief|Width=8mil|Gap=10mil|Entries=4|*
%AMTHD46*
7,0,0,0.07543,0.05543,0.00800,45*
%
%ADD46THD46*%
%ADD47C,0.05900*%
%ADD48C,0.08600*%
%ADD49C,0.15200*%
%ADD50C,0.07400*%
G04:AMPARAMS|DCode=51|XSize=79.37mil|YSize=79.37mil|CornerRadius=0mil|HoleSize=0mil|Usage=FLASHONLY|Rotation=0.000|XOffset=0mil|YOffset=0mil|HoleType=Round|Shape=Relief|Width=8mil|Gap=10mil|Entries=4|*
%AMTHD51*
7,0,0,0.07937,0.05937,0.00800,45*
%
%ADD51THD51*%
%ADD52C,0.06337*%
%ADD53C,0.13424*%
G04:AMPARAMS|DCode=54|XSize=56mil|YSize=56mil|CornerRadius=0mil|HoleSize=0mil|Usage=FLASHONLY|Rotation=0.000|XOffset=0mil|YOffset=0mil|HoleType=Round|Shape=Relief|Width=8mil|Gap=10mil|Entries=4|*
%AMTHD54*
7,0,0,0.05600,0.03600,0.00800,45*
%
%ADD54THD54*%
G04:AMPARAMS|DCode=55|XSize=46mil|YSize=46mil|CornerRadius=0mil|HoleSize=0mil|Usage=FLASHONLY|Rotation=0.000|XOffset=0mil|YOffset=0mil|HoleType=Round|Shape=Relief|Width=8mil|Gap=10mil|Entries=4|*
%AMTHD55*
7,0,0,0.04600,0.02600,0.00800,45*
%
%ADD55THD55*%
G04:AMPARAMS|DCode=56|XSize=60mil|YSize=60mil|CornerRadius=0mil|HoleSize=0mil|Usage=FLASHONLY|Rotation=0.000|XOffset=0mil|YOffset=0mil|HoleType=Round|Shape=Relief|Width=8mil|Gap=10mil|Entries=4|*
%AMTHD56*
7,0,0,0.06000,0.04000,0.00800,45*
%
%ADD56THD56*%
%ADD57C,0.04400*%
D27*
X366900Y218423D02*
Y218549D01*
X362900Y201389D02*
Y204691D01*
X356796Y208400D02*
X359191D01*
X360163Y201254D02*
Y204600D01*
X359163Y205600D02*
X360163Y204600D01*
X361900Y200974D02*
Y204277D01*
X358777Y207400D02*
X361900Y204277D01*
X356382Y207400D02*
X358777D01*
X359191Y208400D02*
X362900Y204691D01*
X357100Y205600D02*
X359163D01*
X361900Y200974D02*
X364199Y198676D01*
X359088Y200180D02*
X360163Y201254D01*
X356900Y205400D02*
X357100Y205600D01*
X355058Y205400D02*
X356900D01*
X361688Y209400D02*
X364613Y212324D01*
X358000Y209400D02*
X361688D01*
X361374Y210500D02*
X364199Y213324D01*
X360909Y210500D02*
X361374D01*
X356609Y214800D02*
X360909Y210500D01*
X362900Y201389D02*
X364613Y199676D01*
X351500Y166000D02*
X357862D01*
X304500Y178800D02*
X305300Y178000D01*
X377867Y185578D02*
X379467Y183978D01*
X358000Y164000D02*
X358691D01*
X355000Y165000D02*
X358276D01*
X299500Y175000D02*
X299600Y174900D01*
X312400D01*
X302586Y173763D02*
X304740D01*
X301823Y173000D02*
X302586Y173763D01*
X303000Y172763D02*
X304326D01*
X302137Y171900D02*
X303000Y172763D01*
X304326D02*
X305088Y172000D01*
X304740Y173763D02*
X305502Y173000D01*
X312400Y174900D02*
X313000Y175500D01*
X294600Y171900D02*
X302137D01*
X305502Y173000D02*
X315237D01*
X298300D02*
X301823D01*
X305088Y172000D02*
X314237D01*
X318323Y167914D01*
X315237Y173000D02*
X316837Y174600D01*
X297400Y173900D02*
X298300Y173000D01*
X293484Y173016D02*
X294600Y171900D01*
X318491Y187900D02*
X318591Y188000D01*
X315509Y187900D02*
X318491D01*
X318077Y188900D02*
X318177Y189000D01*
X315923Y188900D02*
X318077D01*
X315823Y189000D02*
X315923Y188900D01*
X317663Y189900D02*
X317763Y190000D01*
X316337Y189900D02*
X317663D01*
X313060Y193177D02*
X316337Y189900D01*
X312646Y192177D02*
X315823Y189000D01*
X313409Y190000D02*
X315509Y187900D01*
X317423Y183400D02*
X319577D01*
X316323Y184500D02*
X317423Y183400D01*
X319577D02*
X320677Y184500D01*
X319163Y184400D02*
X320263Y185500D01*
X317837Y184400D02*
X319163D01*
X316737Y185500D02*
X317837Y184400D01*
X318591Y188000D02*
X319823D01*
X318177Y189000D02*
X320237D01*
X317763Y190000D02*
X320652D01*
X318000Y186500D02*
X318500Y186000D01*
X346356Y194998D02*
X346367Y194987D01*
X346356Y194998D02*
X346356Y194998D01*
X346367Y194987D02*
X346378Y194976D01*
X346367Y194987D02*
X346435Y195055D01*
X346356Y194976D02*
X346367Y194987D01*
X313914Y181500D02*
X319500D01*
X311914Y183500D02*
X313914Y181500D01*
X331613Y179613D02*
X332350D01*
X331500Y179500D02*
X331613Y179613D01*
X332600Y177600D02*
X333850Y178850D01*
X331438Y177600D02*
X332600D01*
X325400Y171562D02*
X331438Y177600D01*
X331852Y176600D02*
X334850D01*
X326400Y171148D02*
X331852Y176600D01*
X334163Y173400D02*
X335763Y175000D01*
X331480Y173400D02*
X334163D01*
X331895Y172400D02*
X335246D01*
X332309Y171400D02*
X335660D01*
X330400Y169491D02*
X332309Y171400D01*
X332723Y170400D02*
X336075D01*
X331400Y169077D02*
X332723Y170400D01*
X333137Y169400D02*
X336489D01*
X332400Y168663D02*
X333137Y169400D01*
X336489D02*
X338589Y171500D01*
X336075Y170400D02*
X338175Y172500D01*
X335660Y171400D02*
X337760Y173500D01*
X335246Y172400D02*
X337346Y174500D01*
X333923Y162163D02*
Y163577D01*
X332284Y165216D02*
X333923Y163577D01*
X333850Y178850D02*
X336163D01*
X300743Y185400D02*
X302163D01*
X301157Y184400D02*
X302577D01*
X301572Y183400D02*
X302991D01*
X301986Y182400D02*
X303405D01*
X299929Y186000D02*
X300929Y187000D01*
X301500D01*
X298000Y186000D02*
X299929D01*
X297843Y182500D02*
X300743Y185400D01*
X288000Y182500D02*
X297843D01*
X298257Y181500D02*
X301157Y184400D01*
X286000Y181500D02*
X298257D01*
X298672Y180500D02*
X301572Y183400D01*
X282000Y180500D02*
X298672D01*
X299086Y179500D02*
X301986Y182400D01*
X277500Y179500D02*
X299086D01*
X302400Y181400D02*
X303820D01*
X297688Y176688D02*
X302400Y181400D01*
X291188Y176688D02*
X297688D01*
X303100Y186428D02*
X303172Y186500D01*
X303100Y186337D02*
Y186428D01*
X304920Y182500D02*
X311500D01*
X303820Y181400D02*
X304920Y182500D01*
X304505Y183500D02*
X311914D01*
X303405Y182400D02*
X304505Y183500D01*
X302991Y183400D02*
X304091Y184500D01*
X302577Y184400D02*
X303677Y185500D01*
X302163Y185400D02*
X303100Y186337D01*
X311500Y182500D02*
X315000Y179000D01*
X303677Y185500D02*
X316737D01*
X303172Y186500D02*
X318000D01*
X304091Y184500D02*
X316323D01*
X356500Y202000D02*
X357500Y201000D01*
X300000Y190000D02*
X313409D01*
X299000Y189000D02*
X300000Y190000D01*
X299000Y188500D02*
Y189000D01*
X293000Y189737D02*
X295600Y192337D01*
X294000Y189323D02*
X296600Y191923D01*
X295000Y188909D02*
X297600Y191509D01*
X295000Y186257D02*
Y188909D01*
X292243Y183500D02*
X295000Y186257D01*
X294000Y186672D02*
Y189323D01*
X293828Y186500D02*
X294000Y186672D01*
X293000Y189000D02*
Y189737D01*
X296000Y188495D02*
X298105Y190600D01*
X296000Y188000D02*
Y188495D01*
Y188000D02*
X298000Y186000D01*
X295600Y192337D02*
Y193100D01*
X296600Y191923D02*
Y192600D01*
X297600Y191509D02*
Y192100D01*
X298105Y190600D02*
X298600D01*
X292000Y189000D02*
X293000D01*
X286500Y203818D02*
X290400Y199918D01*
Y188337D02*
Y199918D01*
X298677Y193177D02*
X313060D01*
X297600Y192100D02*
X298677Y193177D01*
X298177Y194177D02*
X313474D01*
X296600Y192600D02*
X298177Y194177D01*
X298600Y190600D02*
X300177Y192177D01*
X312646D01*
X295600Y193100D02*
X300500Y198000D01*
X311096D01*
X299318Y201147D02*
X302684D01*
X299732Y200147D02*
X303098D01*
X296586Y197000D02*
X299732Y200147D01*
X298422Y200250D02*
X299318Y201147D01*
X293250Y200250D02*
X298422D01*
X295500Y197000D02*
X296586D01*
X300000Y199000D02*
X303500D01*
X293500Y192500D02*
X300000Y199000D01*
X313660Y193991D02*
X331677D01*
X313474Y194177D02*
X313660Y193991D01*
X320263Y185500D02*
X324414D01*
X326414Y183500D02*
X331237D01*
X320677Y184500D02*
X324000D01*
X324414Y185500D02*
X326414Y183500D01*
X326000Y182500D02*
X330800D01*
X324000Y184500D02*
X326000Y182500D01*
X331237Y183500D02*
X331837Y182900D01*
X331800Y181500D02*
X338737D01*
X330800Y182500D02*
X331800Y181500D01*
X301500Y168500D02*
X303000Y167000D01*
X313000Y175500D02*
X316323D01*
X266432Y179750D02*
X268991Y177191D01*
X270500Y175682D01*
X321423Y179100D02*
X321686D01*
X321323Y179000D02*
X321423Y179100D01*
X315000Y179000D02*
X321323D01*
X321837Y178100D02*
X323163D01*
X305300Y178000D02*
X321737D01*
X321686Y179100D02*
X322801Y180215D01*
X329785D01*
X323163Y178100D02*
X325263Y176000D01*
X285500Y185000D02*
X288000Y182500D01*
X282500Y185000D02*
X286000Y181500D01*
X279500Y183000D02*
X282000Y180500D01*
X275191Y177191D02*
X277500Y179500D01*
X289500Y183500D02*
X292243D01*
X285500Y187500D02*
X289500Y183500D01*
X271791Y187500D02*
X285500D01*
X338737Y181500D02*
X341337Y178900D01*
X338707Y182944D02*
X338707D01*
X338663Y182900D02*
X338707Y182944D01*
X337337Y182900D02*
X338663D01*
X337237Y183000D02*
X337337Y182900D01*
X333263Y183000D02*
X337237D01*
X333163Y182900D02*
X333263Y183000D01*
X331837Y182900D02*
X333163D01*
X339600Y183900D02*
Y187000D01*
X338763D02*
X339600D01*
X338163Y187600D02*
X338763Y187000D01*
X334428Y187600D02*
X338163D01*
X333728Y186900D02*
X334428Y187600D01*
X333486Y186900D02*
X333728D01*
X333086Y186500D02*
X333486Y186900D01*
X322596Y186500D02*
X333086D01*
X333314Y187900D02*
X336900Y191486D01*
X322610Y187900D02*
X333314D01*
X333600Y189837D02*
Y190223D01*
X332663Y188900D02*
X333600Y189837D01*
X325600Y188900D02*
X332663D01*
X332500Y184500D02*
X333900Y185900D01*
X338175Y172500D02*
X342409D01*
X338589Y171500D02*
X342900D01*
X331666Y175000D02*
X333500D01*
X327400Y170734D02*
X331666Y175000D01*
X339600Y183900D02*
X341400Y182100D01*
X340600Y184400D02*
Y189577D01*
Y184400D02*
X341900Y183100D01*
X274500Y215000D02*
X275500Y214000D01*
X276500D01*
X273000Y212000D02*
X275000Y210000D01*
X266500Y206000D02*
X276500D01*
X264496Y208004D02*
X266500Y206000D01*
X262257Y215000D02*
X274500D01*
X259379Y212121D02*
X262257Y215000D01*
X264894Y212000D02*
X273000D01*
X258197Y205303D02*
X264894Y212000D01*
X470010Y247000D02*
X476500D01*
X469760Y247250D02*
X470010Y247000D01*
X472096Y251000D02*
X476500D01*
X469346Y248250D02*
X472096Y251000D01*
X470250Y251750D02*
X474000Y255500D01*
X470250Y250568D02*
Y251750D01*
X468932Y249250D02*
X470250Y250568D01*
X474000Y255500D02*
X480500D01*
X337475Y237100D02*
X354648D01*
X338718Y240100D02*
X358900D01*
X332750Y246068D02*
X338718Y240100D01*
X331404Y246000D02*
X338304Y239100D01*
X328001Y246000D02*
X331404D01*
X338304Y239100D02*
X355476D01*
X337890Y238100D02*
X355062D01*
X330990Y245000D02*
X337890Y238100D01*
X330575Y244000D02*
X337475Y237100D01*
X207914Y244000D02*
X330575D01*
X327001Y247000D02*
X328001Y246000D01*
X327587Y245000D02*
X330990D01*
X332750Y246068D02*
Y246493D01*
X332243Y247000D02*
X332750Y246493D01*
X330500Y247000D02*
X332243D01*
X329000Y248500D02*
X330500Y247000D01*
X327086Y245500D02*
X327587Y245000D01*
X199500Y248500D02*
X329000D01*
X323250Y144169D02*
X334960Y132459D01*
X337859Y139459D02*
X353223D01*
X330250Y147068D02*
X337859Y139459D01*
X337445Y138459D02*
X353638D01*
X329250Y146654D02*
X337445Y138459D01*
X337031Y137459D02*
X354052D01*
X328250Y146240D02*
X337031Y137459D01*
X336617Y136459D02*
X354466D01*
X327250Y145825D02*
X336617Y136459D01*
X336203Y135459D02*
X354880D01*
X326250Y145411D02*
X336203Y135459D01*
X335788Y134459D02*
X355294D01*
X325250Y144997D02*
X335788Y134459D01*
X335374Y133459D02*
X355709D01*
X324250Y144583D02*
X335374Y133459D01*
X334960Y132459D02*
X356123D01*
X356164Y132500D02*
X398500D01*
X356123Y132459D02*
X356164Y132500D01*
X355750Y133500D02*
X398914D01*
X355709Y133459D02*
X355750Y133500D01*
X355336Y134500D02*
X399328D01*
X355294Y134459D02*
X355336Y134500D01*
X354922Y135500D02*
X399743D01*
X354880Y135459D02*
X354922Y135500D01*
X354507Y136500D02*
X400157D01*
X354466Y136459D02*
X354507Y136500D01*
X354093Y137500D02*
X400571D01*
X354052Y137459D02*
X354093Y137500D01*
X353679Y138500D02*
X400985D01*
X353638Y138459D02*
X353679Y138500D01*
X353265Y139500D02*
X401400D01*
X353223Y139459D02*
X353265Y139500D01*
X401899Y139000D02*
X409500D01*
X401400Y139500D02*
X401899Y139000D01*
X401485Y138000D02*
X409914D01*
X400985Y138500D02*
X401485Y138000D01*
X401071Y137000D02*
X410328D01*
X400571Y137500D02*
X401071Y137000D01*
X400657Y136000D02*
X410743D01*
X400157Y136500D02*
X400657Y136000D01*
X400243Y135000D02*
X414086D01*
X399743Y135500D02*
X400243Y135000D01*
X400828Y133000D02*
X413500D01*
X399328Y134500D02*
X400828Y133000D01*
X400414Y132000D02*
X416500D01*
X398914Y133500D02*
X400414Y132000D01*
X398500Y132500D02*
X404000Y127000D01*
X453404Y184500D02*
X462000D01*
X473500Y196000D01*
X463828Y179000D02*
X465000D01*
X460000Y185500D02*
X461000Y186500D01*
X453818Y185500D02*
X460000D01*
X453439Y185879D02*
X453818Y185500D01*
X453025Y184879D02*
X453404Y184500D01*
X463743Y180500D02*
X465000D01*
X460743Y183500D02*
X463743Y180500D01*
X452925Y183500D02*
X460743D01*
X452175Y184250D02*
X452925Y183500D01*
X460328Y182500D02*
X463828Y179000D01*
X452510Y182500D02*
X460328D01*
X451760Y183250D02*
X452510Y182500D01*
X463414Y178000D02*
X464000D01*
X459914Y181500D02*
X463414Y178000D01*
X452096Y181500D02*
X459914D01*
X451346Y182250D02*
X452096Y181500D01*
X459500Y180500D02*
X493000Y147000D01*
X451682Y180500D02*
X459500D01*
X450932Y181250D02*
X451682Y180500D01*
X452960Y184879D02*
X453025D01*
X452589Y185250D02*
X452960Y184879D01*
X453374Y185879D02*
X453439D01*
X453003Y186250D02*
X453374Y185879D01*
X465000Y180500D02*
X496000Y149500D01*
X464000Y253500D02*
X466000Y255500D01*
X466732Y251000D02*
X467500D01*
X465232Y252500D02*
X466732Y251000D01*
X439757Y252500D02*
X465232D01*
X440172Y251500D02*
X464818D01*
X464404Y250500D02*
X466654Y248250D01*
X463990Y249500D02*
X466240Y247250D01*
X441000Y249500D02*
X463990D01*
X440586Y250500D02*
X464404D01*
X439343Y253500D02*
X464000D01*
X437672Y249000D02*
X440172Y251500D01*
X438086Y248000D02*
X440586Y250500D01*
X438050Y252207D02*
X439343Y253500D01*
X409878Y252207D02*
X438050D01*
X438464Y251207D02*
X439757Y252500D01*
X410292Y251207D02*
X438464D01*
X436500Y245000D02*
X441000Y249500D01*
X387323Y229651D02*
X409878Y252207D01*
X389472Y230387D02*
X410292Y251207D01*
X434000Y239500D02*
X471000D01*
X433500Y240000D02*
X434000Y239500D01*
X431500Y242500D02*
X462000D01*
X409500Y249000D02*
X437672D01*
X466240Y247250D02*
X469760D01*
X466654Y248250D02*
X469346D01*
X467068Y249250D02*
X468932D01*
X464818Y251500D02*
X467068Y249250D01*
X410000Y248000D02*
X438086D01*
X480500Y255500D02*
X482750Y257750D01*
X475182Y221500D02*
X483750Y230068D01*
X482750Y267750D02*
X486000Y271000D01*
X483750Y266250D02*
X485500Y268000D01*
X483750Y230068D02*
Y266250D01*
X482750Y257750D02*
Y267750D01*
X233500Y216228D02*
Y218500D01*
Y216228D02*
X248000Y201728D01*
Y198098D02*
Y201728D01*
Y198098D02*
X266348Y179750D01*
X232500Y215814D02*
X247000Y201314D01*
X232500Y215814D02*
Y218914D01*
X231500Y215400D02*
Y219328D01*
Y215400D02*
X246000Y200900D01*
Y193000D02*
Y200900D01*
X245000Y190000D02*
Y200485D01*
X227500Y216571D02*
X244000Y200071D01*
Y187818D02*
Y200071D01*
X220000Y221243D02*
X242000Y199243D01*
X217500Y222328D02*
X241000Y198828D01*
X213500Y224914D02*
X240000Y198414D01*
X239000Y167000D02*
Y198000D01*
X240000Y179182D02*
Y198414D01*
X241000Y182182D02*
Y198828D01*
X242000Y184500D02*
Y199243D01*
X243000Y185500D02*
Y199657D01*
X247000Y195000D02*
Y201314D01*
X297000Y173500D02*
X297400Y173900D01*
X291500Y173016D02*
X293484D01*
X287000Y172500D02*
X291188Y176688D01*
X467500Y251000D02*
X468000Y251500D01*
X459510Y221500D02*
X475182D01*
X457932Y220250D02*
X461682Y216500D01*
X490328D02*
X496500D01*
X489328Y215500D02*
X490328Y216500D01*
X461268Y215500D02*
X489328D01*
X460268Y216500D02*
X461268Y215500D01*
X458500Y216500D02*
X460268D01*
X491414Y219000D02*
X494500D01*
X488914Y216500D02*
X491414Y219000D01*
X461682Y216500D02*
X488914D01*
X488500Y217500D02*
X494500Y223500D01*
X462096Y217500D02*
X488500D01*
X458346Y221250D02*
X462096Y217500D01*
X457000Y218000D02*
X458500Y216500D01*
X496500D02*
X502500Y222500D01*
X494500Y219000D02*
X497500Y222000D01*
X446925Y194000D02*
X452500D01*
X432925Y208000D02*
X446925Y194000D01*
X400505Y208000D02*
X432925D01*
X446510Y193000D02*
X452914D01*
X432510Y207000D02*
X446510Y193000D01*
X432096Y206000D02*
X451846Y186250D01*
X401334Y206000D02*
X432096D01*
X401748Y205000D02*
X431682D01*
X400920Y207000D02*
X432510D01*
X431682Y205000D02*
X451432Y185250D01*
X451846Y186250D02*
X453003D01*
X451432Y185250D02*
X452589D01*
X459000Y197672D02*
Y199182D01*
X455000Y193672D02*
X459000Y197672D01*
X455000Y188000D02*
Y193672D01*
X454750Y197750D02*
X456000Y199000D01*
X454750Y194836D02*
Y197750D01*
X452914Y193000D02*
X454750Y194836D01*
X453750Y195250D02*
Y199932D01*
X452500Y194000D02*
X453750Y195250D01*
X447825Y184250D02*
X452175D01*
X449068Y181250D02*
X450932D01*
X448654Y182250D02*
X451346D01*
X448240Y183250D02*
X451760D01*
X456932Y201250D02*
X459000Y199182D01*
X455068Y201250D02*
X456932D01*
X453750Y199932D02*
X455068Y201250D01*
X428586Y181000D02*
X445990D01*
X446818Y179000D02*
X449068Y181250D01*
X446404Y180000D02*
X448654Y182250D01*
X429000Y182000D02*
X445575D01*
X447825Y184250D01*
X445990Y181000D02*
X448240Y183250D01*
X423500Y187500D02*
X429000Y182000D01*
X422672Y185500D02*
X428172Y180000D01*
X422257Y184500D02*
X427757Y179000D01*
X421843Y183500D02*
X427343Y178000D01*
X428172Y180000D02*
X446404D01*
X427757Y179000D02*
X446818D01*
X427343Y178000D02*
X449000D01*
X450000Y179000D01*
X412000Y183500D02*
X421843D01*
X411586Y184500D02*
X422257D01*
X411172Y185500D02*
X422672D01*
X423086Y186500D02*
X428586Y181000D01*
X410757Y186500D02*
X423086D01*
X410343Y187500D02*
X423500D01*
X496000Y115757D02*
Y149500D01*
X495000Y116172D02*
Y149000D01*
X494000Y116586D02*
Y148000D01*
X478000Y103500D02*
X481500Y107000D01*
X487243D02*
X496000Y115757D01*
X481500Y107000D02*
X487243D01*
X486828Y108000D02*
X495000Y116172D01*
X481086Y108000D02*
X486828D01*
X478383Y105297D02*
X481086Y108000D01*
X486414Y109000D02*
X494000Y116586D01*
X480672Y109000D02*
X486414D01*
X477969Y106297D02*
X480672Y109000D01*
X493000Y117000D02*
Y147000D01*
X486000Y110000D02*
X493000Y117000D01*
X450000Y110000D02*
X486000D01*
X466000Y259500D02*
X471500Y265000D01*
X466000Y255500D02*
Y259500D01*
X471500Y265000D02*
Y270000D01*
X276500Y206000D02*
X277000Y206500D01*
X335500Y224500D02*
X337000Y226000D01*
X332068Y224750D02*
X335068Y221750D01*
X331654Y223750D02*
X334654Y220750D01*
X331240Y222750D02*
X334240Y219750D01*
X331325Y221250D02*
X333825Y218750D01*
X248250Y221250D02*
X331325D01*
X330911Y220250D02*
X333411Y217750D01*
X250432Y220250D02*
X330911D01*
X335068Y221750D02*
X336932D01*
X334654Y220750D02*
X337346D01*
X334240Y219750D02*
X338609D01*
X333825Y218750D02*
X338250D01*
X333411Y217750D02*
X336250D01*
X331154Y223750D02*
X331654D01*
X313904Y241000D02*
X331154Y223750D01*
X251250Y222750D02*
X331240D01*
X248500Y225500D02*
X251250Y222750D01*
X331568Y224750D02*
X332068D01*
X313318Y243000D02*
X331568Y224750D01*
X247182Y217000D02*
X250432Y220250D01*
X248000Y221000D02*
X248250Y221250D01*
X346400Y210724D02*
X349000Y213324D01*
X331323Y162500D02*
X331923Y161900D01*
X303663Y171163D02*
X303825Y171000D01*
X305500D01*
X306000Y170500D01*
Y168500D02*
Y170500D01*
Y168500D02*
X309500Y165000D01*
X320356Y168881D02*
X321644D01*
X317500Y171737D02*
X320356Y168881D01*
X303000Y167000D02*
X304746D01*
X310746Y161000D01*
X305332Y165000D02*
X310832Y159500D01*
X302000Y165000D02*
X305332D01*
X307418Y161500D02*
X310418Y158500D01*
X304500Y161500D02*
X307418D01*
X307004Y160500D02*
X310004Y157500D01*
X301500Y160500D02*
X307004D01*
X310832Y159500D02*
X315080D01*
X310418Y158500D02*
X315495D01*
X310004Y157500D02*
X315909D01*
X310746Y161000D02*
X314500D01*
X343000Y184750D02*
Y185500D01*
X303500Y162500D02*
X304500Y161500D01*
X331323Y162500D02*
X331500D01*
X331161Y162662D02*
X331323Y162500D01*
X309500Y165000D02*
X320500D01*
X329585Y162100D02*
Y163348D01*
X327600Y160115D02*
X329585Y162100D01*
X328585Y162514D02*
Y163762D01*
X326600Y160529D02*
X328585Y162514D01*
X327585Y162928D02*
Y164176D01*
X323382Y158725D02*
X327585Y162928D01*
X322968Y159725D02*
X326585Y163343D01*
X325585Y163757D02*
Y165193D01*
X322553Y160725D02*
X325585Y163757D01*
X324585Y164171D02*
Y164999D01*
X322139Y161725D02*
X324585Y164171D01*
X324439Y165146D02*
X324585Y164999D01*
X326585Y163343D02*
Y164779D01*
X323439Y164732D02*
Y165875D01*
Y164732D02*
X323585Y164585D01*
X329585Y163348D02*
X330684Y164447D01*
X328585Y163762D02*
X329684Y164861D01*
X327585Y164176D02*
X328684Y165275D01*
X326585Y164779D02*
X327369Y165563D01*
X325585Y165193D02*
X326684Y166292D01*
X324439Y165146D02*
Y165461D01*
X318720Y161725D02*
X322139D01*
X321725Y162725D02*
X323585Y164585D01*
X318305Y162725D02*
X321725D01*
X323439Y165875D02*
X324684Y167120D01*
X324439Y165461D02*
X325684Y166706D01*
Y167950D01*
X327557Y165563D02*
X327684Y165689D01*
X327369Y165563D02*
X327557D01*
X326600Y159163D02*
Y160529D01*
X327600Y159577D02*
Y160115D01*
Y159577D02*
X328100Y159077D01*
X334000Y166500D02*
X337500Y163000D01*
X334000Y166500D02*
Y168000D01*
X334086Y162000D02*
X345728D01*
X333923Y162163D02*
X334086Y162000D01*
X330100Y159900D02*
X346456D01*
X326684Y166292D02*
Y167535D01*
X326600Y159163D02*
X327100Y158663D01*
X328100Y156686D02*
Y159077D01*
X330000Y160000D02*
X330100Y159900D01*
X324684Y167120D02*
Y168364D01*
X318500Y174600D02*
X321000Y172100D01*
X316837Y174600D02*
X318500D01*
X318914Y175600D02*
X321514Y173000D01*
X316423Y175600D02*
X318914D01*
X303100Y176600D02*
X322400D01*
X319500Y167500D02*
Y167849D01*
X319000Y167500D02*
X319500D01*
X315495Y158500D02*
X318720Y161725D01*
X319134Y160725D02*
X322553D01*
X315909Y157500D02*
X319134Y160725D01*
X319548Y159725D02*
X322968D01*
X317400Y157577D02*
X319548Y159725D01*
X319962Y158725D02*
X323382D01*
X318400Y157163D02*
X319962Y158725D01*
X317500Y171737D02*
Y173000D01*
X321000Y170500D02*
Y172100D01*
X320000Y156500D02*
X320725Y155775D01*
Y154189D02*
Y155775D01*
X300500Y156500D02*
X316323D01*
X300086Y155500D02*
X316737D01*
X315080Y159500D02*
X318305Y162725D01*
X317686Y156100D02*
X318400Y156814D01*
Y157163D01*
X317400Y157228D02*
Y157577D01*
X317272Y157100D02*
X317400Y157228D01*
X316923Y157100D02*
X317272D01*
X317337Y156100D02*
X317686D01*
X316323Y156500D02*
X316923Y157100D01*
X316737Y155500D02*
X317337Y156100D01*
X327100Y157337D02*
Y158663D01*
X326000Y156237D02*
X327100Y157337D01*
X326000Y154586D02*
Y156237D01*
X325000Y157500D02*
X325500Y158000D01*
X325000Y152404D02*
Y157500D01*
X327112Y155698D02*
X328100Y156686D01*
X326000Y154586D02*
X333000Y147586D01*
Y147500D02*
Y147586D01*
X323000Y153328D02*
Y156500D01*
Y153328D02*
X324000Y152328D01*
X320725Y154189D02*
X323000Y151914D01*
X322000Y151161D02*
Y151500D01*
X318250Y155250D02*
X322000Y151500D01*
X321000Y150747D02*
Y151086D01*
X319311Y152775D02*
X321000Y151086D01*
X322000Y151161D02*
X327250Y145911D01*
X321000Y150747D02*
X326250Y145497D01*
X315775Y152775D02*
X319311D01*
X320033Y150300D02*
X325250Y145083D01*
X313300Y150300D02*
X320033D01*
X315500Y162000D02*
Y163000D01*
X314500Y161000D02*
X315500Y162000D01*
X334000Y192500D02*
X335000Y193500D01*
X341014Y192486D02*
X341673Y191827D01*
X334423Y190423D02*
X336486Y192486D01*
X341014D01*
X340600Y191486D02*
X341809Y190277D01*
X336900Y191486D02*
X340600D01*
X338577Y189577D02*
X340600D01*
X338500Y189500D02*
X338577Y189577D01*
X333400Y190423D02*
X334423D01*
X334243Y186000D02*
X337500D01*
X334143Y185900D02*
X334243Y186000D01*
X328500Y191000D02*
X330237D01*
X346356Y194976D02*
Y194998D01*
Y194976D02*
X346378D01*
X344068D02*
X346356D01*
X334337Y195100D02*
X335610D01*
X330237Y191000D02*
X334337Y195100D01*
X334210Y209600D02*
X336310Y207500D01*
X322135Y207049D02*
X324686Y209600D01*
X333796Y208600D02*
X336146Y206250D01*
X322400Y205900D02*
X325100Y208600D01*
X333675Y204250D02*
X335325Y202600D01*
X333260Y203250D02*
X335510Y201000D01*
X332846Y202250D02*
X335096Y200000D01*
X332432Y201250D02*
X334682Y199000D01*
X331522Y195250D02*
X333372Y197100D01*
X331677Y193991D02*
X333786Y196100D01*
X333400Y190423D02*
X333600Y190223D01*
X333786Y196100D02*
X335196D01*
X333372Y197100D02*
X334782D01*
X328568Y199250D02*
X330568Y201250D01*
X303750Y199250D02*
X328568D01*
X328154Y200250D02*
X330154Y202250D01*
X303202Y200250D02*
X328154D01*
X325100Y208600D02*
X333796D01*
X324686Y209600D02*
X334210D01*
X334782Y197100D02*
X335682Y198000D01*
X335503Y205250D02*
X336073D01*
X334503Y206250D02*
X335503Y205250D01*
X333250Y206250D02*
X334503D01*
X333000Y206500D02*
X333250Y206250D01*
X333000Y206500D02*
Y207000D01*
X335089Y204250D02*
X335659D01*
X334089Y205250D02*
X335089Y204250D01*
X328911Y205250D02*
X334089D01*
X326911Y203250D02*
X328911Y205250D01*
X301959Y203250D02*
X326911D01*
X329325Y204250D02*
X333675D01*
X327325Y202250D02*
X329325Y204250D01*
X302373Y202250D02*
X327325D01*
X329740Y203250D02*
X333260D01*
X327740Y201250D02*
X329740Y203250D01*
X302787Y201250D02*
X327740D01*
X330154Y202250D02*
X332846D01*
X330568Y201250D02*
X332432D01*
X335196Y196100D02*
X335496Y196400D01*
X335610Y195100D02*
X335910Y195400D01*
X340509D01*
X335496Y196400D02*
X340923D01*
X336509Y197400D02*
X341337D01*
X335909Y198000D02*
X336509Y197400D01*
X335682Y198000D02*
X335909D01*
X313846Y195250D02*
X331522D01*
X339077Y198400D02*
X340177Y199500D01*
X336923Y198400D02*
X339077D01*
X336323Y199000D02*
X336923Y198400D01*
X334682Y199000D02*
X336323D01*
X338663Y199400D02*
X339763Y200500D01*
X337337Y199400D02*
X338663D01*
X336737Y200000D02*
X337337Y199400D01*
X335096Y200000D02*
X336737D01*
X335325Y202600D02*
X340077D01*
X336009Y203900D02*
X340637D01*
X336423Y204900D02*
X340223D01*
X336073Y205250D02*
X336423Y204900D01*
X339809Y205900D02*
X340333Y206424D01*
X336837Y205900D02*
X339809D01*
X336487Y206250D02*
X336837Y205900D01*
X336146Y206250D02*
X336487D01*
X340100Y213100D02*
X345500Y218500D01*
X331400Y213100D02*
X340100D01*
X336310Y207500D02*
X337500D01*
X335659Y204250D02*
X336009Y203900D01*
X335510Y201000D02*
X338000D01*
X340333Y206424D02*
X340333D01*
X342500Y210500D02*
X344500Y208500D01*
X341337Y197400D02*
X341837Y196900D01*
X340923Y196400D02*
X341423Y195900D01*
X340509Y195400D02*
X341009Y194900D01*
X339763Y200500D02*
X340823D01*
X340177Y199500D02*
X340409D01*
X333900Y185900D02*
X334143D01*
X338000Y200500D02*
Y201000D01*
X341900Y183100D02*
X343000D01*
Y183237D01*
X345078Y185315D01*
X330500Y179500D02*
X331500D01*
X329785Y180215D02*
X330500Y179500D01*
X334850Y176600D02*
X335500Y177250D01*
X326400Y170080D02*
Y171148D01*
X325400Y171500D02*
Y171562D01*
X327400Y169666D02*
Y170734D01*
X328400Y170320D02*
X331480Y173400D01*
X328400Y169252D02*
Y170320D01*
X329400Y169905D02*
X331895Y172400D01*
X329400Y168837D02*
Y169905D01*
X330400Y168423D02*
Y169491D01*
X331400Y167829D02*
Y169077D01*
X332400Y167415D02*
Y168663D01*
X336163Y178850D02*
X336513Y178500D01*
X341637Y201100D02*
X342612D01*
X340837Y201900D02*
X341637Y201100D01*
X341323Y200000D02*
X341737D01*
X340823Y200500D02*
X341323Y200000D01*
X340909Y199000D02*
X342500D01*
X340409Y199500D02*
X340909Y199000D01*
X341837Y200100D02*
X343814D01*
X341737Y200000D02*
X341837Y200100D01*
X340600Y201900D02*
X340837D01*
X340600D02*
Y202077D01*
X340077Y202600D02*
X340600Y202077D01*
X341697Y202975D02*
X345771D01*
X341697D02*
X342000Y203278D01*
X340223Y204900D02*
X340747Y205424D01*
X340333Y206424D02*
X340509Y206600D01*
X338707Y182944D02*
X341151Y180500D01*
X341009Y194900D02*
X343991D01*
X343000Y179000D02*
X343500Y178500D01*
X342763Y179000D02*
X343000D01*
X342663Y178900D02*
X342763Y179000D01*
X341337Y178900D02*
X342663D01*
X340223Y178600D02*
X341923Y176900D01*
X337837Y178600D02*
X340223D01*
X340509Y206600D02*
X343491D01*
X341423Y195900D02*
X343577D01*
X341837Y196900D02*
X343163D01*
X344396Y198133D01*
X343653Y195976D02*
X345072D01*
X343577Y195900D02*
X343653Y195976D01*
X343991Y194900D02*
X344068Y194976D01*
X344138Y199776D02*
X345722D01*
X343814Y200100D02*
X344138Y199776D01*
X342787Y201276D02*
X346378D01*
X342612Y201100D02*
X342787Y201276D01*
X343263Y204000D02*
X345382D01*
X342663Y204600D02*
X343263Y204000D01*
X344968Y205000D02*
X345146Y205178D01*
X343677Y205000D02*
X344968D01*
X343077Y205600D02*
X343677Y205000D01*
X344554Y206000D02*
X344732Y206178D01*
X344091Y206000D02*
X344554D01*
X343491Y206600D02*
X344091Y206000D01*
X341337Y204600D02*
X342663D01*
X340637Y203900D02*
X341337Y204600D01*
X340923Y205600D02*
X343077D01*
X340747Y205424D02*
X340923Y205600D01*
X340747Y205424D02*
X340747D01*
X340747Y205424D02*
Y205424D01*
X344732Y206178D02*
X348736D01*
X344327Y207178D02*
X349150D01*
X343905Y207600D02*
X344327Y207178D01*
X341400Y207600D02*
X343905D01*
X339500Y209500D02*
X341400Y207600D01*
X344500Y208500D02*
X348000D01*
X323750Y190750D02*
X325600Y188900D01*
X321834Y187262D02*
X322596Y186500D01*
X360000Y214000D02*
X361000Y213000D01*
X360000Y214000D02*
Y214400D01*
X361213Y214601D02*
X364778D01*
X364364Y215601D02*
X364663Y215900D01*
X363038Y215601D02*
X364364D01*
X362101Y216538D02*
X363038Y215601D01*
X364400Y219163D02*
X365337Y220100D01*
X361752Y219163D02*
X364400D01*
X363986Y220163D02*
X364923Y221100D01*
X362166Y220163D02*
X363986D01*
X361606Y220723D02*
X362166Y220163D01*
X360414Y215400D02*
X361213Y214601D01*
X367900Y218837D02*
X368837Y217900D01*
X367900Y218837D02*
Y218963D01*
X366763Y220100D02*
X367900Y218963D01*
X365337Y220100D02*
X366763D01*
X371568Y219305D02*
Y223316D01*
X370163Y217900D02*
X371568Y219305D01*
X370777Y217100D02*
X372320D01*
X370577Y216900D02*
X370777Y217100D01*
X371191Y216100D02*
X371905D01*
X370991Y215900D02*
X371191Y216100D01*
X371505Y215000D02*
X377500D01*
X371405Y214900D02*
X371505Y215000D01*
X367000Y222000D02*
Y224748D01*
X366198Y221198D02*
X367000Y222000D01*
X365774Y221198D02*
X366198D01*
X365675Y221100D02*
X365774Y221198D01*
X364923Y221100D02*
X365675D01*
X368500Y221000D02*
Y227477D01*
Y221000D02*
X369500Y220000D01*
X365077Y214900D02*
X371405D01*
X364778Y214601D02*
X365077Y214900D01*
X366000Y218500D02*
X366752D01*
X358837Y215400D02*
X360414D01*
X362101Y216538D02*
Y217399D01*
X360900Y218600D02*
X362101Y217399D01*
X358837Y218600D02*
X360900D01*
X357437Y216800D02*
X358837Y215400D01*
X357200Y216800D02*
X357437D01*
X354128Y219872D02*
X357200Y216800D01*
X361191Y219723D02*
X361752Y219163D01*
X357106Y219723D02*
X361191D01*
X357520Y220723D02*
X361606D01*
X358737Y218500D02*
X358837Y218600D01*
X358000Y209400D02*
Y211737D01*
X355937Y213800D02*
X358000Y211737D01*
X364199Y213324D02*
X364916D01*
X365330Y212324D02*
X365513Y212508D01*
X364613Y212324D02*
X365330D01*
X365513Y212508D02*
X368745D01*
X358423Y214400D02*
X360000D01*
X352677Y210724D02*
X354472D01*
X352698Y216474D02*
X355372Y213800D01*
X353086Y217500D02*
X355786Y214800D01*
X355372Y213800D02*
X355937D01*
X354472Y210724D02*
X356796Y208400D01*
X354658Y209124D02*
X356382Y207400D01*
X356200Y215800D02*
X357023D01*
X353500Y218500D02*
X356200Y215800D01*
X348624Y209124D02*
X354658D01*
X355786Y214800D02*
X356609D01*
X357023Y215800D02*
X358423Y214400D01*
X356914Y218500D02*
X358737D01*
X355370Y222872D02*
X357520Y220723D01*
X360723Y221723D02*
X362126Y223126D01*
X357934Y221723D02*
X360723D01*
X355784Y223872D02*
X357934Y221723D01*
X364916Y213324D02*
X365491Y213900D01*
X368745Y212508D02*
X368837Y212600D01*
X362126Y223126D02*
Y226472D01*
X369500Y219500D02*
Y220000D01*
X372420Y217000D02*
X379237D01*
X372320Y217100D02*
X372420Y217000D01*
X372005Y216000D02*
X378500D01*
X371905Y216100D02*
X372005Y216000D01*
X364663Y215900D02*
X370991D01*
X365491Y213900D02*
X376100D01*
X375112Y212600D02*
X380211Y207500D01*
X368837Y212600D02*
X375112D01*
X350974Y216474D02*
X352698D01*
X349000Y217500D02*
X353086D01*
X345500Y218500D02*
X353500D01*
X348000Y208500D02*
X348624Y209124D01*
X345146Y205178D02*
X348322D01*
X347714Y204178D02*
X349016Y202876D01*
X345560Y204178D02*
X347714D01*
X345382Y204000D02*
X345560Y204178D01*
X347300Y203178D02*
X348237Y202241D01*
X345974Y203178D02*
X347300D01*
X345771Y202975D02*
X345974Y203178D01*
X348736Y206178D02*
X349914Y205000D01*
X347249Y199978D02*
X347501Y199726D01*
X345924Y199978D02*
X347249D01*
X345722Y199776D02*
X345924Y199978D01*
X347199Y196778D02*
X347451Y196526D01*
X345873Y196778D02*
X347199D01*
X345072Y195976D02*
X345873Y196778D01*
X347148Y193578D02*
X347227Y193500D01*
X345823Y193578D02*
X347148D01*
X345745Y193500D02*
X345823Y193578D01*
X335000Y193500D02*
X345745D01*
X341909Y190378D02*
X348850D01*
X346435Y188735D02*
Y188778D01*
X346378Y188677D02*
X346435Y188735D01*
X342677Y188677D02*
X346378D01*
X337500Y214500D02*
Y216500D01*
X337000Y215000D02*
X337500Y214500D01*
X339500Y209500D02*
Y210500D01*
X339000Y211000D02*
X339500Y210500D01*
X339000Y211000D02*
Y211500D01*
X344396Y198133D02*
X346385D01*
X349150Y207178D02*
X350328Y206000D01*
X349000Y213324D02*
Y214500D01*
X354458Y206000D02*
X355058Y205400D01*
X350328Y206000D02*
X354458D01*
X354044Y205000D02*
X355044Y204000D01*
X349914Y205000D02*
X354044D01*
X353754Y203876D02*
X355277Y202352D01*
X349624Y203876D02*
X353754D01*
X353340Y202876D02*
X354277Y201938D01*
X349016Y202876D02*
X353340D01*
X354542Y220872D02*
X356914Y218500D01*
X354956Y221872D02*
X357106Y219723D01*
X357748Y223323D02*
X358976D01*
X356199Y224872D02*
X357748Y223323D01*
X353471Y220872D02*
X354542D01*
X353885Y221872D02*
X354956D01*
X354299Y222872D02*
X355370D01*
X354713Y223872D02*
X355784D01*
X355128Y224872D02*
X356199D01*
X346679Y219872D02*
X354128D01*
X451100Y210400D02*
X457500Y204000D01*
X346378Y213874D02*
Y214878D01*
X349000Y217500D01*
Y214500D02*
X350974Y216474D01*
X368423Y216900D02*
X370577D01*
X366900Y218423D02*
X368423Y216900D01*
X368837Y217900D02*
X370163D01*
X380211Y207500D02*
X395580D01*
X376100Y213900D02*
X381500Y208500D01*
X395995D01*
X383000Y209500D02*
X396409D01*
X377500Y215000D02*
X383000Y209500D01*
X384000Y210500D02*
X396823D01*
X378500Y216000D02*
X384000Y210500D01*
X402568Y216250D02*
X416432D01*
X399645Y219173D02*
X402568Y216250D01*
X402154Y215250D02*
X416846D01*
X399404Y218000D02*
X402154Y215250D01*
X401740Y214250D02*
X417260D01*
X400240Y215750D02*
X401740Y214250D01*
X401325Y213250D02*
X417675D01*
X400218Y214357D02*
X401325Y213250D01*
X400911Y212250D02*
X418089D01*
X400161Y213000D02*
X400911Y212250D01*
X418653Y211400D02*
X447496D01*
X399513Y211250D02*
X418503D01*
X418653Y211400D01*
X399163Y210900D02*
X399513Y211250D01*
X419067Y210400D02*
X451100D01*
X399927Y210250D02*
X418917D01*
X419067Y210400D01*
X399577Y209900D02*
X399927Y210250D01*
X400091Y209000D02*
X450500D01*
X399991Y208900D02*
X400091Y209000D01*
X400405Y207900D02*
X400505Y208000D01*
X400820Y206900D02*
X400920Y207000D01*
X419243Y213500D02*
X420100Y214357D01*
X418828Y214500D02*
X420078Y215750D01*
X418000Y216500D02*
X424250Y222750D01*
X418339Y212500D02*
X419657D01*
X418089Y212250D02*
X418339Y212500D01*
X417925Y213500D02*
X419243D01*
X417675Y213250D02*
X417925Y213500D01*
X417510Y214500D02*
X418828D01*
X417260Y214250D02*
X417510Y214500D01*
X417096Y215500D02*
X418414D01*
X416846Y215250D02*
X417096Y215500D01*
X416682Y216500D02*
X418000D01*
X416432Y216250D02*
X416682Y216500D01*
X396180Y206900D02*
X400820D01*
X395580Y207500D02*
X396180Y206900D01*
X395995Y208500D02*
X396595Y207900D01*
X400405D01*
X397009Y208900D02*
X399991D01*
X396409Y209500D02*
X397009Y208900D01*
X397423Y209900D02*
X399577D01*
X396823Y210500D02*
X397423Y209900D01*
X397837Y210900D02*
X399163D01*
X397237Y211500D02*
X397837Y210900D01*
X385500Y211500D02*
X397237D01*
X418414Y215500D02*
X419664Y216750D01*
X419657Y212500D02*
X420157Y213000D01*
X380750Y216250D02*
X385500Y211500D01*
X427175Y214357D02*
X429068Y216250D01*
X420100Y214357D02*
X427175D01*
X397594D02*
X400218D01*
X397237Y214000D02*
X397594Y214357D01*
X393453Y214000D02*
X397237D01*
X390472Y216980D02*
X393453Y214000D01*
X433932Y215750D02*
X435682Y217500D01*
X431432Y215750D02*
X433932D01*
X430932Y216250D02*
X431432Y215750D01*
X429068Y216250D02*
X430932D01*
X420750Y216750D02*
X424500Y220500D01*
X419664Y216750D02*
X420750D01*
X429000Y213000D02*
X430000Y214000D01*
X420157Y213000D02*
X429000D01*
X398500D02*
X400161D01*
X398500Y212500D02*
Y213000D01*
X424500Y220500D02*
X436000D01*
X424250Y222750D02*
X436932D01*
X423836Y223750D02*
X437664D01*
X401234Y205900D02*
X401334Y206000D01*
X395766Y205900D02*
X401234D01*
X395666Y206000D02*
X395766Y205900D01*
X382177Y206000D02*
X395666D01*
X382077Y206100D02*
X382177Y206000D01*
X379423Y206100D02*
X382077D01*
X376900Y203577D02*
X379423Y206100D01*
X381663Y205100D02*
X381863Y204900D01*
X379837Y205100D02*
X381663D01*
X377900Y203163D02*
X379837Y205100D01*
X381863Y204900D02*
X401648D01*
X435682Y217500D02*
X442000D01*
X456068Y202250D02*
X459250D01*
X455250Y203068D02*
X456068Y202250D01*
X459250D02*
X461500Y200000D01*
X457500Y204000D02*
Y204500D01*
X346378Y220173D02*
X346679Y219872D01*
X461500Y197500D02*
Y200000D01*
Y197500D02*
X462500Y196500D01*
X455250Y203068D02*
Y204250D01*
X450500Y209000D02*
X455250Y204250D01*
X352077Y227923D02*
X355128Y224872D01*
X351663Y226923D02*
X354713Y223872D01*
X351249Y225923D02*
X354299Y222872D01*
X350835Y224923D02*
X353885Y221872D01*
X351020Y223323D02*
X353471Y220872D01*
X348865Y224923D02*
X350835D01*
X348451Y225923D02*
X351249D01*
X348036Y226923D02*
X351663D01*
X349528Y223323D02*
X351020D01*
X347622Y227923D02*
X352077D01*
X286828Y188500D02*
X290164Y185164D01*
X279500Y183000D02*
Y185000D01*
X267646Y191646D02*
X271791Y187500D01*
X274500Y188500D02*
X286828D01*
X272000Y191000D02*
X274500Y188500D01*
X321514Y173000D02*
X323000D01*
X338500Y157500D02*
X343000D01*
X323000Y151575D02*
X328250Y146325D01*
X323000Y151575D02*
Y151914D01*
X324000Y151990D02*
Y152328D01*
X325000Y152404D02*
X330250Y147154D01*
X311096Y198000D02*
X313846Y195250D01*
X330250Y147068D02*
Y147154D01*
X324000Y151990D02*
X329250Y146740D01*
Y146654D02*
Y146740D01*
X328250Y146240D02*
Y146325D01*
X327250Y145825D02*
Y145911D01*
X326250Y145411D02*
Y145497D01*
X325250Y144997D02*
Y145083D01*
X324250Y144583D02*
Y144669D01*
X321093Y147825D02*
X324250Y144669D01*
X323250Y144169D02*
Y144254D01*
X322154Y145351D02*
X323250Y144254D01*
X310825Y147825D02*
X321093D01*
X332772Y161900D02*
X333672Y161000D01*
X331923Y161900D02*
X332772D01*
X346142Y161000D02*
X347042Y161900D01*
X345728Y162000D02*
X346628Y162900D01*
X345314Y163000D02*
X346214Y163900D01*
X343500Y168500D02*
X344000Y168000D01*
X338500Y151000D02*
Y157500D01*
X332560Y150250D02*
X333432D01*
X308350Y145351D02*
X322154D01*
X337000Y145000D02*
Y146682D01*
X333432Y150250D02*
X337000Y146682D01*
X404159Y167750D02*
X408500Y172091D01*
X404154Y167750D02*
X404159D01*
X403404Y167000D02*
X404154Y167750D01*
X404568Y166750D02*
X404573D01*
X403818Y166000D02*
X404568Y166750D01*
X404573D02*
X412000Y174177D01*
X324000Y253500D02*
X328000Y249500D01*
X332500D01*
X335000Y247000D01*
X200000D02*
X327001D01*
X285000Y164750D02*
X287000Y166750D01*
X277750Y164750D02*
X285000D01*
X287000Y166750D02*
Y172500D01*
X278086Y166500D02*
X283638D01*
X276336Y164750D02*
X278086Y166500D01*
X294000Y133500D02*
X303500Y143000D01*
X294000Y129000D02*
Y133500D01*
Y129000D02*
X297000Y126000D01*
X309500D01*
X293500Y163500D02*
X300500Y156500D01*
X277864Y158500D02*
X282500D01*
X277273Y157909D02*
X277864Y158500D01*
X414000Y172581D02*
Y174500D01*
X416500Y177000D01*
X417334Y174500D02*
X440500D01*
X416248Y172000D02*
X436500D01*
X414250Y178432D02*
X416318Y180500D01*
X414250Y177568D02*
Y178432D01*
X405586Y178500D02*
X411586Y184500D01*
X405172Y179500D02*
X411172Y185500D01*
X405129Y180871D02*
X410757Y186500D01*
X404752Y190252D02*
X406500Y192000D01*
X402250Y186750D02*
X409593D01*
X410343Y187500D01*
X405129Y180871D02*
X405129D01*
X405000Y229000D02*
X467318D01*
X403677Y230000D02*
X426500D01*
X410250Y225568D02*
Y226068D01*
X409818Y226500D02*
X410250Y226068D01*
X407500Y226500D02*
X409818D01*
X346353Y182353D02*
X346378Y182378D01*
X473500Y196000D02*
X477500D01*
X459000Y191500D02*
X461000Y189500D01*
Y186500D02*
Y189500D01*
X465000Y179000D02*
X495000Y149000D01*
X464000Y178000D02*
X494000Y148000D01*
X473000Y178500D02*
Y189000D01*
X210500Y226500D02*
X239000Y198000D01*
X223000Y219657D02*
X243000Y199657D01*
X229500Y215985D02*
X245000Y200485D01*
X235500Y223328D02*
Y226500D01*
X231500Y219328D02*
X235500Y223328D01*
X238791Y225205D02*
Y230000D01*
X232500Y218914D02*
X238791Y225205D01*
X233500Y218500D02*
X241500Y226500D01*
X229500Y215985D02*
Y223000D01*
X227500Y216571D02*
Y226500D01*
X223000Y219657D02*
Y228000D01*
X220000Y221243D02*
Y228000D01*
X217500Y222328D02*
Y231000D01*
X213500Y224914D02*
Y228000D01*
X210500Y226500D02*
Y230500D01*
X240000Y179182D02*
X242500Y176682D01*
X266348Y179750D02*
X266432D01*
X292500Y214000D02*
X301128Y205250D01*
X443703Y106297D02*
X477969D01*
X440000Y110000D02*
X443703Y106297D01*
X434703Y105297D02*
X478383D01*
X430000Y110000D02*
X434703Y105297D01*
X439000Y169500D02*
X443500D01*
X436500Y172000D02*
X439000Y169500D01*
X443500D02*
X446500Y172500D01*
X440500Y174500D02*
X442000Y173000D01*
X421500Y146757D02*
Y151000D01*
X410743Y136000D02*
X421500Y146757D01*
X490024Y156890D02*
X520110D01*
X468500Y178414D02*
X490024Y156890D01*
X468500Y178414D02*
Y184000D01*
X426500Y103500D02*
X478000D01*
X420000Y110000D02*
X426500Y103500D01*
X490000Y161500D02*
X508000D01*
X473000Y178500D02*
X490000Y161500D01*
X449000Y134000D02*
X449500D01*
X446500Y131500D02*
X449000Y134000D01*
X446500Y123500D02*
Y129500D01*
X442500Y119500D02*
X446500Y123500D01*
X424500Y119500D02*
X442500D01*
X409500Y126000D02*
X415000D01*
X419000Y130000D01*
Y133500D01*
X417500Y135000D02*
X419000Y133500D01*
X415500Y135000D02*
X417500D01*
X418000Y136000D02*
X419750Y134250D01*
X415086Y136000D02*
X418000D01*
X414086Y135000D02*
X415086Y136000D01*
X413500Y133000D02*
X415500Y135000D01*
X435432Y133750D02*
X441000Y139318D01*
X433568Y133750D02*
X435432D01*
X432568Y134750D02*
X433568Y133750D01*
X432500Y134682D02*
X432568Y134750D01*
X432500Y133929D02*
Y134682D01*
X419750Y134250D02*
X421250D01*
X421500Y134000D01*
X451250Y217750D02*
X453750Y220250D01*
X451250Y216568D02*
Y217750D01*
X453750Y220250D02*
X457932D01*
X454096Y218000D02*
X457000D01*
X447496Y211400D02*
X454096Y218000D01*
X447432Y215250D02*
X449932D01*
X451250Y216568D01*
X452507Y223250D02*
X459175D01*
X452922Y222250D02*
X458760D01*
X453336Y221250D02*
X458346D01*
X441500Y222500D02*
X451757D01*
X452507Y223250D01*
X452172Y221500D02*
X452922Y222250D01*
X451586Y221500D02*
X452172D01*
X452586Y220500D02*
X453336Y221250D01*
X452000Y220500D02*
X452586D01*
X431399Y130000D02*
X442414D01*
X430985Y131000D02*
X442000D01*
X427500Y136000D02*
Y156500D01*
X428500Y135586D02*
Y156914D01*
X429500Y135172D02*
Y157328D01*
X430500Y134757D02*
Y148000D01*
X431500Y134343D02*
Y138843D01*
X442000Y131000D02*
X446000Y135000D01*
X442414Y130000D02*
X447000Y134586D01*
X431657Y138843D02*
X434500Y136000D01*
X431500Y138843D02*
X431657D01*
X441000Y139318D02*
Y145000D01*
X430500Y148000D02*
X434500Y152000D01*
X423000Y163828D02*
Y164500D01*
Y163828D02*
X429500Y157328D01*
X421500Y163914D02*
Y165500D01*
Y163914D02*
X428500Y156914D01*
X417000Y167000D02*
X427500Y156500D01*
X421500Y165500D02*
X422750Y166750D01*
X423000Y164500D02*
X424250Y165750D01*
X401500Y225500D02*
X402000Y225000D01*
X459925Y222500D02*
X474682D01*
X459175Y223250D02*
X459925Y222500D01*
X458760Y222250D02*
X459510Y221500D01*
X450336Y220250D02*
X451586Y221500D01*
X443846Y220250D02*
X450336D01*
X449000Y217500D02*
X452000Y220500D01*
X474682Y222500D02*
X477750Y225568D01*
X472750Y224750D02*
X474500Y226500D01*
X442932Y224750D02*
X472750D01*
X442932Y219750D02*
X447432Y215250D01*
X440346Y220750D02*
X443346D01*
X439250Y221846D02*
X440346Y220750D01*
X439250Y221846D02*
Y222164D01*
X439932Y219750D02*
X442932D01*
X436932Y222750D02*
X439932Y219750D01*
X437664Y223750D02*
X439250Y222164D01*
X442432Y225250D02*
X442932Y224750D01*
X441500Y222500D02*
Y223000D01*
X443346Y220750D02*
X443846Y220250D01*
X399090Y219173D02*
X399645D01*
X432500Y217500D02*
X433000Y218000D01*
X389810Y218580D02*
X391142D01*
X392735Y220173D01*
X393622D01*
X486000Y271000D02*
X498000D01*
X485500Y268000D02*
X500964D01*
X433500Y245000D02*
X436500D01*
X389472Y228887D02*
Y230387D01*
X387323Y229622D02*
Y229651D01*
Y226737D02*
X389472Y228887D01*
X387323Y226472D02*
Y226737D01*
X413818Y226500D02*
X415068Y227750D01*
X477750Y227250D02*
X480500Y230000D01*
X477750Y225568D02*
Y227250D01*
X479818Y234000D02*
X480500D01*
X474500Y226500D02*
X475500D01*
X422336Y222250D02*
X423836Y223750D01*
X412568Y223250D02*
X421922D01*
X394695Y222250D02*
X422336D01*
X398000Y218000D02*
X399404D01*
X401400Y220600D02*
X402000Y220000D01*
X393622Y220173D02*
X394049Y220600D01*
X393622Y217024D02*
X394761D01*
X428500Y217500D02*
X432500D01*
X418000Y225500D02*
X421500D01*
X298500Y129000D02*
X298750Y128750D01*
X199500Y125500D02*
X204601D01*
X201414Y129500D02*
X206257D01*
X203000Y130500D02*
X206672D01*
X200172Y126500D02*
X205015D01*
X200586Y127500D02*
X205429D01*
X201000Y128500D02*
X205843D01*
X206000Y131500D02*
X207086D01*
X183500Y154000D02*
X206000Y131500D01*
X184000Y149500D02*
X203000Y130500D01*
X185914Y145000D02*
X201414Y129500D01*
X188000Y141500D02*
X201000Y128500D01*
X188336Y139750D02*
X200586Y127500D01*
X187922Y138750D02*
X200172Y126500D01*
X187500Y137500D02*
X199500Y125500D01*
X185500Y137500D02*
X187500D01*
X181000Y133000D02*
X185500Y137500D01*
X185000Y141500D02*
X188000D01*
X184000Y142500D02*
X185000Y141500D01*
X182154Y138750D02*
X187922D01*
X182568Y139750D02*
X188336D01*
X204654Y145154D02*
X208154Y141654D01*
X204654Y145154D02*
Y146346D01*
X236000Y158500D02*
Y159500D01*
X249500Y144000D02*
X250000Y144500D01*
X245000Y144000D02*
X249500D01*
X368382Y229622D02*
X368598Y229839D01*
X449500Y133500D02*
Y134000D01*
X446500Y129500D02*
Y131500D01*
X165500Y158000D02*
X182000D01*
X439096Y163500D02*
X442500D01*
X438500Y160500D02*
Y162682D01*
X435432Y165750D02*
X438500Y162682D01*
X424250Y165750D02*
X435432D01*
X422750Y166750D02*
X435846D01*
X439096Y163500D01*
X438000Y156000D02*
X446500D01*
X434500Y159500D02*
X438000Y156000D01*
X167500Y154000D02*
X183500D01*
X169500Y149500D02*
X184000D01*
X172500Y145000D02*
X185914D01*
X434500Y159500D02*
Y163500D01*
X171000Y143500D02*
X172500Y145000D01*
X442500Y137682D02*
X449000Y144182D01*
X442500Y136500D02*
Y137682D01*
X440000Y134000D02*
X442500Y136500D01*
X447500Y139500D02*
X451000D01*
X446000Y138000D02*
X447500Y139500D01*
X453250Y138568D02*
Y143250D01*
X451432Y136750D02*
X453250Y138568D01*
X449068Y136750D02*
X451432D01*
X447000Y134682D02*
X449068Y136750D01*
X449000Y144182D02*
Y148500D01*
X450500Y139000D02*
X451000Y139500D01*
X446000Y135000D02*
Y138000D01*
X453000Y143500D02*
X453250Y143250D01*
X183500Y142000D02*
X184000Y142500D01*
X179904Y136500D02*
X182154Y138750D01*
X178500Y136500D02*
X179904D01*
X181318Y141000D02*
X182568Y139750D01*
X179500Y141000D02*
X181318D01*
X245000Y190000D02*
X260500Y174500D01*
X173000Y222000D02*
X199500Y248500D01*
X168500Y222000D02*
X173000D01*
X171500Y218500D02*
X200000Y247000D01*
X170500Y218500D02*
X171500D01*
X165500Y219000D02*
X168500Y222000D01*
X178500Y216000D02*
X208000Y245500D01*
X178914Y215000D02*
X207914Y244000D01*
X179328Y214000D02*
X208328Y243000D01*
X174500Y216000D02*
X178500D01*
X176682Y215000D02*
X178914D01*
X177096Y214000D02*
X179328D01*
X175596Y212500D02*
X177096Y214000D01*
X175432Y213750D02*
X176682Y215000D01*
X167568Y213750D02*
X175432D01*
X165500Y212500D02*
X175596D01*
X177500Y210500D02*
X208000Y241000D01*
X197000Y273000D02*
X199750Y270250D01*
X201000Y275000D02*
X203500Y272500D01*
X210500Y275000D02*
X269000D01*
X199318Y267500D02*
X265000D01*
X191500Y275318D02*
X199318Y267500D01*
X191500Y275318D02*
Y275500D01*
X187500Y274000D02*
X196500Y265000D01*
X350754Y235100D02*
X352500Y233354D01*
X340600Y235100D02*
X350754D01*
X346699Y227000D02*
X347622Y227923D01*
X347114Y226000D02*
X348036Y226923D01*
X353500Y231949D02*
X358976Y226472D01*
X352500Y229799D02*
Y233354D01*
X353500Y231949D02*
Y235500D01*
X354648Y237100D02*
X362126Y229622D01*
X355062Y238100D02*
X356662Y236500D01*
X355476Y239100D02*
X357076Y237500D01*
X358900Y240100D02*
X359000Y240000D01*
X357076Y237500D02*
X363697D01*
X356662Y236500D02*
X362000D01*
X355500Y233500D02*
X358976Y230024D01*
Y229622D02*
Y230024D01*
X362000Y236500D02*
X365500Y233000D01*
X374724Y223323D02*
X374823D01*
X501982Y266982D02*
X502000Y267000D01*
Y268000D01*
X500964D02*
X501982Y266982D01*
X412500Y226500D02*
X413818D01*
X410250Y225568D02*
X412568Y223250D01*
X393622Y223323D02*
X394695Y222250D01*
X216500Y232000D02*
X217500Y231000D01*
X365500Y230380D02*
Y233000D01*
X146750Y220750D02*
X160568D01*
X144500Y218500D02*
X146750Y220750D01*
X129000Y209000D02*
X134500Y214500D01*
X160500D01*
X159500Y218500D02*
X165500Y212500D01*
X160500Y214500D02*
X164500Y210500D01*
X160568Y220750D02*
X167568Y213750D01*
X164500Y210500D02*
X177500D01*
X223000Y228000D02*
X225000Y230000D01*
X232500Y226000D02*
Y230000D01*
X229500Y223000D02*
X232500Y226000D01*
X438500Y160500D02*
X449500D01*
X446500Y171500D02*
X451000Y167000D01*
X491138Y182862D02*
X505500Y168500D01*
X526500D01*
X491138Y182862D02*
Y187811D01*
X499500Y178500D02*
X501500Y176500D01*
X511000D01*
X494500Y223500D02*
Y224000D01*
X497500Y222000D02*
Y224000D01*
X472318Y226500D02*
X479818Y234000D01*
X467318Y229000D02*
X467568Y228750D01*
X469432D01*
X479750Y237654D02*
Y238250D01*
X469432Y228750D02*
X477000Y236318D01*
Y242500D01*
X435000Y231000D02*
X468500D01*
X432000Y234000D02*
X435000Y231000D01*
X502500Y222500D02*
Y223000D01*
X463500Y244000D02*
X471500D01*
X304000Y131000D02*
X317500D01*
X298750Y128750D02*
X318750D01*
X322500Y132500D01*
X208000Y245500D02*
X327086D01*
X196500Y265000D02*
X269000D01*
X199750Y270250D02*
X269000D01*
X203500Y272500D02*
X264500D01*
X182000Y276000D02*
X195500Y262500D01*
X265000D01*
X178500Y274000D02*
X193000Y259500D01*
X269000D01*
X191508Y257000D02*
X266000D01*
X172504Y276004D02*
X191508Y257000D01*
X166205Y275295D02*
X187500Y254000D01*
X262500D01*
X242500Y168000D02*
Y176682D01*
X237500Y166500D02*
X238500D01*
X243000Y185500D02*
X253000Y175500D01*
Y169000D02*
Y175500D01*
X244000Y187818D02*
X257500Y174318D01*
Y165500D02*
Y174318D01*
X270500Y164000D02*
Y175682D01*
X236000Y159500D02*
X237000Y160500D01*
X247000Y195000D02*
X267500Y174500D01*
Y167000D02*
Y174500D01*
X264500Y164000D02*
Y174500D01*
X246000Y193000D02*
X264500Y174500D01*
X260500Y164818D02*
Y174500D01*
X249500Y170000D02*
Y177000D01*
X242000Y184500D02*
X249500Y177000D01*
X238500Y166500D02*
X239000Y167000D01*
X260500Y164818D02*
X263568Y161750D01*
X257500Y162318D02*
Y165500D01*
Y162318D02*
X259568Y160250D01*
X274432Y164750D02*
X276336D01*
X335000Y229500D02*
X340600Y235100D01*
X332500Y227000D02*
X346699D01*
X337000Y226000D02*
X347114D01*
X338250Y218750D02*
X339000Y218000D01*
X208328Y243000D02*
X313318D01*
X208000Y241000D02*
X313904D01*
X336250Y217750D02*
X337500Y216500D01*
X246500Y217000D02*
X247182D01*
X198811Y177189D02*
X216811D01*
X210953Y181047D02*
X211500Y180500D01*
X219000D01*
X221000Y178500D01*
Y173000D02*
Y178500D01*
Y173000D02*
X223189Y170811D01*
X219000Y185000D02*
X228500D01*
X233000Y180500D02*
Y186500D01*
Y180500D02*
X235189Y178811D01*
X401500Y225500D02*
X405000Y229000D01*
X402088Y228412D02*
X403677Y230000D01*
X421500Y225500D02*
X422500Y226500D01*
X421922Y223250D02*
X423922Y225250D01*
X442432D01*
X422500Y226500D02*
X472318D01*
X469846Y227750D02*
X479750Y237654D01*
X415068Y227750D02*
X469846D01*
X426500Y230000D02*
X429500Y233000D01*
Y240500D01*
X431500Y242500D01*
X462000D02*
X463000Y243500D01*
X362000Y182252D02*
X362126Y182378D01*
X418150Y116750D02*
X431399Y130000D01*
X204601Y125500D02*
X213351Y116750D01*
X417735Y117750D02*
X430985Y131000D01*
X205015Y126500D02*
X213765Y117750D01*
X417321Y118750D02*
X432500Y133929D01*
X205429Y127500D02*
X214179Y118750D01*
X416907Y119750D02*
X431500Y134343D01*
X205843Y128500D02*
X214593Y119750D01*
X416493Y120750D02*
X430500Y134757D01*
X206257Y129500D02*
X215007Y120750D01*
X416078Y121750D02*
X429500Y135172D01*
X206672Y130500D02*
X215422Y121750D01*
X415664Y122750D02*
X428500Y135586D01*
X207086Y131500D02*
X215836Y122750D01*
X415250Y123750D02*
X427500Y136000D01*
X182000Y158000D02*
X216250Y123750D01*
X213351Y116750D02*
X418150D01*
X213765Y117750D02*
X417735D01*
X214179Y118750D02*
X417321D01*
X214593Y119750D02*
X416907D01*
X215007Y120750D02*
X416493D01*
X215422Y121750D02*
X416078D01*
X215836Y122750D02*
X415664D01*
X216250Y123750D02*
X415250D01*
X284500Y225000D02*
X314000D01*
X394761Y217024D02*
X397337Y219600D01*
X398663D01*
X399090Y219173D01*
X394049Y220600D02*
X401400D01*
X390472Y223323D02*
Y229972D01*
X393622Y229622D02*
Y231622D01*
X398000Y228000D02*
X402500Y232500D01*
X409000Y245000D02*
X433500D01*
X383000Y229000D02*
X408250Y254250D01*
X408432D01*
X417000Y262818D02*
Y263000D01*
X408432Y254250D02*
X417000Y262818D01*
X377324Y229506D02*
X401500Y253682D01*
X380000Y229000D02*
X407500Y256500D01*
X417000Y200500D02*
Y200750D01*
X368500Y227477D02*
X369982Y228959D01*
X363697Y237500D02*
X368598Y232598D01*
Y229839D02*
Y232598D01*
X364500Y269500D02*
X370500Y263500D01*
X367000Y254000D02*
X369500Y251500D01*
Y233111D02*
Y251500D01*
X370500Y233525D02*
Y263500D01*
X371500Y233939D02*
Y270000D01*
Y233939D02*
X371982Y233458D01*
X370982Y227065D02*
X371575Y226472D01*
X370500Y233525D02*
X370982Y233043D01*
Y227065D02*
Y233043D01*
X369982Y228959D02*
Y232629D01*
X369500Y233111D02*
X369982Y232629D01*
X372575Y265075D02*
X377000Y269500D01*
X372575Y237425D02*
Y265075D01*
X374724Y226472D02*
X376324Y228072D01*
X383000Y219500D02*
Y229000D01*
X380000Y219500D02*
Y229000D01*
X374823Y224308D02*
X377324Y226810D01*
Y229506D01*
X376324Y228072D02*
Y233676D01*
X372575Y237425D02*
X376324Y233676D01*
X371568Y226465D02*
X371575Y226472D01*
X371524Y226465D02*
X371568D01*
X371524Y223316D02*
X371568D01*
X373124Y225810D02*
Y227128D01*
Y225810D02*
X373124Y225810D01*
Y225759D02*
Y225810D01*
X373124Y225759D02*
X373124Y225759D01*
X371982Y228271D02*
X373124Y227128D01*
Y220624D02*
Y225759D01*
Y220624D02*
X374500Y219249D01*
X371982Y228271D02*
Y233458D01*
X365276Y226472D02*
X367000Y224748D01*
X380087Y217850D02*
X381413D01*
X379237Y217000D02*
X380087Y217850D01*
X366752Y218500D02*
X366850Y218598D01*
X366900Y218549D01*
X381413Y217850D02*
X383763Y215500D01*
X386729D01*
X389810Y218580D01*
X380000Y200500D02*
X381000Y201500D01*
X383949D01*
X379500Y201000D02*
X380000Y200500D01*
X378000Y199586D02*
Y200237D01*
X377900Y200337D02*
Y203163D01*
X401500Y253682D02*
Y259500D01*
X424000D02*
Y268000D01*
X414500Y277500D02*
X424000Y268000D01*
X377000Y269500D02*
Y274500D01*
X352000Y277500D02*
X414500D01*
X348000Y281500D02*
X352000Y277500D01*
X390472Y229972D02*
X409500Y249000D01*
X393622Y231622D02*
X410000Y248000D01*
X402500Y232500D02*
Y238500D01*
X409000Y245000D01*
X424000Y255000D02*
X427000Y258000D01*
Y270500D01*
X417000Y280500D02*
X427000Y270500D01*
X356000Y280500D02*
X417000D01*
X349000Y287500D02*
X356000Y280500D01*
X412000Y286500D02*
X435500D01*
X439000Y290000D01*
X374823Y223323D02*
Y224308D01*
X413000Y176318D02*
X414250Y177568D01*
X413750Y170916D02*
X417334Y174500D01*
X414750Y170502D02*
X416248Y172000D01*
X412750Y171331D02*
X414000Y172581D01*
X403500Y182500D02*
X405129Y180871D01*
X398500Y178500D02*
X405586D01*
X400500Y179500D02*
X405172D01*
X404318Y189000D02*
X404568Y188750D01*
X380500Y203500D02*
X395000D01*
X393622Y184641D02*
Y185528D01*
X404568Y188750D02*
X408664D01*
X417000Y200500D02*
X417500D01*
X420000Y198000D01*
X408664Y188750D02*
X411914Y192000D01*
X416000Y195000D02*
X417000Y194000D01*
X411914Y192000D02*
X415818D01*
X416068Y191750D01*
X417932D01*
X420000Y193818D01*
Y198000D01*
X416318Y180500D02*
X420000D01*
X409500Y168000D02*
X409750Y167750D01*
X409000Y162818D02*
Y167000D01*
X414750Y141422D02*
Y170502D01*
X405500Y164500D02*
Y166263D01*
X413000Y173763D01*
Y176318D01*
X412000Y174177D02*
Y178500D01*
X408500Y172091D02*
Y176500D01*
X411000Y163404D02*
Y165500D01*
X409500Y139000D02*
X412750Y142250D01*
Y171331D01*
X409914Y138000D02*
X413750Y141836D01*
Y170916D01*
X410328Y137000D02*
X414750Y141422D01*
X426750Y215750D02*
X428500Y217500D01*
X396932Y215957D02*
X397139Y215750D01*
X400240D01*
X420078D02*
X426750D01*
X402000Y220000D02*
X414000D01*
X415500Y218500D01*
X341164Y220750D02*
X344692D01*
X336932Y221750D02*
X338182Y223000D01*
X340328D02*
X341578Y221750D01*
X338182Y223000D02*
X340328D01*
X337346Y220750D02*
X338596Y222000D01*
X339914D01*
X341164Y220750D01*
X405409Y173000D02*
X406000D01*
X400823Y167000D02*
X403404D01*
X401237Y166000D02*
X403818D01*
X400652Y164000D02*
X401500D01*
X403024Y170615D02*
X405409Y173000D01*
X385000Y172989D02*
X386000Y171989D01*
X386252Y174000D02*
X386500D01*
X397077Y169423D02*
X398000Y168500D01*
X392000Y166000D02*
X393000Y167000D01*
X358976Y182378D02*
X358983Y182385D01*
X359027D01*
X397823Y164000D02*
X400823Y167000D01*
X398237Y163000D02*
X401237Y166000D01*
X398652Y162000D02*
X400652Y164000D01*
X407182Y161000D02*
X409000Y162818D01*
X401789Y194000D02*
X402413Y193376D01*
X399000Y195000D02*
X416000D01*
X386500Y174000D02*
X395000D01*
X395500Y174500D01*
X392000Y176500D02*
X405000D01*
X412000Y183500D01*
X399624Y192376D02*
X400100Y191900D01*
X399414Y194000D02*
X401789D01*
X399500Y189000D02*
X404318D01*
X398205Y191376D02*
X399205Y192376D01*
X399624D01*
X392022Y186241D02*
Y188014D01*
X368172Y197000D02*
X368272Y196900D01*
X367000Y194500D02*
X368400Y195900D01*
X396666Y192500D02*
X397790Y191376D01*
X398205D01*
X397997Y192583D02*
X399414Y194000D01*
X397080Y193500D02*
X397997Y192583D01*
X397997D01*
X395222Y184778D02*
Y186190D01*
X394323Y187090D02*
X395222Y186190D01*
X392022Y179978D02*
X393500Y178500D01*
X392022Y184759D02*
X392075Y184812D01*
X392022Y184865D02*
X392075Y184812D01*
X392022Y184865D02*
Y186190D01*
X392047Y186215D01*
X392022Y186241D02*
X392047Y186215D01*
X390422Y185535D02*
X390465D01*
X382682Y165682D02*
X383000Y166000D01*
X392000D01*
X376900Y199900D02*
Y203577D01*
X376914Y198500D02*
X378000Y199586D01*
X376500Y199500D02*
X376900Y199900D01*
X378394Y196500D02*
X379294Y195600D01*
X377980Y195500D02*
X378880Y194600D01*
X377151Y193500D02*
X378151Y192500D01*
X379000D01*
X383500Y188004D02*
X384173Y188677D01*
X383949Y201500D02*
X387323Y198126D01*
X377128Y187128D02*
X378855D01*
X376274Y189774D02*
X376900Y190400D01*
X378855Y187128D02*
X378937Y187209D01*
X397500Y190252D02*
X404752D01*
X393622Y188677D02*
X394323D01*
Y187090D02*
Y188677D01*
X398500Y184000D02*
Y188000D01*
X399500Y189000D01*
X386532Y187000D02*
X386660Y187128D01*
X387985D01*
X388113Y187000D01*
X389000D01*
X390500Y185500D01*
X376274Y189397D02*
Y189774D01*
X376267Y189390D02*
X376274Y189397D01*
X395000Y203500D02*
X396000Y202500D01*
Y200504D02*
Y202500D01*
X393622Y198126D02*
X396000Y200504D01*
X378837Y193600D02*
X380163D01*
X381100Y192663D01*
Y192500D02*
Y192663D01*
Y192500D02*
X381263D01*
X381500Y192263D01*
X381100Y191863D02*
X381500Y192263D01*
X381100Y191337D02*
Y191863D01*
X378880Y194600D02*
X380577D01*
X381677Y193500D01*
X379294Y195600D02*
X380991D01*
X382091Y194500D01*
X396252Y191500D02*
X397500Y190252D01*
X381737Y197500D02*
X382337Y198100D01*
X389629Y193500D02*
X389803Y193326D01*
X391128D01*
X391302Y193500D01*
X397080D01*
X389214Y192500D02*
X389388Y192326D01*
X391542D01*
X391716Y192500D01*
X396666D01*
X388800Y191500D02*
X388974Y191326D01*
X391956D01*
X392130Y191500D01*
X396252D01*
X388386Y190500D02*
X388560Y190326D01*
X389710D01*
X392022Y188014D01*
X383733Y190500D02*
X388386D01*
X389759Y196526D02*
X389759Y196526D01*
X389810D01*
X389810Y196526D01*
X397474D01*
X399000Y195000D01*
X387443Y191500D02*
X388800D01*
X387858Y192500D02*
X389214D01*
X388272Y193500D02*
X389629D01*
X384000Y192500D02*
X386443D01*
X387443Y191500D01*
X381677Y193500D02*
X386858D01*
X387858Y192500D01*
X382091Y194500D02*
X387272D01*
X388272Y193500D01*
X385272Y196500D02*
X386246Y195526D01*
X387974D01*
X383000Y196500D02*
X385272D01*
X386660Y196526D02*
X389759D01*
X385086Y198100D02*
X386660Y196526D01*
X382337Y198100D02*
X385086D01*
X387974Y195526D02*
X388500Y195000D01*
X390391D01*
X390465Y194926D01*
X359027Y182385D02*
X360620Y183978D01*
X369500Y186318D02*
Y186602D01*
X347978Y183064D02*
X349528Y184613D01*
X253000Y169000D02*
X254000Y168000D01*
X250500Y163500D02*
X256000Y158000D01*
X254182Y155500D02*
X273318D01*
X237000Y160500D02*
X249182D01*
X254182Y155500D01*
X241000Y182182D02*
X245500Y177682D01*
X293086Y162500D02*
X300086Y155500D01*
X279500Y163500D02*
X293500D01*
X278000Y162000D02*
X279500Y163500D01*
X278414Y161000D02*
X279914Y162500D01*
X293086D01*
X275000Y161000D02*
X278414D01*
X276000Y163000D02*
X277750Y164750D01*
X274510Y162000D02*
X278000D01*
X274096Y163000D02*
X276000D01*
X256000Y158000D02*
X272000D01*
X273318Y155500D02*
X275727Y157909D01*
X277273D01*
X272000Y158000D02*
X275000Y161000D01*
X263568Y161750D02*
X271432D01*
X274432Y164750D01*
X259568Y160250D02*
X271346D01*
X274096Y163000D01*
X271510Y159000D02*
X274510Y162000D01*
X257000Y159000D02*
X271510D01*
X249750Y166250D02*
X257000Y159000D01*
X248568Y166250D02*
X249750D01*
X339328Y169500D02*
X342237D01*
X341007Y166507D02*
X346830D01*
X345500Y170000D02*
Y170500D01*
X344000Y168000D02*
X346909D01*
X245500Y165500D02*
Y177682D01*
X351102Y184000D02*
X351150D01*
X409000Y167000D02*
X409750Y167750D01*
X364150Y197000D02*
X368172D01*
X364613Y199676D02*
X365739D01*
X366414Y199000D01*
X364199Y198676D02*
X365324D01*
X366000Y198000D01*
X290000Y203500D02*
X293250Y200250D01*
X296000Y203500D02*
X297000D01*
X298354Y202147D01*
X319434Y167914D02*
X319500Y167849D01*
X318323Y167914D02*
X319434D01*
X317000Y191500D02*
X317750Y192250D01*
X322432D01*
X323750Y190932D01*
Y190750D02*
Y190932D01*
X290400Y188337D02*
X291337Y187400D01*
X292600D01*
X293500Y186500D01*
X293828D01*
X297836Y205500D02*
X300189Y203147D01*
X291500Y210500D02*
X292750Y209250D01*
Y206750D02*
Y209250D01*
Y206750D02*
X294000Y205500D01*
X297836D01*
X295000Y207500D02*
X297461D01*
X289000D02*
X291000D01*
X286500Y205000D02*
X289000Y207500D01*
X286500Y203818D02*
Y205000D01*
X247409Y167409D02*
X248568Y166250D01*
X249500Y170000D02*
X250500Y169000D01*
X244500Y164500D02*
X245500Y165500D01*
X247500Y163500D02*
X250500D01*
X245500Y165500D02*
X247500Y163500D01*
X374000Y169500D02*
X374100Y169600D01*
X388900Y167900D02*
X390423Y169423D01*
X397077D01*
X388400Y168900D02*
X390115Y170615D01*
X403024D01*
X381682Y165682D02*
X382682D01*
X376500Y162000D02*
X398652D01*
X378000Y163000D02*
X398237D01*
X352093Y178093D02*
X352677Y178677D01*
X352093Y178093D02*
X352282D01*
X361369Y187077D02*
X361470Y187178D01*
X382737Y170500D02*
X383337Y169900D01*
X369876Y185170D02*
Y185942D01*
X369500Y186318D02*
X369876Y185942D01*
X383337Y169900D02*
X385400D01*
X386000Y170500D01*
Y171989D01*
X380163Y190400D02*
X381100Y191337D01*
X376900Y190400D02*
X380163D01*
X365262Y182392D02*
X365262D01*
X365276Y182378D01*
X371135Y190500D02*
X372902D01*
X366414Y199000D02*
X369252D01*
X369652Y199400D01*
X370663D01*
X370763Y199500D01*
X376500D01*
X366000Y198000D02*
X369666D01*
X370066Y198400D01*
X371077D01*
X371177Y198500D02*
X376914D01*
X368272Y196900D02*
X369980D01*
X370480Y197400D01*
X371491D01*
X371591Y197500D01*
X381737D01*
X368400Y195900D02*
X369566D01*
X369966Y195500D01*
X369995D01*
X370895Y196400D01*
X371905D01*
X372005Y196500D01*
X378394D01*
X371309Y195400D02*
X372320D01*
X372420Y195500D01*
X377980D01*
X371723Y194400D02*
X372734D01*
X372834Y194500D01*
X377566D01*
X372137Y193400D02*
X373148D01*
X373248Y193500D01*
X377151D01*
X368500Y187865D02*
X371135Y190500D01*
X368500Y185904D02*
X368876Y185528D01*
X368500Y185904D02*
Y187865D01*
X393622Y184641D02*
X395222Y183041D01*
X382323Y169500D02*
X382923Y168900D01*
X388400D01*
X376267Y188065D02*
Y189390D01*
Y188065D02*
X376274Y188058D01*
Y188022D02*
Y188058D01*
X376274Y188022D02*
X376274Y188022D01*
X376274Y187981D02*
Y188022D01*
Y187981D02*
X377128Y187128D01*
X369876Y185170D02*
X369975Y185071D01*
X380600Y177837D02*
Y179163D01*
Y179343D02*
Y179652D01*
X385500Y187000D02*
X386532D01*
X383500Y186772D02*
X383624Y186648D01*
X383500Y186772D02*
Y188004D01*
X384624Y186124D02*
X385500Y187000D01*
X379000Y192500D02*
X379500Y192000D01*
X377566Y194500D02*
X378566Y193500D01*
X378737D01*
X378837Y193600D01*
X369876Y183378D02*
X369975Y183477D01*
Y185071D01*
X361470Y187178D02*
X362796D01*
X369500Y186602D02*
X371575Y188677D01*
X372902Y190500D02*
X374717Y188684D01*
X374674D02*
X374717D01*
X374667Y188691D02*
X374674Y188684D01*
X367500Y188763D02*
X372137Y193400D01*
X374724Y185528D02*
X376274Y183978D01*
X376274Y181715D02*
Y183041D01*
X376274Y183041D01*
Y183978D01*
X395222Y181778D02*
X398500Y178500D01*
X395222Y181778D02*
Y183041D01*
Y184778D02*
X400500Y179500D01*
X392022Y179978D02*
Y184759D01*
X385723Y183928D02*
X387323Y185528D01*
X377874Y182378D02*
X380600Y179652D01*
X377867Y188728D02*
X380228D01*
X384000Y192500D01*
X378937Y187209D02*
X380443D01*
X383733Y190500D01*
X381686Y183978D02*
X382624Y183041D01*
X380361Y183978D02*
X381686D01*
X380361Y183978D02*
X380361Y183978D01*
X379467Y183978D02*
X380361D01*
X379849Y164000D02*
X397823D01*
X379963Y168500D02*
X381909D01*
X382509Y167900D01*
X388900D01*
X376274Y181715D02*
X379000Y178989D01*
X379600Y171900D02*
X380000Y171500D01*
X384000D01*
X379360Y170726D02*
X379360D01*
X379586Y170500D01*
X382737D01*
X379072Y169600D02*
X379172Y169500D01*
X382323D01*
X376924Y166924D02*
X379849Y164000D01*
X376337Y168600D02*
X377663D01*
X379963Y177200D02*
X380600Y177837D01*
X352189Y178000D02*
X352282Y178093D01*
X371000Y165000D02*
X371500Y165500D01*
X372737D01*
X369837Y159900D02*
X407496D01*
X368000Y161737D02*
Y162000D01*
Y161737D02*
X369837Y159900D01*
X407496D02*
X411000Y163404D01*
X360500Y178500D02*
X362126Y180126D01*
Y182378D01*
X364689Y181792D02*
X365276Y182378D01*
X372000Y161500D02*
X372500Y161000D01*
X303500Y199000D02*
X303750Y199250D01*
X301646Y204250D02*
X303296Y205900D01*
X297461Y207500D02*
X300815Y204147D01*
X301441D01*
X300189Y203147D02*
X301855D01*
X301959Y203250D01*
X298354Y202147D02*
X302270D01*
X302373Y202250D01*
X302684Y201147D02*
X302787Y201250D01*
X303098Y200147D02*
X303202Y200250D01*
X322600Y169837D02*
X323737D01*
X325400Y171500D01*
X325263Y176000D02*
X326500D01*
X322400Y176600D02*
X323000Y176000D01*
X320975Y188262D02*
X322248D01*
X322610Y187900D01*
X320561Y187262D02*
X321834D01*
X320237Y189000D02*
X320975Y188262D01*
X319823Y188000D02*
X320561Y187262D01*
X320652Y190000D02*
X320752Y189900D01*
X321500D01*
X338182Y176750D02*
X338250D01*
X346378Y185528D02*
X346385Y185535D01*
Y185578D01*
X366409Y190500D02*
X371309Y195400D01*
X366000Y188677D02*
X371723Y194400D01*
X371575Y180151D02*
Y182378D01*
X358976Y188677D02*
X366000D01*
X373837Y182378D02*
X374724D01*
X374717Y182385D02*
X374724Y182378D01*
X374674Y182385D02*
X374717D01*
X365276Y184641D02*
Y185528D01*
X365283Y185535D01*
X365326D01*
X365600Y185809D01*
X358500Y178000D02*
Y180649D01*
X363000Y184000D02*
X364000Y185000D01*
Y185916D01*
X363733Y186183D02*
X364000Y185916D01*
X363733Y186183D02*
Y186241D01*
X362796Y187178D02*
X363733Y186241D01*
X360620Y183978D02*
X362789D01*
X362789Y183978D01*
X362978D01*
X358399Y185578D02*
X362133D01*
X358314Y187077D02*
X361369D01*
X367500Y185489D02*
X367876Y185114D01*
X367500Y185489D02*
Y188763D01*
X368876Y184558D02*
X368975Y184657D01*
X368876Y184756D02*
X368975Y184657D01*
X368876Y184756D02*
Y185528D01*
X366862Y182387D02*
X366876D01*
Y183041D01*
X365276Y184641D02*
X366876Y183041D01*
X367862Y181387D02*
X367876D01*
Y185114D01*
X378346Y178800D02*
X378700D01*
X379000Y178500D01*
Y178989D01*
X372575Y179737D02*
Y181115D01*
X373837Y182378D01*
X387323Y181177D02*
Y182378D01*
Y181177D02*
X392000Y176500D01*
X384876Y173113D02*
Y175042D01*
X386500Y176666D01*
Y180586D01*
X385723Y181363D02*
X386500Y180586D01*
X385723Y181363D02*
Y183928D01*
X381320Y172900D02*
X384624Y176204D01*
Y186124D01*
X383624Y176618D02*
Y186648D01*
X380905Y173900D02*
X383624Y176618D01*
X382624Y177032D02*
Y183041D01*
X380377Y176200D02*
X381600Y177423D01*
Y181802D01*
X371452Y177200D02*
X379963D01*
X371866Y176200D02*
X380377D01*
X372280Y175200D02*
X379434D01*
X379734Y174900D01*
X380491D01*
X382624Y177032D01*
X379320Y173900D02*
X380905D01*
X379020Y174200D02*
X379320Y173900D01*
X378605Y173200D02*
X378905Y172900D01*
X381320D01*
X378191Y172200D02*
X378491Y171900D01*
X379600D01*
X377777Y171200D02*
X378377Y170600D01*
X379234D01*
X379360Y170726D01*
X377363Y170200D02*
X377963Y169600D01*
X379072D01*
X341151Y180500D02*
X342000D01*
X338250Y176750D02*
X338500Y177000D01*
X347978Y180741D02*
Y183041D01*
X349528Y182378D02*
X349535Y182385D01*
X349578D01*
X350837Y179600D02*
X351082D01*
X351178Y179696D01*
X357427Y181722D02*
X358500Y180649D01*
X357427Y181722D02*
Y183041D01*
X351178Y179696D02*
Y184000D01*
X374100Y169600D02*
X375437D01*
X376037Y170200D01*
X377363D01*
X364689Y180337D02*
Y181792D01*
X366862Y181095D02*
Y182387D01*
X367862Y180681D02*
Y181387D01*
X368876Y180280D02*
Y184558D01*
X369876Y179866D02*
Y183378D01*
X377663Y168600D02*
X378600Y167663D01*
Y167400D02*
Y167663D01*
Y167400D02*
X378863D01*
X379963Y168500D01*
X374500Y164000D02*
X376500Y162000D01*
X372500Y161000D02*
X407182D01*
X372737Y165500D02*
X373337Y166100D01*
X374900D01*
X378000Y163000D01*
X342237Y169500D02*
X343237Y170500D01*
X343737D01*
X342900Y171500D02*
X344036Y172636D01*
X342409Y172500D02*
X343809Y173900D01*
X341995Y173500D02*
X343395Y174900D01*
X341580Y174500D02*
X342980Y175900D01*
X345078Y185578D02*
X346385D01*
X343578Y182034D02*
X345522Y183978D01*
X347048D01*
X345078Y185315D02*
Y185578D01*
X336513Y178500D02*
X337737D01*
X337837Y178600D01*
X338166Y165334D02*
X339904D01*
X340337Y164900D01*
X333672Y161000D02*
X346142D01*
X337500Y163000D02*
X345314D01*
X340337Y164900D02*
X341663D01*
X342096Y165334D01*
X347071D01*
X337760Y173500D02*
X341995D01*
X337346Y174500D02*
X341580D01*
X336432Y175000D02*
X338182Y176750D01*
X335763Y175000D02*
X336432D01*
X351104Y196526D02*
X352654Y194976D01*
X355827Y180089D02*
Y182378D01*
X345500Y170500D02*
X347995D01*
X349486Y173000D02*
X350315D01*
X349901Y174000D02*
X351737D01*
X354363Y173400D02*
X354963Y174000D01*
X358352D01*
X353000Y175000D02*
X354400Y176400D01*
X359763Y163500D02*
X361995D01*
X358691Y164000D02*
X359191Y164500D01*
X361580D01*
X359077Y160400D02*
X361177Y162500D01*
X362409D01*
X359600Y163337D02*
X359763Y163500D01*
X359600Y162337D02*
Y163337D01*
X358663Y161400D02*
X359600Y162337D01*
X357337Y161400D02*
X358663D01*
X358276Y165000D02*
X358776Y165500D01*
X361166D01*
X353400Y163337D02*
Y163900D01*
X356095Y158400D02*
X361137D01*
X356509Y159400D02*
X360723D01*
X356923Y160400D02*
X359077D01*
X357862Y166000D02*
X358362Y166500D01*
X360752D01*
X357448Y167000D02*
X357948Y167500D01*
X360338D01*
X357034Y168000D02*
X357534Y168500D01*
X359924D01*
X346909Y168000D02*
X348909Y170000D01*
X356620Y169000D02*
X357120Y169500D01*
X359509D01*
X347995Y170500D02*
X348576Y171082D01*
Y171082D01*
X348658Y171000D01*
X356205Y170000D02*
X356705Y170500D01*
X359095D01*
X355791Y171000D02*
X356291Y171500D01*
X358681D01*
X350315Y173000D02*
X351315Y172000D01*
X355000D02*
X355500Y172500D01*
X358267D01*
X351737Y174000D02*
X352337Y173400D01*
X354363D01*
X358000Y163000D02*
Y164000D01*
X355000D02*
Y165000D01*
X353095Y159400D02*
X355095D01*
X356095Y158400D01*
X353509Y160400D02*
X355509D01*
X356509Y159400D01*
X353923Y161400D02*
X355923D01*
X356923Y160400D01*
X356400Y162337D02*
X357337Y161400D01*
X356400Y162337D02*
Y163137D01*
X355663Y162400D02*
X356400Y163137D01*
X354337Y162400D02*
X355663D01*
X353400Y163337D02*
X354337Y162400D01*
X351500Y165000D02*
Y166000D01*
X347456Y160900D02*
X349095D01*
X349595Y160400D01*
X352095D01*
X353095Y159400D01*
X347042Y161900D02*
X349509D01*
X350009Y161400D01*
X352509D01*
X353509Y160400D01*
X346628Y162900D02*
X349923D01*
X350423Y162400D01*
X352577D01*
X352750Y162573D01*
X353923Y161400D01*
X352663Y163900D02*
X353400D01*
X352163Y163400D02*
X352663Y163900D01*
X350837Y163400D02*
X352163D01*
X350337Y163900D02*
X350837Y163400D01*
X346214Y163900D02*
X350337D01*
X347071Y165334D02*
X348991Y167253D01*
X348991D01*
X349244Y167000D01*
X357448D01*
X346830Y166507D02*
X348991Y168667D01*
Y168667D01*
X349658Y168000D01*
X357034D01*
X348909Y170000D02*
X349072D01*
X350072Y169000D01*
X356620D01*
X348658Y171000D02*
X349486D01*
X350486Y170000D01*
X356205D01*
X349901Y172000D02*
X350901Y171000D01*
X355791D01*
X351315Y172000D02*
X355000D01*
X355827Y184641D02*
X357427Y183041D01*
X355827Y184641D02*
Y185528D01*
X348000Y186500D02*
X348628Y187128D01*
X348908D01*
X348922Y187142D01*
X347048Y183978D02*
X347985Y184915D01*
Y186485D01*
X348742Y188742D02*
X349549D01*
X351150Y184000D02*
X352677Y185528D01*
X352778Y178589D02*
Y182500D01*
X356000Y178000D02*
X358500D01*
X354400Y176400D02*
Y178663D01*
X355827Y180089D01*
X348000Y178500D02*
X349528Y180028D01*
Y182378D01*
X341400Y182100D02*
X342663D01*
X342728Y182034D01*
X343349D01*
X345163Y176900D02*
X345400Y177137D01*
Y179577D01*
X346378Y180555D01*
Y182378D01*
X350400Y176400D02*
Y176837D01*
X349900Y177337D02*
X350400Y176837D01*
X346385Y198133D02*
Y198176D01*
X354000Y190000D02*
X355000Y191000D01*
X343737Y170500D02*
X344837Y171600D01*
X346663D01*
X346763Y171500D01*
X347580D01*
X347990Y171910D01*
Y171910D01*
X348576Y172496D01*
X349072Y172000D01*
X349901D01*
X344036Y172636D02*
X347302D01*
X348566Y173900D01*
X348586D01*
X349486Y173000D01*
X343809Y173900D02*
X347152D01*
X348152Y174900D01*
X349001D01*
X349901Y174000D01*
X343395Y174900D02*
X346738D01*
X348238Y176400D01*
X350400D01*
X351500Y178000D02*
X352189D01*
X361137Y158400D02*
X373937Y171200D01*
X377777D01*
X360723Y159400D02*
X373523Y172200D01*
X378191D01*
X362409Y162500D02*
X373109Y173200D01*
X378605D01*
X372695Y174200D02*
X379020D01*
X361995Y163500D02*
X372695Y174200D01*
X361580Y164500D02*
X372280Y175200D01*
X361166Y165500D02*
X371866Y176200D01*
X360752Y166500D02*
X371452Y177200D01*
X360338Y167500D02*
X372575Y179737D01*
X359924Y168500D02*
X371575Y180151D01*
X359509Y169500D02*
X369876Y179866D01*
X359095Y170500D02*
X368876Y180280D01*
X358681Y171500D02*
X367862Y180681D01*
X358267Y172500D02*
X366862Y181095D01*
X358352Y174000D02*
X364689Y180337D01*
X349900Y177337D02*
Y178663D01*
X350837Y179600D01*
X342980Y175900D02*
X346063D01*
X346400Y176237D01*
Y179163D01*
X347978Y180741D01*
X357000Y191000D02*
X357500Y190500D01*
X356000Y189391D02*
X358314Y187077D01*
X352113Y189000D02*
X354977D01*
X358399Y185578D01*
X348886Y190342D02*
X350211D01*
X342000Y203000D02*
Y203500D01*
X343000Y185500D02*
X344678Y187178D01*
X347048D01*
X347113Y187113D02*
X348742Y188742D01*
X348922Y187142D02*
X350255D01*
X352113Y189000D01*
X350211Y190342D02*
X350553Y190000D01*
X354000D01*
X346385Y198176D02*
X346587Y198378D01*
X321644Y168881D02*
X322600Y169837D01*
X330684Y165879D02*
X331621Y166816D01*
X329684Y166293D02*
X331207Y167816D01*
X328684Y166707D02*
X330400Y168423D01*
X327684Y167121D02*
X329400Y168837D01*
X326684Y167535D02*
X328400Y169252D01*
X325684Y167950D02*
X327400Y169666D01*
X324684Y168364D02*
X326400Y170080D01*
X328684Y165275D02*
Y166707D01*
X327684Y165689D02*
Y167121D01*
X329684Y164861D02*
Y166293D01*
X331207Y167816D02*
X331387D01*
X331400Y167829D01*
X331621Y166816D02*
X331801D01*
X332400Y167415D01*
X330684Y164447D02*
Y165879D01*
X346456Y159900D02*
X347456Y160900D01*
X327112Y155698D02*
Y155698D01*
Y155698D02*
X332560Y150250D01*
X355000Y191000D02*
Y193646D01*
X355254Y193900D01*
X356000Y193232D02*
X356254Y193485D01*
X357000Y191000D02*
Y192817D01*
X356000Y189391D02*
Y193232D01*
X352654Y191847D02*
Y192714D01*
X354254Y194314D01*
X356500Y202000D02*
X357000D01*
X354900Y197900D02*
Y199663D01*
X355277Y200040D01*
X355044Y204000D02*
X358500D01*
X355277Y200040D02*
Y202352D01*
X342500Y188500D02*
X342677Y188677D01*
X341809Y190277D02*
X341909Y190378D01*
X341673Y191827D02*
X346378D01*
X341923Y176900D02*
X345163D01*
X331000Y213500D02*
X331400Y213100D01*
X301128Y205250D02*
X302927Y207049D01*
X303296Y205900D02*
X322400D01*
X302927Y207049D02*
X322135D01*
X346378Y201276D02*
X346385Y201283D01*
Y201326D01*
X346637Y201578D01*
X347501Y199726D02*
X347928D01*
X348500Y205000D02*
X349624Y203876D01*
X359088Y200089D02*
Y200180D01*
Y200089D02*
X359100Y200077D01*
X358100Y198337D02*
Y199663D01*
X357500Y200263D02*
X358100Y199663D01*
X357500Y200263D02*
Y201000D01*
X359100Y197923D02*
Y200077D01*
X354254Y197254D02*
X354900Y197900D01*
X354254Y194314D02*
Y197254D01*
X347928Y199726D02*
X349528Y198126D01*
X348237Y201838D02*
Y202241D01*
Y201838D02*
X348799Y201276D01*
X349528D01*
X348041Y193500D02*
X349599Y191942D01*
X354277Y200613D02*
Y201938D01*
X352677Y199013D02*
X354277Y200613D01*
X352677Y198126D02*
Y199013D01*
X347227Y193500D02*
X348041D01*
X346378Y194976D02*
Y194976D01*
X346435Y195055D02*
Y195077D01*
X346536Y195178D01*
X347451Y196526D02*
X351104D01*
X359000Y192500D02*
X359650D01*
X357000Y192817D02*
X359000Y194817D01*
Y195500D01*
X357500Y190500D02*
X366409D01*
X359650Y192500D02*
X364150Y197000D01*
X356254Y195077D02*
X359100Y197923D01*
X356254Y193485D02*
Y195077D01*
X355254Y193900D02*
Y195491D01*
X358100Y198337D01*
X341578Y221750D02*
X344278D01*
X348451Y225923D01*
X344692Y220750D02*
X348865Y224923D01*
D28*
X272500Y169000D02*
Y180500D01*
Y169000D02*
X274500Y167000D01*
X240000Y213000D02*
X272500Y180500D01*
X248500Y157000D02*
X249000Y157500D01*
X276250Y154250D02*
X277500Y155500D01*
X484500Y226500D02*
X488000Y223000D01*
X248500Y157000D02*
Y158000D01*
X291000Y251000D02*
X303500Y263500D01*
X363000Y333000D02*
X375000D01*
X382500Y340500D01*
X348619Y338881D02*
X352000Y335500D01*
X348619Y338881D02*
Y344381D01*
X259791Y339500D02*
Y343500D01*
X255291Y348000D02*
X259791Y343500D01*
X239541Y325750D02*
X252291Y338500D01*
X231041Y325750D02*
X239541D01*
X221500Y340709D02*
X223791Y338417D01*
Y329500D02*
Y338417D01*
Y329500D02*
X224291Y327000D01*
X229791D02*
X231041Y325750D01*
X512500Y218000D02*
X520500D01*
X533500Y231000D01*
Y242000D01*
X532500Y243000D02*
X533500Y242000D01*
X221500Y251000D02*
X291000D01*
X234500Y163000D02*
X239000D01*
X249000Y157500D02*
X249782D01*
X240000Y220535D02*
X254964Y235500D01*
X240000Y213000D02*
Y220535D01*
X254964Y235500D02*
X299500D01*
X239000Y163000D02*
X240000Y162000D01*
X249782Y157500D02*
X253032Y154250D01*
X249450Y162000D02*
X254700Y156750D01*
X253032Y154250D02*
X276250D01*
X277096Y159500D02*
X277346Y159750D01*
X286000Y161000D02*
X287500Y159500D01*
X240000Y162000D02*
X249450D01*
X278932Y159750D02*
X280182Y161000D01*
X286000D01*
X277346Y159750D02*
X278932D01*
X254700Y156750D02*
X272518D01*
X275268Y159500D01*
X277096D01*
D29*
X335500Y104500D02*
X354500D01*
X360000Y110000D01*
X195500D02*
X330000D01*
X335500Y104500D01*
D30*
X160000Y340000D02*
D03*
X136378D02*
D03*
X148189Y321496D02*
D03*
D31*
X380000Y110000D02*
D03*
X450000D02*
D03*
Y300000D02*
D03*
X364000D02*
D03*
D32*
X370000Y110000D02*
D03*
X360000D02*
D03*
X350000D02*
D03*
X340000D02*
D03*
X330000D02*
D03*
X440000D02*
D03*
X430000D02*
D03*
X420000D02*
D03*
X410000D02*
D03*
X400000D02*
D03*
X440000Y300000D02*
D03*
X430000D02*
D03*
X420000D02*
D03*
X410000D02*
D03*
X400000D02*
D03*
X390000D02*
D03*
X380000D02*
D03*
X354000D02*
D03*
X344000D02*
D03*
X334000D02*
D03*
X324000D02*
D03*
X314000D02*
D03*
X304000D02*
D03*
X294000D02*
D03*
D33*
X593000Y268000D02*
D03*
Y276000D02*
D03*
Y284000D02*
D03*
X603000Y272000D02*
D03*
Y280000D02*
D03*
Y288000D02*
D03*
X629000Y311000D02*
D03*
Y273000D02*
D03*
D34*
Y326600D02*
D03*
Y257400D02*
D03*
D35*
X654000Y321600D02*
D03*
X664000D02*
D03*
X654000Y262400D02*
D03*
X664000D02*
D03*
D36*
X119000Y239000D02*
D03*
X129000D02*
D03*
X119000Y229000D02*
D03*
X129000D02*
D03*
X119000Y219000D02*
D03*
X129000D02*
D03*
X119000Y209000D02*
D03*
X129000D02*
D03*
X119000Y199000D02*
D03*
X129000D02*
D03*
X119000Y189000D02*
D03*
X129000D02*
D03*
X119000Y179000D02*
D03*
X129000D02*
D03*
X119000Y169000D02*
D03*
X129000D02*
D03*
X119000Y159000D02*
D03*
X129000D02*
D03*
X119000Y149000D02*
D03*
D37*
X129000D02*
D03*
D38*
X124984Y114000D02*
D03*
Y274000D02*
D03*
D39*
X318500Y186000D02*
D03*
X317000Y191500D02*
D03*
X320500Y181500D02*
D03*
X332350Y179613D02*
D03*
X333500Y175000D02*
D03*
X334000Y167500D02*
D03*
X338166Y165334D02*
D03*
X341000Y166500D02*
D03*
X301500Y187000D02*
D03*
X303663Y171163D02*
D03*
X301500Y168500D02*
D03*
X299500Y175000D02*
D03*
X304500Y178800D02*
D03*
X285500Y185000D02*
D03*
X290164Y185164D02*
D03*
X332500Y184500D02*
D03*
X297000Y173500D02*
D03*
X291500Y173016D02*
D03*
X406000Y199000D02*
D03*
X319000Y167500D02*
D03*
X321000Y170500D02*
D03*
X331500Y162500D02*
D03*
X330000Y160000D02*
D03*
X317500Y173000D02*
D03*
X320500Y165000D02*
D03*
X315500Y163000D02*
D03*
X303500Y162500D02*
D03*
X320000Y156500D02*
D03*
X333000Y147500D02*
D03*
X325500Y158000D02*
D03*
X323000Y156500D02*
D03*
X318000Y154500D02*
D03*
X308350Y145351D02*
D03*
X310825Y147825D02*
D03*
X313300Y150300D02*
D03*
X315775Y152775D02*
D03*
X338500Y189500D02*
D03*
X337500Y186000D02*
D03*
X334000Y192500D02*
D03*
X333000Y207000D02*
D03*
X328500Y191000D02*
D03*
X338000Y201000D02*
D03*
X337500Y207500D02*
D03*
X339000Y211500D02*
D03*
X342500Y210500D02*
D03*
Y188500D02*
D03*
Y185000D02*
D03*
X342000Y180500D02*
D03*
X342500Y198500D02*
D03*
X342000Y203000D02*
D03*
X361000Y213000D02*
D03*
X363701Y217201D02*
D03*
X366000Y218500D02*
D03*
X369500Y219500D02*
D03*
X359500Y217000D02*
D03*
X356259Y211200D02*
D03*
X365276Y223323D02*
D03*
X358976D02*
D03*
X346400Y210724D02*
D03*
X346637Y201578D02*
D03*
X346587Y198378D02*
D03*
X346536Y195178D02*
D03*
X346435Y188778D02*
D03*
X337000Y215000D02*
D03*
X346378Y213874D02*
D03*
X370000Y211000D02*
D03*
X352677Y210724D02*
D03*
Y213874D02*
D03*
X398500Y212500D02*
D03*
X346378Y220173D02*
D03*
X283638Y166500D02*
D03*
X302000Y165000D02*
D03*
X282500Y185000D02*
D03*
X279500D02*
D03*
X343000Y157500D02*
D03*
X295500Y197000D02*
D03*
X343500Y168500D02*
D03*
X383000Y219500D02*
D03*
X398000Y228000D02*
D03*
X397803Y231197D02*
D03*
X396932Y215957D02*
D03*
X390472Y216980D02*
D03*
X368382Y229622D02*
D03*
X346500Y233500D02*
D03*
X360500Y234000D02*
D03*
X358976Y226472D02*
D03*
X353500Y235500D02*
D03*
X355500Y233500D02*
D03*
X362126Y226472D02*
D03*
X365276Y229622D02*
D03*
X358976D02*
D03*
X362126D02*
D03*
X365276Y226472D02*
D03*
X349528Y223323D02*
D03*
X365276Y210724D02*
D03*
Y201276D02*
D03*
X371575Y207575D02*
D03*
X393622Y217024D02*
D03*
Y220173D02*
D03*
X387323Y229622D02*
D03*
X390472Y223323D02*
D03*
X387323Y226472D02*
D03*
X352677Y229622D02*
D03*
X355827Y226472D02*
D03*
X349528Y229622D02*
D03*
X402088Y228412D02*
D03*
X398000Y218000D02*
D03*
X393622Y223323D02*
D03*
Y226472D02*
D03*
Y229622D02*
D03*
X374724Y223323D02*
D03*
Y229622D02*
D03*
Y226472D02*
D03*
X371524Y226465D02*
D03*
Y223316D02*
D03*
X374500Y219249D02*
D03*
X380750Y216250D02*
D03*
X374724Y210724D02*
D03*
X380000Y219500D02*
D03*
X379500Y201000D02*
D03*
X401500Y164000D02*
D03*
X387323Y201276D02*
D03*
X409500Y168000D02*
D03*
X411000Y165500D02*
D03*
X339000Y218000D02*
D03*
X339073Y220214D02*
D03*
X398000Y168500D02*
D03*
X393000Y167000D02*
D03*
X395500Y174500D02*
D03*
X393500Y178500D02*
D03*
X402413Y193400D02*
D03*
X400100Y191900D02*
D03*
X374724Y201276D02*
D03*
X370000Y201000D02*
D03*
X393622Y185528D02*
D03*
X390422Y185535D02*
D03*
X375500Y206000D02*
D03*
X393622Y201276D02*
D03*
Y198126D02*
D03*
X380500Y203500D02*
D03*
X383000Y196500D02*
D03*
X387323Y198126D02*
D03*
X387330Y188728D02*
D03*
X393622Y188677D02*
D03*
X390472Y198126D02*
D03*
X390465Y194926D02*
D03*
X323000Y173000D02*
D03*
Y176000D02*
D03*
X292000Y189000D02*
D03*
X293500Y192500D02*
D03*
X299000Y188500D02*
D03*
X291000Y207500D02*
D03*
X296000Y203500D02*
D03*
X291500Y210500D02*
D03*
X295000Y207500D02*
D03*
X242500Y168000D02*
D03*
X244500Y164500D02*
D03*
X247500Y167500D02*
D03*
X250500Y169000D02*
D03*
X367000Y194500D02*
D03*
X364500Y206000D02*
D03*
X358500Y204000D02*
D03*
X384000Y171500D02*
D03*
X377867Y188728D02*
D03*
X381017Y185578D02*
D03*
X387323Y185528D02*
D03*
X379500Y192000D02*
D03*
X384173Y188677D02*
D03*
X371575D02*
D03*
X374667Y188691D02*
D03*
X374724Y185528D02*
D03*
X371575D02*
D03*
X377867D02*
D03*
X398500Y184000D02*
D03*
X393622Y182378D02*
D03*
X387323D02*
D03*
X381024D02*
D03*
X377874D02*
D03*
X381682Y165682D02*
D03*
X368000Y162000D02*
D03*
X371000Y165000D02*
D03*
X372000Y161500D02*
D03*
X321638Y189862D02*
D03*
X365262Y182392D02*
D03*
X362126Y182378D02*
D03*
X362133Y185578D02*
D03*
X365600Y185809D02*
D03*
X374674Y182385D02*
D03*
X371575Y182378D02*
D03*
X375500Y179000D02*
D03*
X386500Y174000D02*
D03*
X378346Y178800D02*
D03*
X376700Y168600D02*
D03*
X349578Y182385D02*
D03*
X359027D02*
D03*
X377000Y166400D02*
D03*
X374500Y164000D02*
D03*
X326500Y176000D02*
D03*
X332284Y165216D02*
D03*
X339328Y169500D02*
D03*
X335500Y177250D02*
D03*
X355827Y182378D02*
D03*
X358000Y163000D02*
D03*
X355000Y164000D02*
D03*
X351500Y165000D02*
D03*
X353000Y175000D02*
D03*
X352654Y194976D02*
D03*
X364500Y192500D02*
D03*
X362000D02*
D03*
X349585Y185542D02*
D03*
X343500Y178500D02*
D03*
X352778Y182500D02*
D03*
X352654Y191847D02*
D03*
X352677Y185528D02*
D03*
X345500Y170000D02*
D03*
X374500Y169500D02*
D03*
X360500Y178500D02*
D03*
X356000Y178000D02*
D03*
X351500D02*
D03*
X348000Y178500D02*
D03*
X346378Y182378D02*
D03*
X358976Y188677D02*
D03*
X355827Y185528D02*
D03*
X346385Y185578D02*
D03*
X349549Y188742D02*
D03*
X349599Y191942D02*
D03*
X303000Y176500D02*
D03*
X352677Y201276D02*
D03*
X357000Y202000D02*
D03*
X338500Y177000D02*
D03*
X346486Y191978D02*
D03*
X356500Y199000D02*
D03*
X349528Y198126D02*
D03*
Y201276D02*
D03*
X359000Y192500D02*
D03*
Y195500D02*
D03*
X352677Y198126D02*
D03*
D40*
X275191Y177191D02*
D03*
X268991D02*
D03*
X276500Y214000D02*
D03*
X259379Y212121D02*
D03*
X481000Y247000D02*
D03*
X476500D02*
D03*
X477500Y241500D02*
D03*
X476500Y251000D02*
D03*
X215500Y217000D02*
D03*
X199500Y210000D02*
D03*
X373000Y129000D02*
D03*
X457500Y177000D02*
D03*
X447543Y245957D02*
D03*
X486000Y260500D02*
D03*
X489500Y262500D02*
D03*
X218500Y146500D02*
D03*
X223000Y203000D02*
D03*
X228000Y204000D02*
D03*
X205000Y288500D02*
D03*
X190000Y290000D02*
D03*
X168000D02*
D03*
X163055Y290945D02*
D03*
X480000Y223000D02*
D03*
X445500Y199000D02*
D03*
X456043Y210457D02*
D03*
X432000Y186000D02*
D03*
X440000Y191000D02*
D03*
X279709Y303709D02*
D03*
X272000Y286000D02*
D03*
X226291Y303709D02*
D03*
X229209Y292291D02*
D03*
X251756Y282244D02*
D03*
X218791Y293291D02*
D03*
X184209Y292291D02*
D03*
X191709Y304709D02*
D03*
X183791Y303709D02*
D03*
X273000Y143500D02*
D03*
X302000Y152000D02*
D03*
X483500Y118000D02*
D03*
X458000D02*
D03*
X553543Y169457D02*
D03*
X546000Y146000D02*
D03*
X546484Y150984D02*
D03*
X498957Y187543D02*
D03*
X539709Y190291D02*
D03*
X528291Y190209D02*
D03*
X558917Y241583D02*
D03*
X471957Y260457D02*
D03*
X461543Y283543D02*
D03*
X452000Y277000D02*
D03*
X450291Y257291D02*
D03*
X440457Y259543D02*
D03*
X277000Y206500D02*
D03*
X273945Y202445D02*
D03*
X329500Y218000D02*
D03*
X317709Y228791D02*
D03*
X306291Y229209D02*
D03*
X244945Y231055D02*
D03*
X207803Y202803D02*
D03*
X198354Y202854D02*
D03*
X192055Y202945D02*
D03*
X338500Y151000D02*
D03*
X337000Y145000D02*
D03*
X331500Y199000D02*
D03*
X430000Y214000D02*
D03*
X436000Y220500D02*
D03*
X457500Y204500D02*
D03*
X456000Y199000D02*
D03*
X455000Y188000D02*
D03*
X462500Y196500D02*
D03*
X324000Y253500D02*
D03*
X335000Y247000D02*
D03*
X282500Y158500D02*
D03*
X303500Y143000D02*
D03*
X309500Y126000D02*
D03*
X301500Y159500D02*
D03*
X287500D02*
D03*
X272000Y191000D02*
D03*
X267646Y191646D02*
D03*
X412000Y178500D02*
D03*
X417000Y200500D02*
D03*
X412500Y226500D02*
D03*
X418000Y225500D02*
D03*
X352291Y141709D02*
D03*
X477500Y196000D02*
D03*
X459000Y191500D02*
D03*
X275000Y210000D02*
D03*
X264496Y208004D02*
D03*
X258197Y205303D02*
D03*
X290000Y203500D02*
D03*
X450000Y179000D02*
D03*
X442000Y173000D02*
D03*
X421500Y151000D02*
D03*
X424500Y119500D02*
D03*
X409500Y126000D02*
D03*
X404000Y127000D02*
D03*
X449500Y133500D02*
D03*
X446500Y129500D02*
D03*
X434500Y136000D02*
D03*
X416500Y132000D02*
D03*
X421500Y134000D02*
D03*
X456000Y218000D02*
D03*
X402000Y225000D02*
D03*
X449000Y217500D02*
D03*
X441500Y223000D02*
D03*
X442000Y217500D02*
D03*
X433000Y218000D02*
D03*
X498000Y271000D02*
D03*
X488000Y223000D02*
D03*
X484500Y226500D02*
D03*
X480500Y230000D02*
D03*
X475500Y226500D02*
D03*
X402000Y220000D02*
D03*
X297000Y142000D02*
D03*
X250000Y144500D02*
D03*
X299500Y235500D02*
D03*
X298500Y129000D02*
D03*
X304000Y131000D02*
D03*
X236500Y127000D02*
D03*
X234291Y135709D02*
D03*
X209000Y115291D02*
D03*
X211209Y135709D02*
D03*
X185500Y133000D02*
D03*
X198354Y158354D02*
D03*
X207803Y157803D02*
D03*
X208154Y141654D02*
D03*
X204654Y146346D02*
D03*
X224000Y159000D02*
D03*
X230000D02*
D03*
X245000Y144000D02*
D03*
X468000Y251500D02*
D03*
X364500Y269500D02*
D03*
X417000Y167000D02*
D03*
X165500Y158000D02*
D03*
X442500Y163500D02*
D03*
X167500Y154000D02*
D03*
X169500Y149500D02*
D03*
X171000Y143500D02*
D03*
X434500Y152000D02*
D03*
X453000Y148500D02*
D03*
X451579Y154921D02*
D03*
X449000Y148500D02*
D03*
X446000Y151500D02*
D03*
Y138000D02*
D03*
X450500Y139000D02*
D03*
X453000Y143500D02*
D03*
X440000Y134000D02*
D03*
X181000Y133000D02*
D03*
X178500Y136500D02*
D03*
X441000Y145000D02*
D03*
X179500Y141000D02*
D03*
X183500Y142000D02*
D03*
X163055Y230555D02*
D03*
X169354Y230646D02*
D03*
X178803Y231303D02*
D03*
X188252Y231248D02*
D03*
X197701Y225701D02*
D03*
X204000Y230500D02*
D03*
X269000Y270250D02*
D03*
Y275000D02*
D03*
X264500Y272500D02*
D03*
X265000Y267500D02*
D03*
X269000Y265000D02*
D03*
X265000Y262500D02*
D03*
X269000Y259500D02*
D03*
X266000Y257000D02*
D03*
X210500Y275000D02*
D03*
X201000D02*
D03*
X197000Y273000D02*
D03*
X191500Y275500D02*
D03*
X187500Y274000D02*
D03*
X172504Y276004D02*
D03*
X221500Y251000D02*
D03*
X170500Y218500D02*
D03*
X358000Y259000D02*
D03*
X348000Y263500D02*
D03*
X341709Y246291D02*
D03*
X359000Y240000D02*
D03*
X548500Y340791D02*
D03*
Y318291D02*
D03*
X515500Y329291D02*
D03*
X509000Y308791D02*
D03*
X196000Y317000D02*
D03*
X266291Y318000D02*
D03*
X420500Y323000D02*
D03*
X396000Y325000D02*
D03*
X379709Y352291D02*
D03*
X368291D02*
D03*
X382000Y345500D02*
D03*
X363000Y333000D02*
D03*
X382500Y340500D02*
D03*
X388000D02*
D03*
X402000Y351587D02*
D03*
X352000Y335500D02*
D03*
X348619Y344381D02*
D03*
X338500Y329000D02*
D03*
X251791Y357000D02*
D03*
X259791Y339500D02*
D03*
X255291Y348000D02*
D03*
X252291Y344000D02*
D03*
X229791Y327000D02*
D03*
X252291Y338500D02*
D03*
X224291Y327000D02*
D03*
X221500Y340709D02*
D03*
X214791Y319500D02*
D03*
X664000Y349000D02*
D03*
X672000Y242000D02*
D03*
X485500Y280000D02*
D03*
X507000Y270000D02*
D03*
X517500Y268000D02*
D03*
X532000Y220500D02*
D03*
X510500Y280500D02*
D03*
X522500Y227500D02*
D03*
X570500Y252000D02*
D03*
X579791Y221291D02*
D03*
X596500Y251000D02*
D03*
X598709Y223791D02*
D03*
X543500Y300500D02*
D03*
X471500Y270000D02*
D03*
X502000Y268000D02*
D03*
X483000Y299291D02*
D03*
X532500Y243000D02*
D03*
X499500Y206500D02*
D03*
X512500Y218000D02*
D03*
X480500Y234000D02*
D03*
X379500Y240500D02*
D03*
X375500Y255500D02*
D03*
X423500Y232500D02*
D03*
X292000Y287543D02*
D03*
X144500Y161500D02*
D03*
X144000Y177500D02*
D03*
X144500Y193500D02*
D03*
Y209500D02*
D03*
X210500Y230500D02*
D03*
X303500Y263500D02*
D03*
X213500Y228000D02*
D03*
X479750Y238250D02*
D03*
X165500Y219000D02*
D03*
X159500Y218500D02*
D03*
X144500D02*
D03*
X174500Y216000D02*
D03*
X220000Y228000D02*
D03*
X225000Y230000D02*
D03*
X227500Y226500D02*
D03*
X232500Y230000D02*
D03*
X235500Y226500D02*
D03*
X238791Y230000D02*
D03*
X241500Y226500D02*
D03*
X438500Y160500D02*
D03*
X449500D02*
D03*
X446500Y172500D02*
D03*
X451000Y167000D02*
D03*
X434500Y163500D02*
D03*
X446500Y156000D02*
D03*
X508000Y161500D02*
D03*
X473000Y189000D02*
D03*
X520110Y156890D02*
D03*
X468500Y182500D02*
D03*
X526500Y168500D02*
D03*
X491138Y187811D02*
D03*
X499500Y178500D02*
D03*
X511000Y176500D02*
D03*
X493500Y224000D02*
D03*
X497500D02*
D03*
X487654Y230154D02*
D03*
X468500Y231000D02*
D03*
X471000Y239500D02*
D03*
X433500Y240000D02*
D03*
X502500Y223000D02*
D03*
X471500Y244000D02*
D03*
X463000Y243500D02*
D03*
X462957Y236457D02*
D03*
X166205Y275295D02*
D03*
X182000Y276000D02*
D03*
X178500Y274000D02*
D03*
X262500Y254000D02*
D03*
X317500Y131000D02*
D03*
X322500Y132500D02*
D03*
X237500Y166500D02*
D03*
X254000Y168000D02*
D03*
X257500Y165500D02*
D03*
X234500Y163000D02*
D03*
X236000Y158500D02*
D03*
X267500Y167000D02*
D03*
X260500Y162500D02*
D03*
X264500Y164000D02*
D03*
X270500D02*
D03*
X274500Y167000D02*
D03*
X216500Y232000D02*
D03*
X246500Y217000D02*
D03*
X248000Y221000D02*
D03*
X248500Y225500D02*
D03*
X335000Y229500D02*
D03*
X332500Y227000D02*
D03*
X336000Y224000D02*
D03*
X198811Y177189D02*
D03*
X216811D02*
D03*
X210953Y181047D02*
D03*
X223189Y170811D02*
D03*
X219000Y185000D02*
D03*
X228500D02*
D03*
X233000Y186500D02*
D03*
X235189Y178811D02*
D03*
X433500Y245000D02*
D03*
X432000Y234000D02*
D03*
X407500Y226500D02*
D03*
X284500Y225000D02*
D03*
X417000Y263000D02*
D03*
X407500Y256500D02*
D03*
X367000Y254000D02*
D03*
X371500Y270000D02*
D03*
X401500Y259500D02*
D03*
X424000D02*
D03*
X377000Y274500D02*
D03*
X348000Y281500D02*
D03*
X407000Y238000D02*
D03*
X424000Y255000D02*
D03*
X349000Y287500D02*
D03*
X412000Y286500D02*
D03*
X439000Y290000D02*
D03*
X406000Y173000D02*
D03*
X416500Y177000D02*
D03*
X408500Y176500D02*
D03*
X403500Y182500D02*
D03*
X417000Y194000D02*
D03*
X420000Y180500D02*
D03*
X405500Y164500D02*
D03*
X415500Y218500D02*
D03*
X406500Y192000D02*
D03*
X402250Y186750D02*
D03*
X277500Y155500D02*
D03*
X248500Y158000D02*
D03*
X314000Y225000D02*
D03*
X292500Y214000D02*
D03*
X331000Y213500D02*
D03*
X286000Y106000D02*
D03*
X195500Y110000D02*
D03*
X292500Y106000D02*
D03*
D41*
X110000Y290000D02*
D03*
Y310500D02*
D03*
M02*
