M48
;Layer_Color=7557959
;FILE_FORMAT=2:5
INCH,LZ
;TYPE=PLATED
T1F00S00C0.01000
T2F00S00C0.01600
T3F00S00C0.03500
T4F00S00C0.03543
T5F00S00C0.05000
T6F00S00C0.06200
T7F00S00C0.12800
;TYPE=NON_PLATED
T8F00S00C0.04000
T9F00S00C0.04700
T10F00S00C0.10000
T11F00S00C0.12500
%
T01
X03295Y0021583
X04505Y0097083
X0453Y0095083
X0456
X0466Y0090583
X0453Y0152
X04545Y0184
X0398Y0135
X03955Y0132
X03935Y01295
X03895Y0132
X0387Y0134
X03875Y0139
X039Y0141
X03935Y01375
X0391Y0125
X03885Y0121
X0385Y0123083
X038525Y0107833
X03845Y0102583
X0383567Y008865
X03805Y0088783
X0376Y0089
X03725Y0087083
X0372Y0084083
X03795Y0078583
X0386925Y0089158
X03905Y0089083
X03935
X03965
X04
X0403Y0089583
X0406Y0091083
X03585Y00795
Y0075
X03615Y0076
X03455Y0080083
X03335Y00995
X0334Y01025
X0328Y010975
X03295Y0113
X0329877Y0115877
X033Y0123
X0327Y0122
X0328Y01305
X0326Y01335
X0329Y01365
X03295Y014
Y0143
X0325Y014
X03215Y0143
Y0146
Y0149
Y0152
X03095Y0147
X03045Y0145
X0306Y01425
X0304Y01395
X0302Y0137
Y0134
X0298Y01335
X029175Y01352
X029265Y0130537
X0294Y0124
X02965Y0118
X03025Y0119
X0308Y0116083
X0306Y0124
X0307Y0132
X0311Y01395
X0293247Y01447
X02925Y0148
X0293671Y0151329
X02985Y0155083
X0301Y0156583
X0304
Y0160583
X03095Y0163083
X0314Y0167583
X0302Y0170583
X0295Y0171083
X029085Y0143
X029Y01155
X0292Y0103
X029175Y0063333
X03585Y00585
X03625Y0054083
Y0051083
X03635Y0048083
X0353Y01185
X0345Y0118
X0344Y0123
X0347
Y01135
Y01445
X03425Y01515
X0339Y0155
X0375313Y0140399
X03775Y01425
X03825Y0142
X03805Y01455
X02865Y0146
X0286Y0142
X0283Y01445
X02805Y0143
X0279Y01455
X02735Y01445
X027Y0146
X0267Y0147
X0257Y0148
X0253Y01485
X02535Y0145
X02475
X02482Y0142
X02508Y0141012
X02495Y0148
X0243318Y0144318
X0242Y01375
X02435Y01315
X02465
X0249
X02515
X02505Y01274
X0253425Y0127622
Y0124472
X0250276
Y0121309
X024715Y012133
X0244Y0121309
Y0124472
X0244126Y012751
X0237677Y0124472
X023767Y012135
X0240827Y0121323
X02345Y0124465
X0231378Y0127622
X0233Y0132
X0227Y0134583
X0226768Y0129083
X0227Y01415
X02295Y0145083
X02235Y0146
X02135Y01445
X02155Y0142
X0219Y0137
Y0119
X0215709
X02215Y0121
X0223281Y0111802
X0226Y0111083
X0227Y0108583
X02235Y0105083
X02247Y0097583
X0228
X02275Y0094
X02314Y0092983
X023155Y0089683
X02377Y0089833
X0242Y0094583
X02495
X0250276Y0099276
X025Y0103083
X0253425Y0102425
X02535Y01055
X02565
X02605Y0104
Y0101
X0264Y0097
X0269064Y0099128
X0272346Y0099276
Y0108724
X02755
Y0115024
X0272346
X02723Y0118154
X02754Y0121258
X0275415Y01244
X0272323Y0124472
X0269173
Y0127622
X0266
X0259738
X02594Y0124191
X02628Y01244
X0266Y0121323
X02655Y01175
X02625
X026
X0258Y01155
X0252Y01175
X0249
X02485Y0114
X02455Y0116
X02427Y0110983
X02445Y0108583
X02465Y0106583
X0245Y0104083
X023765Y0102433
X02345Y0099276
X0234555Y0096137
X023455Y0083533
X0231378Y0083528
X02265Y0085102
X0224Y0084
X02215Y0082
X0224Y0077583
X0228Y0078583
Y0076
X024Y0076583
X0244Y0077
X0242712Y0074717
X02505Y00735
X025Y0080583
X0253288Y0080553
X0253626Y0086839
X0254Y0090583
X025815Y0091402
X02597Y008665
X0262874Y00835
Y0080378
X0266024Y0083528
Y0086677
X0269062Y0083378
X02694Y0080583
X0270613Y0075388
X0265Y0076083
X0266Y0073083
X02685Y0071083
X02615Y0074083
X0257Y0076083
X02755Y0077
X02785Y0074083
X02865Y0069583
X02895Y0067583
X0282Y0063583
X02635Y0060583
X02625Y0053083
X0266Y0052083
X02665Y0106
X02669Y01096
X02625Y0110454
X0255Y0099
X0253425Y0121323
X02377Y0111883
X02345Y01115
X0217Y01105
X0211Y0111083
X02125Y0105583
X0206Y0117083
X018906Y0121023
X0185Y0125083
X01915Y0101083
X02005Y00985
X01785Y01005
X0183Y0086083
X0167Y0089583
X0165Y0094583
X01605Y0106
X01575Y0105
X0207Y0078583
X0215Y0085083
X0218Y00855
X02225Y00895
X0225Y00915
X0285Y009
X0288Y0092083
Y01015
X0287Y0108
X02825Y01112
X0282Y0115
X0278514Y0118022
X0278615Y01245
X0278622Y0127622
X02825Y0129
X02815Y01315
X0286Y01335
X02895
X028575Y0127811
X0283Y0125
X02865Y01195
X02895Y01215
X02825Y0137
X0275Y01335
X02725Y0132
X0268
X0131Y0085
X0128Y00855
X01165Y00985
X0106Y01015
T02
X00555Y0027
X0074Y0024083
X01115Y0015583
X0139Y00145
Y0021
X0158Y0026
Y0008
X01675Y0016583
X0177Y0008
Y0026
X01845Y00235
X02085Y0021
X01935Y0004583
X0262Y0022583
X03195Y00045
X0397494Y0022506
X042Y00215
X04535Y0030583
X04585Y00145
X04645Y0039583
X04575Y0045083
X045075Y0043833
X0455646Y0061
X0461945Y006
X0479Y0070583
X04745Y0091083
X04525Y01215
Y0156
X04555Y01605
X0458Y01635
X0454Y01665
X04555Y0175
X0458987Y0173013
X046Y01845
X0465Y0179583
X04665Y0164083
X0424Y0151646
X04245Y01475
Y01255
X04235Y0107083
X04275Y01075
X0407748Y0107748
X04015Y01075
X0401Y0129
X0396Y0125
X0399Y0147
X0401Y0151
X0389Y01515
X03905Y0147
X03875Y01435
X0371Y0142
X03675Y01445
X03645Y01475
X03605Y0146
X03545
X03575Y0143
X03505
X0349809Y0132809
X0356009
X0357354Y0118354
X03545Y01065
X03485Y0104
X035Y01
X03495Y0095
X03635Y0097879
X0360504Y0101996
X0366803Y0104697
X03735Y0092
X03525Y00795
X0354Y0073583
X0339Y0065083
X03415Y0046
Y0041583
X0345534Y0041965
X0356Y003975
Y0045
X0355752Y0049331
X036Y00425
X03635Y0040583
X03595Y00375
X03775Y0045083
X041225Y0044833
X0417Y0046083
X0422018Y0046064
X04305Y0044583
X0435Y0045583
X0432717Y0052366
X04285Y0053083
X0425299Y0033583
X04035Y00565
X0419Y0076583
X04235Y0078083
X0434748Y0076583
X0444197Y0078083
X03285
X0325Y0082
X0317429Y0084571
X0307Y0084583
X02935Y00815
X02915Y0076083
X02955Y0092
X0294Y00965
X02935Y0111
X0328Y0104083
X03325Y0096
X03155Y0064583
X02945Y0048583
X029
X02945Y0037583
X0301457Y0037983
X0299Y01755
X0304788Y0176288
X0321Y0179
X03265Y0181
X033125Y017275
X0323Y0168083
X0318575Y0168583
X0351Y0166
X03475Y01545
X03765Y0152
X0392Y01785
Y0183
X04145
X04285Y0186
X02765Y01665
X025Y0165
X02055Y0161
X01885Y0163583
X0188Y0157
X01835Y0159083
X01845Y01515
X0181Y0148083
X01895Y0146
X0186Y01405
X01895Y01355
X0194Y0125083
X0185Y0121039
X0179Y0123083
X01645Y0121583
X0166Y0130583
X01525Y0134083
X0147Y0133083
X0138504Y0133079
X0134Y0136583
X0139915Y0121083
X0146
X0151722Y0120804
X01535Y0109583
X01395Y0109
X01385Y0087
X0137346Y0079846
X01445Y0076
X014525Y007175
X0144Y0068
Y0063
X01485
Y0059
X01535Y0066
X015575Y0075333
X0165Y0075583
Y00715
X01625Y0084083
X0159Y00915
X015125Y008975
X0146Y0088
X01495Y00815
X01675Y0101
X0174Y0062457
X0196Y0055083
X02045Y0042
X0214Y0032
X02365Y0031878
X02375Y00485
X0247Y00465
X0263Y0048083
X027Y005
X02695Y004
X02855Y00485
X0287Y0086083
X0236Y00735
X02295Y0065
X023Y0059
X02265Y0057
X0226Y0061
X0185Y00395
X018Y0036
X01835Y00315
X01445Y00325
X01555Y0044
X0139Y00495
X01355Y00475
X01525Y0179583
X0179Y0182083
X0181Y0171583
X0184Y01685
X0189Y01725
X02075Y0143
X02085Y0133
X0207Y0129
X0213Y01315
X02165Y01335
X02195Y01455
X0128Y0135083
X0113Y0149583
X01085Y0156083
X010235Y0156933
X0094Y0162457
X0097Y01815
X0115Y0182
X01295Y0179583
X00745Y01855
X00905Y0134583
X01Y0118
X01125Y0119236
Y0092
X01025Y00825
X0092Y0084
X0094Y00905
X00935Y00605
X009Y00545
X0096Y00525
X0099Y0049
X00955Y0045083
X0105791Y0046791
X0113Y0055
X0118Y00565
X0127453Y0060047
X01295Y00675
X01115Y0065
X0126Y0039
X0067Y0051
X00575Y0054
X00475Y0063374
X00465Y00795
X0043Y00845
X0028Y0086
X0022Y00885
X00205Y0076457
Y00595
X0025Y006
X0007Y00885
X0066Y00655
X00145Y0172
X0006
X00965Y0202
X01055Y02005
X01285Y02
X01325Y01985
X0132512Y0190512
X01295Y0193
X0147441Y0195941
X01485Y0201
X04455Y01875
T03
X0221189Y0011142
Y0028858
X0244811
Y0011142
X00795Y0138
Y0146
Y0154
X00695Y015
Y0142
Y0134
X01845Y0193
X02105
T04
X0259Y001
X0269
X0279
X0289
X0285Y003
X0295
X0305
X0315
X0325
X0335
X0345
X0355
X037
X038
X039
X04
X041
X042
X043
X044
X0445Y001
X0435
X0425
X0415
X0395
X0385
X0375
X0365
X0355
X0345
X0455
X0465
X0197Y0070583
X0187
X0285Y022
X0295
X0305
X0315
X0325
X0335
X0355
X0365
X0375
X0385
X0395
X0405
Y02
X0415
X0425
X0435
X0445
X0395
X0379
X0369
X0359
X0349
X0339
X0329
X0319
X0309
X0455
X0465
T05
X0032789Y0014496
X0084Y0006583
X0109Y0006583
X00446Y0033
X0020978
X00185Y01004
X00085
Y01596
X00185
T06
X00435Y00954
Y01646
T07
X00435Y0111
Y0149
T08
X03175Y01267
T09
X0409283Y0102
X0444717
T10
X0460937Y0102
X0393063
T11
X0062Y001
X0475Y003
Y014
X0062Y02
X0275
M30
