%FSLAX25Y25*%
%MOIN*%
G70*
G01*
G75*
G04 Layer_Color=8421504*
%ADD10R,0.07087X0.05118*%
%ADD11O,0.06693X0.01181*%
%ADD12R,0.04724X0.05512*%
%ADD13R,0.02953X0.00984*%
%ADD14R,0.02953X0.01457*%
%ADD15R,0.05512X0.04724*%
%ADD16R,0.05118X0.07087*%
%ADD17R,0.02756X0.01575*%
%ADD18R,0.21654X0.07874*%
%ADD19O,0.02165X0.05906*%
%ADD20O,0.00984X0.06102*%
%ADD21O,0.06102X0.00984*%
%ADD22R,0.02165X0.05709*%
%ADD23C,0.01693*%
%ADD24R,0.12598X0.03937*%
%ADD25R,0.03937X0.03937*%
%ADD26R,0.05906X0.05118*%
%ADD27C,0.00500*%
%ADD28C,0.01000*%
%ADD29C,0.02000*%
%ADD30C,0.15748*%
%ADD31R,0.05906X0.05906*%
%ADD32C,0.05906*%
%ADD33C,0.06000*%
%ADD34C,0.08700*%
%ADD35C,0.07500*%
%ADD36C,0.06496*%
%ADD37R,0.06496X0.06496*%
%ADD38C,0.09843*%
%ADD39C,0.01700*%
%ADD40C,0.03000*%
%ADD41C,0.04000*%
%ADD42C,0.04000*%
%ADD43C,0.10274*%
G04:AMPARAMS|DCode=44|XSize=118.74mil|YSize=118.74mil|CornerRadius=0mil|HoleSize=0mil|Usage=FLASHONLY|Rotation=0.000|XOffset=0mil|YOffset=0mil|HoleType=Round|Shape=Relief|Width=8mil|Gap=10mil|Entries=4|*
%AMTHD44*
7,0,0,0.11874,0.09874,0.00800,45*
%
%ADD44THD44*%
%ADD45C,0.05943*%
G04:AMPARAMS|DCode=46|XSize=75.433mil|YSize=75.433mil|CornerRadius=0mil|HoleSize=0mil|Usage=FLASHONLY|Rotation=0.000|XOffset=0mil|YOffset=0mil|HoleType=Round|Shape=Relief|Width=8mil|Gap=10mil|Entries=4|*
%AMTHD46*
7,0,0,0.07543,0.05543,0.00800,45*
%
%ADD46THD46*%
%ADD47C,0.05900*%
%ADD48C,0.08600*%
%ADD49C,0.15200*%
%ADD50C,0.07400*%
G04:AMPARAMS|DCode=51|XSize=79.37mil|YSize=79.37mil|CornerRadius=0mil|HoleSize=0mil|Usage=FLASHONLY|Rotation=0.000|XOffset=0mil|YOffset=0mil|HoleType=Round|Shape=Relief|Width=8mil|Gap=10mil|Entries=4|*
%AMTHD51*
7,0,0,0.07937,0.05937,0.00800,45*
%
%ADD51THD51*%
%ADD52C,0.06337*%
%ADD53C,0.13424*%
G04:AMPARAMS|DCode=54|XSize=56mil|YSize=56mil|CornerRadius=0mil|HoleSize=0mil|Usage=FLASHONLY|Rotation=0.000|XOffset=0mil|YOffset=0mil|HoleType=Round|Shape=Relief|Width=8mil|Gap=10mil|Entries=4|*
%AMTHD54*
7,0,0,0.05600,0.03600,0.00800,45*
%
%ADD54THD54*%
G04:AMPARAMS|DCode=55|XSize=46mil|YSize=46mil|CornerRadius=0mil|HoleSize=0mil|Usage=FLASHONLY|Rotation=0.000|XOffset=0mil|YOffset=0mil|HoleType=Round|Shape=Relief|Width=8mil|Gap=10mil|Entries=4|*
%AMTHD55*
7,0,0,0.04600,0.02600,0.00800,45*
%
%ADD55THD55*%
G04:AMPARAMS|DCode=56|XSize=60mil|YSize=60mil|CornerRadius=0mil|HoleSize=0mil|Usage=FLASHONLY|Rotation=0.000|XOffset=0mil|YOffset=0mil|HoleType=Round|Shape=Relief|Width=8mil|Gap=10mil|Entries=4|*
%AMTHD56*
7,0,0,0.06000,0.04000,0.00800,45*
%
%ADD56THD56*%
%ADD57C,0.04400*%
%ADD58C,0.00984*%
%ADD59C,0.02362*%
%ADD60C,0.03937*%
%ADD61C,0.00787*%
%ADD62C,0.00394*%
%ADD63R,0.06102X0.16142*%
D10*
X408583Y339878D02*
D03*
Y351295D02*
D03*
X248500Y303709D02*
D03*
Y292291D02*
D03*
X348000Y257709D02*
D03*
Y246291D02*
D03*
X326000Y196291D02*
D03*
Y207709D02*
D03*
X316000Y196291D02*
D03*
Y207709D02*
D03*
X499000Y315583D02*
D03*
Y327000D02*
D03*
X508500Y315583D02*
D03*
Y327000D02*
D03*
X548500Y323583D02*
D03*
Y335000D02*
D03*
X392000Y247791D02*
D03*
Y259209D02*
D03*
X382000Y247791D02*
D03*
Y259209D02*
D03*
X328500Y336378D02*
D03*
Y347795D02*
D03*
X338500Y336378D02*
D03*
Y347795D02*
D03*
X214791Y329291D02*
D03*
Y340709D02*
D03*
X204791Y329291D02*
D03*
Y340709D02*
D03*
X276291Y333500D02*
D03*
Y344917D02*
D03*
X176000Y303709D02*
D03*
Y292291D02*
D03*
X199000Y304709D02*
D03*
Y293291D02*
D03*
X211000Y304709D02*
D03*
Y293291D02*
D03*
X260000Y303709D02*
D03*
Y292291D02*
D03*
X272000Y303709D02*
D03*
Y292291D02*
D03*
X463500Y309083D02*
D03*
Y320500D02*
D03*
X475500Y299083D02*
D03*
Y310500D02*
D03*
X192000Y130291D02*
D03*
Y141709D02*
D03*
X202000Y122291D02*
D03*
Y133709D02*
D03*
X218000Y124291D02*
D03*
Y135709D02*
D03*
X228000Y124291D02*
D03*
Y135709D02*
D03*
X480000Y206291D02*
D03*
Y217709D02*
D03*
X457500Y257291D02*
D03*
Y268709D02*
D03*
X492000Y206291D02*
D03*
Y217709D02*
D03*
X563000Y221291D02*
D03*
Y232709D02*
D03*
X573000Y221291D02*
D03*
Y232709D02*
D03*
X549500Y241583D02*
D03*
Y253000D02*
D03*
X539000Y220791D02*
D03*
Y232209D02*
D03*
X549000Y220791D02*
D03*
Y232209D02*
D03*
X539500Y241583D02*
D03*
Y253000D02*
D03*
X591000Y223791D02*
D03*
Y235209D02*
D03*
X406000Y204291D02*
D03*
Y215709D02*
D03*
X236500Y303709D02*
D03*
Y292291D02*
D03*
D11*
X535795Y127362D02*
D03*
Y129331D02*
D03*
Y131299D02*
D03*
Y133268D02*
D03*
Y135236D02*
D03*
Y137205D02*
D03*
Y139173D02*
D03*
Y141142D02*
D03*
Y143110D02*
D03*
Y145079D02*
D03*
Y147047D02*
D03*
Y149016D02*
D03*
Y150984D02*
D03*
Y152953D02*
D03*
Y154921D02*
D03*
Y156890D02*
D03*
Y158858D02*
D03*
Y160827D02*
D03*
Y162795D02*
D03*
Y164764D02*
D03*
Y166732D02*
D03*
Y168701D02*
D03*
Y170669D02*
D03*
Y172638D02*
D03*
X460205Y127362D02*
D03*
Y129331D02*
D03*
Y131299D02*
D03*
Y133268D02*
D03*
Y135236D02*
D03*
Y137205D02*
D03*
Y139173D02*
D03*
Y141142D02*
D03*
Y143110D02*
D03*
Y145079D02*
D03*
Y147047D02*
D03*
Y149016D02*
D03*
Y150984D02*
D03*
Y152953D02*
D03*
Y154921D02*
D03*
Y156890D02*
D03*
Y158858D02*
D03*
Y160827D02*
D03*
Y162795D02*
D03*
Y164764D02*
D03*
Y166732D02*
D03*
Y168701D02*
D03*
Y170669D02*
D03*
Y172638D02*
D03*
X374071Y338650D02*
D03*
Y340618D02*
D03*
Y342587D02*
D03*
Y344555D02*
D03*
Y346524D02*
D03*
X357929Y338650D02*
D03*
Y340618D02*
D03*
Y342587D02*
D03*
Y344555D02*
D03*
Y346524D02*
D03*
X244362Y333063D02*
D03*
Y335031D02*
D03*
Y337000D02*
D03*
Y338969D02*
D03*
Y340937D02*
D03*
X228220Y333063D02*
D03*
Y335031D02*
D03*
Y337000D02*
D03*
Y338969D02*
D03*
Y340937D02*
D03*
D12*
X553543Y162000D02*
D03*
X546457D02*
D03*
X339543Y254000D02*
D03*
X332457D02*
D03*
X429543Y204000D02*
D03*
X422457D02*
D03*
X435149Y196000D02*
D03*
X428850D02*
D03*
X159543Y146000D02*
D03*
X152457D02*
D03*
X484350Y326791D02*
D03*
X490650D02*
D03*
X309457Y253500D02*
D03*
X316543D02*
D03*
X309457Y263500D02*
D03*
X316543D02*
D03*
X447543Y232000D02*
D03*
X440457D02*
D03*
X447543Y240000D02*
D03*
X440457D02*
D03*
X507150Y216000D02*
D03*
X500850D02*
D03*
X558850Y252000D02*
D03*
X565150D02*
D03*
X504087Y298000D02*
D03*
X497000D02*
D03*
X501543Y276000D02*
D03*
X494457D02*
D03*
X299543Y112000D02*
D03*
X292457D02*
D03*
D13*
X283638Y191016D02*
D03*
Y192984D02*
D03*
X288362D02*
D03*
Y191016D02*
D03*
X430362Y158984D02*
D03*
Y157016D02*
D03*
X425638D02*
D03*
Y158984D02*
D03*
X430362Y174984D02*
D03*
Y173016D02*
D03*
X425638D02*
D03*
Y174984D02*
D03*
X486362Y190984D02*
D03*
Y189016D02*
D03*
X481638D02*
D03*
Y190984D02*
D03*
X468362D02*
D03*
Y189016D02*
D03*
X463638D02*
D03*
Y190984D02*
D03*
X281638Y209016D02*
D03*
Y210984D02*
D03*
X286362D02*
D03*
Y209016D02*
D03*
X293638Y181016D02*
D03*
Y182984D02*
D03*
X298362D02*
D03*
Y181016D02*
D03*
X241638Y133016D02*
D03*
Y134984D02*
D03*
X246362D02*
D03*
Y133016D02*
D03*
X430362Y142984D02*
D03*
Y141016D02*
D03*
X425638D02*
D03*
Y142984D02*
D03*
X430362Y126984D02*
D03*
Y125016D02*
D03*
X425638D02*
D03*
Y126984D02*
D03*
X255638Y139016D02*
D03*
Y140984D02*
D03*
X260362D02*
D03*
Y139016D02*
D03*
X292776Y165205D02*
D03*
Y167173D02*
D03*
X297500D02*
D03*
Y165205D02*
D03*
X281638Y173016D02*
D03*
Y174984D02*
D03*
X286362D02*
D03*
Y173016D02*
D03*
X323638Y181016D02*
D03*
Y182984D02*
D03*
X328362D02*
D03*
Y181016D02*
D03*
D14*
X288362Y195189D02*
D03*
Y188811D02*
D03*
X283638D02*
D03*
Y195189D02*
D03*
X425638Y154811D02*
D03*
Y161189D02*
D03*
X430362D02*
D03*
Y154811D02*
D03*
X425638Y170811D02*
D03*
Y177189D02*
D03*
X430362D02*
D03*
Y170811D02*
D03*
X481638Y186811D02*
D03*
Y193189D02*
D03*
X486362D02*
D03*
Y186811D02*
D03*
X463638D02*
D03*
Y193189D02*
D03*
X468362D02*
D03*
Y186811D02*
D03*
X286362Y213189D02*
D03*
Y206811D02*
D03*
X281638D02*
D03*
Y213189D02*
D03*
X298362Y185189D02*
D03*
Y178811D02*
D03*
X293638D02*
D03*
Y185189D02*
D03*
X246362Y137189D02*
D03*
Y130811D02*
D03*
X241638D02*
D03*
Y137189D02*
D03*
X425638Y138811D02*
D03*
Y145189D02*
D03*
X430362D02*
D03*
Y138811D02*
D03*
X425638Y122811D02*
D03*
Y129189D02*
D03*
X430362D02*
D03*
Y122811D02*
D03*
X260362Y143189D02*
D03*
Y136811D02*
D03*
X255638D02*
D03*
Y143189D02*
D03*
X297500Y169378D02*
D03*
Y163000D02*
D03*
X292776D02*
D03*
Y169378D02*
D03*
X286362Y177189D02*
D03*
Y170811D02*
D03*
X281638D02*
D03*
Y177189D02*
D03*
X328362Y185189D02*
D03*
Y178811D02*
D03*
X323638D02*
D03*
Y185189D02*
D03*
D15*
X358000Y246457D02*
D03*
Y253543D02*
D03*
X434000Y259543D02*
D03*
Y252457D02*
D03*
X536500Y332835D02*
D03*
Y325748D02*
D03*
X396000Y351587D02*
D03*
Y344500D02*
D03*
X516000Y180457D02*
D03*
Y187543D02*
D03*
X506000Y180457D02*
D03*
Y187543D02*
D03*
X266291Y344752D02*
D03*
Y337665D02*
D03*
Y330752D02*
D03*
Y323665D02*
D03*
X396000Y337587D02*
D03*
Y330500D02*
D03*
X188000Y318457D02*
D03*
Y325543D02*
D03*
X429500Y323000D02*
D03*
Y330087D02*
D03*
X664000Y249543D02*
D03*
Y242457D02*
D03*
X654000Y334457D02*
D03*
Y341543D02*
D03*
X650000Y249543D02*
D03*
Y242457D02*
D03*
X470000Y210457D02*
D03*
Y217543D02*
D03*
X462000Y210457D02*
D03*
Y217543D02*
D03*
X475500Y319248D02*
D03*
Y326335D02*
D03*
X309500Y287587D02*
D03*
Y280500D02*
D03*
X299500Y287587D02*
D03*
Y280500D02*
D03*
X478000Y260457D02*
D03*
Y267543D02*
D03*
X456000Y236457D02*
D03*
Y243543D02*
D03*
X528000Y241150D02*
D03*
Y234850D02*
D03*
X309500Y118543D02*
D03*
Y111457D02*
D03*
X326000Y228457D02*
D03*
Y235543D02*
D03*
X664000Y334457D02*
D03*
Y341543D02*
D03*
X590000Y243913D02*
D03*
Y251000D02*
D03*
X468000Y276457D02*
D03*
Y283543D02*
D03*
X152000Y161543D02*
D03*
Y154457D02*
D03*
Y177543D02*
D03*
Y170457D02*
D03*
Y193543D02*
D03*
Y186457D02*
D03*
Y209543D02*
D03*
Y202457D02*
D03*
D16*
X379709Y360000D02*
D03*
X368291D02*
D03*
X245000Y357000D02*
D03*
X233583D02*
D03*
X352291Y134000D02*
D03*
X363709D02*
D03*
X382291D02*
D03*
X393709D02*
D03*
X249000Y325000D02*
D03*
X237583D02*
D03*
X238000Y315000D02*
D03*
X226583D02*
D03*
X381709Y330000D02*
D03*
X370291D02*
D03*
X361709Y320000D02*
D03*
X350291D02*
D03*
X520791Y317291D02*
D03*
X532209D02*
D03*
X425709Y186000D02*
D03*
X414291D02*
D03*
X449709Y206000D02*
D03*
X438291D02*
D03*
X312291Y218000D02*
D03*
X323709D02*
D03*
X306291Y236000D02*
D03*
X317709D02*
D03*
X412291Y238000D02*
D03*
X423709D02*
D03*
X535709Y300500D02*
D03*
X524291D02*
D03*
X552291D02*
D03*
X563709D02*
D03*
X475709Y118000D02*
D03*
X464291D02*
D03*
X539709Y182000D02*
D03*
X528291D02*
D03*
X295709Y152000D02*
D03*
X284291D02*
D03*
X291709Y142000D02*
D03*
X280291D02*
D03*
X217709Y210000D02*
D03*
X206291D02*
D03*
X508252Y288000D02*
D03*
X496835D02*
D03*
D17*
X520465Y331850D02*
D03*
Y329291D02*
D03*
Y326732D02*
D03*
X528535D02*
D03*
Y331850D02*
D03*
D18*
X396701Y150500D02*
D03*
X359299D02*
D03*
X563201Y283500D02*
D03*
X525799D02*
D03*
D19*
X163055Y237756D02*
D03*
X166205D02*
D03*
X169354D02*
D03*
X172504D02*
D03*
X175654D02*
D03*
X178803D02*
D03*
X181953D02*
D03*
X185102D02*
D03*
X188252D02*
D03*
X191402D02*
D03*
X194551D02*
D03*
X197701D02*
D03*
X200850D02*
D03*
X204000D02*
D03*
X207150D02*
D03*
X210299D02*
D03*
X213449D02*
D03*
X216598D02*
D03*
X219748D02*
D03*
X222898D02*
D03*
X226047D02*
D03*
X229197D02*
D03*
X232346D02*
D03*
X235496D02*
D03*
X238646D02*
D03*
X241795D02*
D03*
X244945D02*
D03*
X163055Y282244D02*
D03*
X166205D02*
D03*
X169354D02*
D03*
X172504D02*
D03*
X175654D02*
D03*
X178803D02*
D03*
X181953D02*
D03*
X185102D02*
D03*
X188252D02*
D03*
X191402D02*
D03*
X194551D02*
D03*
X197701D02*
D03*
X200850D02*
D03*
X204000D02*
D03*
X207150D02*
D03*
X210299D02*
D03*
X213449D02*
D03*
X216598D02*
D03*
X219748D02*
D03*
X222898D02*
D03*
X226047D02*
D03*
X229197D02*
D03*
X232346D02*
D03*
X235496D02*
D03*
X238646D02*
D03*
X241795D02*
D03*
X244945D02*
D03*
X192055Y151756D02*
D03*
X195205D02*
D03*
X198354D02*
D03*
X201504D02*
D03*
X204654D02*
D03*
X207803D02*
D03*
X210953D02*
D03*
X214102D02*
D03*
X217252D02*
D03*
X220402D02*
D03*
X223551D02*
D03*
X226701D02*
D03*
X229850D02*
D03*
X233000D02*
D03*
X236150D02*
D03*
X239299D02*
D03*
X242449D02*
D03*
X245598D02*
D03*
X248748D02*
D03*
X251898D02*
D03*
X255047D02*
D03*
X258197D02*
D03*
X261346D02*
D03*
X264496D02*
D03*
X267646D02*
D03*
X270795D02*
D03*
X273945D02*
D03*
X192055Y196244D02*
D03*
X195205D02*
D03*
X198354D02*
D03*
X201504D02*
D03*
X204654D02*
D03*
X207803D02*
D03*
X210953D02*
D03*
X214102D02*
D03*
X217252D02*
D03*
X220402D02*
D03*
X223551D02*
D03*
X226701D02*
D03*
X229850D02*
D03*
X233000D02*
D03*
X236150D02*
D03*
X239299D02*
D03*
X242449D02*
D03*
X245598D02*
D03*
X248748D02*
D03*
X251898D02*
D03*
X255047D02*
D03*
X258197D02*
D03*
X261346D02*
D03*
X264496D02*
D03*
X267646D02*
D03*
X270795D02*
D03*
X273945D02*
D03*
D20*
X514827Y230154D02*
D03*
X512858D02*
D03*
X510890D02*
D03*
X508921D02*
D03*
X506953D02*
D03*
X504984D02*
D03*
X503016D02*
D03*
X501047D02*
D03*
X499079D02*
D03*
X497110D02*
D03*
X495142D02*
D03*
X493173D02*
D03*
Y261846D02*
D03*
X495142D02*
D03*
X497110D02*
D03*
X499079D02*
D03*
X501047D02*
D03*
X503016D02*
D03*
X504984D02*
D03*
X506953D02*
D03*
X508921D02*
D03*
X510890D02*
D03*
X512858D02*
D03*
X514827D02*
D03*
D21*
X488154Y235173D02*
D03*
Y237142D02*
D03*
Y239110D02*
D03*
Y241079D02*
D03*
Y243047D02*
D03*
Y245016D02*
D03*
Y246984D02*
D03*
Y248953D02*
D03*
Y250921D02*
D03*
Y252890D02*
D03*
Y254858D02*
D03*
Y256827D02*
D03*
X519846D02*
D03*
Y254858D02*
D03*
Y252890D02*
D03*
Y250921D02*
D03*
Y248953D02*
D03*
Y246984D02*
D03*
Y245016D02*
D03*
Y243047D02*
D03*
Y241079D02*
D03*
Y239110D02*
D03*
Y237142D02*
D03*
Y235173D02*
D03*
D22*
X578000Y245374D02*
D03*
Y254626D02*
D03*
D23*
X344803Y183953D02*
D03*
Y187102D02*
D03*
Y190252D02*
D03*
Y193402D02*
D03*
Y196551D02*
D03*
Y199701D02*
D03*
Y202850D02*
D03*
Y206000D02*
D03*
Y209150D02*
D03*
Y212299D02*
D03*
Y215449D02*
D03*
Y218598D02*
D03*
Y221748D02*
D03*
Y224898D02*
D03*
Y228047D02*
D03*
Y231197D02*
D03*
X347953D02*
D03*
Y228047D02*
D03*
Y224898D02*
D03*
Y221748D02*
D03*
Y218598D02*
D03*
Y215449D02*
D03*
Y212299D02*
D03*
Y209150D02*
D03*
Y206000D02*
D03*
Y202850D02*
D03*
Y199701D02*
D03*
Y196551D02*
D03*
Y193402D02*
D03*
Y190252D02*
D03*
Y187102D02*
D03*
Y183953D02*
D03*
Y180803D02*
D03*
X354252D02*
D03*
Y183953D02*
D03*
Y187102D02*
D03*
Y190252D02*
D03*
Y193402D02*
D03*
Y196551D02*
D03*
Y199701D02*
D03*
Y202850D02*
D03*
Y206000D02*
D03*
Y209150D02*
D03*
Y212299D02*
D03*
Y215449D02*
D03*
Y218598D02*
D03*
Y221748D02*
D03*
Y224898D02*
D03*
Y228047D02*
D03*
Y231197D02*
D03*
X351102D02*
D03*
Y228047D02*
D03*
Y224898D02*
D03*
Y221748D02*
D03*
Y218598D02*
D03*
Y215449D02*
D03*
Y212299D02*
D03*
Y209150D02*
D03*
Y206000D02*
D03*
Y202850D02*
D03*
Y199701D02*
D03*
Y196551D02*
D03*
Y193402D02*
D03*
Y190252D02*
D03*
Y187102D02*
D03*
Y183953D02*
D03*
Y180803D02*
D03*
X363701D02*
D03*
Y183953D02*
D03*
Y187102D02*
D03*
Y190252D02*
D03*
Y221748D02*
D03*
Y224898D02*
D03*
Y228047D02*
D03*
Y231197D02*
D03*
X366850D02*
D03*
Y228047D02*
D03*
Y224898D02*
D03*
Y221748D02*
D03*
Y209150D02*
D03*
Y206000D02*
D03*
Y202850D02*
D03*
Y190252D02*
D03*
Y187102D02*
D03*
Y183953D02*
D03*
Y180803D02*
D03*
X360551D02*
D03*
Y183953D02*
D03*
Y187102D02*
D03*
Y190252D02*
D03*
Y221748D02*
D03*
Y224898D02*
D03*
Y228047D02*
D03*
Y231197D02*
D03*
X357402D02*
D03*
Y228047D02*
D03*
Y224898D02*
D03*
Y221748D02*
D03*
Y190252D02*
D03*
Y187102D02*
D03*
Y183953D02*
D03*
Y180803D02*
D03*
X382598D02*
D03*
Y183953D02*
D03*
Y187102D02*
D03*
Y190252D02*
D03*
Y221748D02*
D03*
Y224898D02*
D03*
Y228047D02*
D03*
Y231197D02*
D03*
X385748D02*
D03*
Y228047D02*
D03*
Y224898D02*
D03*
Y221748D02*
D03*
Y218598D02*
D03*
Y215449D02*
D03*
Y212299D02*
D03*
Y209150D02*
D03*
Y206000D02*
D03*
Y202850D02*
D03*
Y199701D02*
D03*
Y196551D02*
D03*
Y190252D02*
D03*
Y187102D02*
D03*
Y183953D02*
D03*
Y180803D02*
D03*
X392047D02*
D03*
Y183953D02*
D03*
Y187102D02*
D03*
Y190252D02*
D03*
Y193402D02*
D03*
Y196551D02*
D03*
Y199701D02*
D03*
Y202850D02*
D03*
Y206000D02*
D03*
Y209150D02*
D03*
Y212299D02*
D03*
Y215449D02*
D03*
Y218598D02*
D03*
Y221748D02*
D03*
Y224898D02*
D03*
Y228047D02*
D03*
Y231197D02*
D03*
X388898D02*
D03*
Y228047D02*
D03*
Y224898D02*
D03*
Y221748D02*
D03*
Y218598D02*
D03*
Y215449D02*
D03*
Y212299D02*
D03*
Y209150D02*
D03*
Y206000D02*
D03*
Y202850D02*
D03*
Y199701D02*
D03*
Y196551D02*
D03*
Y193402D02*
D03*
Y190252D02*
D03*
Y187102D02*
D03*
Y183953D02*
D03*
Y180803D02*
D03*
X376299D02*
D03*
Y183953D02*
D03*
Y187102D02*
D03*
Y190252D02*
D03*
Y221748D02*
D03*
Y224898D02*
D03*
Y228047D02*
D03*
Y231197D02*
D03*
X379449D02*
D03*
Y228047D02*
D03*
Y224898D02*
D03*
Y221748D02*
D03*
Y190252D02*
D03*
Y187102D02*
D03*
Y183953D02*
D03*
Y180803D02*
D03*
X373150D02*
D03*
Y183953D02*
D03*
Y187102D02*
D03*
Y190252D02*
D03*
Y202850D02*
D03*
Y206000D02*
D03*
Y209150D02*
D03*
Y221748D02*
D03*
Y224898D02*
D03*
Y228047D02*
D03*
Y231197D02*
D03*
X370000D02*
D03*
Y228047D02*
D03*
Y224898D02*
D03*
Y221748D02*
D03*
Y209150D02*
D03*
Y206000D02*
D03*
Y202850D02*
D03*
Y190252D02*
D03*
Y187102D02*
D03*
Y183953D02*
D03*
Y180803D02*
D03*
X395197Y231197D02*
D03*
Y228047D02*
D03*
Y224898D02*
D03*
Y221748D02*
D03*
Y218598D02*
D03*
Y215449D02*
D03*
Y212299D02*
D03*
Y209150D02*
D03*
Y206000D02*
D03*
Y202850D02*
D03*
Y199701D02*
D03*
Y196551D02*
D03*
Y193402D02*
D03*
Y190252D02*
D03*
Y187102D02*
D03*
Y183953D02*
D03*
Y180803D02*
D03*
X385748Y193402D02*
D03*
X344803Y180803D02*
D03*
D24*
X247008Y108126D02*
D03*
Y123874D02*
D03*
X272992Y108126D02*
D03*
Y123874D02*
D03*
D25*
Y116000D02*
D03*
D26*
X188000Y336260D02*
D03*
Y343740D02*
D03*
X429500Y344803D02*
D03*
Y352284D02*
D03*
M02*
