%FSLAX25Y25*%
%MOIN*%
G70*
G01*
G75*
G04 Layer_Physical_Order=2*
G04 Layer_Color=14402453*
%ADD10R,0.03543X0.01969*%
%ADD11R,0.05512X0.04724*%
%ADD12R,0.05906X0.05118*%
%ADD13R,0.02362X0.05906*%
%ADD14R,0.05118X0.07087*%
%ADD15R,0.07087X0.05118*%
%ADD16R,0.04724X0.05512*%
%ADD17R,0.02756X0.01575*%
%ADD18R,0.05118X0.05906*%
%ADD19R,0.02165X0.05709*%
%ADD20R,0.21654X0.07874*%
%ADD21O,0.06693X0.01181*%
%ADD22O,0.00984X0.06102*%
%ADD23O,0.06102X0.00984*%
%ADD24O,0.08661X0.02362*%
%ADD25C,0.01400*%
%ADD26O,0.02165X0.05906*%
%ADD27R,0.01969X0.03543*%
%ADD28R,0.11811X0.06299*%
%ADD29R,0.24410X0.22835*%
%ADD30R,0.05512X0.07087*%
%ADD31R,0.04724X0.07087*%
%ADD32R,0.07087X0.03150*%
%ADD33C,0.01000*%
%ADD34C,0.00500*%
%ADD35C,0.02000*%
%ADD36C,0.00300*%
%ADD37C,0.00787*%
%ADD38R,0.05906X0.05906*%
%ADD39C,0.05906*%
%ADD40O,0.10000X0.05000*%
%ADD41C,0.07500*%
%ADD42C,0.06000*%
%ADD43C,0.08700*%
%ADD44C,0.07874*%
%ADD45C,0.02000*%
%ADD46C,0.04000*%
%ADD47C,0.03000*%
%ADD48C,0.12500*%
%ADD49C,0.04000*%
%ADD50C,0.05943*%
G04:AMPARAMS|DCode=51|XSize=75.433mil|YSize=75.433mil|CornerRadius=0mil|HoleSize=0mil|Usage=FLASHONLY|Rotation=0.000|XOffset=0mil|YOffset=0mil|HoleType=Round|Shape=Relief|Width=8mil|Gap=10mil|Entries=4|*
%AMTHD51*
7,0,0,0.07543,0.05543,0.00800,45*
%
%ADD51THD51*%
%ADD52C,0.12400*%
%ADD53C,0.07100*%
%ADD54C,0.05900*%
G04:AMPARAMS|DCode=55|XSize=75mil|YSize=75mil|CornerRadius=0mil|HoleSize=0mil|Usage=FLASHONLY|Rotation=0.000|XOffset=0mil|YOffset=0mil|HoleType=Round|Shape=Relief|Width=8mil|Gap=10mil|Entries=4|*
%AMTHD55*
7,0,0,0.07500,0.05500,0.00800,45*
%
%ADD55THD55*%
%ADD56C,0.07400*%
%ADD57C,0.15200*%
%ADD58C,0.08600*%
G04:AMPARAMS|DCode=59|XSize=90mil|YSize=90mil|CornerRadius=0mil|HoleSize=0mil|Usage=FLASHONLY|Rotation=0.000|XOffset=0mil|YOffset=0mil|HoleType=Round|Shape=Relief|Width=8mil|Gap=10mil|Entries=4|*
%AMTHD59*
7,0,0,0.09000,0.07000,0.00800,45*
%
%ADD59THD59*%
%ADD60C,0.03400*%
%ADD61C,0.06400*%
G04:AMPARAMS|DCode=62|XSize=50mil|YSize=50mil|CornerRadius=0mil|HoleSize=0mil|Usage=FLASHONLY|Rotation=0.000|XOffset=0mil|YOffset=0mil|HoleType=Round|Shape=Relief|Width=8mil|Gap=10mil|Entries=4|*
%AMTHD62*
7,0,0,0.05000,0.03000,0.00800,45*
%
%ADD62THD62*%
G04:AMPARAMS|DCode=63|XSize=56mil|YSize=56mil|CornerRadius=0mil|HoleSize=0mil|Usage=FLASHONLY|Rotation=0.000|XOffset=0mil|YOffset=0mil|HoleType=Round|Shape=Relief|Width=8mil|Gap=10mil|Entries=4|*
%AMTHD63*
7,0,0,0.05600,0.03600,0.00800,45*
%
%ADD63THD63*%
%ADD64C,0.14900*%
G36*
X386512Y312355D02*
X402887D01*
Y295730D01*
X356000D01*
Y312263D01*
X336500D01*
Y328275D01*
X386512D01*
Y312355D01*
D02*
G37*
%LPC*%
G36*
X390587Y306705D02*
X390438D01*
X390125Y306692D01*
X389838Y306655D01*
X389550Y306605D01*
X389300Y306530D01*
X389050Y306442D01*
X388825Y306355D01*
X388625Y306255D01*
X388438Y306155D01*
X388275Y306042D01*
X388125Y305942D01*
X388000Y305855D01*
X387900Y305767D01*
X387812Y305692D01*
X387762Y305642D01*
X387725Y305605D01*
X387713Y305592D01*
X387538Y305380D01*
X387375Y305142D01*
X387238Y304905D01*
X387125Y304655D01*
X387025Y304405D01*
X386950Y304167D01*
X386875Y303917D01*
X386825Y303692D01*
X386788Y303467D01*
X386750Y303267D01*
X386737Y303080D01*
X386713Y302930D01*
Y302792D01*
X386700Y302705D01*
Y302642D01*
Y302617D01*
Y297917D01*
X389937D01*
Y301992D01*
X389950Y302230D01*
X389975Y302442D01*
X390013Y302617D01*
X390075Y302767D01*
X390138Y302905D01*
X390212Y303017D01*
X390300Y303105D01*
X390375Y303180D01*
X390462Y303230D01*
X390538Y303267D01*
X390675Y303317D01*
X390738Y303330D01*
X390775Y303342D01*
X390812D01*
X390913Y303330D01*
X391025Y303317D01*
X391125Y303280D01*
X391225Y303242D01*
X391300Y303205D01*
X391363Y303180D01*
X391412Y303155D01*
X391425Y303142D01*
Y306592D01*
X391213Y306630D01*
X391013Y306655D01*
X390850Y306680D01*
X390700Y306692D01*
X390587Y306705D01*
D02*
G37*
G36*
X366525Y306692D02*
X366450D01*
X366213Y306680D01*
X365975Y306642D01*
X365738Y306580D01*
X365512Y306505D01*
X365300Y306417D01*
X365088Y306305D01*
X364887Y306205D01*
X364700Y306092D01*
X364538Y305967D01*
X364375Y305867D01*
X364250Y305767D01*
X364125Y305667D01*
X364037Y305592D01*
X363975Y305530D01*
X363925Y305492D01*
X363913Y305480D01*
X363700Y305692D01*
X363475Y305880D01*
X363250Y306042D01*
X363025Y306180D01*
X362812Y306305D01*
X362600Y306392D01*
X362387Y306480D01*
X362200Y306542D01*
X362013Y306592D01*
X361850Y306630D01*
X361700Y306655D01*
X361575Y306680D01*
X361475D01*
X361400Y306692D01*
X361337D01*
X361087Y306680D01*
X360838Y306655D01*
X360600Y306592D01*
X360387Y306530D01*
X360175Y306455D01*
X359975Y306367D01*
X359800Y306280D01*
X359637Y306180D01*
X359488Y306080D01*
X359363Y305992D01*
X359250Y305905D01*
X359150Y305830D01*
X359075Y305767D01*
X359025Y305717D01*
X358987Y305680D01*
X358975Y305667D01*
X358800Y305467D01*
X358650Y305267D01*
X358525Y305067D01*
X358413Y304855D01*
X358313Y304642D01*
X358238Y304442D01*
X358175Y304242D01*
X358125Y304055D01*
X358087Y303880D01*
X358050Y303717D01*
X358025Y303567D01*
X358013Y303442D01*
Y303342D01*
X358000Y303267D01*
Y303217D01*
Y303205D01*
Y297917D01*
X361238D01*
Y302542D01*
X361250Y302717D01*
X361262Y302855D01*
X361287Y302992D01*
X361325Y303105D01*
X361363Y303192D01*
X361400Y303267D01*
X361450Y303330D01*
X361500Y303380D01*
X361600Y303455D01*
X361675Y303492D01*
X361737Y303505D01*
X361762D01*
X361862Y303492D01*
X361950Y303467D01*
X362013Y303442D01*
X362075Y303405D01*
X362112Y303355D01*
X362138Y303330D01*
X362162Y303305D01*
Y303292D01*
X362200Y303205D01*
X362238Y303092D01*
X362275Y302842D01*
X362287Y302730D01*
Y302642D01*
Y302580D01*
Y302555D01*
Y297917D01*
X365525D01*
Y302542D01*
X365538Y302717D01*
X365550Y302855D01*
X365575Y302992D01*
X365613Y303105D01*
X365650Y303192D01*
X365700Y303267D01*
X365750Y303330D01*
X365800Y303380D01*
X365887Y303455D01*
X365975Y303492D01*
X366038Y303505D01*
X366062D01*
X366162Y303492D01*
X366250Y303467D01*
X366313Y303442D01*
X366375Y303405D01*
X366412Y303355D01*
X366438Y303330D01*
X366462Y303305D01*
Y303292D01*
X366500Y303205D01*
X366525Y303092D01*
X366563Y302842D01*
X366575Y302730D01*
Y302642D01*
Y302580D01*
Y302555D01*
Y297917D01*
X369812D01*
Y302842D01*
X369800Y303167D01*
X369775Y303455D01*
X369738Y303742D01*
X369688Y304005D01*
X369637Y304242D01*
X369563Y304455D01*
X369500Y304655D01*
X369425Y304842D01*
X369350Y304992D01*
X369287Y305130D01*
X369213Y305255D01*
X369163Y305342D01*
X369112Y305417D01*
X369075Y305480D01*
X369050Y305505D01*
X369038Y305517D01*
X368850Y305730D01*
X368650Y305905D01*
X368438Y306067D01*
X368225Y306192D01*
X368000Y306305D01*
X367788Y306405D01*
X367575Y306480D01*
X367375Y306542D01*
X367188Y306592D01*
X367013Y306630D01*
X366850Y306655D01*
X366712Y306680D01*
X366600D01*
X366525Y306692D01*
D02*
G37*
G36*
X380912Y306705D02*
X380837D01*
X380500Y306692D01*
X380175Y306655D01*
X379862Y306580D01*
X379562Y306505D01*
X379288Y306405D01*
X379025Y306292D01*
X378775Y306180D01*
X378562Y306055D01*
X378362Y305930D01*
X378175Y305817D01*
X378025Y305705D01*
X377900Y305605D01*
X377800Y305530D01*
X377725Y305467D01*
X377675Y305417D01*
X377662Y305405D01*
X377437Y305155D01*
X377225Y304892D01*
X377050Y304630D01*
X376900Y304367D01*
X376775Y304105D01*
X376675Y303842D01*
X376588Y303592D01*
X376513Y303355D01*
X376463Y303130D01*
X376425Y302930D01*
X376388Y302742D01*
X376375Y302580D01*
X376362Y302455D01*
X376350Y302367D01*
Y302305D01*
Y302280D01*
X376362Y301930D01*
X376413Y301592D01*
X376475Y301267D01*
X376550Y300967D01*
X376650Y300680D01*
X376763Y300417D01*
X376875Y300167D01*
X377000Y299942D01*
X377125Y299742D01*
X377238Y299567D01*
X377350Y299405D01*
X377450Y299280D01*
X377525Y299180D01*
X377600Y299105D01*
X377638Y299055D01*
X377650Y299042D01*
X377900Y298817D01*
X378163Y298605D01*
X378437Y298430D01*
X378700Y298280D01*
X378975Y298155D01*
X379238Y298055D01*
X379500Y297967D01*
X379750Y297892D01*
X379975Y297842D01*
X380188Y297805D01*
X380387Y297767D01*
X380550Y297755D01*
X380675Y297742D01*
X380775Y297730D01*
X380862D01*
X381188Y297742D01*
X381512Y297780D01*
X381813Y297842D01*
X382087Y297917D01*
X382363Y298005D01*
X382612Y298105D01*
X382838Y298217D01*
X383050Y298330D01*
X383238Y298442D01*
X383413Y298555D01*
X383550Y298655D01*
X383675Y298742D01*
X383775Y298817D01*
X383838Y298880D01*
X383888Y298917D01*
X383900Y298930D01*
X384125Y299167D01*
X384325Y299405D01*
X384488Y299655D01*
X384650Y299917D01*
X384775Y300167D01*
X384888Y300430D01*
X384987Y300680D01*
X385063Y300917D01*
X385125Y301130D01*
X385175Y301342D01*
X385212Y301530D01*
X385250Y301680D01*
X385262Y301817D01*
X385275Y301905D01*
X385287Y301967D01*
Y301992D01*
X382087Y301867D01*
X382025Y301705D01*
X381938Y301555D01*
X381850Y301430D01*
X381763Y301317D01*
X381663Y301230D01*
X381575Y301155D01*
X381475Y301092D01*
X381375Y301042D01*
X381200Y300967D01*
X381063Y300930D01*
X381000D01*
X380962Y300917D01*
X380925D01*
X380725Y300930D01*
X380538Y300980D01*
X380387Y301042D01*
X380250Y301105D01*
X380137Y301180D01*
X380050Y301230D01*
X380000Y301280D01*
X379988Y301292D01*
X379862Y301442D01*
X379775Y301592D01*
X379713Y301755D01*
X379675Y301905D01*
X379650Y302030D01*
X379625Y302142D01*
Y302205D01*
Y302230D01*
X379638Y302430D01*
X379675Y302605D01*
X379737Y302755D01*
X379800Y302892D01*
X379862Y303005D01*
X379925Y303080D01*
X379962Y303130D01*
X379975Y303142D01*
X380113Y303267D01*
X380262Y303355D01*
X380413Y303430D01*
X380562Y303467D01*
X380687Y303492D01*
X380787Y303517D01*
X381000D01*
X381113Y303492D01*
X381312Y303430D01*
X381500Y303342D01*
X381663Y303242D01*
X381787Y303130D01*
X381875Y303042D01*
X381925Y302980D01*
X381950Y302967D01*
Y302955D01*
X385212Y303080D01*
X385150Y303367D01*
X385063Y303642D01*
X384963Y303905D01*
X384850Y304155D01*
X384725Y304380D01*
X384600Y304592D01*
X384462Y304792D01*
X384337Y304967D01*
X384200Y305130D01*
X384087Y305267D01*
X383975Y305392D01*
X383875Y305492D01*
X383787Y305580D01*
X383725Y305630D01*
X383687Y305667D01*
X383675Y305680D01*
X383437Y305855D01*
X383200Y306017D01*
X382962Y306155D01*
X382713Y306267D01*
X382475Y306367D01*
X382238Y306455D01*
X382013Y306517D01*
X381800Y306580D01*
X381600Y306617D01*
X381413Y306655D01*
X381250Y306680D01*
X381113Y306692D01*
X381000D01*
X380912Y306705D01*
D02*
G37*
G36*
X396525D02*
X396438D01*
X396075Y306692D01*
X395738Y306655D01*
X395412Y306580D01*
X395100Y306505D01*
X394812Y306405D01*
X394550Y306292D01*
X394300Y306180D01*
X394075Y306055D01*
X393863Y305930D01*
X393688Y305817D01*
X393525Y305705D01*
X393400Y305605D01*
X393300Y305530D01*
X393225Y305467D01*
X393175Y305417D01*
X393162Y305405D01*
X392925Y305155D01*
X392725Y304905D01*
X392550Y304630D01*
X392400Y304367D01*
X392263Y304092D01*
X392162Y303830D01*
X392075Y303580D01*
X392000Y303330D01*
X391950Y303105D01*
X391913Y302892D01*
X391875Y302705D01*
X391863Y302542D01*
X391850Y302417D01*
X391838Y302317D01*
Y302255D01*
Y302230D01*
X391850Y301892D01*
X391900Y301555D01*
X391963Y301242D01*
X392050Y300942D01*
X392150Y300667D01*
X392263Y300405D01*
X392375Y300167D01*
X392500Y299942D01*
X392625Y299742D01*
X392738Y299567D01*
X392850Y299417D01*
X392950Y299292D01*
X393038Y299192D01*
X393100Y299117D01*
X393150Y299067D01*
X393162Y299055D01*
X393412Y298830D01*
X393675Y298617D01*
X393950Y298442D01*
X394225Y298292D01*
X394488Y298167D01*
X394762Y298067D01*
X395012Y297980D01*
X395263Y297905D01*
X395487Y297855D01*
X395700Y297817D01*
X395887Y297780D01*
X396050Y297767D01*
X396175Y297755D01*
X396275Y297742D01*
X396362D01*
X396712Y297755D01*
X397038Y297805D01*
X397350Y297867D01*
X397650Y297942D01*
X397937Y298042D01*
X398200Y298155D01*
X398438Y298267D01*
X398662Y298392D01*
X398863Y298517D01*
X399050Y298630D01*
X399200Y298742D01*
X399325Y298842D01*
X399425Y298917D01*
X399500Y298992D01*
X399550Y299030D01*
X399563Y299042D01*
X399800Y299292D01*
X400000Y299555D01*
X400175Y299830D01*
X400325Y300092D01*
X400462Y300367D01*
X400562Y300630D01*
X400650Y300880D01*
X400725Y301130D01*
X400775Y301355D01*
X400812Y301567D01*
X400850Y301755D01*
X400863Y301917D01*
X400875Y302042D01*
X400887Y302142D01*
Y302205D01*
Y302230D01*
X400875Y302567D01*
X400838Y302892D01*
X400763Y303205D01*
X400688Y303492D01*
X400588Y303780D01*
X400475Y304030D01*
X400350Y304280D01*
X400238Y304492D01*
X400112Y304692D01*
X399988Y304867D01*
X399875Y305017D01*
X399775Y305142D01*
X399700Y305242D01*
X399638Y305317D01*
X399587Y305367D01*
X399575Y305380D01*
X399325Y305617D01*
X399062Y305817D01*
X398800Y305992D01*
X398537Y306142D01*
X398263Y306280D01*
X398000Y306380D01*
X397750Y306467D01*
X397513Y306542D01*
X397288Y306592D01*
X397088Y306630D01*
X396900Y306667D01*
X396738Y306680D01*
X396613Y306692D01*
X396525Y306705D01*
D02*
G37*
G36*
X374925Y306517D02*
X371688D01*
Y297917D01*
X374925D01*
Y306517D01*
D02*
G37*
G36*
X373375Y310355D02*
X373312D01*
X373075Y310330D01*
X372850Y310280D01*
X372662Y310205D01*
X372500Y310130D01*
X372362Y310042D01*
X372263Y309967D01*
X372200Y309917D01*
X372175Y309892D01*
X372012Y309717D01*
X371900Y309530D01*
X371813Y309342D01*
X371762Y309167D01*
X371725Y309017D01*
X371712Y308905D01*
X371700Y308855D01*
Y308817D01*
Y308805D01*
Y308792D01*
X371725Y308555D01*
X371775Y308342D01*
X371837Y308155D01*
X371925Y307992D01*
X372012Y307867D01*
X372075Y307767D01*
X372125Y307717D01*
X372150Y307692D01*
X372325Y307555D01*
X372525Y307442D01*
X372712Y307367D01*
X372900Y307317D01*
X373062Y307292D01*
X373200Y307280D01*
X373250Y307267D01*
X373312D01*
X373563Y307280D01*
X373800Y307330D01*
X374000Y307405D01*
X374163Y307480D01*
X374300Y307555D01*
X374400Y307630D01*
X374450Y307680D01*
X374475Y307692D01*
X374625Y307867D01*
X374738Y308055D01*
X374825Y308230D01*
X374875Y308405D01*
X374913Y308555D01*
X374925Y308680D01*
X374938Y308730D01*
Y308767D01*
Y308780D01*
Y308792D01*
X374913Y309017D01*
X374863Y309230D01*
X374787Y309417D01*
X374700Y309580D01*
X374600Y309717D01*
X374525Y309805D01*
X374475Y309867D01*
X374450Y309892D01*
X374262Y310042D01*
X374075Y310155D01*
X373887Y310242D01*
X373700Y310292D01*
X373550Y310330D01*
X373425Y310342D01*
X373375Y310355D01*
D02*
G37*
G36*
X342388Y323288D02*
X342237D01*
X341925Y323275D01*
X341637Y323237D01*
X341350Y323187D01*
X341100Y323113D01*
X340850Y323025D01*
X340625Y322937D01*
X340425Y322837D01*
X340237Y322738D01*
X340075Y322625D01*
X339925Y322525D01*
X339800Y322438D01*
X339700Y322350D01*
X339613Y322275D01*
X339563Y322225D01*
X339525Y322187D01*
X339512Y322175D01*
X339337Y321962D01*
X339175Y321725D01*
X339037Y321487D01*
X338925Y321237D01*
X338825Y320988D01*
X338750Y320750D01*
X338675Y320500D01*
X338625Y320275D01*
X338587Y320050D01*
X338550Y319850D01*
X338538Y319662D01*
X338512Y319513D01*
Y319375D01*
X338500Y319287D01*
Y319225D01*
Y319200D01*
Y314500D01*
X341738D01*
Y318575D01*
X341750Y318812D01*
X341775Y319025D01*
X341812Y319200D01*
X341875Y319350D01*
X341937Y319488D01*
X342013Y319600D01*
X342100Y319688D01*
X342175Y319762D01*
X342263Y319812D01*
X342337Y319850D01*
X342475Y319900D01*
X342537Y319913D01*
X342575Y319925D01*
X342613D01*
X342712Y319913D01*
X342825Y319900D01*
X342925Y319863D01*
X343025Y319825D01*
X343100Y319788D01*
X343162Y319762D01*
X343213Y319738D01*
X343225Y319725D01*
Y323175D01*
X343012Y323213D01*
X342812Y323237D01*
X342650Y323263D01*
X342500Y323275D01*
X342388Y323288D01*
D02*
G37*
G36*
X384512Y326275D02*
X381275D01*
Y314500D01*
X384512D01*
Y326275D01*
D02*
G37*
G36*
X365100Y323288D02*
X365025D01*
X364687Y323275D01*
X364363Y323237D01*
X364050Y323163D01*
X363750Y323088D01*
X363475Y322988D01*
X363212Y322875D01*
X362963Y322762D01*
X362750Y322638D01*
X362550Y322513D01*
X362363Y322400D01*
X362212Y322288D01*
X362087Y322187D01*
X361987Y322112D01*
X361912Y322050D01*
X361862Y322000D01*
X361850Y321988D01*
X361625Y321738D01*
X361413Y321475D01*
X361238Y321213D01*
X361087Y320950D01*
X360963Y320688D01*
X360862Y320425D01*
X360775Y320175D01*
X360700Y319937D01*
X360650Y319712D01*
X360613Y319513D01*
X360575Y319325D01*
X360562Y319163D01*
X360550Y319038D01*
X360538Y318950D01*
Y318887D01*
Y318863D01*
X360550Y318513D01*
X360600Y318175D01*
X360663Y317850D01*
X360737Y317550D01*
X360838Y317263D01*
X360950Y317000D01*
X361063Y316750D01*
X361188Y316525D01*
X361313Y316325D01*
X361425Y316150D01*
X361538Y315987D01*
X361637Y315862D01*
X361713Y315762D01*
X361788Y315687D01*
X361825Y315637D01*
X361838Y315625D01*
X362087Y315400D01*
X362350Y315188D01*
X362625Y315013D01*
X362888Y314862D01*
X363162Y314738D01*
X363425Y314637D01*
X363687Y314550D01*
X363937Y314475D01*
X364162Y314425D01*
X364375Y314387D01*
X364575Y314350D01*
X364738Y314337D01*
X364862Y314325D01*
X364963Y314313D01*
X365050D01*
X365375Y314325D01*
X365700Y314363D01*
X366000Y314425D01*
X366275Y314500D01*
X366550Y314587D01*
X366800Y314687D01*
X367025Y314800D01*
X367237Y314913D01*
X367425Y315025D01*
X367600Y315138D01*
X367738Y315237D01*
X367863Y315325D01*
X367963Y315400D01*
X368025Y315462D01*
X368075Y315500D01*
X368088Y315512D01*
X368313Y315750D01*
X368513Y315987D01*
X368675Y316237D01*
X368837Y316500D01*
X368963Y316750D01*
X369075Y317013D01*
X369175Y317263D01*
X369250Y317500D01*
X369313Y317712D01*
X369362Y317925D01*
X369400Y318112D01*
X369438Y318263D01*
X369450Y318400D01*
X369462Y318488D01*
X369475Y318550D01*
Y318575D01*
X366275Y318450D01*
X366213Y318287D01*
X366125Y318138D01*
X366038Y318012D01*
X365950Y317900D01*
X365850Y317812D01*
X365762Y317738D01*
X365663Y317675D01*
X365563Y317625D01*
X365388Y317550D01*
X365250Y317512D01*
X365188D01*
X365150Y317500D01*
X365112D01*
X364913Y317512D01*
X364725Y317563D01*
X364575Y317625D01*
X364438Y317688D01*
X364325Y317762D01*
X364237Y317812D01*
X364188Y317863D01*
X364175Y317875D01*
X364050Y318025D01*
X363963Y318175D01*
X363900Y318337D01*
X363862Y318488D01*
X363838Y318613D01*
X363812Y318725D01*
Y318788D01*
Y318812D01*
X363825Y319012D01*
X363862Y319187D01*
X363925Y319338D01*
X363987Y319475D01*
X364050Y319587D01*
X364112Y319662D01*
X364150Y319712D01*
X364162Y319725D01*
X364300Y319850D01*
X364450Y319937D01*
X364600Y320012D01*
X364750Y320050D01*
X364875Y320075D01*
X364975Y320100D01*
X365188D01*
X365300Y320075D01*
X365500Y320012D01*
X365687Y319925D01*
X365850Y319825D01*
X365975Y319712D01*
X366062Y319625D01*
X366112Y319563D01*
X366138Y319550D01*
Y319537D01*
X369400Y319662D01*
X369338Y319950D01*
X369250Y320225D01*
X369150Y320487D01*
X369038Y320738D01*
X368913Y320963D01*
X368788Y321175D01*
X368650Y321375D01*
X368525Y321550D01*
X368388Y321712D01*
X368275Y321850D01*
X368162Y321975D01*
X368062Y322075D01*
X367975Y322163D01*
X367913Y322213D01*
X367875Y322250D01*
X367863Y322263D01*
X367625Y322438D01*
X367388Y322600D01*
X367150Y322738D01*
X366900Y322850D01*
X366663Y322950D01*
X366425Y323038D01*
X366200Y323100D01*
X365987Y323163D01*
X365788Y323200D01*
X365600Y323237D01*
X365438Y323263D01*
X365300Y323275D01*
X365188D01*
X365100Y323288D01*
D02*
G37*
G36*
X359950Y322988D02*
X358975D01*
X358663Y322975D01*
X358375Y322950D01*
X358100Y322900D01*
X357850Y322837D01*
X357612Y322775D01*
X357400Y322688D01*
X357200Y322613D01*
X357025Y322525D01*
X356862Y322438D01*
X356725Y322350D01*
X356612Y322263D01*
X356512Y322200D01*
X356437Y322137D01*
X356387Y322088D01*
X356350Y322062D01*
X356337Y322050D01*
X356150Y321850D01*
X355988Y321662D01*
X355862Y321487D01*
X355775Y321325D01*
X355700Y321187D01*
X355650Y321075D01*
X355625Y321012D01*
X355612Y321000D01*
Y320988D01*
X355588Y320875D01*
X355550Y320750D01*
X355500Y320475D01*
X355463Y320163D01*
X355425Y319850D01*
X355400Y319575D01*
Y319450D01*
X355387Y319338D01*
Y319250D01*
X355375Y319187D01*
Y319138D01*
Y319125D01*
X355350Y318837D01*
X355300Y318600D01*
X355225Y318412D01*
X355163Y318250D01*
X355100Y318138D01*
X355037Y318050D01*
X355000Y318000D01*
X354988Y317987D01*
X354837Y317887D01*
X354675Y317812D01*
X354487Y317750D01*
X354300Y317712D01*
X354137Y317688D01*
X354000Y317675D01*
X353737D01*
Y314263D01*
X354175D01*
X354475Y314275D01*
X354763Y314287D01*
X355037Y314313D01*
X355288Y314350D01*
X355512Y314387D01*
X355725Y314425D01*
X355912Y314475D01*
X356087Y314525D01*
X356250Y314575D01*
X356375Y314625D01*
X356487Y314663D01*
X356588Y314700D01*
X356663Y314738D01*
X356713Y314762D01*
X356737Y314788D01*
X356750D01*
X357050Y315000D01*
X357325Y315237D01*
X357562Y315500D01*
X357775Y315775D01*
X357962Y316062D01*
X358113Y316350D01*
X358250Y316650D01*
X358363Y316937D01*
X358450Y317213D01*
X358525Y317462D01*
X358588Y317700D01*
X358625Y317913D01*
X358650Y318075D01*
X358675Y318200D01*
Y318250D01*
X358687Y318287D01*
Y318300D01*
Y318313D01*
X358725Y318575D01*
X358763Y318788D01*
X358812Y318963D01*
X358862Y319100D01*
X358912Y319200D01*
X358962Y319263D01*
X358987Y319300D01*
X359000Y319313D01*
X359113Y319400D01*
X359262Y319462D01*
X359413Y319513D01*
X359575Y319537D01*
X359725Y319563D01*
X359838Y319575D01*
X359950D01*
Y322988D01*
D02*
G37*
G36*
X348263Y323275D02*
X348175D01*
X347825Y323263D01*
X347500Y323225D01*
X347187Y323150D01*
X346887Y323075D01*
X346613Y322975D01*
X346350Y322863D01*
X346100Y322738D01*
X345887Y322625D01*
X345688Y322500D01*
X345513Y322375D01*
X345362Y322263D01*
X345237Y322163D01*
X345138Y322088D01*
X345062Y322025D01*
X345012Y321975D01*
X345000Y321962D01*
X344775Y321712D01*
X344575Y321450D01*
X344400Y321187D01*
X344250Y320913D01*
X344125Y320650D01*
X344012Y320388D01*
X343937Y320138D01*
X343863Y319887D01*
X343812Y319662D01*
X343775Y319450D01*
X343738Y319263D01*
X343725Y319100D01*
X343712Y318975D01*
X343700Y318875D01*
Y318812D01*
Y318788D01*
X343712Y318438D01*
X343750Y318100D01*
X343825Y317775D01*
X343900Y317475D01*
X344000Y317188D01*
X344112Y316925D01*
X344225Y316687D01*
X344350Y316462D01*
X344462Y316263D01*
X344575Y316088D01*
X344688Y315937D01*
X344788Y315812D01*
X344875Y315712D01*
X344937Y315650D01*
X344975Y315600D01*
X344988Y315587D01*
X345237Y315363D01*
X345500Y315162D01*
X345762Y315000D01*
X346038Y314850D01*
X346312Y314725D01*
X346575Y314625D01*
X346837Y314538D01*
X347088Y314475D01*
X347325Y314425D01*
X347537Y314375D01*
X347738Y314350D01*
X347900Y314337D01*
X348038Y314325D01*
X348137Y314313D01*
X348225D01*
X348475Y314325D01*
X348600Y314337D01*
X348712Y314363D01*
X348813Y314375D01*
X348887Y314387D01*
X348938Y314400D01*
X348950D01*
Y317725D01*
X348813Y317650D01*
X348675Y317600D01*
X348537Y317550D01*
X348425Y317525D01*
X348312Y317512D01*
X348237Y317500D01*
X348163D01*
X347975Y317512D01*
X347813Y317550D01*
X347662Y317613D01*
X347537Y317675D01*
X347438Y317725D01*
X347362Y317788D01*
X347312Y317825D01*
X347300Y317838D01*
X347187Y317975D01*
X347112Y318125D01*
X347050Y318263D01*
X347012Y318412D01*
X346988Y318525D01*
X346975Y318625D01*
Y318688D01*
Y318712D01*
X346988Y318900D01*
X347038Y319062D01*
X347088Y319225D01*
X347163Y319350D01*
X347225Y319450D01*
X347288Y319537D01*
X347325Y319587D01*
X347338Y319600D01*
X347487Y319725D01*
X347638Y319812D01*
X347775Y319887D01*
X347913Y319925D01*
X348038Y319950D01*
X348125Y319975D01*
X348213D01*
X348412Y319963D01*
X348587Y319913D01*
X348738Y319850D01*
X348863Y319775D01*
X348962Y319688D01*
X349038Y319625D01*
X349088Y319575D01*
X349100Y319563D01*
X349213Y319400D01*
X349300Y319225D01*
X349350Y319038D01*
X349400Y318875D01*
X349425Y318712D01*
X349437Y318587D01*
Y318537D01*
Y318500D01*
Y318488D01*
Y318475D01*
Y314500D01*
X352675D01*
Y318712D01*
X352662Y319100D01*
X352625Y319462D01*
X352562Y319800D01*
X352487Y320125D01*
X352400Y320425D01*
X352288Y320700D01*
X352187Y320950D01*
X352075Y321175D01*
X351950Y321375D01*
X351850Y321550D01*
X351750Y321700D01*
X351650Y321825D01*
X351575Y321925D01*
X351513Y321988D01*
X351475Y322038D01*
X351463Y322050D01*
X351225Y322263D01*
X350975Y322450D01*
X350712Y322613D01*
X350437Y322762D01*
X350163Y322875D01*
X349900Y322975D01*
X349625Y323062D01*
X349375Y323125D01*
X349125Y323175D01*
X348900Y323213D01*
X348700Y323237D01*
X348525Y323263D01*
X348375D01*
X348263Y323275D01*
D02*
G37*
G36*
X374988D02*
X374900D01*
X374550Y323263D01*
X374225Y323225D01*
X373913Y323150D01*
X373612Y323075D01*
X373338Y322975D01*
X373075Y322863D01*
X372825Y322738D01*
X372613Y322625D01*
X372412Y322500D01*
X372237Y322375D01*
X372088Y322263D01*
X371962Y322163D01*
X371863Y322088D01*
X371788Y322025D01*
X371738Y321975D01*
X371725Y321962D01*
X371500Y321712D01*
X371300Y321450D01*
X371125Y321187D01*
X370975Y320913D01*
X370850Y320650D01*
X370738Y320388D01*
X370662Y320138D01*
X370587Y319887D01*
X370537Y319662D01*
X370500Y319450D01*
X370462Y319263D01*
X370450Y319100D01*
X370438Y318975D01*
X370425Y318875D01*
Y318812D01*
Y318788D01*
X370438Y318438D01*
X370475Y318100D01*
X370550Y317775D01*
X370625Y317475D01*
X370725Y317188D01*
X370837Y316925D01*
X370950Y316687D01*
X371075Y316462D01*
X371187Y316263D01*
X371300Y316088D01*
X371412Y315937D01*
X371513Y315812D01*
X371600Y315712D01*
X371662Y315650D01*
X371700Y315600D01*
X371712Y315587D01*
X371962Y315363D01*
X372225Y315162D01*
X372487Y315000D01*
X372762Y314850D01*
X373038Y314725D01*
X373300Y314625D01*
X373563Y314538D01*
X373813Y314475D01*
X374050Y314425D01*
X374262Y314375D01*
X374463Y314350D01*
X374625Y314337D01*
X374763Y314325D01*
X374863Y314313D01*
X374950D01*
X375200Y314325D01*
X375325Y314337D01*
X375437Y314363D01*
X375537Y314375D01*
X375612Y314387D01*
X375662Y314400D01*
X375675D01*
Y317725D01*
X375537Y317650D01*
X375400Y317600D01*
X375262Y317550D01*
X375150Y317525D01*
X375038Y317512D01*
X374962Y317500D01*
X374887D01*
X374700Y317512D01*
X374537Y317550D01*
X374388Y317613D01*
X374262Y317675D01*
X374163Y317725D01*
X374088Y317788D01*
X374038Y317825D01*
X374025Y317838D01*
X373913Y317975D01*
X373837Y318125D01*
X373775Y318263D01*
X373738Y318412D01*
X373712Y318525D01*
X373700Y318625D01*
Y318688D01*
Y318712D01*
X373712Y318900D01*
X373762Y319062D01*
X373813Y319225D01*
X373887Y319350D01*
X373950Y319450D01*
X374012Y319537D01*
X374050Y319587D01*
X374062Y319600D01*
X374213Y319725D01*
X374362Y319812D01*
X374500Y319887D01*
X374638Y319925D01*
X374763Y319950D01*
X374850Y319975D01*
X374938D01*
X375137Y319963D01*
X375312Y319913D01*
X375463Y319850D01*
X375588Y319775D01*
X375688Y319688D01*
X375763Y319625D01*
X375813Y319575D01*
X375825Y319563D01*
X375938Y319400D01*
X376025Y319225D01*
X376075Y319038D01*
X376125Y318875D01*
X376150Y318712D01*
X376163Y318587D01*
Y318537D01*
Y318500D01*
Y318488D01*
Y318475D01*
Y314500D01*
X379400D01*
Y318712D01*
X379387Y319100D01*
X379350Y319462D01*
X379288Y319800D01*
X379212Y320125D01*
X379125Y320425D01*
X379012Y320700D01*
X378912Y320950D01*
X378800Y321175D01*
X378675Y321375D01*
X378575Y321550D01*
X378475Y321700D01*
X378375Y321825D01*
X378300Y321925D01*
X378238Y321988D01*
X378200Y322038D01*
X378187Y322050D01*
X377950Y322263D01*
X377700Y322450D01*
X377437Y322613D01*
X377163Y322762D01*
X376887Y322875D01*
X376625Y322975D01*
X376350Y323062D01*
X376100Y323125D01*
X375850Y323175D01*
X375625Y323213D01*
X375425Y323237D01*
X375250Y323263D01*
X375100D01*
X374988Y323275D01*
D02*
G37*
%LPD*%
G36*
X396537Y303505D02*
X396712Y303455D01*
X396863Y303392D01*
X396988Y303330D01*
X397100Y303255D01*
X397175Y303192D01*
X397225Y303142D01*
X397237Y303130D01*
X397362Y302980D01*
X397450Y302830D01*
X397525Y302680D01*
X397563Y302530D01*
X397587Y302405D01*
X397613Y302305D01*
Y302242D01*
Y302230D01*
Y302217D01*
X397600Y302030D01*
X397550Y301842D01*
X397500Y301692D01*
X397425Y301555D01*
X397362Y301455D01*
X397300Y301367D01*
X397250Y301317D01*
X397237Y301305D01*
X397100Y301180D01*
X396950Y301092D01*
X396800Y301017D01*
X396662Y300980D01*
X396537Y300955D01*
X396438Y300942D01*
X396375Y300930D01*
X396350D01*
X396163Y300942D01*
X396000Y300992D01*
X395850Y301055D01*
X395725Y301117D01*
X395613Y301192D01*
X395537Y301242D01*
X395487Y301292D01*
X395475Y301305D01*
X395350Y301455D01*
X395263Y301605D01*
X395200Y301755D01*
X395163Y301905D01*
X395138Y302030D01*
X395112Y302130D01*
Y302192D01*
Y302217D01*
X395125Y302417D01*
X395175Y302592D01*
X395225Y302742D01*
X395300Y302880D01*
X395362Y302980D01*
X395425Y303067D01*
X395462Y303117D01*
X395475Y303130D01*
X395613Y303255D01*
X395762Y303355D01*
X395913Y303417D01*
X396050Y303467D01*
X396175Y303492D01*
X396263Y303517D01*
X396350D01*
X396537Y303505D01*
D02*
G37*
D36*
X335000Y137917D02*
G03*
X347500Y125417I12500J0D01*
G01*
Y335417D02*
G03*
X335000Y322917I0J-12500D01*
G01*
X784000Y355417D02*
X810000Y329417D01*
X614500Y355417D02*
X784000D01*
X594500Y335417D02*
X614500Y355417D01*
X347500Y335417D02*
X594500D01*
X810000Y125417D02*
Y135417D01*
Y285417D02*
X820000Y275417D01*
Y145417D02*
Y275417D01*
X810000Y135417D02*
X820000Y145417D01*
X347500Y125417D02*
X810000D01*
X335000Y137917D02*
Y322917D01*
X810000Y285417D02*
Y329417D01*
D37*
X448260Y249787D02*
X512433D01*
Y303331D01*
X448260D02*
X512433D01*
X448260Y249787D02*
Y303331D01*
D46*
X636457Y163400D02*
D03*
X604500Y165417D02*
D03*
X687500Y204917D02*
D03*
X752000Y171500D02*
D03*
X765500Y170000D02*
D03*
X747250Y170250D02*
D03*
X770000Y171000D02*
D03*
X809500Y216500D02*
D03*
X674000Y190500D02*
D03*
X663500Y203500D02*
D03*
X622000Y211500D02*
D03*
X801500Y289500D02*
D03*
X502500Y197075D02*
D03*
X490750Y200750D02*
D03*
X629000Y221917D02*
D03*
X630500Y217417D02*
D03*
X629500Y174000D02*
D03*
X625000D02*
D03*
X793987Y298430D02*
D03*
X392500Y179417D02*
D03*
X402000Y176417D02*
D03*
X414500Y170917D02*
D03*
X378000Y209917D02*
D03*
X342000Y213917D02*
D03*
X357000D02*
D03*
X341000Y297417D02*
D03*
X442957Y225874D02*
D03*
X481000Y213417D02*
D03*
X409500Y310917D02*
D03*
X433500Y228917D02*
D03*
X450000Y307417D02*
D03*
X482441Y321359D02*
D03*
X483500Y326417D02*
D03*
X467512Y315929D02*
D03*
X514000Y307500D02*
D03*
X463500Y325417D02*
D03*
X429000Y215917D02*
D03*
X447500Y217417D02*
D03*
X457500Y212217D02*
D03*
X446500Y190417D02*
D03*
X428500Y185917D02*
D03*
X431000Y177917D02*
D03*
X425000Y179917D02*
D03*
X434000Y174417D02*
D03*
X349500Y297417D02*
D03*
X759000Y277063D02*
D03*
X759500Y250917D02*
D03*
X758500Y232500D02*
D03*
X727000Y303917D02*
D03*
X687000Y291917D02*
D03*
X734000Y272417D02*
D03*
X790646Y186417D02*
D03*
X796945Y185417D02*
D03*
X769748Y202000D02*
D03*
X754000D02*
D03*
X793500Y139917D02*
D03*
X760299Y159000D02*
D03*
X642000Y210000D02*
D03*
X698500Y166000D02*
D03*
X605000Y175417D02*
D03*
X676500Y171417D02*
D03*
X520000Y246000D02*
D03*
X432000Y306917D02*
D03*
X582000Y171917D02*
D03*
X553000Y194417D02*
D03*
X497500Y166917D02*
D03*
X520000Y164917D02*
D03*
X382500Y188791D02*
D03*
X355500Y201874D02*
D03*
X479500Y157917D02*
D03*
X474000Y174917D02*
D03*
X481500Y207000D02*
D03*
X793000Y288917D02*
D03*
X795000Y309917D02*
D03*
X800000Y305000D02*
D03*
X458500Y167917D02*
D03*
X667500Y221417D02*
D03*
X711500Y277417D02*
D03*
X682500Y279917D02*
D03*
X554500Y270917D02*
D03*
X542000Y254417D02*
D03*
X543500Y258417D02*
D03*
X531000Y191917D02*
D03*
X628500Y206917D02*
D03*
X626500Y201500D02*
D03*
X685500Y268417D02*
D03*
X689500Y271417D02*
D03*
X695500D02*
D03*
X699500Y272917D02*
D03*
X692500Y268417D02*
D03*
X724000Y276917D02*
D03*
X725500Y272417D02*
D03*
X702500Y269917D02*
D03*
X722500Y268917D02*
D03*
X634000Y300917D02*
D03*
X639788Y301705D02*
D03*
X506000Y203000D02*
D03*
X488500Y191417D02*
D03*
X462500Y211417D02*
D03*
X518500Y284500D02*
D03*
X524500Y271417D02*
D03*
X519500Y276917D02*
D03*
X480250Y197167D02*
D03*
X676500Y167000D02*
D03*
X479500Y201417D02*
D03*
X488000Y175500D02*
D03*
X629500Y163000D02*
D03*
X757018Y171482D02*
D03*
X691000Y170417D02*
D03*
X695000Y167917D02*
D03*
X694500Y162917D02*
D03*
X680535Y167383D02*
D03*
X691000Y165167D02*
D03*
X519000Y293917D02*
D03*
X516000Y297000D02*
D03*
X523000Y282417D02*
D03*
X517500Y271917D02*
D03*
X492000Y178000D02*
D03*
X656000Y304417D02*
D03*
X661500Y306417D02*
D03*
X660000Y207417D02*
D03*
X484500Y209917D02*
D03*
X464500Y192917D02*
D03*
X470000Y212417D02*
D03*
X461000Y164417D02*
D03*
X524000Y297917D02*
D03*
X540500Y286417D02*
D03*
X695504Y227413D02*
D03*
X548000Y256917D02*
D03*
X692354Y243772D02*
D03*
X650500Y190000D02*
D03*
X500000Y211417D02*
D03*
X683500Y229417D02*
D03*
X483500Y184417D02*
D03*
X482500Y193917D02*
D03*
X483500Y188417D02*
D03*
X698500Y223296D02*
D03*
X685000Y225417D02*
D03*
X691009Y258226D02*
D03*
X684809D02*
D03*
X542500Y268417D02*
D03*
X731000Y250417D02*
D03*
X551500Y258917D02*
D03*
X684500Y220417D02*
D03*
X539500Y167417D02*
D03*
X549000Y157417D02*
D03*
X561500Y182417D02*
D03*
X561000Y186417D02*
D03*
X565000Y184417D02*
D03*
X564500Y190417D02*
D03*
X706000Y267417D02*
D03*
X701803Y230114D02*
D03*
X736000Y254417D02*
D03*
X790500Y285917D02*
D03*
X780500Y312917D02*
D03*
X789000Y291917D02*
D03*
X790500Y300417D02*
D03*
X787500Y281417D02*
D03*
X620500Y173917D02*
D03*
X738500Y181917D02*
D03*
X523500Y289000D02*
D03*
X736500Y232917D02*
D03*
X708500Y217417D02*
D03*
X787500Y246917D02*
D03*
X654500Y129917D02*
D03*
X571500Y157295D02*
D03*
X598000Y173500D02*
D03*
X543500Y146417D02*
D03*
X515000Y161417D02*
D03*
X474000Y146417D02*
D03*
Y139917D02*
D03*
X355500Y184917D02*
D03*
X528500Y130000D02*
D03*
X504000Y226417D02*
D03*
X450000Y236500D02*
D03*
X487500Y276000D02*
D03*
X428000Y279917D02*
D03*
X521000Y265917D02*
D03*
X518000Y262417D02*
D03*
X792500Y170500D02*
D03*
X785750Y169250D02*
D03*
X767717Y177783D02*
D03*
X763500Y178500D02*
D03*
X732493Y147924D02*
D03*
X690752Y174748D02*
D03*
X689000Y199000D02*
D03*
X663000Y229500D02*
D03*
X658000Y293500D02*
D03*
X653575Y294000D02*
D03*
D49*
X335000Y137917D02*
G03*
X347500Y125417I12500J0D01*
G01*
Y335417D02*
G03*
X335000Y322917I0J-12500D01*
G01*
X347500Y125417D02*
X810000D01*
Y135417D01*
X820000Y145417D01*
Y275417D01*
X810000Y285417D02*
X820000Y275417D01*
X810000Y285417D02*
Y329417D01*
X784000Y355417D02*
X810000Y329417D01*
X614500Y355417D02*
X784000D01*
X594500Y335417D02*
X614500Y355417D01*
X347500Y335417D02*
X594500D01*
X335000Y137917D02*
Y322917D01*
D50*
X705000Y155417D02*
D03*
X715000D02*
D03*
X725000D02*
D03*
X735000D02*
D03*
X745000D02*
D03*
X755000D02*
D03*
X775000D02*
D03*
X620000D02*
D03*
X630000D02*
D03*
X640000D02*
D03*
X650000D02*
D03*
X660000D02*
D03*
X670000D02*
D03*
X680000D02*
D03*
X690000D02*
D03*
X670000Y345417D02*
D03*
X660000D02*
D03*
X650000D02*
D03*
X640000D02*
D03*
X630000D02*
D03*
X620000D02*
D03*
X740000D02*
D03*
X730000D02*
D03*
X720000D02*
D03*
X690000D02*
D03*
X644000Y325417D02*
D03*
X664000D02*
D03*
X674000D02*
D03*
X684000D02*
D03*
X694000D02*
D03*
X704000D02*
D03*
X714000D02*
D03*
X800000D02*
D03*
X790000D02*
D03*
X780000D02*
D03*
X770000D02*
D03*
X760000D02*
D03*
X750000D02*
D03*
X740000D02*
D03*
X730000D02*
D03*
X680000Y135417D02*
D03*
X690000D02*
D03*
X700000D02*
D03*
X730000D02*
D03*
X800000D02*
D03*
X790000D02*
D03*
X780000D02*
D03*
X770000D02*
D03*
X760000D02*
D03*
X750000D02*
D03*
X594000D02*
D03*
X604000D02*
D03*
X614000D02*
D03*
D51*
X765000Y155417D02*
D03*
X710000Y345417D02*
D03*
X700000D02*
D03*
X654000Y325417D02*
D03*
X710000Y135417D02*
D03*
X720000D02*
D03*
X624000D02*
D03*
D52*
X795937Y227417D02*
D03*
X728063D02*
D03*
D53*
X779716D02*
D03*
X744283D02*
D03*
D54*
X579811Y136559D02*
D03*
Y154276D02*
D03*
X556189Y136559D02*
D03*
X402000Y259417D02*
D03*
Y267417D02*
D03*
Y275417D02*
D03*
X412000Y263417D02*
D03*
Y271417D02*
D03*
Y279417D02*
D03*
X377500Y131917D02*
D03*
D55*
X556189Y154276D02*
D03*
X519500Y325917D02*
D03*
X545500D02*
D03*
D56*
X341000Y285017D02*
D03*
X351000D02*
D03*
X341000Y225817D02*
D03*
X351000D02*
D03*
X379600Y158417D02*
D03*
X367789Y139913D02*
D03*
D57*
X376000Y274417D02*
D03*
Y236417D02*
D03*
D58*
Y290017D02*
D03*
Y220817D02*
D03*
D59*
X355978Y158417D02*
D03*
D60*
X714500Y204000D02*
D03*
X605000Y271417D02*
D03*
X643000Y241500D02*
D03*
X645500Y264000D02*
D03*
X641000Y267917D02*
D03*
X642500Y247000D02*
D03*
Y251500D02*
D03*
X657000Y247500D02*
D03*
Y255000D02*
D03*
Y258417D02*
D03*
Y263917D02*
D03*
X656500Y268417D02*
D03*
X588626Y212256D02*
D03*
X593150Y216819D02*
D03*
X596500Y199500D02*
D03*
X592000Y201500D02*
D03*
X597500Y178500D02*
D03*
X598500Y186000D02*
D03*
X601000Y177500D02*
D03*
X680500Y205500D02*
D03*
X693500Y200417D02*
D03*
X720250Y233250D02*
D03*
X723500Y246417D02*
D03*
X741000Y216500D02*
D03*
X719500Y228000D02*
D03*
X785500Y222500D02*
D03*
X801000Y216000D02*
D03*
X788000Y220500D02*
D03*
X791000D02*
D03*
X707000Y209500D02*
D03*
X707500Y212500D02*
D03*
X711000Y214417D02*
D03*
X738000Y215000D02*
D03*
X735000Y214500D02*
D03*
X731500D02*
D03*
X728500D02*
D03*
X725500D02*
D03*
X721925Y214575D02*
D03*
X718567Y214067D02*
D03*
X715500Y214200D02*
D03*
X504500Y214000D02*
D03*
X623000Y226917D02*
D03*
X627000Y228417D02*
D03*
X601000Y198500D02*
D03*
X620000Y215417D02*
D03*
X604400Y206000D02*
D03*
X597874Y205795D02*
D03*
X581500Y232000D02*
D03*
X572677Y249890D02*
D03*
X569500Y224693D02*
D03*
Y249883D02*
D03*
X581500Y256917D02*
D03*
X575827Y246740D02*
D03*
X577700Y236400D02*
D03*
X584000Y242917D02*
D03*
X578500Y256917D02*
D03*
X585276Y249890D02*
D03*
X594400Y249609D02*
D03*
X594738Y253039D02*
D03*
X602000Y272417D02*
D03*
X592000Y273417D02*
D03*
X588500Y270417D02*
D03*
X588000Y273917D02*
D03*
X585800Y266429D02*
D03*
X585276Y246726D02*
D03*
X577000Y262917D02*
D03*
X578318Y269735D02*
D03*
X583200Y267417D02*
D03*
X587000Y242917D02*
D03*
X588425Y246740D02*
D03*
X601000D02*
D03*
Y253039D02*
D03*
X597800Y249817D02*
D03*
X579500Y234000D02*
D03*
X584500Y220000D02*
D03*
X555000Y214073D02*
D03*
X621500Y195000D02*
D03*
X489500Y230000D02*
D03*
X520500Y225417D02*
D03*
X513500Y225917D02*
D03*
X577000Y220000D02*
D03*
X546000Y201917D02*
D03*
X582150Y246747D02*
D03*
X585500Y252817D02*
D03*
X579126Y252928D02*
D03*
X584500Y273417D02*
D03*
X582500Y270417D02*
D03*
X588425Y249890D02*
D03*
X603000Y257417D02*
D03*
X607500D02*
D03*
X610000Y258917D02*
D03*
X608500Y269917D02*
D03*
X588425Y253039D02*
D03*
X607346Y224693D02*
D03*
X595000Y242917D02*
D03*
X610500Y202417D02*
D03*
X559000Y203000D02*
D03*
X604173Y249890D02*
D03*
X607300Y243571D02*
D03*
X600500Y242917D02*
D03*
X597500Y235871D02*
D03*
X607346Y240441D02*
D03*
X610500D02*
D03*
X607323Y249890D02*
D03*
X613622Y253039D02*
D03*
X610400Y246676D02*
D03*
X613514Y243439D02*
D03*
X617000Y240417D02*
D03*
X617500Y236617D02*
D03*
X618000Y250417D02*
D03*
X610415Y249817D02*
D03*
X604173Y253039D02*
D03*
X789500Y309417D02*
D03*
X585500Y198917D02*
D03*
X577712Y200134D02*
D03*
X579000Y202417D02*
D03*
X605613Y200805D02*
D03*
X621500Y244917D02*
D03*
X625000Y240917D02*
D03*
X622000Y233417D02*
D03*
X620750Y253228D02*
D03*
X621000Y258917D02*
D03*
X615500Y268417D02*
D03*
X631500Y243417D02*
D03*
X624500Y258917D02*
D03*
X660000Y244917D02*
D03*
X688000Y243917D02*
D03*
X610500Y234142D02*
D03*
X584000Y256917D02*
D03*
X613615Y249917D02*
D03*
X614000Y270917D02*
D03*
X626750Y260617D02*
D03*
X621500Y271417D02*
D03*
X593000Y240917D02*
D03*
X682000Y238917D02*
D03*
X607346Y234142D02*
D03*
X601500Y231417D02*
D03*
X599000Y222417D02*
D03*
X601024Y212094D02*
D03*
X568000Y257417D02*
D03*
X556500Y246417D02*
D03*
X712500Y267917D02*
D03*
X715500Y270917D02*
D03*
X717500Y267417D02*
D03*
X668500Y224917D02*
D03*
X669000Y227917D02*
D03*
X623000Y217500D02*
D03*
X550500Y267417D02*
D03*
X554000Y262417D02*
D03*
X563000Y201417D02*
D03*
X566550Y215100D02*
D03*
X724500Y257417D02*
D03*
X572677Y208945D02*
D03*
X569550Y208950D02*
D03*
X572500Y202417D02*
D03*
X566400Y218400D02*
D03*
X594700Y212067D02*
D03*
X664500Y238417D02*
D03*
X636000Y282000D02*
D03*
X668500Y262402D02*
D03*
X664500Y261417D02*
D03*
X674500Y248917D02*
D03*
X562000Y266917D02*
D03*
X601024Y208945D02*
D03*
X550709Y244417D02*
D03*
X558500Y271417D02*
D03*
X566000Y270417D02*
D03*
X637500Y244417D02*
D03*
X628671Y276746D02*
D03*
X644500Y272417D02*
D03*
X656500Y274417D02*
D03*
X548500Y269917D02*
D03*
X618000D02*
D03*
X710313Y265816D02*
D03*
X730500Y257417D02*
D03*
X572500Y211900D02*
D03*
X564500Y256917D02*
D03*
X633000Y258917D02*
D03*
X624500Y246917D02*
D03*
X629000Y249417D02*
D03*
X663000Y235167D02*
D03*
X664877Y241295D02*
D03*
X671000Y245917D02*
D03*
X680000Y243417D02*
D03*
X680500Y248417D02*
D03*
X677500D02*
D03*
X656500Y277417D02*
D03*
Y271417D02*
D03*
X661500Y260417D02*
D03*
X637000Y259417D02*
D03*
Y262417D02*
D03*
X628247Y270117D02*
D03*
X639500Y270417D02*
D03*
X639000Y264917D02*
D03*
X671500Y276917D02*
D03*
X677500D02*
D03*
X682000Y269917D02*
D03*
X554000Y244417D02*
D03*
X617500Y254417D02*
D03*
X725000Y266417D02*
D03*
X733000Y260417D02*
D03*
X728500Y262917D02*
D03*
X722500Y264417D02*
D03*
X722000Y259417D02*
D03*
X728500Y254917D02*
D03*
X726000Y250417D02*
D03*
X693500Y183917D02*
D03*
X788000Y277417D02*
D03*
X693500Y204917D02*
D03*
X696500Y201417D02*
D03*
X603500Y196500D02*
D03*
X585000Y206000D02*
D03*
X589000Y216000D02*
D03*
X575000Y202000D02*
D03*
X550000Y210500D02*
D03*
X583500Y239417D02*
D03*
X580500Y241417D02*
D03*
X626750Y188750D02*
D03*
X557000Y254500D02*
D03*
X579000Y249890D02*
D03*
X572670Y246767D02*
D03*
X572700Y237300D02*
D03*
X572650Y227850D02*
D03*
X556000Y208000D02*
D03*
X563000Y204000D02*
D03*
X561500Y210520D02*
D03*
X569500Y218400D02*
D03*
X542000Y224500D02*
D03*
X496500Y213000D02*
D03*
X541000Y242500D02*
D03*
X558281Y237219D02*
D03*
X580000Y229500D02*
D03*
X572806Y221376D02*
D03*
X553000Y210917D02*
D03*
X561000Y236500D02*
D03*
X502500Y219000D02*
D03*
X535500Y223917D02*
D03*
X542500Y227500D02*
D03*
X561250Y233750D02*
D03*
X559500Y229500D02*
D03*
X559700Y223000D02*
D03*
X562500Y216917D02*
D03*
X558349Y209849D02*
D03*
X558500Y214917D02*
D03*
X562500Y219417D02*
D03*
X563000Y223000D02*
D03*
X508925Y248075D02*
D03*
X489000Y289000D02*
D03*
X488500Y284500D02*
D03*
X484500Y272000D02*
D03*
X491000Y279000D02*
D03*
X488000Y263000D02*
D03*
X624500Y193000D02*
D03*
X630000Y296500D02*
D03*
X639000Y286000D02*
D03*
X633500Y280500D02*
D03*
X644500Y288500D02*
D03*
X697500Y179500D02*
D03*
Y176500D02*
D03*
X698500Y173500D02*
D03*
X627650Y255955D02*
D03*
X627500Y273417D02*
D03*
X625850Y268417D02*
D03*
X616500Y256917D02*
D03*
X617500Y262417D02*
D03*
X621000Y267417D02*
D03*
X637000Y296000D02*
D03*
X649000Y293000D02*
D03*
X639000Y282000D02*
D03*
D61*
X642500Y255417D02*
D03*
D62*
X588288Y205970D02*
D03*
X600000Y201500D02*
D03*
X664500Y147000D02*
D03*
X720000Y248500D02*
D03*
X613500Y199500D02*
D03*
X604062Y208795D02*
D03*
X579000Y246726D02*
D03*
X566378Y253039D02*
D03*
X617000Y189000D02*
D03*
X496035Y229382D02*
D03*
X586500Y256917D02*
D03*
X604064Y224545D02*
D03*
X597500Y242917D02*
D03*
X601900Y235018D02*
D03*
X595500Y229417D02*
D03*
X590000Y224417D02*
D03*
X595500Y226417D02*
D03*
X597874Y208917D02*
D03*
X552000Y235917D02*
D03*
X585276Y224693D02*
D03*
X569500Y236917D02*
D03*
X588425Y227842D02*
D03*
X588500Y230917D02*
D03*
X591500D02*
D03*
X566378Y208945D02*
D03*
X585000Y228500D02*
D03*
D63*
X742748Y233165D02*
D03*
X712500Y170500D02*
D03*
X464500Y318417D02*
D03*
X390500Y152417D02*
D03*
X360000Y185417D02*
D03*
X571000Y198917D02*
D03*
X434500Y262000D02*
D03*
X467500Y323917D02*
D03*
X763500Y311417D02*
D03*
X779197Y203500D02*
D03*
X453000Y181917D02*
D03*
X440791Y172209D02*
D03*
X814000Y196000D02*
D03*
X628500Y236417D02*
D03*
X472346Y205264D02*
D03*
X536291Y201417D02*
D03*
X474500Y234417D02*
D03*
X410500Y134417D02*
D03*
X363000Y211417D02*
D03*
X437500Y207917D02*
D03*
X572500Y173917D02*
D03*
X518500Y156917D02*
D03*
X758500Y203500D02*
D03*
X736000Y276417D02*
D03*
X759500Y272917D02*
D03*
X666000Y293500D02*
D03*
X611500Y291917D02*
D03*
X652429Y209988D02*
D03*
X689500Y231917D02*
D03*
X401000Y190917D02*
D03*
X661709Y283500D02*
D03*
X528000Y249417D02*
D03*
X516500Y249417D02*
D03*
X755000Y146917D02*
D03*
X470500Y172917D02*
D03*
X585000Y290417D02*
D03*
X479000Y188417D02*
D03*
X431500Y327417D02*
D03*
X440500Y325917D02*
D03*
X431000Y245917D02*
D03*
X749500Y308417D02*
D03*
X519500Y148917D02*
D03*
X597000Y148000D02*
D03*
X427000Y209417D02*
D03*
X381500Y204917D02*
D03*
X727000Y308417D02*
D03*
X788500Y156000D02*
D03*
X799500Y165000D02*
D03*
X428000Y165417D02*
D03*
X762500Y232917D02*
D03*
X531457Y179917D02*
D03*
X435500Y129417D02*
D03*
X464500Y140417D02*
D03*
X512000Y151417D02*
D03*
X493000Y133417D02*
D03*
Y151417D02*
D03*
X512000Y133417D02*
D03*
X510000Y187874D02*
D03*
X502500Y142000D02*
D03*
X488000Y267500D02*
D03*
X515000Y288000D02*
D03*
X442500Y258000D02*
D03*
Y287000D02*
D03*
X515500Y267000D02*
D03*
D64*
X397000Y325417D02*
D03*
X610000D02*
D03*
X810000Y155417D02*
D03*
Y265417D02*
D03*
X397000Y135417D02*
D03*
M02*
