%FSLAX25Y25*%
%MOIN*%
G70*
G01*
G75*
G04 Layer_Physical_Order=4*
G04 Layer_Color=2107597*
%ADD10R,0.03543X0.01969*%
%ADD11R,0.05512X0.04724*%
%ADD12R,0.05906X0.05118*%
%ADD13R,0.02362X0.05906*%
%ADD14R,0.05118X0.07087*%
%ADD15R,0.07087X0.05118*%
%ADD16R,0.04724X0.05512*%
%ADD17R,0.02756X0.01575*%
%ADD18R,0.05118X0.05906*%
%ADD19R,0.02165X0.05709*%
%ADD20R,0.21654X0.07874*%
%ADD21O,0.06693X0.01181*%
%ADD22O,0.00984X0.06102*%
%ADD23O,0.06102X0.00984*%
%ADD24O,0.08661X0.02362*%
%ADD25C,0.01400*%
%ADD26O,0.02165X0.05906*%
%ADD27R,0.01969X0.03543*%
%ADD28R,0.11811X0.06299*%
%ADD29R,0.24410X0.22835*%
%ADD30R,0.05512X0.07087*%
%ADD31R,0.04724X0.07087*%
%ADD32R,0.07087X0.03150*%
%ADD33C,0.01000*%
%ADD34C,0.00500*%
%ADD35C,0.02000*%
%ADD36C,0.00300*%
%ADD37C,0.00787*%
%ADD38R,0.05906X0.05906*%
%ADD39C,0.05906*%
%ADD40O,0.10000X0.05000*%
%ADD41C,0.07500*%
%ADD42C,0.06000*%
%ADD43C,0.08700*%
%ADD44C,0.07874*%
%ADD45C,0.02000*%
%ADD46C,0.04000*%
%ADD47C,0.03000*%
%ADD48C,0.12500*%
%ADD49C,0.04000*%
%ADD50C,0.05943*%
G04:AMPARAMS|DCode=51|XSize=75.433mil|YSize=75.433mil|CornerRadius=0mil|HoleSize=0mil|Usage=FLASHONLY|Rotation=0.000|XOffset=0mil|YOffset=0mil|HoleType=Round|Shape=Relief|Width=8mil|Gap=10mil|Entries=4|*
%AMTHD51*
7,0,0,0.07543,0.05543,0.00800,45*
%
%ADD51THD51*%
%ADD52C,0.12400*%
%ADD53C,0.07100*%
%ADD54C,0.05900*%
G04:AMPARAMS|DCode=55|XSize=75mil|YSize=75mil|CornerRadius=0mil|HoleSize=0mil|Usage=FLASHONLY|Rotation=0.000|XOffset=0mil|YOffset=0mil|HoleType=Round|Shape=Relief|Width=8mil|Gap=10mil|Entries=4|*
%AMTHD55*
7,0,0,0.07500,0.05500,0.00800,45*
%
%ADD55THD55*%
%ADD56C,0.07400*%
%ADD57C,0.15200*%
%ADD58C,0.08600*%
G04:AMPARAMS|DCode=59|XSize=90mil|YSize=90mil|CornerRadius=0mil|HoleSize=0mil|Usage=FLASHONLY|Rotation=0.000|XOffset=0mil|YOffset=0mil|HoleType=Round|Shape=Relief|Width=8mil|Gap=10mil|Entries=4|*
%AMTHD59*
7,0,0,0.09000,0.07000,0.00800,45*
%
%ADD59THD59*%
%ADD60C,0.03400*%
%ADD61C,0.06400*%
G04:AMPARAMS|DCode=62|XSize=50mil|YSize=50mil|CornerRadius=0mil|HoleSize=0mil|Usage=FLASHONLY|Rotation=0.000|XOffset=0mil|YOffset=0mil|HoleType=Round|Shape=Relief|Width=8mil|Gap=10mil|Entries=4|*
%AMTHD62*
7,0,0,0.05000,0.03000,0.00800,45*
%
%ADD62THD62*%
G04:AMPARAMS|DCode=63|XSize=56mil|YSize=56mil|CornerRadius=0mil|HoleSize=0mil|Usage=FLASHONLY|Rotation=0.000|XOffset=0mil|YOffset=0mil|HoleType=Round|Shape=Relief|Width=8mil|Gap=10mil|Entries=4|*
%AMTHD63*
7,0,0,0.05600,0.03600,0.00800,45*
%
%ADD63THD63*%
%ADD64C,0.14900*%
%ADD65R,0.02402X0.09843*%
G36*
X773156Y261581D02*
X773306Y261550D01*
X773438Y261512D01*
X773569Y261462D01*
X773681Y261400D01*
X773787Y261331D01*
X773887Y261262D01*
X773975Y261188D01*
X774050Y261112D01*
X774119Y261037D01*
X774175Y260969D01*
X774219Y260906D01*
X774256Y260856D01*
X774281Y260819D01*
X774294Y260788D01*
X774300Y260781D01*
Y261506D01*
X775100D01*
Y257000D01*
X774300D01*
Y259575D01*
X774294Y259675D01*
X774288Y259775D01*
X774250Y259956D01*
X774200Y260113D01*
X774175Y260188D01*
X774144Y260256D01*
X774113Y260313D01*
X774087Y260363D01*
X774062Y260413D01*
X774038Y260450D01*
X774019Y260481D01*
X774000Y260500D01*
X773994Y260512D01*
X773987Y260519D01*
X773925Y260588D01*
X773863Y260650D01*
X773800Y260700D01*
X773737Y260744D01*
X773675Y260788D01*
X773612Y260819D01*
X773494Y260862D01*
X773394Y260894D01*
X773350Y260900D01*
X773313Y260906D01*
X773287Y260912D01*
X773244D01*
X773144Y260906D01*
X773050Y260888D01*
X772956Y260856D01*
X772881Y260825D01*
X772813Y260788D01*
X772762Y260763D01*
X772731Y260737D01*
X772719Y260731D01*
X772381Y261506D01*
X772525Y261531D01*
X772650Y261556D01*
X772756Y261569D01*
X772844Y261575D01*
X772913Y261581D01*
X772963Y261588D01*
X773000D01*
X773156Y261581D01*
D02*
G37*
G36*
X757494Y262406D02*
X755531D01*
Y257000D01*
X754688D01*
Y262406D01*
X752637D01*
Y263162D01*
X757494D01*
Y262406D01*
D02*
G37*
G36*
X752550Y257000D02*
X751606D01*
X751156Y258300D01*
X748869D01*
X748438Y257000D01*
X747506D01*
X749825Y263244D01*
X750050D01*
X752550Y257000D01*
D02*
G37*
G36*
X777569Y261581D02*
X777756Y261562D01*
X777931Y261525D01*
X778100Y261488D01*
X778256Y261438D01*
X778394Y261381D01*
X778525Y261319D01*
X778644Y261262D01*
X778744Y261200D01*
X778837Y261138D01*
X778912Y261081D01*
X778975Y261031D01*
X779025Y260994D01*
X779063Y260963D01*
X779087Y260938D01*
X779094Y260931D01*
X779206Y260806D01*
X779300Y260669D01*
X779381Y260531D01*
X779456Y260387D01*
X779513Y260244D01*
X779569Y260100D01*
X779606Y259963D01*
X779637Y259825D01*
X779669Y259700D01*
X779688Y259581D01*
X779700Y259475D01*
X779706Y259387D01*
X779712Y259313D01*
X779719Y259256D01*
Y259219D01*
Y259212D01*
Y259206D01*
X779712Y259013D01*
X779694Y258831D01*
X779663Y258663D01*
X779625Y258500D01*
X779581Y258350D01*
X779531Y258212D01*
X779475Y258087D01*
X779419Y257975D01*
X779362Y257869D01*
X779306Y257781D01*
X779256Y257706D01*
X779213Y257644D01*
X779175Y257594D01*
X779144Y257562D01*
X779125Y257538D01*
X779119Y257531D01*
X779000Y257425D01*
X778881Y257331D01*
X778756Y257250D01*
X778625Y257175D01*
X778500Y257119D01*
X778375Y257069D01*
X778250Y257025D01*
X778131Y256994D01*
X778025Y256969D01*
X777925Y256950D01*
X777831Y256938D01*
X777750Y256931D01*
X777688Y256925D01*
X777637Y256919D01*
X777600D01*
X777425Y256925D01*
X777256Y256938D01*
X777100Y256956D01*
X776944Y256988D01*
X776806Y257019D01*
X776675Y257050D01*
X776550Y257087D01*
X776444Y257131D01*
X776344Y257169D01*
X776256Y257206D01*
X776181Y257238D01*
X776113Y257275D01*
X776062Y257300D01*
X776031Y257319D01*
X776006Y257331D01*
X776000Y257337D01*
X776319Y258013D01*
X776419Y257938D01*
X776519Y257875D01*
X776619Y257819D01*
X776719Y257769D01*
X776813Y257731D01*
X776900Y257694D01*
X776981Y257669D01*
X777063Y257644D01*
X777138Y257631D01*
X777200Y257619D01*
X777256Y257606D01*
X777306Y257600D01*
X777344Y257594D01*
X777400D01*
X777525Y257600D01*
X777644Y257612D01*
X777756Y257631D01*
X777863Y257656D01*
X777962Y257687D01*
X778050Y257725D01*
X778131Y257763D01*
X778206Y257800D01*
X778269Y257838D01*
X778325Y257875D01*
X778375Y257912D01*
X778412Y257944D01*
X778444Y257969D01*
X778469Y257987D01*
X778481Y258000D01*
X778487Y258006D01*
X778556Y258087D01*
X778613Y258175D01*
X778669Y258269D01*
X778713Y258369D01*
X778750Y258469D01*
X778781Y258569D01*
X778825Y258763D01*
X778844Y258850D01*
X778856Y258938D01*
X778862Y259013D01*
X778869Y259075D01*
X778875Y259131D01*
Y259169D01*
Y259200D01*
Y259206D01*
X778869Y259350D01*
X778856Y259488D01*
X778837Y259619D01*
X778813Y259737D01*
X778788Y259850D01*
X778756Y259950D01*
X778719Y260044D01*
X778681Y260131D01*
X778650Y260206D01*
X778613Y260269D01*
X778581Y260325D01*
X778550Y260375D01*
X778531Y260406D01*
X778512Y260437D01*
X778500Y260450D01*
X778494Y260456D01*
X778419Y260538D01*
X778337Y260606D01*
X778256Y260669D01*
X778169Y260719D01*
X778081Y260763D01*
X777994Y260800D01*
X777906Y260831D01*
X777825Y260856D01*
X777750Y260875D01*
X777675Y260888D01*
X777612Y260900D01*
X777556Y260906D01*
X777513Y260912D01*
X777450D01*
X777338Y260906D01*
X777225Y260894D01*
X777125Y260875D01*
X777031Y260856D01*
X776950Y260838D01*
X776894Y260819D01*
X776869Y260812D01*
X776850Y260806D01*
X776844Y260800D01*
X776837D01*
X776731Y260763D01*
X776638Y260719D01*
X776562Y260681D01*
X776500Y260650D01*
X776456Y260619D01*
X776425Y260594D01*
X776406Y260581D01*
X776400Y260575D01*
X776000Y261138D01*
X776081Y261194D01*
X776181Y261250D01*
X776281Y261300D01*
X776381Y261344D01*
X776469Y261381D01*
X776544Y261413D01*
X776575Y261425D01*
X776594Y261431D01*
X776606Y261438D01*
X776613D01*
X776762Y261488D01*
X776900Y261525D01*
X777031Y261550D01*
X777144Y261569D01*
X777238Y261581D01*
X777275D01*
X777306Y261588D01*
X777369D01*
X777569Y261581D01*
D02*
G37*
G36*
X770144D02*
X770294Y261562D01*
X770437Y261531D01*
X770569Y261494D01*
X770694Y261450D01*
X770813Y261394D01*
X770925Y261344D01*
X771025Y261287D01*
X771112Y261225D01*
X771194Y261175D01*
X771263Y261125D01*
X771325Y261075D01*
X771369Y261037D01*
X771406Y261006D01*
X771425Y260987D01*
X771431Y260981D01*
X771550Y260850D01*
X771656Y260713D01*
X771744Y260569D01*
X771819Y260419D01*
X771887Y260275D01*
X771944Y260125D01*
X771987Y259981D01*
X772019Y259838D01*
X772050Y259706D01*
X772069Y259588D01*
X772087Y259481D01*
X772094Y259387D01*
X772100Y259306D01*
X772106Y259250D01*
Y259212D01*
Y259206D01*
Y259200D01*
X772100Y259006D01*
X772075Y258819D01*
X772044Y258644D01*
X772006Y258481D01*
X771956Y258325D01*
X771900Y258188D01*
X771838Y258063D01*
X771775Y257944D01*
X771719Y257844D01*
X771656Y257750D01*
X771600Y257675D01*
X771550Y257612D01*
X771513Y257556D01*
X771475Y257525D01*
X771456Y257500D01*
X771450Y257494D01*
X771338Y257394D01*
X771219Y257306D01*
X771094Y257225D01*
X770975Y257162D01*
X770850Y257106D01*
X770731Y257056D01*
X770619Y257019D01*
X770506Y256994D01*
X770400Y256969D01*
X770306Y256950D01*
X770219Y256938D01*
X770150Y256925D01*
X770087D01*
X770044Y256919D01*
X770006D01*
X769788Y256925D01*
X769588Y256944D01*
X769406Y256975D01*
X769325Y256988D01*
X769244Y257006D01*
X769175Y257025D01*
X769112Y257037D01*
X769063Y257056D01*
X769012Y257069D01*
X768981Y257075D01*
X768950Y257087D01*
X768937Y257094D01*
X768931D01*
X768800Y257144D01*
X768681Y257200D01*
X768581Y257250D01*
X768506Y257300D01*
X768444Y257344D01*
X768400Y257381D01*
X768369Y257406D01*
X768363Y257413D01*
X768700Y257987D01*
X768787Y257919D01*
X768881Y257856D01*
X768975Y257806D01*
X769075Y257763D01*
X769169Y257725D01*
X769269Y257687D01*
X769450Y257644D01*
X769531Y257625D01*
X769606Y257612D01*
X769675Y257606D01*
X769737Y257600D01*
X769781Y257594D01*
X769850D01*
X769963Y257600D01*
X770062Y257612D01*
X770162Y257625D01*
X770256Y257650D01*
X770344Y257681D01*
X770425Y257713D01*
X770500Y257744D01*
X770563Y257781D01*
X770625Y257812D01*
X770681Y257844D01*
X770725Y257875D01*
X770762Y257906D01*
X770794Y257931D01*
X770813Y257944D01*
X770825Y257956D01*
X770831Y257962D01*
X770906Y258044D01*
X770975Y258137D01*
X771031Y258231D01*
X771081Y258331D01*
X771125Y258431D01*
X771156Y258531D01*
X771187Y258631D01*
X771206Y258725D01*
X771225Y258819D01*
X771238Y258900D01*
X771250Y258981D01*
X771256Y259044D01*
X771263Y259100D01*
Y259138D01*
Y259169D01*
Y259175D01*
X768019D01*
X767994Y259256D01*
X767981Y259344D01*
X767969Y259425D01*
X767956Y259500D01*
Y259569D01*
X767950Y259619D01*
Y259650D01*
Y259663D01*
X767956Y259819D01*
X767975Y259969D01*
X768000Y260106D01*
X768031Y260238D01*
X768075Y260363D01*
X768119Y260475D01*
X768169Y260581D01*
X768213Y260675D01*
X768262Y260756D01*
X768313Y260831D01*
X768356Y260894D01*
X768400Y260950D01*
X768431Y260987D01*
X768456Y261019D01*
X768475Y261037D01*
X768481Y261044D01*
X768587Y261138D01*
X768706Y261225D01*
X768825Y261294D01*
X768950Y261356D01*
X769075Y261413D01*
X769200Y261456D01*
X769325Y261494D01*
X769444Y261519D01*
X769556Y261544D01*
X769663Y261556D01*
X769756Y261569D01*
X769838Y261581D01*
X769900D01*
X769950Y261588D01*
X769994D01*
X770144Y261581D01*
D02*
G37*
G36*
X766825Y262444D02*
Y261506D01*
X767344D01*
Y260875D01*
X766825D01*
Y258319D01*
X766819Y258206D01*
X766806Y258100D01*
X766794Y258000D01*
X766769Y257906D01*
X766744Y257819D01*
X766713Y257731D01*
X766675Y257656D01*
X766644Y257588D01*
X766612Y257525D01*
X766575Y257469D01*
X766544Y257425D01*
X766519Y257387D01*
X766494Y257356D01*
X766475Y257331D01*
X766469Y257319D01*
X766463Y257312D01*
X766394Y257244D01*
X766319Y257181D01*
X766244Y257131D01*
X766162Y257087D01*
X766087Y257050D01*
X766012Y257013D01*
X765869Y256969D01*
X765806Y256950D01*
X765744Y256938D01*
X765694Y256931D01*
X765644Y256925D01*
X765606Y256919D01*
X765556D01*
X765338Y256925D01*
X765137Y256938D01*
X764950Y256956D01*
X764862Y256969D01*
X764787Y256981D01*
X764712Y256994D01*
X764650Y257006D01*
X764594Y257013D01*
X764550Y257025D01*
X764512Y257031D01*
X764488Y257037D01*
X764469Y257044D01*
X764463D01*
X764581Y257750D01*
X764706Y257700D01*
X764819Y257663D01*
X764931Y257631D01*
X765025Y257612D01*
X765106Y257600D01*
X765163Y257594D01*
X765219D01*
X765369Y257606D01*
X765494Y257631D01*
X765600Y257669D01*
X765688Y257713D01*
X765756Y257756D01*
X765800Y257794D01*
X765831Y257819D01*
X765837Y257831D01*
X765869Y257881D01*
X765900Y257931D01*
X765944Y258056D01*
X765981Y258194D01*
X766000Y258325D01*
X766012Y258444D01*
X766019Y258500D01*
Y258544D01*
X766025Y258581D01*
Y258612D01*
Y258631D01*
Y258637D01*
Y260875D01*
X764787D01*
Y261506D01*
X766025D01*
Y262756D01*
X766825Y262444D01*
D02*
G37*
G36*
X772575Y254581D02*
X772725Y254550D01*
X772856Y254513D01*
X772988Y254463D01*
X773100Y254400D01*
X773206Y254331D01*
X773306Y254262D01*
X773394Y254187D01*
X773469Y254113D01*
X773537Y254037D01*
X773594Y253969D01*
X773637Y253906D01*
X773675Y253856D01*
X773700Y253819D01*
X773712Y253787D01*
X773719Y253781D01*
Y254506D01*
X774519D01*
Y250000D01*
X773719D01*
Y252575D01*
X773712Y252675D01*
X773706Y252775D01*
X773669Y252956D01*
X773619Y253113D01*
X773594Y253187D01*
X773562Y253256D01*
X773531Y253312D01*
X773506Y253362D01*
X773481Y253413D01*
X773456Y253450D01*
X773438Y253481D01*
X773419Y253500D01*
X773413Y253513D01*
X773406Y253519D01*
X773344Y253588D01*
X773281Y253650D01*
X773219Y253700D01*
X773156Y253744D01*
X773094Y253787D01*
X773031Y253819D01*
X772913Y253863D01*
X772813Y253894D01*
X772769Y253900D01*
X772731Y253906D01*
X772706Y253912D01*
X772662D01*
X772563Y253906D01*
X772469Y253888D01*
X772375Y253856D01*
X772300Y253825D01*
X772231Y253787D01*
X772181Y253763D01*
X772150Y253737D01*
X772137Y253731D01*
X771800Y254506D01*
X771944Y254531D01*
X772069Y254556D01*
X772175Y254569D01*
X772262Y254575D01*
X772331Y254581D01*
X772381Y254588D01*
X772419D01*
X772575Y254581D01*
D02*
G37*
G36*
X777625D02*
X777781Y254562D01*
X777931Y254531D01*
X778075Y254487D01*
X778206Y254437D01*
X778331Y254381D01*
X778438Y254325D01*
X778544Y254269D01*
X778631Y254206D01*
X778713Y254150D01*
X778781Y254094D01*
X778837Y254044D01*
X778881Y254006D01*
X778912Y253969D01*
X778931Y253950D01*
X778937Y253944D01*
X779038Y253819D01*
X779119Y253688D01*
X779194Y253550D01*
X779256Y253413D01*
X779313Y253269D01*
X779356Y253131D01*
X779394Y252994D01*
X779425Y252863D01*
X779450Y252737D01*
X779462Y252625D01*
X779475Y252525D01*
X779488Y252437D01*
Y252362D01*
X779494Y252306D01*
Y252275D01*
Y252262D01*
X779488Y252069D01*
X779469Y251881D01*
X779444Y251706D01*
X779413Y251544D01*
X779369Y251388D01*
X779325Y251250D01*
X779275Y251119D01*
X779225Y251006D01*
X779175Y250900D01*
X779125Y250806D01*
X779081Y250731D01*
X779038Y250669D01*
X779006Y250619D01*
X778981Y250581D01*
X778963Y250556D01*
X778956Y250550D01*
X778850Y250437D01*
X778737Y250344D01*
X778619Y250256D01*
X778494Y250187D01*
X778369Y250125D01*
X778244Y250075D01*
X778125Y250031D01*
X778006Y250000D01*
X777894Y249969D01*
X777787Y249950D01*
X777694Y249938D01*
X777612Y249931D01*
X777550Y249925D01*
X777500Y249919D01*
X777456D01*
X777281Y249925D01*
X777119Y249944D01*
X776969Y249975D01*
X776825Y250019D01*
X776694Y250062D01*
X776569Y250119D01*
X776456Y250175D01*
X776356Y250231D01*
X776269Y250288D01*
X776188Y250344D01*
X776125Y250400D01*
X776069Y250444D01*
X776025Y250487D01*
X775994Y250519D01*
X775975Y250537D01*
X775969Y250544D01*
X775869Y250669D01*
X775787Y250800D01*
X775712Y250938D01*
X775650Y251081D01*
X775600Y251225D01*
X775550Y251362D01*
X775519Y251506D01*
X775488Y251638D01*
X775462Y251769D01*
X775450Y251887D01*
X775437Y251994D01*
X775425Y252081D01*
Y252156D01*
X775419Y252213D01*
Y252250D01*
Y252262D01*
X775425Y252463D01*
X775444Y252650D01*
X775469Y252825D01*
X775500Y252994D01*
X775544Y253144D01*
X775588Y253281D01*
X775637Y253413D01*
X775688Y253525D01*
X775737Y253631D01*
X775787Y253719D01*
X775831Y253794D01*
X775875Y253856D01*
X775906Y253906D01*
X775931Y253938D01*
X775950Y253962D01*
X775956Y253969D01*
X776062Y254075D01*
X776175Y254175D01*
X776294Y254256D01*
X776412Y254325D01*
X776538Y254387D01*
X776662Y254437D01*
X776788Y254475D01*
X776906Y254513D01*
X777019Y254538D01*
X777119Y254556D01*
X777212Y254569D01*
X777294Y254575D01*
X777362Y254581D01*
X777413Y254588D01*
X777456D01*
X777625Y254581D01*
D02*
G37*
G36*
X782225D02*
X782338Y254569D01*
X782444Y254544D01*
X782550Y254519D01*
X782644Y254481D01*
X782737Y254444D01*
X782819Y254400D01*
X782894Y254363D01*
X782963Y254319D01*
X783025Y254275D01*
X783075Y254238D01*
X783119Y254200D01*
X783156Y254175D01*
X783181Y254150D01*
X783194Y254137D01*
X783200Y254131D01*
Y254506D01*
X784000D01*
Y248231D01*
X783200D01*
Y250250D01*
X783156Y250200D01*
X783100Y250156D01*
X783031Y250119D01*
X782963Y250087D01*
X782894Y250056D01*
X782837Y250038D01*
X782800Y250025D01*
X782794Y250019D01*
X782788D01*
X782669Y249988D01*
X782550Y249962D01*
X782450Y249944D01*
X782356Y249931D01*
X782281Y249925D01*
X782225Y249919D01*
X782175D01*
X781987Y249925D01*
X781812Y249944D01*
X781650Y249981D01*
X781500Y250019D01*
X781362Y250069D01*
X781238Y250125D01*
X781119Y250181D01*
X781012Y250244D01*
X780925Y250300D01*
X780844Y250356D01*
X780775Y250413D01*
X780719Y250463D01*
X780675Y250506D01*
X780644Y250537D01*
X780625Y250556D01*
X780619Y250563D01*
X780525Y250688D01*
X780438Y250819D01*
X780369Y250956D01*
X780306Y251100D01*
X780250Y251238D01*
X780206Y251381D01*
X780169Y251513D01*
X780144Y251644D01*
X780119Y251769D01*
X780106Y251881D01*
X780094Y251981D01*
X780081Y252069D01*
Y252137D01*
X780075Y252194D01*
Y252225D01*
Y252238D01*
X780081Y252450D01*
X780100Y252644D01*
X780125Y252831D01*
X780156Y253000D01*
X780200Y253156D01*
X780244Y253300D01*
X780294Y253431D01*
X780344Y253544D01*
X780394Y253650D01*
X780444Y253737D01*
X780487Y253813D01*
X780531Y253875D01*
X780562Y253925D01*
X780587Y253962D01*
X780606Y253981D01*
X780613Y253988D01*
X780719Y254094D01*
X780831Y254187D01*
X780950Y254269D01*
X781069Y254338D01*
X781194Y254394D01*
X781319Y254444D01*
X781437Y254481D01*
X781556Y254513D01*
X781669Y254538D01*
X781775Y254556D01*
X781869Y254569D01*
X781950Y254581D01*
X782013D01*
X782062Y254588D01*
X782106D01*
X782225Y254581D01*
D02*
G37*
G36*
X759044Y259262D02*
Y259063D01*
X759056Y258888D01*
X759062Y258725D01*
X759081Y258588D01*
X759100Y258463D01*
X759119Y258350D01*
X759137Y258256D01*
X759156Y258175D01*
X759181Y258106D01*
X759200Y258050D01*
X759219Y258000D01*
X759237Y257969D01*
X759256Y257944D01*
X759263Y257925D01*
X759275Y257919D01*
Y257912D01*
X759319Y257869D01*
X759375Y257831D01*
X759494Y257775D01*
X759625Y257731D01*
X759756Y257706D01*
X759881Y257687D01*
X759931Y257681D01*
X759975D01*
X760012Y257675D01*
X760069D01*
X760169Y257681D01*
X760256Y257700D01*
X760337Y257725D01*
X760406Y257763D01*
X760469Y257806D01*
X760525Y257850D01*
X760569Y257900D01*
X760612Y257956D01*
X760644Y258006D01*
X760669Y258056D01*
X760694Y258100D01*
X760706Y258144D01*
X760719Y258181D01*
X760725Y258206D01*
X760731Y258225D01*
Y258231D01*
X761469D01*
X761456Y258119D01*
X761438Y258019D01*
X761419Y257919D01*
X761387Y257831D01*
X761356Y257744D01*
X761319Y257663D01*
X761281Y257594D01*
X761244Y257531D01*
X761206Y257469D01*
X761175Y257419D01*
X761137Y257375D01*
X761112Y257337D01*
X761088Y257312D01*
X761069Y257294D01*
X761056Y257281D01*
X761050Y257275D01*
X760975Y257212D01*
X760894Y257156D01*
X760813Y257113D01*
X760731Y257069D01*
X760650Y257037D01*
X760569Y257006D01*
X760413Y256962D01*
X760337Y256950D01*
X760275Y256938D01*
X760213Y256931D01*
X760162Y256925D01*
X760119Y256919D01*
X760063D01*
X759875Y256925D01*
X759700Y256944D01*
X759544Y256969D01*
X759394Y257006D01*
X759263Y257050D01*
X759144Y257094D01*
X759037Y257144D01*
X758944Y257200D01*
X758862Y257250D01*
X758794Y257300D01*
X758738Y257344D01*
X758694Y257387D01*
X758656Y257425D01*
X758631Y257450D01*
X758619Y257469D01*
X758612Y257475D01*
X758537Y257588D01*
X758475Y257713D01*
X758419Y257850D01*
X758375Y258000D01*
X758331Y258150D01*
X758300Y258300D01*
X758275Y258450D01*
X758250Y258600D01*
X758231Y258737D01*
X758219Y258869D01*
X758213Y258987D01*
X758206Y259094D01*
X758200Y259181D01*
Y259244D01*
Y259269D01*
Y259288D01*
Y259294D01*
Y259300D01*
Y263162D01*
X759044D01*
Y259262D01*
D02*
G37*
G36*
X786894Y263263D02*
X787031Y263250D01*
X787156Y263225D01*
X787275Y263200D01*
X787388Y263162D01*
X787494Y263125D01*
X787587Y263081D01*
X787675Y263044D01*
X787750Y263000D01*
X787819Y262956D01*
X787875Y262919D01*
X787925Y262881D01*
X787962Y262856D01*
X787988Y262831D01*
X788006Y262819D01*
X788013Y262812D01*
X788100Y262725D01*
X788175Y262631D01*
X788237Y262538D01*
X788294Y262444D01*
X788344Y262344D01*
X788381Y262250D01*
X788413Y262156D01*
X788438Y262069D01*
X788456Y261987D01*
X788475Y261912D01*
X788487Y261844D01*
X788494Y261781D01*
Y261737D01*
X788500Y261700D01*
Y261675D01*
Y261669D01*
X788487Y261462D01*
X788462Y261275D01*
X788419Y261112D01*
X788400Y261037D01*
X788375Y260969D01*
X788350Y260906D01*
X788331Y260850D01*
X788306Y260806D01*
X788287Y260769D01*
X788275Y260737D01*
X788263Y260713D01*
X788250Y260700D01*
Y260694D01*
X788200Y260619D01*
X788137Y260550D01*
X788006Y260419D01*
X787862Y260294D01*
X787712Y260194D01*
X787581Y260113D01*
X787525Y260075D01*
X787469Y260050D01*
X787431Y260025D01*
X787394Y260006D01*
X787375Y260000D01*
X787369Y259994D01*
X786875Y259763D01*
X786756Y259706D01*
X786644Y259650D01*
X786550Y259594D01*
X786462Y259538D01*
X786381Y259488D01*
X786319Y259444D01*
X786256Y259394D01*
X786206Y259356D01*
X786163Y259319D01*
X786125Y259281D01*
X786094Y259256D01*
X786075Y259231D01*
X786044Y259194D01*
X786037Y259188D01*
Y259181D01*
X785981Y259081D01*
X785938Y258975D01*
X785913Y258881D01*
X785887Y258787D01*
X785875Y258713D01*
X785869Y258656D01*
Y258631D01*
Y258612D01*
Y258606D01*
Y258600D01*
X785875Y258525D01*
X785881Y258450D01*
X785913Y258319D01*
X785962Y258206D01*
X786019Y258106D01*
X786075Y258025D01*
X786119Y257969D01*
X786156Y257931D01*
X786163Y257925D01*
X786169Y257919D01*
X786225Y257869D01*
X786287Y257831D01*
X786419Y257763D01*
X786550Y257719D01*
X786675Y257681D01*
X786788Y257663D01*
X786837Y257656D01*
X786881D01*
X786912Y257650D01*
X786963D01*
X787069Y257656D01*
X787175Y257669D01*
X787281Y257687D01*
X787381Y257706D01*
X787469Y257725D01*
X787531Y257744D01*
X787556Y257750D01*
X787575Y257756D01*
X787587Y257763D01*
X787594D01*
X787719Y257812D01*
X787831Y257856D01*
X787931Y257906D01*
X788013Y257956D01*
X788081Y257994D01*
X788131Y258025D01*
X788163Y258050D01*
X788175Y258056D01*
X788481Y257281D01*
X788369Y257212D01*
X788256Y257156D01*
X788137Y257100D01*
X788019Y257056D01*
X787900Y257019D01*
X787787Y256988D01*
X787675Y256962D01*
X787563Y256944D01*
X787463Y256925D01*
X787375Y256912D01*
X787288Y256906D01*
X787219Y256900D01*
X787162Y256894D01*
X787081D01*
X786912Y256900D01*
X786750Y256912D01*
X786600Y256938D01*
X786456Y256969D01*
X786325Y257006D01*
X786200Y257044D01*
X786088Y257087D01*
X785988Y257137D01*
X785900Y257181D01*
X785819Y257225D01*
X785750Y257262D01*
X785694Y257300D01*
X785650Y257331D01*
X785619Y257356D01*
X785600Y257369D01*
X785594Y257375D01*
X785494Y257469D01*
X785406Y257562D01*
X785331Y257663D01*
X785269Y257763D01*
X785213Y257862D01*
X785169Y257956D01*
X785131Y258050D01*
X785100Y258144D01*
X785081Y258225D01*
X785063Y258306D01*
X785050Y258375D01*
X785038Y258431D01*
Y258481D01*
X785031Y258519D01*
Y258544D01*
Y258550D01*
X785044Y258781D01*
X785056Y258888D01*
X785069Y258987D01*
X785087Y259081D01*
X785112Y259169D01*
X785138Y259250D01*
X785156Y259319D01*
X785181Y259387D01*
X785206Y259444D01*
X785225Y259494D01*
X785250Y259531D01*
X785262Y259562D01*
X785275Y259588D01*
X785288Y259600D01*
Y259606D01*
X785337Y259681D01*
X785400Y259756D01*
X785531Y259894D01*
X785681Y260013D01*
X785825Y260119D01*
X785962Y260200D01*
X786019Y260238D01*
X786075Y260269D01*
X786112Y260287D01*
X786150Y260306D01*
X786169Y260313D01*
X786175Y260319D01*
X786681Y260562D01*
X786769Y260606D01*
X786850Y260644D01*
X786919Y260681D01*
X786987Y260719D01*
X787044Y260750D01*
X787100Y260781D01*
X787187Y260831D01*
X787250Y260869D01*
X787294Y260900D01*
X787319Y260919D01*
X787325Y260925D01*
X787381Y260975D01*
X787431Y261031D01*
X787469Y261087D01*
X787506Y261138D01*
X787531Y261181D01*
X787550Y261219D01*
X787563Y261244D01*
X787569Y261250D01*
X787600Y261325D01*
X787619Y261400D01*
X787638Y261469D01*
X787644Y261538D01*
X787650Y261594D01*
X787656Y261644D01*
Y261669D01*
Y261681D01*
X787644Y261819D01*
X787619Y261937D01*
X787581Y262044D01*
X787531Y262138D01*
X787488Y262206D01*
X787450Y262263D01*
X787425Y262294D01*
X787413Y262306D01*
X787313Y262387D01*
X787206Y262450D01*
X787094Y262494D01*
X786981Y262525D01*
X786888Y262544D01*
X786844Y262550D01*
X786806D01*
X786781Y262556D01*
X786737D01*
X786625Y262550D01*
X786513Y262538D01*
X786406Y262519D01*
X786306Y262500D01*
X786225Y262475D01*
X786156Y262456D01*
X786131Y262450D01*
X786112Y262444D01*
X786106Y262438D01*
X786100D01*
X785975Y262394D01*
X785869Y262356D01*
X785781Y262313D01*
X785706Y262281D01*
X785650Y262250D01*
X785612Y262225D01*
X785588Y262212D01*
X785581Y262206D01*
X785331Y262931D01*
X785413Y262994D01*
X785506Y263044D01*
X785612Y263088D01*
X785725Y263125D01*
X785962Y263188D01*
X786194Y263225D01*
X786306Y263244D01*
X786412Y263250D01*
X786506Y263256D01*
X786587Y263263D01*
X786656Y263269D01*
X786756D01*
X786894Y263263D01*
D02*
G37*
G36*
X770944Y255444D02*
Y254506D01*
X771462D01*
Y253875D01*
X770944D01*
Y251319D01*
X770937Y251206D01*
X770925Y251100D01*
X770913Y251000D01*
X770888Y250906D01*
X770862Y250819D01*
X770831Y250731D01*
X770794Y250656D01*
X770762Y250588D01*
X770731Y250525D01*
X770694Y250469D01*
X770662Y250425D01*
X770638Y250388D01*
X770612Y250356D01*
X770594Y250331D01*
X770587Y250319D01*
X770581Y250312D01*
X770512Y250244D01*
X770437Y250181D01*
X770363Y250131D01*
X770281Y250087D01*
X770206Y250050D01*
X770131Y250012D01*
X769987Y249969D01*
X769925Y249950D01*
X769863Y249938D01*
X769812Y249931D01*
X769763Y249925D01*
X769725Y249919D01*
X769675D01*
X769456Y249925D01*
X769256Y249938D01*
X769069Y249956D01*
X768981Y249969D01*
X768906Y249981D01*
X768831Y249994D01*
X768769Y250006D01*
X768713Y250012D01*
X768669Y250025D01*
X768631Y250031D01*
X768606Y250038D01*
X768587Y250044D01*
X768581D01*
X768700Y250750D01*
X768825Y250700D01*
X768937Y250662D01*
X769050Y250631D01*
X769144Y250612D01*
X769225Y250600D01*
X769281Y250594D01*
X769338D01*
X769487Y250606D01*
X769613Y250631D01*
X769719Y250669D01*
X769806Y250712D01*
X769875Y250756D01*
X769919Y250794D01*
X769950Y250819D01*
X769956Y250831D01*
X769987Y250881D01*
X770019Y250931D01*
X770062Y251056D01*
X770100Y251194D01*
X770119Y251325D01*
X770131Y251444D01*
X770138Y251500D01*
Y251544D01*
X770144Y251581D01*
Y251612D01*
Y251631D01*
Y251638D01*
Y253875D01*
X768906D01*
Y254506D01*
X770144D01*
Y255756D01*
X770944Y255444D01*
D02*
G37*
G36*
X737699Y244123D02*
X737796Y244108D01*
X737883Y244083D01*
X737924Y244070D01*
X737961Y244058D01*
X737995Y244042D01*
X738024Y244029D01*
X738052Y244017D01*
X738073Y244005D01*
X738089Y243995D01*
X738105Y243989D01*
X738111Y243986D01*
X738114Y243983D01*
X738195Y243923D01*
X738267Y243864D01*
X738323Y243802D01*
X738373Y243742D01*
X738407Y243693D01*
X738423Y243671D01*
X738432Y243652D01*
X738442Y243636D01*
X738448Y243624D01*
X738454Y243618D01*
Y243615D01*
X738086Y243327D01*
X738049Y243387D01*
X738008Y243440D01*
X737967Y243483D01*
X737924Y243521D01*
X737880Y243555D01*
X737839Y243583D01*
X737799Y243605D01*
X737758Y243624D01*
X737721Y243636D01*
X737687Y243646D01*
X737655Y243655D01*
X737627Y243658D01*
X737605Y243661D01*
X737587Y243665D01*
X737574D01*
X737499Y243661D01*
X737437Y243649D01*
X737381Y243633D01*
X737331Y243611D01*
X737293Y243583D01*
X737259Y243555D01*
X737231Y243521D01*
X737209Y243490D01*
X737190Y243459D01*
X737178Y243424D01*
X737169Y243396D01*
X737162Y243371D01*
X737159Y243346D01*
X737156Y243331D01*
Y243318D01*
Y243315D01*
X737159Y243259D01*
X737169Y243200D01*
X737184Y243140D01*
X737203Y243078D01*
X737225Y243019D01*
X737250Y242956D01*
X737275Y242900D01*
X737303Y242844D01*
X737331Y242791D01*
X737356Y242744D01*
X737381Y242700D01*
X737403Y242663D01*
X737421Y242632D01*
X737437Y242610D01*
X737446Y242597D01*
X737449Y242591D01*
X738420Y241159D01*
Y241000D01*
X736404D01*
Y241484D01*
X737559D01*
X736932Y242441D01*
X736872Y242538D01*
X736819Y242629D01*
X736772Y242716D01*
X736732Y242800D01*
X736701Y242875D01*
X736673Y242947D01*
X736651Y243016D01*
X736632Y243075D01*
X736616Y243128D01*
X736607Y243178D01*
X736598Y243218D01*
X736595Y243253D01*
X736591Y243281D01*
X736588Y243299D01*
Y243312D01*
Y243315D01*
X736591Y243384D01*
X736601Y243452D01*
X736613Y243512D01*
X736629Y243571D01*
X736651Y243624D01*
X736673Y243674D01*
X736697Y243718D01*
X736723Y243758D01*
X736747Y243795D01*
X736772Y243827D01*
X736794Y243852D01*
X736816Y243874D01*
X736832Y243892D01*
X736844Y243905D01*
X736854Y243911D01*
X736857Y243914D01*
X736910Y243952D01*
X736966Y243986D01*
X737022Y244014D01*
X737084Y244039D01*
X737147Y244061D01*
X737206Y244076D01*
X737268Y244092D01*
X737325Y244101D01*
X737381Y244111D01*
X737431Y244117D01*
X737477Y244123D01*
X737518Y244126D01*
X737549Y244129D01*
X737649D01*
X737699Y244123D01*
D02*
G37*
G36*
X739574Y242145D02*
Y242079D01*
X739580Y242020D01*
X739583Y241964D01*
X739593Y241911D01*
X739599Y241864D01*
X739608Y241821D01*
X739621Y241783D01*
X739630Y241746D01*
X739640Y241715D01*
X739652Y241689D01*
X739662Y241665D01*
X739668Y241649D01*
X739677Y241633D01*
X739680Y241624D01*
X739686Y241618D01*
Y241615D01*
X739708Y241583D01*
X739733Y241559D01*
X739761Y241537D01*
X739793Y241515D01*
X739855Y241484D01*
X739917Y241465D01*
X739973Y241452D01*
X739998Y241449D01*
X740020Y241446D01*
X740039Y241443D01*
X740064D01*
X740133Y241446D01*
X740192Y241456D01*
X740248Y241468D01*
X740295Y241484D01*
X740335Y241505D01*
X740373Y241527D01*
X740404Y241552D01*
X740432Y241577D01*
X740454Y241602D01*
X740473Y241627D01*
X740485Y241649D01*
X740498Y241671D01*
X740504Y241686D01*
X740510Y241699D01*
X740513Y241708D01*
Y241711D01*
X741000D01*
X740994Y241646D01*
X740981Y241587D01*
X740969Y241527D01*
X740950Y241474D01*
X740931Y241424D01*
X740909Y241381D01*
X740888Y241337D01*
X740863Y241300D01*
X740841Y241268D01*
X740819Y241237D01*
X740800Y241212D01*
X740782Y241193D01*
X740766Y241178D01*
X740754Y241165D01*
X740747Y241159D01*
X740744Y241156D01*
X740697Y241122D01*
X740651Y241090D01*
X740597Y241066D01*
X740548Y241044D01*
X740495Y241025D01*
X740445Y241006D01*
X740345Y240984D01*
X740301Y240975D01*
X740261Y240969D01*
X740223Y240966D01*
X740189Y240963D01*
X740164Y240959D01*
X740126D01*
X740020Y240963D01*
X739924Y240972D01*
X739836Y240987D01*
X739752Y241006D01*
X739677Y241028D01*
X739608Y241053D01*
X739546Y241078D01*
X739493Y241106D01*
X739443Y241134D01*
X739403Y241159D01*
X739368Y241184D01*
X739340Y241206D01*
X739318Y241225D01*
X739303Y241240D01*
X739293Y241250D01*
X739290Y241253D01*
X739243Y241312D01*
X739203Y241377D01*
X739169Y241446D01*
X739137Y241521D01*
X739112Y241596D01*
X739091Y241671D01*
X739075Y241746D01*
X739059Y241821D01*
X739050Y241889D01*
X739041Y241955D01*
X739038Y242011D01*
X739031Y242064D01*
Y242105D01*
X739028Y242136D01*
Y242148D01*
Y242158D01*
Y242161D01*
Y242164D01*
Y244076D01*
X739574D01*
Y242145D01*
D02*
G37*
G36*
X589030Y220117D02*
Y219805D01*
X587632D01*
Y219000D01*
X587108D01*
Y219805D01*
X586796D01*
Y220239D01*
X587108D01*
Y222089D01*
X587348D01*
X589030Y220117D01*
D02*
G37*
G36*
X593307Y222104D02*
X593389Y222101D01*
X593470Y222098D01*
X593507Y222095D01*
X593538D01*
X593569Y222092D01*
X593616D01*
X593635Y222089D01*
X593647D01*
X593704Y222086D01*
X593750Y222083D01*
X593794D01*
X593831Y222079D01*
X593866D01*
X593894Y222076D01*
X593941D01*
X593956Y222073D01*
X594000D01*
Y219000D01*
X593432D01*
Y220282D01*
X593354Y220279D01*
X593286Y220276D01*
X593226Y220273D01*
X593176D01*
X593136Y220270D01*
X593086D01*
X592265Y219000D01*
X591635D01*
X592546Y220385D01*
X592499Y220404D01*
X592459Y220426D01*
X592378Y220473D01*
X592309Y220526D01*
X592250Y220576D01*
X592203Y220625D01*
X592181Y220644D01*
X592165Y220663D01*
X592153Y220679D01*
X592144Y220691D01*
X592140Y220697D01*
X592137Y220700D01*
X592109Y220744D01*
X592084Y220788D01*
X592063Y220831D01*
X592044Y220872D01*
X592016Y220956D01*
X591994Y221034D01*
X591988Y221069D01*
X591985Y221100D01*
X591981Y221128D01*
X591978Y221153D01*
X591975Y221171D01*
Y221187D01*
Y221197D01*
Y221200D01*
X591978Y221281D01*
X591988Y221359D01*
X592003Y221430D01*
X592025Y221499D01*
X592053Y221562D01*
X592084Y221621D01*
X592119Y221674D01*
X592159Y221724D01*
X592200Y221771D01*
X592247Y221811D01*
X592297Y221852D01*
X592346Y221886D01*
X592399Y221917D01*
X592452Y221945D01*
X592562Y221995D01*
X592671Y222033D01*
X592777Y222061D01*
X592877Y222079D01*
X592920Y222089D01*
X592964Y222092D01*
X593005Y222098D01*
X593039Y222101D01*
X593070Y222104D01*
X593098D01*
X593120Y222108D01*
X593223D01*
X593307Y222104D01*
D02*
G37*
G36*
X591395Y221586D02*
X589985D01*
X590134Y221306D01*
X590206Y221168D01*
X590275Y221034D01*
X590340Y220906D01*
X590403Y220778D01*
X590465Y220657D01*
X590521Y220535D01*
X590574Y220420D01*
X590627Y220307D01*
X590677Y220198D01*
X590724Y220095D01*
X590768Y219995D01*
X590811Y219899D01*
X590849Y219805D01*
X590886Y219718D01*
X590921Y219637D01*
X590952Y219559D01*
X590983Y219484D01*
X591008Y219415D01*
X591033Y219349D01*
X591058Y219290D01*
X591077Y219237D01*
X591095Y219190D01*
X591111Y219147D01*
X591123Y219106D01*
X591136Y219075D01*
X591145Y219050D01*
X591151Y219028D01*
X591158Y219012D01*
X591161Y219003D01*
Y219000D01*
X590562D01*
X590534Y219087D01*
X590506Y219175D01*
X590474Y219259D01*
X590446Y219337D01*
X590434Y219371D01*
X590421Y219406D01*
X590412Y219434D01*
X590403Y219459D01*
X590393Y219477D01*
X590390Y219493D01*
X590384Y219502D01*
Y219505D01*
X590340Y219615D01*
X590300Y219721D01*
X590256Y219824D01*
X590237Y219870D01*
X590219Y219917D01*
X590200Y219958D01*
X590184Y219995D01*
X590169Y220030D01*
X590159Y220058D01*
X590147Y220083D01*
X590141Y220098D01*
X590134Y220111D01*
Y220114D01*
X590081Y220235D01*
X590028Y220351D01*
X589978Y220457D01*
X589957Y220507D01*
X589935Y220554D01*
X589913Y220597D01*
X589897Y220635D01*
X589882Y220669D01*
X589866Y220697D01*
X589857Y220719D01*
X589847Y220738D01*
X589844Y220747D01*
X589841Y220750D01*
X589785Y220866D01*
X589732Y220975D01*
X589682Y221072D01*
X589660Y221118D01*
X589638Y221159D01*
X589619Y221197D01*
X589601Y221231D01*
X589588Y221259D01*
X589576Y221284D01*
X589563Y221306D01*
X589557Y221318D01*
X589551Y221327D01*
Y221331D01*
X589273Y221855D01*
Y222089D01*
X591395D01*
Y221586D01*
D02*
G37*
G36*
X744406Y263256D02*
X744644Y263231D01*
X744869Y263188D01*
X745075Y263131D01*
X745275Y263063D01*
X745450Y262987D01*
X745619Y262906D01*
X745762Y262825D01*
X745900Y262737D01*
X746012Y262656D01*
X746112Y262581D01*
X746194Y262512D01*
X746263Y262456D01*
X746306Y262413D01*
X746331Y262387D01*
X746344Y262375D01*
X746488Y262200D01*
X746613Y262019D01*
X746719Y261831D01*
X746812Y261637D01*
X746887Y261444D01*
X746950Y261250D01*
X747006Y261063D01*
X747050Y260881D01*
X747081Y260713D01*
X747106Y260556D01*
X747125Y260413D01*
X747137Y260294D01*
X747144Y260194D01*
Y260156D01*
X747150Y260119D01*
Y260094D01*
Y260075D01*
Y260063D01*
Y260056D01*
X747144Y259794D01*
X747119Y259544D01*
X747081Y259313D01*
X747038Y259094D01*
X746981Y258888D01*
X746919Y258700D01*
X746850Y258525D01*
X746781Y258369D01*
X746712Y258225D01*
X746644Y258106D01*
X746581Y258000D01*
X746525Y257912D01*
X746481Y257844D01*
X746444Y257794D01*
X746419Y257769D01*
X746413Y257756D01*
X746269Y257606D01*
X746112Y257469D01*
X745956Y257356D01*
X745787Y257256D01*
X745619Y257175D01*
X745456Y257106D01*
X745288Y257050D01*
X745131Y257000D01*
X744981Y256969D01*
X744844Y256938D01*
X744725Y256919D01*
X744619Y256906D01*
X744525Y256900D01*
X744462Y256894D01*
X744406D01*
X744194Y256900D01*
X743981Y256919D01*
X743787Y256950D01*
X743694Y256962D01*
X743606Y256981D01*
X743531Y256994D01*
X743456Y257006D01*
X743394Y257025D01*
X743337Y257037D01*
X743294Y257050D01*
X743262Y257056D01*
X743244Y257063D01*
X743237D01*
X743125Y257094D01*
X743025Y257131D01*
X742925Y257169D01*
X742831Y257206D01*
X742750Y257250D01*
X742675Y257288D01*
X742600Y257325D01*
X742537Y257363D01*
X742481Y257394D01*
X742431Y257425D01*
X742387Y257456D01*
X742356Y257475D01*
X742331Y257500D01*
X742306Y257512D01*
X742300Y257525D01*
X742294D01*
Y260212D01*
X743994D01*
Y259500D01*
X743138D01*
Y258050D01*
X743219Y257981D01*
X743306Y257919D01*
X743394Y257862D01*
X743488Y257819D01*
X743575Y257781D01*
X743669Y257750D01*
X743844Y257700D01*
X743919Y257681D01*
X743994Y257669D01*
X744063Y257663D01*
X744119Y257656D01*
X744169Y257650D01*
X744231D01*
X744406Y257656D01*
X744569Y257681D01*
X744719Y257713D01*
X744863Y257750D01*
X744994Y257800D01*
X745119Y257856D01*
X745231Y257912D01*
X745331Y257975D01*
X745425Y258037D01*
X745500Y258094D01*
X745569Y258150D01*
X745625Y258200D01*
X745669Y258238D01*
X745700Y258275D01*
X745719Y258294D01*
X745725Y258300D01*
X745819Y258425D01*
X745906Y258562D01*
X745975Y258700D01*
X746037Y258844D01*
X746094Y258987D01*
X746138Y259131D01*
X746169Y259269D01*
X746200Y259406D01*
X746225Y259531D01*
X746238Y259644D01*
X746250Y259750D01*
X746263Y259844D01*
Y259919D01*
X746269Y259969D01*
Y260006D01*
Y260019D01*
X746263Y260225D01*
X746244Y260419D01*
X746219Y260606D01*
X746181Y260775D01*
X746138Y260938D01*
X746094Y261087D01*
X746044Y261219D01*
X745988Y261344D01*
X745937Y261456D01*
X745888Y261550D01*
X745844Y261631D01*
X745800Y261700D01*
X745762Y261756D01*
X745738Y261794D01*
X745719Y261819D01*
X745713Y261825D01*
X745600Y261944D01*
X745487Y262050D01*
X745363Y262144D01*
X745237Y262225D01*
X745106Y262287D01*
X744981Y262344D01*
X744856Y262387D01*
X744737Y262425D01*
X744625Y262456D01*
X744519Y262475D01*
X744425Y262494D01*
X744344Y262500D01*
X744281Y262506D01*
X744231Y262512D01*
X744187D01*
X744075Y262506D01*
X743956Y262494D01*
X743844Y262469D01*
X743731Y262438D01*
X743525Y262363D01*
X743425Y262319D01*
X743331Y262275D01*
X743250Y262231D01*
X743169Y262188D01*
X743106Y262150D01*
X743044Y262112D01*
X743000Y262081D01*
X742969Y262056D01*
X742944Y262044D01*
X742938Y262037D01*
X742588Y262737D01*
X742706Y262831D01*
X742831Y262913D01*
X742956Y262981D01*
X743087Y263044D01*
X743219Y263094D01*
X743350Y263138D01*
X743475Y263175D01*
X743600Y263200D01*
X743713Y263225D01*
X743819Y263244D01*
X743913Y263250D01*
X743994Y263263D01*
X744063D01*
X744112Y263269D01*
X744156D01*
X744406Y263256D01*
D02*
G37*
G36*
X782456Y261581D02*
X782606Y261562D01*
X782750Y261531D01*
X782881Y261494D01*
X783006Y261450D01*
X783125Y261394D01*
X783238Y261344D01*
X783337Y261287D01*
X783425Y261225D01*
X783506Y261175D01*
X783575Y261125D01*
X783638Y261075D01*
X783681Y261037D01*
X783719Y261006D01*
X783738Y260987D01*
X783744Y260981D01*
X783862Y260850D01*
X783969Y260713D01*
X784056Y260569D01*
X784131Y260419D01*
X784200Y260275D01*
X784256Y260125D01*
X784300Y259981D01*
X784331Y259838D01*
X784363Y259706D01*
X784381Y259588D01*
X784400Y259481D01*
X784406Y259387D01*
X784412Y259306D01*
X784419Y259250D01*
Y259212D01*
Y259206D01*
Y259200D01*
X784412Y259006D01*
X784387Y258819D01*
X784356Y258644D01*
X784319Y258481D01*
X784269Y258325D01*
X784212Y258188D01*
X784150Y258063D01*
X784088Y257944D01*
X784031Y257844D01*
X783969Y257750D01*
X783913Y257675D01*
X783862Y257612D01*
X783825Y257556D01*
X783787Y257525D01*
X783769Y257500D01*
X783763Y257494D01*
X783650Y257394D01*
X783531Y257306D01*
X783406Y257225D01*
X783287Y257162D01*
X783162Y257106D01*
X783044Y257056D01*
X782931Y257019D01*
X782819Y256994D01*
X782713Y256969D01*
X782619Y256950D01*
X782531Y256938D01*
X782463Y256925D01*
X782400D01*
X782356Y256919D01*
X782319D01*
X782100Y256925D01*
X781900Y256944D01*
X781719Y256975D01*
X781637Y256988D01*
X781556Y257006D01*
X781488Y257025D01*
X781425Y257037D01*
X781375Y257056D01*
X781325Y257069D01*
X781294Y257075D01*
X781262Y257087D01*
X781250Y257094D01*
X781244D01*
X781112Y257144D01*
X780994Y257200D01*
X780894Y257250D01*
X780819Y257300D01*
X780756Y257344D01*
X780713Y257381D01*
X780681Y257406D01*
X780675Y257413D01*
X781012Y257987D01*
X781100Y257919D01*
X781194Y257856D01*
X781287Y257806D01*
X781388Y257763D01*
X781481Y257725D01*
X781581Y257687D01*
X781763Y257644D01*
X781844Y257625D01*
X781919Y257612D01*
X781987Y257606D01*
X782050Y257600D01*
X782094Y257594D01*
X782163D01*
X782275Y257600D01*
X782375Y257612D01*
X782475Y257625D01*
X782569Y257650D01*
X782656Y257681D01*
X782737Y257713D01*
X782812Y257744D01*
X782875Y257781D01*
X782937Y257812D01*
X782994Y257844D01*
X783038Y257875D01*
X783075Y257906D01*
X783106Y257931D01*
X783125Y257944D01*
X783138Y257956D01*
X783144Y257962D01*
X783219Y258044D01*
X783287Y258137D01*
X783344Y258231D01*
X783394Y258331D01*
X783437Y258431D01*
X783469Y258531D01*
X783500Y258631D01*
X783519Y258725D01*
X783537Y258819D01*
X783550Y258900D01*
X783563Y258981D01*
X783569Y259044D01*
X783575Y259100D01*
Y259138D01*
Y259169D01*
Y259175D01*
X780331D01*
X780306Y259256D01*
X780294Y259344D01*
X780281Y259425D01*
X780269Y259500D01*
Y259569D01*
X780263Y259619D01*
Y259650D01*
Y259663D01*
X780269Y259819D01*
X780288Y259969D01*
X780312Y260106D01*
X780344Y260238D01*
X780387Y260363D01*
X780431Y260475D01*
X780481Y260581D01*
X780525Y260675D01*
X780575Y260756D01*
X780625Y260831D01*
X780669Y260894D01*
X780713Y260950D01*
X780744Y260987D01*
X780769Y261019D01*
X780788Y261037D01*
X780794Y261044D01*
X780900Y261138D01*
X781019Y261225D01*
X781138Y261294D01*
X781262Y261356D01*
X781388Y261413D01*
X781512Y261456D01*
X781637Y261494D01*
X781756Y261519D01*
X781869Y261544D01*
X781975Y261556D01*
X782069Y261569D01*
X782150Y261581D01*
X782212D01*
X782263Y261588D01*
X782306D01*
X782456Y261581D01*
D02*
G37*
%LPC*%
G36*
X782319Y260912D02*
X782269D01*
X782163Y260906D01*
X782062Y260900D01*
X781969Y260881D01*
X781881Y260856D01*
X781806Y260831D01*
X781731Y260800D01*
X781663Y260769D01*
X781600Y260737D01*
X781544Y260700D01*
X781500Y260669D01*
X781456Y260637D01*
X781425Y260613D01*
X781394Y260588D01*
X781375Y260569D01*
X781369Y260562D01*
X781362Y260556D01*
X781306Y260494D01*
X781262Y260431D01*
X781219Y260363D01*
X781187Y260300D01*
X781131Y260162D01*
X781094Y260037D01*
X781075Y259925D01*
X781063Y259875D01*
Y259838D01*
X781056Y259800D01*
Y259775D01*
Y259763D01*
Y259756D01*
X783556D01*
X783544Y259844D01*
X783525Y259931D01*
X783475Y260087D01*
X783413Y260225D01*
X783344Y260344D01*
X783281Y260437D01*
X783250Y260475D01*
X783225Y260512D01*
X783200Y260538D01*
X783181Y260556D01*
X783175Y260562D01*
X783169Y260569D01*
X783100Y260631D01*
X783025Y260681D01*
X782950Y260731D01*
X782875Y260769D01*
X782725Y260831D01*
X782581Y260869D01*
X782519Y260881D01*
X782456Y260894D01*
X782406Y260900D01*
X782356Y260906D01*
X782319Y260912D01*
D02*
G37*
G36*
X587632Y221162D02*
Y220239D01*
X588418D01*
X587632Y221162D01*
D02*
G37*
G36*
X593282Y221615D02*
X593183D01*
X593120Y221611D01*
X593064Y221605D01*
X593011Y221602D01*
X592961Y221593D01*
X592917Y221586D01*
X592880Y221577D01*
X592846Y221571D01*
X592814Y221562D01*
X592786Y221552D01*
X592765Y221546D01*
X592746Y221540D01*
X592733Y221533D01*
X592724Y221527D01*
X592718Y221524D01*
X592715D01*
X592683Y221505D01*
X592658Y221483D01*
X592633Y221462D01*
X592615Y221437D01*
X592584Y221384D01*
X592565Y221331D01*
X592552Y221284D01*
X592549Y221262D01*
X592546Y221243D01*
X592543Y221228D01*
Y221215D01*
Y221209D01*
Y221206D01*
X592546Y221156D01*
X592549Y221109D01*
X592559Y221065D01*
X592568Y221028D01*
X592580Y220994D01*
X592593Y220963D01*
X592608Y220934D01*
X592621Y220913D01*
X592637Y220891D01*
X592652Y220875D01*
X592677Y220847D01*
X592696Y220835D01*
X592699Y220828D01*
X592702D01*
X592733Y220813D01*
X592771Y220797D01*
X592849Y220775D01*
X592930Y220757D01*
X593014Y220747D01*
X593051Y220744D01*
X593086Y220741D01*
X593120Y220738D01*
X593148D01*
X593170Y220735D01*
X593236D01*
X593273Y220738D01*
X593310D01*
X593348Y220741D01*
X593379Y220744D01*
X593407D01*
X593426Y220747D01*
X593432D01*
Y221599D01*
X593364Y221608D01*
X593332Y221611D01*
X593304D01*
X593282Y221615D01*
D02*
G37*
G36*
X777506Y253938D02*
X777456D01*
X777350Y253931D01*
X777244Y253919D01*
X777150Y253894D01*
X777063Y253869D01*
X776981Y253825D01*
X776900Y253781D01*
X776769Y253675D01*
X776650Y253550D01*
X776556Y253406D01*
X776475Y253256D01*
X776412Y253100D01*
X776363Y252944D01*
X776325Y252794D01*
X776300Y252650D01*
X776281Y252525D01*
X776269Y252419D01*
Y252375D01*
X776263Y252338D01*
Y252306D01*
Y252281D01*
Y252269D01*
Y252262D01*
X776269Y252119D01*
X776275Y251981D01*
X776294Y251856D01*
X776312Y251737D01*
X776337Y251625D01*
X776363Y251525D01*
X776394Y251431D01*
X776419Y251344D01*
X776450Y251269D01*
X776481Y251206D01*
X776506Y251150D01*
X776531Y251100D01*
X776550Y251069D01*
X776569Y251038D01*
X776575Y251025D01*
X776581Y251019D01*
X776644Y250938D01*
X776713Y250869D01*
X776781Y250813D01*
X776850Y250756D01*
X776925Y250712D01*
X777000Y250681D01*
X777069Y250650D01*
X777138Y250625D01*
X777262Y250594D01*
X777319Y250581D01*
X777362Y250575D01*
X777400D01*
X777431Y250569D01*
X777456D01*
X777563Y250575D01*
X777669Y250588D01*
X777763Y250612D01*
X777850Y250644D01*
X777931Y250681D01*
X778013Y250725D01*
X778144Y250831D01*
X778263Y250962D01*
X778356Y251106D01*
X778438Y251256D01*
X778500Y251419D01*
X778550Y251575D01*
X778587Y251725D01*
X778613Y251869D01*
X778631Y252000D01*
X778644Y252106D01*
Y252150D01*
X778650Y252187D01*
Y252219D01*
Y252244D01*
Y252256D01*
Y252262D01*
X778644Y252406D01*
X778638Y252537D01*
X778619Y252669D01*
X778600Y252781D01*
X778575Y252894D01*
X778550Y252994D01*
X778519Y253087D01*
X778487Y253169D01*
X778456Y253244D01*
X778425Y253306D01*
X778400Y253362D01*
X778375Y253406D01*
X778356Y253444D01*
X778337Y253469D01*
X778331Y253481D01*
X778325Y253487D01*
X778263Y253569D01*
X778194Y253638D01*
X778125Y253694D01*
X778050Y253750D01*
X777981Y253794D01*
X777906Y253825D01*
X777838Y253856D01*
X777769Y253881D01*
X777644Y253912D01*
X777594Y253925D01*
X777544Y253931D01*
X777506Y253938D01*
D02*
G37*
G36*
X749981Y261631D02*
X749106Y258919D01*
X750931D01*
X749981Y261631D01*
D02*
G37*
G36*
X782438Y253912D02*
X782406D01*
X782263Y253906D01*
X782131Y253894D01*
X782013Y253875D01*
X781900Y253850D01*
X781800Y253819D01*
X781706Y253787D01*
X781619Y253750D01*
X781550Y253713D01*
X781481Y253675D01*
X781425Y253638D01*
X781381Y253606D01*
X781344Y253575D01*
X781313Y253550D01*
X781294Y253531D01*
X781281Y253519D01*
X781275Y253513D01*
X781213Y253431D01*
X781156Y253344D01*
X781112Y253250D01*
X781069Y253150D01*
X781031Y253050D01*
X781006Y252944D01*
X780963Y252744D01*
X780950Y252650D01*
X780937Y252556D01*
X780931Y252475D01*
X780925Y252406D01*
X780919Y252350D01*
Y252306D01*
Y252281D01*
Y252269D01*
X780925Y252119D01*
X780937Y251975D01*
X780956Y251844D01*
X780981Y251719D01*
X781019Y251600D01*
X781056Y251494D01*
X781100Y251394D01*
X781150Y251300D01*
X781206Y251219D01*
X781262Y251137D01*
X781325Y251069D01*
X781388Y251000D01*
X781525Y250894D01*
X781663Y250806D01*
X781800Y250731D01*
X781938Y250681D01*
X782062Y250644D01*
X782175Y250619D01*
X782269Y250606D01*
X782306Y250600D01*
X782344D01*
X782369Y250594D01*
X782406D01*
X782494Y250600D01*
X782575Y250612D01*
X782656Y250625D01*
X782731Y250644D01*
X782794Y250662D01*
X782837Y250681D01*
X782869Y250688D01*
X782881Y250694D01*
X782963Y250731D01*
X783031Y250769D01*
X783087Y250806D01*
X783131Y250844D01*
X783162Y250869D01*
X783181Y250894D01*
X783194Y250906D01*
X783200Y250912D01*
Y253525D01*
X783144Y253581D01*
X783081Y253631D01*
X783019Y253675D01*
X782956Y253719D01*
X782900Y253750D01*
X782856Y253775D01*
X782831Y253787D01*
X782819Y253794D01*
X782731Y253831D01*
X782650Y253863D01*
X782581Y253881D01*
X782519Y253900D01*
X782475Y253906D01*
X782438Y253912D01*
D02*
G37*
G36*
X770006Y260912D02*
X769956D01*
X769850Y260906D01*
X769750Y260900D01*
X769656Y260881D01*
X769569Y260856D01*
X769494Y260831D01*
X769419Y260800D01*
X769350Y260769D01*
X769287Y260737D01*
X769231Y260700D01*
X769187Y260669D01*
X769144Y260637D01*
X769112Y260613D01*
X769081Y260588D01*
X769063Y260569D01*
X769056Y260562D01*
X769050Y260556D01*
X768994Y260494D01*
X768950Y260431D01*
X768906Y260363D01*
X768875Y260300D01*
X768819Y260162D01*
X768781Y260037D01*
X768762Y259925D01*
X768750Y259875D01*
Y259838D01*
X768744Y259800D01*
Y259775D01*
Y259763D01*
Y259756D01*
X771244D01*
X771231Y259844D01*
X771212Y259931D01*
X771163Y260087D01*
X771100Y260225D01*
X771031Y260344D01*
X770969Y260437D01*
X770937Y260475D01*
X770913Y260512D01*
X770888Y260538D01*
X770869Y260556D01*
X770862Y260562D01*
X770856Y260569D01*
X770787Y260631D01*
X770713Y260681D01*
X770638Y260731D01*
X770563Y260769D01*
X770412Y260831D01*
X770269Y260869D01*
X770206Y260881D01*
X770144Y260894D01*
X770094Y260900D01*
X770044Y260906D01*
X770006Y260912D01*
D02*
G37*
%LPD*%
D11*
X579500Y213543D02*
D03*
Y206457D02*
D03*
D33*
X518583Y257417D02*
X532657D01*
X512250Y263750D02*
X518583Y257417D01*
X532657D02*
X538157Y251917D01*
X512250Y263750D02*
Y305750D01*
X773500Y202000D02*
X779716Y208217D01*
X769748Y202000D02*
X773500D01*
X779716Y208217D02*
Y212653D01*
X682333Y176750D02*
X689500Y183917D01*
X623333Y176750D02*
X682333D01*
X620500Y173917D02*
X623333Y176750D01*
X636413Y163000D02*
X636457Y163043D01*
X629500Y163000D02*
X636413D01*
X604500Y161476D02*
Y165417D01*
Y161476D02*
X622476Y143500D01*
X628500D01*
X632500Y139500D02*
X675917D01*
X680000Y135417D01*
X695549Y211000D02*
X699049Y207500D01*
X663583Y211000D02*
X695549D01*
X660000Y207417D02*
X663583Y211000D01*
X709000Y207500D02*
X713500Y212000D01*
X699049Y207500D02*
X709000D01*
X713500Y212000D02*
Y215953D01*
X709536Y219917D02*
X713500Y215953D01*
X709504Y219917D02*
X709536D01*
X707750Y221672D02*
X709504Y219917D01*
X707750Y221672D02*
Y228000D01*
X617200Y222117D02*
X628400D01*
X578500Y256917D02*
X581500Y253917D01*
X450000Y307417D02*
X455000Y312417D01*
X402500Y176417D02*
X426000D01*
X428500Y178917D01*
X416500Y185917D02*
X428500D01*
Y178917D02*
Y185417D01*
X402500Y199917D02*
X416500Y185917D01*
X431000Y177917D02*
X432000Y178917D01*
Y192917D01*
X415000Y209917D02*
X432000Y192917D01*
X434000Y174417D02*
Y193746D01*
X417000Y210746D02*
X434000Y193746D01*
X417000Y210746D02*
Y274417D01*
X415000Y209917D02*
Y260417D01*
X393000Y179417D02*
X411172D01*
X415672Y183917D01*
X414500Y170917D02*
X424000D01*
X431000Y177917D01*
X424000Y179917D02*
X425000D01*
X351000Y285017D02*
X357500Y278517D01*
Y222917D02*
Y278517D01*
Y222917D02*
X370500Y209917D01*
X378000D01*
X351000Y219917D02*
X357000Y213917D01*
X351000Y219917D02*
Y225817D01*
X341000Y214917D02*
X342000Y213917D01*
X341000Y214917D02*
Y225817D01*
Y285017D02*
Y297417D01*
X538157Y251917D02*
X549500D01*
X556500Y258917D01*
X566500D01*
X455000Y312417D02*
X473500D01*
X482441Y321359D01*
X478000Y326417D02*
X483500D01*
X467512Y315929D02*
X478000Y326417D01*
X420000Y183917D02*
X424000Y179917D01*
X446500Y216417D02*
X447500Y217417D01*
X446500Y190417D02*
Y216417D01*
X402500Y199917D02*
Y253917D01*
X406500Y257917D01*
X400500Y199089D02*
X415672Y183917D01*
X400500Y199089D02*
Y257917D01*
X402000Y259417D01*
X415672Y183917D02*
X420000D01*
X406500Y257917D02*
Y270917D01*
X412000Y263417D02*
X415000Y260417D01*
X412000Y279417D02*
X417000Y274417D01*
X402000Y275417D02*
X406500Y270917D01*
X433757Y174417D02*
X434000D01*
X412000Y277074D02*
Y279417D01*
X711000Y277917D02*
X711500Y278417D01*
X581500Y247417D02*
X582000Y246917D01*
X464500Y201417D02*
X470000Y206917D01*
Y212417D01*
X464500Y192917D02*
Y201417D01*
X687500Y254917D02*
Y266417D01*
X676558Y166942D02*
X684533Y174917D01*
X686000D01*
X610467Y219667D02*
X611718Y218417D01*
X613500D01*
X617200Y222117D01*
X600177Y222417D02*
X602927Y219667D01*
X610467D01*
X599000Y222417D02*
X600177D01*
X628400Y222117D02*
X628450Y222167D01*
X566500Y258917D02*
X568000Y257417D01*
X682904Y275917D02*
X684732D01*
X687482Y278667D01*
X705300D01*
X710550Y273417D02*
X720000D01*
X683750Y281167D02*
X706967D01*
X705300Y278667D02*
X710550Y273417D01*
X706967Y281167D02*
X710218Y277917D01*
X720000Y273417D02*
X721000Y272417D01*
X710218Y277917D02*
X711000D01*
X721000Y272417D02*
X725500D01*
X711500Y277417D02*
Y278417D01*
X682500Y279917D02*
X683750Y281167D01*
X685500Y268417D02*
X687500Y266417D01*
Y254917D02*
X700750Y241667D01*
Y235000D02*
Y241667D01*
X686000Y174917D02*
X692000Y180917D01*
X694000D01*
X697000Y183917D02*
X698535D01*
X694000Y180917D02*
X697000Y183917D01*
X689500D02*
X693500D01*
X737303Y183114D02*
X738500Y181917D01*
X699339Y183114D02*
X737303D01*
X698535Y183917D02*
X699339Y183114D01*
X700750Y235000D02*
X707750Y228000D01*
X771842Y242181D02*
X775779D01*
X767906D02*
X771842D01*
X763969D02*
X767906D01*
X760032D02*
X763969D01*
X756095D02*
X760032D01*
X752157D02*
X756095D01*
X748220D02*
X752157D01*
X744283D02*
X748220D01*
X760032Y235386D02*
X762500Y232917D01*
X760032Y235386D02*
Y242181D01*
X779716D02*
X782764D01*
X787500Y246917D01*
X549000Y157417D02*
Y160559D01*
X542142Y167417D02*
X549000Y160559D01*
X539500Y167417D02*
X542142D01*
X628500Y143500D02*
X632500Y139500D01*
X581500Y247417D02*
Y253917D01*
X512250Y305750D02*
X514000Y307500D01*
D34*
X673333Y181750D02*
X679333Y187750D01*
X606083Y185917D02*
X610250Y181750D01*
X613839Y184750D02*
X652675D01*
X607089Y191500D02*
X613839Y184750D01*
X672504Y183750D02*
X678504Y189750D01*
X613425Y183750D02*
X672504D01*
X606675Y190500D02*
X613425Y183750D01*
X672919Y182750D02*
X678919Y188750D01*
X613010Y182750D02*
X672919D01*
X606260Y189500D02*
X613010Y182750D01*
X610250Y181750D02*
X673333D01*
X652675Y184750D02*
X660861Y192936D01*
X652260Y185750D02*
X660447Y193936D01*
X645490Y189000D02*
X648740Y185750D01*
X651846Y186750D02*
X660033Y194936D01*
X645404Y190500D02*
X649154Y186750D01*
X651432Y187750D02*
X659618Y195936D01*
X645818Y191500D02*
X649568Y187750D01*
X648740Y185750D02*
X652260D01*
X649154Y186750D02*
X651846D01*
X649568Y187750D02*
X651432D01*
X588345Y189500D02*
X606260D01*
X567503Y187000D02*
X569003Y185500D01*
X561583Y187000D02*
X567503D01*
X561000Y186417D02*
X561583Y187000D01*
X569003Y185500D02*
X586089D01*
X585757Y184417D02*
X588757Y181417D01*
X565000Y184417D02*
X585757D01*
X586089Y185500D02*
X589172Y182417D01*
X589586Y183417D02*
X604743D01*
X584086Y188917D02*
X589586Y183417D01*
X567000Y188917D02*
X584086D01*
X588500Y185917D02*
X606083D01*
X588757Y181417D02*
X603914D01*
X589172Y182417D02*
X604328D01*
X570332Y227750D02*
X572400D01*
X570082Y228000D02*
X570332Y227750D01*
X560475Y228000D02*
X570082D01*
X569668Y227000D02*
X573168Y223500D01*
X579500D01*
X568193Y226000D02*
X569500Y224693D01*
X561303Y226000D02*
X568193D01*
X560889Y227000D02*
X569668D01*
X545053Y220667D02*
X549136Y224750D01*
X544639Y221667D02*
X548722Y225750D01*
X544225Y222667D02*
X548308Y226750D01*
X547893Y227750D02*
X560225D01*
X544643Y224500D02*
X547893Y227750D01*
X548308Y226750D02*
X560639D01*
X548722Y225750D02*
X561053D01*
X549136Y224750D02*
X561468D01*
X510000Y226417D02*
X511750Y228167D01*
X506000Y229500D02*
X559500D01*
X507000Y231500D02*
X559000D01*
X513500Y225917D02*
X514750Y227167D01*
X534525Y225417D02*
X535275Y226167D01*
X520500Y225417D02*
X534525D01*
X526904Y244500D02*
X535111D01*
X509000Y262404D02*
X526904Y244500D01*
X527318Y245500D02*
X535525D01*
X510000Y262818D02*
X527318Y245500D01*
X518315Y255917D02*
X530000D01*
X511000Y263232D02*
X518315Y255917D01*
X530000D02*
X535500Y250417D01*
X509000Y262404D02*
Y308510D01*
X511000Y263232D02*
Y307682D01*
X510000Y262818D02*
Y308096D01*
X517831Y243500D02*
X534697D01*
X508000Y253331D02*
X517831Y243500D01*
X507000Y252917D02*
X517417Y242500D01*
X507000Y252917D02*
Y309339D01*
X517417Y242500D02*
X534282D01*
X602397Y262167D02*
X606740D01*
X597000Y256770D02*
X602397Y262167D01*
X603000Y260917D02*
X613500D01*
X598000Y255917D02*
X603000Y260917D01*
X606250Y259167D02*
X608225D01*
X605750Y258667D02*
X606250Y259167D01*
X605750Y256692D02*
Y258667D01*
X600326Y267167D02*
X608811D01*
X589500Y256341D02*
X600326Y267167D01*
X608811D02*
X608914Y267064D01*
X608500Y266064D02*
X610482D01*
X608396Y266167D02*
X608500Y266064D01*
X600741Y266167D02*
X608396D01*
X590500Y255927D02*
X600741Y266167D01*
X608086Y265064D02*
X610896D01*
X607982Y265167D02*
X608086Y265064D01*
X601155Y265167D02*
X607982D01*
X591500Y255512D02*
X601155Y265167D01*
X607672Y264064D02*
X612043D01*
X607568Y264167D02*
X607672Y264064D01*
X601569Y264167D02*
X607568D01*
X592500Y255098D02*
X601569Y264167D01*
X607257Y263064D02*
X612457D01*
X607154Y263167D02*
X607257Y263064D01*
X601983Y263167D02*
X607154D01*
X595311Y256495D02*
X601983Y263167D01*
X613500Y260917D02*
X615000Y262417D01*
X606843Y262064D02*
X612872D01*
X615225Y264417D01*
X614811Y265417D02*
X619000D01*
X612457Y263064D02*
X614811Y265417D01*
X614397Y266417D02*
X618475D01*
X612043Y264064D02*
X614397Y266417D01*
X614000Y269581D02*
Y270917D01*
X610482Y266064D02*
X614000Y269581D01*
X611568Y269096D02*
Y271985D01*
X609536Y267064D02*
X611568Y269096D01*
X608914Y267064D02*
X609536D01*
X610464Y269407D02*
Y272296D01*
X609225Y268167D02*
X610464Y269407D01*
X599912Y268167D02*
X609225D01*
X607738Y269417D02*
X608500Y270179D01*
X602138Y269417D02*
X607738D01*
X610896Y265064D02*
X613250Y267417D01*
X604211Y271417D02*
X605000D01*
X588500Y256755D02*
X599912Y268167D01*
X600591Y275917D02*
X625000D01*
X627500Y273417D01*
X623000Y277917D02*
X624000Y278917D01*
X599763Y277917D02*
X623000D01*
X623500Y276917D02*
X624000Y277417D01*
X600177Y276917D02*
X623500D01*
X620475Y274917D02*
X623250Y272142D01*
X601328Y274917D02*
X620475D01*
X619000Y273917D02*
X621500Y271417D01*
X612086Y273917D02*
X619000D01*
X586525Y264679D02*
X599763Y277917D01*
X624000Y277417D02*
X628000D01*
X628671Y276746D01*
X624000Y278917D02*
X629000D01*
X789250Y319667D02*
X802459Y306459D01*
X774833Y319667D02*
X789250D01*
X792000Y308917D02*
Y310000D01*
X783333Y318667D02*
X792000Y310000D01*
X774419Y318667D02*
X783333D01*
X782164Y317667D02*
X789500Y310331D01*
X773907Y317667D02*
X782164D01*
X709750Y319667D02*
X773419D01*
X774419Y318667D01*
X773833Y320667D02*
X774833Y319667D01*
X765417Y320667D02*
X773833D01*
X773157Y318417D02*
X773907Y317667D01*
X772743Y317417D02*
X773493Y316667D01*
X773078Y315667D02*
X781093D01*
X772328Y316417D02*
X773078Y315667D01*
X771500Y314417D02*
X776000Y309917D01*
X771914Y315417D02*
X774414Y312917D01*
X633731Y315417D02*
X771914D01*
X632902Y317417D02*
X772743D01*
X633317Y316417D02*
X772328D01*
X634145Y314417D02*
X771500D01*
X704000Y325417D02*
X709750Y319667D01*
X632488Y318417D02*
X773157D01*
X750510Y313417D02*
X753010Y310917D01*
X634559Y313417D02*
X750510D01*
X750096Y312417D02*
X752596Y309917D01*
X634973Y312417D02*
X750096D01*
X749682Y311417D02*
X752182Y308917D01*
X635388Y311417D02*
X749682D01*
X762667Y323417D02*
X765417Y320667D01*
X774414Y312917D02*
X780500D01*
X766399Y195000D02*
X790654D01*
X762149Y190750D02*
X766399Y195000D01*
X762564Y189750D02*
X766814Y194000D01*
X762978Y188750D02*
X767228Y193000D01*
X791068Y194000D02*
X812000Y214932D01*
X766814Y194000D02*
X791068D01*
X791482Y193000D02*
X809243Y210760D01*
X767228Y193000D02*
X791482D01*
X791896Y192000D02*
X809657Y209760D01*
X767642Y192000D02*
X791896D01*
X763392Y187750D02*
X767642Y192000D01*
X790654Y195000D02*
X807500Y211846D01*
X790240Y196000D02*
X806500Y212260D01*
X765985Y196000D02*
X790240D01*
X789825Y197000D02*
X805500Y212675D01*
X765571Y197000D02*
X789825D01*
X789411Y198000D02*
X804500Y213089D01*
X765157Y198000D02*
X789411D01*
X788997Y199000D02*
X803500Y213503D01*
X764743Y199000D02*
X788997D01*
X761735Y191750D02*
X765985Y196000D01*
X761321Y192750D02*
X765571Y197000D01*
X760907Y193750D02*
X765157Y198000D01*
X760493Y194750D02*
X764743Y199000D01*
X678504Y189750D02*
X762564D01*
X685583Y190750D02*
X762149D01*
X685997Y191750D02*
X761735D01*
X686411Y192750D02*
X761321D01*
X686825Y193750D02*
X760907D01*
X687240Y194750D02*
X760493D01*
X760078Y195750D02*
X771842Y207514D01*
X687654Y195750D02*
X760078D01*
X759664Y196750D02*
X764968Y202054D01*
X688068Y196750D02*
X759664D01*
X760000Y198500D02*
X763969Y202468D01*
X692000Y198500D02*
X760000D01*
X759000Y199500D02*
X761500Y202000D01*
X702422Y199500D02*
X759000D01*
X678919Y188750D02*
X762978D01*
X684396Y191936D02*
X685583Y190750D01*
X684810Y192936D02*
X685997Y191750D01*
X685225Y193936D02*
X686411Y192750D01*
X685639Y194936D02*
X686825Y193750D01*
X686053Y195936D02*
X687240Y194750D01*
X686404Y197000D02*
X687654Y195750D01*
X686818Y198000D02*
X688068Y196750D01*
X679333Y187750D02*
X763392D01*
X691500Y199000D02*
X692000Y198500D01*
X615235Y211500D02*
X618485Y208250D01*
X606500Y211500D02*
X615235D01*
X615649Y212500D02*
X618899Y209250D01*
X606914Y212500D02*
X615649D01*
X607328Y213500D02*
X620641D01*
X621640Y214500D01*
X632500Y211500D02*
X640500Y203500D01*
X625342Y217500D02*
X628342Y214500D01*
X625760Y215667D02*
X627928Y213500D01*
X626500Y212500D02*
X704000D01*
X624500Y214500D02*
X626500Y212500D01*
X627928Y213500D02*
X706500D01*
X628342Y214500D02*
X710667D01*
X679500Y201000D02*
X683417Y204917D01*
X639513Y201000D02*
X679500D01*
X682083Y200000D02*
X683583Y201500D01*
X639099Y200000D02*
X682083D01*
X687296Y198936D02*
X688481D01*
X687232Y199000D02*
X687296Y198936D01*
X619497Y199000D02*
X687232D01*
X619911Y198000D02*
X686818D01*
X620325Y197000D02*
X686404D01*
X647222Y243250D02*
X649186Y241286D01*
X649600Y242286D02*
X660368D01*
X640947Y243250D02*
X647222D01*
X649186Y241286D02*
X660783D01*
X639858Y247167D02*
X641775Y245250D01*
X629947Y247167D02*
X639858D01*
X639444Y246167D02*
X641361Y244250D01*
X630361Y246167D02*
X639444D01*
X639780Y244417D02*
X640947Y243250D01*
X637500Y244417D02*
X639780D01*
X648050Y245250D02*
X648383Y244917D01*
X641775Y245250D02*
X648050D01*
X647636Y244250D02*
X649600Y242286D01*
X641361Y244250D02*
X647636D01*
X648383Y244917D02*
X660000D01*
X761500Y202000D02*
Y205299D01*
X760032Y206768D02*
X761500Y205299D01*
X760032Y206768D02*
Y212653D01*
X771842Y207514D02*
Y212653D01*
X764968Y203640D02*
X767906Y206577D01*
X764968Y202054D02*
Y203640D01*
X763969Y202468D02*
Y212653D01*
X767906Y206577D02*
Y212653D01*
X752157Y205572D02*
Y212653D01*
X748586Y202000D02*
X752157Y205572D01*
X702750Y202000D02*
X748586D01*
X756095Y208095D02*
Y212653D01*
X749000Y201000D02*
X756095Y208095D01*
X702336Y201000D02*
X749000D01*
X700504Y201417D02*
X702422Y199500D01*
X665000Y173000D02*
X677083Y160917D01*
X631682Y173000D02*
X665000D01*
X630432Y171750D02*
X631682Y173000D01*
X677497Y161917D02*
X690151D01*
X665414Y174000D02*
X677497Y161917D01*
X677083Y160917D02*
X689737D01*
X689911Y162917D02*
X691083D01*
X685446Y167383D02*
X689911Y162917D01*
X690151Y161917D02*
X706568Y145500D01*
X689737Y160917D02*
X706154Y144500D01*
X706568Y145500D02*
X750414D01*
X706154Y144500D02*
X750000D01*
X590656Y216819D02*
X593196D01*
X589725Y217750D02*
X590656Y216819D01*
X647882Y263275D02*
X649157Y262000D01*
X647250Y263275D02*
X647882D01*
X640804Y262547D02*
X641852Y261500D01*
X640804Y262547D02*
X640804D01*
X647250Y258250D02*
X650583Y254917D01*
X637917Y255417D02*
X641000Y258500D01*
X647566Y259348D02*
X648164Y258750D01*
X639836D02*
X640804Y259719D01*
X639672Y260000D02*
X640804Y261133D01*
X639849Y264917D02*
X642266Y262500D01*
X643118Y258250D02*
X647250D01*
X642868Y258500D02*
X643118Y258250D01*
X641000Y258500D02*
X642868D01*
X647566Y259348D02*
X647566D01*
X647468Y259250D02*
X647566Y259348D01*
X643533Y259250D02*
X647468D01*
X643283Y259500D02*
X643533Y259250D01*
X641023Y259500D02*
X643283D01*
X647566Y260763D02*
X648328Y260000D01*
X647566Y260763D02*
X647566D01*
X647053Y260250D02*
X647566Y260763D01*
X643947Y260250D02*
X647053D01*
X643697Y260500D02*
X643947Y260250D01*
X641437Y260500D02*
X643697D01*
X647566Y262177D02*
X648743Y261000D01*
X647566Y262177D02*
X647566D01*
X646639Y261250D02*
X647566Y262177D01*
X644361Y261250D02*
X646639D01*
X644111Y261500D02*
X644361Y261250D01*
X641852Y261500D02*
X644111D01*
X646225Y262250D02*
X647250Y263275D01*
X644775Y262250D02*
X646225D01*
X644525Y262500D02*
X644775Y262250D01*
X642266Y262500D02*
X644525D01*
X640804Y259719D02*
X641023Y259500D01*
X640804Y259719D02*
X640804D01*
Y261133D02*
X641437Y260500D01*
X640804Y261133D02*
X640804D01*
X639580Y261323D02*
X640804Y262547D01*
X649157Y262000D02*
X652732D01*
X648743Y261000D02*
X652318D01*
X639580Y261323D02*
X639580D01*
X639460Y261443D02*
X639580Y261323D01*
X648328Y260000D02*
X651903D01*
X639489D02*
X639672D01*
X648164Y258750D02*
X648581D01*
X639596D02*
X639836D01*
X642500Y251528D02*
X652028D01*
X657000Y247500D02*
Y247917D01*
X659799Y249667D02*
X661423D01*
X659382Y249250D02*
X659799Y249667D01*
X654618Y249250D02*
X659382D01*
X654306Y249563D02*
X654618Y249250D01*
X653271Y248528D02*
X654306Y249563D01*
X659385Y250667D02*
X661008D01*
X658967Y250250D02*
X659385Y250667D01*
X655032Y250250D02*
X658967D01*
X654615Y250667D02*
X655032Y250250D01*
X653996Y250667D02*
X654615D01*
X658970Y251667D02*
X660594D01*
X658553Y251250D02*
X658970Y251667D01*
X655447Y251250D02*
X658553D01*
X655029Y251667D02*
X655447Y251250D01*
X653581Y251667D02*
X655029D01*
X658556Y252667D02*
X660180D01*
X658139Y252250D02*
X658556Y252667D01*
X655861Y252250D02*
X658139D01*
X655444Y252667D02*
X655861Y252250D01*
X653167Y252667D02*
X655444D01*
X658142Y253667D02*
X659766D01*
X657725Y253250D02*
X658142Y253667D01*
X656275Y253250D02*
X657725D01*
X655858Y253667D02*
X656275Y253250D01*
X655775Y253667D02*
X655858D01*
X651414Y255917D02*
X657000D01*
X648581Y258750D02*
X651414Y255917D01*
X639460Y260029D02*
X639489Y260000D01*
X638098Y258667D02*
X639460Y260029D01*
X638263Y257417D02*
X639596Y258750D01*
X651903Y260000D02*
X653086Y258817D01*
X652318Y261000D02*
X653080Y260238D01*
X652732Y262000D02*
X653494Y261238D01*
X650583Y254917D02*
X654525D01*
X636086Y255417D02*
X637917D01*
X654525Y254917D02*
X655775Y253667D01*
X659766D02*
X663516Y257417D01*
X634336Y257167D02*
X636086Y255417D01*
X659078Y260167D02*
X659578Y260667D01*
X654672Y260167D02*
X659078D01*
X658664Y261167D02*
X659164Y261667D01*
X655086Y261167D02*
X658664D01*
X654836Y261417D02*
X655086Y261167D01*
X654657Y261238D02*
X654836Y261417D01*
X653494Y261238D02*
X654657D01*
X658250Y262167D02*
X659600Y263517D01*
X655500Y262167D02*
X658250D01*
X654250Y263417D02*
X655500Y262167D01*
X650500Y270417D02*
X656175Y264743D01*
Y264417D02*
Y264743D01*
Y264417D02*
X656337Y264254D01*
X660000Y262417D02*
X663000D01*
X659250Y261667D02*
X660000Y262417D01*
X659600Y263517D02*
X665400D01*
X660250Y260667D02*
X661000Y259917D01*
X659578Y260667D02*
X660250D01*
X652028Y251528D02*
X653167Y252667D01*
X652442Y250528D02*
X653581Y251667D01*
X652856Y249528D02*
X653996Y250667D01*
X644831Y248528D02*
X653271D01*
X644417Y249528D02*
X652856D01*
X644003Y250528D02*
X652442D01*
X643303Y247000D02*
X644831Y248528D01*
X643639Y248750D02*
X644417Y249528D01*
X643225Y249750D02*
X644003Y250528D01*
X637167Y249750D02*
X643225D01*
X636753Y248750D02*
X643639D01*
X632586Y252917D02*
X636753Y248750D01*
X639000Y264917D02*
X639849D01*
X639460Y261443D02*
X639460D01*
X638486Y262417D02*
X639460Y261443D01*
X637750Y258667D02*
X638098D01*
X642680Y263500D02*
X644500D01*
X653083Y263417D02*
X654250D01*
X648997Y267503D02*
X653083Y263417D01*
X633250Y245167D02*
X636167Y242250D01*
X632275Y257167D02*
X634336D01*
X642250Y242250D02*
X643000Y241500D01*
X636167Y242250D02*
X642250D01*
X642500Y247000D02*
X643303D01*
X631525Y257917D02*
X632275Y257167D01*
X630500Y257917D02*
X631525D01*
X628387Y255804D02*
X630500Y257917D01*
X657000Y247917D02*
X661000D01*
X637000Y259417D02*
X637750Y258667D01*
X660411Y239500D02*
X664328Y243417D01*
X637503Y239500D02*
X660411D01*
X635577Y241426D02*
X637503Y239500D01*
X633000Y253917D02*
X637167Y249750D01*
X653080Y260238D02*
X654600D01*
X586812Y211188D02*
X587500Y210500D01*
X586812Y211188D02*
Y213730D01*
X587500Y210500D02*
X590500D01*
X588500Y209000D02*
X590500D01*
X587500Y208000D02*
X588500Y209000D01*
X581043Y208000D02*
X587500D01*
X590500Y209000D02*
X594000Y205500D01*
X595036Y213817D02*
X598219Y217000D01*
X589869Y213500D02*
X593658D01*
X588626Y212256D02*
X589869Y213500D01*
X594622Y214817D02*
X597804Y218000D01*
X593561Y214817D02*
X594622D01*
X593244Y214500D02*
X593561Y214817D01*
X590417Y214500D02*
X593244D01*
X593975Y213817D02*
X595036D01*
X593658Y213500D02*
X593975Y213817D01*
X589000Y215917D02*
X590417Y214500D01*
X598219Y217000D02*
X602414D01*
X598633Y216000D02*
X602000D01*
X594700Y212067D02*
X598633Y216000D01*
X586812Y213730D02*
X589000Y215917D01*
X590500Y210500D02*
X596500Y204500D01*
Y199500D02*
Y204500D01*
X596025Y197000D02*
X599500D01*
X594250Y198775D02*
X596025Y197000D01*
X601750Y201919D02*
X607669Y196000D01*
X601750Y201919D02*
Y202225D01*
X600725Y203250D02*
X601750Y202225D01*
X600419Y203250D02*
X600725D01*
X597874Y205795D02*
X600419Y203250D01*
X594250Y198775D02*
Y199250D01*
X594000Y199500D02*
X594250Y199250D01*
X594000Y199500D02*
Y205500D01*
X592000Y199500D02*
X597500Y194000D01*
X589169Y200917D02*
X597586Y192500D01*
X589754Y198917D02*
X597172Y191500D01*
X597500Y194000D02*
X617325D01*
X597586Y192500D02*
X607503D01*
X597172Y191500D02*
X607089D01*
X599500Y197000D02*
X601000Y198500D01*
X592000Y199500D02*
Y201500D01*
X602828Y218000D02*
X607328Y213500D01*
X602414Y217000D02*
X606914Y212500D01*
X597804Y218000D02*
X602828D01*
X602000Y216000D02*
X606500Y211500D01*
X587150Y200917D02*
X589169D01*
X597500Y177917D02*
Y178500D01*
X601000Y177500D02*
X602750Y175750D01*
Y174250D02*
X605000Y172000D01*
X602750Y174250D02*
Y175750D01*
X587705Y173500D02*
X598000D01*
X608586Y191417D02*
X621487D01*
X607503Y192500D02*
X608586Y191417D01*
X588760Y190500D02*
X606675D01*
X580712Y198548D02*
X588760Y190500D01*
X577712Y200134D02*
X588345Y189500D01*
X621487Y191417D02*
X622654Y190250D01*
X580712Y198548D02*
Y200706D01*
X605000Y172000D02*
X608000D01*
X616000Y164000D01*
X621417D01*
X630000Y155417D01*
X597500Y177917D02*
X620000Y155417D01*
X618660Y169500D02*
X656243D01*
X618246Y168500D02*
X655828D01*
X617831Y167500D02*
X655414D01*
X603914Y181417D02*
X617831Y167500D01*
X604328Y182417D02*
X618246Y168500D01*
X604743Y183417D02*
X618660Y169500D01*
X795000Y318917D02*
X803750Y310167D01*
Y283578D02*
Y310167D01*
X794000Y273828D02*
X803750Y283578D01*
X796000Y319331D02*
X804750Y310581D01*
Y283164D02*
Y310581D01*
X795000Y273414D02*
X804750Y283164D01*
X800000Y325417D02*
X805750Y319667D01*
Y282750D02*
Y319667D01*
X796000Y273000D02*
X805750Y282750D01*
X790000Y275528D02*
X796237Y281765D01*
X790000Y249515D02*
Y275528D01*
X791000Y275114D02*
X797237Y281351D01*
X791000Y249929D02*
Y275114D01*
X792000Y274700D02*
X798237Y280937D01*
X792000Y250343D02*
Y274700D01*
X793000Y274278D02*
X799237Y280516D01*
X793000Y250757D02*
Y274278D01*
X794000Y251172D02*
Y273828D01*
X795000Y251586D02*
Y273414D01*
X796000Y252000D02*
Y273000D01*
X799237Y280516D02*
Y297557D01*
X798237Y280937D02*
Y297971D01*
X797237Y281351D02*
Y307680D01*
X796237Y281765D02*
Y304680D01*
X795000Y281942D02*
Y286917D01*
X779558Y266500D02*
X795000Y281942D01*
X790000Y249515D02*
X803500Y236015D01*
X791000Y249929D02*
X804500Y236429D01*
X792000Y250343D02*
X805500Y236843D01*
X793000Y250757D02*
X806500Y237257D01*
X794000Y251172D02*
X812000Y233172D01*
X795000Y251586D02*
X813000Y233586D01*
X796000Y252000D02*
X814000Y234000D01*
X803500Y213503D02*
Y236015D01*
X804500Y213089D02*
Y236429D01*
X805500Y212675D02*
Y236843D01*
X806500Y212260D02*
Y237257D01*
X812000Y214932D02*
Y233172D01*
X813000Y214432D02*
Y233586D01*
X814000Y214018D02*
Y234000D01*
X625000Y173000D02*
X626250Y171750D01*
X630432D01*
X628450Y222167D02*
X628600Y222317D01*
X567046Y217454D02*
Y218400D01*
X580000Y213543D02*
Y217500D01*
X558568Y215323D02*
X558600Y215317D01*
X558568Y215323D02*
X558568Y215323D01*
X617417Y166500D02*
X655000D01*
X664500Y157000D01*
X656243Y169500D02*
X660825Y164917D01*
X655828Y168500D02*
X660411Y163917D01*
X655414Y167500D02*
X665500Y157414D01*
X628000Y174000D02*
X665414D01*
X678766Y140000D02*
X745417D01*
X664500Y154267D02*
X678766Y140000D01*
X665500Y154681D02*
X679181Y141000D01*
X664500Y154267D02*
Y157000D01*
X665500Y154681D02*
Y157414D01*
X660825Y164917D02*
X668497D01*
X660411Y163917D02*
X668083D01*
X693583Y160417D02*
X737417D01*
X691083Y162917D02*
X693583Y160417D01*
X675500Y153500D02*
Y157914D01*
X668497Y164917D02*
X675500Y157914D01*
X674500Y153086D02*
Y157500D01*
X668083Y163917D02*
X674500Y157500D01*
X675500Y153500D02*
X686000Y143000D01*
X674500Y153086D02*
X685586Y142000D01*
X747172D01*
X686000Y143000D02*
X747586D01*
X679181Y141000D02*
X746757D01*
X680535Y167383D02*
X685446D01*
X640211Y215500D02*
X706583D01*
X691500Y199000D02*
Y200000D01*
X690000Y201500D02*
X691500Y200000D01*
X683583Y201500D02*
X690000D01*
X739000Y252000D02*
Y263000D01*
X720250Y233250D02*
X739000Y252000D01*
Y263000D02*
X742500Y266500D01*
X779558D01*
X711432Y269167D02*
X712591Y268008D01*
X734000Y219000D02*
X738000Y215000D01*
X737500Y220000D02*
X741000Y216500D01*
X728132Y220000D02*
X737500D01*
X727882Y220250D02*
X728132Y220000D01*
X725796Y220250D02*
X727882D01*
X724721Y221325D02*
X725796Y220250D01*
X727717Y219000D02*
X734000D01*
X727467Y219250D02*
X727717Y219000D01*
X725382Y219250D02*
X727467D01*
X727053Y218250D02*
X728053Y217250D01*
X724967Y218250D02*
X727053D01*
X726639Y217250D02*
X727639Y216250D01*
X724553Y217250D02*
X726639D01*
X724139Y216250D02*
X726225D01*
X727975Y214500D01*
X729639Y217250D02*
X730639Y216250D01*
X728053Y217250D02*
X729639D01*
X729225Y216250D02*
X730975Y214500D01*
X727639Y216250D02*
X729225D01*
X723660Y221325D02*
X724721D01*
X723168Y221817D02*
X723660Y221325D01*
X721683Y221817D02*
X723168D01*
X717000Y226500D02*
X721683Y221817D01*
X724307Y220325D02*
X725382Y219250D01*
X723246Y220325D02*
X724307D01*
X722754Y220817D02*
X723246Y220325D01*
X720683Y220817D02*
X722754D01*
X723893Y219325D02*
X724967Y218250D01*
X722832Y219325D02*
X723893D01*
X722339Y219817D02*
X722832Y219325D01*
X720183Y219817D02*
X722339D01*
X723478Y218325D02*
X724553Y217250D01*
X722418Y218325D02*
X723478D01*
X721925Y218817D02*
X722418Y218325D01*
X723064Y217325D02*
X724139Y216250D01*
X722004Y217325D02*
X723064D01*
X721511Y217817D02*
X722004Y217325D01*
X722650Y216325D02*
X723675Y215300D01*
X721589Y216325D02*
X722650D01*
X721097Y216817D02*
X721589Y216325D01*
X718646Y216817D02*
X721097D01*
X719060Y217817D02*
X721511D01*
X719474Y218817D02*
X721925D01*
X723675Y215250D02*
Y215300D01*
X715000Y225000D02*
X720183Y219817D01*
X714000Y224291D02*
X719474Y218817D01*
X713000Y223877D02*
X719060Y217817D01*
X712000Y223463D02*
X718646Y216817D01*
X715000Y225000D02*
Y232417D01*
X718000Y229500D02*
X719500Y228000D01*
X783000Y225500D02*
X786000D01*
X781817Y224317D02*
X783000Y225500D01*
X771317Y224317D02*
X781817D01*
X763969Y216968D02*
X771317Y224317D01*
X786000Y225500D02*
X791000Y220500D01*
X767906Y218406D02*
X772000Y222500D01*
X785500D01*
X767906Y212653D02*
Y218406D01*
X798500Y218500D02*
X801000Y216000D01*
X777000Y218500D02*
X798500D01*
X775779Y217280D02*
X777000Y218500D01*
X773500Y220500D02*
X788000D01*
X771842Y218843D02*
X773500Y220500D01*
X771842Y212653D02*
Y218843D01*
X763969Y212653D02*
Y216968D01*
X775779Y212653D02*
Y217280D01*
X807500Y211846D02*
Y213000D01*
X809500Y215000D01*
Y216500D01*
X696500Y201417D02*
X700504D01*
X698419Y204917D02*
X702336Y201000D01*
X693500Y204917D02*
X698419D01*
X697833Y206917D02*
X702750Y202000D01*
X692500Y206917D02*
X697833D01*
X706500Y213500D02*
X707500Y212500D01*
X704000D02*
X707000Y209500D01*
X710101Y265816D02*
X710500Y265417D01*
X627650Y255804D02*
X628387D01*
X716000Y225500D02*
X720683Y220817D01*
X718000Y229500D02*
Y265417D01*
X717000Y226500D02*
Y266917D01*
X723675Y215250D02*
X724750D01*
X725500Y214500D01*
X727975D02*
X728500D01*
X730639Y216250D02*
X732225D01*
X733975Y214500D01*
X735000D01*
X711000Y223049D02*
X718232Y215817D01*
X710467Y222167D02*
X718567Y214067D01*
X710000Y222604D02*
X710436Y222167D01*
X715500Y214200D02*
Y215721D01*
X710053Y221167D02*
X715500Y215721D01*
X709000Y222189D02*
X710022Y221167D01*
X709000Y222189D02*
Y228518D01*
X710000Y222604D02*
Y228932D01*
X718232Y215817D02*
X720683D01*
X721925Y214575D01*
X632420Y282080D02*
X633750Y280750D01*
X750000Y173500D02*
X752000Y171500D01*
X756657Y177500D02*
X759743D01*
X755657Y178500D02*
X756657Y177500D01*
X744429Y178500D02*
X755657D01*
X756243Y176500D02*
X759328D01*
X755243Y177500D02*
X756243Y176500D01*
X744843Y177500D02*
X755243D01*
X755828Y175500D02*
X758914D01*
X754828Y176500D02*
X755828Y175500D01*
X755414Y174500D02*
X758500D01*
X754414Y175500D02*
X755414Y174500D01*
X754000D02*
X757018Y171482D01*
X746086Y174500D02*
X754000D01*
X745672Y175500D02*
X754414D01*
X745257Y176500D02*
X754828D01*
X762500Y179500D02*
X763500Y178500D01*
X742500Y179500D02*
X762500D01*
X739500Y176500D02*
X742500Y179500D01*
X740429Y174500D02*
X744429Y178500D01*
X740843Y173500D02*
X744843Y177500D01*
X741257Y172500D02*
X745257Y176500D01*
X741672Y171500D02*
X745672Y175500D01*
X742086Y170500D02*
X746086Y174500D01*
X746500Y173500D02*
X750000D01*
X735750Y162750D02*
X746500Y173500D01*
X758500Y174500D02*
X763774Y169226D01*
X758914Y175500D02*
X761914Y172500D01*
X759328Y176500D02*
X762328Y173500D01*
X759743Y177500D02*
X762743Y174500D01*
X768500Y172500D02*
X770000Y171000D01*
X779414Y173000D02*
X782000D01*
X777914Y174500D02*
X779414Y173000D01*
X762743Y174500D02*
X777914D01*
X777500Y173500D02*
X784500Y166500D01*
X762328Y173500D02*
X777500D01*
X763774Y169226D02*
X765274D01*
X741765Y182000D02*
X763500D01*
X660861Y192936D02*
X684810D01*
X660447Y193936D02*
X685225D01*
X660033Y194936D02*
X685639D01*
X659618Y195936D02*
X686053D01*
X675436Y191936D02*
X684396D01*
X674000Y190500D02*
X675436Y191936D01*
X713000Y223877D02*
Y230175D01*
X714000Y224291D02*
Y230589D01*
X716000Y225500D02*
Y234917D01*
X737417Y160417D02*
X747250Y170250D01*
X763500Y182000D02*
X767717Y177783D01*
X742000Y170500D02*
X742086D01*
X741000Y169500D02*
X742000Y170500D01*
X720000Y171500D02*
X741672D01*
X719000Y172500D02*
X741257D01*
X700975Y173500D02*
X740843D01*
X699500Y174500D02*
X740429D01*
X697500Y176500D02*
X739500D01*
X697667Y179667D02*
X739432D01*
X697500Y179500D02*
X697667Y179667D01*
X739432D02*
X741765Y182000D01*
X631750Y289092D02*
X638921Y281921D01*
X788500Y166500D02*
X792500Y170500D01*
X694667Y162750D02*
X735750D01*
X720157Y169500D02*
X741000D01*
X761914Y172500D02*
X768500D01*
X714500Y168000D02*
X719000Y172500D01*
X699225Y171750D02*
X700975Y173500D01*
X698500D02*
X699500Y174500D01*
X714417Y165917D02*
X720000Y171500D01*
X700599Y164917D02*
X715574D01*
X720157Y169500D01*
X705929Y165917D02*
X714417D01*
X705260Y168000D02*
X714500D01*
X702843Y170417D02*
X705260Y168000D01*
X782000Y173000D02*
X785750Y169250D01*
X784500Y166500D02*
X788500D01*
X696151Y165167D02*
X697568Y163750D01*
X691500Y165167D02*
X696151D01*
X699432Y163750D02*
X700599Y164917D01*
X697568Y163750D02*
X699432D01*
X702846Y169000D02*
X705929Y165917D01*
X696083Y169000D02*
X702846D01*
X695000Y167917D02*
X696083Y169000D01*
X691000Y170417D02*
X702843D01*
X696025Y173500D02*
X697775Y171750D01*
X692000Y173500D02*
X696025D01*
X697775Y171750D02*
X699225D01*
X690752Y174748D02*
X692000Y173500D01*
X668917Y330500D02*
X674000Y325417D01*
X640328Y330500D02*
X668917D01*
X622496Y312667D02*
X640328Y330500D01*
X677917Y331500D02*
X684000Y325417D01*
X639914Y331500D02*
X677917D01*
X622081Y313667D02*
X639914Y331500D01*
X686917Y332500D02*
X694000Y325417D01*
X639500Y332500D02*
X686917D01*
X621667Y314667D02*
X639500Y332500D01*
X809743Y209760D02*
X814000Y214018D01*
X809657Y209760D02*
X809743D01*
X809328Y210760D02*
X813000Y214432D01*
X683417Y204917D02*
X687500D01*
X640500Y203500D02*
X663500D01*
X622000Y211500D02*
X632500D01*
X621640Y214500D02*
X624500D01*
X799237Y297557D02*
X802500Y300820D01*
X798237Y297971D02*
X800000Y299734D01*
Y305000D01*
X802500Y300820D02*
Y306500D01*
X561945Y219917D02*
X562500D01*
X498825Y200750D02*
X502500Y197075D01*
X500000Y211417D02*
X517346D01*
X502182Y210417D02*
X517760D01*
X502596Y209417D02*
X518175D01*
X501179Y208000D02*
X502596Y209417D01*
X503010Y208417D02*
X518589D01*
X501593Y207000D02*
X503010Y208417D01*
X503425Y207417D02*
X519003D01*
X502007Y206000D02*
X503425Y207417D01*
X503839Y206417D02*
X519417D01*
X502422Y205000D02*
X503839Y206417D01*
X504253Y205417D02*
X519831D01*
X502836Y204000D02*
X504253Y205417D01*
X490750Y200750D02*
X498825D01*
X488500Y191417D02*
Y202000D01*
X489500Y203000D01*
X485000Y217917D02*
X493917Y209000D01*
X489836Y211667D02*
X493503Y208000D01*
X489422Y210667D02*
X493089Y207000D01*
X488172Y206000D02*
X502007D01*
X483589Y201417D02*
X488172Y206000D01*
X481349Y197763D02*
X488586Y205000D01*
X489000Y204000D02*
X502836D01*
X483000Y198000D02*
X489000Y204000D01*
X488586Y205000D02*
X502422D01*
X493089Y207000D02*
X501593D01*
X493503Y208000D02*
X501179D01*
X500765Y209000D02*
X502182Y210417D01*
X493917Y209000D02*
X500765D01*
X489500Y203000D02*
X506000D01*
X492000Y183000D02*
X524828D01*
X473417Y164417D02*
X492000Y183000D01*
X461000Y164417D02*
X473417D01*
X488000Y175500D02*
X493583D01*
X476250Y171664D02*
Y205349D01*
X472003Y167417D02*
X476250Y171664D01*
X459035Y167417D02*
X472003D01*
X487904Y184417D02*
X488321Y184000D01*
X494428Y187500D02*
X496928Y185000D01*
X484417Y187500D02*
X494428D01*
X492000Y178000D02*
X496000Y182000D01*
X499083Y181000D02*
X525657D01*
X493583Y175500D02*
X499083Y181000D01*
X480250Y197763D02*
X481349D01*
X479500Y201417D02*
X483589D01*
X483000Y192917D02*
Y198000D01*
X557750Y209888D02*
X558069Y209569D01*
X557750Y207275D02*
Y209888D01*
X506000Y203000D02*
X533500D01*
X534167Y203667D01*
X521414Y207000D02*
X554500D01*
X519831Y205417D02*
X521414Y207000D01*
X519417Y206417D02*
X521000Y208000D01*
X519003Y207417D02*
X520586Y209000D01*
X518589Y208417D02*
X520172Y210000D01*
X518175Y209417D02*
X519757Y211000D01*
X517760Y210417D02*
X519343Y212000D01*
X517346Y211417D02*
X518929Y213000D01*
X540169D01*
X519343Y212000D02*
X540583D01*
X519757Y211000D02*
X540997D01*
X520172Y210000D02*
X541411D01*
X520586Y209000D02*
X541825D01*
X521000Y208000D02*
X551500D01*
X618178Y228239D02*
X621917Y224500D01*
X631211D01*
X634583Y226500D02*
X637600Y229517D01*
X623703Y229239D02*
X626442Y226500D01*
X634583D01*
X634997Y225500D02*
X637865Y228368D01*
X626028Y225500D02*
X634997D01*
X624611Y226917D02*
X626028Y225500D01*
X625497Y229167D02*
X626750D01*
X624425Y230239D02*
X625497Y229167D01*
X625911Y230167D02*
X631089D01*
X624839Y231239D02*
X625911Y230167D01*
X631211Y224500D02*
X640211Y215500D01*
X623000Y217500D02*
X625342D01*
X579500Y206457D02*
X581043Y208000D01*
X581750Y219250D02*
X583250Y217750D01*
X579250Y221750D02*
X581750Y219250D01*
X580000Y217500D02*
X581750Y219250D01*
X603500Y196500D02*
X604000D01*
X585500Y198917D02*
X589754D01*
X558000Y215417D02*
X558568Y215323D01*
X618083Y206917D02*
X628500D01*
X617000Y208000D02*
X618083Y206917D01*
X630346Y210167D02*
X639513Y201000D01*
X629932Y209167D02*
X639099Y200000D01*
X624886Y209167D02*
X629932D01*
X616083Y197000D02*
X619083Y200000D01*
X616497Y196000D02*
X619497Y199000D01*
X616911Y195000D02*
X619911Y198000D01*
X617325Y194000D02*
X620325Y197000D01*
X619083Y200000D02*
X625000D01*
X626500Y201500D01*
X607669Y196000D02*
X616497D01*
X605500Y195000D02*
X616911D01*
X604000Y196500D02*
X605500Y195000D01*
X623969Y208250D02*
X624886Y209167D01*
X618485Y208250D02*
X623969D01*
X624472Y210167D02*
X630346D01*
X623555Y209250D02*
X624472Y210167D01*
X618899Y209250D02*
X623555D01*
X607672Y208000D02*
X617000D01*
X605127Y210545D02*
X607672Y208000D01*
X620250Y215667D02*
X625760D01*
X612563Y197000D02*
X616083D01*
X607500Y202063D02*
X612563Y197000D01*
X620000Y215417D02*
X620250Y215667D01*
X607500Y202063D02*
Y202900D01*
X601024Y205394D02*
Y208945D01*
Y205394D02*
X605613Y200805D01*
X604400Y206000D02*
X607500Y202900D01*
X578750Y240692D02*
X580025Y239417D01*
X572677Y249890D02*
Y259619D01*
X574687Y254500D02*
Y258407D01*
Y254500D02*
X575500Y253687D01*
X575687Y254914D02*
X576500Y254101D01*
X575687Y254914D02*
Y257993D01*
X576687Y255329D02*
Y257579D01*
Y255329D02*
X578400Y253616D01*
X571000Y251383D02*
Y254917D01*
X567750Y249158D02*
X568775Y248133D01*
X567750Y249158D02*
Y251167D01*
X569500Y249883D02*
X571000Y251383D01*
X576500Y252417D02*
X579028Y249890D01*
X576500Y252417D02*
Y254101D01*
X567750Y251167D02*
X569000Y252417D01*
Y253417D01*
X565500Y256917D02*
X569000Y253417D01*
X575827Y246740D02*
X576500Y247413D01*
X585250Y244667D02*
X587000Y242917D01*
X583275Y244667D02*
X585250D01*
X581000Y240917D02*
X582525D01*
X589000D02*
X592500Y244417D01*
X584475Y240917D02*
X589000D01*
X586875Y239917D02*
X592000D01*
X575687Y257993D02*
X577361Y259667D01*
X574687Y258407D02*
X576947Y260667D01*
X571677Y255594D02*
Y260034D01*
X571000Y254917D02*
X571677Y255594D01*
X576687Y257579D02*
X577775Y258667D01*
X591500Y246917D02*
Y255512D01*
X592500Y244417D02*
Y255098D01*
X590500Y248815D02*
Y255927D01*
X588425Y246740D02*
X590500Y248815D01*
X601888Y269167D02*
X602138Y269417D01*
X599498Y269167D02*
X601888D01*
X589010Y258679D02*
X599498Y269167D01*
X603211Y270417D02*
X604211Y271417D01*
X601724Y270417D02*
X603211D01*
X601474Y270167D02*
X601724Y270417D01*
X599084Y270167D02*
X601474D01*
X588596Y259679D02*
X599084Y270167D01*
X586732Y260679D02*
X588182D01*
X598670Y271167D01*
X601059D01*
X601309Y271417D01*
X602000D01*
Y272417D01*
X587768Y261679D02*
X601003Y274915D01*
X586318Y261679D02*
X587768D01*
X587353Y262679D02*
X600591Y275917D01*
X585904Y262679D02*
X587353D01*
X586939Y263679D02*
X600177Y276917D01*
X585489Y263679D02*
X586939D01*
X585075Y264679D02*
X586525D01*
X553404Y276417D02*
X589263D01*
X583275Y258667D02*
X587548D01*
X582825Y258217D02*
X583275Y258667D01*
X582800Y258217D02*
X582825D01*
X581500Y256917D02*
X582800Y258217D01*
X578250Y261667D02*
X586306D01*
X577250Y260667D02*
X578250Y261667D01*
Y264667D02*
X579000Y263917D01*
X576000Y264667D02*
X578250D01*
X576000Y264517D02*
Y264667D01*
X575986Y264517D02*
X576000D01*
X575400Y263931D02*
X575986Y264517D01*
X575400Y263792D02*
Y263931D01*
X575250Y263642D02*
X575400Y263792D01*
X575250Y265667D02*
X580750D01*
X574000Y264417D02*
X575250Y265667D01*
X571750Y266667D02*
X581475D01*
X571250Y267667D02*
X582450D01*
X579500Y272417D02*
X581500Y270417D01*
X565025Y272417D02*
X579500D01*
X564500Y273417D02*
X582000D01*
X562349Y274417D02*
X583500D01*
X553818Y275417D02*
X586500D01*
X577318Y269735D02*
X578318D01*
X577000Y269417D02*
X577318Y269735D01*
X569500Y269417D02*
X577000D01*
X580922Y262667D02*
X585891D01*
X580672Y262917D02*
X580922Y262667D01*
X577000Y262917D02*
X580672D01*
X581336Y263667D02*
X585477D01*
X581086Y263917D02*
X581336Y263667D01*
X579000Y263917D02*
X581086D01*
X581750Y264667D02*
X585063D01*
X580750Y265667D02*
X581750Y264667D01*
X577361Y259667D02*
X578659D01*
X579659Y260667D01*
X586720D01*
X576947D02*
X577250D01*
X575250Y262192D02*
Y263642D01*
X572677Y259619D02*
X575250Y262192D01*
X574000Y262356D02*
Y264417D01*
X571677Y260034D02*
X574000Y262356D01*
X589500Y244917D02*
X591500Y246917D01*
X587098Y244917D02*
X589500D01*
X601675Y249890D02*
X604173D01*
X599250Y252314D02*
X601675Y249890D01*
X597000Y251917D02*
Y256770D01*
X594724Y249642D02*
X597000Y251917D01*
X602177Y246740D02*
X603500Y245417D01*
X601000Y246740D02*
X602177D01*
X595500Y236417D02*
X600250Y241167D01*
X601225D01*
X598000Y250017D02*
Y255917D01*
X597800Y249817D02*
X598000Y250017D01*
X599250Y252314D02*
Y254667D01*
X584225Y241167D02*
X584475Y240917D01*
X582775Y241167D02*
X584225D01*
X582525Y240917D02*
X582775Y241167D01*
X458000Y168417D02*
X458018Y168435D01*
X459035Y167417D01*
X458000D02*
Y168417D01*
X566400Y218400D02*
X567046D01*
X565900D02*
X566400D01*
X558000Y215417D02*
X558500Y214917D01*
X569456Y204373D02*
Y209000D01*
X561323Y211094D02*
X561500Y210520D01*
X575000Y199417D02*
Y202000D01*
Y199417D02*
X588500Y185917D01*
X585000Y203067D02*
Y206000D01*
X795000Y309917D02*
X797237Y307680D01*
X792000Y308917D02*
X796237Y304680D01*
X793000Y288917D02*
X795000Y286917D01*
X621500Y195000D02*
X622250Y194250D01*
X787500Y281417D02*
Y285735D01*
X550000Y295917D02*
X560368D01*
X561618Y294667D01*
X549586Y296917D02*
X560782D01*
X562033Y295667D01*
X623846D01*
X549172Y297917D02*
X561197D01*
X562447Y296667D01*
X548757Y298917D02*
X561611D01*
X562861Y297667D01*
X624675D01*
X562447Y296667D02*
X624260D01*
X561618Y294667D02*
X623432D01*
X629750Y288349D01*
X623846Y295667D02*
X630750Y288763D01*
X624260Y296667D02*
X631750Y289178D01*
X624675Y297667D02*
X632750Y289592D01*
X451417Y236500D02*
X462500Y225417D01*
X484917D01*
X504000Y226417D02*
X510000D01*
X464500Y219917D02*
X486583D01*
X513250Y225667D02*
X513500Y225917D01*
X487250Y210667D02*
X489422D01*
X534167Y203667D02*
X537223D01*
X537973Y202917D01*
X539985D01*
X488750Y211667D02*
X489836D01*
X562500Y196589D02*
Y197417D01*
X572677Y205352D02*
Y208945D01*
X571142Y202403D02*
X572485D01*
X561500Y199917D02*
X563000Y201417D01*
X555157Y186417D02*
X571142Y202403D01*
X554743Y187417D02*
X572677Y205352D01*
X554328Y188417D02*
X562500Y196589D01*
X553914Y189417D02*
X561500Y197003D01*
Y199917D01*
X583000Y252165D02*
X585276Y249890D01*
X583000Y252165D02*
Y254917D01*
X580380Y259667D02*
X587134D01*
X586306Y261667D02*
X586318Y261679D01*
X585891Y262667D02*
X585904Y262679D01*
X585477Y263667D02*
X585489Y263679D01*
X585063Y264667D02*
X585075Y264679D01*
X589263Y276417D02*
X592000Y273680D01*
X581475Y266667D02*
X582475Y265667D01*
X583925D01*
X584925Y266667D01*
X585562D01*
X585800Y266429D01*
X582000Y273417D02*
X585000Y270417D01*
X588500D01*
X586500Y275417D02*
X588000Y273917D01*
X577775Y258667D02*
X579380D01*
X580380Y259667D01*
X586720Y260667D02*
X586732Y260679D01*
X595311Y253626D02*
Y256495D01*
X586675Y253764D02*
X588500Y255589D01*
X587548Y258667D02*
X587560Y258679D01*
X589010D01*
X587134Y259667D02*
X587146Y259679D01*
X588596D01*
X599250Y254667D02*
X602000Y257417D01*
X603000D01*
X608225Y259167D02*
X608475Y258917D01*
X610000D01*
X588500Y255589D02*
Y256755D01*
X569885Y264802D02*
X571750Y266667D01*
X569577Y265994D02*
X571250Y267667D01*
X589500Y254114D02*
Y256341D01*
X672129Y276289D02*
X672649Y276808D01*
X696432Y273667D02*
X699500Y270599D01*
X684500Y224917D02*
X686121Y223296D01*
X532500Y278917D02*
X543000Y268417D01*
X785750Y287485D02*
X787500Y285735D01*
X735500Y255228D02*
X736000D01*
X736811D01*
X613615Y249839D02*
X614922D01*
X640566Y267503D02*
X648997D01*
X640500Y267569D02*
Y267917D01*
X621500Y258417D02*
X621750Y258667D01*
X626500Y260417D02*
X628093D01*
X624500Y258167D02*
X624875Y258542D01*
X607346Y242704D02*
Y243571D01*
X617500Y236417D02*
X625318D01*
X549000Y269917D02*
Y272013D01*
X550250Y267667D02*
X551000Y268417D01*
X604000Y252917D02*
X607500Y256417D01*
X582450Y267667D02*
X583300Y266817D01*
X600350Y242917D02*
X600500D01*
X601000D01*
X585326Y253581D02*
X586675D01*
X608500Y269917D02*
Y270179D01*
Y270417D01*
X633500Y259417D02*
X635600Y257317D01*
X617500Y253917D02*
Y254067D01*
Y254417D01*
X710101Y265816D02*
X710313D01*
X709500Y266417D02*
X710101Y265816D01*
X597500Y235871D02*
X598954D01*
X595500Y234720D02*
X599250Y230971D01*
X595500Y234720D02*
Y236417D01*
X599250Y230167D02*
X600400Y229017D01*
X599250Y230167D02*
Y230971D01*
X592000Y239917D02*
X593000Y240917D01*
X603500Y244331D02*
Y245417D01*
X608850Y251417D02*
Y254768D01*
X603500Y242917D02*
X606000Y245417D01*
X609000D01*
X592000Y273417D02*
Y273680D01*
X602500Y243331D02*
X603500Y244331D01*
X602500Y242442D02*
Y243331D01*
X601225Y241167D02*
X602500Y242442D01*
X598954Y235871D02*
X603500Y240417D01*
Y242917D01*
X607346Y240441D02*
X609870Y237917D01*
X596250Y241167D02*
X598600D01*
X600350Y242917D01*
X602000Y255417D02*
X604500D01*
X605763Y256680D01*
X610776Y234417D02*
X619737D01*
X616325Y237917D02*
X616775Y238367D01*
X618225D01*
X618675Y237917D01*
X615000Y241417D02*
X616000Y242417D01*
X618000D01*
X619500Y240917D01*
X614922Y249839D02*
X617400Y252317D01*
X618620D01*
X619750Y251187D01*
X615500Y247917D02*
X618000Y250417D01*
X605763Y256680D02*
Y256680D01*
X605750Y256692D02*
X605763Y256680D01*
X583025Y244417D02*
X583275Y244667D01*
X585283Y246733D02*
X587098Y244917D01*
X462500Y213417D02*
X467000Y217917D01*
X485000D01*
X457500Y212917D02*
X464500Y219917D01*
X484818Y213917D02*
X486500D01*
X488750Y211667D01*
X484500Y209917D02*
X486500D01*
X714500Y236417D02*
Y269917D01*
X796000Y319331D02*
Y327831D01*
X795000Y318917D02*
Y327417D01*
X791414Y332417D02*
X796000Y327831D01*
X691009Y254180D02*
Y258226D01*
X696500Y250103D02*
Y256917D01*
X699000Y249018D02*
Y257417D01*
X701500Y247932D02*
Y258917D01*
X704000Y246846D02*
Y259599D01*
X760000Y323417D02*
Y325417D01*
X791000Y331417D02*
X795000Y327417D01*
X777000Y332417D02*
X791414D01*
X786000Y331417D02*
X791000D01*
X780000Y325417D02*
X786000Y331417D01*
X770000Y325417D02*
X777000Y332417D01*
X561500Y182417D02*
X563500Y180417D01*
X607346Y234142D02*
X609471Y232017D01*
X610247D01*
X611025Y231239D01*
X604723Y233065D02*
X606770Y231017D01*
X609832D01*
X610610Y230239D01*
X602900Y230017D02*
X609418D01*
X610196Y229239D01*
X601500Y231417D02*
X602900Y230017D01*
X600400Y229017D02*
X609004D01*
X609782Y228239D01*
X611025Y231239D02*
X624839D01*
X610610Y230239D02*
X624425D01*
X610196Y229239D02*
X623703D01*
X609782Y228239D02*
X618178D01*
X602252Y212094D02*
X603801Y210545D01*
X660000Y329417D02*
X664000Y325417D01*
X642000Y327417D02*
X644000Y325417D01*
X550709Y244417D02*
X554709Y248417D01*
X458000Y167417D02*
X458500Y167917D01*
X516000Y301003D02*
X519414Y304417D01*
X544750Y293496D02*
X549172Y297917D01*
X545750Y293081D02*
X549586Y296917D01*
X546750Y292667D02*
X550000Y295917D01*
X545750Y268778D02*
Y293081D01*
X544750Y268364D02*
Y293496D01*
X644500Y272417D02*
Y273417D01*
X645500Y274417D01*
X607500Y256417D02*
Y257417D01*
X617000Y240317D02*
X617950Y239367D01*
X622050D01*
X619500Y240917D02*
X625000D01*
X618327Y243590D02*
X620000Y241917D01*
X623525D01*
X617914Y245417D02*
X620414Y242917D01*
X623111D01*
X623525Y241917D02*
X624775Y243167D01*
X628775D01*
X622500Y238917D02*
X626000D01*
X630500Y243417D01*
X618675Y237917D02*
X626414D01*
X629923Y241426D01*
X625318Y236417D02*
X627568Y234167D01*
X629432D01*
X631432Y236167D01*
X659750D01*
X620737Y235417D02*
X624904D01*
X627154Y233167D01*
X629846D01*
X631846Y235167D01*
X660164D01*
X622000Y233417D02*
X625490D01*
X626740Y232167D01*
X630260D01*
X632260Y234167D01*
X660578D01*
X619400Y245840D02*
X620577D01*
X613622Y243590D02*
X618327D01*
X612000Y245417D02*
X617914D01*
X622050Y239367D02*
X622500Y238917D01*
X619400Y245840D02*
Y249342D01*
X609870Y237917D02*
X616325D01*
X619737Y234417D02*
X620737Y235417D01*
X660578Y234167D02*
X661578Y235167D01*
X660164D02*
X663414Y238417D01*
X633089Y232167D02*
X658041D01*
X658145Y232271D01*
X665647D01*
X678414Y255917D02*
X682500D01*
X695500Y260917D02*
X699000Y257417D01*
X692500Y260917D02*
X696500Y256917D01*
X616500D02*
X618975D01*
X619825Y256067D01*
X619400Y249342D02*
X619750Y249692D01*
X619053Y259667D02*
X619109Y259612D01*
X619000Y265417D02*
X619250Y265667D01*
X618475Y266417D02*
X619475Y267417D01*
X615000Y262417D02*
X617500D01*
X627947Y245167D02*
X629947Y247167D01*
X628361Y244167D02*
X630361Y246167D01*
X628775Y243167D02*
X630775Y245167D01*
X633250D01*
X629923Y241426D02*
X635577D01*
X630500Y243417D02*
X631500D01*
X624361Y244167D02*
X628361D01*
X623111Y242917D02*
X624361Y244167D01*
X613250Y267417D02*
X614500D01*
X615500Y268417D01*
X619475Y267417D02*
X620672D01*
X624350Y255067D02*
X626500Y252917D01*
X632586D01*
X610464Y272296D02*
X612086Y273917D01*
X611568Y271985D02*
X612500Y272917D01*
X614954D01*
X617954Y269917D01*
X618000D01*
X613750Y258056D02*
X615361Y259667D01*
X614750Y256192D02*
Y257642D01*
X688000Y243917D02*
Y244417D01*
X609000Y245417D02*
X609500Y244917D01*
X611500D01*
X612000Y245417D01*
X610500Y240441D02*
X611476Y241417D01*
X610500Y234142D02*
X610776Y234417D01*
X611500Y250902D02*
Y254154D01*
X613622Y253039D02*
Y254862D01*
X614851Y256091D01*
X601000Y254417D02*
X602000Y255417D01*
X623250Y271667D02*
X626000Y268917D01*
X610415Y249817D02*
X611500Y250902D01*
X611258Y246676D02*
X612500Y247917D01*
X615500D01*
X601000Y252917D02*
Y253039D01*
Y254417D01*
X593600Y238517D02*
X596250Y241167D01*
X611476Y241417D02*
X615000D01*
X607718Y257324D02*
X607907D01*
X607718D02*
X607811Y257417D01*
X607323Y249890D02*
X608850Y251417D01*
X624500Y258167D02*
Y258917D01*
X619750Y249692D02*
Y251187D01*
X665000Y245503D02*
Y249160D01*
X637865Y228368D02*
X660549D01*
X667500Y221417D01*
X631089Y230167D02*
X633089Y232167D01*
X629000Y278917D02*
X630500Y277417D01*
X606622Y242191D02*
X606834D01*
X604723Y240292D02*
X606622Y242191D01*
X604723Y233065D02*
Y240292D01*
X610451Y246676D02*
X611258D01*
X623250Y271667D02*
Y272142D01*
X606834Y242191D02*
X607346Y242704D01*
X568500Y270417D02*
X569500Y269417D01*
X566000Y270417D02*
X568500D01*
X583000Y254917D02*
X584000Y255917D01*
X586675Y253581D02*
Y253764D01*
X588425Y253039D02*
X589500Y254114D01*
X623000Y226917D02*
X624611D01*
X564500Y256917D02*
X565500D01*
X628600Y222317D02*
X629000Y221917D01*
X613615Y249839D02*
Y249883D01*
X613622Y249890D01*
X585900Y265817D02*
X586000Y265917D01*
X712500Y271917D02*
X714500Y269917D01*
X709500Y271917D02*
X712500D01*
X714500Y269917D02*
X715500Y270917D01*
X669000Y227917D02*
X671000D01*
X710250Y269167D02*
X711432D01*
X703000Y276417D02*
X710250Y269167D01*
X688490Y276417D02*
X703000D01*
X688654Y275167D02*
X700432D01*
X688568Y273667D02*
X696432D01*
X682727Y277508D02*
X684273D01*
X686682Y279917D01*
X688000Y277417D02*
X704000D01*
X681068Y275667D02*
X682654D01*
X705818Y279917D02*
X710818Y274917D01*
X723000D01*
X686682Y279917D02*
X705818D01*
X704000Y277417D02*
X709500Y271917D01*
X554591Y262417D02*
X556976Y264802D01*
X558500Y271417D02*
X559348D01*
X554000Y262417D02*
X554591D01*
X551000Y268417D02*
Y272599D01*
X550250Y267667D02*
X550500Y267417D01*
X542500Y254917D02*
X543682D01*
X546000Y262837D02*
X547250Y264087D01*
X543752Y263417D02*
X545250Y264915D01*
X542666Y260917D02*
X546250Y264501D01*
X545750Y257849D02*
X547000Y259099D01*
X588432Y212101D02*
X588476D01*
X700432Y275167D02*
X702500Y273099D01*
Y269917D02*
Y273099D01*
X695500Y260917D02*
Y271417D01*
X692500Y260917D02*
Y268417D01*
X723000Y274917D02*
X724000Y275917D01*
X689500Y259735D02*
Y271417D01*
X721500Y268917D02*
X722500D01*
X641250Y306667D02*
X661250D01*
X642500Y304417D02*
X656000D01*
X457500Y212417D02*
Y212917D01*
X480250Y197167D02*
Y197763D01*
X462500Y211417D02*
Y213417D01*
X525500Y271917D02*
Y275917D01*
X518500Y282917D02*
X525500Y275917D01*
X724000D02*
Y276917D01*
X661250Y306667D02*
X661500Y306417D01*
X486500Y209917D02*
X487250Y210667D01*
X524500Y282417D02*
X529500Y287417D01*
X519000Y293917D02*
Y296099D01*
X529500Y287417D02*
Y300660D01*
X530500Y278089D02*
Y300246D01*
X519000Y296099D02*
X524568Y301667D01*
X521000Y265917D02*
X523500Y263417D01*
X545750Y256985D02*
Y257849D01*
X543682Y254917D02*
X545750Y256985D01*
X523500Y263417D02*
X543752D01*
X519500Y260917D02*
X542666D01*
X543500Y258417D02*
X546000Y260917D01*
Y262837D01*
X682136Y276917D02*
X682727Y277508D01*
X640500Y267917D02*
X641000D01*
X666516Y262402D02*
X668500D01*
X476250Y205349D02*
X484818Y213917D01*
X483500Y184417D02*
X487904D01*
X693500Y229417D02*
X695504Y227413D01*
X683500Y229417D02*
X693500D01*
X682500Y255917D02*
X684809Y258226D01*
X689500Y259735D02*
X691009Y258226D01*
X663414Y238417D02*
X664500D01*
X661578Y235167D02*
X663000D01*
X665400Y263517D02*
X666516Y262402D01*
X562000Y266917D02*
X562923Y265994D01*
X585276Y253039D02*
X585283Y253032D01*
X585326D01*
X601024Y212094D02*
X602252D01*
X588476Y212101D02*
X588626Y212251D01*
Y212256D01*
X631750Y289092D02*
Y289178D01*
X630750Y288678D02*
X636000Y283428D01*
X556976Y264802D02*
X569885D01*
X562923Y265994D02*
X569577D01*
X585326Y253032D02*
Y253581D01*
X616500Y256917D02*
X617000Y256417D01*
X588500Y270417D02*
X589000D01*
X652500Y276917D02*
X655000Y274417D01*
X650500Y275917D02*
X655000Y271417D01*
X636750Y276692D02*
X640038D01*
X637664Y275692D02*
X640452D01*
X638078Y274692D02*
X640866D01*
X638493Y273692D02*
X641281D01*
X638907Y272692D02*
X641695D01*
X632750Y289506D02*
X636256Y286000D01*
X654000Y277917D02*
X654500Y277417D01*
X656337Y264254D02*
X656500Y264417D01*
Y264417D01*
X548500Y269917D02*
X549000D01*
X546750Y269192D02*
Y292667D01*
Y269192D02*
X547250Y268692D01*
Y264087D02*
Y268692D01*
X545750Y268778D02*
X546250Y268278D01*
Y264501D02*
Y268278D01*
X544750Y268364D02*
X545250Y267864D01*
Y264915D02*
Y267864D01*
X542500Y268417D02*
X543000D01*
X554500D02*
Y270917D01*
X547000Y259099D02*
Y260917D01*
X555500Y268735D02*
X556182Y269417D01*
X555500Y268003D02*
Y268735D01*
X556500Y268321D02*
X556596Y268417D01*
X556500Y267589D02*
Y268321D01*
X551500Y262589D02*
X556500Y267589D01*
X551500Y258917D02*
Y262589D01*
X548000Y256917D02*
Y260503D01*
X549000Y272013D02*
X553404Y276417D01*
X627650Y255804D02*
Y255955D01*
X586452Y242917D02*
X587000D01*
X556182Y269417D02*
X560500D01*
X556596Y268417D02*
X561025D01*
X551000Y272599D02*
X553818Y275417D01*
X559348Y271417D02*
X562349Y274417D01*
X560500Y269417D02*
X564500Y273417D01*
X561025Y268417D02*
X565025Y272417D01*
X584500Y272917D02*
Y273417D01*
X583500Y274417D02*
X584500Y273417D01*
X581500Y270417D02*
X582500D01*
X686121Y223296D02*
X698500D01*
X585283Y246733D02*
X585326D01*
X585333Y246726D01*
X547000Y260917D02*
X554500Y268417D01*
X548000Y260503D02*
X555500Y268003D01*
X627000Y228417D02*
Y228917D01*
X626750Y229167D02*
X627000Y228917D01*
X542000Y254417D02*
X542500Y254917D01*
X519500Y273099D02*
X523682Y268917D01*
X519500Y273099D02*
Y276917D01*
X517500Y271917D02*
X519268D01*
X523268Y267917D01*
X540500Y290660D02*
X548757Y298917D01*
X540500Y286417D02*
Y290660D01*
X523000Y282417D02*
X524500D01*
X524568Y301667D02*
X527679D01*
X524000Y297917D02*
X525343D01*
X519000Y305417D02*
X529500D01*
X529429Y303417D02*
X530328D01*
X527679Y301667D02*
X529429Y303417D01*
X529843Y302417D02*
X530743D01*
X530257Y301417D02*
X531157D01*
X529500Y300660D02*
X530257Y301417D01*
X530672Y300417D02*
X531571D01*
X530500Y300246D02*
X530672Y300417D01*
X532500Y278917D02*
Y298518D01*
X535750Y303182D02*
Y303263D01*
X534750Y303596D02*
Y303678D01*
X531571Y300417D02*
X534750Y303596D01*
X533750Y304010D02*
Y304092D01*
X531157Y301417D02*
X533750Y304010D01*
X532750Y304425D02*
Y304506D01*
X530743Y302417D02*
X532750Y304425D01*
X531750Y304839D02*
Y304920D01*
X530328Y303417D02*
X531750Y304839D01*
X530750Y305253D02*
Y305334D01*
X529914Y304417D02*
X530750Y305253D01*
X529750Y305667D02*
Y305749D01*
X529500Y305417D02*
X529750Y305667D01*
X525343Y297917D02*
X529843Y302417D01*
X531500Y278503D02*
Y298932D01*
X535750Y303182D01*
X519414Y304417D02*
X529914D01*
X624500Y246917D02*
X626500D01*
X623750Y245167D02*
X627947D01*
X621000Y247917D02*
X623750Y245167D01*
X626500Y246917D02*
X629541Y249959D01*
X665647Y232271D02*
X666500Y231417D01*
Y226917D02*
Y231417D01*
Y226917D02*
X668500Y224917D01*
X659750Y236167D02*
X664877Y241295D01*
X660783Y241286D02*
X665000Y245503D01*
X662500Y244417D02*
Y246417D01*
X660368Y242286D02*
X662500Y244417D01*
X661000Y247917D02*
X662500Y246417D01*
X665000Y249160D02*
X665757Y249917D01*
X689709Y246417D02*
X692354Y243772D01*
X687000Y245417D02*
X688000Y244417D01*
X673914Y255003D02*
X680500Y248417D01*
X674000Y246417D02*
X689709D01*
X670500Y249917D02*
X674000Y246417D01*
X665757Y249917D02*
X670500D01*
X671000Y245917D02*
X671500Y245417D01*
X687000D01*
X670414Y253003D02*
X674500Y248917D01*
X671914Y254003D02*
X677500Y248417D01*
X640750Y265430D02*
X642680Y263500D01*
X654500Y277417D02*
X656500D01*
X655000Y274417D02*
X656500D01*
X655000Y271417D02*
X656500D01*
X650000Y274417D02*
X656000Y268417D01*
X645500Y274417D02*
X650000D01*
X640500Y267569D02*
X640566Y267503D01*
X639725Y266667D02*
X640750Y265642D01*
X630000Y271871D02*
Y274917D01*
X628247Y270117D02*
X630000Y271871D01*
X635600Y257317D02*
X638163D01*
X639500Y270417D02*
X650500D01*
X637000Y262417D02*
X638486D01*
X632177Y270158D02*
Y273594D01*
X633177Y269744D02*
Y272619D01*
X634177Y269330D02*
Y272205D01*
X635177Y268916D02*
Y271791D01*
X636177Y268502D02*
Y271377D01*
X632177Y273594D02*
X637083Y278500D01*
X636750Y276192D02*
Y276692D01*
X633177Y272619D02*
X636750Y276192D01*
X634177Y272205D02*
X637664Y275692D01*
X635177Y271791D02*
X638078Y274692D01*
X636177Y271377D02*
X638493Y273692D01*
X637177Y270962D02*
X638907Y272692D01*
X637177Y267023D02*
Y270962D01*
X636734Y266580D02*
X637177Y267023D01*
X635748Y266580D02*
X636734D01*
X638275Y266667D02*
X639725D01*
X637250Y265642D02*
X638275Y266667D01*
X636163Y265580D02*
X637250D01*
X663000Y262417D02*
X663750Y261667D01*
X663516Y257417D02*
X667500D01*
X663516Y256003D02*
X678328D01*
X660180Y252667D02*
X663516Y256003D01*
X663930Y255003D02*
X673914D01*
X660594Y251667D02*
X663930Y255003D01*
X664344Y254003D02*
X671914D01*
X661008Y250667D02*
X664344Y254003D01*
X664758Y253003D02*
X670414D01*
X661423Y249667D02*
X664758Y253003D01*
X653086Y258817D02*
X655900D01*
X654600Y260238D02*
X654672Y260167D01*
X659000Y279417D02*
X665250Y273167D01*
X659414Y280417D02*
X665664Y274167D01*
X667500Y257417D02*
X671000Y260917D01*
X677500Y276917D02*
X682136D01*
X671000Y260917D02*
Y270917D01*
X665250Y273167D02*
X681396D01*
X672649Y276808D02*
X675134D01*
X676775Y275167D01*
X671000Y270917D02*
X672250Y272167D01*
X681811D01*
X685904Y272417D02*
X688654Y275167D01*
X685490Y273417D02*
X688490Y276417D01*
X665664Y274167D02*
X680982D01*
X685000Y274417D02*
X688000Y277417D01*
X680568Y275167D02*
X681068Y275667D01*
X676775Y275167D02*
X680568D01*
X681232Y274417D02*
X685000D01*
X680982Y274167D02*
X681232Y274417D01*
X681646Y273417D02*
X685490D01*
X681396Y273167D02*
X681646Y273417D01*
X682061Y272417D02*
X685904D01*
X681811Y272167D02*
X682061Y272417D01*
X564500Y190417D02*
X565500D01*
X552000Y189417D02*
X553914D01*
X550000Y187417D02*
X552000Y189417D01*
X552500Y188417D02*
X554328D01*
X550500Y186417D02*
X552500Y188417D01*
X552914Y187417D02*
X554743D01*
X553328Y186417D02*
X555157D01*
X550122Y183211D02*
X553328Y186417D01*
X549708Y184211D02*
X552914Y187417D01*
X620577Y245840D02*
X621500Y244917D01*
X620818Y261321D02*
Y261649D01*
X619109Y259612D02*
X620818Y261321D01*
X619818Y261735D02*
Y262064D01*
X618750Y260667D02*
X619818Y261735D01*
X621000Y247917D02*
Y252917D01*
X619825Y256067D02*
X624850D01*
X620884Y259169D02*
X621882Y260167D01*
X535500Y250417D02*
X552917D01*
X699500Y260917D02*
X701500Y258917D01*
X702500Y261099D02*
X704000Y259599D01*
X699500Y260917D02*
Y270599D01*
X702500Y261099D02*
Y269917D01*
X691009Y254180D02*
X702000Y243189D01*
X696500Y250103D02*
X703000Y243603D01*
X699000Y249018D02*
X704000Y244018D01*
X701500Y247932D02*
X705000Y244432D01*
X706000Y237175D02*
Y244846D01*
X704000Y246846D02*
X706000Y244846D01*
X710500Y236917D02*
Y265417D01*
X707000Y237589D02*
Y266417D01*
X702000Y235518D02*
Y243189D01*
X703000Y235932D02*
Y243603D01*
X704000Y236346D02*
Y244018D01*
X705000Y236760D02*
Y244432D01*
X723500Y256417D02*
X724500Y257417D01*
X723500Y246417D02*
Y256417D01*
X732000Y257417D02*
X733000Y256417D01*
Y252417D02*
Y256417D01*
X731000Y250417D02*
X733000Y252417D01*
X736000Y254417D02*
X736811Y255228D01*
X789000Y291917D02*
Y292831D01*
X790500Y285917D02*
Y287235D01*
X786750Y290985D02*
X790500Y287235D01*
X787750Y294081D02*
X789000Y292831D01*
X790500Y300417D02*
Y303574D01*
X781500Y306917D02*
X784750Y303667D01*
X781914Y307917D02*
X785750Y304081D01*
X782328Y308917D02*
X786750Y304496D01*
X782743Y309917D02*
X787750Y304910D01*
X786750Y290985D02*
Y304496D01*
X787750Y294081D02*
Y304910D01*
X776000Y309917D02*
X782743D01*
X794000Y297417D02*
Y301488D01*
X730500Y257417D02*
X732000D01*
X735500Y255228D02*
Y261228D01*
X730311Y266417D02*
X735500Y261228D01*
X725000Y266417D02*
X730311D01*
X731000Y260417D02*
X733000D01*
X728500Y262917D02*
X731000Y260417D01*
X722000Y259417D02*
Y263917D01*
X722500Y264417D01*
X726000Y250417D02*
X728500Y252917D01*
Y254917D01*
X785750Y287485D02*
Y304081D01*
X680000Y243417D02*
X682000Y241417D01*
Y238917D02*
Y241417D01*
X672500Y229417D02*
Y240017D01*
X671000Y227917D02*
X672500Y229417D01*
X669100Y243417D02*
X672500Y240017D01*
X664328Y243417D02*
X669100D01*
X685568Y270667D02*
X688568Y273667D01*
X682750Y270667D02*
X685568D01*
X682000Y269917D02*
X682750Y270667D01*
X755500Y306917D02*
X781500D01*
X755914Y307917D02*
X781914D01*
X756328Y308917D02*
X782328D01*
X754328Y310917D02*
X756328Y308917D01*
X753914Y309917D02*
X755914Y307917D01*
X753500Y308917D02*
X755500Y306917D01*
X752596Y309917D02*
X753914D01*
X753010Y310917D02*
X754328D01*
X752182Y308917D02*
X753500D01*
X635500Y300917D02*
X641250Y306667D01*
X784750Y280167D02*
X787500Y277417D01*
X784750Y280167D02*
Y303667D01*
X634000Y300917D02*
X635500D01*
X639788Y301705D02*
X642500Y304417D01*
X789500Y309417D02*
Y310331D01*
X784000Y311488D02*
X794000Y301488D01*
X783000Y311074D02*
X790500Y303574D01*
X773493Y316667D02*
X781507D01*
X784000Y314175D01*
Y311488D02*
Y314175D01*
X783000Y311074D02*
Y313760D01*
X781093Y315667D02*
X783000Y313760D01*
X718000Y265417D02*
X721500Y268917D01*
X714500Y236417D02*
X716000Y234917D01*
X710500Y236917D02*
X715000Y232417D01*
X707000Y237589D02*
X714000Y230589D01*
X706000Y237175D02*
X713000Y230175D01*
X705000Y236760D02*
X712000Y229760D01*
X704000Y236346D02*
X711000Y229346D01*
X703000Y235932D02*
X710000Y228932D01*
X702000Y235518D02*
X709000Y228518D01*
X717000Y266917D02*
X717500Y267417D01*
X701803Y230114D02*
X702500Y229417D01*
Y222917D02*
Y229417D01*
X711000Y223049D02*
Y229346D01*
X712000Y223463D02*
Y229760D01*
X700000Y220417D02*
X702500Y222917D01*
X684500Y220417D02*
X700000D01*
X691000Y202917D02*
Y205417D01*
X692500Y206917D01*
X691000Y202917D02*
X693500Y200417D01*
X760000Y323417D02*
X762667D01*
X579000Y202417D02*
X580712Y200706D01*
X585000Y203067D02*
X587150Y200917D01*
X565500Y190417D02*
X567000Y188917D01*
X603500Y180417D02*
X617417Y166500D01*
X563500Y180417D02*
X603500D01*
X571500Y157295D02*
X587705Y173500D01*
X603801Y210545D02*
X605127D01*
X542493Y209667D02*
X548250D01*
X549083Y210500D01*
X550000D01*
X554583Y191500D02*
X559000Y195917D01*
X504500Y214000D02*
X506917Y215917D01*
X578336Y239692D02*
X581157Y236871D01*
X577922Y238692D02*
X580743Y235871D01*
X578068Y244417D02*
X583025D01*
X577495Y244990D02*
X578068Y244417D01*
X580500Y241417D02*
X581000Y240917D01*
X580025Y239417D02*
X583500D01*
X580743Y235871D02*
X584353D01*
X587000Y238517D01*
X593600D01*
X581157Y236871D02*
X583828D01*
X586875Y239917D01*
X577654Y243417D02*
X583500D01*
X568775Y248133D02*
X569867D01*
X576479Y238000D02*
X577172Y238692D01*
X577922D01*
X576757Y239692D02*
X578336D01*
X576343Y240692D02*
X578750D01*
X706583Y215500D02*
X708500Y217417D01*
X710667Y214500D02*
X711000Y214167D01*
X552917Y250417D02*
X557000Y254500D01*
X576300Y235000D02*
X577700Y236400D01*
X575743Y238000D02*
X576479D01*
X576111Y239046D02*
Y239046D01*
X576757Y239692D01*
X576111Y240460D02*
X576111D01*
X576343Y240692D01*
X554709Y248417D02*
X558000D01*
X569867Y248133D02*
X570920Y247080D01*
Y246042D02*
Y247080D01*
X556500Y246417D02*
X557917Y245000D01*
X558000Y248417D02*
X560417Y246000D01*
X554000Y244417D02*
X554417Y244000D01*
X543218Y238000D02*
X556251D01*
X557251Y239000D01*
X555837D02*
X556837Y240000D01*
X555423D02*
X556423Y241000D01*
X555009D02*
X556009Y242000D01*
X554595D02*
X555594Y243000D01*
X535275Y226167D02*
X536725D01*
X514750Y227167D02*
X537139D01*
X511750Y228167D02*
X537553D01*
X536725Y226167D02*
X537750Y225142D01*
X537139Y227167D02*
X538750Y225556D01*
X537553Y228167D02*
X539750Y225971D01*
X583000Y220000D02*
X584500D01*
X583250Y217750D02*
X589725D01*
X576500Y247413D02*
Y248646D01*
X575500Y249646D02*
X576500Y248646D01*
X575500Y249646D02*
Y253687D01*
X570920Y246042D02*
X571945Y245017D01*
X573395D01*
X573412Y245000D01*
X574400D01*
X574409Y244990D01*
X577495D01*
X573985Y244000D02*
X576111Y241874D01*
Y241874D01*
X577654Y243417D01*
X573571Y243000D02*
X576111Y240460D01*
X573157Y242000D02*
X576111Y239046D01*
X572743Y241000D02*
X575743Y238000D01*
X579986Y229514D02*
Y230514D01*
X578361Y231250D02*
X579250D01*
X579986Y230514D01*
X581250Y232250D02*
X581500Y232000D01*
X578775Y232250D02*
X581250D01*
X570850Y213350D02*
X577250Y219750D01*
X566350Y213350D02*
X570850D01*
X564167Y212667D02*
X566500Y215000D01*
X539985Y202917D02*
X541068Y204000D01*
X541825Y209000D02*
X542493Y209667D01*
X477250Y202750D02*
X481500Y207000D01*
X477250Y194750D02*
Y202750D01*
X481000Y191000D02*
X485500D01*
X488000Y188500D01*
X477250Y194750D02*
X481000Y191000D01*
X483500Y188417D02*
X484417Y187500D01*
X488000Y188500D02*
X489000D01*
X490000Y189500D01*
X503500D01*
X496928Y185000D02*
X524000D01*
X530500Y191500D01*
X554583D01*
X524414Y184000D02*
X527831Y187417D01*
X550000D01*
X524828Y183000D02*
X528246Y186417D01*
X525243Y182000D02*
X527453Y184211D01*
X549708D01*
X525657Y181000D02*
X527867Y183211D01*
X550122D01*
X528246Y186417D02*
X550500D01*
X488321Y184000D02*
X524414D01*
X496000Y182000D02*
X525243D01*
X503500Y189500D02*
X505500Y191500D01*
X527250D01*
X534750Y199000D01*
X549500D01*
X566400Y211900D02*
X572500D01*
X541068Y204000D02*
X546669D01*
X548669Y206000D01*
X555500Y208000D02*
X556000D01*
X554500Y207000D02*
X555500Y208000D01*
X562500Y197417D02*
X569456Y204373D01*
X564500Y210000D02*
X566400Y211900D01*
X560331Y213500D02*
X561164Y212667D01*
X564167D01*
X558500Y214917D02*
X558917Y214500D01*
X560746D01*
X561078Y214167D01*
X562225D01*
X554392Y212000D02*
X555694D01*
X546000Y201917D02*
X549083Y205000D01*
X563250Y210250D02*
X566350Y213350D01*
X561000Y207545D02*
X563250Y209795D01*
Y210250D01*
X564500Y208500D02*
Y210000D01*
X552500Y209000D02*
X554108D01*
X551500Y208000D02*
X552500Y209000D01*
X559000Y195917D02*
Y203000D01*
X558551Y205051D02*
X561051D01*
X564500Y208500D01*
X548669Y206000D02*
X556475D01*
X549083Y205000D02*
X556889D01*
X557500Y204000D02*
X558551Y205051D01*
X554500Y204000D02*
X557500D01*
X549500Y199000D02*
X554500Y204000D01*
X572000Y216000D02*
X575263Y219263D01*
Y219263D01*
X575250Y219275D02*
X575263Y219263D01*
X575250Y219275D02*
Y220725D01*
X576275Y221750D01*
X577725D01*
X577737Y221737D01*
X579237D01*
X579250Y221750D01*
X567046Y217454D02*
X568500Y216000D01*
X572000D01*
X486583Y219917D02*
X493500Y213000D01*
X484917Y225417D02*
X489500Y230000D01*
X493500Y213000D02*
X496500D01*
X541000Y242500D02*
X541583D01*
X541725Y240750D02*
X541975Y241000D01*
X539033Y237750D02*
X542968D01*
X543218Y238000D01*
X541975Y241000D02*
X555009D01*
X542553Y238750D02*
X542803Y239000D01*
X555837D01*
X542139Y239750D02*
X542389Y240000D01*
X555423D01*
X541583Y242500D02*
X542083Y242000D01*
X554595D01*
X540275Y240750D02*
X541725D01*
X539861Y239750D02*
X542139D01*
X539447Y238750D02*
X542553D01*
X535525Y245500D02*
X540275Y240750D01*
X535111Y244500D02*
X539861Y239750D01*
X534282Y242500D02*
X539033Y237750D01*
X534697Y243500D02*
X539447Y238750D01*
X576714Y234000D02*
X577364Y234650D01*
X577128Y233000D02*
X577577Y233448D01*
X577577D01*
X577543Y232000D02*
X577577Y232034D01*
X577577D01*
X578361Y231250D01*
X578850Y234650D02*
X579500Y234000D01*
X577364Y234650D02*
X578850D01*
X577577Y233448D02*
X578775Y232250D01*
X579500Y223500D02*
X583000Y220000D01*
X572400Y227750D02*
X572650Y228000D01*
X557251Y239000D02*
X562500D01*
X564157Y243000D02*
X566157Y241000D01*
X572743D01*
X564571Y244000D02*
X566571Y242000D01*
X573157D01*
X564985Y245000D02*
X566985Y243000D01*
X573571D01*
X565400Y246000D02*
X567400Y244000D01*
X573985D01*
X563328Y241000D02*
X566750Y237578D01*
Y235778D02*
Y237578D01*
X562914Y240000D02*
X565750Y237164D01*
Y235364D02*
Y237164D01*
X562500Y239000D02*
X564750Y236750D01*
Y234950D02*
Y236750D01*
Y234950D02*
X567700Y232000D01*
X565750Y235364D02*
X568114Y233000D01*
X577128D01*
X566750Y235778D02*
X568528Y234000D01*
X576714D01*
X563743Y242000D02*
X567750Y237993D01*
Y236192D02*
Y237993D01*
Y236192D02*
X568942Y235000D01*
X576300D01*
X555594Y243000D02*
X564157D01*
X554417Y244000D02*
X564571D01*
X557917Y245000D02*
X564985D01*
X560417Y246000D02*
X565400D01*
X556009Y242000D02*
X563743D01*
X556423Y241000D02*
X563328D01*
X556837Y240000D02*
X562914D01*
X567700Y232000D02*
X577543D01*
X565104Y220374D02*
X567526D01*
X569500Y218400D01*
X568626Y221374D02*
X572803D01*
X572806Y221376D01*
X565000Y225000D02*
X568626Y221374D01*
X556475Y206000D02*
X557750Y207275D01*
X559702Y212230D02*
X560187D01*
X561323Y211094D01*
X559558Y213500D02*
X560331D01*
X560528Y218500D02*
X561945Y219917D01*
X562250Y222167D02*
X563000Y222917D01*
X498500Y219000D02*
X500500Y217000D01*
X546954D01*
X539750Y224250D02*
Y225971D01*
X537750Y223422D02*
X540504Y220667D01*
X538750Y223836D02*
Y225556D01*
X537750Y223422D02*
Y225142D01*
X542000Y224500D02*
X544643D01*
X539750Y224250D02*
X541333Y222667D01*
X544225D01*
X538750Y223836D02*
X540919Y221667D01*
X544639D01*
X540504Y220667D02*
X545053D01*
X558081Y218667D02*
X559414Y220000D01*
X558496Y217667D02*
X559328Y218500D01*
X560528D01*
X557667Y219667D02*
X559000Y221000D01*
X556454Y219667D02*
X557667D01*
X557282Y217667D02*
X558496D01*
X559639Y212167D02*
X559702Y212230D01*
X559225Y213167D02*
X559558Y213500D01*
X556868Y218667D02*
X558081D01*
X556889Y205000D02*
X559434Y207545D01*
X561000D01*
X557696Y216667D02*
X558910D01*
X560360Y216917D02*
X562500D01*
X558910Y216667D02*
X559743Y217500D01*
X559777D01*
X560360Y216917D01*
X561361Y222167D02*
X562250D01*
X559000Y221000D02*
X560194D01*
X561361Y222167D01*
X561053Y225750D02*
X561303Y226000D01*
X560225Y227750D02*
X560475Y228000D01*
X560639Y226750D02*
X560889Y227000D01*
X559414Y220000D02*
X560614D01*
X560750Y220136D01*
Y220142D01*
X555786Y219000D02*
X556454Y219667D01*
X556201Y218000D02*
X556868Y218667D01*
X556615Y217000D02*
X557282Y217667D01*
X557029Y216000D02*
X557696Y216667D01*
X561468Y224750D02*
X561718Y225000D01*
X565000D01*
X562225Y214167D02*
X564250Y216192D01*
Y216750D01*
X565900Y218400D01*
X554108Y209000D02*
X557318Y212210D01*
X557318D01*
X557361Y212167D01*
X559639D01*
X555694Y212000D02*
X557194Y213500D01*
X557442D01*
X557775Y213167D01*
X559225D01*
X560750Y220142D02*
X561775Y221167D01*
X564311D01*
X565104Y220374D01*
X554417Y214500D02*
X555000Y213917D01*
X552892Y213500D02*
X554392Y212000D01*
X540169Y213000D02*
X542086Y214917D01*
X540583Y212000D02*
X542500Y213917D01*
X540997Y211000D02*
X542914Y212917D01*
X541411Y210000D02*
X543328Y211917D01*
X548942D01*
X542914Y212917D02*
X548528D01*
X542500Y213917D02*
X548114D01*
X542086Y214917D02*
X547700D01*
X506917Y215917D02*
X547286D01*
X551667Y212250D02*
X553000Y210917D01*
X550993Y213250D02*
X551243Y213500D01*
X552892D01*
X550578Y214250D02*
X550828Y214500D01*
X554417D01*
X550164Y215250D02*
X550914Y216000D01*
X557029D01*
X549750Y216250D02*
X550500Y217000D01*
X556615D01*
X515822Y219000D02*
X516822Y218000D01*
X502500Y219000D02*
X515822D01*
X549500D02*
X555786D01*
X549914Y218000D02*
X556201D01*
X550985Y212000D02*
X551235Y212250D01*
X549275D02*
X550725D01*
X550975Y212000D01*
X550985D01*
X546954Y217000D02*
X547204Y217250D01*
X549164D01*
X549914Y218000D01*
X516822D02*
X546540D01*
X546790Y218250D01*
X548750D01*
X549500Y219000D01*
X548942Y211917D02*
X549275Y212250D01*
X551235D02*
X551667D01*
X548528Y212917D02*
X548861Y213250D01*
X550993D01*
X548114Y213917D02*
X548447Y214250D01*
X550578D01*
X547700Y214917D02*
X548033Y215250D01*
X550164D01*
X547286Y215917D02*
X547618Y216250D01*
X549750D01*
X550000Y223000D02*
X559700D01*
X546000Y219000D02*
X550000Y223000D01*
X517236Y219000D02*
X546000D01*
X514236Y222000D02*
X517236Y219000D01*
X501500Y222000D02*
X514236D01*
X500500Y223000D02*
X501500Y222000D01*
X559000Y231500D02*
X561250Y233750D01*
X557000Y232500D02*
X561000Y236500D01*
X522000Y232500D02*
X557000D01*
X555062Y234000D02*
X558281Y237219D01*
X523000Y234000D02*
X555062D01*
X477500Y250500D02*
Y277500D01*
Y250500D02*
X498500Y229500D01*
Y219000D02*
Y229500D01*
X500500Y223000D02*
Y231500D01*
X450000Y236500D02*
X451417D01*
X516000Y297000D02*
Y301003D01*
X519500Y289000D02*
X523500D01*
X488000Y250500D02*
X507000Y231500D01*
X488000Y250500D02*
Y263000D01*
X508925Y248075D02*
X523000Y234000D01*
X491000Y263500D02*
X522000Y232500D01*
X491000Y263500D02*
Y279000D01*
X484500Y251000D02*
X506000Y229500D01*
X484500Y251000D02*
Y272000D01*
X481500Y250500D02*
X500500Y231500D01*
X481500Y250500D02*
Y277500D01*
X488500Y284500D01*
X477500Y277500D02*
X489000Y289000D01*
X518000Y262417D02*
X519500Y260917D01*
X513500Y299917D02*
X519000Y305417D01*
X513500Y295000D02*
Y299917D01*
Y295000D02*
X519500Y289000D01*
X531500Y278503D02*
X534000Y276003D01*
X530500Y278089D02*
X533000Y275589D01*
X523268Y267917D02*
X528417D01*
X534000Y273500D01*
Y276003D01*
X523682Y268917D02*
X528003D01*
X533000Y273914D01*
Y275589D01*
X624209Y192709D02*
X647709D01*
X650500Y189917D01*
X622250Y192068D02*
Y194250D01*
X625225Y191250D02*
X625475Y191500D01*
X645818D01*
X625639Y190250D02*
X625889Y190500D01*
X645404D01*
X622654Y190250D02*
X625639D01*
X622250Y192068D02*
X623068Y191250D01*
X625225D01*
X626490Y189000D02*
X645490D01*
X800000Y135417D02*
Y137500D01*
X795000Y142500D02*
X800000Y137500D01*
X783500Y142500D02*
X795000D01*
X789169Y135417D02*
X790000D01*
X773917Y141500D02*
X780000Y135417D01*
X764917Y140500D02*
X770000Y135417D01*
X759426D02*
X760000D01*
X749086Y141500D02*
X773917D01*
X748672Y140500D02*
X764917D01*
X748257Y139500D02*
X755343D01*
X759426Y135417D01*
X751000Y143500D02*
X781086D01*
X789169Y135417D01*
X751414Y144500D02*
X781500D01*
X783500Y142500D01*
X747586Y143000D02*
X749086Y141500D01*
X747172Y142000D02*
X748672Y140500D01*
X746757Y141000D02*
X748257Y139500D01*
X745417Y140000D02*
X750000Y135417D01*
X632420Y282080D02*
Y285593D01*
X629750Y288263D02*
X632420Y285593D01*
X636000Y282000D02*
Y283428D01*
X636256Y286000D02*
X639000D01*
X637083Y278500D02*
X640000D01*
X630000Y274917D02*
X630500Y275417D01*
Y277417D01*
X631177Y270573D02*
Y274177D01*
X636500Y279500D01*
X637000Y296000D02*
X651575D01*
X622910Y311667D02*
X640660Y329417D01*
X660000D01*
X623324Y310667D02*
X640074Y327417D01*
X642000D01*
X623738Y309667D02*
X632488Y318417D01*
X624153Y308667D02*
X632902Y317417D01*
X624567Y307667D02*
X633317Y316417D01*
X624981Y306667D02*
X633731Y315417D01*
X625395Y305667D02*
X634145Y314417D01*
X625809Y304667D02*
X634559Y313417D01*
X626224Y303667D02*
X634973Y312417D01*
X626638Y302667D02*
X635388Y311417D01*
X533669Y309667D02*
X623738D01*
X534083Y308667D02*
X624153D01*
X534497Y307667D02*
X624567D01*
X534911Y306667D02*
X624981D01*
X535740Y304667D02*
X625809D01*
X536650Y302667D02*
X626638D01*
X529750Y305749D02*
X533669Y309667D01*
X530750Y305334D02*
X534083Y308667D01*
X531750Y304920D02*
X534497Y307667D01*
X532750Y304506D02*
X534911Y306667D01*
X533750Y304092D02*
X535325Y305667D01*
X625395D01*
X534750Y303678D02*
X535740Y304667D01*
X535750Y303263D02*
X536154Y303667D01*
X626224D01*
X532500Y298518D02*
X536650Y302667D01*
X507000Y309339D02*
X512328Y314667D01*
X508000Y253331D02*
Y308925D01*
X512743Y313667D01*
X622081D01*
X509000Y308510D02*
X513157Y312667D01*
X622496D01*
X510000Y308096D02*
X513571Y311667D01*
X622910D01*
X511000Y307682D02*
X513985Y310667D01*
X623324D01*
X512328Y314667D02*
X621667D01*
X630000Y296500D02*
X638500Y288000D01*
X643500D01*
X594724Y253039D02*
X594738Y253026D01*
X594724Y253039D02*
X595311Y253626D01*
X651575Y296000D02*
X653575Y294000D01*
X750414Y145500D02*
X751414Y144500D01*
X750000D02*
X751000Y143500D01*
X688481Y198936D02*
X689000Y198417D01*
X659164Y261667D02*
X659250D01*
X637600Y229517D02*
X662900D01*
X663000Y229417D01*
X652000Y290500D02*
X655000D01*
X658000Y293500D01*
X608850Y254768D02*
X614750Y260667D01*
X611500Y254154D02*
X613750Y256404D01*
Y258056D01*
X624850Y256067D02*
X627000Y253917D01*
X633000D01*
X620239Y257067D02*
X626288D01*
X627038Y257817D01*
X628400D01*
X624875Y258542D02*
X625150Y258817D01*
X627986D01*
X628400Y257817D02*
X636163Y265580D01*
X627986Y258817D02*
X635748Y266580D01*
X628093Y260417D02*
X636177Y268502D01*
X628678Y262417D02*
X635177Y268916D01*
X628264Y263417D02*
X634177Y269330D01*
X627850Y264417D02*
X633177Y269744D01*
X627436Y265417D02*
X632177Y270158D01*
X627022Y266417D02*
X631177Y270573D01*
X621882Y260167D02*
X624132Y262417D01*
X628678D01*
X620818Y261649D02*
X621836Y262667D01*
X622967D01*
X623717Y263417D01*
X628264D01*
X619818Y262064D02*
X621422Y263667D01*
X622553D01*
X623303Y264417D01*
X627850D01*
X615225D02*
X620757D01*
X621007Y264667D01*
X622139D01*
X622889Y265417D01*
X627436D01*
X619250Y265667D02*
X621725D01*
X622475Y266417D01*
X627022D01*
X617500Y254067D02*
X618500Y255067D01*
X624350D01*
X614750Y257642D02*
X615775Y258667D01*
X617225D01*
X617427D02*
X618639D01*
X620239Y257067D01*
X615361Y259667D02*
X619053D01*
X614750Y260667D02*
X618750D01*
X641695Y272692D02*
X644920Y275917D01*
X650500D01*
X641281Y273692D02*
X644505Y276917D01*
X652500D01*
X640866Y274692D02*
X644091Y277917D01*
X654000D01*
X640452Y275692D02*
X644177Y279417D01*
X659000D01*
X640038Y276692D02*
X643763Y280417D01*
X659414D01*
X640000Y278500D02*
X652000Y290500D01*
X636500Y279500D02*
X639000D01*
X649000Y289500D01*
Y293000D01*
D35*
X690000Y345417D02*
X699917Y335500D01*
X801500D01*
X807500Y329500D01*
Y280500D02*
Y329500D01*
X798500Y271500D02*
X807500Y280500D01*
X798500Y259000D02*
Y271500D01*
X817500Y211000D02*
Y240000D01*
X798500Y259000D02*
X817500Y240000D01*
X809000Y202500D02*
X817500Y211000D01*
X809000Y181000D02*
Y202500D01*
X794500Y166500D02*
X809000Y181000D01*
X794500Y154500D02*
Y166500D01*
Y154500D02*
X808000Y141000D01*
Y133000D02*
Y141000D01*
X804500Y129500D02*
X808000Y133000D01*
X735917Y129500D02*
X804500D01*
X730000Y135417D02*
X735917Y129500D01*
X484000Y129917D02*
X653500D01*
X462000Y158417D02*
X474000Y146417D01*
X379600Y158417D02*
X462000D01*
X474000Y139917D02*
X484000Y129917D01*
X470000Y135917D02*
X474000Y139917D01*
X417500Y135917D02*
X470000D01*
X405500Y147917D02*
X417500Y135917D01*
X380500Y147917D02*
X405500D01*
X355500Y172917D02*
X380500Y147917D01*
X355500Y172917D02*
Y184917D01*
X723083Y128500D02*
X730000Y135417D01*
X664000Y128500D02*
X723083D01*
X656500Y136000D02*
X664000Y128500D01*
X632000Y136000D02*
X656500D01*
X626500Y141500D02*
X632000Y136000D01*
X510000Y141500D02*
X626500D01*
X506000Y137500D02*
X510000Y141500D01*
X482917Y137500D02*
X506000D01*
X474000Y146417D02*
X482917Y137500D01*
D36*
X335000Y137917D02*
G03*
X347500Y125417I12500J0D01*
G01*
Y335417D02*
G03*
X335000Y322917I0J-12500D01*
G01*
X784000Y355417D02*
X810000Y329417D01*
X614500Y355417D02*
X784000D01*
X594500Y335417D02*
X614500Y355417D01*
X347500Y335417D02*
X594500D01*
X810000Y125417D02*
Y135417D01*
Y285417D02*
X820000Y275417D01*
Y145417D02*
Y275417D01*
X810000Y135417D02*
X820000Y145417D01*
X347500Y125417D02*
X810000D01*
X335000Y137917D02*
Y322917D01*
X810000Y285417D02*
Y329417D01*
D37*
X448260Y249787D02*
X512433D01*
Y303331D01*
X448260D02*
X512433D01*
X448260Y249787D02*
Y303331D01*
D38*
X705000Y155417D02*
D03*
X620000D02*
D03*
X670000Y345417D02*
D03*
X740000D02*
D03*
X714000Y325417D02*
D03*
X800000D02*
D03*
X680000Y135417D02*
D03*
X750000D02*
D03*
X594000D02*
D03*
D39*
X715000Y155417D02*
D03*
X725000D02*
D03*
X735000D02*
D03*
X745000D02*
D03*
X755000D02*
D03*
X765000D02*
D03*
X775000D02*
D03*
X630000D02*
D03*
X640000D02*
D03*
X650000D02*
D03*
X660000D02*
D03*
X670000D02*
D03*
X680000D02*
D03*
X690000D02*
D03*
X660000Y345417D02*
D03*
X650000D02*
D03*
X640000D02*
D03*
X630000D02*
D03*
X620000D02*
D03*
X730000D02*
D03*
X720000D02*
D03*
X710000D02*
D03*
X700000D02*
D03*
X690000D02*
D03*
X644000Y325417D02*
D03*
X654000D02*
D03*
X664000D02*
D03*
X674000D02*
D03*
X684000D02*
D03*
X694000D02*
D03*
X704000D02*
D03*
X790000D02*
D03*
X780000D02*
D03*
X770000D02*
D03*
X760000D02*
D03*
X750000D02*
D03*
X740000D02*
D03*
X730000D02*
D03*
X690000Y135417D02*
D03*
X700000D02*
D03*
X710000D02*
D03*
X720000D02*
D03*
X730000D02*
D03*
X800000D02*
D03*
X790000D02*
D03*
X780000D02*
D03*
X770000D02*
D03*
X760000D02*
D03*
X604000D02*
D03*
X614000D02*
D03*
X624000D02*
D03*
D40*
X579811Y136559D02*
D03*
Y154276D02*
D03*
X556189Y136559D02*
D03*
Y154276D02*
D03*
D41*
X341000Y285017D02*
D03*
X351000D02*
D03*
X341000Y225817D02*
D03*
X351000D02*
D03*
D42*
X376000Y274417D02*
D03*
Y236417D02*
D03*
X402000Y259417D02*
D03*
Y267417D02*
D03*
Y275417D02*
D03*
X412000Y263417D02*
D03*
Y271417D02*
D03*
Y279417D02*
D03*
X519500Y325917D02*
D03*
X545500D02*
D03*
X377500Y131917D02*
D03*
D43*
X376000Y290017D02*
D03*
Y220817D02*
D03*
D44*
X379600Y158417D02*
D03*
X355978D02*
D03*
X367789Y139913D02*
D03*
D45*
X714500Y204000D02*
D03*
X605000Y271417D02*
D03*
X643000Y241500D02*
D03*
X645500Y264000D02*
D03*
X641000Y267917D02*
D03*
X642500Y247000D02*
D03*
Y251500D02*
D03*
X657000Y247500D02*
D03*
Y255000D02*
D03*
Y258417D02*
D03*
Y263917D02*
D03*
X656500Y268417D02*
D03*
X588626Y212256D02*
D03*
X588288Y205970D02*
D03*
X593150Y216819D02*
D03*
X600000Y201500D02*
D03*
X596500Y199500D02*
D03*
X592000Y201500D02*
D03*
X597500Y178500D02*
D03*
X598500Y186000D02*
D03*
X601000Y177500D02*
D03*
X664500Y147000D02*
D03*
X680500Y205500D02*
D03*
X693500Y200417D02*
D03*
X720250Y233250D02*
D03*
X720000Y248500D02*
D03*
X723500Y246417D02*
D03*
X741000Y216500D02*
D03*
X719500Y228000D02*
D03*
X785500Y222500D02*
D03*
X801000Y216000D02*
D03*
X788000Y220500D02*
D03*
X791000D02*
D03*
X707000Y209500D02*
D03*
X707500Y212500D02*
D03*
X711000Y214417D02*
D03*
X738000Y215000D02*
D03*
X735000Y214500D02*
D03*
X731500D02*
D03*
X728500D02*
D03*
X725500D02*
D03*
X721925Y214575D02*
D03*
X718567Y214067D02*
D03*
X715500Y214200D02*
D03*
X504500Y214000D02*
D03*
X623000Y226917D02*
D03*
X627000Y228417D02*
D03*
X601000Y198500D02*
D03*
X620000Y215417D02*
D03*
X613500Y199500D02*
D03*
X604062Y208795D02*
D03*
X604400Y206000D02*
D03*
X597874Y205795D02*
D03*
X581500Y232000D02*
D03*
X579000Y246726D02*
D03*
X572677Y249890D02*
D03*
X569500Y224693D02*
D03*
Y249883D02*
D03*
X581500Y256917D02*
D03*
X566378Y253039D02*
D03*
X575827Y246740D02*
D03*
X577700Y236400D02*
D03*
X584000Y242917D02*
D03*
X578500Y256917D02*
D03*
X585276Y249890D02*
D03*
X594400Y249609D02*
D03*
X594738Y253039D02*
D03*
X602000Y272417D02*
D03*
X592000Y273417D02*
D03*
X588500Y270417D02*
D03*
X588000Y273917D02*
D03*
X585800Y266429D02*
D03*
X585276Y246726D02*
D03*
X577000Y262917D02*
D03*
X578318Y269735D02*
D03*
X583200Y267417D02*
D03*
X587000Y242917D02*
D03*
X588425Y246740D02*
D03*
X601000D02*
D03*
Y253039D02*
D03*
X597800Y249817D02*
D03*
X579500Y234000D02*
D03*
X584500Y220000D02*
D03*
X555000Y214073D02*
D03*
X617000Y189000D02*
D03*
X621500Y195000D02*
D03*
X489500Y230000D02*
D03*
X496035Y229382D02*
D03*
X520500Y225417D02*
D03*
X513500Y225917D02*
D03*
X577000Y220000D02*
D03*
X546000Y201917D02*
D03*
X582150Y246747D02*
D03*
X585500Y252817D02*
D03*
X579126Y252928D02*
D03*
X584500Y273417D02*
D03*
X586500Y256917D02*
D03*
X582500Y270417D02*
D03*
X588425Y249890D02*
D03*
X603000Y257417D02*
D03*
X607500D02*
D03*
X610000Y258917D02*
D03*
X608500Y269917D02*
D03*
X588425Y253039D02*
D03*
X607346Y224693D02*
D03*
X595000Y242917D02*
D03*
X610500Y202417D02*
D03*
X559000Y203000D02*
D03*
X604173Y249890D02*
D03*
X607300Y243571D02*
D03*
X600500Y242917D02*
D03*
X597500Y235871D02*
D03*
X607346Y240441D02*
D03*
X610500D02*
D03*
X607323Y249890D02*
D03*
X613622Y253039D02*
D03*
X610400Y246676D02*
D03*
X613514Y243439D02*
D03*
X617000Y240417D02*
D03*
X617500Y236617D02*
D03*
X618000Y250417D02*
D03*
X610415Y249817D02*
D03*
X604173Y253039D02*
D03*
X789500Y309417D02*
D03*
X585500Y198917D02*
D03*
X577712Y200134D02*
D03*
X579000Y202417D02*
D03*
X605613Y200805D02*
D03*
X604064Y224545D02*
D03*
X621500Y244917D02*
D03*
X625000Y240917D02*
D03*
X622000Y233417D02*
D03*
X620750Y253228D02*
D03*
X621000Y258917D02*
D03*
X615500Y268417D02*
D03*
X631500Y243417D02*
D03*
X624500Y258917D02*
D03*
X660000Y244917D02*
D03*
X688000Y243917D02*
D03*
X610500Y234142D02*
D03*
X584000Y256917D02*
D03*
X613615Y249917D02*
D03*
X614000Y270917D02*
D03*
X597500Y242917D02*
D03*
X626750Y260617D02*
D03*
X621500Y271417D02*
D03*
X593000Y240917D02*
D03*
X682000Y238917D02*
D03*
X601900Y235018D02*
D03*
X607346Y234142D02*
D03*
X601500Y231417D02*
D03*
X599000Y222417D02*
D03*
X601024Y212094D02*
D03*
X568000Y257417D02*
D03*
X556500Y246417D02*
D03*
X595500Y229417D02*
D03*
X712500Y267917D02*
D03*
X715500Y270917D02*
D03*
X717500Y267417D02*
D03*
X668500Y224917D02*
D03*
X669000Y227917D02*
D03*
X623000Y217500D02*
D03*
X550500Y267417D02*
D03*
X554000Y262417D02*
D03*
X563000Y201417D02*
D03*
X566550Y215100D02*
D03*
X724500Y257417D02*
D03*
X572677Y208945D02*
D03*
X569550Y208950D02*
D03*
X572500Y202417D02*
D03*
X566400Y218400D02*
D03*
X594700Y212067D02*
D03*
X664500Y238417D02*
D03*
X590000Y224417D02*
D03*
X636000Y282000D02*
D03*
X668500Y262402D02*
D03*
X664500Y261417D02*
D03*
X674500Y248917D02*
D03*
X562000Y266917D02*
D03*
X595500Y226417D02*
D03*
X601024Y208945D02*
D03*
X597874Y208917D02*
D03*
X552000Y235917D02*
D03*
X550709Y244417D02*
D03*
X558500Y271417D02*
D03*
X566000Y270417D02*
D03*
X637500Y244417D02*
D03*
X628671Y276746D02*
D03*
X644500Y272417D02*
D03*
X656500Y274417D02*
D03*
X548500Y269917D02*
D03*
X618000D02*
D03*
X710313Y265816D02*
D03*
X730500Y257417D02*
D03*
X572500Y211900D02*
D03*
X564500Y256917D02*
D03*
X633000Y258917D02*
D03*
X624500Y246917D02*
D03*
X629000Y249417D02*
D03*
X663000Y235167D02*
D03*
X664877Y241295D02*
D03*
X671000Y245917D02*
D03*
X680000Y243417D02*
D03*
X680500Y248417D02*
D03*
X677500D02*
D03*
X656500Y277417D02*
D03*
Y271417D02*
D03*
X661500Y260417D02*
D03*
X637000Y259417D02*
D03*
Y262417D02*
D03*
X628247Y270117D02*
D03*
X639500Y270417D02*
D03*
X639000Y264917D02*
D03*
X671500Y276917D02*
D03*
X677500D02*
D03*
X682000Y269917D02*
D03*
X554000Y244417D02*
D03*
X617500Y254417D02*
D03*
X725000Y266417D02*
D03*
X733000Y260417D02*
D03*
X728500Y262917D02*
D03*
X722500Y264417D02*
D03*
X722000Y259417D02*
D03*
X728500Y254917D02*
D03*
X726000Y250417D02*
D03*
X693500Y183917D02*
D03*
X788000Y277417D02*
D03*
X693500Y204917D02*
D03*
X696500Y201417D02*
D03*
X603500Y196500D02*
D03*
X585000Y206000D02*
D03*
X589000Y216000D02*
D03*
X575000Y202000D02*
D03*
X550000Y210500D02*
D03*
X583500Y239417D02*
D03*
X580500Y241417D02*
D03*
X626750Y188750D02*
D03*
X557000Y254500D02*
D03*
X585276Y224693D02*
D03*
X579000Y249890D02*
D03*
X572670Y246767D02*
D03*
X572700Y237300D02*
D03*
X569500Y236917D02*
D03*
X572650Y227850D02*
D03*
X588425Y227842D02*
D03*
X588500Y230917D02*
D03*
X591500D02*
D03*
X556000Y208000D02*
D03*
X563000Y204000D02*
D03*
X566378Y208945D02*
D03*
X561500Y210520D02*
D03*
X569500Y218400D02*
D03*
X542000Y224500D02*
D03*
X496500Y213000D02*
D03*
X541000Y242500D02*
D03*
X558281Y237219D02*
D03*
X585000Y228500D02*
D03*
X580000Y229500D02*
D03*
X572806Y221376D02*
D03*
X553000Y210917D02*
D03*
X561000Y236500D02*
D03*
X502500Y219000D02*
D03*
X535500Y223917D02*
D03*
X542500Y227500D02*
D03*
X561250Y233750D02*
D03*
X559500Y229500D02*
D03*
X559700Y223000D02*
D03*
X562500Y216917D02*
D03*
X558349Y209849D02*
D03*
X558500Y214917D02*
D03*
X562500Y219417D02*
D03*
X563000Y223000D02*
D03*
X508925Y248075D02*
D03*
X489000Y289000D02*
D03*
X488500Y284500D02*
D03*
X484500Y272000D02*
D03*
X491000Y279000D02*
D03*
X488000Y263000D02*
D03*
X624500Y193000D02*
D03*
X630000Y296500D02*
D03*
X639000Y286000D02*
D03*
X633500Y280500D02*
D03*
X644500Y288500D02*
D03*
X697500Y179500D02*
D03*
Y176500D02*
D03*
X698500Y173500D02*
D03*
X627650Y255955D02*
D03*
X627500Y273417D02*
D03*
X625850Y268417D02*
D03*
X616500Y256917D02*
D03*
X617500Y262417D02*
D03*
X621000Y267417D02*
D03*
X637000Y296000D02*
D03*
X649000Y293000D02*
D03*
X639000Y282000D02*
D03*
D46*
X642500Y255417D02*
D03*
D47*
X636457Y163400D02*
D03*
X604500Y165417D02*
D03*
X687500Y204917D02*
D03*
X752000Y171500D02*
D03*
X765500Y170000D02*
D03*
X742748Y233165D02*
D03*
X747250Y170250D02*
D03*
X770000Y171000D02*
D03*
X712500Y170500D02*
D03*
X809500Y216500D02*
D03*
X674000Y190500D02*
D03*
X663500Y203500D02*
D03*
X622000Y211500D02*
D03*
X801500Y289500D02*
D03*
X502500Y197075D02*
D03*
X490750Y200750D02*
D03*
X629000Y221917D02*
D03*
X630500Y217417D02*
D03*
X629500Y174000D02*
D03*
X625000D02*
D03*
X464500Y318417D02*
D03*
X390500Y152417D02*
D03*
X793987Y298430D02*
D03*
X360000Y185417D02*
D03*
X392500Y179417D02*
D03*
X402000Y176417D02*
D03*
X414500Y170917D02*
D03*
X378000Y209917D02*
D03*
X342000Y213917D02*
D03*
X357000D02*
D03*
X341000Y297417D02*
D03*
X442957Y225874D02*
D03*
X481000Y213417D02*
D03*
X571000Y198917D02*
D03*
X409500Y310917D02*
D03*
X434500Y262000D02*
D03*
X433500Y228917D02*
D03*
X450000Y307417D02*
D03*
X482441Y321359D02*
D03*
X483500Y326417D02*
D03*
X467512Y315929D02*
D03*
X514000Y307500D02*
D03*
X467500Y323917D02*
D03*
X463500Y325417D02*
D03*
X429000Y215917D02*
D03*
X447500Y217417D02*
D03*
X457500Y212217D02*
D03*
X446500Y190417D02*
D03*
X428500Y185917D02*
D03*
X431000Y177917D02*
D03*
X425000Y179917D02*
D03*
X434000Y174417D02*
D03*
X349500Y297417D02*
D03*
X759000Y277063D02*
D03*
X759500Y250917D02*
D03*
X758500Y232500D02*
D03*
X727000Y303917D02*
D03*
X687000Y291917D02*
D03*
X734000Y272417D02*
D03*
X790646Y186417D02*
D03*
X796945Y185417D02*
D03*
X769748Y202000D02*
D03*
X754000D02*
D03*
X793500Y139917D02*
D03*
X760299Y159000D02*
D03*
X642000Y210000D02*
D03*
X698500Y166000D02*
D03*
X605000Y175417D02*
D03*
X676500Y171417D02*
D03*
X520000Y246000D02*
D03*
X432000Y306917D02*
D03*
X582000Y171917D02*
D03*
X553000Y194417D02*
D03*
X497500Y166917D02*
D03*
X520000Y164917D02*
D03*
X382500Y188791D02*
D03*
X355500Y201874D02*
D03*
X479500Y157917D02*
D03*
X474000Y174917D02*
D03*
X481500Y207000D02*
D03*
X793000Y288917D02*
D03*
X795000Y309917D02*
D03*
X763500Y311417D02*
D03*
X779197Y203500D02*
D03*
X800000Y305000D02*
D03*
X458500Y167917D02*
D03*
X453000Y181917D02*
D03*
X440791Y172209D02*
D03*
X814000Y196000D02*
D03*
X628500Y236417D02*
D03*
X667500Y221417D02*
D03*
X711500Y277417D02*
D03*
X682500Y279917D02*
D03*
X554500Y270917D02*
D03*
X542000Y254417D02*
D03*
X543500Y258417D02*
D03*
X531000Y191917D02*
D03*
X628500Y206917D02*
D03*
X626500Y201500D02*
D03*
X685500Y268417D02*
D03*
X689500Y271417D02*
D03*
X695500D02*
D03*
X699500Y272917D02*
D03*
X692500Y268417D02*
D03*
X724000Y276917D02*
D03*
X725500Y272417D02*
D03*
X702500Y269917D02*
D03*
X722500Y268917D02*
D03*
X634000Y300917D02*
D03*
X639788Y301705D02*
D03*
X506000Y203000D02*
D03*
X488500Y191417D02*
D03*
X472346Y205264D02*
D03*
X462500Y211417D02*
D03*
X518500Y284500D02*
D03*
X524500Y271417D02*
D03*
X519500Y276917D02*
D03*
X480250Y197167D02*
D03*
X676500Y167000D02*
D03*
X536291Y201417D02*
D03*
X479500D02*
D03*
X474500Y234417D02*
D03*
X488000Y175500D02*
D03*
X410500Y134417D02*
D03*
X363000Y211417D02*
D03*
X437500Y207917D02*
D03*
X629500Y163000D02*
D03*
X572500Y173917D02*
D03*
X518500Y156917D02*
D03*
X757018Y171482D02*
D03*
X691000Y170417D02*
D03*
X695000Y167917D02*
D03*
X694500Y162917D02*
D03*
X680535Y167383D02*
D03*
X691000Y165167D02*
D03*
X758500Y203500D02*
D03*
X519000Y293917D02*
D03*
X516000Y297000D02*
D03*
X523000Y282417D02*
D03*
X517500Y271917D02*
D03*
X492000Y178000D02*
D03*
X736000Y276417D02*
D03*
X759500Y272917D02*
D03*
X656000Y304417D02*
D03*
X661500Y306417D02*
D03*
X660000Y207417D02*
D03*
X666000Y293500D02*
D03*
X484500Y209917D02*
D03*
X464500Y192917D02*
D03*
X470000Y212417D02*
D03*
X461000Y164417D02*
D03*
X524000Y297917D02*
D03*
X540500Y286417D02*
D03*
X695504Y227413D02*
D03*
X611500Y291917D02*
D03*
X548000Y256917D02*
D03*
X692354Y243772D02*
D03*
X650500Y190000D02*
D03*
X500000Y211417D02*
D03*
X652429Y209988D02*
D03*
X689500Y231917D02*
D03*
X683500Y229417D02*
D03*
X401000Y190917D02*
D03*
X661709Y283500D02*
D03*
X528000Y249417D02*
D03*
X516500Y249417D02*
D03*
X755000Y146917D02*
D03*
X470500Y172917D02*
D03*
X585000Y290417D02*
D03*
X483500Y184417D02*
D03*
X482500Y193917D02*
D03*
X483500Y188417D02*
D03*
X479000D02*
D03*
X698500Y223296D02*
D03*
X685000Y225417D02*
D03*
X691009Y258226D02*
D03*
X684809D02*
D03*
X542500Y268417D02*
D03*
X731000Y250417D02*
D03*
X551500Y258917D02*
D03*
X431500Y327417D02*
D03*
X440500Y325917D02*
D03*
X431000Y245917D02*
D03*
X749500Y308417D02*
D03*
X519500Y148917D02*
D03*
X684500Y220417D02*
D03*
X539500Y167417D02*
D03*
X549000Y157417D02*
D03*
X597000Y148000D02*
D03*
X561500Y182417D02*
D03*
X561000Y186417D02*
D03*
X565000Y184417D02*
D03*
X564500Y190417D02*
D03*
X706000Y267417D02*
D03*
X701803Y230114D02*
D03*
X736000Y254417D02*
D03*
X790500Y285917D02*
D03*
X780500Y312917D02*
D03*
X789000Y291917D02*
D03*
X790500Y300417D02*
D03*
X787500Y281417D02*
D03*
X620500Y173917D02*
D03*
X427000Y209417D02*
D03*
X381500Y204917D02*
D03*
X727000Y308417D02*
D03*
X788500Y156000D02*
D03*
X799500Y165000D02*
D03*
X738500Y181917D02*
D03*
X428000Y165417D02*
D03*
X523500Y289000D02*
D03*
X736500Y232917D02*
D03*
X708500Y217417D02*
D03*
X762500Y232917D02*
D03*
X787500Y246917D02*
D03*
X654500Y129917D02*
D03*
X571500Y157295D02*
D03*
X598000Y173500D02*
D03*
X531457Y179917D02*
D03*
X543500Y146417D02*
D03*
X515000Y161417D02*
D03*
X474000Y146417D02*
D03*
Y139917D02*
D03*
X435500Y129417D02*
D03*
X464500Y140417D02*
D03*
X512000Y151417D02*
D03*
X493000Y133417D02*
D03*
Y151417D02*
D03*
X512000Y133417D02*
D03*
X355500Y184917D02*
D03*
X510000Y187874D02*
D03*
X502500Y142000D02*
D03*
X528500Y130000D02*
D03*
X504000Y226417D02*
D03*
X450000Y236500D02*
D03*
X488000Y267500D02*
D03*
X487500Y276000D02*
D03*
X515000Y288000D02*
D03*
X442500Y258000D02*
D03*
Y287000D02*
D03*
X428000Y279917D02*
D03*
X521000Y265917D02*
D03*
X518000Y262417D02*
D03*
X515500Y267000D02*
D03*
X792500Y170500D02*
D03*
X785750Y169250D02*
D03*
X767717Y177783D02*
D03*
X763500Y178500D02*
D03*
X732493Y147924D02*
D03*
X690752Y174748D02*
D03*
X689000Y199000D02*
D03*
X663000Y229500D02*
D03*
X658000Y293500D02*
D03*
X653575Y294000D02*
D03*
D48*
X397000Y325417D02*
D03*
X610000D02*
D03*
X810000Y155417D02*
D03*
Y265417D02*
D03*
X397000Y135417D02*
D03*
D65*
X744283Y212653D02*
D03*
X748220D02*
D03*
Y242181D02*
D03*
X744283D02*
D03*
X760032Y212653D02*
D03*
X763969D02*
D03*
Y242181D02*
D03*
X760032D02*
D03*
X752157D02*
D03*
X756095D02*
D03*
Y212653D02*
D03*
X752157D02*
D03*
X767906D02*
D03*
X771842D02*
D03*
Y242181D02*
D03*
X767906D02*
D03*
X775779D02*
D03*
X779716D02*
D03*
Y212653D02*
D03*
X775779D02*
D03*
M02*
