%FSLAX25Y25*%
%MOIN*%
G70*
G01*
G75*
G04 Layer_Physical_Order=1*
G04 Layer_Color=13346897*
%ADD10C,0.01400*%
%ADD11R,0.11811X0.06299*%
%ADD12R,0.24410X0.22835*%
%ADD13R,0.05118X0.07087*%
%ADD14R,0.03543X0.01969*%
%ADD15O,0.06693X0.01181*%
%ADD16R,0.07087X0.05118*%
%ADD17R,0.04724X0.05512*%
%ADD18R,0.05512X0.04724*%
%ADD19R,0.21654X0.07874*%
%ADD20O,0.02165X0.05906*%
%ADD21O,0.00984X0.06102*%
%ADD22O,0.06102X0.00984*%
%ADD23R,0.02165X0.05709*%
%ADD24R,0.05118X0.05906*%
%ADD25R,0.02756X0.01575*%
%ADD26O,0.08661X0.02362*%
%ADD27C,0.01000*%
%ADD28C,0.00500*%
%ADD29C,0.02000*%
%ADD30C,0.00300*%
%ADD31C,0.07874*%
%ADD32R,0.05906X0.05906*%
%ADD33C,0.05906*%
%ADD34C,0.06000*%
%ADD35C,0.08700*%
%ADD36C,0.07500*%
%ADD37O,0.10000X0.05000*%
%ADD38C,0.03000*%
%ADD39C,0.02000*%
%ADD40C,0.12500*%
D10*
X615197Y254614D02*
D03*
X574252Y242016D02*
D03*
X564803Y254614D02*
D03*
Y251464D02*
D03*
Y248315D02*
D03*
Y245165D02*
D03*
Y242016D02*
D03*
Y238866D02*
D03*
Y235716D02*
D03*
Y232567D02*
D03*
Y229417D02*
D03*
Y226268D02*
D03*
Y223118D02*
D03*
Y219968D02*
D03*
Y216819D02*
D03*
Y213669D02*
D03*
Y210520D02*
D03*
Y207370D02*
D03*
Y204220D02*
D03*
X590000Y254614D02*
D03*
Y251464D02*
D03*
Y248315D02*
D03*
Y245165D02*
D03*
Y232567D02*
D03*
Y229417D02*
D03*
Y226268D02*
D03*
Y213669D02*
D03*
Y210520D02*
D03*
Y207370D02*
D03*
Y204220D02*
D03*
X586850D02*
D03*
Y207370D02*
D03*
Y210520D02*
D03*
Y213669D02*
D03*
Y226268D02*
D03*
Y229417D02*
D03*
Y232567D02*
D03*
Y245165D02*
D03*
Y248315D02*
D03*
Y251464D02*
D03*
Y254614D02*
D03*
X580551D02*
D03*
Y251464D02*
D03*
Y248315D02*
D03*
Y245165D02*
D03*
Y213669D02*
D03*
Y210520D02*
D03*
Y207370D02*
D03*
Y204220D02*
D03*
X583701D02*
D03*
Y207370D02*
D03*
Y210520D02*
D03*
Y213669D02*
D03*
Y245165D02*
D03*
Y248315D02*
D03*
Y251464D02*
D03*
Y254614D02*
D03*
X571102D02*
D03*
Y251464D02*
D03*
Y248315D02*
D03*
Y245165D02*
D03*
Y242016D02*
D03*
Y238866D02*
D03*
Y235716D02*
D03*
Y232567D02*
D03*
Y229417D02*
D03*
Y226268D02*
D03*
Y223118D02*
D03*
Y219968D02*
D03*
Y216819D02*
D03*
Y213669D02*
D03*
Y210520D02*
D03*
Y207370D02*
D03*
Y204220D02*
D03*
X567953D02*
D03*
Y207370D02*
D03*
Y210520D02*
D03*
Y213669D02*
D03*
Y216819D02*
D03*
Y219968D02*
D03*
Y223118D02*
D03*
Y226268D02*
D03*
Y229417D02*
D03*
Y232567D02*
D03*
Y235716D02*
D03*
Y238866D02*
D03*
Y242016D02*
D03*
Y245165D02*
D03*
Y248315D02*
D03*
Y251464D02*
D03*
Y254614D02*
D03*
X574252D02*
D03*
Y251464D02*
D03*
Y248315D02*
D03*
Y245165D02*
D03*
Y238866D02*
D03*
Y235716D02*
D03*
Y232567D02*
D03*
Y229417D02*
D03*
Y226268D02*
D03*
Y223118D02*
D03*
Y219968D02*
D03*
Y216819D02*
D03*
Y213669D02*
D03*
Y210520D02*
D03*
Y207370D02*
D03*
Y204220D02*
D03*
X577402D02*
D03*
Y207370D02*
D03*
Y210520D02*
D03*
Y213669D02*
D03*
Y245165D02*
D03*
Y248315D02*
D03*
Y251464D02*
D03*
Y254614D02*
D03*
X602598D02*
D03*
Y251464D02*
D03*
Y248315D02*
D03*
Y245165D02*
D03*
Y213669D02*
D03*
Y210520D02*
D03*
Y207370D02*
D03*
Y204220D02*
D03*
X599449D02*
D03*
Y207370D02*
D03*
Y210520D02*
D03*
Y213669D02*
D03*
Y245165D02*
D03*
Y248315D02*
D03*
Y251464D02*
D03*
Y254614D02*
D03*
X593150D02*
D03*
Y251464D02*
D03*
Y248315D02*
D03*
Y245165D02*
D03*
Y232567D02*
D03*
Y229417D02*
D03*
Y226268D02*
D03*
Y213669D02*
D03*
Y210520D02*
D03*
Y207370D02*
D03*
Y204220D02*
D03*
X596299D02*
D03*
Y207370D02*
D03*
Y210520D02*
D03*
Y213669D02*
D03*
Y245165D02*
D03*
Y248315D02*
D03*
Y251464D02*
D03*
Y254614D02*
D03*
X608898D02*
D03*
Y251464D02*
D03*
Y248315D02*
D03*
Y245165D02*
D03*
Y242016D02*
D03*
Y238866D02*
D03*
Y235716D02*
D03*
Y232567D02*
D03*
Y229417D02*
D03*
Y226268D02*
D03*
Y223118D02*
D03*
Y219968D02*
D03*
Y216819D02*
D03*
Y213669D02*
D03*
Y210520D02*
D03*
Y207370D02*
D03*
Y204220D02*
D03*
X605748D02*
D03*
Y207370D02*
D03*
Y210520D02*
D03*
Y213669D02*
D03*
Y216819D02*
D03*
Y219968D02*
D03*
Y223118D02*
D03*
Y226268D02*
D03*
Y229417D02*
D03*
Y232567D02*
D03*
Y235716D02*
D03*
Y238866D02*
D03*
Y242016D02*
D03*
Y245165D02*
D03*
Y248315D02*
D03*
Y251464D02*
D03*
Y254614D02*
D03*
X612047D02*
D03*
Y251464D02*
D03*
Y248315D02*
D03*
Y245165D02*
D03*
Y242016D02*
D03*
Y238866D02*
D03*
Y235716D02*
D03*
Y232567D02*
D03*
Y229417D02*
D03*
Y226268D02*
D03*
Y223118D02*
D03*
Y219968D02*
D03*
Y216819D02*
D03*
Y213669D02*
D03*
Y210520D02*
D03*
Y207370D02*
D03*
Y204220D02*
D03*
X615197D02*
D03*
Y207370D02*
D03*
Y210520D02*
D03*
Y213669D02*
D03*
Y216819D02*
D03*
Y219968D02*
D03*
Y223118D02*
D03*
Y226268D02*
D03*
Y229417D02*
D03*
Y232567D02*
D03*
Y235716D02*
D03*
Y238866D02*
D03*
Y242016D02*
D03*
Y245165D02*
D03*
Y248315D02*
D03*
Y251464D02*
D03*
D11*
X474000Y151472D02*
D03*
Y133362D02*
D03*
D12*
X502347Y142417D02*
D03*
D13*
X346291Y133417D02*
D03*
X357709D02*
D03*
X525291Y147417D02*
D03*
X536709D02*
D03*
X607709Y301417D02*
D03*
X596291D02*
D03*
X577709D02*
D03*
X566291D02*
D03*
X629000Y161417D02*
D03*
X640417D02*
D03*
X640000Y171417D02*
D03*
X651417D02*
D03*
X527709Y173417D02*
D03*
X516291D02*
D03*
X536291D02*
D03*
X547709D02*
D03*
X534291Y247417D02*
D03*
X545709D02*
D03*
X647709Y217417D02*
D03*
X636291D02*
D03*
X653709Y199417D02*
D03*
X642291D02*
D03*
X547709Y195417D02*
D03*
X536291D02*
D03*
X415791Y134417D02*
D03*
X427209D02*
D03*
X432291Y165417D02*
D03*
X443709D02*
D03*
X497709Y255417D02*
D03*
X486291D02*
D03*
X664291Y283417D02*
D03*
X675709D02*
D03*
X668291Y293417D02*
D03*
X679709D02*
D03*
X744291Y215417D02*
D03*
X755709D02*
D03*
X461709Y133417D02*
D03*
X450291D02*
D03*
X749709Y145417D02*
D03*
X738291D02*
D03*
X786791D02*
D03*
X798209D02*
D03*
X768791D02*
D03*
X780209D02*
D03*
X388291Y159417D02*
D03*
X399709D02*
D03*
X365791Y183417D02*
D03*
X377209D02*
D03*
D14*
X675150Y232693D02*
D03*
Y242142D02*
D03*
X668850D02*
D03*
Y232693D02*
D03*
Y238992D02*
D03*
Y235842D02*
D03*
X675150Y238992D02*
D03*
Y235842D02*
D03*
X679150Y218693D02*
D03*
Y228142D02*
D03*
X672850D02*
D03*
Y218693D02*
D03*
Y224992D02*
D03*
Y221842D02*
D03*
X679150Y224992D02*
D03*
Y221842D02*
D03*
X638950Y246693D02*
D03*
Y256142D02*
D03*
X632650D02*
D03*
Y246693D02*
D03*
Y252992D02*
D03*
Y249842D02*
D03*
X638950Y252992D02*
D03*
Y249842D02*
D03*
X667150Y266693D02*
D03*
Y276142D02*
D03*
X660850D02*
D03*
Y266693D02*
D03*
Y272992D02*
D03*
Y269842D02*
D03*
X667150Y272992D02*
D03*
Y269842D02*
D03*
X679150Y256693D02*
D03*
Y266142D02*
D03*
X672850D02*
D03*
Y256693D02*
D03*
Y262992D02*
D03*
Y259842D02*
D03*
X679150Y262992D02*
D03*
Y259842D02*
D03*
X667150Y248193D02*
D03*
Y257642D02*
D03*
X660850D02*
D03*
Y248193D02*
D03*
Y254492D02*
D03*
Y251342D02*
D03*
X667150Y254492D02*
D03*
Y251342D02*
D03*
X705150Y290693D02*
D03*
Y300142D02*
D03*
X698850D02*
D03*
Y290693D02*
D03*
Y296992D02*
D03*
Y293842D02*
D03*
X705150Y296992D02*
D03*
Y293842D02*
D03*
X719150Y296693D02*
D03*
Y306142D02*
D03*
X712850D02*
D03*
Y296693D02*
D03*
Y302992D02*
D03*
Y299842D02*
D03*
X719150Y302992D02*
D03*
Y299842D02*
D03*
X528850Y314142D02*
D03*
Y304693D02*
D03*
X535150D02*
D03*
Y314142D02*
D03*
Y307842D02*
D03*
Y310992D02*
D03*
X528850Y307842D02*
D03*
Y310992D02*
D03*
Y266142D02*
D03*
Y256693D02*
D03*
X535150D02*
D03*
Y266142D02*
D03*
Y259842D02*
D03*
Y262992D02*
D03*
X528850Y259842D02*
D03*
Y262992D02*
D03*
Y298142D02*
D03*
Y288693D02*
D03*
X535150D02*
D03*
Y298142D02*
D03*
Y291842D02*
D03*
Y294992D02*
D03*
X528850Y291842D02*
D03*
Y294992D02*
D03*
Y282142D02*
D03*
Y272693D02*
D03*
X535150D02*
D03*
Y282142D02*
D03*
Y275842D02*
D03*
Y278992D02*
D03*
X528850Y275842D02*
D03*
Y278992D02*
D03*
X472850Y250142D02*
D03*
Y240693D02*
D03*
X479150D02*
D03*
Y250142D02*
D03*
Y243842D02*
D03*
Y246992D02*
D03*
X472850Y243842D02*
D03*
Y246992D02*
D03*
X490850Y248142D02*
D03*
Y238693D02*
D03*
X497150D02*
D03*
Y248142D02*
D03*
Y241842D02*
D03*
Y244992D02*
D03*
X490850Y241842D02*
D03*
Y244992D02*
D03*
D15*
X633638Y153354D02*
D03*
Y151386D02*
D03*
Y149417D02*
D03*
Y147449D02*
D03*
Y145480D02*
D03*
X649780Y153354D02*
D03*
Y151386D02*
D03*
Y149417D02*
D03*
Y147449D02*
D03*
Y145480D02*
D03*
X426205Y308055D02*
D03*
Y306087D02*
D03*
Y304118D02*
D03*
Y302149D02*
D03*
Y300181D02*
D03*
Y298212D02*
D03*
Y296244D02*
D03*
Y294275D02*
D03*
Y292307D02*
D03*
Y290338D02*
D03*
Y288370D02*
D03*
Y286401D02*
D03*
Y284433D02*
D03*
Y282464D02*
D03*
Y280496D02*
D03*
Y278527D02*
D03*
Y276559D02*
D03*
Y274590D02*
D03*
Y272622D02*
D03*
Y270653D02*
D03*
Y268685D02*
D03*
Y266716D02*
D03*
Y264748D02*
D03*
Y262779D02*
D03*
X501795Y308055D02*
D03*
Y306087D02*
D03*
Y304118D02*
D03*
Y302149D02*
D03*
Y300181D02*
D03*
Y298212D02*
D03*
Y296244D02*
D03*
Y294275D02*
D03*
Y292307D02*
D03*
Y290338D02*
D03*
Y288370D02*
D03*
Y286401D02*
D03*
Y284433D02*
D03*
Y282464D02*
D03*
Y280496D02*
D03*
Y278527D02*
D03*
Y276559D02*
D03*
Y274590D02*
D03*
Y272622D02*
D03*
Y270653D02*
D03*
Y268685D02*
D03*
Y266716D02*
D03*
Y264748D02*
D03*
Y262779D02*
D03*
X526429Y163768D02*
D03*
Y161799D02*
D03*
Y159831D02*
D03*
Y157862D02*
D03*
Y155894D02*
D03*
X542571Y163768D02*
D03*
Y161799D02*
D03*
Y159831D02*
D03*
Y157862D02*
D03*
Y155894D02*
D03*
D16*
X663209Y157126D02*
D03*
Y145709D02*
D03*
X673209Y157126D02*
D03*
Y145709D02*
D03*
X565500Y174039D02*
D03*
Y162622D02*
D03*
X555500Y174039D02*
D03*
Y162622D02*
D03*
X508000Y159709D02*
D03*
Y171126D02*
D03*
X612000Y189126D02*
D03*
Y177709D02*
D03*
X634000Y237126D02*
D03*
Y225709D02*
D03*
X644000Y237126D02*
D03*
Y225709D02*
D03*
X458000Y325126D02*
D03*
Y313709D02*
D03*
X448000Y329126D02*
D03*
Y317709D02*
D03*
X418000Y327626D02*
D03*
Y316209D02*
D03*
X596000Y157126D02*
D03*
Y145709D02*
D03*
X428000Y327626D02*
D03*
Y316209D02*
D03*
X514000Y243126D02*
D03*
Y231709D02*
D03*
X438000Y257126D02*
D03*
Y245708D02*
D03*
X507000Y331126D02*
D03*
Y319709D02*
D03*
X497000Y330626D02*
D03*
Y319209D02*
D03*
X768000Y305126D02*
D03*
Y293709D02*
D03*
X758000Y307126D02*
D03*
Y295709D02*
D03*
X742300Y311126D02*
D03*
Y299709D02*
D03*
X734000Y311126D02*
D03*
Y299709D02*
D03*
X480000Y229126D02*
D03*
Y217709D02*
D03*
X498500Y184126D02*
D03*
Y172709D02*
D03*
X470000Y229126D02*
D03*
Y217709D02*
D03*
X398000Y208626D02*
D03*
Y197209D02*
D03*
X388000Y208626D02*
D03*
Y197209D02*
D03*
X408500Y189126D02*
D03*
Y177708D02*
D03*
X421500Y209126D02*
D03*
Y197709D02*
D03*
X411500Y209126D02*
D03*
Y197709D02*
D03*
X418500Y189126D02*
D03*
Y177708D02*
D03*
X370000Y209126D02*
D03*
Y197709D02*
D03*
X554000Y231126D02*
D03*
Y219709D02*
D03*
X808000Y191126D02*
D03*
Y179709D02*
D03*
X702000Y163126D02*
D03*
Y151709D02*
D03*
X692000Y157126D02*
D03*
Y145709D02*
D03*
X682000Y157126D02*
D03*
Y145709D02*
D03*
X581000Y193626D02*
D03*
Y182209D02*
D03*
X571000Y193626D02*
D03*
Y182209D02*
D03*
X606709Y155417D02*
D03*
Y144000D02*
D03*
X410000Y297709D02*
D03*
Y309126D02*
D03*
X428000Y251126D02*
D03*
Y239708D02*
D03*
D17*
X539543Y137417D02*
D03*
X532457D02*
D03*
X436457Y233417D02*
D03*
X443543D02*
D03*
X620457Y181417D02*
D03*
X627543D02*
D03*
X525543Y137417D02*
D03*
X518457D02*
D03*
X522957Y231417D02*
D03*
X530043D02*
D03*
X525351Y238417D02*
D03*
X531650D02*
D03*
X347543Y181417D02*
D03*
X340457D02*
D03*
X532000Y185417D02*
D03*
X539087D02*
D03*
X342457Y303417D02*
D03*
X349543D02*
D03*
X441543Y215417D02*
D03*
X434457D02*
D03*
X475850Y319417D02*
D03*
X482150D02*
D03*
X663543Y189417D02*
D03*
X656457D02*
D03*
X661543Y181417D02*
D03*
X654457D02*
D03*
X519543Y199417D02*
D03*
X512457D02*
D03*
Y192417D02*
D03*
X519543D02*
D03*
X452850Y217417D02*
D03*
X459150D02*
D03*
X395150Y185417D02*
D03*
X388850D02*
D03*
X435457Y135417D02*
D03*
X442543D02*
D03*
X466457Y160417D02*
D03*
X473543D02*
D03*
X490457Y161417D02*
D03*
X497543D02*
D03*
X797543Y213417D02*
D03*
X790457D02*
D03*
X752457Y227417D02*
D03*
X759543D02*
D03*
X605543Y170000D02*
D03*
X598457D02*
D03*
X691543Y211417D02*
D03*
X684457D02*
D03*
X574457Y163417D02*
D03*
X581543D02*
D03*
X508457Y183417D02*
D03*
X515543D02*
D03*
D18*
X604000Y188961D02*
D03*
Y181874D02*
D03*
X616709Y158165D02*
D03*
Y165252D02*
D03*
X350000Y208961D02*
D03*
Y201874D02*
D03*
X490000Y224960D02*
D03*
Y217874D02*
D03*
X498000Y224960D02*
D03*
Y217874D02*
D03*
X489000Y322961D02*
D03*
Y315874D02*
D03*
X670000Y171874D02*
D03*
Y178961D02*
D03*
X678000Y177874D02*
D03*
Y184961D02*
D03*
X482000Y174960D02*
D03*
Y167874D02*
D03*
X504000Y198960D02*
D03*
Y191874D02*
D03*
X432000Y194268D02*
D03*
Y200567D02*
D03*
X592000Y176961D02*
D03*
Y169874D02*
D03*
X634000Y206961D02*
D03*
Y199874D02*
D03*
X342000Y208960D02*
D03*
Y201874D02*
D03*
X362000Y204960D02*
D03*
Y197874D02*
D03*
X456500Y254960D02*
D03*
Y247874D02*
D03*
X448500Y253960D02*
D03*
Y246874D02*
D03*
X438000Y316374D02*
D03*
Y323461D02*
D03*
X616709Y144165D02*
D03*
Y151252D02*
D03*
X450000Y234961D02*
D03*
Y227874D02*
D03*
X538000Y235961D02*
D03*
Y228874D02*
D03*
X458000Y225874D02*
D03*
Y232961D02*
D03*
X422000Y170960D02*
D03*
Y163874D02*
D03*
X408000Y170960D02*
D03*
Y163874D02*
D03*
X397500Y174960D02*
D03*
Y167874D02*
D03*
X388000Y174960D02*
D03*
Y167874D02*
D03*
D19*
X563299Y284917D02*
D03*
X600701D02*
D03*
X413299Y149417D02*
D03*
X450701D02*
D03*
D20*
X796945Y197661D02*
D03*
X793795D02*
D03*
X790646D02*
D03*
X787496D02*
D03*
X784346D02*
D03*
X781197D02*
D03*
X778047D02*
D03*
X774898D02*
D03*
X771748D02*
D03*
X768598D02*
D03*
X765449D02*
D03*
X762299D02*
D03*
X759150D02*
D03*
X756000D02*
D03*
X752850D02*
D03*
X749701D02*
D03*
X746551D02*
D03*
X743402D02*
D03*
X740252D02*
D03*
X737102D02*
D03*
X733953D02*
D03*
X730803D02*
D03*
X727654D02*
D03*
X724504D02*
D03*
X721354D02*
D03*
X718205D02*
D03*
X715055D02*
D03*
X796945Y153173D02*
D03*
X793795D02*
D03*
X790646D02*
D03*
X787496D02*
D03*
X784346D02*
D03*
X781197D02*
D03*
X778047D02*
D03*
X774898D02*
D03*
X771748D02*
D03*
X768598D02*
D03*
X765449D02*
D03*
X762299D02*
D03*
X759150D02*
D03*
X756000D02*
D03*
X752850D02*
D03*
X749701D02*
D03*
X746551D02*
D03*
X743402D02*
D03*
X740252D02*
D03*
X737102D02*
D03*
X733953D02*
D03*
X730803D02*
D03*
X727654D02*
D03*
X724504D02*
D03*
X721354D02*
D03*
X718205D02*
D03*
X715055D02*
D03*
X767945Y283661D02*
D03*
X764795D02*
D03*
X761646D02*
D03*
X758496D02*
D03*
X755346D02*
D03*
X752197D02*
D03*
X749047D02*
D03*
X745898D02*
D03*
X742748D02*
D03*
X739598D02*
D03*
X736449D02*
D03*
X733299D02*
D03*
X730150D02*
D03*
X727000D02*
D03*
X723850D02*
D03*
X720701D02*
D03*
X717551D02*
D03*
X714402D02*
D03*
X711252D02*
D03*
X708102D02*
D03*
X704953D02*
D03*
X701803D02*
D03*
X698654D02*
D03*
X695504D02*
D03*
X692354D02*
D03*
X689205D02*
D03*
X686055D02*
D03*
X767945Y239173D02*
D03*
X764795D02*
D03*
X761646D02*
D03*
X758496D02*
D03*
X755346D02*
D03*
X752197D02*
D03*
X749047D02*
D03*
X745898D02*
D03*
X742748D02*
D03*
X739598D02*
D03*
X736449D02*
D03*
X733299D02*
D03*
X730150D02*
D03*
X727000D02*
D03*
X723850D02*
D03*
X720701D02*
D03*
X717551D02*
D03*
X714402D02*
D03*
X711252D02*
D03*
X708102D02*
D03*
X704953D02*
D03*
X701803D02*
D03*
X698654D02*
D03*
X695504D02*
D03*
X692354D02*
D03*
X689205D02*
D03*
X686055D02*
D03*
D21*
X445173Y205264D02*
D03*
X447142D02*
D03*
X449110D02*
D03*
X451079D02*
D03*
X453047D02*
D03*
X455016D02*
D03*
X456984D02*
D03*
X458953D02*
D03*
X460921D02*
D03*
X462890D02*
D03*
X464858D02*
D03*
X466827D02*
D03*
Y173571D02*
D03*
X464858D02*
D03*
X462890D02*
D03*
X460921D02*
D03*
X458953D02*
D03*
X456984D02*
D03*
X455016D02*
D03*
X453047D02*
D03*
X451079D02*
D03*
X449110D02*
D03*
X447142D02*
D03*
X445173D02*
D03*
D22*
X471846Y200244D02*
D03*
Y198275D02*
D03*
Y196307D02*
D03*
Y194338D02*
D03*
Y192370D02*
D03*
Y190401D02*
D03*
Y188433D02*
D03*
Y186464D02*
D03*
Y184496D02*
D03*
Y182527D02*
D03*
Y180559D02*
D03*
Y178590D02*
D03*
X440154D02*
D03*
Y180559D02*
D03*
Y182527D02*
D03*
Y184496D02*
D03*
Y186464D02*
D03*
Y188433D02*
D03*
Y190401D02*
D03*
Y192370D02*
D03*
Y194338D02*
D03*
Y196307D02*
D03*
Y198275D02*
D03*
Y200244D02*
D03*
D23*
X378000Y200543D02*
D03*
Y191291D02*
D03*
D24*
X348260Y191417D02*
D03*
X355740D02*
D03*
X546260Y186000D02*
D03*
X553740D02*
D03*
D25*
X472965Y331477D02*
D03*
Y328918D02*
D03*
Y326359D02*
D03*
X481036D02*
D03*
Y331477D02*
D03*
D26*
X516551Y220917D02*
D03*
Y215917D02*
D03*
Y210917D02*
D03*
Y205917D02*
D03*
X535449Y220917D02*
D03*
Y215917D02*
D03*
Y210917D02*
D03*
Y205917D02*
D03*
D27*
X461079Y163496D02*
Y164417D01*
X458036D02*
X461079D01*
X461000Y163417D02*
X462000Y164417D01*
X461000Y162874D02*
Y163417D01*
Y162874D02*
X463457Y160417D01*
X775500Y201874D02*
Y217500D01*
X772500Y220500D02*
X775500Y217500D01*
X772500Y220500D02*
Y228306D01*
X774000Y199587D02*
Y215500D01*
X770500Y219000D02*
X774000Y215500D01*
X770500Y219000D02*
Y228428D01*
X775000Y228685D02*
X780000Y233685D01*
X775000Y220917D02*
Y228685D01*
Y220917D02*
X781566Y214351D01*
X772500Y228306D02*
X778500Y234306D01*
X770500Y228428D02*
X777000Y234928D01*
X781566Y205647D02*
Y214351D01*
X768500Y228549D02*
X775500Y235549D01*
X767000Y229170D02*
X774000Y236170D01*
X765500Y229791D02*
X772500Y236791D01*
X774000Y236170D02*
Y280524D01*
X781500Y244018D02*
Y277417D01*
X780000Y233685D02*
Y278039D01*
X778500Y234306D02*
Y278660D01*
X777000Y234928D02*
Y279281D01*
X775500Y235549D02*
Y279903D01*
X772500Y236791D02*
Y281145D01*
X751709Y219417D02*
X755709Y215417D01*
X755000Y146917D02*
X756500Y145417D01*
X544260Y186260D02*
Y187417D01*
X543417Y185417D02*
X544260Y186260D01*
X539087Y185417D02*
X543417D01*
X508457Y183417D02*
X510000Y188000D01*
X805000Y194126D02*
X808000Y191126D01*
X355500Y190917D02*
X356000Y191417D01*
X508791Y158917D02*
X513500D01*
X516000Y156417D01*
Y146960D02*
Y156417D01*
X463457Y160417D02*
X466457D01*
X473543D02*
X476043Y157917D01*
X508000Y159709D02*
X508791Y158917D01*
X516000Y146960D02*
X525543Y137417D01*
X508000Y168126D02*
X509791D01*
X515000Y162917D01*
Y161417D02*
Y162917D01*
X516291Y164126D02*
Y173417D01*
Y164126D02*
X520587Y159831D01*
X451079Y168838D02*
X463000Y156917D01*
Y144417D02*
Y156917D01*
X461709Y137626D02*
X464500Y140417D01*
X461709Y133417D02*
Y137626D01*
X435457Y129461D02*
X435500Y129417D01*
X435457Y129461D02*
Y135417D01*
X448291D02*
X450291Y133417D01*
X442543Y135417D02*
X448291D01*
X450291Y133417D02*
Y137708D01*
X451500Y138917D01*
X457500D01*
X463000Y144417D01*
X440000Y149417D02*
X450701D01*
X427209Y136626D02*
X440000Y149417D01*
X427209Y134417D02*
Y136626D01*
X516500Y153464D02*
X524000D01*
X508291Y168126D02*
X509791D01*
X520587Y159831D02*
X526429D01*
X497500Y160417D02*
Y173708D01*
X519500Y148917D02*
X520500D01*
X525543Y137417D02*
X532457D01*
X536709Y144209D02*
Y147417D01*
Y144209D02*
X539543Y141374D01*
Y137417D02*
Y141374D01*
X542500Y146417D02*
X543500Y145417D01*
X551740Y187417D02*
X553000Y188677D01*
Y194417D01*
X531457Y179917D02*
Y185917D01*
X536291Y173417D02*
X537500D01*
X543875Y167042D01*
X545375D02*
X547500Y164917D01*
X543875Y167042D02*
X545375D01*
X547500Y162539D02*
Y164917D01*
X539500Y167417D02*
X542571Y164346D01*
X527709Y168626D02*
Y173417D01*
X526429Y167346D02*
X527709Y168626D01*
X526429Y163768D02*
Y167346D01*
X517000Y325917D02*
X519500D01*
X604000Y181874D02*
X605000Y180874D01*
Y175417D02*
Y180874D01*
X605543Y175457D02*
X607795Y177709D01*
X612000D01*
X596000Y145709D02*
X597709Y144000D01*
X592000Y166917D02*
X593500Y165417D01*
X597500D01*
X600500Y162417D01*
X620500Y140417D02*
X626000Y134917D01*
X590000Y207370D02*
Y207417D01*
X744291Y215417D02*
Y221126D01*
X743291Y216417D02*
X744291Y215417D01*
X738000Y216417D02*
X743291D01*
X759150Y204945D02*
X762500Y208296D01*
Y219796D01*
X765500Y222796D01*
X759150Y197661D02*
Y204945D01*
X753250Y201167D02*
X759500Y207417D01*
Y218917D01*
X764000Y223417D01*
X740000Y225417D02*
X744291Y221126D01*
X740000Y225417D02*
Y230417D01*
X735000Y219417D02*
X738000Y216417D01*
X790500Y206917D02*
X792500D01*
X797543Y211961D01*
Y213417D01*
X605543Y169417D02*
Y175457D01*
X592000Y168831D02*
X593043Y169874D01*
X592000Y166917D02*
Y168831D01*
X600500Y162417D02*
X607000D01*
X613500Y168917D01*
X615500D01*
X620500Y173917D01*
X623500D01*
X617000Y166417D02*
X620500Y169917D01*
X691500Y217417D02*
X691543Y217374D01*
Y211417D02*
Y217374D01*
X758000Y220917D02*
Y221917D01*
X759543Y223460D01*
Y227417D01*
X783067Y206269D02*
X787496Y201839D01*
X781566Y205647D02*
X784346Y202867D01*
X785000Y206456D02*
X789843Y201614D01*
X791508D01*
X792728Y200394D01*
Y198728D02*
Y200394D01*
Y198728D02*
X793795Y197661D01*
X784346D02*
Y202867D01*
X787496Y197661D02*
Y201839D01*
X785000Y206456D02*
Y242639D01*
X783067Y206269D02*
Y242451D01*
X751709Y226669D02*
X752457Y227417D01*
X751709Y222917D02*
Y226669D01*
X764000Y230413D02*
X770027Y236440D01*
X768500Y197760D02*
Y228549D01*
Y197760D02*
X768598Y197661D01*
X767000Y222175D02*
Y229170D01*
X765500Y222796D02*
Y229791D01*
X764000Y223417D02*
Y230413D01*
X765449Y220623D02*
X767000Y222175D01*
X770027Y236440D02*
Y241906D01*
X765449Y197661D02*
Y220623D01*
X768000Y243933D02*
X770027Y241906D01*
X720500Y232917D02*
X722500D01*
X727000Y237417D01*
X733299Y236118D02*
X736500Y232917D01*
X751709Y219417D02*
Y222917D01*
X740000Y230417D02*
X742748Y233165D01*
X783000Y244639D02*
X785000Y242639D01*
X781500Y244018D02*
X783067Y242451D01*
X772500Y281145D02*
X777000Y285645D01*
X783000Y244639D02*
Y271917D01*
X788000Y276917D01*
X781500Y277417D02*
X785500Y281417D01*
X780000Y278039D02*
X787879Y285917D01*
X778500Y278660D02*
X783000Y283160D01*
X777000Y279281D02*
X781500Y283781D01*
X775500Y279903D02*
X780000Y284402D01*
X774000Y280524D02*
X778500Y285024D01*
X768000Y243933D02*
Y252917D01*
X775500Y201874D02*
X776980Y200394D01*
Y198728D02*
X778047Y197661D01*
X776980Y198728D02*
Y200394D01*
X753500Y267417D02*
X768000Y252917D01*
X774898Y197661D02*
Y198689D01*
X774000Y199587D02*
X774898Y198689D01*
X783000Y283160D02*
Y285917D01*
X781500Y283781D02*
Y286539D01*
X780000Y284402D02*
Y287160D01*
X778500Y285024D02*
Y287781D01*
X777000Y285645D02*
Y288403D01*
X788000Y276917D02*
Y277417D01*
X501795Y261122D02*
Y262779D01*
X400500Y185417D02*
X408000Y177917D01*
X633638Y142346D02*
Y145480D01*
X620500Y140417D02*
Y144208D01*
X727000Y308417D02*
X729709Y311126D01*
X438000Y323461D02*
Y331953D01*
X421791Y209417D02*
X427000D01*
X693500Y183917D02*
Y200417D01*
X670500Y189417D02*
Y196917D01*
X786000Y300417D02*
X790500D01*
X782500Y296917D02*
X786000Y300417D01*
X784000Y292917D02*
X787500Y296417D01*
X786500Y291539D02*
Y292953D01*
X787964Y294417D01*
X752197Y278720D02*
X758000Y272917D01*
X725500Y272417D02*
X730500Y267417D01*
X753500D01*
X753250Y198061D02*
Y201167D01*
X752850Y197661D02*
X753250Y198061D01*
X592000Y169874D02*
X593043D01*
X550295Y157417D02*
X555500Y162622D01*
X549000Y157417D02*
X550295D01*
X549000Y161917D02*
Y173417D01*
X546913Y159831D02*
X549000Y161917D01*
X546761Y161799D02*
X547500Y162539D01*
X542571Y161799D02*
X546761D01*
X542571Y159831D02*
X546913D01*
X542571Y163768D02*
Y164346D01*
X520500Y148917D02*
X522000Y147417D01*
X525291D01*
X627543Y171961D02*
Y181417D01*
X347543Y166852D02*
X355978Y158417D01*
X347543Y166852D02*
Y181417D01*
X443791Y329626D02*
X448000D01*
X428000Y327626D02*
X432926Y332552D01*
X418000Y327626D02*
X428000D01*
Y316209D02*
X432291D01*
X433500Y317417D01*
Y321917D01*
X435043Y323461D01*
X438000D01*
X448000Y318209D02*
X450791D01*
X470500Y319417D02*
X475850D01*
X507500Y331626D02*
X511291D01*
X489000Y322961D02*
X490957D01*
X494209Y319709D01*
X482150Y319417D02*
X485693Y315874D01*
X489000D01*
X507000Y316917D02*
Y319709D01*
X554000Y231126D02*
Y233917D01*
X478984Y188433D02*
X479000Y188417D01*
X471846Y188433D02*
X478984D01*
X638500Y192917D02*
X650500D01*
X653709Y196126D01*
X634000Y197417D02*
X638500Y192917D01*
X634000Y197417D02*
Y199874D01*
X469846Y173571D02*
X470500Y172917D01*
X466827Y173571D02*
X469846D01*
X727000Y237417D02*
Y239173D01*
X755000Y146917D02*
X756000Y147917D01*
Y153173D01*
X708244D02*
X715055D01*
X682500Y279917D02*
X685500Y276917D01*
Y268417D02*
Y276917D01*
X482000Y174960D02*
X488043D01*
X653709Y206208D02*
Y208709D01*
X647709Y214708D02*
X653709Y208709D01*
X742748Y233165D02*
Y239173D01*
X628500Y236417D02*
X630000Y237917D01*
X632791D01*
X621500Y209417D02*
X625000Y205917D01*
X600701Y284917D02*
Y290716D01*
X596291Y295126D02*
X600701Y290716D01*
X596291Y295126D02*
Y301417D01*
X566291Y293209D02*
Y301417D01*
X563299Y290216D02*
X566291Y293209D01*
X563299Y284917D02*
Y290216D01*
X663000Y293417D02*
X668291D01*
X711500Y277417D02*
Y283413D01*
X729709Y311126D02*
X732000D01*
X752197Y278720D02*
Y283661D01*
X733299Y279118D02*
X736000Y276417D01*
X733299Y279118D02*
Y283661D01*
X471846Y190401D02*
X471862Y190417D01*
X781197Y191917D02*
Y197661D01*
X762299Y193618D02*
Y197661D01*
X627543Y181417D02*
Y203374D01*
X625000Y205917D02*
X627543Y203374D01*
X673209Y145709D02*
X675209D01*
X524000Y153464D02*
X526429Y155894D01*
X519555Y157862D02*
X526429D01*
X555500Y162622D02*
X565500D01*
X596000Y157126D02*
Y162417D01*
X625709Y142417D02*
Y143917D01*
X629240Y147449D01*
X633638D01*
X640417Y161417D02*
X642417Y159417D01*
X648209D01*
X652709Y158417D02*
X653709Y159417D01*
X656209Y149417D02*
X657909Y151117D01*
X651417Y171417D02*
X657909Y164926D01*
X654677Y151386D02*
X656309Y153017D01*
X652352Y166774D02*
X656309Y162817D01*
Y153017D02*
Y162817D01*
X657909Y151117D02*
Y164926D01*
X625709Y147917D02*
X627209Y149417D01*
X633638D01*
X649780Y154488D02*
X652709Y157417D01*
Y158417D01*
X649780Y153354D02*
Y154488D01*
X656500Y145709D02*
X663209D01*
X640000Y171417D02*
X643759D01*
X648403Y166774D01*
X652352D01*
X649780Y151386D02*
X654677D01*
X649780Y149417D02*
X656209D01*
X663209Y157126D02*
Y166917D01*
X629000Y161417D02*
X629209D01*
X627709Y155417D02*
Y159917D01*
Y155417D02*
X629772Y153354D01*
X633638D01*
X663209Y145709D02*
X673209D01*
X663209Y157126D02*
X673209D01*
X606709Y155417D02*
X609457Y158165D01*
X616709Y151252D02*
Y158165D01*
X606874Y144165D02*
X616709D01*
X411500Y197709D02*
X421500D01*
X411500Y209126D02*
X421500D01*
X421791Y209417D01*
X440154Y192370D02*
Y194338D01*
Y186464D02*
Y188433D01*
X435866Y190401D02*
X440154D01*
X432000Y194268D02*
X435866Y190401D01*
X432233Y200567D02*
X435756Y197044D01*
X437453Y194338D02*
X440154D01*
X435756Y196035D02*
X437453Y194338D01*
X435756Y196035D02*
Y197044D01*
X432000Y200567D02*
X432233D01*
X437500Y202898D02*
X440154Y200244D01*
X437500Y202898D02*
Y207917D01*
X440154Y198275D02*
Y200244D01*
Y196307D02*
Y198275D01*
X420000Y199209D02*
X429791D01*
X429150Y194268D02*
X432000D01*
X388000Y197209D02*
X398000D01*
X365500Y208917D02*
X370209D01*
X485835Y229126D02*
X490000Y224960D01*
X480000Y229126D02*
X485835D01*
X571000Y193626D02*
X581000D01*
X536291Y197417D02*
Y201417D01*
X466827Y205264D02*
X472346D01*
X459150Y217417D02*
X459441Y217709D01*
X497043Y198960D02*
X504000D01*
X584000Y284917D02*
X600701D01*
X626600Y218714D02*
X629000Y221114D01*
X563299Y284917D02*
X568000Y280216D01*
Y260866D02*
Y280216D01*
X569500Y262089D02*
Y270417D01*
X474500Y229126D02*
X480000D01*
X474500D02*
Y234417D01*
X429484Y284433D02*
X431750Y282167D01*
X805000Y194126D02*
Y201917D01*
X771748Y148374D02*
Y153173D01*
X749709Y145417D02*
X753500D01*
X755000Y146917D01*
X708244Y153173D02*
Y161173D01*
X706291Y163126D02*
X708244Y161173D01*
X702000Y163126D02*
X706291D01*
X701209D02*
X702000D01*
X695209Y157126D02*
X701209Y163126D01*
X692000Y157126D02*
X695209D01*
X682000D02*
X692000D01*
X674957Y184961D02*
X678000D01*
X670500Y189417D02*
X674957Y184961D01*
X660000Y207417D02*
X670500Y196917D01*
X663543Y189417D02*
X670500D01*
X656457Y183417D02*
Y189417D01*
X654457Y181417D02*
X656457Y183417D01*
X661543Y181417D02*
X663543Y183417D01*
X612209Y188917D02*
X618500D01*
X597709Y144000D02*
X606709D01*
X626000Y151386D02*
X633638D01*
X621500Y212099D02*
X626600Y217199D01*
X621500Y209417D02*
Y212099D01*
X626600Y217199D02*
Y218714D01*
X447142Y170059D02*
Y173571D01*
X442154D02*
X445173D01*
X440791Y172209D02*
X442154Y173571D01*
X624969Y151386D02*
X626000D01*
X623000Y149417D02*
X624969Y151386D01*
X624000Y168417D02*
X627543Y171961D01*
X624000Y153386D02*
Y168417D01*
Y153386D02*
X626000Y151386D01*
X623000Y146417D02*
Y149417D01*
X620748Y144165D02*
X623000Y146417D01*
X616709Y144165D02*
X620748D01*
X610500Y158165D02*
X616709D01*
X609457D02*
X610500D01*
Y160917D01*
X610000Y161417D02*
X610500Y160917D01*
X617000Y165543D02*
Y166417D01*
X663209Y139626D02*
Y145709D01*
X722500Y127917D02*
X730000Y135417D01*
X692500Y127917D02*
X722500D01*
X674760D02*
X692500D01*
X700000Y135417D01*
X493500Y189126D02*
X498500Y184126D01*
X493500Y189126D02*
Y195417D01*
X497043Y198960D01*
X571000Y193626D02*
Y198917D01*
X746791Y311126D02*
X749500Y308417D01*
X742300Y311126D02*
X746791D01*
X755209Y307126D02*
X758000D01*
X762299Y193618D02*
X768250Y187667D01*
X668000Y165917D02*
X669000D01*
X661543Y172374D02*
X668000Y165917D01*
X661543Y172374D02*
Y181417D01*
X667543D01*
X670000Y178961D01*
X740252Y183669D02*
Y197661D01*
X738500Y181917D02*
X740252Y183669D01*
X781197Y191917D02*
X781500Y191614D01*
Y187417D02*
Y191614D01*
X469622Y212795D02*
Y215381D01*
X459441Y217709D02*
X467294D01*
X464500Y192917D02*
X467000Y190417D01*
X512457Y191874D02*
Y192374D01*
X510000Y188000D02*
X512457Y191874D01*
X471846Y190417D02*
X471862D01*
X467000D02*
X471846D01*
X467294Y217709D02*
X468647Y216356D01*
X469622Y215381D01*
X406650Y178417D02*
X418000D01*
X494209Y319709D02*
X497000D01*
X462221Y313709D02*
X469215Y320703D01*
X629104Y161313D02*
X629209Y161417D01*
X627709Y159917D02*
X629104Y161313D01*
X664291Y283417D02*
X666291D01*
X658000D02*
X664291D01*
X634000Y239126D02*
X644000D01*
X632791Y237917D02*
X634000Y239126D01*
X768791Y145417D02*
X770791D01*
X756500D02*
X768791D01*
X768248Y147961D02*
X770791Y145417D01*
X653709Y199417D02*
Y206208D01*
Y196126D02*
Y199417D01*
X528000Y249417D02*
X534291D01*
X501795Y284433D02*
X503484D01*
X499795D02*
X501795D01*
X497000Y331126D02*
X507000D01*
X426205Y284433D02*
X429484D01*
X424205D02*
X426205D01*
X442250Y331167D02*
X443791Y329626D01*
X470000Y229126D02*
X474500D01*
X468000D02*
X470000D01*
X565500Y174039D02*
X572500D01*
X555500D02*
X565500D01*
X508457Y183417D02*
X510000Y188000D01*
X408500Y189835D02*
X421000D01*
X388000Y208626D02*
X398000D01*
X385209D02*
X388000D01*
X789250Y309167D02*
X797000Y301417D01*
X663130Y139547D02*
X674760Y127917D01*
X471846Y177071D02*
Y178590D01*
Y177071D02*
X474000Y174917D01*
X471846Y178590D02*
Y180559D01*
X388500Y187917D02*
X389000Y187417D01*
X481000Y213417D02*
Y214917D01*
X480000Y215917D02*
X481000Y214917D01*
X536709Y147417D02*
X537709Y146417D01*
X520000Y164917D02*
X523118Y161799D01*
X526429D01*
X537709Y146417D02*
X542500D01*
X581543Y163417D02*
Y171461D01*
X498500Y171417D02*
Y172709D01*
X552000Y195417D02*
X553000Y194417D01*
X547709Y195417D02*
X552000D01*
X547709D02*
Y197417D01*
X581000Y182209D02*
X582000Y181209D01*
X571000Y182209D02*
X581000D01*
X581543Y171461D02*
X582000Y171917D01*
Y181209D01*
X411209Y316209D02*
X418000D01*
X424205Y286401D02*
X426205D01*
X432000D01*
X456500Y247874D02*
X463543D01*
X446500D02*
X456500D01*
X480000Y215917D02*
Y217709D01*
X520000Y241917D02*
X522500Y239417D01*
X524851D01*
X520000Y241917D02*
Y243417D01*
X521000Y244417D01*
X499795Y290338D02*
X501795D01*
X503079D01*
X670457Y171417D02*
X676500D01*
X678000Y172917D01*
Y177874D01*
X682000Y145709D02*
X692000D01*
X706500Y144917D02*
Y145917D01*
X707146Y146563D01*
X692000Y145709D02*
X698000Y151709D01*
X702000D01*
X707146Y146563D01*
X642291Y199417D02*
Y206626D01*
X630500Y217417D02*
X636291D01*
X733000Y147417D02*
X735000Y145417D01*
X738291D01*
X733000Y147417D02*
Y148417D01*
X762299Y153173D02*
Y159000D01*
X781197Y149929D02*
Y153173D01*
X784000Y139917D02*
X795000D01*
X780209Y143709D02*
X784000Y139917D01*
X795000D02*
X798209Y143126D01*
Y145417D01*
X771748Y190169D02*
X774500Y187417D01*
X756000Y181417D02*
Y197661D01*
X790646Y186417D02*
Y197661D01*
X771748Y190169D02*
Y197661D01*
X796945Y183972D02*
X801209Y179709D01*
X796945Y183972D02*
Y185417D01*
X801209Y179709D02*
X808000D01*
X796945Y185417D02*
Y197661D01*
X727000Y279417D02*
X734000Y272417D01*
X733299Y236118D02*
Y239173D01*
X677709Y283417D02*
X685811D01*
X727000Y279417D02*
Y283661D01*
X734000Y272417D02*
X739000D01*
X742748Y276165D01*
Y283661D01*
X686055D02*
Y287472D01*
X685811Y283417D02*
X686055Y283661D01*
X679709Y293417D02*
X685500D01*
X686055Y287472D02*
X687000Y288417D01*
Y291917D01*
X685500Y293417D02*
X687000Y291917D01*
X727000Y301417D02*
X728709Y299709D01*
X727000Y301417D02*
Y303917D01*
X728709Y299709D02*
X732000D01*
X734000D02*
X742000D01*
X764646Y277063D02*
X767945Y280362D01*
Y283661D01*
X758000Y295709D02*
X764000D01*
X766000Y293709D01*
X767945Y283661D02*
Y293653D01*
X768000Y293709D01*
X766000D02*
X768000D01*
X408209Y189417D02*
X408500Y189126D01*
X401000Y190917D02*
X408209D01*
X429791Y199209D02*
X432000Y201417D01*
X340457Y184874D02*
X346260Y190677D01*
X340457Y181417D02*
Y184874D01*
X341000Y225817D02*
X342000Y224817D01*
Y201874D02*
X342000Y201874D01*
X355500D01*
X352000Y208961D02*
X356957Y213917D01*
X381500Y204917D02*
X385209Y208626D01*
X341000Y297417D02*
Y301960D01*
X342457Y303417D01*
X349500Y298417D02*
Y303374D01*
X440154Y180559D02*
Y180590D01*
X438173Y178590D02*
X440154D01*
X434000Y174417D02*
X438173Y178590D01*
X427610Y182527D02*
X440154D01*
X433000Y177917D02*
X435673Y180590D01*
X431000Y177917D02*
X433000D01*
X440154Y190401D02*
X446484D01*
X446500Y190417D01*
X444689Y210417D02*
X447142Y207964D01*
Y205264D02*
Y207964D01*
X418494Y178423D02*
Y180947D01*
X425980Y188433D02*
X440154D01*
X418494Y180947D02*
X425980Y188433D01*
X450850Y217417D02*
X452850Y219417D01*
X447500Y217417D02*
X450850D01*
X445000Y216382D02*
X448965Y212417D01*
X430500Y210417D02*
X444689D01*
X456984Y205264D02*
Y208933D01*
X453500Y212417D02*
X456984Y208933D01*
X448965Y212417D02*
X453500D01*
X455016Y205264D02*
Y208780D01*
X453379Y210417D02*
X455016Y208780D01*
X448000Y210417D02*
X453379D01*
X443000Y215417D02*
X448000Y210417D01*
X441543Y215417D02*
X443000D01*
X429000Y215917D02*
X433957D01*
X434457Y215417D01*
X445000Y216382D02*
Y218493D01*
X501795Y261122D02*
X504500Y258417D01*
X511291Y331626D02*
X517000Y325917D01*
X469000Y328918D02*
X472965D01*
X469012Y320929D02*
X469441D01*
X481095Y331417D02*
X485000D01*
X469215Y320703D02*
X469441Y320929D01*
X469000Y320917D02*
X469215Y320703D01*
X470500Y319417D01*
X481036Y326359D02*
X483941D01*
X448000Y318209D02*
X448791Y317417D01*
X438000Y243417D02*
Y245708D01*
X435000Y240417D02*
X438000Y243417D01*
X503500Y313417D02*
X507000Y316917D01*
X491457Y313417D02*
X503500D01*
X489000Y315874D02*
X491457Y313417D01*
X501795Y308055D02*
X505638D01*
X508000Y310417D01*
X428000Y253917D02*
X431500Y257417D01*
X428000Y251126D02*
Y253917D01*
X431500Y257126D02*
X438000D01*
X410000Y309126D02*
Y315000D01*
X411209Y316209D01*
X410000Y297709D02*
X418791D01*
X419000Y297917D01*
X780209Y143709D02*
Y148941D01*
X781197Y149929D01*
X768791Y145417D02*
X771748Y148374D01*
X569500Y270417D02*
X584000Y284917D01*
X572598Y259417D02*
X577402Y254614D01*
X572172Y259417D02*
X572598D01*
X569500Y262089D02*
X572172Y259417D01*
X568000Y260866D02*
X574252Y254614D01*
X512457Y192374D02*
X519500Y199417D01*
X537449Y220917D02*
Y222968D01*
X552000Y235917D02*
X554000Y233917D01*
X519543Y199417D02*
Y204925D01*
X518551Y205917D02*
X519543Y204925D01*
X536000Y224417D02*
X537449Y222968D01*
X514000Y246917D02*
X516500Y249417D01*
X514000Y243126D02*
Y246917D01*
X498000Y224960D02*
Y227417D01*
X494500Y230917D02*
X498000Y227417D01*
X440076Y223417D02*
X445000Y218493D01*
X356957Y213917D02*
X357000D01*
X342000Y208960D02*
Y213917D01*
X428299Y193417D02*
X429150Y194268D01*
X402000Y193417D02*
X428299D01*
X398000Y197417D02*
X402000Y193417D01*
X427500Y213417D02*
X430500Y210417D01*
X441543Y215417D02*
Y219374D01*
X440000Y220917D02*
X441543Y219374D01*
X385275Y213417D02*
X427500D01*
X380500Y213917D02*
X383000Y216417D01*
X357000Y213917D02*
X380500D01*
X378000Y209917D02*
X378621D01*
X383621Y214917D01*
X427500Y223417D02*
X440076D01*
X420500Y216417D02*
X427500Y223417D01*
X383000Y216417D02*
X420500D01*
X427121Y220917D02*
X440000D01*
X421121Y214917D02*
X427121Y220917D01*
X383621Y214917D02*
X421121D01*
X476043Y157917D02*
X479500D01*
X453047Y173571D02*
Y181870D01*
X455016Y167437D02*
X458036Y164417D01*
X455016Y167437D02*
Y173571D01*
X451079Y168838D02*
Y173571D01*
X443104Y166022D02*
X447142Y170059D01*
X428000Y165417D02*
X432291D01*
X443709Y162626D02*
Y165417D01*
X451500Y153417D02*
Y164417D01*
X449110Y166807D02*
X451500Y164417D01*
X449110Y166807D02*
Y173571D01*
X437500Y156417D02*
X443709Y162626D01*
X421500Y156417D02*
X437500D01*
X413500Y148417D02*
X421500Y156417D01*
X420000Y170960D02*
X430543D01*
X434000Y174417D01*
X408043Y170917D02*
X414500D01*
X435673Y180590D02*
X440154D01*
X408000Y163874D02*
X420000D01*
X378000Y206142D02*
X385275Y213417D01*
X378000Y199043D02*
Y206142D01*
X386350Y187917D02*
X388500D01*
X385476Y188791D02*
X386350Y187917D01*
X395150Y185417D02*
X400500D01*
X429921Y184496D02*
X440154D01*
X428500Y185917D02*
X429921Y184496D01*
X425000Y179917D02*
X427610Y182527D01*
X398957Y176417D02*
X402000D01*
X397500Y174960D02*
X398957Y176417D01*
X388043Y174960D02*
X392500Y179417D01*
X388000Y174960D02*
X388043D01*
X410500Y134417D02*
X415791D01*
X350000Y208961D02*
X352000D01*
X363000Y211417D02*
X365500Y208917D01*
X382500Y188791D02*
X385476D01*
X380500D02*
X382500D01*
X362022Y197896D02*
X363500Y196417D01*
X358043Y201874D02*
X362022Y197896D01*
X368626Y191291D01*
X355500Y201874D02*
X358043D01*
X370335Y198043D02*
X375500D01*
X363417Y204960D02*
X370335Y198043D01*
X362000Y204960D02*
X363417D01*
X375500Y198043D02*
X378000Y200543D01*
Y191291D02*
X380500Y188791D01*
X368626Y191291D02*
X378000D01*
X388000Y167874D02*
X397500D01*
X384000Y171874D02*
X388000Y167874D01*
X384000Y171874D02*
Y178917D01*
X379500Y183417D02*
X384000Y178917D01*
X362000Y183417D02*
X365791D01*
X360000Y185417D02*
X362000Y183417D01*
X577500Y299417D02*
Y301417D01*
Y299417D02*
X579500Y297417D01*
Y295917D02*
Y297417D01*
Y295917D02*
X585000Y290417D01*
X759000Y277063D02*
X764646D01*
X759000D02*
X761646Y279708D01*
Y283661D01*
X787500Y296417D02*
X792000D01*
X794000Y298417D01*
X797000Y297882D02*
Y301417D01*
X795266Y296173D02*
X795291D01*
X793987Y298430D02*
X794000Y298417D01*
X793987Y298430D02*
X793987D01*
X795291Y296173D02*
X797000Y297882D01*
X793510Y294417D02*
X795266Y296173D01*
X787964Y294417D02*
X793510D01*
X784000Y291160D02*
Y292917D01*
X780500Y291902D02*
Y312917D01*
X782500Y291781D02*
Y296917D01*
X777000Y288403D02*
X780500Y291902D01*
X778500Y287781D02*
X782500Y291781D01*
X780000Y287160D02*
X784000Y291160D01*
X781500Y286539D02*
X786500Y291539D01*
X783000Y285917D02*
X789000Y291917D01*
X785500Y281417D02*
X787500D01*
X787879Y285917D02*
X790500D01*
X408000Y160917D02*
Y163874D01*
X406500Y159417D02*
X408000Y160917D01*
X399709Y159417D02*
X406500D01*
X388291Y154626D02*
Y159417D01*
Y154626D02*
X390500Y152417D01*
X436457Y233417D02*
Y237961D01*
X434000Y240417D02*
X436457Y237961D01*
X434000Y240417D02*
X435000D01*
X429457D02*
X434000D01*
X376000Y183417D02*
X379500D01*
X438000Y331953D02*
X439465Y333417D01*
X464291Y325126D02*
X466000Y323417D01*
X467559Y326359D02*
X472965D01*
X472024Y332417D02*
X472965Y331477D01*
X467000Y332417D02*
X472024D01*
X466500Y327417D02*
X467559Y326359D01*
X452500Y333417D02*
X454000Y331917D01*
X439465Y333417D02*
X452500D01*
X433500Y311917D02*
X433543D01*
X438000Y316374D01*
X447104Y316813D02*
X451500Y312417D01*
X447104Y316813D02*
X447709Y317417D01*
X448791D01*
X458000Y313709D02*
X462221D01*
X458000Y325126D02*
X464291D01*
X464000Y327417D02*
X466500D01*
X459500Y331917D02*
X464000Y327417D01*
X454000Y331917D02*
X459500D01*
X465000Y330417D02*
X467000Y332417D01*
D28*
X756500Y160500D02*
X759150Y157850D01*
X482000Y209917D02*
X484000D01*
X490000Y215917D01*
X546750Y209192D02*
X561000Y194942D01*
X545750Y208778D02*
X560000Y194528D01*
X544750Y208364D02*
X559000Y194114D01*
Y188417D02*
Y194114D01*
X560000Y190917D02*
Y194528D01*
X561000Y193917D02*
Y194942D01*
Y193917D02*
X564500Y190417D01*
X560000Y190917D02*
X565000Y185917D01*
X559000Y188417D02*
X561000Y186417D01*
X543750Y207667D02*
X558000Y193417D01*
Y185917D02*
Y193417D01*
Y185917D02*
X561500Y182417D01*
X507346Y137417D02*
X518457D01*
X485957Y167874D02*
X488500Y170417D01*
X515543Y183417D02*
X518000D01*
X526500Y191917D01*
X531000D01*
X588000Y144417D02*
Y179917D01*
Y144417D02*
X593000Y139417D01*
X600000D01*
X586500Y142917D02*
X594000Y135417D01*
X600000Y139417D02*
X604000Y135417D01*
X592000Y176961D02*
X595957D01*
X597500Y175417D01*
X602000Y174894D02*
Y177695D01*
X600500Y171460D02*
Y173394D01*
X602000Y174894D01*
X600494Y195950D02*
X601481Y196936D01*
X600494Y186288D02*
Y195950D01*
Y179201D02*
X602000Y177695D01*
X600494Y179201D02*
Y184547D01*
X600500Y184553D01*
Y186282D01*
X600494Y186288D02*
X600500Y186282D01*
X598457Y169417D02*
X600500Y171460D01*
X604000Y188961D02*
X605613Y190573D01*
X602000Y188961D02*
Y190417D01*
X571500Y157417D02*
X574457Y160374D01*
X590043Y176961D02*
X592000D01*
X583701Y203716D02*
X587250Y200167D01*
Y198192D02*
Y200167D01*
X586500Y142917D02*
Y197442D01*
X587250Y198192D01*
X588000Y179917D02*
X592000Y183917D01*
Y191417D01*
X591000Y192417D02*
X592000Y191417D01*
X591000Y192417D02*
Y201092D01*
X594625Y190618D02*
X596000Y191993D01*
Y198417D01*
X594625Y199792D02*
X596000Y198417D01*
X594625Y199792D02*
Y208845D01*
Y184542D02*
Y190618D01*
X583701Y203716D02*
Y204220D01*
X582250Y203167D02*
Y205671D01*
Y203167D02*
X585500Y199917D01*
Y198917D02*
Y199917D01*
X587872Y204220D02*
X591000Y201092D01*
X586850Y204220D02*
X587872D01*
X594625Y208845D02*
X596299Y210520D01*
X592000Y181917D02*
X594625Y184542D01*
X579050Y209018D02*
X580551Y210520D01*
X579050Y209017D02*
Y209018D01*
X577402Y207366D02*
Y207370D01*
Y207366D02*
X578900Y205867D01*
X580551Y213669D02*
X582250Y211970D01*
Y209667D02*
Y211970D01*
X589750Y190634D02*
Y200167D01*
X582250Y209667D02*
X583000Y208917D01*
X584500D01*
X585250Y208167D01*
Y203667D02*
Y208167D01*
Y203667D02*
X586500Y202417D01*
X587500D01*
X589750Y200167D01*
X579500Y220417D02*
X584000Y215917D01*
X575844Y205812D02*
Y212073D01*
X574252Y204220D02*
X575844Y205812D01*
X585300Y212119D02*
X586850Y213669D01*
X585300Y212117D02*
Y212119D01*
X580551Y204220D02*
X581000Y203771D01*
Y201417D02*
Y203771D01*
X579716Y200134D02*
X581000Y201417D01*
X577712Y200134D02*
X579716D01*
X577402Y204016D02*
X579000Y202417D01*
X593150Y192917D02*
Y204220D01*
X596299Y202118D02*
Y204220D01*
Y202118D02*
X601481Y196936D01*
X580551Y207370D02*
X582250Y205671D01*
X586850Y207370D02*
X588300Y205920D01*
Y205917D02*
Y205920D01*
X590000Y207417D02*
X591400Y208817D01*
X740500Y210917D02*
X743000Y208417D01*
X740500Y210917D02*
Y212417D01*
X737750Y215167D02*
X740500Y212417D01*
X735750Y214167D02*
X736964D01*
X736164Y215167D02*
X737750D01*
X736964Y214167D02*
X738000Y213131D01*
Y204217D02*
Y213131D01*
X743000Y208417D02*
X748000D01*
X730318Y218417D02*
X731818Y216917D01*
X734414D01*
X736164Y215167D01*
X712500Y215917D02*
X734000D01*
X735750Y214167D01*
X729500Y218417D02*
X730318D01*
X709000Y211917D02*
X735500D01*
X711500Y208917D02*
Y209917D01*
X707500Y210417D02*
X709000Y211917D01*
X711500Y209917D02*
X712500Y210917D01*
X730500D01*
X734000Y207417D01*
X717250Y207667D02*
X718205Y206712D01*
X723500Y205096D02*
X724504Y206100D01*
Y208913D01*
X711000Y214417D02*
X712500Y215917D01*
X707250Y200167D02*
Y206370D01*
X703000Y209206D02*
Y218957D01*
X702000Y208791D02*
Y219371D01*
X701000Y208377D02*
Y219785D01*
X700000Y207963D02*
Y220200D01*
X699000Y207549D02*
Y220614D01*
X698000Y207135D02*
Y221212D01*
X697000Y206720D02*
Y221417D01*
X696000Y206306D02*
Y220331D01*
X695000Y205892D02*
Y219917D01*
Y205892D02*
X698250Y202642D01*
Y196439D02*
Y202642D01*
X696000Y206306D02*
X699250Y203056D01*
Y196853D02*
Y203056D01*
X700250Y197268D02*
Y203470D01*
X697000Y206720D02*
X700250Y203470D01*
X698000Y207135D02*
X701250Y203885D01*
Y197682D02*
Y203885D01*
X702250Y198096D02*
Y204299D01*
X699000Y207549D02*
X702250Y204299D01*
X700000Y207963D02*
X703250Y204713D01*
Y198510D02*
Y204713D01*
X704250Y198925D02*
Y205127D01*
X701000Y208377D02*
X704250Y205127D01*
X702000Y208791D02*
X705250Y205541D01*
Y199339D02*
Y205541D01*
X703000Y209206D02*
X706250Y205956D01*
Y199753D02*
Y205956D01*
X704000Y209620D02*
X707250Y206370D01*
X704000Y209620D02*
Y218543D01*
X691000Y202417D02*
X695500D01*
X684457Y202460D02*
X684500Y202417D01*
X698250Y196439D02*
X700000Y194689D01*
X688000Y199417D02*
X691000Y202417D01*
X695500D02*
X696500Y201417D01*
X695504Y222913D02*
X697000Y221417D01*
X693000Y223331D02*
Y238527D01*
Y223331D02*
X696000Y220331D01*
X692000Y222917D02*
Y232917D01*
Y222917D02*
X695000Y219917D01*
X700000Y220200D02*
X701750Y221950D01*
X701000Y219785D02*
X702750Y221535D01*
X702000Y219371D02*
X703750Y221121D01*
X703000Y218957D02*
X704750Y220707D01*
X704000Y218543D02*
X705750Y220293D01*
X699000Y220614D02*
X700750Y222364D01*
X698000Y221212D02*
X698500Y221712D01*
X704750Y223081D02*
X708000Y226331D01*
X703750Y223496D02*
X707000Y226746D01*
X702750Y223910D02*
X706000Y227160D01*
X701750Y224324D02*
X705000Y227574D01*
X700495Y224483D02*
X701803Y225791D01*
X705750Y222667D02*
X717551Y234468D01*
X705750Y220293D02*
Y222667D01*
X704750Y220707D02*
Y223081D01*
X703750Y221121D02*
Y223496D01*
X702750Y221535D02*
Y223910D01*
X701750Y221950D02*
Y224324D01*
X700750Y222364D02*
Y224228D01*
X700495Y224483D02*
X700750Y224228D01*
X700495Y224483D02*
Y224483D01*
X700250Y197268D02*
X702000Y195518D01*
X699250Y196853D02*
X701000Y195104D01*
X701250Y197682D02*
X703000Y195932D01*
X702250Y198096D02*
X704000Y196346D01*
X703250Y198510D02*
X705000Y196760D01*
X704250Y198925D02*
X706000Y197175D01*
X705250Y199339D02*
X707000Y197589D01*
X706250Y199753D02*
X708000Y198003D01*
X707250Y200167D02*
X709000Y198417D01*
X708000Y191917D02*
Y198003D01*
X707000Y189417D02*
Y197589D01*
X706000Y186917D02*
Y197175D01*
X705000Y184917D02*
Y196760D01*
X704000Y183417D02*
Y196346D01*
X703000Y181417D02*
Y195932D01*
X702000Y178917D02*
Y195518D01*
X701000Y176917D02*
Y195104D01*
X700000Y175417D02*
Y194689D01*
X709000Y193417D02*
Y198417D01*
X588432Y212101D02*
X590000Y213669D01*
X687500Y204917D02*
X693500D01*
X691500Y182917D02*
X693000Y181417D01*
X691500Y182917D02*
Y190917D01*
X664000Y218417D02*
X691500Y190917D01*
X663000Y218003D02*
X690500Y190503D01*
Y181917D02*
Y190503D01*
X689500Y181503D02*
Y190089D01*
X662000Y217589D02*
X689500Y190089D01*
X661000Y217175D02*
X688500Y189675D01*
Y174917D02*
Y189675D01*
X687500Y173917D02*
Y189260D01*
X660000Y216760D02*
X687500Y189260D01*
X659000Y216346D02*
X686500Y188846D01*
Y171081D02*
Y188846D01*
X685500Y170667D02*
Y188432D01*
X658000Y215932D02*
X685500Y188432D01*
X657000Y215518D02*
X684500Y188018D01*
Y167917D02*
Y188018D01*
X683500Y172417D02*
Y187603D01*
X656000Y215104D02*
X683500Y187603D01*
X693000Y181417D02*
X697500D01*
X690500Y181917D02*
X694000Y178417D01*
X691000Y175917D02*
Y180003D01*
X689500Y181503D02*
X691000Y180003D01*
X789500Y218917D02*
X790457Y217960D01*
Y213417D02*
Y217960D01*
X684457Y202460D02*
Y211417D01*
X700000Y175417D02*
X718205Y157212D01*
X605613Y190573D02*
Y200805D01*
X761646Y233772D02*
Y239173D01*
Y233772D02*
X762500Y232917D01*
X708500Y217417D02*
X712500D01*
X713500Y218417D01*
X701803Y225791D02*
Y230114D01*
X705000Y227574D02*
Y239126D01*
X706000Y227160D02*
Y230917D01*
X707000Y226746D02*
Y229417D01*
X708000Y226331D02*
Y228917D01*
X762500Y232917D02*
X763500D01*
X767945Y237362D01*
Y239173D01*
X431500Y267553D02*
Y270917D01*
X426205Y272622D02*
X429795D01*
X431500Y270917D01*
X430327Y274590D02*
X433500Y271417D01*
Y268917D02*
Y271417D01*
Y268917D02*
X435500Y266917D01*
X509484Y284433D02*
X511000Y282917D01*
X513000D01*
X501795Y284433D02*
X509484D01*
X504792Y292307D02*
X510182Y286917D01*
X511000D01*
X509829Y278246D02*
X511000Y279417D01*
X513500D01*
X510173Y274590D02*
X511000Y275417D01*
X518000D01*
X505327Y296244D02*
X506000Y296917D01*
X508000D01*
X432855Y296244D02*
X457000Y272099D01*
X786000Y316917D02*
X787000Y317917D01*
X735590Y315417D02*
X786318D01*
X634000Y297331D02*
Y300917D01*
X658929Y315917D02*
X696414D01*
X658515Y316917D02*
X696828D01*
X656318Y304417D02*
X666818Y314917D01*
X696828Y316917D02*
X706328Y307417D01*
X696414Y315917D02*
X705914Y306417D01*
X696000Y314917D02*
X711075Y299842D01*
X666818Y314917D02*
X696000D01*
X661500Y306417D02*
X669000Y313917D01*
X695586D01*
X710000Y299503D01*
X706328Y307417D02*
X708500D01*
X705914Y306417D02*
X706500D01*
X748000Y208417D02*
X752000Y204417D01*
X713500Y218417D02*
X729500D01*
X734000Y203417D02*
Y207417D01*
X724504Y197661D02*
Y200474D01*
X723500Y201478D02*
X724504Y200474D01*
X790646Y153173D02*
Y162772D01*
Y150563D02*
Y153173D01*
X719213Y306205D02*
X721713D01*
X724500Y303417D01*
Y301417D02*
Y303417D01*
X719150Y302992D02*
X721425D01*
X723500Y300917D01*
X724500Y301417D02*
X730500Y295417D01*
X593150Y210520D02*
X594697Y212067D01*
X594700D01*
X510169Y264748D02*
X518500Y256417D01*
X528500D01*
X556743Y301417D02*
X564743Y309417D01*
X611672D01*
X617000Y304089D01*
X556328Y302417D02*
X564328Y310417D01*
X612086D01*
X620000Y302503D01*
X555914Y303417D02*
X563914Y311417D01*
X612500D01*
X622000Y301917D01*
X555500Y304417D02*
X563500Y312417D01*
X614000D01*
X624500Y301917D01*
Y289246D02*
Y301917D01*
X686055Y235862D02*
Y239173D01*
X692354D02*
X693000Y238527D01*
X689205Y235712D02*
X692000Y232917D01*
X682000Y238917D02*
Y241503D01*
X684000Y232917D02*
X687500Y229417D01*
X684000Y232917D02*
Y242089D01*
X685750Y243839D01*
X664000Y218417D02*
Y225231D01*
X656000Y215104D02*
Y221917D01*
X657000Y215518D02*
Y222331D01*
X658000Y215932D02*
Y222746D01*
X659000Y216346D02*
Y223160D01*
X660000Y216760D02*
Y223574D01*
X661000Y217175D02*
Y223988D01*
X662000Y217589D02*
Y224402D01*
X663000Y218003D02*
Y224817D01*
X639189Y276692D02*
X645564D01*
X640500Y278917D02*
X644754D01*
X643243Y280417D02*
X644668D01*
X645000Y281499D02*
Y283417D01*
Y281499D02*
X650500Y275999D01*
X645564Y276692D02*
X647500Y274757D01*
X644754Y278917D02*
X648500Y275171D01*
X644668Y280417D02*
X649500Y275585D01*
X649900Y278013D02*
Y281917D01*
Y278013D02*
X651500Y276413D01*
X650900Y278428D02*
Y283017D01*
X651900Y278842D02*
Y288549D01*
Y278842D02*
X653500Y277242D01*
X650900Y278428D02*
X652500Y276828D01*
X651500Y246660D02*
Y276413D01*
X650500Y246246D02*
Y275999D01*
X649500Y245831D02*
Y275585D01*
X648500Y245417D02*
Y275171D01*
X647500Y244917D02*
Y274757D01*
X646500Y244417D02*
Y274342D01*
X645750Y275092D02*
X646500Y274342D01*
X636825Y275092D02*
X645750D01*
X653500Y247488D02*
Y277242D01*
X652500Y247074D02*
Y276828D01*
X645500Y243917D02*
Y258331D01*
Y243917D02*
X650500Y238917D01*
Y227417D02*
Y238917D01*
X646500Y244417D02*
X651500Y239417D01*
X647500Y244917D02*
X652500Y239917D01*
X648500Y245417D02*
X653500Y240417D01*
X649500Y245831D02*
X654500Y240831D01*
X650500Y246246D02*
X655500Y241246D01*
X651500Y246660D02*
X656500Y241660D01*
X652500Y247074D02*
X657500Y242074D01*
X653500Y247488D02*
X658500Y242488D01*
X654750Y247681D02*
Y264142D01*
Y247681D02*
X661000Y241431D01*
Y232917D02*
Y241431D01*
X658500Y230731D02*
Y242488D01*
X657500Y230317D02*
Y242074D01*
X656500Y229903D02*
Y241660D01*
X655500Y229488D02*
Y241246D01*
X654500Y229074D02*
Y240831D01*
X653500Y228660D02*
Y240417D01*
X652500Y228246D02*
Y239917D01*
X651500Y227831D02*
Y239417D01*
X638950Y252992D02*
X641575D01*
X642500Y253917D01*
X638950Y249842D02*
X639024Y249917D01*
X641500D01*
X642500Y248917D01*
X643000Y244540D02*
X644500Y246040D01*
Y257917D01*
X640900Y261517D02*
X644500Y257917D01*
X643500Y260331D02*
X645500Y258331D01*
X725000Y251417D02*
X726000Y250417D01*
X712743Y253917D02*
X713743Y252917D01*
X732000D01*
X739598Y245319D01*
X728500Y254917D02*
X731500D01*
X713407Y254667D02*
X724750D01*
X727000Y256917D01*
X721061Y260356D02*
X722000Y259417D01*
X726000Y264417D02*
X727000Y265417D01*
X752828D01*
X764795Y253450D01*
X722500Y264417D02*
X726000D01*
X708500Y263917D02*
X716500D01*
X719000Y266417D01*
X725000D01*
X726353Y260417D02*
X729500D01*
X731811Y262728D01*
X754103D01*
X725414Y261356D02*
X726353Y260417D01*
X694527Y261476D02*
X694647Y261356D01*
X725414D01*
X727939Y262356D02*
X728500Y262917D01*
X796818Y304917D02*
X801500D01*
X786318Y315417D02*
X796818Y304917D01*
X758000Y319917D02*
X791000D01*
X795000Y315917D01*
Y309917D02*
Y315917D01*
X790000Y325417D02*
X806000Y309417D01*
X755346Y242772D02*
X762000Y249426D01*
Y253417D01*
X755000Y260417D02*
X762000Y253417D01*
X763000Y247917D02*
Y253831D01*
X754103Y262728D02*
X763000Y253831D01*
X733000Y260417D02*
X755000D01*
X764795Y239173D02*
Y253450D01*
X755346Y239173D02*
Y242772D01*
X758496Y239173D02*
Y243413D01*
X763000Y247917D01*
X749500Y308417D02*
X750791Y307126D01*
X758000D01*
X731500Y254917D02*
X745898Y240520D01*
Y239173D02*
Y240520D01*
X739598Y239173D02*
Y245319D01*
X736000Y254417D02*
X742000D01*
X749047Y247370D01*
X695061Y262356D02*
X727939D01*
X694233Y260356D02*
X721061D01*
X731000Y247917D02*
Y250417D01*
Y247917D02*
X736500Y242417D01*
Y239224D02*
Y242417D01*
X712328Y252917D02*
X713828Y251417D01*
X725000D01*
X713157Y254917D02*
X713407Y254667D01*
X723500Y246417D02*
X726500D01*
X730150Y242768D01*
Y239173D02*
Y242768D01*
X698654Y223296D02*
Y239173D01*
X746551Y197661D02*
Y201468D01*
X747500Y202417D01*
Y203917D01*
X752000Y202417D02*
Y204417D01*
X749701Y197661D02*
Y200118D01*
X752000Y202417D01*
X683000Y264917D02*
X707500D01*
X727500Y203417D02*
X727654Y203264D01*
Y197661D02*
Y203264D01*
X626500Y249432D02*
X627500Y250432D01*
Y251392D01*
X629025Y252917D01*
X625500Y249846D02*
X626500Y250846D01*
Y251806D01*
X625500Y251260D02*
Y252221D01*
X624500Y251675D02*
Y252635D01*
X623500Y252089D02*
Y253049D01*
X621414Y251417D02*
X622500Y252503D01*
Y253463D01*
X621828Y250417D02*
X623500Y252089D01*
X622243Y249417D02*
X624500Y251675D01*
X622657Y248417D02*
X625500Y251260D01*
X617500Y253917D02*
Y254417D01*
X626500Y242417D02*
Y247503D01*
X625000Y240917D02*
X626500Y242417D01*
X625500Y248503D02*
X626500Y247503D01*
X625600Y237017D02*
X627500Y238917D01*
Y247917D01*
X626500Y248917D02*
X627500Y247917D01*
X657276Y248193D02*
X660850D01*
X657000Y247917D02*
X657276Y248193D01*
X562000Y245917D02*
X562948Y246865D01*
X566253D01*
X567953Y245165D01*
X565000Y184417D02*
Y185917D01*
X553000Y245417D02*
X554000Y244417D01*
X562586Y249917D02*
X566350D01*
X560000Y247331D02*
X562586Y249917D01*
X561000Y246917D02*
X562398Y248315D01*
X564803D01*
X553000Y245417D02*
Y247407D01*
X566350Y249917D02*
X567953Y248315D01*
X541750Y239167D02*
X543932D01*
X545250Y240485D01*
Y240581D01*
X545709Y241040D01*
X667150Y276142D02*
X670724D01*
X671500Y276917D01*
X673575Y272992D02*
X677500Y276917D01*
X667150Y272992D02*
X673575D01*
X667224Y269917D02*
X682000D01*
X667150Y266693D02*
X669276D01*
X670500Y267917D01*
X682000D01*
X683833Y266085D01*
X694167D01*
X576500Y263417D02*
X577000Y262917D01*
X657000Y263917D02*
X658500Y262417D01*
Y259992D02*
Y262417D01*
Y259992D02*
X660850Y257642D01*
X657000Y252417D02*
Y254917D01*
X656275Y265667D02*
X657750D01*
X654750Y264142D02*
X656275Y265667D01*
X657750D02*
X658811Y264606D01*
X660668D01*
X660713Y264561D01*
X669144D01*
X639000Y264917D02*
X640263Y266180D01*
X640275Y266167D01*
X664500Y261417D02*
X665500Y260417D01*
X670000D01*
X670575Y259842D01*
X672850D01*
X661500Y260417D02*
X662500Y259417D01*
X669500D01*
X670000Y258917D01*
Y257917D02*
Y258917D01*
Y257917D02*
X671224Y256693D01*
X672850D01*
X656914Y268417D02*
X658639Y266693D01*
X660850D01*
X617500Y250417D02*
X618000D01*
X621828D01*
X618000D02*
Y250567D01*
X656500Y271417D02*
X658075Y269842D01*
X660850D01*
X656500Y274417D02*
X657925Y272992D01*
X660850D01*
X621000Y258917D02*
X623500Y256417D01*
X656500Y277417D02*
X657776Y276142D01*
X660850D01*
X640750Y262364D02*
X644750Y266364D01*
X639750Y262778D02*
X643750Y266778D01*
X640275Y266167D02*
X641725D01*
X642750Y267192D01*
X640750Y261692D02*
Y262364D01*
X639750Y261278D02*
Y262778D01*
X640263Y266180D02*
Y266180D01*
X643500Y260331D02*
Y262417D01*
X640900Y261517D02*
Y261542D01*
X640750Y261692D02*
X640900Y261542D01*
X639000Y260528D02*
X639750Y261278D01*
X625500Y269331D02*
Y276831D01*
X622172Y267417D02*
X624500Y269746D01*
Y277246D01*
X622757Y269417D02*
X623500Y270160D01*
Y277660D01*
X622500Y272323D02*
Y278074D01*
X630447Y267917D02*
X641000D01*
X644750Y266364D02*
Y270996D01*
X643750Y266778D02*
Y270581D01*
X642750Y267192D02*
Y270167D01*
X658250Y255667D02*
Y256642D01*
X657225Y257667D02*
X658250Y256642D01*
X643000Y243417D02*
Y244540D01*
X620500Y269417D02*
X622757D01*
X635400Y264017D02*
X637000Y262417D01*
X670724Y266142D02*
X672850D01*
X669144Y264561D02*
X670724Y266142D01*
X631750Y264667D02*
X637000Y259417D01*
X657000Y252417D02*
X658075Y251342D01*
X660850D01*
X667150Y257642D02*
X668026D01*
X679150Y256693D02*
X680094D01*
X683877Y260476D01*
X679150Y259842D02*
X681829D01*
X683462Y261476D01*
X679150Y266142D02*
X681776D01*
X683000Y264917D01*
X668026Y257642D02*
X670750Y254917D01*
X683500D01*
X684500Y255917D01*
X717500D01*
X688025Y246417D02*
X702086D01*
X685750Y244142D02*
X688025Y246417D01*
X685211Y254917D02*
X713157D01*
X686454Y251917D02*
X711914D01*
X711500Y250917D02*
X717551Y244866D01*
X710500Y249917D02*
X714402Y246016D01*
X686868Y250917D02*
X711500D01*
X686040Y252917D02*
X712328D01*
X685626Y253917D02*
X712743D01*
X708000Y248917D02*
X711252Y245665D01*
X687283Y249917D02*
X710500D01*
X687697Y248917D02*
X708000D01*
X704000Y247917D02*
X708102Y243815D01*
X702086Y246417D02*
X704953Y243550D01*
X684954Y250417D02*
X686454Y251917D01*
X685118Y249167D02*
X686868Y250917D01*
X685533Y248167D02*
X687283Y249917D01*
X685947Y247167D02*
X687697Y248917D01*
X686361Y246167D02*
X688111Y247917D01*
X679033Y253667D02*
X683961D01*
X685211Y254917D01*
X679447Y252667D02*
X684376D01*
X685626Y253917D01*
X679861Y251667D02*
X684790D01*
X686040Y252917D01*
X688111Y247917D02*
X704000D01*
X680025Y250417D02*
X684954D01*
X678025Y248417D02*
X680025Y250417D01*
X678861Y250667D02*
X679861Y251667D01*
X678697Y251917D02*
X679447Y252667D01*
X678282Y252917D02*
X679033Y253667D01*
X671000Y252917D02*
X678282D01*
X667247Y254589D02*
X669328D01*
X671000Y252917D01*
Y251917D02*
X678697D01*
X671750Y250667D02*
X678861D01*
X670425Y251342D02*
X671000Y251917D01*
X669276Y248193D02*
X671750Y250667D01*
X667150Y254492D02*
X667247Y254589D01*
X685750Y243839D02*
Y244142D01*
X682250Y249167D02*
X685118D01*
X684250Y248167D02*
X685533D01*
X685154Y246167D02*
X686361D01*
X684740Y247167D02*
X685947D01*
X684750Y245763D02*
X685154Y246167D01*
X683750Y246178D02*
X684740Y247167D01*
X682000Y245917D02*
X684250Y248167D01*
X681500Y248417D02*
X682250Y249167D01*
X680500Y248417D02*
X681500D01*
X667150Y251342D02*
X670425D01*
X677500Y248417D02*
X678025D01*
X672500Y248917D02*
X674500D01*
X671000Y245917D02*
Y247417D01*
X660000Y244917D02*
X661000Y243917D01*
X677000D01*
X679000Y245917D01*
X682000D01*
X683750Y244667D02*
Y246178D01*
X678000Y241417D02*
X680000Y243417D01*
X682000Y241503D02*
X684750Y244253D01*
Y245753D01*
X679000Y236917D02*
Y239917D01*
X683750Y244667D01*
X667150Y248193D02*
X669276D01*
X689205Y235712D02*
Y239173D01*
Y243212D01*
X671000Y247417D02*
X672500Y248917D01*
X664877Y241040D02*
Y241295D01*
Y241040D02*
X666925Y238992D01*
X668850D01*
X666075Y235842D02*
X668850D01*
X664500Y237417D02*
X666075Y235842D01*
X664500Y237417D02*
Y238417D01*
X678000Y239567D02*
Y241417D01*
X677425Y238992D02*
X678000Y239567D01*
X675150Y238992D02*
X677425D01*
X675150Y235842D02*
X677925D01*
X679000Y236917D01*
X663750Y233167D02*
X667000Y229917D01*
X670000D01*
X663000Y235167D02*
X663750D01*
X670000Y229917D02*
X671776Y228142D01*
X672850D01*
X669000Y227917D02*
X671925Y224992D01*
X672850D01*
X668500Y224917D02*
X671575Y221842D01*
X672850D01*
X667500Y221417D02*
X670224Y218693D01*
X672850D01*
X679150Y228142D02*
X682224D01*
X683500Y229417D01*
X687500Y219917D02*
Y229417D01*
X679150Y224992D02*
X679575Y225417D01*
X685000D01*
X679150Y221842D02*
X683075D01*
X684500Y220417D01*
X682207Y217417D02*
X685000D01*
X687500Y219917D01*
X679150Y218693D02*
X680931D01*
X682207Y217417D01*
X629000Y249417D02*
X629425Y249842D01*
X626500Y248917D02*
Y249432D01*
X625500Y248503D02*
Y249846D01*
X620025Y246917D02*
X624500D01*
X633000Y258917D02*
Y261417D01*
X630750Y263667D02*
X633000Y261417D01*
X623500Y253049D02*
X624500Y254049D01*
Y252635D02*
X625500Y253635D01*
Y252221D02*
X627413Y254133D01*
X626500Y251806D02*
X628413Y253719D01*
X622500Y253463D02*
X623500Y254463D01*
X620000Y251417D02*
X621414D01*
X632164Y265667D02*
X633814Y264017D01*
X635400D01*
X620275Y265667D02*
X632164D01*
X656337Y264254D02*
X656500Y264417D01*
X719150Y296693D02*
X722224D01*
X726500Y292417D01*
X723500Y299917D02*
Y300917D01*
Y299917D02*
X729000Y294417D01*
X719150Y299842D02*
X721575D01*
X728000Y293417D01*
X706500Y306417D02*
X709925Y302992D01*
X712850D01*
X711075Y299842D02*
X712850D01*
X710000Y297917D02*
Y299503D01*
X708500Y296791D02*
X713874Y291417D01*
X708500Y296791D02*
Y298917D01*
X707276Y300142D02*
X708500Y298917D01*
X711224Y296693D02*
X712850D01*
X710000Y297917D02*
X711224Y296693D01*
X705150Y300142D02*
X707276D01*
X705150Y296992D02*
X706885D01*
X713460Y290417D01*
X709776Y306142D02*
X712850D01*
X696425Y296992D02*
X698850D01*
X695276Y300142D02*
X698850D01*
X705150Y293842D02*
X707575D01*
X697075D02*
X698850D01*
X705150Y290693D02*
X708724D01*
X711000Y288417D01*
X696224Y290693D02*
X698850D01*
X695000Y291917D02*
X696224Y290693D01*
X695000Y291917D02*
Y293917D01*
X689750Y299167D02*
X695000Y293917D01*
X535150Y314142D02*
X541776D01*
X538000Y317417D02*
X542500D01*
X529638Y314555D02*
X534750Y319667D01*
X544750D02*
X556000Y308417D01*
X534750Y319667D02*
X544750D01*
X544689Y306228D02*
X549500Y301417D01*
X543984Y308433D02*
X550000Y302417D01*
X544016Y310402D02*
X551000Y303417D01*
X555914D01*
X550000Y302417D02*
X556328D01*
X549500Y301417D02*
X556743D01*
X541776Y314142D02*
X551500Y304417D01*
X555500D01*
X507169Y306087D02*
X515224Y314142D01*
X528850D01*
X535150Y307842D02*
X539925D01*
X540516Y308433D01*
X535150Y304693D02*
X539276D01*
X540811Y306228D01*
X544689D01*
X530500Y302417D02*
X534914D01*
X535914Y301417D01*
X538500D01*
X523500D02*
X534500D01*
X536041Y299876D01*
X523000Y304417D02*
X528500D01*
X520000Y301417D02*
X523000Y304417D01*
X521000Y298917D02*
X523500Y301417D01*
X525724Y298142D02*
X528850D01*
X525500Y297917D02*
X525724Y298142D01*
X535150D02*
X540776D01*
X537859Y299876D02*
X538068Y299667D01*
X539932D01*
X540141Y299876D01*
X542459D01*
X543500Y300917D01*
X538500Y301417D02*
X539000Y301917D01*
X536041Y299876D02*
X537859D01*
X535150Y294992D02*
X540425D01*
X535150Y291842D02*
X540575D01*
X535150Y288693D02*
X538276D01*
X539000Y289417D01*
X541500D01*
X524724Y288693D02*
X528850D01*
X524000Y289417D02*
X524724Y288693D01*
X526276Y282142D02*
X528850D01*
X526000Y282417D02*
X526276Y282142D01*
X536000Y286417D02*
X540500D01*
X535500Y285917D02*
X536000Y286417D01*
X513500Y279417D02*
X520000Y285917D01*
X535500D01*
X535150Y282142D02*
X540776D01*
X524925Y275842D02*
X528850D01*
X535150D02*
X542075D01*
X535150Y278992D02*
X542188D01*
X535150Y272693D02*
X543810D01*
X524500Y267417D02*
Y271417D01*
Y267417D02*
X525776Y266142D01*
X528850D01*
X519432Y269667D02*
X523432Y273667D01*
X527209D01*
X535150Y262992D02*
X539925D01*
X540250Y262667D01*
X553808D01*
X538011Y259842D02*
X539836Y261667D01*
X548750D01*
X535150Y259842D02*
X538011D01*
X530500Y254417D02*
X537500D01*
X541500Y258417D01*
X541000Y253417D02*
X542000Y254417D01*
X541500Y258417D02*
X543500D01*
X541154Y260667D02*
X546750D01*
X537179Y256693D02*
X541154Y260667D01*
X507250Y245167D02*
Y247667D01*
X501075Y246992D02*
X501500Y247417D01*
X497000Y236417D02*
Y238693D01*
Y236417D02*
X497500Y235917D01*
X467500Y245917D02*
X469575Y243842D01*
X472850D01*
X468500Y240917D02*
X472500D01*
X612047Y248315D02*
X613615Y249883D01*
X612000Y199417D02*
X621500Y189917D01*
Y182461D02*
Y189917D01*
X546750Y260667D02*
X548500Y258917D01*
Y257417D02*
Y258917D01*
X575827Y246740D02*
X577402Y248315D01*
X563102Y210520D02*
X564803D01*
X569528Y218394D02*
Y218437D01*
X627500Y273417D02*
X628177D01*
X631177Y270417D01*
X639500D01*
X593150Y251464D02*
X594724Y253039D01*
X597500Y242917D02*
X598000D01*
X585283Y246733D02*
X585326D01*
X585333Y246726D01*
X571102Y238866D02*
X572677Y237291D01*
X588425Y253039D02*
X590000Y251464D01*
X621000Y267417D02*
X622172D01*
X631500Y277417D02*
Y281417D01*
Y277417D02*
X634825Y274092D01*
X640325D01*
X625850Y268067D02*
Y268417D01*
Y268067D02*
X626000Y267917D01*
X666362Y254401D02*
X666378Y254417D01*
X723689Y256606D02*
X724500Y257417D01*
X730500Y256917D02*
Y257417D01*
X683877Y260476D02*
X694113D01*
X694233Y260356D01*
X683462Y261476D02*
X694527D01*
X694500Y262917D02*
X695061Y262356D01*
X709500Y266417D02*
X710101Y265816D01*
X709500Y266417D02*
Y270917D01*
X707500Y264917D02*
X708500Y263917D01*
X710101Y265816D02*
X710313D01*
X511000Y289417D02*
X524000D01*
X520000Y290917D02*
X521516Y292433D01*
X514500Y290917D02*
X520000D01*
X509500Y295917D02*
X514500Y290917D01*
X509500Y295917D02*
Y296417D01*
X519000Y293917D02*
X519484Y294402D01*
X509068Y299667D02*
X512432D01*
X512946Y300181D01*
X513250Y298667D02*
X518000Y293917D01*
X509568Y304167D02*
Y306485D01*
X513484Y310402D01*
X558549Y275167D02*
X559549Y274167D01*
X559639D01*
X561250Y272556D01*
Y272466D02*
Y272556D01*
Y272466D02*
X563299Y270417D01*
X558135Y274167D02*
X559135Y273167D01*
X559225D01*
X560250Y272142D01*
Y272052D02*
Y272142D01*
X594400Y249609D02*
X594674Y249883D01*
X594717D01*
X621750Y235167D02*
X622000Y234917D01*
X574252Y251464D02*
X575205Y252417D01*
X576449D01*
X577402Y251464D01*
X569500Y236917D02*
Y237264D01*
X569528Y237291D01*
X608500Y257417D02*
X608600Y257517D01*
X593150Y254614D02*
Y255067D01*
X608650Y270055D02*
Y270267D01*
X608500Y270417D02*
X608650Y270267D01*
X613063Y279917D02*
X614472D01*
X612648Y280917D02*
X614057D01*
X621047Y270870D02*
Y270870D01*
X613477Y278917D02*
X614886D01*
X613891Y277917D02*
X617500D01*
X524500Y275417D02*
X524925Y275842D01*
X522500Y275417D02*
X524500D01*
X519000Y271917D02*
X522500Y275417D01*
X517500Y271917D02*
X519000D01*
X518000Y275417D02*
X519500Y276917D01*
X523500D01*
X524984Y278401D01*
X519000Y267917D02*
X521000Y265917D01*
X508500Y267917D02*
X519000D01*
X507732Y268685D02*
X508500Y267917D01*
X521000Y265917D02*
X524516Y262402D01*
X518000Y262417D02*
X519984Y260433D01*
X640325Y274092D02*
X643586Y270831D01*
X639500Y279917D02*
X640500Y278917D01*
X642000Y281660D02*
X643243Y280417D01*
X637775Y278106D02*
X639189Y276692D01*
X636500Y279417D02*
X637793Y278124D01*
X637793D01*
X637775Y278106D02*
X637793Y278124D01*
X632325Y273092D02*
X639825D01*
X636500Y279417D02*
Y280417D01*
X642000Y281660D02*
Y281917D01*
X631500Y281417D02*
X648250Y298167D01*
X646593Y302167D02*
X693250D01*
X616000Y285417D02*
X620000Y289417D01*
Y302503D01*
X617000Y290917D02*
Y304089D01*
X586850Y232567D02*
Y232567D01*
X598000Y243716D02*
X599449Y245165D01*
X572677Y249890D02*
X574252Y248315D01*
X607346Y240441D02*
X608898Y238890D01*
X551500Y248907D02*
X553000Y247407D01*
X564803Y254614D02*
X566378Y253039D01*
X591500Y230917D02*
X593150Y232567D01*
X629000Y221114D02*
Y221917D01*
X621500Y228917D02*
X622500Y227917D01*
X624000Y231503D02*
X625000Y230503D01*
X599449Y210520D02*
X601024Y208945D01*
X588776Y209252D02*
Y209257D01*
X588476Y208952D02*
X588776Y209252D01*
X588626Y212251D02*
Y212256D01*
X588476Y212101D02*
X588626Y212251D01*
X599449Y213669D02*
X601024Y212094D01*
X593150Y226268D02*
X593299Y226417D01*
X595500D01*
X631500Y244417D02*
X631638Y244555D01*
X684809Y258226D02*
X691009D01*
X694167Y266085D02*
X695504Y267421D01*
Y222913D02*
Y227413D01*
X471846Y186464D02*
X476453D01*
X477500Y185417D01*
X480500D01*
X483500Y188417D01*
X471846Y194338D02*
X480421D01*
X471925Y184417D02*
X483500D01*
X486500Y182917D02*
Y189417D01*
X485500Y181917D02*
X486500Y182917D01*
X477500Y181917D02*
X485500D01*
X479000Y180917D02*
X486000D01*
X479500Y179917D02*
X487000D01*
X486000Y180917D02*
X488000Y182917D01*
X487000Y179917D02*
X489000Y181917D01*
X692354Y283661D02*
Y295063D01*
X658500Y230731D02*
X664000Y225231D01*
X657500Y230317D02*
X663000Y224817D01*
X656500Y229903D02*
X662000Y224402D01*
X655500Y229488D02*
X661000Y223988D01*
X654500Y229074D02*
X660000Y223574D01*
X653500Y228660D02*
X659000Y223160D01*
X652500Y228246D02*
X658000Y222746D01*
X651500Y227831D02*
X657000Y222331D01*
X650500Y227417D02*
X656000Y221917D01*
X647709Y214708D02*
Y217417D01*
X613600Y224647D02*
Y224693D01*
Y224715D01*
X644500Y271331D02*
Y272417D01*
Y271331D02*
X644600Y271231D01*
X518000Y262417D02*
X518016Y262402D01*
X514250Y266167D02*
X518000Y262417D01*
X612047Y226268D02*
X613600Y224715D01*
X615197Y226268D02*
X616547Y224917D01*
X617100D01*
X613622Y221543D02*
X615197Y223118D01*
X559500Y224417D02*
X561500Y226417D01*
X564654D01*
X559500Y219917D02*
Y224417D01*
X612047Y216819D02*
X613622Y215244D01*
X615197Y235716D02*
X615898Y236417D01*
X648950Y284967D02*
Y287367D01*
Y284967D02*
X650900Y283017D01*
X651900Y288549D02*
X652000Y288649D01*
Y289266D01*
X625000Y191917D02*
Y201417D01*
X692354Y239173D02*
Y243772D01*
X553808Y262667D02*
X554000Y262475D01*
X543500Y258417D02*
X543616D01*
X543808Y258225D01*
X542075Y275842D02*
X548164Y269753D01*
X551500Y248907D02*
Y255417D01*
X607709Y295709D02*
Y301417D01*
X605350Y226268D02*
X605748D01*
X701803Y230114D02*
Y239173D01*
X695504Y227413D02*
Y239173D01*
X510500Y301417D02*
Y301917D01*
X511000Y301417D01*
X510268Y302149D02*
X510500Y301917D01*
X513750Y303667D02*
X518500Y298917D01*
X521000D01*
X515236Y300181D02*
X517500Y297917D01*
X512946Y300181D02*
X515236D01*
X508568Y298667D02*
X513250D01*
X508554Y300181D02*
X509068Y299667D01*
X509568Y304167D02*
X511432D01*
X511932Y303667D01*
X513750D01*
X540516Y308433D02*
X543984D01*
X651425Y289842D02*
X651650Y290067D01*
X648950Y287367D02*
X649175Y287592D01*
X559500Y219917D02*
X562000Y217417D01*
X569528Y218394D02*
X571102Y216819D01*
X490000Y215917D02*
Y217874D01*
X564701Y223118D02*
X564803D01*
X580500Y245216D02*
X580551Y245165D01*
X740252Y153173D02*
Y156165D01*
X746551Y153173D02*
Y155866D01*
X737843Y286917D02*
X739000D01*
X739598Y286319D01*
X736449Y283661D02*
Y285640D01*
X739598Y283661D02*
Y286319D01*
X730000Y283811D02*
X730150Y283661D01*
X471846Y184496D02*
X471925Y184417D01*
X482000Y167874D02*
X485957D01*
X514705Y272622D02*
X515410Y271917D01*
X517500D01*
X509932Y270667D02*
X510932Y269667D01*
X519432D01*
X499795Y278527D02*
X500077Y278246D01*
X515142Y276559D02*
X521000Y282417D01*
X513000Y282917D02*
X514000Y283917D01*
X508068Y298167D02*
X508568Y298667D01*
X509068Y303667D02*
X509568Y304167D01*
X499795Y298212D02*
X499840Y298167D01*
X513500Y305917D02*
X516000Y308417D01*
X723850Y283661D02*
X724000Y283512D01*
X717500Y283610D02*
X717551Y283661D01*
X698500Y283508D02*
X698654Y283661D01*
X689664Y167917D02*
X695000D01*
X690500Y172917D02*
X695000D01*
X749500Y160417D02*
X749701Y160216D01*
Y153173D02*
Y160216D01*
X759150Y153173D02*
Y157850D01*
X762209Y163209D02*
X765449Y159968D01*
Y153173D02*
Y159968D01*
X768500Y159917D02*
X768598Y159819D01*
Y153173D02*
Y159819D01*
X772500Y161417D02*
X774898Y159020D01*
Y153173D02*
Y159020D01*
X778000Y159417D02*
X778047Y159370D01*
Y153173D02*
Y159370D01*
X781500Y161417D02*
X784346Y158571D01*
Y153173D02*
Y158571D01*
X787496Y153173D02*
Y159413D01*
X620457Y181417D02*
X621500Y182461D01*
X612047Y203370D02*
Y204220D01*
Y203370D02*
X613500Y201917D01*
X599449Y201468D02*
X599500Y201417D01*
X599449Y201468D02*
Y204220D01*
X596299Y207370D02*
X597874Y205795D01*
X566378Y208945D02*
X567953Y210520D01*
X572566Y205684D02*
X574252Y207370D01*
X605748D02*
X607323Y205795D01*
X588425Y227842D02*
X590000Y229417D01*
X584500D02*
X586850D01*
X593150D02*
X595500D01*
X456984Y168435D02*
Y173571D01*
Y168435D02*
X458018D01*
X555500Y215417D02*
X558500D01*
X554000Y216917D02*
X555500Y215417D01*
X554000Y216917D02*
Y219709D01*
X566378Y218394D02*
X567953Y219968D01*
X566378Y215244D02*
X567953Y216819D01*
X471846Y198275D02*
X476358D01*
X479500Y201417D01*
X471846Y200244D02*
X474327D01*
X572677Y208945D02*
X574252Y210520D01*
X599451Y207368D02*
X600902Y205917D01*
X718205Y153173D02*
Y157212D01*
X721354Y153173D02*
Y156563D01*
X733953Y153173D02*
Y155964D01*
X737102Y153173D02*
Y155815D01*
X717551Y234468D02*
Y239173D01*
X711252Y233669D02*
Y239173D01*
X708102Y233020D02*
Y239173D01*
X743402Y197661D02*
Y203319D01*
X743500Y203417D01*
X706000Y230917D02*
X708102Y233020D01*
X707000Y229417D02*
X711252Y233669D01*
X479390Y196307D02*
X480250Y197167D01*
X471846Y196307D02*
X479390D01*
X723500Y201478D02*
Y205096D01*
X724500Y208917D02*
X724504Y208913D01*
X721354Y197661D02*
Y205272D01*
X721209Y205417D02*
X721354Y205272D01*
X718205Y197661D02*
Y206712D01*
X499795Y304118D02*
X500246Y303667D01*
X499795Y270653D02*
X499809Y270667D01*
X505750Y266167D02*
X514250D01*
X505201Y266716D02*
X505750Y266167D01*
X431110Y292307D02*
X448500Y274917D01*
X431642Y294275D02*
X452000Y273917D01*
X456500Y254960D02*
X456750Y255210D01*
X446500Y254960D02*
X447543D01*
X460921Y205264D02*
Y208996D01*
X460000Y209917D02*
X460921Y208996D01*
X462890Y205264D02*
Y211027D01*
X462500Y211417D02*
X462890Y211027D01*
X458953Y205264D02*
Y210964D01*
X462890Y169527D02*
Y173571D01*
X461932Y166667D02*
X462932D01*
X462890Y169527D02*
X463750Y168667D01*
X463250Y167667D02*
X463346D01*
X464858Y170059D02*
Y173571D01*
X462932Y166667D02*
X463182Y166417D01*
X463346Y167667D02*
X463596Y167417D01*
X463760Y168667D02*
X464010Y168417D01*
X463596Y167417D02*
X481500D01*
X464010Y168417D02*
X475000D01*
X464858Y170059D02*
X465500Y169417D01*
X474500D01*
X475000Y168417D02*
X477500Y170917D01*
Y177917D01*
X474500Y169417D02*
X476500Y171417D01*
Y178417D01*
X489000Y195917D02*
X490750Y194167D01*
X471846Y182527D02*
X476890D01*
X477500Y177917D02*
X479500Y179917D01*
X476890Y182527D02*
X477500Y181917D01*
X476500Y178417D02*
X479000Y180917D01*
X486500Y189417D02*
X488500Y191417D01*
X489000Y181917D02*
Y187321D01*
X491750Y190071D01*
X488000Y182917D02*
Y187735D01*
X490750Y190485D01*
X497000Y191917D02*
X499957D01*
X500000Y191874D02*
X504000D01*
X490750Y190485D02*
Y194167D01*
X724000Y276917D02*
Y283512D01*
Y275917D02*
Y276917D01*
X793795Y153173D02*
Y160122D01*
X730803Y153173D02*
Y156614D01*
X727654Y153173D02*
Y156764D01*
X724504Y153173D02*
Y156413D01*
X701000Y176917D02*
X721354Y156563D01*
X702000Y178917D02*
X724504Y156413D01*
X703000Y181417D02*
X727654Y156764D01*
X704000Y183417D02*
X730803Y156614D01*
X705000Y184917D02*
X733953Y155964D01*
X706000Y186917D02*
X737102Y155815D01*
X707000Y189417D02*
X740252Y156165D01*
X709000Y193417D02*
X746551Y155866D01*
X721500Y268917D02*
X722500D01*
X721000Y270917D02*
Y283362D01*
Y270917D02*
X722250Y269667D01*
X704953Y269964D02*
X706000Y268917D01*
X701803Y270614D02*
X702500Y269917D01*
X701803Y270614D02*
Y283661D01*
X689205Y271712D02*
Y283661D01*
X695504Y271421D02*
Y283661D01*
X695500Y271417D02*
X695504Y271421D01*
X692354Y268563D02*
Y283661D01*
Y268563D02*
X692500Y268417D01*
X698500Y273917D02*
X699500Y272917D01*
X698500Y273917D02*
Y283508D01*
X704953Y239173D02*
Y243550D01*
X708102Y239173D02*
Y243815D01*
X736449Y239173D02*
X736500Y239224D01*
X704953Y269964D02*
Y283661D01*
X708102Y272315D02*
Y283661D01*
Y272315D02*
X709500Y270917D01*
X717500Y267417D02*
Y283610D01*
X714402Y272016D02*
Y283661D01*
X711252Y239173D02*
Y245665D01*
X717551Y239173D02*
Y244866D01*
X720701Y239173D02*
Y243131D01*
X749047Y239173D02*
Y247370D01*
X522543Y195417D02*
X526500D01*
X564500Y222917D02*
X564701Y223118D01*
X561500Y222917D02*
X564500D01*
X612047Y254614D02*
X612197D01*
X566378Y212094D02*
X567953Y213669D01*
X588432Y208952D02*
X588476D01*
X588432Y212101D02*
X588476D01*
X585276Y224693D02*
X586850Y226268D01*
X548750Y261667D02*
X551500Y258917D01*
X541500Y239417D02*
X541750Y239167D01*
X552568Y264167D02*
X553068Y264667D01*
X554932D01*
X556500Y263099D01*
X552154Y265167D02*
X552654Y265667D01*
X555346D01*
X557500Y263513D01*
Y259917D02*
Y263513D01*
X556500Y260417D02*
Y263099D01*
X551500Y255417D02*
X556500Y260417D01*
X552500Y254917D02*
X557500Y259917D01*
X541500Y289417D02*
X548000Y282917D01*
Y276417D02*
Y282917D01*
Y276417D02*
X553500Y270917D01*
X549000Y276917D02*
X552750Y273167D01*
X550000Y277331D02*
X553164Y274167D01*
X551000Y277746D02*
X553578Y275167D01*
X551000Y277746D02*
Y287917D01*
X550000Y277331D02*
Y285417D01*
X549000Y276917D02*
Y283417D01*
X540575Y291842D02*
X549000Y283417D01*
X540425Y294992D02*
X550000Y285417D01*
X540776Y298142D02*
X551000Y287917D01*
X543810Y272693D02*
X546000Y270503D01*
X549750Y265167D02*
X552154D01*
X546000Y268917D02*
X549750Y265167D01*
X546000Y268917D02*
Y270503D01*
X548086Y265417D02*
X549336Y264167D01*
X535173Y265417D02*
X548086D01*
X549336Y264167D02*
X552568D01*
X553164Y274167D02*
X558135D01*
X553578Y275167D02*
X558549D01*
X555750Y273167D02*
X557500Y271417D01*
X552750Y273167D02*
X555750D01*
X553500Y270917D02*
X554500D01*
X552250Y269985D02*
Y270667D01*
X540776Y282142D02*
X552250Y270667D01*
X548164Y269753D02*
X548328Y269917D01*
X542188Y278992D02*
X550600Y270580D01*
Y269254D02*
Y270580D01*
X550500Y269155D02*
X550600Y269254D01*
X550500Y267417D02*
Y269155D01*
X557500Y271417D02*
X558500D01*
X615197Y226268D02*
X615346Y226417D01*
X555318Y266917D02*
X562000D01*
X552250Y269985D02*
X555318Y266917D01*
X589958Y254572D02*
X590000Y254614D01*
X567953Y235716D02*
X569327Y237090D01*
X706000Y267417D02*
Y268917D01*
X668500Y224917D02*
X668984Y224433D01*
X667500Y221417D02*
X668311Y222228D01*
X714402Y272016D02*
X715500Y270917D01*
X713000Y267417D02*
X717500D01*
X712500Y267917D02*
X713000Y267417D01*
X585283Y253032D02*
X585326D01*
X599449Y254614D02*
X599460D01*
X613615Y249839D02*
Y249883D01*
X608898Y238866D02*
Y238890D01*
X622500Y220917D02*
Y222917D01*
X656000Y304417D02*
X656318D01*
X708500Y307417D02*
X709776Y306142D01*
X562850Y253417D02*
X564803Y251464D01*
X558000Y253417D02*
X562850D01*
X579000Y246726D02*
X580551Y248277D01*
X570953Y251464D02*
X571102D01*
X570500Y251917D02*
X570953Y251464D01*
X568405Y251917D02*
X570500D01*
X566378Y253039D02*
X567953Y251464D01*
X568405Y251917D01*
X568000Y257417D02*
X568299D01*
X572799Y252917D02*
X574252Y251464D01*
X568000Y257417D02*
X569500Y255917D01*
X564500Y256917D02*
X566500Y258917D01*
X579088Y252928D02*
X579126D01*
X570500Y252917D02*
X572799D01*
X569500Y253917D02*
X570500Y252917D01*
X569500Y253917D02*
Y255917D01*
X625600Y231317D02*
X627000Y229917D01*
Y228417D02*
Y229917D01*
X621500Y223917D02*
X622500Y222917D01*
X621000Y223917D02*
X621500D01*
X605449Y219968D02*
X605748D01*
X593150Y241067D02*
Y245165D01*
X612047Y251464D02*
X613622Y253039D01*
X616350Y231304D02*
X617337Y230317D01*
X618600D02*
X619000Y229917D01*
X617337Y230317D02*
X618600D01*
X625000Y218417D02*
Y230503D01*
X622000Y290417D02*
Y301917D01*
X758496Y283661D02*
Y286921D01*
X707575Y293842D02*
X712000Y289417D01*
X604350Y232567D02*
X605748D01*
X601900Y235018D02*
X604350Y232567D01*
X607323Y234142D02*
X607346D01*
X605748Y235716D02*
X607323Y234142D01*
X620400Y235292D02*
Y237017D01*
X620250Y235142D02*
X620400Y235292D01*
X622000Y233417D02*
Y234917D01*
X618000Y217417D02*
X619000Y218417D01*
X612047Y210520D02*
X613622Y212094D01*
X628247Y270117D02*
X630447Y267917D01*
X718189Y256606D02*
X723689D01*
X717500Y255917D02*
X718189Y256606D01*
X588328Y260917D02*
X589500D01*
X587914Y259917D02*
X588000D01*
X588425Y246740D02*
X590000Y245165D01*
X584197Y254614D02*
X586500Y256917D01*
X569535Y249883D02*
X571102Y248315D01*
X569535Y249883D02*
X569578D01*
X580389Y254614D02*
X580551D01*
X563299Y270417D02*
X566000D01*
X566500Y258917D02*
Y265802D01*
X560250Y272052D02*
X566500Y265802D01*
X615197Y248315D02*
X616398D01*
X628671Y276746D02*
X632325Y273092D01*
X575702Y241715D02*
Y242616D01*
X574252Y244066D02*
Y245165D01*
Y244066D02*
X575702Y242616D01*
X577402Y241516D02*
Y245165D01*
X580500Y241417D02*
X581000Y241917D01*
X661000Y232917D02*
X664500Y229417D01*
X627650Y255804D02*
Y255955D01*
X615197Y238866D02*
X615646Y238417D01*
X615197Y232567D02*
X616350D01*
Y231304D02*
Y232567D01*
X619000Y238417D02*
X620400Y237017D01*
X626750Y258154D02*
Y260167D01*
X605748Y248315D02*
X607323Y249890D01*
X599449Y251464D02*
X601000Y249913D01*
X601900Y235018D02*
X605748Y238866D01*
X601000Y243567D02*
X602598Y245165D01*
X605453Y251464D02*
X605748D01*
X608500Y270205D02*
Y270417D01*
X602575Y251464D02*
X602598D01*
X601000Y253039D02*
X602575Y251464D01*
X596299Y248315D02*
Y248316D01*
X597800Y249817D01*
X580000Y268942D02*
X580068Y269010D01*
X581500Y259417D02*
X584000Y256917D01*
X588000Y259917D02*
X589958Y257959D01*
X583701Y254614D02*
X584197D01*
X583701Y254118D02*
Y254614D01*
X619750Y272142D02*
X621500Y273892D01*
X619750Y270987D02*
Y272142D01*
X602598Y254614D02*
Y255330D01*
X604235Y264167D02*
X607618D01*
X604649Y265167D02*
X608033D01*
X614886Y278917D02*
X617136Y281167D01*
X619250D01*
X618836Y282167D02*
X634000Y297331D01*
X616722Y282167D02*
X618836D01*
X618422Y283167D02*
X624500Y289246D01*
X616307Y283167D02*
X618422D01*
X614057Y280917D02*
X616307Y283167D01*
X614472Y279917D02*
X616722Y282167D01*
X619250Y281167D02*
X639788Y301705D01*
X617500Y277917D02*
X618500Y278917D01*
X619000Y267917D02*
X620500Y269417D01*
X602500Y259008D02*
Y260246D01*
X589500Y260917D02*
X593293Y257124D01*
X603500Y260180D02*
Y260660D01*
X608500Y257417D02*
X609342Y256575D01*
X610244D01*
X607500Y257417D02*
X608500D01*
X602500Y259008D02*
X603500Y258008D01*
X603000Y257417D02*
X603500D01*
X601500Y258392D02*
Y259831D01*
X605900Y271494D02*
X607423Y273017D01*
X610398Y278667D02*
X612648Y280917D01*
X610813Y277667D02*
X613063Y279917D01*
X611227Y276667D02*
X613477Y278917D01*
X611641Y275667D02*
X613891Y277917D01*
X743402Y153173D02*
Y156516D01*
X708000Y191917D02*
X743402Y156516D01*
X708000Y228917D02*
X714402Y235319D01*
Y239173D01*
X614224Y234142D02*
X616604D01*
X613500Y233417D02*
X614224Y234142D01*
X613500Y231917D02*
Y233417D01*
X612500Y230917D02*
X613500Y231917D01*
X610547Y230917D02*
X612500D01*
X608898Y232567D02*
X610547Y230917D01*
X610472Y234142D02*
X610500D01*
X608898Y235716D02*
X610472Y234142D01*
X610472Y240441D02*
X610500D01*
X608898Y242016D02*
X610472Y240441D01*
X714402Y239173D02*
Y246016D01*
X711914Y251917D02*
X720701Y243131D01*
X688000Y243917D02*
Y244417D01*
X619500Y246417D02*
X619900Y246817D01*
X619500Y246094D02*
Y246417D01*
X618571Y245165D02*
X619500Y246094D01*
X614000Y270917D02*
X614929D01*
X616000Y267917D02*
X619000D01*
X615500Y268417D02*
X616000Y267917D01*
X611250Y267667D02*
Y269753D01*
X612250Y268081D02*
Y270167D01*
X611250Y267667D02*
X613500Y265417D01*
X612250Y268081D02*
X613914Y266417D01*
X619447Y263667D02*
X630750D01*
X617500Y259917D02*
Y262417D01*
X608500Y268417D02*
X612500Y264417D01*
X628413Y254242D02*
X630312Y256142D01*
X627413Y255567D02*
X627650Y255804D01*
X625500Y256904D02*
X626750Y258154D01*
X625500Y253635D02*
Y256904D01*
X620000Y253978D02*
Y257417D01*
Y253978D02*
X620750Y253228D01*
X625600Y231317D02*
Y237017D01*
X621500Y239417D02*
Y244917D01*
Y239417D02*
X624000Y236917D01*
Y231503D02*
Y236917D01*
X621750Y235167D02*
Y237753D01*
X620000Y239503D02*
X621750Y237753D01*
X620000Y239503D02*
Y240417D01*
X617500Y259917D02*
X620000Y257417D01*
X619525Y266417D02*
X620275Y265667D01*
X613914Y266417D02*
X619525D01*
X619861Y264667D02*
X631750D01*
X619111Y265417D02*
X619861Y264667D01*
X613500Y265417D02*
X619111D01*
X618697Y264417D02*
X619447Y263667D01*
X612500Y264417D02*
X618697D01*
X623500Y254463D02*
Y256417D01*
X627413Y254133D02*
Y255567D01*
X628413Y253719D02*
Y254242D01*
X624500Y254049D02*
Y258917D01*
X619250Y252167D02*
X620000Y251417D01*
X639825Y273092D02*
X642750Y270167D01*
X643543Y270789D02*
X643586Y270831D01*
X643543Y270789D02*
Y270789D01*
Y270789D02*
X643750Y270581D01*
X644600Y271146D02*
Y271231D01*
Y271146D02*
X644750Y270996D01*
X658250Y255667D02*
X659516Y254401D01*
X646700Y285117D02*
X649900Y281917D01*
X648250Y298167D02*
X689250D01*
X647836Y299167D02*
X689750D01*
X647422Y300167D02*
X690750D01*
X647007Y301167D02*
X692250D01*
X693250Y302167D02*
X695276Y300142D01*
X692250Y301167D02*
X696425Y296992D01*
X690750Y300167D02*
X697075Y293842D01*
X689250Y298167D02*
X692354Y295063D01*
X597085Y271317D02*
X604235Y264167D01*
X596257Y269317D02*
X604500Y261074D01*
X595843Y268317D02*
X603500Y260660D01*
X595614Y265717D02*
X601500Y259831D01*
X595428Y267317D02*
X602500Y260246D01*
X597400Y272417D02*
X604649Y265167D01*
X606750Y270930D02*
X607837Y272017D01*
X606750Y269667D02*
Y270930D01*
X606000Y268917D02*
X606750Y269667D01*
X604000Y268917D02*
X606000D01*
X602000Y270917D02*
X604000Y268917D01*
X602000Y270917D02*
Y272417D01*
X625434Y269265D02*
X625500Y269331D01*
X622500Y278074D02*
X646593Y302167D01*
X625500Y276831D02*
X647836Y299167D01*
X624500Y277246D02*
X647422Y300167D01*
X623500Y277660D02*
X647007Y301167D01*
X621500Y278488D02*
X658929Y315917D01*
X621500Y273892D02*
Y278488D01*
X614929Y270917D02*
X620500Y276488D01*
Y278903D02*
X658515Y316917D01*
X620500Y276488D02*
Y278903D01*
X543500Y300917D02*
Y303417D01*
X616604Y234142D02*
X620500Y230246D01*
X621500Y228917D02*
Y231240D01*
X620400Y232340D02*
X621500Y231240D01*
X620400Y232340D02*
Y232542D01*
X620250Y232692D02*
X620400Y232542D01*
X620250Y232692D02*
Y235142D01*
X689500Y162917D02*
X695500D01*
X679500Y168417D02*
X680535Y167383D01*
X684500Y167917D02*
X689500Y162917D01*
X687500Y173917D02*
X691000Y170417D01*
X688500Y174917D02*
X690500Y172917D01*
X686500Y171081D02*
X689664Y167917D01*
X685500Y170667D02*
X691000Y165167D01*
X619000Y207417D02*
X625000Y201417D01*
X619000Y211417D02*
X622250Y214667D01*
X619000Y207417D02*
Y211417D01*
X620000Y215417D02*
X624000Y219417D01*
X622250Y214667D02*
Y215667D01*
X625000Y218417D01*
X621500Y219917D02*
X622500Y220917D01*
X619000Y218417D02*
Y229917D01*
X620500Y226942D02*
Y230246D01*
X624000Y219417D02*
Y223442D01*
X620500Y226942D02*
X624000Y223442D01*
X593150Y213669D02*
Y216819D01*
X578437Y256566D02*
X580389Y254614D01*
X458000Y167417D02*
X458500Y167917D01*
X460750Y167849D02*
X461932Y166667D01*
X460750Y167849D02*
Y168849D01*
X461750Y169167D02*
X463250Y167667D01*
X461750Y169167D02*
Y169263D01*
X460921Y170092D02*
X461750Y169263D01*
X460921Y170092D02*
Y173571D01*
X458953Y170646D02*
Y173571D01*
Y170646D02*
X460750Y168849D01*
X562453Y207370D02*
X564803D01*
X559000Y203917D02*
X562453Y207370D01*
X562500Y229417D02*
X564803D01*
X558293Y233624D02*
X562500Y229417D01*
X558293Y233624D02*
Y233996D01*
X552500Y250417D02*
Y254917D01*
Y250417D02*
X556500Y246417D01*
X562000Y243776D02*
Y245917D01*
X560000Y244605D02*
Y247331D01*
X561000Y244191D02*
Y246917D01*
X564628Y238691D02*
X564803Y238866D01*
X564628Y237592D02*
Y238691D01*
X562000Y237617D02*
Y239212D01*
X525000Y245917D02*
Y250917D01*
X527500Y253417D01*
X541000D01*
X593150Y210520D02*
Y210558D01*
X592000Y176961D02*
Y181917D01*
X574457Y160374D02*
Y163417D01*
X604064Y224540D02*
Y224545D01*
X764795Y283661D02*
Y286622D01*
X735843Y288917D02*
X737843Y286917D01*
X729929Y288917D02*
X735843D01*
X728429Y290417D02*
X729929Y288917D01*
X713460Y290417D02*
X728429D01*
X734172Y287917D02*
X736449Y285640D01*
X729515Y287917D02*
X734172D01*
X728015Y289417D02*
X729515Y287917D01*
X712000Y289417D02*
X728015D01*
X711000Y288417D02*
X727600D01*
X713874Y291417D02*
X742182D01*
X745898Y283661D02*
Y287702D01*
X730000Y283811D02*
Y286018D01*
X727600Y288417D02*
X730000Y286018D01*
X755346Y283661D02*
Y287071D01*
X745339Y293917D02*
X748000D01*
X744925Y292917D02*
X747586D01*
X744510Y291917D02*
X747172D01*
X744096Y290917D02*
X746757D01*
X749047Y288627D01*
Y283661D02*
Y288627D01*
X753500Y288917D02*
X755346Y287071D01*
X750172Y288917D02*
X753500D01*
X747172Y291917D02*
X750172Y288917D01*
X747586Y292917D02*
X750586Y289917D01*
X748000Y293917D02*
X751000Y290917D01*
X760500D02*
X764795Y286622D01*
X751000Y290917D02*
X760500D01*
X755500Y289917D02*
X758496Y286921D01*
X750586Y289917D02*
X755500D01*
X743010Y293417D02*
X744510Y291917D01*
X730500Y295417D02*
X743839D01*
X729000Y294417D02*
X743425D01*
X742182Y291417D02*
X745898Y287702D01*
X742596Y292417D02*
X744096Y290917D01*
X726500Y292417D02*
X742596D01*
X728000Y293417D02*
X743010D01*
X743425Y294417D02*
X744925Y292917D01*
X743839Y295417D02*
X745339Y293917D01*
X714000Y322417D02*
Y325417D01*
X730000Y323417D02*
Y325417D01*
Y323417D02*
X736500Y316917D01*
X750000Y325417D02*
X752500D01*
X600902Y205917D02*
X603250D01*
X604048Y203869D02*
X605263Y202655D01*
X604048Y203869D02*
Y205119D01*
X603250Y205917D02*
X604048Y205119D01*
X610000Y199417D02*
X612000D01*
X606763Y202655D02*
X610000Y199417D01*
X605263Y202655D02*
X606763D01*
X597874Y208917D02*
Y212094D01*
X596299Y213669D02*
X597874Y212094D01*
X604064Y221353D02*
X605449Y219968D01*
X608898Y226268D02*
X610472Y224693D01*
X639500Y189917D02*
X647500Y181917D01*
X714000Y322417D02*
X721982Y314435D01*
X752500Y325417D02*
X758000Y319917D01*
X734607Y314435D02*
X735590Y315417D01*
X721982Y314435D02*
X734607D01*
X766000Y307126D02*
X768000Y305126D01*
X736500Y316917D02*
X786000D01*
X763500Y309626D02*
Y310917D01*
X464858Y208775D02*
X465500Y209417D01*
X464858Y205264D02*
Y208775D01*
X464506Y213911D02*
X468250Y210167D01*
X461494Y213911D02*
X464506D01*
X465500Y209417D02*
X467586D01*
X468586Y208417D01*
X471500D01*
X468250Y210167D02*
X471250D01*
X474500Y211417D02*
X477500D01*
X471500Y208417D02*
X474500Y211417D01*
X478500Y212417D02*
X479750Y211167D01*
X473500Y212417D02*
X478500D01*
X471250Y210167D02*
X473500Y212417D01*
X491750Y190071D02*
Y197167D01*
X519543Y192417D02*
X522543Y195417D01*
X489000Y195917D02*
Y198417D01*
X495500Y204917D01*
X498000Y203417D02*
X507000D01*
X491750Y197167D02*
X498000Y203417D01*
X495500Y204917D02*
X501000D01*
X583701Y243216D02*
Y245165D01*
Y243216D02*
X584000Y242917D01*
X586850Y232567D02*
X588500Y230917D01*
X609000Y259917D02*
X610000Y258917D01*
X607071Y259917D02*
X609000D01*
X596671Y270317D02*
X607071Y259917D01*
X604750Y255612D02*
X605748Y254614D01*
X617697D02*
X618000Y254917D01*
X617275Y252167D02*
X619250D01*
X616572Y251464D02*
X617275Y252167D01*
X615197Y251464D02*
X616572D01*
X620086Y248417D02*
X622657D01*
X618527Y246859D02*
X620086Y248417D01*
X619672Y249417D02*
X622243D01*
X618922Y248667D02*
X619672Y249417D01*
X616750Y248667D02*
X618922D01*
X616398Y248315D02*
X616750Y248667D01*
X615197Y245165D02*
X618571D01*
X615646Y238417D02*
X619000D01*
X617000Y243417D02*
X620000Y240417D01*
X616598Y243417D02*
X617000D01*
X615197Y242016D02*
X616598Y243417D01*
X613740Y246859D02*
X618527D01*
X612047Y245165D02*
X613740Y246859D01*
X614500Y256917D02*
X616500D01*
X612197Y254614D02*
X614500Y256917D01*
X610465Y253032D02*
Y255383D01*
X608898Y251464D02*
X610465Y253032D01*
X602598Y248315D02*
X604173Y249890D01*
X613598Y240417D02*
X617000D01*
X612047Y238866D02*
X613598Y240417D01*
X594263Y264417D02*
X599460Y259220D01*
X601000Y246740D02*
Y249913D01*
X590000Y232417D02*
Y232567D01*
X607828Y254614D02*
X608898D01*
X588500Y230917D02*
X590000Y232417D01*
X582150Y242267D02*
Y246747D01*
Y242267D02*
X582500Y241917D01*
X601000Y240417D02*
X605748Y245165D01*
X594975Y240417D02*
X601000D01*
X593725Y239167D02*
X594975Y240417D01*
X592275Y239167D02*
X593725D01*
X592025Y239417D02*
X592275Y239167D01*
X597000Y231417D02*
X601500D01*
X593546Y234871D02*
X597000Y231417D01*
X598000Y237917D02*
X600000Y235917D01*
Y234417D02*
Y235917D01*
X603250Y231915D02*
X605748Y229417D01*
X603250Y231915D02*
Y232142D01*
X602125Y233268D02*
X603250Y232142D01*
X601150Y233268D02*
X602125D01*
X600000Y234417D02*
X601150Y233268D01*
X557911Y207006D02*
Y207829D01*
X557500Y209917D02*
X558500D01*
X480421Y194338D02*
X481842Y192917D01*
X483000D01*
X458000Y168417D02*
X458018Y168435D01*
X458000Y167417D02*
Y168417D01*
X721500Y268917D02*
X722250Y269667D01*
X733953Y197661D02*
Y204370D01*
X608898Y248315D02*
X610437Y249854D01*
X730803Y197661D02*
Y205917D01*
X679500Y168417D02*
X683500Y172417D01*
X737000Y203217D02*
X738000Y204217D01*
X737102Y197661D02*
Y203217D01*
X617500Y254614D02*
X617697D01*
X615197D02*
X617500D01*
X656000Y255917D02*
X656500Y255417D01*
X657000Y254917D01*
X608500Y269917D02*
Y270205D01*
Y268417D02*
Y269917D01*
Y270205D02*
X608650Y270055D01*
X657000Y258417D02*
Y258917D01*
Y257667D02*
Y258417D01*
X659516Y254401D02*
X661638D01*
X657000Y257667D02*
X657225D01*
X586303Y254614D02*
X587525D01*
X625434Y267984D02*
Y269265D01*
X580500Y241417D02*
Y245216D01*
X585283Y246733D02*
X587000Y245016D01*
X621047Y270870D02*
X622500Y272323D01*
X585283Y253032D02*
X586850Y251464D01*
X589958Y254572D02*
Y257959D01*
X593293Y254614D02*
Y257124D01*
X618340Y269577D02*
X619750Y270987D01*
X534362Y310402D02*
X544016D01*
X594724Y253039D02*
X594738Y253026D01*
X593150Y248315D02*
X594717Y249883D01*
X535150Y256693D02*
X537179D01*
X534362D02*
X535150D01*
X601000Y242917D02*
Y243567D01*
X603500Y257417D02*
Y258008D01*
X583300Y266817D02*
X584662Y268179D01*
X604000Y252917D02*
X605453Y251464D01*
X548500Y269917D02*
X549000D01*
X548328D02*
X548500D01*
X426205Y276559D02*
X432858D01*
X424205D02*
X426205D01*
X472850Y244433D02*
X473638D01*
X472035D02*
X472850D01*
X426205Y274590D02*
X430327D01*
X424205D02*
X426205D01*
X478362Y244433D02*
X479378Y243417D01*
X426205Y294275D02*
X431642D01*
X424205D02*
X426205D01*
Y278527D02*
X439890D01*
X424205D02*
X426205D01*
X615898Y236417D02*
X617500D01*
X663750Y233167D02*
Y235167D01*
X631638Y246693D02*
Y247480D01*
Y244555D02*
Y246693D01*
X632650Y249842D02*
X632850D01*
X629425D02*
X632650D01*
Y252917D02*
X632850D01*
X629025D02*
X632650D01*
X607302Y243569D02*
X607323Y243590D01*
X605748Y242016D02*
X607302Y243569D01*
X632650Y256142D02*
X632850D01*
X630312D02*
X632650D01*
X613492Y243461D02*
X613593Y243562D01*
X612047Y242016D02*
X613492Y243461D01*
X617650Y250567D02*
X618000D01*
X610404Y246672D02*
X610430Y246697D01*
X608898Y245165D02*
X610404Y246672D01*
X626500Y260417D02*
X626525Y260392D01*
X626750Y260167D01*
X579088Y252928D02*
X580551Y251464D01*
X672850Y262402D02*
X673638D01*
X668500D02*
X672850D01*
X569500Y249917D02*
X569517Y249900D01*
X569535Y249883D01*
X628500Y206961D02*
X634000D01*
X647500Y181917D02*
X654457D01*
X457500Y212417D02*
X458953Y210964D01*
X454293Y254667D02*
X456793D01*
X426205Y296244D02*
X432855D01*
X424205D02*
X426205D01*
X457000Y254960D02*
Y272099D01*
X456500Y254960D02*
X456793Y254667D01*
X448500Y255917D02*
Y274917D01*
Y254417D02*
Y255917D01*
X426205Y292307D02*
X431110D01*
X424205D02*
X426205D01*
X448500Y255917D02*
X451500Y258917D01*
X447543Y254960D02*
X448500Y255917D01*
X588432Y208952D02*
X590000Y210520D01*
X559500Y236917D02*
X561000Y235417D01*
X564803Y242016D02*
X564803D01*
X564598D02*
X564803D01*
X562000Y239212D02*
X564803Y242016D01*
X763500Y309626D02*
X766000Y307126D01*
X758000D02*
X766000D01*
X598000Y242917D02*
Y243716D01*
X686055Y235862D02*
X689750Y232167D01*
X603741Y224658D02*
X605350Y226268D01*
X603741Y224217D02*
Y224658D01*
X787146Y147063D02*
X788791Y145417D01*
X604064Y221353D02*
Y224540D01*
X603741Y224217D02*
X604064Y224540D01*
X602598Y207445D02*
X604173Y209020D01*
X590000Y224417D02*
Y226268D01*
Y223917D02*
Y224417D01*
X569528Y237291D02*
X571102Y235716D01*
X481500Y167417D02*
X482000Y167917D01*
X519984Y260433D02*
X529638D01*
X501795Y266716D02*
X505201D01*
X499795D02*
X501795D01*
X634500Y277417D02*
X635000Y276917D01*
X636825Y275092D01*
X501795Y264748D02*
X510169D01*
X499795D02*
X501795D01*
X528500Y256417D02*
X530500Y254417D01*
X524000Y297917D02*
X525500D01*
X517500D02*
X524000D01*
X501795Y300181D02*
X508554D01*
X499795D02*
X501795D01*
X519484Y294402D02*
X529638D01*
X499840Y298167D02*
X508068D01*
X521516Y292433D02*
X529638D01*
X501795Y296244D02*
X505327D01*
X499795D02*
X501795D01*
Y294275D02*
X506142D01*
X499795D02*
X501795D01*
X506142D02*
X508500Y291917D01*
X511000Y289417D01*
X523000Y282417D02*
X526000D01*
X521000D02*
X523000D01*
X501795Y276559D02*
X515142D01*
X499795D02*
X501795D01*
X679150Y262917D02*
X694500D01*
X727000Y256917D02*
X730500D01*
X524984Y278401D02*
X529638D01*
X501795Y274590D02*
X510173D01*
X499795D02*
X501795D01*
Y306087D02*
X507169D01*
X499795D02*
X501795D01*
X651425Y289842D02*
X652000Y289266D01*
X513484Y310402D02*
X529638D01*
X500246Y303667D02*
X509068D01*
X542500Y317417D02*
X552250Y307667D01*
X516000Y308417D02*
X529500D01*
X501795Y302149D02*
X510268D01*
X499795D02*
X501795D01*
X510500Y301417D02*
X511000D01*
X528500Y304417D02*
X530500Y302417D01*
X501795Y292307D02*
X504792D01*
X499795D02*
X501795D01*
X500077Y278246D02*
X509829D01*
X524516Y262402D02*
X529638D01*
X501795Y268685D02*
X507732D01*
X499795D02*
X501795D01*
Y272622D02*
X514705D01*
X499795D02*
X501795D01*
X527209Y273667D02*
X532459Y268417D01*
X542500D02*
X543000D01*
X532459D02*
X542500D01*
X499809Y270667D02*
X509932D01*
X637500Y244417D02*
X639463Y246380D01*
X688000Y244417D02*
X689205Y243212D01*
X639000Y256142D02*
Y260528D01*
X695504Y267421D02*
Y271421D01*
X546709Y248417D02*
X550709Y244417D01*
X545709Y247417D02*
Y249417D01*
Y241040D02*
Y247417D01*
X531150Y239417D02*
X541500D01*
X593150Y216819D02*
X605748Y229417D01*
X562197Y204220D02*
X564803D01*
X572670Y246690D02*
Y246733D01*
X595500Y242917D02*
Y244366D01*
X596299Y245165D01*
X571102D02*
X572670Y246733D01*
X503079Y290338D02*
X504579D01*
X501795Y280496D02*
X508421D01*
X501795Y286401D02*
X507000D01*
Y287917D01*
X504579Y290338D02*
X507000Y287917D01*
X605748Y223118D02*
X607323Y224693D01*
X610500Y202417D02*
Y205768D01*
X608898Y207370D02*
X610500Y205768D01*
X715055Y197661D02*
Y204362D01*
X752197Y239173D02*
Y244114D01*
X759000Y250917D01*
X460000Y212417D02*
X461494Y213911D01*
X460000Y209917D02*
Y212417D01*
X506000Y248917D02*
X507250Y247667D01*
X497925Y248917D02*
X506000D01*
X497150Y248142D02*
X497925Y248917D01*
X463932Y254667D02*
X465182Y255917D01*
X456793Y254667D02*
X463932D01*
X477605Y256917D02*
X482671Y251851D01*
X477191Y255917D02*
X481671Y251436D01*
X465182Y255917D02*
X477191D01*
X463000Y256917D02*
X477605D01*
X497709Y255417D02*
X501500D01*
X504500Y258417D01*
X493579Y280496D02*
X501795D01*
X486291Y273208D02*
X493579Y280496D01*
X486291Y255417D02*
Y273208D01*
X479150Y243842D02*
X479817D01*
X483000Y240659D01*
Y238917D02*
Y240659D01*
Y238917D02*
X488500Y233417D01*
X486724Y238693D02*
X490850D01*
X481671Y243746D02*
X486724Y238693D01*
X481671Y243746D02*
Y251436D01*
X482671Y248746D02*
Y251851D01*
Y248746D02*
X485010Y246407D01*
X488638Y244779D02*
X490638D01*
X487010Y246407D02*
X488638Y244779D01*
X485010Y246407D02*
X487010D01*
X487575Y241842D02*
X490850D01*
X486000Y243417D02*
X487575Y241842D01*
X487776Y248142D02*
X490850D01*
X486500Y249417D02*
X487776Y248142D01*
X479150Y237768D02*
Y240693D01*
X467000Y242417D02*
X468500Y240917D01*
X445500Y242417D02*
X467000D01*
X431500Y267553D02*
X435216Y263837D01*
X796945Y153173D02*
Y160362D01*
X798000Y161417D01*
X788791Y145417D02*
X792291Y148917D01*
X790646Y150563D02*
X792291Y148917D01*
X796945Y149917D02*
Y153173D01*
X795500Y149917D02*
X796945D01*
X794500Y148917D02*
X795500Y149917D01*
X792291Y148917D02*
X794500D01*
X607709Y295709D02*
X611500Y291917D01*
X584000Y213917D02*
Y215917D01*
X562453Y235417D02*
X564628Y237592D01*
X561000Y235417D02*
X562453D01*
X588743Y261917D02*
X594500D01*
X586414Y261417D02*
X587914Y259917D01*
X587243Y263417D02*
X588743Y261917D01*
X586828Y262417D02*
X588328Y260917D01*
X573500Y264155D02*
Y271246D01*
X574500Y268003D02*
Y270831D01*
X575500Y268417D02*
Y270417D01*
X588425Y249890D02*
X590000Y248315D01*
X582546Y234871D02*
X593546D01*
X583046Y235871D02*
X597500D01*
X588500Y237917D02*
X598000D01*
X588000Y237417D02*
X588500Y237917D01*
X583000Y237417D02*
X588000D01*
X589803Y242917D02*
X591450Y244565D01*
X587000Y242917D02*
X589803D01*
X609400Y273017D02*
X612250Y270167D01*
X607423Y273017D02*
X609400D01*
X608986Y272017D02*
X611250Y269753D01*
X607837Y272017D02*
X608986D01*
X610465Y255383D02*
X613258Y258176D01*
Y259941D01*
X608033Y265167D02*
X613258Y259941D01*
X610244Y256575D02*
X612000Y258331D01*
Y259786D01*
X607618Y264167D02*
X612000Y259786D01*
X605750Y256692D02*
X607828Y254614D01*
X605750Y256692D02*
Y259344D01*
X604500Y260594D02*
X605750Y259344D01*
X604500Y260594D02*
Y261074D01*
X604750Y255612D02*
Y258930D01*
X603500Y260180D02*
X604750Y258930D01*
X596299Y251464D02*
X597874Y253039D01*
X594500Y261917D02*
X597874Y258543D01*
X591450Y245867D02*
X592448Y246865D01*
X591450Y244565D02*
Y245867D01*
X585276Y249890D02*
X586850Y248315D01*
X587700Y254789D02*
X588125D01*
X587525Y254614D02*
X587700Y254789D01*
X573500Y271246D02*
X580922Y278667D01*
X574500Y270831D02*
X581336Y277667D01*
X575500Y270417D02*
X581750Y276667D01*
X580000Y272917D02*
X582750Y275667D01*
X585800Y266217D02*
Y266429D01*
X580000Y270528D02*
Y272917D01*
Y270528D02*
X580068Y270460D01*
Y269010D02*
Y270460D01*
X591211Y270317D02*
X596671D01*
X590100Y269317D02*
X596257D01*
X589000Y270417D02*
X590100Y269317D01*
X593000Y272417D02*
X597400D01*
X591837Y271317D02*
X597085D01*
X591750Y271405D02*
X591837Y271317D01*
X591750Y271405D02*
Y271556D01*
X586000Y260417D02*
X588958Y257459D01*
Y255623D02*
Y257459D01*
X588125Y254789D02*
X588958Y255623D01*
X583500Y239417D02*
X592025D01*
X581500Y239917D02*
X582500Y240917D01*
Y241917D01*
X574250Y263192D02*
X575275Y262167D01*
X574250Y263192D02*
Y263404D01*
X573500Y264155D02*
X574250Y263404D01*
X575275Y261142D02*
X577000Y259417D01*
X575275Y261142D02*
Y262167D01*
X580000Y267417D02*
Y268942D01*
X578318Y267099D02*
Y269735D01*
Y267099D02*
X578600Y266817D01*
X578615D01*
X578201Y265817D02*
X579812Y264206D01*
X578100Y265817D02*
X578201D01*
X575500Y268417D02*
X578100Y265817D01*
X578812Y263691D02*
Y263792D01*
X577787Y264817D02*
X578812Y263792D01*
X577686Y264817D02*
X577787D01*
X574500Y268003D02*
X577686Y264817D01*
X578615Y266817D02*
X580812Y264620D01*
Y264605D02*
Y264620D01*
X579812Y264105D02*
X581500Y262417D01*
X579812Y264105D02*
Y264206D01*
X578812Y263691D02*
X581086Y261417D01*
X577000Y262917D02*
X579500Y260417D01*
X577000Y259417D02*
X581500D01*
X597874Y253039D02*
Y258543D01*
X599460Y254614D02*
Y259220D01*
X601250Y258142D02*
X601500Y258392D01*
X601250Y256678D02*
Y258142D01*
Y256678D02*
X602598Y255330D01*
X597999Y246865D02*
X599449Y248315D01*
X592448Y246865D02*
X597999D01*
X566378Y237291D02*
X567953Y238866D01*
X556727Y239917D02*
X561000Y244191D01*
X557141Y238917D02*
X562000Y243776D01*
X557555Y237917D02*
X564803Y245165D01*
X581500Y256917D02*
X582016Y256401D01*
X585500Y265917D02*
X585800Y266217D01*
X585500Y265917D02*
X585700Y265717D01*
X595614D01*
X580000Y267417D02*
X583000Y264417D01*
X594263D01*
X580812Y264605D02*
X582000Y263417D01*
X587243D01*
X581500Y262417D02*
X586828D01*
X581086Y261417D02*
X586414D01*
X579500Y260417D02*
X586000D01*
X584500Y272917D02*
X585500Y271917D01*
X584500Y272917D02*
Y273417D01*
X588500Y270417D02*
X589000D01*
X592000Y273417D02*
X593000Y272417D01*
X591639Y271667D02*
X591750Y271556D01*
X591275Y271667D02*
X591639D01*
X582500Y270417D02*
X585834D01*
X590250Y272692D02*
X591275Y271667D01*
X590250Y272692D02*
Y273056D01*
X589389Y273917D02*
X590250Y273056D01*
X588000Y273917D02*
X589389D01*
X580922Y278667D02*
X610398D01*
X581336Y277667D02*
X610813D01*
X581750Y276667D02*
X611227D01*
X582750Y275667D02*
X611641D01*
X589361Y272167D02*
X591211Y270317D01*
X587775Y272167D02*
X589361D01*
X587525Y271917D02*
X587775Y272167D01*
X585500Y271917D02*
X587525D01*
X587934Y268317D02*
X595843D01*
X585834Y270417D02*
X587934Y268317D01*
X587387Y267317D02*
X595428D01*
X586525Y268179D02*
X587387Y267317D01*
X584662Y268179D02*
X586525D01*
X582016Y253149D02*
X583701Y251464D01*
X582016Y253149D02*
Y256401D01*
X582098Y249917D02*
X583701Y248315D01*
X579000Y249917D02*
X582098D01*
X581500Y238917D02*
X583000Y237417D01*
X581500Y238917D02*
Y239917D01*
X577402Y241516D02*
X583046Y235871D01*
X575702Y241715D02*
X582546Y234871D01*
X572989Y233791D02*
Y233830D01*
X574252Y232567D01*
X566453Y227917D02*
X567953Y229417D01*
X554372Y237917D02*
X558293Y233996D01*
X555786Y237917D02*
X557555D01*
X554786Y238917D02*
X555786Y237917D01*
X556200Y238917D02*
X557141D01*
X555200Y239917D02*
X556200Y238917D01*
X556614Y239917D02*
X556727D01*
X555614Y240917D02*
X556614Y239917D01*
X557312Y241917D02*
X560000Y244605D01*
X550000Y237917D02*
X554372D01*
X549586Y238917D02*
X554786D01*
X549172Y239917D02*
X555200D01*
X548757Y240917D02*
X555614D01*
X548343Y241917D02*
X557312D01*
X545500Y239074D02*
X548343Y241917D01*
X545500Y213635D02*
Y239074D01*
X543750Y211885D02*
X545500Y213635D01*
X546500Y238660D02*
X548757Y240917D01*
X546500Y213221D02*
Y238660D01*
X547500Y238246D02*
X549172Y239917D01*
X547500Y212806D02*
Y238246D01*
X548500Y237831D02*
X549586Y238917D01*
X548500Y212392D02*
Y237831D01*
X549500Y237417D02*
X550000Y237917D01*
X549500Y211978D02*
Y237417D01*
X548500Y210978D02*
X549500Y211978D01*
X548500Y209917D02*
Y210978D01*
X544750Y211471D02*
X546500Y213221D01*
X545750Y211056D02*
X547500Y212806D01*
X546750Y210642D02*
X548500Y212392D01*
X535449Y210917D02*
X541000D01*
X543500Y201917D02*
X546000D01*
X563752Y213669D02*
X564803D01*
X557911Y207829D02*
X563752Y213669D01*
X564803Y216220D02*
Y216819D01*
X558500Y209917D02*
X564803Y216220D01*
X574252Y223118D02*
X575952Y221418D01*
Y215417D02*
Y221418D01*
X566511Y199629D02*
X571102Y204220D01*
X543750Y207667D02*
Y211885D01*
X544750Y208364D02*
Y211471D01*
X545750Y208778D02*
Y211056D01*
X546750Y209192D02*
Y210642D01*
X557788Y199629D02*
X566511D01*
X553000Y204417D02*
X557788Y199629D01*
X553000Y204417D02*
Y210917D01*
X565150Y201417D02*
X567953Y204220D01*
X563000Y201417D02*
X565150D01*
X559000D02*
Y203917D01*
X572566Y202417D02*
Y205684D01*
X569500Y212067D02*
X571102Y213669D01*
X569500Y206262D02*
Y212067D01*
X537449Y215917D02*
X539000D01*
X539500Y205917D02*
X543500Y201917D01*
X537449Y205917D02*
X539500D01*
X479000Y209917D02*
X480500D01*
X477500Y211417D02*
X479000Y209917D01*
X480750Y211167D02*
X482000Y209917D01*
X479750Y211167D02*
X480750D01*
X514000Y231709D02*
X520165D01*
X529543Y229417D02*
X531150Y231024D01*
X531650Y232024D02*
Y238417D01*
X520165Y231709D02*
X522457Y229417D01*
X538000Y228874D02*
X541000Y225874D01*
Y217917D02*
Y225874D01*
X539000Y215917D02*
X541000Y217917D01*
X543500Y213417D02*
Y224417D01*
X541000Y210917D02*
X543500Y213417D01*
X538000Y235961D02*
X541957D01*
X543500Y234417D01*
Y228917D02*
Y234417D01*
X512500Y215917D02*
X516551D01*
X569500Y224665D02*
X571102Y226268D01*
X516551Y220917D02*
X520500Y224866D01*
X518000Y227917D02*
X520500Y225417D01*
X502000Y236417D02*
X504000D01*
X499000Y233417D02*
X502000Y236417D01*
X488500Y233417D02*
X499000D01*
X458000Y232961D02*
X463043D01*
X463500Y233417D01*
X572825Y221395D02*
X574252Y219968D01*
X442957Y225874D02*
X458000D01*
X495000Y207417D02*
X503750Y216167D01*
X483000Y207417D02*
X495000D01*
X480500Y209917D02*
X483000Y207417D01*
X498000Y206417D02*
X503000Y211417D01*
X480500Y206417D02*
X498000D01*
X474327Y200244D02*
X480500Y206417D01*
X562500Y219968D02*
X564803D01*
X509000Y203417D02*
X512728Y199689D01*
X506000Y222417D02*
X506500Y221917D01*
X511471Y216947D02*
Y223888D01*
X513500Y225917D01*
X511471Y216947D02*
X512500Y215917D01*
X513000Y210917D02*
X516551D01*
X505500Y220917D02*
X506500Y221917D01*
X505500Y217599D02*
Y220917D01*
Y217599D02*
X505750Y217349D01*
Y209667D02*
Y217349D01*
X501000Y204917D02*
X505750Y209667D01*
X507000Y216417D02*
X508000Y217417D01*
X507000Y203417D02*
Y216417D01*
X504000Y223874D02*
Y226417D01*
X498000Y217874D02*
X504000Y223874D01*
X509500Y214417D02*
Y226917D01*
Y214417D02*
X513000Y210917D01*
X507000Y229417D02*
X509500Y226917D01*
X509707Y228839D02*
Y229711D01*
Y228839D02*
X510628Y227917D01*
X518000D01*
X499500Y229417D02*
X501250Y231167D01*
X508250D02*
X509707Y229711D01*
X501250Y231167D02*
X508250D01*
X450000Y234961D02*
Y239917D01*
X444543Y243374D02*
X445500Y242417D01*
X443543Y233417D02*
Y262374D01*
X442080Y263837D02*
X443543Y262374D01*
X435216Y263837D02*
X442080D01*
X432858Y276559D02*
X444543Y264874D01*
Y243374D02*
Y264874D01*
X492000Y160417D02*
Y183917D01*
X490543Y158961D02*
X492000Y160417D01*
X482457Y158961D02*
X490543D01*
X475000Y166417D02*
X482457Y158961D01*
X463182Y166417D02*
X475000D01*
X795809Y294923D02*
X806000Y305114D01*
X795784Y294923D02*
X795809D01*
X793000Y292139D02*
X795784Y294923D01*
X793000Y288917D02*
Y292139D01*
X806000Y305114D02*
Y309417D01*
X497150Y241842D02*
X501425D01*
X502000Y242417D01*
X497150Y244992D02*
X500075D01*
X501500Y246417D01*
X507000Y203417D02*
X509000D01*
X541000Y242917D02*
X542000Y241917D01*
X528000Y242917D02*
X541000D01*
X525000Y245917D02*
X528000Y242917D01*
D29*
X502347Y142417D02*
X507346Y137417D01*
X360709Y130417D02*
X376000D01*
X379600Y134017D01*
Y158417D01*
X357709Y133417D02*
X360709Y130417D01*
X346291Y148731D02*
X355978Y158417D01*
X346291Y133417D02*
Y148731D01*
X355500Y184917D02*
Y190917D01*
Y191177D01*
X474000Y133862D02*
Y139917D01*
Y146417D02*
Y148472D01*
X629291Y222209D02*
Y223000D01*
X644000Y225709D02*
X644541Y225167D01*
X629291Y223000D02*
X632000Y225709D01*
X653500Y129917D02*
X663130Y139547D01*
X634000Y225709D02*
X644000D01*
X632000D02*
X634000D01*
D30*
X347500Y335417D02*
G03*
X335000Y322917I0J-12500D01*
G01*
Y137917D02*
G03*
X347500Y125417I12500J0D01*
G01*
X810000Y285417D02*
Y329417D01*
X347500Y335417D02*
X804000D01*
X810000Y329417D01*
X335000Y137917D02*
Y322917D01*
X347500Y125417D02*
X810000D01*
Y135417D02*
X820000Y145417D01*
Y275417D01*
X810000Y285417D02*
X820000Y275417D01*
X810000Y125417D02*
Y135417D01*
D31*
X367789Y139913D02*
D03*
X355978Y158417D02*
D03*
X379600D02*
D03*
D32*
X594000Y135417D02*
D03*
X714000Y325417D02*
D03*
X800000D02*
D03*
X750000Y135417D02*
D03*
X680000D02*
D03*
D33*
X604000D02*
D03*
X614000D02*
D03*
X704000Y325417D02*
D03*
X694000D02*
D03*
X684000D02*
D03*
X674000D02*
D03*
X664000D02*
D03*
X654000D02*
D03*
X644000D02*
D03*
X790000D02*
D03*
X780000D02*
D03*
X770000D02*
D03*
X760000D02*
D03*
X750000D02*
D03*
X740000D02*
D03*
X730000D02*
D03*
X760000Y135417D02*
D03*
X770000D02*
D03*
X780000D02*
D03*
X790000D02*
D03*
X800000D02*
D03*
X690000D02*
D03*
X700000D02*
D03*
X710000D02*
D03*
X720000D02*
D03*
X730000D02*
D03*
D34*
X412000Y279417D02*
D03*
Y271417D02*
D03*
Y263417D02*
D03*
X402000Y275417D02*
D03*
Y267417D02*
D03*
Y259417D02*
D03*
X376000Y236417D02*
D03*
Y274417D02*
D03*
X377500Y131917D02*
D03*
X545500Y325917D02*
D03*
X519500D02*
D03*
D35*
X376000Y220817D02*
D03*
Y290017D02*
D03*
D36*
X351000Y225817D02*
D03*
X341000D02*
D03*
X351000Y285017D02*
D03*
X341000D02*
D03*
D37*
X579811Y136559D02*
D03*
Y154276D02*
D03*
X556189Y136559D02*
D03*
Y154276D02*
D03*
D38*
X502500Y142000D02*
D03*
X510000Y188000D02*
D03*
X355500Y184917D02*
D03*
X512000Y133417D02*
D03*
X493000Y151417D02*
D03*
Y133417D02*
D03*
X512000Y151417D02*
D03*
X464500Y140417D02*
D03*
X435500Y129417D02*
D03*
X474000Y139917D02*
D03*
Y146417D02*
D03*
X515000Y161417D02*
D03*
X543500Y146417D02*
D03*
X531457Y179917D02*
D03*
X597500Y175417D02*
D03*
X571500Y157295D02*
D03*
X653500Y129917D02*
D03*
X787500Y246917D02*
D03*
X735500Y211917D02*
D03*
X684500Y202417D02*
D03*
X707500Y210417D02*
D03*
X790500Y206917D02*
D03*
X691500Y217417D02*
D03*
X789500Y218917D02*
D03*
X757500Y221417D02*
D03*
X762500Y232917D02*
D03*
X711000Y214417D02*
D03*
X708500Y217417D02*
D03*
X736500Y232917D02*
D03*
X720500D02*
D03*
X508500Y291917D02*
D03*
X511000Y286917D02*
D03*
X428000Y165417D02*
D03*
X729500Y218417D02*
D03*
X738500Y181917D02*
D03*
X747500Y203917D02*
D03*
X798000Y161417D02*
D03*
X790496Y162913D02*
D03*
X727000Y308417D02*
D03*
X626000Y134917D02*
D03*
X381500Y204917D02*
D03*
X427000Y209417D02*
D03*
X623500Y173917D02*
D03*
X787500Y281417D02*
D03*
X790500Y300417D02*
D03*
X789000Y291917D02*
D03*
X780500Y312917D02*
D03*
X790500Y285917D02*
D03*
X736000Y254417D02*
D03*
X701803Y230114D02*
D03*
X730000Y205917D02*
D03*
X706000Y267417D02*
D03*
X564500Y190417D02*
D03*
X565000Y184417D02*
D03*
X561000Y186417D02*
D03*
X561500Y182417D02*
D03*
X600500Y162417D02*
D03*
X596000D02*
D03*
X549000Y157417D02*
D03*
X539500Y167417D02*
D03*
X684500Y220417D02*
D03*
X519500Y148917D02*
D03*
X749500Y308417D02*
D03*
X431500Y257417D02*
D03*
X538000Y317417D02*
D03*
X539000Y301917D02*
D03*
X442000Y330917D02*
D03*
X433000Y332417D02*
D03*
X551500Y258917D02*
D03*
X731000Y250417D02*
D03*
X542500Y268417D02*
D03*
X617000Y290917D02*
D03*
X684809Y258226D02*
D03*
X691009D02*
D03*
X685000Y225417D02*
D03*
X698500Y223296D02*
D03*
X479000Y188417D02*
D03*
X483500D02*
D03*
X482500Y193917D02*
D03*
X483500Y184417D02*
D03*
X585000Y290417D02*
D03*
X504500Y258417D02*
D03*
X470500Y172917D02*
D03*
X755000Y146917D02*
D03*
X516500Y249417D02*
D03*
X528000Y249417D02*
D03*
X708244Y153173D02*
D03*
X658000Y283417D02*
D03*
X431750Y282167D02*
D03*
X401000Y190917D02*
D03*
X488043Y174960D02*
D03*
X683500Y229417D02*
D03*
X689500Y231917D02*
D03*
X653709Y206208D02*
D03*
X616000Y285417D02*
D03*
X503000Y211417D02*
D03*
X504000Y236417D02*
D03*
X497500Y235917D02*
D03*
X639500Y189917D02*
D03*
X625000Y191917D02*
D03*
X692354Y243772D02*
D03*
X548000Y256917D02*
D03*
X611500Y291917D02*
D03*
X479500Y237417D02*
D03*
X502000Y242417D02*
D03*
X695504Y227413D02*
D03*
X518000Y262417D02*
D03*
X540500Y286417D02*
D03*
X552000Y307417D02*
D03*
X556000Y308417D02*
D03*
X510500Y301917D02*
D03*
X513500Y305917D02*
D03*
X524000Y297917D02*
D03*
X543500Y303417D02*
D03*
X461000Y164417D02*
D03*
X470000Y212417D02*
D03*
X464500Y192917D02*
D03*
X484500Y209917D02*
D03*
X663000Y293417D02*
D03*
X660000Y207417D02*
D03*
X661500Y306417D02*
D03*
X656000Y304417D02*
D03*
X759500Y272917D02*
D03*
X736000Y276417D02*
D03*
X492000Y183917D02*
D03*
X517500Y271917D02*
D03*
X523000Y282417D02*
D03*
X514000Y283917D02*
D03*
X509500Y296417D02*
D03*
X520000Y301417D02*
D03*
X519000Y293917D02*
D03*
X768250Y187667D02*
D03*
X691000Y165167D02*
D03*
X680535Y167383D02*
D03*
X695500Y162917D02*
D03*
X695000Y167917D02*
D03*
X691000Y170417D02*
D03*
X695000Y172917D02*
D03*
X691000Y175917D02*
D03*
X694000Y178417D02*
D03*
X749500Y160417D02*
D03*
X756500Y160500D02*
D03*
X762209Y163209D02*
D03*
X768500Y159917D02*
D03*
X772500Y161417D02*
D03*
X787496Y159413D02*
D03*
X618500Y188917D02*
D03*
X620500Y169917D02*
D03*
X518500Y156917D02*
D03*
X572500Y173917D02*
D03*
X610500Y160917D02*
D03*
X633500Y142417D02*
D03*
X625709D02*
D03*
X648209Y159417D02*
D03*
X625709Y147917D02*
D03*
X653709Y159417D02*
D03*
X656500Y145709D02*
D03*
X663209Y166917D02*
D03*
X437500Y207917D02*
D03*
X363000Y211417D02*
D03*
X410500Y134417D02*
D03*
X488500Y170417D02*
D03*
X474500Y234417D02*
D03*
X479500Y201417D02*
D03*
X536291D02*
D03*
X669000Y165917D02*
D03*
X480250Y197167D02*
D03*
X726500Y203417D02*
D03*
X724500Y207917D02*
D03*
X721209Y205417D02*
D03*
X717500Y207417D02*
D03*
X519500Y276917D02*
D03*
X521000Y265917D02*
D03*
X524500Y271417D02*
D03*
X513500Y279417D02*
D03*
X452000Y273917D02*
D03*
X486000Y243417D02*
D03*
X439890Y278527D02*
D03*
X486500Y249417D02*
D03*
X435500Y266917D02*
D03*
X467500Y245917D02*
D03*
X463000Y256917D02*
D03*
X452500Y258917D02*
D03*
X462500Y211417D02*
D03*
X472346Y205264D02*
D03*
X489000Y195917D02*
D03*
X526500Y196917D02*
D03*
X488500Y191417D02*
D03*
X497000Y191917D02*
D03*
X497043Y198960D02*
D03*
X793795Y160122D02*
D03*
X778000Y159417D02*
D03*
X781500Y161417D02*
D03*
X639788Y301705D02*
D03*
X634000Y300917D02*
D03*
X722500Y268917D02*
D03*
X702500Y269917D02*
D03*
X725500Y272417D02*
D03*
X724000Y276917D02*
D03*
X692500Y268417D02*
D03*
X699500Y272917D02*
D03*
X695500Y271417D02*
D03*
X689500D02*
D03*
X685500Y268417D02*
D03*
X711500Y208917D02*
D03*
X625000Y205917D02*
D03*
X628500Y206917D02*
D03*
X723500Y246417D02*
D03*
X531000Y191917D02*
D03*
X543500Y258417D02*
D03*
X542000Y254417D02*
D03*
X554500Y270917D02*
D03*
X682500Y279917D02*
D03*
X711500Y277417D02*
D03*
X667500Y221417D02*
D03*
X629000Y221917D02*
D03*
X628500Y236417D02*
D03*
X805000Y201917D02*
D03*
X440791Y172209D02*
D03*
X453000Y181917D02*
D03*
X458500Y167917D02*
D03*
X501500Y246417D02*
D03*
X507000Y244917D02*
D03*
X801500Y304917D02*
D03*
X781500Y187417D02*
D03*
X763500Y311417D02*
D03*
X735000Y219417D02*
D03*
X743500Y203417D02*
D03*
X795000Y309917D02*
D03*
X793000Y288917D02*
D03*
X503500Y216417D02*
D03*
X474000Y174917D02*
D03*
X479500Y157917D02*
D03*
X355500Y201874D02*
D03*
X382500Y188791D02*
D03*
X520000Y164917D02*
D03*
X497500Y166917D02*
D03*
X553000Y194417D02*
D03*
X582000Y171917D02*
D03*
X433500Y311917D02*
D03*
X432000Y286417D02*
D03*
X463543Y247874D02*
D03*
X521000Y244417D02*
D03*
X508421Y280496D02*
D03*
X676500Y171417D02*
D03*
X605000Y175417D02*
D03*
X706500Y144917D02*
D03*
X715055Y204362D02*
D03*
X630500Y217417D02*
D03*
X642291Y206626D02*
D03*
X762299Y159000D02*
D03*
X793500Y139917D02*
D03*
X756000Y181417D02*
D03*
X774500Y187417D02*
D03*
X796945Y185417D02*
D03*
X790646Y186417D02*
D03*
X734000Y272417D02*
D03*
X687000Y291917D02*
D03*
X727000Y303917D02*
D03*
X751709Y222917D02*
D03*
X759500Y250917D02*
D03*
X759000Y277063D02*
D03*
X349500Y297417D02*
D03*
X434000Y174417D02*
D03*
X425000Y179917D02*
D03*
X431000Y177917D02*
D03*
X428500Y185917D02*
D03*
X446500Y190417D02*
D03*
X457500Y212217D02*
D03*
X447500Y217417D02*
D03*
X429000Y215917D02*
D03*
X508000Y310417D02*
D03*
X465000Y330417D02*
D03*
X469000Y328917D02*
D03*
X503000Y313417D02*
D03*
X469012Y320929D02*
D03*
X485000Y331417D02*
D03*
X483941Y326359D02*
D03*
X451500Y312417D02*
D03*
X434000Y240417D02*
D03*
X419000Y297917D02*
D03*
X411000Y315917D02*
D03*
X571000Y198917D02*
D03*
X481000Y213417D02*
D03*
X442957Y225874D02*
D03*
X463500Y233417D02*
D03*
X504000Y226417D02*
D03*
X506000Y222417D02*
D03*
X450000Y239917D02*
D03*
X341000Y297417D02*
D03*
X357000Y213917D02*
D03*
X342000D02*
D03*
X378000Y209917D02*
D03*
X414500Y170917D02*
D03*
X402000Y176417D02*
D03*
X392500Y179417D02*
D03*
X360000Y185417D02*
D03*
X793987Y298430D02*
D03*
X390500Y152417D02*
D03*
X466000Y323417D02*
D03*
D39*
X585300Y212117D02*
D03*
X575844Y212073D02*
D03*
X588300Y205917D02*
D03*
X599500Y201417D02*
D03*
X579050Y209017D02*
D03*
X591400Y208817D02*
D03*
X688000Y199417D02*
D03*
X601481Y196936D02*
D03*
X696500Y201417D02*
D03*
X693500Y204917D02*
D03*
Y200417D02*
D03*
X788000Y277417D02*
D03*
X734000Y203417D02*
D03*
X737182Y203217D02*
D03*
X693500Y183917D02*
D03*
X687500Y204917D02*
D03*
X642500Y253917D02*
D03*
Y248917D02*
D03*
X726000Y250417D02*
D03*
X728500Y254917D02*
D03*
X722000Y259417D02*
D03*
X722500Y264417D02*
D03*
X728500Y262917D02*
D03*
X733000Y260417D02*
D03*
X725000Y266417D02*
D03*
X617500Y254417D02*
D03*
X554000Y244417D02*
D03*
X682000Y269917D02*
D03*
X677500Y276917D02*
D03*
X671500D02*
D03*
X656500Y255417D02*
D03*
X657000Y263917D02*
D03*
Y258417D02*
D03*
X643500Y262417D02*
D03*
X639000Y264917D02*
D03*
X641000Y267917D02*
D03*
X639500Y270417D02*
D03*
X635000Y276917D02*
D03*
X628247Y270117D02*
D03*
X637000Y262417D02*
D03*
X657000Y247917D02*
D03*
X643000Y243417D02*
D03*
X637000Y259417D02*
D03*
X625850Y268417D02*
D03*
X661500Y260417D02*
D03*
X656500Y271417D02*
D03*
Y277417D02*
D03*
X677500Y248417D02*
D03*
X680500D02*
D03*
X680000Y243417D02*
D03*
X671000Y245917D02*
D03*
X664877Y241295D02*
D03*
X663000Y235167D02*
D03*
X629000Y249417D02*
D03*
X624500Y246917D02*
D03*
X633000Y258917D02*
D03*
X607323Y205795D02*
D03*
X558000Y253417D02*
D03*
X564500Y256917D02*
D03*
X569528Y218394D02*
D03*
X562500Y219417D02*
D03*
X730500Y257417D02*
D03*
X710313Y265816D02*
D03*
X591500Y230917D02*
D03*
X618000Y269917D02*
D03*
X548500D02*
D03*
X656500Y274417D02*
D03*
X644500Y272417D02*
D03*
X628671Y276746D02*
D03*
X637500Y244417D02*
D03*
X656500Y268417D02*
D03*
X566000Y270417D02*
D03*
X558500Y271417D02*
D03*
X550709Y244417D02*
D03*
X552000Y235917D02*
D03*
X579500Y220417D02*
D03*
X597874Y208917D02*
D03*
X601024Y208945D02*
D03*
X613622Y215244D02*
D03*
X588776Y209257D02*
D03*
X588626Y212256D02*
D03*
X578900Y205867D02*
D03*
X595500Y226417D02*
D03*
X585276Y224693D02*
D03*
X562000Y266917D02*
D03*
X674500Y248917D02*
D03*
X664500Y261417D02*
D03*
X668500Y262402D02*
D03*
X627500Y273417D02*
D03*
X639500Y279917D02*
D03*
X636500Y280417D02*
D03*
X642000Y281917D02*
D03*
X651650Y290067D02*
D03*
X649175Y287592D02*
D03*
X646500Y285917D02*
D03*
X645000Y283417D02*
D03*
X590000Y224417D02*
D03*
X664500Y238417D02*
D03*
X548500Y209917D02*
D03*
X613500Y201917D02*
D03*
X597874Y205795D02*
D03*
X594700Y212067D02*
D03*
X588425Y227842D02*
D03*
X566378Y218394D02*
D03*
Y215244D02*
D03*
X572500Y202417D02*
D03*
X569500Y205795D02*
D03*
X572677Y208945D02*
D03*
X697500Y181417D02*
D03*
X724500Y257417D02*
D03*
X557911Y207006D02*
D03*
X553000Y210917D02*
D03*
X566378Y212094D02*
D03*
Y208945D02*
D03*
X563000Y201417D02*
D03*
X554000Y262417D02*
D03*
X542000Y241917D02*
D03*
X550500Y267417D02*
D03*
X618000Y217417D02*
D03*
X620000Y215417D02*
D03*
X584500Y229417D02*
D03*
X669000Y227917D02*
D03*
X668500Y224917D02*
D03*
X664500Y229417D02*
D03*
X717500Y267417D02*
D03*
X715500Y270917D02*
D03*
X712500Y267917D02*
D03*
X595500Y229417D02*
D03*
X556500Y246417D02*
D03*
X566378Y253039D02*
D03*
X568000Y257417D02*
D03*
X627000Y228417D02*
D03*
X613622Y221543D02*
D03*
X601024Y212094D02*
D03*
X599000Y222417D02*
D03*
X610500Y224693D02*
D03*
X623000Y226917D02*
D03*
X622000Y290417D02*
D03*
X601500Y231417D02*
D03*
X607346Y234142D02*
D03*
X601900Y235018D02*
D03*
X604062Y208795D02*
D03*
X682000Y238917D02*
D03*
X593000Y240917D02*
D03*
X613600Y224693D02*
D03*
X572677Y237291D02*
D03*
X569500D02*
D03*
X621500Y271417D02*
D03*
X618500Y278917D02*
D03*
X626750Y260617D02*
D03*
X597500Y242917D02*
D03*
X614000Y270917D02*
D03*
X613615Y249917D02*
D03*
X584000Y256917D02*
D03*
X627650Y255955D02*
D03*
X610500Y234142D02*
D03*
X688000Y243917D02*
D03*
X660000Y244917D02*
D03*
X602000Y272417D02*
D03*
X605000Y271417D02*
D03*
X624500Y258917D02*
D03*
X631500Y243417D02*
D03*
X621000Y267417D02*
D03*
X615500Y268417D02*
D03*
X617500Y262417D02*
D03*
X616500Y256917D02*
D03*
X621000Y258917D02*
D03*
X620750Y253228D02*
D03*
X622000Y233417D02*
D03*
X625000Y240917D02*
D03*
X621500Y244917D02*
D03*
X617100Y224917D02*
D03*
X621500Y219917D02*
D03*
X620800Y224117D02*
D03*
X604064Y224545D02*
D03*
X605613Y200805D02*
D03*
X595000Y218417D02*
D03*
X589962Y190634D02*
D03*
X579000Y202417D02*
D03*
X577712Y200134D02*
D03*
X613622Y212094D02*
D03*
X585500Y198917D02*
D03*
X593150Y192917D02*
D03*
X787000Y317917D02*
D03*
X789500Y309417D02*
D03*
X588500Y230917D02*
D03*
X604173Y253039D02*
D03*
X610415Y249817D02*
D03*
X618000Y250417D02*
D03*
X617500Y236617D02*
D03*
X617000Y240417D02*
D03*
X613514Y243439D02*
D03*
X610400Y246676D02*
D03*
X613622Y253039D02*
D03*
X607323Y249890D02*
D03*
X610500Y240441D02*
D03*
X607346D02*
D03*
X597500Y235871D02*
D03*
X600500Y242917D02*
D03*
X607300Y243571D02*
D03*
X604173Y249890D02*
D03*
X562500Y216917D02*
D03*
X558500Y214917D02*
D03*
X559000Y201417D02*
D03*
X562500Y209917D02*
D03*
X557500D02*
D03*
X562197Y204220D02*
D03*
X572670Y246767D02*
D03*
X507000Y286401D02*
D03*
X610500Y202417D02*
D03*
X733000Y148417D02*
D03*
X595000Y242917D02*
D03*
X607346Y224693D02*
D03*
X562000Y237617D02*
D03*
X559500Y236917D02*
D03*
X579000Y246726D02*
D03*
X588425Y253039D02*
D03*
X587000Y242917D02*
D03*
X608500Y269917D02*
D03*
X610000Y258917D02*
D03*
X607500Y257417D02*
D03*
X603000D02*
D03*
X588425Y246740D02*
D03*
Y249890D02*
D03*
X578318Y269735D02*
D03*
X582500Y270417D02*
D03*
X586500Y256917D02*
D03*
X580500Y241417D02*
D03*
X577000Y262917D02*
D03*
X579000Y249890D02*
D03*
X594738Y253039D02*
D03*
X597800Y249817D02*
D03*
X601000Y253039D02*
D03*
Y246740D02*
D03*
X594400Y249609D02*
D03*
X585276Y249890D02*
D03*
X575827Y246740D02*
D03*
X572677Y249890D02*
D03*
X569500Y249883D02*
D03*
X566378Y237291D02*
D03*
X584500Y273417D02*
D03*
X583200Y267417D02*
D03*
X592000Y273417D02*
D03*
X588000Y273917D02*
D03*
X588500Y270417D02*
D03*
X585800Y266429D02*
D03*
X581500Y256917D02*
D03*
X578500D02*
D03*
X579126Y252928D02*
D03*
X585500Y252817D02*
D03*
X582150Y246747D02*
D03*
X585276Y246726D02*
D03*
X584000Y242917D02*
D03*
X583500Y239417D02*
D03*
X572989Y233791D02*
D03*
X536000Y224417D02*
D03*
X569500Y224693D02*
D03*
X572803Y221374D02*
D03*
X566453Y227917D02*
D03*
X561500Y222917D02*
D03*
X543500Y224417D02*
D03*
X546000Y201917D02*
D03*
X576000Y215417D02*
D03*
X507500Y217417D02*
D03*
X543500Y228917D02*
D03*
X513500Y225917D02*
D03*
X520500Y225417D02*
D03*
X499500Y229417D02*
D03*
X494500Y230917D02*
D03*
X507000Y229417D02*
D03*
D40*
X397000Y135417D02*
D03*
X810000Y265417D02*
D03*
Y155417D02*
D03*
X610000Y325417D02*
D03*
X397000D02*
D03*
M02*
