M48
;Layer_Color=9474304
;FILE_FORMAT=2:5
INCH,LZ
;TYPE=PLATED
T1F00S00C0.01000
T2F00S00C0.01600
T3F00S00C0.03500
T4F00S00C0.03543
T5F00S00C0.05000
T6F00S00C0.06200
T7F00S00C0.12500
T8F00S00C0.12800
%
T01
X0173Y01175
X01705Y0126
X030835Y0145351
X0310825Y0147825
X03135Y01495
X0315Y0152
X0318Y01535
X03205Y01555
X03235Y0155
X0338Y0145
X0453Y0149016
X04115Y01655
X04095Y0168
X0406Y0173
X03955Y01745
Y01785
X0392Y0178
X0393622Y0182378
X03905Y0185535
X0387323Y0185528
X038733Y018865
X0384173Y0188677
X0381Y0188691
X0374724Y0188691
Y0185528
X0377867
X0380874Y018249
X03785Y01785
X0376
X03735
X03745Y01826
X0371575Y0182378
Y0185528
Y0188677
X0373Y01925
X03775Y0192
X03795Y0194
X03765Y0196
X03755Y0206
X0374724Y0210724
X037Y0211
X0371575Y0207575
X03715Y02045
X037Y0201
X03655Y02015
X03645Y0206
Y0209
X0361Y0213
X0355936Y0210872
X0352654Y0210724
X03495
X03464
X0346378Y0213874
Y0220173
Y0223323
X0342Y0218
X034Y022
X03385Y02155
X03392Y02113
X03429Y02105
X0337Y02085
X0333Y0207
X0338Y0202
X03425Y01988
X0343Y0195
X0346486Y0191978
X03495Y0194976
X0352654
X03527Y0191847
X03496Y0188742
X0349585Y01856
X0352677Y0185528
X0355827
Y0182378
X0359
X0365262
X03656Y0185809
X03622Y01856
X0359Y0188677
X03595Y01925
X03625
X0365
X0367Y01945
X03585Y0197
X03581Y02004
X03585Y0204
X0352654Y0201276
X03495
X0346385Y01855
X0346378Y0182378
X03425Y0181
X03435Y01785
X03425Y0173
X0339Y01765
X03355
X033325Y01748
X033235Y0179463
X0331Y0186
X03355Y01885
X03385Y01905
X0335Y01945
X03285Y0192
X03225Y0191
X0317Y0192
X03175Y01865
Y01815
X03165Y0173
X0323
Y0176
X0327Y01765
X0321Y01705
X0319Y01675
X03205Y0165
X03155Y0163
X0325Y01585
X0331329Y0158671
X03325Y0162
X0331753Y01653
X033415Y0167
X0339Y0168
X03385Y0164
X0342Y01655
X03445Y0167
X0346Y01645
X03515Y01655
X0355Y0164
X0358Y0163
X0368Y0162
X0372Y01615
X03755Y0162
X03775Y0165
X03768Y0168
X03742Y0168988
X03715Y0165
X0381682Y0165682
X0383Y01725
X0388
X0394Y0165
X0398Y01685
X04015Y0164
X0402Y0182
X04035Y0189
X0406Y0191
X0409291
X0406Y02005
X04005Y02
X0398Y01978
X0393622Y0198126
Y0201276
X03905Y01985
X0387323Y0198126
Y0201276
X0390472Y0217024
X0393622
Y0220173
Y0223323
X0390472
X0387323Y0226472
Y0229622
X0393622
Y0226472
X03975Y0228047
X0397803Y0231197
X0402088Y0228412
X03975Y02185
X0398Y0215
X03985Y02115
X03805Y0216
X0371Y02195
X0371374Y0223161
X0371224Y022616
X0368387Y02265
X0368387Y0229622
X0362126Y0229622
Y02265
X0358976Y0226472
Y0223323
X0355938Y0226622
X0352677Y0229622
X03495Y0233
X03465Y02335
X03535Y02355
X03605Y0234
X0359Y024
X0368Y0241
X0370038Y0244783
X0369288Y025
X0372288Y0236784
X0372788Y0233784
X0374724Y0229622
Y0226472
X0379288Y0233784
X0382288Y0235283
X03653Y022335
X0365Y0217
X0357Y0178
X03525
X035Y01765
X033925Y0182189
X0342Y0185
X03415Y01565
X03035Y0158
Y0161
Y0164
Y0167
X0303Y01715
Y0177
X03035Y018
X0303Y01875
X03Y01905
X0295123Y0194123
X02955Y0197
X0297Y020025
X02955Y0206
X0291Y02075
X02915Y02105
X0289Y01895
X02855Y01865
X02825Y0187
X02795
X028Y0192
X0278Y01965
X0272Y01915
X0278Y01655
X02825Y01585
X02885
X02915Y0173016
X02955Y0174
X02985Y0175
X0249687Y0169601
X02475Y01675
X02425Y0168
X02445Y01645
X02375Y0171
X0235Y0169
X02315Y01725
X0227Y0175
X02295Y0178
X02315Y01805
X02355Y0178
X0238Y0176
X0234Y0185
X0226Y0232
X0222818Y02322
X02625Y02345
X0266Y0234
X02635Y02305
X02755Y02325
X0272Y0236
X02665Y02515
X02625Y0254
X0227Y0287
X01705Y01585
X01665
T02
X01585Y01305
X0165Y01255
X0166Y0138
X01695Y0135
X0171Y01435
X0167Y01465
X01695Y01495
X01685Y0154
X01795Y01225
X01965Y0124
X02105Y0127
X0233
Y01315
X0273Y01435
X02775Y01555
X0302Y0152
X0297Y0142
X02985Y0129
X0304Y0131
X0320212Y0133712
X0326Y01345
X0343Y01425
X0344Y015
X0352291Y0141709
X03755Y0143
X0404Y0127
X0408Y0128
X04165Y0132
X0421Y01335
X0422Y0118
X04195Y0149
X0437Y0153
X0446Y01515
X04465Y0156
X0451579Y0154921
X0449Y01485
X04515Y01435
X04505Y0139
X04495Y01335
X04465Y01295
X044Y0134
X0436Y01375
X0441Y01415
X0458Y0118
X04835
X0528Y0149
X052825Y015325
X052011Y015689
X05245Y01685
X0528Y0179
Y01875
X05255Y0198
Y02025
X05425Y02015
X0567Y01965
X0576074Y0194865
X06015Y01945
X05985Y02025
X0597791Y0211209
X0602Y0219
X0598709Y0223791
X0614Y0222
X06145Y0216
X0614Y02105
Y02015
X06135Y0196
X0579791Y0224791
X0565Y02145
X0558917Y0241583
X05715Y02475
X05965Y0251
X0552Y0263
X05285Y02595
X0529Y0253
X05255Y025
X05345Y02485
X05325Y0243
X05315Y02245
X05225Y02275
X05125Y0218
X05025Y02232
X04975Y0224
X04935
X0488Y0223
X04845Y02265
X0487654Y0230154
X04805Y023
Y0234
X047975Y023825
X04775Y02415
X04765Y0247
Y0251
X0481Y0247
X04715Y0244
X0471Y02395
X04755Y02265
X048Y0223
X04855Y0201
X0477Y01975
X0474Y019
X04715Y01815
X0497Y01785
X0496457Y0187543
X04925Y01895
X0495209Y0196291
X05075Y01765
X0508Y01615
X05065Y027
X05015Y02675
X0498Y0271
X04895Y02625
X0486Y02605
X0471957Y0260457
X04715Y027
Y02875
X04855Y028
X05105Y02805
X05185Y02625
X0543Y02915
X04655Y0268
X0468Y02515
X0463Y02435
X0462957Y0236457
X04685Y0231
X0456Y0218
X0449Y02175
X0442
X04415Y0223
X0436Y02205
X0433Y0218
X043Y0214
X0424Y022
X0417Y02255
X04125Y02265
X04075
X0402Y0225
Y022
X0407Y0241
X03955Y0245
X0395Y0251
X03985Y0253
X0399Y0249
X0389Y02365
X03875Y02615
X0378Y02635
X03615Y02655
X0358Y0259
X0343Y0264
X03365Y02615
X0335Y02435
X03415Y02465
X03205Y02455
X0317709Y0228791
X03315Y02285
X0335Y02295
X03295Y0218
X0331Y02135
X03315Y0199
X0417Y0194
X0418Y0181
X04165Y0177
X0412Y01785
X04085Y01765
X04055Y01645
X04175Y0167
X04355Y0164
X04425Y01635
X04405Y01585
X0439Y01695
X0442Y0173
X045Y01765
X04575Y0177
X04585Y0188
X0458Y0193
X0453Y01905
X0456Y0199
X04625Y01995
X04465Y0199
X0439Y0191
X0432Y0186
X0432Y0234
X04335Y024
X04335Y0245
X0447543Y0245957
X04445Y02705
X0442Y02735
X04415Y02785
X0441Y0285
X04365Y03055
X04165Y0289
X0411Y0278
X04165Y02675
X04225Y0266
X04235Y02325
X0456043Y0210457
X03635Y0275
X03495Y02745
X0334291Y02875
Y0293
X0337291Y0297
X0353291Y0300709
X03035Y0289709
X0306291Y0276
X0311791
X0296791Y02685
X0291Y02695
X0279466Y0268035
X02835Y0264
X0269Y0265
Y027025
X02645Y02725
X0265Y02675
Y02625
X0266Y0257
X0269Y02595
X0251756Y0282244
X02535Y02905
X0205Y02885
X01975Y0288
X0192Y029
X01915Y02755
X01875Y0274
X0182Y0276
X01785Y0274
X0172504Y0276004
X0169504Y0272504
X0166205Y0275295
X0161004Y0276504
X0165Y0296
X0163055Y025
X0169354Y0249
X01785Y0248
X01855
X019175Y024775
X0204Y0254
X02215Y02535
X02165Y0232
X02125Y02315
X023Y02295
X02335Y0232
X0238791Y023
X02415Y02265
X02355
X0244945Y0231055
X02485Y02255
X0248Y0221
X02465Y0217
X02305
X02265Y0214
X0228Y0206
X0231Y02025
X02365Y0189
X0229Y0185
X0224Y0181
X0226Y0163
X0224Y0159
X0236Y01585
X02345Y0163
X02375Y01665
X0254Y0168
X02575Y01655
X02605Y01625
X02645Y0164
X02675Y0167
X02705Y0164
X02745Y0167
X0275191Y0177191
X0268991
X0267646Y0191646
X02705Y02035
X02765Y0206
X0275Y021
X02755Y0215
X0264496Y0208004
X0258197Y0205303
X0259379Y0212121
X02925Y0214
X03Y0228
X0306291Y0229209
X02005Y0207
Y02025
Y01845
Y01625
X01995Y0158
X0171Y01675
X0173Y0171
X01715Y01885
X0165Y01865
X01625Y0194
X01655Y0201
Y02125
X0162Y02105
Y0218
X01675Y0221
X01725Y02185
X0197Y0273
X0201Y0275
X02105
X02485Y0158
X0155Y02335
T03
X0548Y0132
Y014
Y0148
X0558Y0144
Y0136
Y0152
X04805Y0298
X0458
X0398795Y0298858
Y0281142
X0373205
Y0298858
T04
X016Y011
X017
X018
X019
X02
X021
X022
X023
X0246
X0256
X0266
X0276
X0286
X0296
X0306
X0316
X028Y03
X027
X026
X025
X024
X023
X021
X02
X019
X018
X017
X016
T05
X0609Y01264
X0619
Y01856
X0609
X0604022Y0277
X05804
X0592211Y0295504
T06
X0584Y01214
Y01906
T07
X035Y011
X0563
Y03
X015Y028
Y017
T08
X0584Y0137
Y0175
M30
