M48
;Layer_Color=9474304
;FILE_FORMAT=2:5
INCH,LZ
;TYPE=PLATED
T1F00S00C0.00600
T2F00S00C0.01600
T3F00S00C0.02000
T4F00S00C0.03500
T5F00S00C0.03543
T6F00S00C0.03937
T7F00S00C0.05000
T8F00S00C0.06200
T9F00S00C0.07874
T10F00S00C0.12800
;TYPE=NON_PLATED
T11F00S00C0.11024
%
T01
X030835Y0145351
X0310825Y0147825
X03133Y01503
X0315775Y0152775
X0318Y01545
X0333Y01475
X033Y016
X03315Y01625
X0332284Y0165216
X0334Y01675
X0338166Y0165334
X0341Y01665
X03435Y01685
X03455Y017
X0339328Y01695
X03385Y0177
X03355Y017725
X03335Y0175
X033235Y0179613
X03325Y01845
X03375Y0186
X03385Y01895
X03425Y01885
Y0185
X0346385Y0185578
X0346378Y0182378
X0349578Y0182385
X0349585Y0185542
X0352677Y0185528
X0352778Y01825
X0355827Y0182378
Y0185528
X0358976Y0188677
X0359Y01925
Y01955
X03565Y0199
X0357Y0202
X03585Y0204
X03645Y0206
X0365276Y0201276
X037Y0201
X0374724Y0201276
X03795Y0201
X03805Y02035
X03755Y0206
X0374724Y0210724
X037Y0211
X0371575Y0207575
X0365276Y0210724
X0361Y0213
X03595Y0217
X0363701Y0217201
X0366Y02185
X03695Y02195
X03745Y0219249
X0374724Y0223323
Y0226472
Y0229622
X0368382
X0365276
Y0226472
X0362126
Y0229622
X0358976
Y0226472
X0355827
X0352677Y0229622
X0349528
Y0223323
X0346378Y0220173
Y0213874
X03464Y0210724
X03425Y02105
X0339Y02115
X0337Y0215
X0339Y0218
X0339073Y0220214
X03375Y02075
X0333Y0207
X0338Y0201
X0342Y0203
X03425Y01985
X0346587Y0198378
X0349528Y0198126
X0352677
Y0201276
X0349528
X0346637Y0201578
X0346536Y0195178
X0346486Y0191978
X0349599Y0191942
X0352654Y0191847
X0352654Y0194976
X0349549Y0188742
X0346435Y0188778
X0348Y01785
X03515Y0178
X0356
X03605Y01785
X0359027Y0182385
X0362126Y0182378
X0365262Y0182392
X03656Y0185809
X0362133Y0185578
X0362Y01925
X03645
X0367Y01945
X0371575Y0188677
X0374667Y0188691
X0374724Y0185528
X0377867
X0377874Y0182378
X0381024
X0381017Y0185578
X0384173Y0188677
X038733Y0188728
X0387323Y0185528
X0390422Y0185535
X0393622Y0185528
Y0182378
X03935Y01785
X03955Y01745
X0398Y01685
X0393Y0167
X04015Y0164
X0411Y01655
X04095Y0168
X03985Y0184
X04001Y01919
X0402413Y01934
X0406Y0199
X0393622Y0198126
X0390472
X0387323
Y0201276
X0393622
X0390465Y0194926
X0383Y01965
X03795Y0192
X0377867Y0188728
X0371575Y0185528
Y0182378
X0374674Y0182385
X03755Y0179
X0378346Y01788
X03767Y01686
X0377Y01664
X03745Y0164
X0371Y0165
X0372Y01615
X0368Y0162
X0358Y0163
X0355Y0164
X03515Y0165
X0353Y0175
X03435Y01785
X0342Y01805
X03265Y0176
X0323
Y0173
X0321Y01705
X0319Y01675
X03205Y0165
X03155Y0163
X032Y01565
X0323
X03255Y0158
X0343Y01575
X03175Y0173
X03205Y01815
X03185Y0186
X0321638Y0189862
X0317Y01915
X03285Y0191
X0334Y01925
X0352677Y0210724
Y0213874
X0356259Y02112
X0358976Y0223323
X0365276
X0371524Y0223316
Y0226465
X038Y02195
X0383
X038075Y021625
X0390472Y021698
X0393622Y0217024
Y0220173
Y0223323
Y0226472
Y0229622
X0397803Y0231197
X0398Y0228
X0402088Y0228412
X0398Y0218
X0396932Y0215957
X03985Y02125
X0390472Y0223323
X0387323Y0226472
Y0229622
X03605Y0234
X03555Y02335
X03535Y02355
X03465Y02335
X0387323Y0182378
X03865Y0174
X0384Y01715
X0381682Y0165682
X03745Y01695
X0393622Y0188677
X03015Y0187
X0299Y01885
X0292Y0189
X02935Y01925
X02955Y0197
X0296Y02035
X0295Y02075
X0291
X02915Y02105
X0290164Y0185164
X02855Y0185
X02825
X02795
X0283638Y01665
X02915Y0173016
X0297Y01735
X02995Y0175
X0303Y01765
X03045Y01788
X0303663Y0171163
X03015Y01685
X0302Y0165
X03035Y01625
X02505Y0169
X02475Y01675
X02425Y0168
X02445Y01645
T02
X01955Y011
X0209Y0115291
X0211209Y0135709
X0208154Y0141654
X0204654Y0146346
X02185Y01465
X0234291Y0135709
X02365Y0127
X0245Y0144
X025Y01445
X0273Y01435
X02775Y01555
X0302Y0152
X03035Y0143
X0297Y0142
X02985Y0129
X0304Y0131
X03095Y0126
X02925Y0106
X0286
X01855Y0133
X0181
X01785Y01365
X01795Y0141
X01835Y0142
X0171Y01435
X01695Y01495
X01675Y0154
X03175Y0131
X03225Y01325
X0337Y0145
X03385Y0151
X0352291Y0141709
X0373Y0129
X0404Y0127
X04095Y0126
X04165Y0132
X04215Y0134
X04345Y0136
X044Y0134
X0446Y0138
X04505Y0139
X04495Y01335
X04465Y01295
X0453Y01435
Y01485
X0449
X0446Y01515
X04465Y0156
X0451579Y0154921
X04345Y0152
X0441Y0145
X04215Y0151
X04245Y01195
X0458Y0118
X04835
X0546Y0146
X0546484Y0150984
X0672Y0242
X05965Y0251
X05705Y0252
X0558917Y0241583
X05325Y0243
X0532Y02205
X05225Y02275
X05125Y0218
X05025Y0223
X04975Y0224
X04935
X0488Y0223
X04845Y02265
X0487654Y0230154
X04805Y023
Y0234
X047975Y023825
X04775Y02415
X04765Y0247
Y0251
X0481Y0247
X04715Y0244
X0471Y02395
X04755Y02265
X048Y0223
X04775Y0196
X0473Y0189
X0491138Y0187811
X0498957Y0187543
X04995Y01785
X0511Y01765
X0508Y01615
X052011Y015689
X05265Y01685
X0528291Y0190209
X0539709Y0190291
X0553543Y0169457
X0579791Y0221291
X0598709Y0223791
X04995Y02065
X0502Y0268
X0507Y027
X0498Y0271
X04895Y02625
X0486Y02605
X0471957Y0260457
X04715Y027
X04855Y028
X0483Y0299291
X0509Y0308791
X05105Y02805
X05175Y0268
X05435Y03005
X0461543Y0283543
X0452Y0277
X0450291Y0257291
X0440457Y0259543
X0424Y02595
Y0255
X0417Y0263
X04075Y02565
X04015Y02595
X0407Y0238
X04075Y02265
X04125
X0418Y02255
X04155Y02185
X0402Y022
Y0225
X04235Y02325
X0432Y0234
X04335Y024
X04335Y0245
X0447543Y0245957
X0463Y02435
X0462957Y0236457
X04685Y0231
X0468Y02515
X0456Y0218
X0449Y02175
X0442
X04415Y0223
X0436Y02205
X0433Y0218
X043Y0214
X0417Y02005
Y0194
X04065Y0192
X040225Y018675
X04035Y01825
X04085Y01765
X0412Y01785
X04165Y0177
X042Y01805
X0417Y0167
X04055Y01645
X0406Y0173
X0442
X04465Y01725
X0451Y0167
X04495Y01605
X04425Y01635
X04385Y01605
X04345Y01635
X0432Y0186
X044Y0191
X04455Y0199
X0456
X04575Y02045
X0456043Y0210457
X04625Y01965
X0459Y01915
X0455Y0188
X04575Y0177
X045Y0179
X04685Y01825
X0439Y029
X0412Y02865
X0377Y02745
X03715Y027
X03645Y02695
X0358Y0259
X0367Y0254
X03755Y02555
X03795Y02405
X0359Y024
X0341709Y0246291
X0335Y0247
Y02295
X03325Y0227
X0336Y0224
X03295Y0218
X0331Y02135
X03315Y0199
X0314Y0225
X0317709Y0228791
X0324Y02535
X0348Y02635
Y02815
X0349Y02875
X0292Y0287543
X0272Y0286
X0269Y0275
Y027025
Y0265
Y02595
X0266Y0257
X02625Y0254
X0265Y02625
Y02675
X02645Y02725
X0251756Y0282244
X0229209Y0292291
X0218791Y0293291
X0226291Y0303709
X0191709Y0304709
X0183791Y0303709
X0184209Y0292291
X019Y029
X01915Y02755
X01875Y0274
X0182Y0276
X01785Y0274
X0172504Y0276004
X0166205Y0275295
X0168Y029
X0163055Y0290945
X0205Y02885
X0201Y0275
X0197Y0273
X02105Y0275
X02215Y0251
X02165Y0232
X02135Y0228
X02105Y02305
X0204
X0197701Y0225701
X0188252Y0231248
X0178803Y0231303
X0169354Y0230646
X0163055Y0230555
X01655Y0219
X01705Y02185
X01745Y0216
X01595Y02185
X0192055Y0202945
X0198354Y0202854
X01995Y021
X0207803Y0202803
X0223Y0203
X0228Y0204
X02285Y0185
X0233Y01865
X0235189Y0178811
X02375Y01665
X02345Y0163
X0236Y01585
X023Y0159
X0224
X0223189Y0170811
X0216811Y0177189
X0210953Y0181047
X0219Y0185
X0198811Y0177189
X0198354Y0158354
X0207803Y0157803
X02485Y0158
X0254Y0168
X02575Y01655
X02605Y01625
X02645Y0164
X02705
X02675Y0167
X02745
X0275191Y0177191
X0268991
X0267646Y0191646
X0272Y0191
X0273945Y0202445
X0277Y02065
X0275Y021
X02765Y0214
X02925
X029Y02035
X02845Y0225
X02995Y02355
X0306291Y0229209
X03035Y02635
X0279709Y0303709
X0244945Y0231055
X0238791Y023
X02415Y02265
X02355
X02325Y023
X0225
X02275Y02265
X022Y0228
X02155Y0217
X02465
X0248Y0221
X02485Y02255
X0259379Y0212121
X0258197Y0205303
X0264496Y0208004
X02825Y01585
X02875Y01595
X03015
X01655Y0158
X01445Y01615
X0144Y01775
X01445Y01935
Y02095
Y02185
X0196Y0317
X0214791Y03195
X0224291Y0327
X0229791
X02215Y0340709
X0252291Y03385
Y0344
X0255291Y0348
X0251791Y0357
X0259791Y03395
X0266291Y0318
X03385Y0329
X0352Y03355
X0348619Y0344381
X0363Y0333
X0368291Y0352291
X0379709
X0382Y03455
X03825Y03405
X0388
X0396Y0325
X04205Y0323
X0402Y0351587
X05155Y0329291
X05485Y0318291
Y0340791
X0664Y0349
T03
X011Y029
Y03105
T04
X0593Y0268
Y0276
Y0284
X0603Y0288
Y028
Y0272
T05
X033Y011
X034
X035
X036
X037
X038
X04
X041
X042
X043
X044
X045
Y03
X044
X043
X042
X041
X04
X039
X038
X0364
X0354
X0344
X0334
X0324
X0314
X0304
X0294
T06
X0119Y0149
X0129
Y0159
X0119
Y0169
X0129
Y0179
X0119
Y0189
X0129
Y0199
X0119
Y0209
X0129
Y0219
X0119
Y0229
X0129
Y0239
X0119
T07
X0654Y02624
X0664
Y03216
X0654
T08
X0629Y02574
Y03266
T09
X0148189Y0321496
X0136378Y034
X016
T10
X0629Y0273
Y0311
T11
X0124984Y0114
Y0274
M30
