%FSLAX25Y25*%
%MOIN*%
G70*
G01*
G75*
G04 Layer_Physical_Order=4*
G04 Layer_Color=16711680*
%ADD10R,0.03543X0.01969*%
%ADD11O,0.06693X0.01181*%
%ADD12R,0.07087X0.05118*%
%ADD13R,0.05512X0.04724*%
%ADD14C,0.01400*%
%ADD15R,0.04724X0.05512*%
%ADD16R,0.05118X0.07087*%
%ADD17R,0.21654X0.07874*%
%ADD18O,0.02165X0.05906*%
%ADD19O,0.00984X0.06102*%
%ADD20O,0.06102X0.00984*%
%ADD21R,0.02165X0.05709*%
%ADD22R,0.05118X0.05906*%
%ADD23R,0.02756X0.01575*%
%ADD24C,0.01000*%
%ADD25C,0.00500*%
%ADD26C,0.02000*%
%ADD27C,0.00300*%
%ADD28C,0.07874*%
%ADD29O,0.10000X0.05000*%
%ADD30R,0.05906X0.05906*%
%ADD31C,0.05906*%
%ADD32C,0.06000*%
%ADD33C,0.08700*%
%ADD34C,0.07500*%
%ADD35C,0.03000*%
%ADD36C,0.02000*%
%ADD37C,0.12500*%
%ADD38C,0.04000*%
%ADD39C,0.07400*%
G04:AMPARAMS|DCode=40|XSize=90mil|YSize=90mil|CornerRadius=0mil|HoleSize=0mil|Usage=FLASHONLY|Rotation=0.000|XOffset=0mil|YOffset=0mil|HoleType=Round|Shape=Relief|Width=8mil|Gap=10mil|Entries=4|*
%AMTHD40*
7,0,0,0.09000,0.07000,0.00800,45*
%
%ADD40THD40*%
%ADD41C,0.05900*%
G04:AMPARAMS|DCode=42|XSize=75mil|YSize=75mil|CornerRadius=0mil|HoleSize=0mil|Usage=FLASHONLY|Rotation=0.000|XOffset=0mil|YOffset=0mil|HoleType=Round|Shape=Relief|Width=8mil|Gap=10mil|Entries=4|*
%AMTHD42*
7,0,0,0.07500,0.05500,0.00800,45*
%
%ADD42THD42*%
%ADD43C,0.05943*%
G04:AMPARAMS|DCode=44|XSize=75.433mil|YSize=75.433mil|CornerRadius=0mil|HoleSize=0mil|Usage=FLASHONLY|Rotation=0.000|XOffset=0mil|YOffset=0mil|HoleType=Round|Shape=Relief|Width=8mil|Gap=10mil|Entries=4|*
%AMTHD44*
7,0,0,0.07543,0.05543,0.00800,45*
%
%ADD44THD44*%
%ADD45C,0.08600*%
%ADD46C,0.15200*%
%ADD47C,0.04000*%
%ADD48C,0.03400*%
G04:AMPARAMS|DCode=49|XSize=56mil|YSize=56mil|CornerRadius=0mil|HoleSize=0mil|Usage=FLASHONLY|Rotation=0.000|XOffset=0mil|YOffset=0mil|HoleType=Round|Shape=Relief|Width=8mil|Gap=10mil|Entries=4|*
%AMTHD49*
7,0,0,0.05600,0.03600,0.00800,45*
%
%ADD49THD49*%
%ADD50C,0.14900*%
G04:AMPARAMS|DCode=51|XSize=50mil|YSize=50mil|CornerRadius=0mil|HoleSize=0mil|Usage=FLASHONLY|Rotation=0.000|XOffset=0mil|YOffset=0mil|HoleType=Round|Shape=Relief|Width=8mil|Gap=10mil|Entries=4|*
%AMTHD51*
7,0,0,0.05000,0.03000,0.00800,45*
%
%ADD51THD51*%
%ADD52R,0.18000X0.05000*%
G36*
X177500Y176500D02*
X171656D01*
Y184941D01*
X177500D01*
Y176500D01*
D02*
G37*
G36*
X225242Y141623D02*
X225339Y141611D01*
X225423Y141592D01*
X225460Y141579D01*
X225495Y141570D01*
X225526Y141558D01*
X225554Y141545D01*
X225579Y141536D01*
X225598Y141526D01*
X225613Y141520D01*
X225626Y141514D01*
X225632Y141508D01*
X225635D01*
X225673Y141483D01*
X225707Y141458D01*
X225766Y141405D01*
X225813Y141352D01*
X225850Y141299D01*
X225878Y141252D01*
X225888Y141233D01*
X225894Y141214D01*
X225903Y141199D01*
X225906Y141189D01*
X225910Y141183D01*
Y141180D01*
X225638Y140959D01*
X225610Y141005D01*
X225579Y141049D01*
X225545Y141090D01*
X225510Y141121D01*
X225479Y141149D01*
X225451Y141168D01*
X225435Y141180D01*
X225429Y141183D01*
X225373Y141214D01*
X225317Y141236D01*
X225264Y141252D01*
X225217Y141261D01*
X225176Y141271D01*
X225142Y141274D01*
X225114D01*
X225030Y141267D01*
X224958Y141255D01*
X224896Y141233D01*
X224843Y141208D01*
X224796Y141174D01*
X224758Y141139D01*
X224727Y141099D01*
X224702Y141061D01*
X224683Y141021D01*
X224668Y140980D01*
X224658Y140946D01*
X224649Y140912D01*
X224646Y140887D01*
X224643Y140865D01*
Y140852D01*
Y140846D01*
X224646Y140784D01*
X224655Y140718D01*
X224671Y140653D01*
X224690Y140587D01*
X224711Y140522D01*
X224740Y140456D01*
X224765Y140391D01*
X224793Y140331D01*
X224824Y140275D01*
X224849Y140222D01*
X224874Y140179D01*
X224899Y140138D01*
X224917Y140104D01*
X224933Y140082D01*
X224942Y140066D01*
X224945Y140060D01*
X225910Y138581D01*
Y138500D01*
X224019D01*
Y138877D01*
X225226D01*
X224537Y139973D01*
X224478Y140069D01*
X224428Y140163D01*
X224381Y140250D01*
X224343Y140331D01*
X224312Y140409D01*
X224284Y140481D01*
X224262Y140547D01*
X224243Y140606D01*
X224231Y140662D01*
X224222Y140709D01*
X224212Y140750D01*
X224209Y140784D01*
X224206Y140812D01*
X224203Y140831D01*
Y140843D01*
Y140846D01*
X224206Y140915D01*
X224212Y140977D01*
X224225Y141037D01*
X224240Y141093D01*
X224262Y141146D01*
X224281Y141193D01*
X224306Y141236D01*
X224328Y141274D01*
X224350Y141308D01*
X224375Y141339D01*
X224393Y141364D01*
X224412Y141386D01*
X224431Y141402D01*
X224443Y141414D01*
X224449Y141420D01*
X224453Y141423D01*
X224499Y141461D01*
X224552Y141492D01*
X224609Y141520D01*
X224665Y141542D01*
X224721Y141564D01*
X224777Y141579D01*
X224886Y141604D01*
X224936Y141614D01*
X224986Y141620D01*
X225027Y141623D01*
X225064Y141626D01*
X225095Y141629D01*
X225136D01*
X225242Y141623D01*
D02*
G37*
G36*
X226789Y139629D02*
Y139530D01*
X226796Y139442D01*
X226799Y139361D01*
X226808Y139293D01*
X226817Y139230D01*
X226827Y139174D01*
X226836Y139127D01*
X226846Y139087D01*
X226858Y139052D01*
X226867Y139024D01*
X226877Y138999D01*
X226886Y138984D01*
X226895Y138971D01*
X226899Y138962D01*
X226905Y138959D01*
Y138955D01*
X226927Y138934D01*
X226955Y138915D01*
X227014Y138887D01*
X227080Y138865D01*
X227145Y138853D01*
X227207Y138843D01*
X227233Y138840D01*
X227254D01*
X227273Y138837D01*
X227301D01*
X227351Y138840D01*
X227395Y138849D01*
X227435Y138862D01*
X227470Y138881D01*
X227501Y138902D01*
X227529Y138924D01*
X227551Y138949D01*
X227573Y138977D01*
X227588Y139002D01*
X227601Y139027D01*
X227613Y139049D01*
X227619Y139071D01*
X227626Y139090D01*
X227629Y139102D01*
X227632Y139111D01*
Y139115D01*
X228000D01*
X227994Y139058D01*
X227984Y139009D01*
X227975Y138959D01*
X227959Y138915D01*
X227944Y138871D01*
X227925Y138831D01*
X227906Y138796D01*
X227888Y138765D01*
X227869Y138734D01*
X227853Y138709D01*
X227835Y138687D01*
X227822Y138669D01*
X227810Y138656D01*
X227800Y138647D01*
X227794Y138640D01*
X227791Y138637D01*
X227753Y138606D01*
X227713Y138578D01*
X227672Y138556D01*
X227632Y138534D01*
X227591Y138519D01*
X227551Y138503D01*
X227473Y138481D01*
X227435Y138475D01*
X227404Y138469D01*
X227373Y138466D01*
X227348Y138463D01*
X227326Y138459D01*
X227298D01*
X227204Y138463D01*
X227117Y138472D01*
X227039Y138484D01*
X226964Y138503D01*
X226899Y138525D01*
X226839Y138547D01*
X226786Y138572D01*
X226740Y138600D01*
X226699Y138625D01*
X226665Y138650D01*
X226637Y138672D01*
X226615Y138693D01*
X226596Y138712D01*
X226584Y138725D01*
X226577Y138734D01*
X226574Y138737D01*
X226537Y138793D01*
X226505Y138856D01*
X226477Y138924D01*
X226456Y138999D01*
X226434Y139074D01*
X226418Y139149D01*
X226406Y139224D01*
X226393Y139299D01*
X226384Y139367D01*
X226378Y139433D01*
X226375Y139492D01*
X226371Y139545D01*
X226368Y139589D01*
Y139620D01*
Y139633D01*
Y139642D01*
Y139645D01*
Y139648D01*
Y141576D01*
X226789D01*
Y139629D01*
D02*
G37*
%LPC*%
G36*
X173656Y182941D02*
Y182595D01*
X174443Y182158D01*
X173656Y181722D01*
Y181374D01*
X174744Y181995D01*
X175500D01*
Y182322D01*
X174744D01*
X173656Y182941D01*
D02*
G37*
G36*
X175500Y181253D02*
X175210D01*
Y180417D01*
X174657D01*
Y181011D01*
X174378D01*
Y180417D01*
X173946D01*
Y181253D01*
X173656D01*
Y180089D01*
X175500D01*
Y181253D01*
D02*
G37*
G36*
Y179936D02*
X174462Y179248D01*
X173656Y179826D01*
Y179454D01*
X174539Y178827D01*
X173656D01*
Y178500D01*
X175500D01*
Y178827D01*
X174997D01*
X174716Y179031D01*
X175500Y179545D01*
Y179936D01*
D02*
G37*
%LPD*%
D24*
X170656Y176086D02*
Y181461D01*
X169156Y175464D02*
Y180840D01*
X167750Y184367D02*
Y184785D01*
Y184367D02*
X170656Y181461D01*
X165000Y184996D02*
X169156Y180840D01*
X165000Y184996D02*
Y186500D01*
X169156Y175464D02*
X170621Y174000D01*
X170656Y176086D02*
X171242Y175500D01*
X176121D01*
X170621Y174000D02*
X175500D01*
X167750Y184785D02*
X168000Y185036D01*
X166000Y190000D02*
X168000Y188000D01*
Y185036D02*
Y188000D01*
X173000Y171000D02*
X176000Y168000D01*
Y160000D02*
Y168000D01*
Y160000D02*
X182400Y153600D01*
X175500Y174000D02*
X181000Y168500D01*
X176121Y175500D02*
X177121Y174500D01*
X182000D01*
X181000Y166000D02*
Y168500D01*
X183400Y163600D02*
X187300D01*
X181000Y166000D02*
X183400Y163600D01*
X228900Y135600D02*
X233000Y131500D01*
X212300Y135600D02*
X228900D01*
X260661Y252303D02*
X261465Y251500D01*
X222697Y252303D02*
X260661D01*
X221500Y253500D02*
X222697Y252303D01*
X165500Y201000D02*
X166000Y200500D01*
Y196864D02*
Y200500D01*
Y196864D02*
X167000Y195864D01*
Y192136D02*
Y195864D01*
X166000Y191136D02*
X167000Y192136D01*
X166000Y190000D02*
Y191136D01*
X182400Y153600D02*
X187300D01*
X610500Y198000D02*
X614000Y201500D01*
X610500Y192500D02*
Y198000D01*
Y192500D02*
X614000Y189000D01*
X608146Y186453D02*
Y192853D01*
X598500Y202500D02*
X608146Y192853D01*
X424000Y305500D02*
X436500D01*
X411000Y292500D02*
X424000Y305500D01*
X411000Y278000D02*
Y292500D01*
X610500Y210500D02*
X614000D01*
X614500Y216000D02*
X620000Y210500D01*
X553000Y141000D02*
X558000Y136000D01*
X553000Y141000D02*
Y236500D01*
X548000Y128000D02*
Y132000D01*
X609000Y126400D02*
Y137500D01*
X601500Y145000D02*
X609000Y137500D01*
X601500Y145000D02*
Y194500D01*
X619000Y126400D02*
Y139000D01*
X614000Y144000D02*
X619000Y139000D01*
X614000Y144000D02*
Y189000D01*
X620000Y189500D02*
Y210500D01*
X563500Y216535D02*
Y231500D01*
X562500Y215535D02*
X563500Y216535D01*
X562500Y213464D02*
Y215535D01*
Y213464D02*
X563500Y212464D01*
Y130000D02*
Y212464D01*
X187300Y135600D02*
X212300D01*
X266500Y251500D02*
X270500D01*
X247464Y228000D02*
X300000D01*
X263000Y251500D02*
X266000Y254500D01*
X261465Y251500D02*
X263000D01*
X266000Y254500D02*
X268000D01*
X274000Y260500D01*
X270500Y251500D02*
X280500Y261500D01*
X336500D01*
X244000Y224535D02*
X247464Y228000D01*
X244000Y215667D02*
Y224535D01*
Y215667D02*
X259250Y200417D01*
Y193750D02*
Y200417D01*
Y193750D02*
X272500Y180500D01*
X357500Y269500D02*
X361500Y265500D01*
X357500Y269500D02*
Y284500D01*
X342000Y300000D02*
X357500Y284500D01*
X280000Y300000D02*
X342000D01*
X411000Y269000D02*
Y278000D01*
Y269000D02*
X412500Y267500D01*
X416500D01*
X548000Y148000D02*
Y235000D01*
X534500Y248500D02*
X548000Y235000D01*
X537500Y252000D02*
X553000Y236500D01*
X558000Y152000D02*
Y155500D01*
X556500Y157000D02*
X558000Y155500D01*
X529000Y253000D02*
X530000Y253500D01*
X527000Y249500D02*
X530536D01*
X526500Y249000D02*
X527000Y249500D01*
X538121Y253500D02*
X556500Y235121D01*
X530000Y253500D02*
X538121D01*
X533036Y252000D02*
X537500D01*
X530536Y249500D02*
X533036Y252000D01*
X556500Y157000D02*
Y235121D01*
X525500Y250000D02*
X526500Y249000D01*
X602000Y219000D02*
X610500Y210500D01*
X535500Y259500D02*
X563500Y231500D01*
X558000Y124500D02*
X563500Y130000D01*
X551500Y124500D02*
X558000D01*
X548000Y128000D02*
X551500Y124500D01*
X528500Y259500D02*
X535500D01*
X272500Y169000D02*
X274500Y167000D01*
X276250Y154250D02*
X277500Y155500D01*
X484500Y226500D02*
X488000Y223000D01*
X248500Y157000D02*
Y158000D01*
X422500Y266000D02*
X434500D01*
X442000Y273500D01*
X341791Y282209D02*
Y292500D01*
X337291Y297000D02*
X341791Y292500D01*
X321541Y274750D02*
X334291Y287500D01*
X313041Y274750D02*
X321541D01*
X303500Y289709D02*
X305791Y287417D01*
Y278500D02*
Y287417D01*
Y278500D02*
X306291Y276000D01*
X311791D02*
X313041Y274750D01*
X512500Y218000D02*
X520500D01*
X533500Y231000D02*
Y242000D01*
X532500Y243000D02*
X533500Y242000D01*
X234500Y163000D02*
X239000D01*
X249000Y157500D02*
X249782D01*
X239000Y163000D02*
X240000Y162000D01*
X249782Y157500D02*
X253032Y154250D01*
X249450Y162000D02*
X254700Y156750D01*
X253032Y154250D02*
X276250D01*
X240000Y162000D02*
X249450D01*
X254700Y156750D02*
X272518D01*
X275268Y159500D01*
X277096D01*
X520500Y218000D02*
X533500Y231000D01*
X248500Y157000D02*
X249000Y157500D01*
X331550Y213250D02*
X331600Y213300D01*
X342800D01*
X341791Y282209D02*
X350000Y274000D01*
X359823Y213000D02*
X361000D01*
X349533Y215750D02*
X357073D01*
X359823Y213000D01*
X342800Y213300D02*
X346500Y217000D01*
X348283D01*
X349533Y215750D01*
X274000Y260500D02*
X275467D01*
X284467Y269500D01*
X291000D01*
X272500Y169000D02*
Y180500D01*
D25*
X449000Y143000D02*
Y148500D01*
X496500Y168500D02*
X524500D01*
X492500Y172500D02*
X496500Y168500D01*
X492500Y172500D02*
Y189500D01*
X172000Y118500D02*
X173000Y117500D01*
X170250Y121750D02*
X172664D01*
X178907Y119750D02*
X182179D01*
X177000Y121657D02*
X178907Y119750D01*
X177000Y121657D02*
Y124343D01*
X176000Y121243D02*
Y123929D01*
Y121243D02*
X178493Y118750D01*
X182593D01*
X178078Y117750D02*
X183007D01*
X173078Y122750D02*
X178078Y117750D01*
X172836Y122750D02*
X173078D01*
X170500Y125086D02*
X172836Y122750D01*
X177664Y116750D02*
X182593D01*
X172664Y121750D02*
X177664Y116750D01*
X177250Y115750D02*
X182179D01*
X172250Y120750D02*
X177250Y115750D01*
X165750Y120750D02*
X172250D01*
X169500Y131843D02*
X177000Y124343D01*
X166000Y133929D02*
X176000Y123929D01*
X170500Y125086D02*
Y126000D01*
X317500Y131000D02*
X320212Y133712D01*
X321914Y130500D02*
X397318D01*
X319164Y127750D02*
X321914Y130500D01*
X319578Y126750D02*
X322328Y129500D01*
X322743Y128500D02*
X396490D01*
X319993Y125750D02*
X322743Y128500D01*
X320407Y124750D02*
X323157Y127500D01*
X323571Y126500D02*
X395661D01*
X320821Y123750D02*
X323571Y126500D01*
X321235Y122750D02*
X323985Y125500D01*
X324399Y124500D02*
X394833D01*
X321650Y121750D02*
X324399Y124500D01*
X324814Y123500D02*
X394419D01*
X322064Y120750D02*
X324814Y123500D01*
X323985Y125500D02*
X395247D01*
X323157Y127500D02*
X396075D01*
X322328Y129500D02*
X396904D01*
X324500Y134500D02*
X326000D01*
X297568Y126750D02*
X299432D01*
X293818Y130500D02*
X297568Y126750D01*
X299432D02*
X300432Y127750D01*
X297154Y125750D02*
X299846D01*
X296740Y124750D02*
X300260D01*
X296325Y123750D02*
X300675D01*
X295911Y122750D02*
X301089D01*
X295497Y121750D02*
X301503D01*
X295083Y120750D02*
X301917D01*
X294669Y119750D02*
X302331D01*
X290919Y123500D02*
X294669Y119750D01*
X232500Y226318D02*
Y232000D01*
X240437Y222623D02*
Y225437D01*
Y222623D02*
X242750Y220311D01*
Y215149D02*
Y220311D01*
X241750Y214735D02*
Y219896D01*
X238791Y222855D02*
X241750Y219896D01*
X238791Y222855D02*
Y230000D01*
X235500Y224732D02*
X240750Y219482D01*
X235500Y224732D02*
Y226500D01*
X239750Y213907D02*
Y219068D01*
X230000Y227404D02*
X238750Y218654D01*
Y213493D02*
Y218654D01*
X236750Y212664D02*
Y217825D01*
X235750Y212250D02*
Y217411D01*
X223311Y229850D02*
X235750Y217411D01*
X222897Y228850D02*
X234750Y216997D01*
Y211836D02*
Y216997D01*
X222818Y231757D02*
X236750Y217825D01*
X226000Y229990D02*
X237750Y218240D01*
Y213078D02*
Y218240D01*
X232500Y226318D02*
X239750Y219068D01*
X240750Y214321D02*
Y219482D01*
X230000Y227404D02*
Y228500D01*
X215150Y228850D02*
X222897D01*
X217150Y229850D02*
X223311D01*
X222818Y231757D02*
Y232000D01*
X226000Y229990D02*
Y232000D01*
X158906Y166109D02*
Y176594D01*
X155750Y162953D02*
X158906Y166109D01*
X159906Y165695D02*
Y177008D01*
X156750Y162539D02*
X159906Y165695D01*
X160906Y165280D02*
Y177422D01*
X157750Y162124D02*
X160906Y165280D01*
X161906Y164866D02*
Y177836D01*
X158750Y161710D02*
X161906Y164866D01*
X159750Y161296D02*
X162906Y164452D01*
X160750Y160882D02*
X163906Y164038D01*
X161750Y160468D02*
X164906Y163624D01*
X162750Y160053D02*
X165906Y163209D01*
X163750Y159639D02*
X166906Y162795D01*
X164750Y159225D02*
X167906Y162381D01*
X166906Y162795D02*
Y179908D01*
X165906Y163209D02*
Y179493D01*
X164906Y163624D02*
Y179079D01*
X163906Y164038D02*
Y178665D01*
X162906Y164452D02*
Y178251D01*
X153250Y185078D02*
X160906Y177422D01*
X152250Y184664D02*
X159906Y177008D01*
X151250Y184250D02*
X158906Y176594D01*
X163750Y153840D02*
Y159639D01*
X157000Y152747D02*
X159750Y155497D01*
X158500Y152833D02*
X160750Y155083D01*
X159805Y152723D02*
X161750Y154669D01*
X159750Y155497D02*
Y161296D01*
X160750Y155083D02*
Y160882D01*
X162750Y154254D02*
Y160053D01*
X161750Y154669D02*
Y160468D01*
X151000Y152500D02*
X155750Y157250D01*
X152250Y152336D02*
X156750Y156836D01*
X153250Y151922D02*
X157750Y156422D01*
X154250Y151507D02*
X158750Y156007D01*
X155750Y157250D02*
Y162953D01*
X156750Y156836D02*
Y162539D01*
X157750Y156422D02*
Y162124D01*
X158750Y156007D02*
Y161710D01*
X164750Y153426D02*
Y159225D01*
X154250Y129336D02*
Y151507D01*
X153250Y128250D02*
Y151922D01*
X152250Y127836D02*
Y152336D01*
X151000Y119000D02*
Y152500D01*
X160805Y152309D02*
X162750Y154254D01*
X161805Y151895D02*
X163750Y153840D01*
X164500Y153176D02*
X164750Y153426D01*
X164500Y149000D02*
Y153176D01*
X166500Y158500D02*
X168750Y160750D01*
X158500Y130500D02*
Y152833D01*
X161805Y145695D02*
Y151895D01*
X160805Y144695D02*
Y152309D01*
X159805Y144195D02*
Y152723D01*
X167906Y162381D02*
Y180322D01*
X162000Y186228D02*
Y188904D01*
Y186228D02*
X167906Y180322D01*
X161000Y185814D02*
Y189318D01*
Y185814D02*
X166906Y179908D01*
X160000Y185399D02*
Y201321D01*
Y185399D02*
X165906Y179493D01*
X159000Y184985D02*
X164906Y179079D01*
X159000Y184985D02*
Y200907D01*
X158000Y184571D02*
X163906Y178665D01*
X158000Y184571D02*
Y200493D01*
X157000Y184157D02*
X162906Y178251D01*
X157000Y184157D02*
Y200078D01*
X156000Y183743D02*
X161906Y177836D01*
X156000Y183743D02*
Y199664D01*
X153250Y185078D02*
Y225250D01*
X152250Y184664D02*
Y225750D01*
X151250Y184250D02*
Y226250D01*
X157000Y132182D02*
Y152747D01*
X181400Y183600D02*
X187300D01*
X177000Y188000D02*
X181400Y183600D01*
X177000Y188000D02*
Y229500D01*
X230500Y214672D02*
Y217000D01*
X260143Y251053D02*
X261681Y249516D01*
X259729Y250053D02*
X261282Y248500D01*
X259315Y249053D02*
X260868Y247500D01*
X258901Y248053D02*
X260454Y246500D01*
X258487Y247053D02*
X260040Y245500D01*
X258072Y246053D02*
X259626Y244500D01*
X257658Y245053D02*
X259211Y243500D01*
X257244Y244053D02*
X258797Y242500D01*
X256830Y243053D02*
X258383Y241500D01*
X256416Y242053D02*
X257969Y240500D01*
X256001Y241053D02*
X257555Y239500D01*
X255587Y240053D02*
X257140Y238500D01*
X255173Y239053D02*
X256726Y237500D01*
X254759Y238053D02*
X256312Y236500D01*
X254345Y237053D02*
X256898Y234500D01*
X252947Y236053D02*
X256500Y232500D01*
X252447Y235053D02*
X257000Y230500D01*
X212500Y231500D02*
X215150Y228850D01*
X219250Y235053D02*
X252447D01*
X218836Y236053D02*
X252947D01*
X218422Y237053D02*
X254345D01*
X218007Y238053D02*
X254759D01*
X217593Y239053D02*
X255173D01*
X217179Y240053D02*
X255587D01*
X216765Y241053D02*
X256001D01*
X217037Y242053D02*
X256416D01*
X217451Y243053D02*
X256830D01*
X217865Y244053D02*
X257244D01*
X218280Y245053D02*
X257658D01*
X218694Y246053D02*
X258072D01*
X219108Y247053D02*
X258487D01*
X219522Y248053D02*
X258901D01*
X219936Y249053D02*
X259315D01*
X220351Y250053D02*
X259729D01*
X220765Y251053D02*
X260143D01*
X216500Y230500D02*
X217150Y229850D01*
X220318Y251500D02*
X220765Y251053D01*
X219904Y250500D02*
X220351Y250053D01*
X219490Y249500D02*
X219936Y249053D01*
X219075Y248500D02*
X219522Y248053D01*
X218661Y247500D02*
X219108Y247053D01*
X218247Y246500D02*
X218694Y246053D01*
X217833Y245500D02*
X218280Y245053D01*
X217419Y244500D02*
X217865Y244053D01*
X217004Y243500D02*
X217451Y243053D01*
X216590Y242500D02*
X217037Y242053D01*
X216711Y241000D02*
X216765Y241053D01*
X216676Y241000D02*
X216711D01*
X217126Y240000D02*
X217179Y240053D01*
X216262Y240000D02*
X217126D01*
X217540Y239000D02*
X217593Y239053D01*
X215847Y239000D02*
X217540D01*
X217954Y238000D02*
X218007Y238053D01*
X215433Y238000D02*
X217954D01*
X218368Y237000D02*
X218422Y237053D01*
X215019Y237000D02*
X218368D01*
X218782Y236000D02*
X218836Y236053D01*
X214605Y236000D02*
X218782D01*
X219197Y235000D02*
X219250Y235053D01*
X214191Y235000D02*
X219197D01*
X212300Y223600D02*
X221400D01*
X226500Y218500D01*
X214105Y236500D02*
X214605Y236000D01*
X214519Y237500D02*
X215019Y237000D01*
X214933Y238500D02*
X215433Y238000D01*
X215348Y239500D02*
X215847Y239000D01*
X215762Y240500D02*
X216262Y240000D01*
X216176Y241500D02*
X216676Y241000D01*
X204429Y243500D02*
X217004D01*
X204015Y244500D02*
X217419D01*
X203601Y245500D02*
X217833D01*
X203186Y246500D02*
X218247D01*
X202772Y247500D02*
X218661D01*
X202358Y248500D02*
X219075D01*
X201944Y249500D02*
X219490D01*
X201530Y250500D02*
X219904D01*
X201115Y251500D02*
X220318D01*
X229000Y229500D02*
X230000Y228500D01*
X198500Y227500D02*
X207500Y236500D01*
X199500Y230000D02*
X207000Y237500D01*
X200000Y232000D02*
X206500Y238500D01*
X199586Y233000D02*
X206086Y239500D01*
X199672Y234500D02*
X205672Y240500D01*
X199257Y235500D02*
X205257Y241500D01*
X198843Y236500D02*
X204843Y242500D01*
X198429Y237500D02*
X204429Y243500D01*
X198015Y238500D02*
X204015Y244500D01*
X197600Y239500D02*
X203601Y245500D01*
X197186Y240500D02*
X203186Y246500D01*
X196772Y241500D02*
X202772Y247500D01*
X196358Y242500D02*
X202358Y248500D01*
X195944Y243500D02*
X201944Y249500D01*
X195529Y244500D02*
X201530Y250500D01*
X195115Y245500D02*
X201115Y251500D01*
X207500Y236500D02*
X214105D01*
X207000Y237500D02*
X214519D01*
X206500Y238500D02*
X214933D01*
X206086Y239500D02*
X215348D01*
X205672Y240500D02*
X215762D01*
X205257Y241500D02*
X216176D01*
X204843Y242500D02*
X216590D01*
X213691Y235500D02*
X214191Y235000D01*
X208000Y235500D02*
X213691D01*
X201360Y228860D02*
X208000Y235500D01*
X175000Y215500D02*
Y230328D01*
X176000Y215086D02*
Y229914D01*
X179586Y232000D02*
X180586Y233000D01*
X176672Y232000D02*
X179586D01*
X175000Y230328D02*
X176672Y232000D01*
X180000Y231000D02*
X181000Y232000D01*
X177086Y231000D02*
X180000D01*
X176000Y229914D02*
X177086Y231000D01*
X177500Y230000D02*
X199500D01*
X177000Y229500D02*
X177500Y230000D01*
X170500Y229000D02*
Y231328D01*
X163500Y222000D02*
X170500Y229000D01*
X171500Y227000D02*
Y230914D01*
X167500Y223000D02*
X171500Y227000D01*
X172500Y218500D02*
Y230500D01*
X171500Y230914D02*
X176086Y235500D01*
X170500Y231328D02*
X175672Y236500D01*
X163500Y219500D02*
Y222000D01*
X154250Y201414D02*
X156000Y199664D01*
X154250Y201414D02*
Y224750D01*
X161000Y189318D02*
X164750Y193068D01*
X161000Y198682D02*
X164750Y194932D01*
X161000Y198682D02*
Y201735D01*
X162000Y188904D02*
X165750Y192654D01*
X162000Y199096D02*
X165750Y195346D01*
X162000Y199096D02*
Y202150D01*
X165750Y192654D02*
Y195346D01*
X161750Y202399D02*
X162000Y202150D01*
X164750Y193068D02*
Y194932D01*
X160750Y201985D02*
X161000Y201735D01*
X159750Y201571D02*
X160000Y201321D01*
X158750Y201157D02*
X159000Y200907D01*
X157750Y200743D02*
X158000Y200493D01*
X156750Y200328D02*
X157000Y200078D01*
X161750Y202399D02*
Y203432D01*
X160750Y201985D02*
Y203846D01*
X159750Y201571D02*
Y204260D01*
X158750Y201157D02*
Y204675D01*
X157750Y200743D02*
Y205089D01*
X156750Y200328D02*
Y205503D01*
X154250Y129336D02*
X169086Y114500D01*
X154250Y224750D02*
X172000Y242500D01*
X156250Y128750D02*
X166500Y118500D01*
X156250Y128750D02*
Y131432D01*
X157000Y132182D01*
X156750Y205503D02*
X157000Y205753D01*
Y206661D01*
X155750Y207911D02*
X157000Y206661D01*
X155750Y207911D02*
Y220589D01*
X157000Y221839D01*
Y226000D01*
X172500Y241500D01*
X159805Y225805D02*
X172000Y238000D01*
X159805Y221815D02*
Y225805D01*
X157750Y219760D02*
X159805Y221815D01*
X157750Y216240D02*
Y219760D01*
Y216240D02*
X159000Y214990D01*
Y213510D02*
Y214990D01*
X157750Y212260D02*
X159000Y213510D01*
X157750Y208740D02*
Y212260D01*
Y208740D02*
X159000Y207490D01*
Y204925D02*
Y207490D01*
X158750Y204675D02*
X159000Y204925D01*
X159805Y144195D02*
X161000Y143000D01*
X160805Y144695D02*
X162000Y143500D01*
X159750Y204260D02*
X160000Y204510D01*
Y207904D01*
X158750Y209154D02*
X160000Y207904D01*
X158750Y209154D02*
Y211846D01*
X160000Y213096D01*
Y215404D01*
X158750Y216654D02*
X160000Y215404D01*
X158750Y216654D02*
Y219346D01*
X160805Y221401D01*
Y225305D01*
X174000Y238500D01*
X161805Y224047D02*
X175257Y237500D01*
X161805Y220987D02*
Y224047D01*
X161500Y220682D02*
X161805Y220987D01*
X161500Y220250D02*
Y220682D01*
X161068Y220250D02*
X161500D01*
X159750Y218932D02*
X161068Y220250D01*
X159750Y217068D02*
Y218932D01*
Y217068D02*
X161000Y215818D01*
Y212682D02*
Y215818D01*
X159750Y211432D02*
X161000Y212682D01*
X159750Y209568D02*
Y211432D01*
Y209568D02*
X161000Y208318D01*
Y204096D02*
Y208318D01*
X160750Y203846D02*
X161000Y204096D01*
X161805Y145695D02*
X163000Y144500D01*
X161750Y203432D02*
X164500Y206182D01*
X158500Y226000D02*
X171500Y239000D01*
X158500Y221925D02*
Y226000D01*
X156750Y220175D02*
X158500Y221925D01*
X156750Y215825D02*
Y220175D01*
Y215825D02*
X158000Y214575D01*
Y213925D02*
Y214575D01*
X156750Y212675D02*
X158000Y213925D01*
X156750Y208325D02*
Y212675D01*
Y208325D02*
X158000Y207075D01*
Y205339D02*
Y207075D01*
X157750Y205089D02*
X158000Y205339D01*
X151250Y118750D02*
X160000Y110000D01*
X151250Y226250D02*
X170500Y245500D01*
X152250Y127836D02*
X164000Y116086D01*
X152250Y225750D02*
X171000Y244500D01*
X153250Y225250D02*
X171500Y243500D01*
X153250Y128250D02*
X165000Y116500D01*
X161000Y125500D02*
X165750Y120750D01*
X161000Y125500D02*
Y143000D01*
X163000Y131500D02*
X168000Y126500D01*
X163000Y131500D02*
Y144500D01*
X162000Y128500D02*
Y143500D01*
Y128500D02*
X165000Y125500D01*
X164500Y206182D02*
Y207500D01*
X168500Y211500D01*
X173172Y240500D02*
X197186D01*
X171672Y239000D02*
X173172Y240500D01*
X164500Y149000D02*
X167000Y146500D01*
X172000Y238000D02*
X172086D01*
X162000Y218000D02*
X163500Y219500D01*
X172250Y160750D02*
X176250Y156750D01*
X168750Y160750D02*
X172250D01*
X175250Y131750D02*
Y155250D01*
X172500Y158000D02*
X175250Y155250D01*
X170500Y158000D02*
X172500D01*
X176250Y145250D02*
Y156750D01*
X171000Y264500D02*
X252000D01*
X166205Y269295D02*
X171000Y264500D01*
X166205Y269295D02*
Y275295D01*
X405500Y104500D02*
X478000D01*
X391000Y119000D02*
X405500Y104500D01*
X343000Y119000D02*
X391000D01*
X328500Y104500D02*
X343000Y119000D01*
X329672Y99500D02*
X389828D01*
X330086Y100500D02*
X389414D01*
X282500Y103500D02*
X327086D01*
X327672Y101500D02*
X329672Y99500D01*
X274500Y101500D02*
X327672D01*
X327086Y103500D02*
X330086Y100500D01*
X291500Y104500D02*
X328500D01*
X392414Y103500D02*
X480000D01*
X391828Y101500D02*
X481500D01*
X389828Y99500D02*
X391828Y101500D01*
X389414Y100500D02*
X392414Y103500D01*
X395504Y121000D02*
X399754Y116750D01*
X335000Y121000D02*
X395504D01*
X395090Y120000D02*
X399340Y115750D01*
X338500Y120000D02*
X395090D01*
X324500Y106000D02*
X338500Y120000D01*
X300000Y106000D02*
X324500D01*
X485682Y117000D02*
X488500D01*
X484432Y115750D02*
X485682Y117000D01*
X482568Y115750D02*
X484432D01*
X481318Y117000D02*
X482568Y115750D01*
X461250Y117000D02*
X481318D01*
X461250Y116654D02*
Y117000D01*
X459346Y114750D02*
X461250Y116654D01*
X456654Y114750D02*
X459346D01*
X454750Y116654D02*
X456654Y114750D01*
X454750Y116654D02*
Y117000D01*
X436828D02*
X454750D01*
X460250Y118000D02*
X468500D01*
X460250Y117068D02*
Y118000D01*
X458932Y115750D02*
X460250Y117068D01*
X457068Y115750D02*
X458932D01*
X455750Y117068D02*
X457068Y115750D01*
X455750Y117068D02*
Y118000D01*
X436414D02*
X455750D01*
X435828Y116000D02*
X436828Y117000D01*
X424596Y116000D02*
X435828D01*
X423346Y114750D02*
X424596Y116000D01*
X420654Y114750D02*
X423346D01*
X419273Y116131D02*
X420654Y114750D01*
X419273Y116131D02*
Y116131D01*
X419142Y116000D02*
X419273Y116131D01*
X435414Y117000D02*
X436414Y118000D01*
X424182Y117000D02*
X435414D01*
X422932Y115750D02*
X424182Y117000D01*
X421068Y115750D02*
X422932D01*
X419750Y117068D02*
X421068Y115750D01*
X419750Y117068D02*
Y118000D01*
X419728D02*
X419750D01*
X408910Y116000D02*
X419142D01*
X408660Y115750D02*
X408910Y116000D01*
X418728Y117000D02*
X419728Y118000D01*
X408496Y117000D02*
X418728D01*
X408246Y116750D02*
X408496Y117000D01*
X419314Y119000D02*
X419582D01*
X418314Y118000D02*
X419314Y119000D01*
X408081Y118000D02*
X418314D01*
X407831Y117750D02*
X408081Y118000D01*
X418899Y120000D02*
X419167D01*
X417900Y119000D02*
X418899Y120000D01*
X407667Y119000D02*
X417900D01*
X407417Y118750D02*
X407667Y119000D01*
X418485Y121000D02*
X418753D01*
X417485Y120000D02*
X418485Y121000D01*
X407515Y120000D02*
X417485D01*
X407384Y120131D02*
X407515Y120000D01*
X407384Y120131D02*
X407384D01*
X407003Y119750D02*
X407384Y120131D01*
X418071Y122000D02*
X418339D01*
X417071Y121000D02*
X418071Y122000D01*
X407929Y121000D02*
X417071D01*
X407384Y121545D02*
X407929Y121000D01*
X407384Y121545D02*
X407384D01*
X406589Y120750D02*
X407384Y121545D01*
X417657Y123000D02*
X417925D01*
X416657Y122000D02*
X417657Y123000D01*
X408343Y122000D02*
X416657D01*
X407593Y122750D02*
X408343Y122000D01*
X407175Y122750D02*
X407593D01*
X406175Y121750D02*
X407175Y122750D01*
X417243Y124000D02*
X417510D01*
X416243Y123000D02*
X417243Y124000D01*
X408757Y123000D02*
X416243D01*
X408007Y123750D02*
X408757Y123000D01*
X406760Y123750D02*
X408007D01*
X405760Y122750D02*
X406760Y123750D01*
X416828Y125000D02*
X417096D01*
X415828Y124000D02*
X416828Y125000D01*
X409172Y124000D02*
X415828D01*
X408422Y124750D02*
X409172Y124000D01*
X406654Y124750D02*
X408422D01*
X406500Y124904D02*
X406654Y124750D01*
X405346Y123750D02*
X406500Y124904D01*
X416414Y126000D02*
X416682D01*
X415414Y125000D02*
X416414Y126000D01*
X409586Y125000D02*
X415414D01*
X408836Y125750D02*
X409586Y125000D01*
X407068Y125750D02*
X408836D01*
X406818Y126000D02*
X407068Y125750D01*
X406182Y126000D02*
X406818D01*
X399340Y115750D02*
X408660D01*
X399754Y116750D02*
X408246D01*
X400169Y117750D02*
X407831D01*
X394419Y123500D02*
X400169Y117750D01*
X400583Y118750D02*
X407417D01*
X394833Y124500D02*
X400583Y118750D01*
X400997Y119750D02*
X407003D01*
X401411Y120750D02*
X406589D01*
X395661Y126500D02*
X401411Y120750D01*
X401825Y121750D02*
X406175D01*
X402240Y122750D02*
X405760D01*
X396490Y128500D02*
X402240Y122750D01*
X402654Y123750D02*
X405346D01*
X396904Y129500D02*
X402654Y123750D01*
X404932Y124750D02*
X406182Y126000D01*
X403068Y124750D02*
X404932D01*
X416682Y126000D02*
X423250Y132568D01*
X397318Y130500D02*
X403068Y124750D01*
X417096Y125000D02*
X424250Y132154D01*
X417510Y124000D02*
X425250Y131740D01*
X417925Y123000D02*
X426250Y131325D01*
X396075Y127500D02*
X401825Y121750D01*
X418339Y122000D02*
X427250Y130911D01*
X418753Y121000D02*
X428250Y130497D01*
X395247Y125500D02*
X400997Y119750D01*
X419167Y120000D02*
X429250Y130083D01*
X419582Y119000D02*
X430250Y129669D01*
X468500Y118000D02*
Y170000D01*
X322000Y108000D02*
X335000Y121000D01*
X318000Y108000D02*
X322000D01*
X236417Y118750D02*
X242167Y124500D01*
X236003Y119750D02*
X241753Y125500D01*
X235589Y120750D02*
X241339Y126500D01*
X235175Y121750D02*
X240925Y127500D01*
X234760Y122750D02*
X240510Y128500D01*
X234346Y123750D02*
X240096Y129500D01*
X233932Y124750D02*
X239682Y130500D01*
X293818D01*
X293404Y129500D02*
X297154Y125750D01*
X240096Y129500D02*
X293404D01*
X292990Y128500D02*
X296740Y124750D01*
X240510Y128500D02*
X292990D01*
X292575Y127500D02*
X296325Y123750D01*
X240925Y127500D02*
X292575D01*
X292161Y126500D02*
X295911Y122750D01*
X241339Y126500D02*
X292161D01*
X303331Y120750D02*
X322064D01*
X302331Y119750D02*
X303331Y120750D01*
X242581Y123500D02*
X290919D01*
X302917Y121750D02*
X321650D01*
X301917Y120750D02*
X302917Y121750D01*
X291333Y124500D02*
X295083Y120750D01*
X242167Y124500D02*
X291333D01*
X302503Y122750D02*
X321235D01*
X301503Y121750D02*
X302503Y122750D01*
X291747Y125500D02*
X295497Y121750D01*
X241753Y125500D02*
X291747D01*
X302089Y123750D02*
X320821D01*
X301089Y122750D02*
X302089Y123750D01*
X301675Y124750D02*
X320407D01*
X300675Y123750D02*
X301675Y124750D01*
X301260Y125750D02*
X319993D01*
X300260Y124750D02*
X301260Y125750D01*
X300846Y126750D02*
X319578D01*
X299846Y125750D02*
X300846Y126750D01*
X300432Y127750D02*
X319164D01*
X236831Y117750D02*
X242581Y123500D01*
X318750Y128750D02*
X324500Y134500D01*
X179500Y122500D02*
X193404D01*
X230318Y126500D02*
X232068Y124750D01*
X211432D02*
X213182Y126500D01*
X207818D02*
X209568Y124750D01*
X206500Y126500D02*
X207818D01*
X213182D02*
X230318D01*
X197432Y121750D02*
X199182Y123500D01*
X193818D02*
X195568Y121750D01*
X186000Y123500D02*
X193818D01*
X199182D02*
X206575D01*
X229169Y117750D02*
X236831D01*
X227419Y119500D02*
X229169Y117750D01*
X216081Y119500D02*
X227419D01*
X229583Y118750D02*
X236417D01*
X227833Y120500D02*
X229583Y118750D01*
X215667Y120500D02*
X227833D01*
X229997Y119750D02*
X236003D01*
X228247Y121500D02*
X229997Y119750D01*
X215253Y121500D02*
X228247D01*
X230411Y120750D02*
X235589D01*
X228661Y122500D02*
X230411Y120750D01*
X214839Y122500D02*
X228661D01*
X230825Y121750D02*
X235175D01*
X229075Y123500D02*
X230825Y121750D01*
X214425Y123500D02*
X229075D01*
X231240Y122750D02*
X234760D01*
X229490Y124500D02*
X231240Y122750D01*
X214010Y124500D02*
X229490D01*
X231654Y123750D02*
X234346D01*
X229904Y125500D02*
X231654Y123750D01*
X213596Y125500D02*
X229904D01*
X232068Y124750D02*
X233932D01*
X214331Y117750D02*
X216081Y119500D01*
X206669Y117750D02*
X214331D01*
X204919Y119500D02*
X206669Y117750D01*
X200839Y119500D02*
X204919D01*
X213917Y118750D02*
X215667Y120500D01*
X207083Y118750D02*
X213917D01*
X205333Y120500D02*
X207083Y118750D01*
X200425Y120500D02*
X205333D01*
X213503Y119750D02*
X215253Y121500D01*
X207497Y119750D02*
X213503D01*
X205747Y121500D02*
X207497Y119750D01*
X200010Y121500D02*
X205747D01*
X213089Y120750D02*
X214839Y122500D01*
X207911Y120750D02*
X213089D01*
X206161Y122500D02*
X207911Y120750D01*
X199596Y122500D02*
X206161D01*
X212675Y121750D02*
X214425Y123500D01*
X208325Y121750D02*
X212675D01*
X206575Y123500D02*
X208325Y121750D01*
X212260Y122750D02*
X214010Y124500D01*
X208740Y122750D02*
X212260D01*
X206990Y124500D02*
X208740Y122750D01*
X205672Y124500D02*
X206990D01*
X211846Y123750D02*
X213596Y125500D01*
X209154Y123750D02*
X211846D01*
X207404Y125500D02*
X209154Y123750D01*
X206086Y125500D02*
X207404D01*
X209568Y124750D02*
X211432D01*
X199089Y117750D02*
X200839Y119500D01*
X193911Y117750D02*
X199089D01*
X192161Y119500D02*
X193911Y117750D01*
X184757Y119500D02*
X192161D01*
X198675Y118750D02*
X200425Y120500D01*
X194325Y118750D02*
X198675D01*
X192575Y120500D02*
X194325Y118750D01*
X184343Y120500D02*
X192575D01*
X198260Y119750D02*
X200010Y121500D01*
X194740Y119750D02*
X198260D01*
X192990Y121500D02*
X194740Y119750D01*
X183929Y121500D02*
X192990D01*
X197846Y120750D02*
X199596Y122500D01*
X195154Y120750D02*
X197846D01*
X193404Y122500D02*
X195154Y120750D01*
X195568Y121750D02*
X197432D01*
X204500Y128500D02*
X206500Y126500D01*
X204086Y127500D02*
X206086Y125500D01*
X203672Y126500D02*
X205672Y124500D01*
X184000Y125500D02*
X186000Y123500D01*
X182179Y119750D02*
X183929Y121500D01*
X182593Y118750D02*
X184343Y120500D01*
X183007Y117750D02*
X184757Y119500D01*
X177672Y126500D02*
X203672D01*
X178086Y127500D02*
X204086D01*
X178500Y128500D02*
X204500D01*
X398500Y132500D02*
X404000Y127000D01*
X363489Y221539D02*
X365300Y223350D01*
X358118Y221539D02*
X363489D01*
X355785Y223872D02*
X358118Y221539D01*
X448500Y178000D02*
X450000Y176500D01*
X277250Y164750D02*
X278000Y165500D01*
X274432Y164750D02*
X277250D01*
X271432Y161750D02*
X274432Y164750D01*
X295672Y192000D02*
X298803Y195132D01*
X290900Y192000D02*
X295672D01*
X287500Y195400D02*
X290900Y192000D01*
X287500Y206000D02*
X289000Y207500D01*
X287500Y195400D02*
Y206000D01*
X278000Y194000D02*
Y196500D01*
Y194000D02*
X280000Y192000D01*
X174250Y131336D02*
Y147932D01*
X168182Y154000D02*
X174250Y147932D01*
X200500Y162500D02*
X201600Y163600D01*
X212300D01*
Y173600D01*
Y143600D02*
Y163600D01*
X212300Y183600D02*
Y203600D01*
X212300Y203600D01*
X226500Y209000D02*
Y214000D01*
X221100Y203600D02*
X226500Y209000D01*
X212300Y203600D02*
X221100D01*
X212700Y214000D02*
X226500D01*
X212300Y213600D02*
X212700Y214000D01*
X226500D02*
Y218500D01*
X261681Y249516D02*
X282516D01*
X289500Y256500D01*
X261282Y248500D02*
X282914D01*
X260868Y247500D02*
X283328D01*
X260454Y246500D02*
X283743D01*
X260040Y245500D02*
X284157D01*
X259626Y244500D02*
X284571D01*
X259211Y243500D02*
X284985D01*
X258797Y242500D02*
X285400D01*
X258383Y241500D02*
X285814D01*
X257969Y240500D02*
X286228D01*
X257555Y239500D02*
X286642D01*
X257140Y238500D02*
X287056D01*
X275500Y236000D02*
X320318D01*
X273000Y233500D02*
X275500Y236000D01*
X271914Y233500D02*
X273000D01*
X267914Y237500D02*
X271914Y233500D01*
X256726Y237500D02*
X267914D01*
X267500Y236500D02*
X274500Y229500D01*
X256312Y236500D02*
X267500D01*
X256898Y234500D02*
X262500D01*
X264500Y232500D02*
X266000Y234000D01*
X256500Y232500D02*
X264500D01*
X287056Y238500D02*
X287806Y239250D01*
X286642Y239500D02*
X287392Y240250D01*
X286228Y240500D02*
X286978Y241250D01*
X285814Y241500D02*
X292814Y248500D01*
X285400Y242500D02*
X292400Y249500D01*
X284985Y243500D02*
X291985Y250500D01*
X284571Y244500D02*
X291571Y251500D01*
X284157Y245500D02*
X291157Y252500D01*
X283743Y246500D02*
X290743Y253500D01*
X283328Y247500D02*
X290328Y254500D01*
X282914Y248500D02*
X289914Y255500D01*
X274500Y237000D02*
X321243D01*
X273500Y236000D02*
X274500Y237000D01*
X272000Y236000D02*
X273500D01*
X274500Y229500D02*
X298318D01*
X198500Y211000D02*
Y227500D01*
X191100Y203600D02*
X198500Y211000D01*
X187300Y203600D02*
X191100D01*
X201360Y211860D02*
Y228860D01*
X198000Y208500D02*
X201360Y211860D01*
X198000Y198000D02*
Y208500D01*
X195500Y195500D02*
X198000Y198000D01*
X287806Y239250D02*
X297907D01*
X287392Y240250D02*
X298321D01*
X286978Y241250D02*
X298735D01*
X292814Y248500D02*
X333500D01*
X292400Y249500D02*
X334000D01*
X291985Y250500D02*
X342000D01*
X291571Y251500D02*
X342500D01*
X291157Y252500D02*
X342914D01*
X290743Y253500D02*
X343328D01*
X290328Y254500D02*
X343743D01*
X289914Y255500D02*
X344157D01*
X289500Y256500D02*
X345000D01*
X177900Y143600D02*
X187300D01*
X176250Y145250D02*
X177900Y143600D01*
X192000Y195500D02*
X195500D01*
X257000Y230500D02*
X263500D01*
X301250Y230250D02*
X308000Y223500D01*
X299068Y230250D02*
X301250D01*
X298318Y229500D02*
X299068Y230250D01*
X299571Y235000D02*
X319904D01*
X297071Y232500D02*
X299571Y235000D01*
X275500Y232500D02*
X297071D01*
X297907Y239250D02*
X299157Y238000D01*
X298321Y240250D02*
X299571Y239000D01*
X298735Y241250D02*
X299985Y240000D01*
X368382Y229622D02*
X368598Y229839D01*
X172000Y212500D02*
X175000Y215500D01*
X172414Y211500D02*
X176000Y215086D01*
X168500Y211500D02*
X172414D01*
X165500Y212500D02*
X172000D01*
X316750Y185750D02*
X317500Y186500D01*
X231500Y180500D02*
Y182500D01*
X234000Y185000D01*
X237500Y171000D02*
X238000Y171500D01*
Y176000D01*
X242500Y168000D02*
Y204086D01*
X234750Y211836D02*
X242500Y204086D01*
X230500Y214672D02*
X240500Y204672D01*
Y168500D02*
Y204672D01*
X238500Y166500D02*
X240500Y168500D01*
X229000Y175000D02*
X231500Y172500D01*
X227000Y175000D02*
X229000D01*
X229689Y169000D02*
X235000D01*
X224500Y174189D02*
X229689Y169000D01*
X224500Y174189D02*
Y180189D01*
X228000Y178000D02*
X229500D01*
X345078Y185578D02*
X346385D01*
X342600Y183100D02*
X345078Y185578D01*
X341380Y183100D02*
X342600D01*
X166000Y133929D02*
Y138000D01*
X177257Y125500D02*
X184000D01*
X172250Y130507D02*
Y141336D01*
X173250Y130922D02*
Y144432D01*
X172250Y130507D02*
X177257Y125500D01*
X173250Y130922D02*
X177672Y126500D01*
X174250Y131336D02*
X178086Y127500D01*
X175250Y131750D02*
X178500Y128500D01*
X168000Y124000D02*
X170250Y121750D01*
X168000Y124000D02*
Y126500D01*
X169500Y131843D02*
Y135000D01*
X171000Y142586D02*
X172250Y141336D01*
X182765Y113750D02*
X192750D01*
X183179Y114750D02*
X194583D01*
X183593Y115750D02*
X205936D01*
X182015Y114500D02*
X182765Y113750D01*
X169086Y114500D02*
X182015D01*
X182179Y115750D02*
X183179Y114750D01*
X182593Y116750D02*
X183593Y115750D01*
X169500Y148182D02*
X173250Y144432D01*
X169500Y148182D02*
Y149500D01*
X171000Y142586D02*
Y143500D01*
X223189Y180189D02*
X224500D01*
X223189D02*
X224000Y181000D01*
X227000Y183000D02*
X229000Y185000D01*
X227000Y179000D02*
Y183000D01*
Y179000D02*
X228000Y178000D01*
X236500Y179000D02*
Y189000D01*
X235500Y178000D02*
X236500Y179000D01*
X167500Y221000D02*
Y223000D01*
X242750Y215149D02*
X258000Y199899D01*
X241750Y214735D02*
X257000Y199485D01*
X240750Y214321D02*
X256000Y199071D01*
X239750Y213907D02*
X255000Y198657D01*
X238750Y213493D02*
X254000Y198243D01*
X237750Y213078D02*
X253000Y197828D01*
X244500Y203500D02*
Y204914D01*
X236750Y212664D02*
X244500Y204914D01*
X243500Y201000D02*
Y204500D01*
X235750Y212250D02*
X243500Y204500D01*
X240437Y225437D02*
X241500Y226500D01*
X255000Y190985D02*
Y198657D01*
X256000Y191400D02*
Y199071D01*
X257000Y191814D02*
Y199485D01*
X258000Y192228D02*
Y199899D01*
X253000Y169000D02*
Y197828D01*
X244500Y203500D02*
X249500Y198500D01*
Y170000D02*
Y198500D01*
X254000Y190571D02*
X256000Y188571D01*
X254000Y190571D02*
Y198243D01*
X255000Y190985D02*
X258500Y187485D01*
X256000Y191400D02*
X261000Y186399D01*
X257000Y191814D02*
X263500Y185314D01*
X258000Y192228D02*
X268991Y181237D01*
X257500Y165500D02*
Y174318D01*
X260500Y164818D02*
Y174500D01*
X256000Y175818D02*
X257500Y174318D01*
X258500Y176500D02*
X260500Y174500D01*
X266000Y110000D02*
X274500Y101500D01*
X276000Y110000D02*
X282500Y103500D01*
X408500Y185000D02*
X424500D01*
X405500Y182000D02*
X408500Y185000D01*
X341500Y180350D02*
X342500Y181350D01*
X335650Y180350D02*
X341500D01*
X342500Y181000D02*
Y181500D01*
X340250Y184230D02*
X341380Y183100D01*
X338118Y175250D02*
X339116Y176248D01*
X335150Y179350D02*
X340175D01*
X339761Y178350D02*
X341361Y176750D01*
X333712Y178350D02*
X339761D01*
X339000Y182500D02*
Y187500D01*
X331736Y172000D02*
X336282D01*
X332150Y171000D02*
X336697D01*
X332564Y170000D02*
X337111D01*
X331322Y173000D02*
X335868D01*
X338578Y171750D02*
X340182Y173354D01*
X338275Y169750D02*
X340750D01*
X335868Y173000D02*
X338118Y175250D01*
X338164Y172750D02*
X339182Y173768D01*
X337033Y172750D02*
X338164D01*
X336282Y172000D02*
X337033Y172750D01*
X337447Y171750D02*
X338578D01*
X336697Y171000D02*
X337447Y171750D01*
X338993Y170750D02*
X339243Y171000D01*
X337861Y170750D02*
X338993D01*
X337111Y170000D02*
X337861Y170750D01*
X337525Y169000D02*
X338275Y169750D01*
X339243Y171000D02*
X344775D01*
X340182Y173682D02*
X341250Y174750D01*
X340182Y173354D02*
Y173682D01*
X339182Y174096D02*
X340891Y175805D01*
X339182Y173768D02*
Y174096D01*
X341250Y174750D02*
X345250D01*
X338500Y190500D02*
X339423Y189577D01*
X426318Y213500D02*
X429068Y216250D01*
X417925Y213500D02*
X426318D01*
X425500Y214500D02*
X428500Y217500D01*
X417510Y214500D02*
X425500D01*
X417096Y215500D02*
X424914D01*
X429914Y220500D02*
X436000D01*
X424914Y215500D02*
X429914Y220500D01*
X430750Y222750D02*
X436932D01*
X424500Y216500D02*
X430750Y222750D01*
X416682Y216500D02*
X424500D01*
X387323Y229651D02*
X398500Y240828D01*
X407086Y248000D02*
X410292Y251207D01*
X406672Y249000D02*
X409878Y252207D01*
X404843Y249000D02*
X406672D01*
X398500Y242657D02*
X404843Y249000D01*
X398500Y240828D02*
Y242657D01*
X405257Y248000D02*
X407086D01*
X399500Y242243D02*
X405257Y248000D01*
X399500Y240414D02*
Y242243D01*
X389472Y230387D02*
X399500Y240414D01*
X407500Y247000D02*
X409500Y249000D01*
X405672Y247000D02*
X407500D01*
X400500Y241828D02*
X405672Y247000D01*
X400500Y240000D02*
Y241828D01*
X390472Y229972D02*
X400500Y240000D01*
X408000Y246000D02*
X410000Y248000D01*
X406086Y246000D02*
X408000D01*
X401500Y241414D02*
X406086Y246000D01*
X401500Y239500D02*
Y241414D01*
X393622Y231622D02*
X401500Y239500D01*
X406500Y245000D02*
X433500D01*
X402500Y241000D02*
X406500Y245000D01*
X402500Y233047D02*
Y241000D01*
X393622Y229622D02*
Y231622D01*
X410000Y248000D02*
X438086D01*
X390472Y223323D02*
Y229972D01*
X409500Y249000D02*
X437672D01*
X389472Y228887D02*
Y230387D01*
X410292Y251207D02*
X438464D01*
X387323Y229622D02*
Y229651D01*
X409878Y252207D02*
X438050D01*
X394500Y245000D02*
X395500D01*
X393414Y247500D02*
X397500D01*
X399000Y249000D01*
X400500Y191500D02*
X401000D01*
X402000Y182000D02*
X405500D01*
X428500Y212500D02*
X430000Y214000D01*
X418339Y212500D02*
X428500D01*
X246000Y285000D02*
X286500D01*
X240000Y291000D02*
X246000Y285000D01*
X208500Y291000D02*
X240000D01*
X243000Y293000D02*
X248000Y288000D01*
X209914Y293000D02*
X243000D01*
X216000Y294000D02*
X284000D01*
X210000Y300000D02*
X216000Y294000D01*
X208414Y294500D02*
X209914Y293000D01*
X241000Y292000D02*
X246500Y286500D01*
X209500Y292000D02*
X241000D01*
X208000Y293500D02*
X209500Y292000D01*
X207000Y292500D02*
X208500Y291000D01*
X187500Y292500D02*
X207000D01*
X205500Y294500D02*
X208414D01*
X200000Y300000D02*
X205500Y294500D01*
X196500Y293500D02*
X208000D01*
X180000Y300000D02*
X187500Y292500D01*
X246500Y286500D02*
X287500D01*
X190000Y300000D02*
X196500Y293500D01*
X248000Y288000D02*
X288000D01*
X287351Y158609D02*
X287871Y159129D01*
X277939Y163000D02*
X278189Y163250D01*
X274096Y163000D02*
X277939D01*
X278354Y162000D02*
X278604Y162250D01*
X274510Y162000D02*
X278354D01*
X278768Y161000D02*
X279018Y161250D01*
X275000Y161000D02*
X278768D01*
X279432Y160250D02*
X283225D01*
X278932Y159750D02*
X279432Y160250D01*
X272000Y158000D02*
X275000Y161000D01*
X279018Y161250D02*
X294336D01*
X271510Y159000D02*
X274510Y162000D01*
X271346Y160250D02*
X274096Y163000D01*
X278189Y163250D02*
X287750D01*
X289000Y164500D01*
X283225Y160250D02*
X284866Y158609D01*
X287351D01*
X278604Y162250D02*
X294750D01*
X289000Y164500D02*
Y174500D01*
X277864Y158500D02*
X282500D01*
X289000Y174500D02*
X292500Y178000D01*
X294336Y161250D02*
X300586Y155000D01*
X294750Y162250D02*
X301000Y156000D01*
X306907Y175179D02*
X308228Y176500D01*
X305399Y175179D02*
X306907D01*
X305328Y175250D02*
X305399Y175179D01*
X305343Y174179D02*
X307321D01*
X305164Y174000D02*
X305343Y174179D01*
X300922Y175250D02*
X305328D01*
X306914Y176600D02*
X307814Y177500D01*
X304100Y176600D02*
X306914D01*
X308228Y176500D02*
X317000D01*
X307814Y177500D02*
X317414D01*
X304914Y174250D02*
X305164Y174000D01*
X304500Y173250D02*
X305750Y172000D01*
X301750Y173250D02*
X304500D01*
X300422Y174750D02*
X300922Y175250D01*
X300836Y173750D02*
X301336Y174250D01*
X300400Y171900D02*
X301750Y173250D01*
X301336Y174250D02*
X304914D01*
X305750Y172000D02*
X314237D01*
X299750Y174750D02*
X300422D01*
X300750Y173750D02*
X300836D01*
X299000Y187500D02*
X303000D01*
X312000Y190500D02*
X314250Y188250D01*
X300000Y190500D02*
X312000D01*
X298577Y185750D02*
X316750D01*
X298992Y184750D02*
X308993D01*
X299406Y183750D02*
X308578D01*
X299820Y182750D02*
X308164D01*
X295242Y182414D02*
X298577Y185750D01*
X289586Y182414D02*
X295242D01*
X295656Y181414D02*
X298992Y184750D01*
X288086Y181414D02*
X295656D01*
X296070Y180414D02*
X299406Y183750D01*
X286086Y180414D02*
X296070D01*
X296484Y179414D02*
X299820Y182750D01*
X281672Y179414D02*
X296484D01*
X300234Y181750D02*
X307750D01*
X296484Y178000D02*
X300234Y181750D01*
X292500Y178000D02*
X296484D01*
X307750Y181750D02*
X310000Y179500D01*
X308164Y182750D02*
X308514Y182400D01*
X308578Y183750D02*
X308928Y183400D01*
X308993Y184750D02*
X309343Y184400D01*
X308928Y183400D02*
X325100D01*
X309343Y184400D02*
X321000D01*
X308514Y182400D02*
X310600D01*
X334850Y176600D02*
X335500Y177250D01*
X331907Y175000D02*
X333500D01*
X316237Y155000D02*
X319962Y158725D01*
X300586Y155000D02*
X316237D01*
X315823Y156000D02*
X319548Y159725D01*
X301000Y156000D02*
X315823D01*
X297000Y173000D02*
X300000D01*
X296250Y173750D02*
X297000Y173000D01*
X300000D02*
X300750Y173750D01*
X294600Y171900D02*
X300400D01*
X322750Y169837D02*
X323837D01*
X322750Y169775D02*
Y169837D01*
X321725Y168750D02*
X322750Y169775D01*
X320275Y168750D02*
X321725D01*
X323266Y168837D02*
X324252D01*
X322823Y168394D02*
X323266Y168837D01*
X322823Y164455D02*
Y168394D01*
X321093Y162725D02*
X322823Y164455D01*
X321507Y161725D02*
X323823Y164041D01*
X321922Y160725D02*
X324823Y163626D01*
X322336Y159725D02*
X325823Y163212D01*
X323250Y159225D02*
X326823Y162798D01*
X323250Y158725D02*
Y159225D01*
X327000Y161000D02*
X327823Y161823D01*
X327000Y152000D02*
Y161000D01*
X324252Y168837D02*
X332014Y176600D01*
X323823Y166916D02*
X331907Y175000D01*
X323823Y164041D02*
Y166916D01*
X324823Y166501D02*
X331322Y173000D01*
X324823Y163626D02*
Y166501D01*
X325823Y166087D02*
X331736Y172000D01*
X325823Y163212D02*
Y166087D01*
X326823Y165673D02*
X332150Y171000D01*
X326823Y162798D02*
Y165673D01*
X327823Y165259D02*
X332564Y170000D01*
X327823Y161823D02*
Y165259D01*
X328823Y164845D02*
X332979Y169000D01*
X328823Y161323D02*
Y164845D01*
X308642Y175500D02*
X316500D01*
X307321Y174179D02*
X308642Y175500D01*
X323837Y169837D02*
X331600Y177600D01*
X318600Y174500D02*
X321000Y172100D01*
X321514Y173000D02*
X323000D01*
X318914Y175600D02*
X321514Y173000D01*
X303000Y179500D02*
X308586D01*
X317500Y174500D02*
X318600D01*
X317900Y175600D02*
X318914D01*
X317000Y176500D02*
X317900Y175600D01*
X318314Y176600D02*
X322400D01*
X317414Y177500D02*
X318314Y176600D01*
X314250Y188250D02*
X330053D01*
X315573Y189250D02*
X329639D01*
X311691Y193132D02*
X315573Y189250D01*
X317586Y194000D02*
X324414D01*
X317577Y193991D02*
X317586Y194000D01*
X313948Y193991D02*
X317577D01*
X318475Y191000D02*
X322500D01*
X317725Y190250D02*
X318475Y191000D01*
X316275Y190250D02*
X317725D01*
X312394Y194132D02*
X316275Y190250D01*
X318000Y193000D02*
X324000D01*
X317000Y192000D02*
X318000Y193000D01*
X309500Y165000D02*
X320500D01*
X316500Y175500D02*
X317500Y174500D01*
X321837Y178100D02*
X324400D01*
X321000Y170500D02*
Y172100D01*
X324400Y178100D02*
X326500Y176000D01*
X310000Y179500D02*
X331500D01*
X332979Y169000D02*
X337525D01*
X330000Y163547D02*
X331753Y165300D01*
X330000Y160500D02*
Y163547D01*
X319250Y169775D02*
X320275Y168750D01*
X319500Y167500D02*
Y167849D01*
X319434Y167914D02*
X319500Y167849D01*
X318323Y167914D02*
X319434D01*
X310000Y161000D02*
X314500D01*
X304000Y167000D02*
X310000Y161000D01*
X303500Y164000D02*
X305000D01*
X303500Y161000D02*
X305000D01*
X303500Y158000D02*
X305500D01*
X299000Y175500D02*
X299750Y174750D01*
X314237Y172000D02*
X318323Y167914D01*
X317500Y171737D02*
X319250Y169987D01*
X282500Y187000D02*
X288086Y181414D01*
X285500Y186500D02*
X289586Y182414D01*
X273000Y190000D02*
X288500D01*
X289000Y189500D01*
X289500Y185500D02*
X294243D01*
X286000Y189000D02*
X289500Y185500D01*
X270291Y189000D02*
X286000D01*
X279500Y187000D02*
X286086Y180414D01*
X272000Y191000D02*
X273000Y190000D01*
X267646Y191646D02*
X270291Y189000D01*
X294243Y185500D02*
X295000Y186257D01*
X297500Y189000D02*
X299000Y187500D01*
X297500Y191000D02*
X299632Y193132D01*
X297500Y189000D02*
Y191000D01*
X312808Y195132D02*
X313948Y193991D01*
X295000Y189914D02*
X299217Y194132D01*
X312394D01*
X298803Y195132D02*
X312808D01*
X299632Y193132D02*
X311691D01*
X334682Y199000D02*
X342500D01*
X295123Y194123D02*
X300250Y199250D01*
X291500Y210500D02*
X293500Y208500D01*
Y204000D02*
Y208500D01*
Y204000D02*
X294354Y203147D01*
X273879Y212121D02*
X275500Y210500D01*
X274500Y216000D02*
X275500Y215000D01*
X331000Y186000D02*
X333500Y188500D01*
X336250Y190250D02*
X339000Y187500D01*
X332053Y190250D02*
X336250D01*
X333500Y188500D02*
X335500D01*
X318328Y178000D02*
X321737D01*
X317828Y178500D02*
X318328Y178000D01*
X332014Y176600D02*
X334850D01*
X331600Y177600D02*
X332962D01*
X435000Y118000D02*
X446500Y129500D01*
X422000Y118000D02*
X435000D01*
X430086Y131000D02*
X440586D01*
X424250Y132235D02*
X428500Y136485D01*
Y156914D01*
X430157Y133000D02*
X434657Y137500D01*
X430250Y129750D02*
X430500Y130000D01*
X430250Y129669D02*
Y129750D01*
X429250Y130164D02*
X430086Y131000D01*
X429250Y130083D02*
Y130164D01*
X428250Y130578D02*
X429672Y132000D01*
X428250Y130497D02*
Y130578D01*
X427250Y130993D02*
X429257Y133000D01*
X427250Y130911D02*
Y130993D01*
X426250Y131407D02*
X428843Y134000D01*
X426250Y131325D02*
Y131407D01*
X425250Y131821D02*
X428429Y135000D01*
X425250Y131740D02*
Y131821D01*
X424250Y132154D02*
Y132235D01*
X423250Y132650D02*
X427500Y136899D01*
X423250Y132568D02*
Y132650D01*
X427500Y136899D02*
Y156500D01*
X429328Y135000D02*
X429500Y135172D01*
X428429Y135000D02*
X429328D01*
X429743Y134000D02*
X430500Y134757D01*
X428843Y134000D02*
X429743D01*
X429257Y133000D02*
X430157D01*
X430571Y132000D02*
X432321Y133750D01*
X429672Y132000D02*
X430571D01*
X430500Y130000D02*
X441000D01*
X419000D02*
Y132318D01*
X415000Y126000D02*
X419000Y130000D01*
X410000Y126000D02*
X415000D01*
X408000Y128000D02*
X410000Y126000D01*
X434657Y137500D02*
X436000D01*
X432321Y133750D02*
X435432D01*
X418000Y134500D02*
X418750Y133750D01*
Y132568D02*
Y133750D01*
Y132568D02*
X419000Y132318D01*
X421000Y133500D02*
X421500Y134000D01*
X435500Y153000D02*
X437000D01*
X419500Y144757D02*
Y149000D01*
X411243Y136500D02*
X419500Y144757D01*
X425000Y166500D02*
X436318D01*
X436732Y167500D02*
X440732Y163500D01*
X424586Y167500D02*
X436732D01*
X440732Y163500D02*
X442500D01*
X440500Y158500D02*
Y162318D01*
X436318Y166500D02*
X440500Y162318D01*
X417500Y180500D02*
X418000Y181000D01*
X458500Y188000D02*
X466000Y195500D01*
X458000Y192000D02*
Y193000D01*
X454000Y188000D02*
X458000Y192000D01*
X453000Y190500D02*
X454000Y191500D01*
X466000Y195500D02*
Y199500D01*
X461500Y204000D02*
X466000Y199500D01*
X457500Y204000D02*
X461500D01*
X459750Y202250D02*
X462500Y199500D01*
X475000Y197500D02*
X477000D01*
X339500Y209500D02*
Y210500D01*
X333250Y206250D02*
X334503D01*
X333000Y206500D02*
X333250Y206250D01*
X333000Y206500D02*
Y207000D01*
X353748Y238000D02*
X362126Y229622D01*
X356662Y236500D02*
X362000D01*
X354162Y239000D02*
X356662Y236500D01*
X354576Y240000D02*
X357076Y237500D01*
X342427Y236927D02*
X348927D01*
X405000Y176500D02*
X412000Y183500D01*
X404500Y167414D02*
X412000Y174914D01*
X405500Y167000D02*
X413000Y174500D01*
X373000Y192500D02*
X374000D01*
X383500Y188004D02*
X384173Y188677D01*
X382682Y165682D02*
X383000Y166000D01*
X380500Y163000D02*
X394975D01*
X378000Y162000D02*
X395500D01*
X376500Y161000D02*
X397652D01*
X373500Y160000D02*
X406182D01*
X381682Y165682D02*
X382682D01*
X393500Y176500D02*
X405000D01*
X375000Y165000D02*
X378000Y162000D01*
X397500Y228047D02*
X402500Y233047D01*
X406000Y229000D02*
X467318D01*
X402500Y225500D02*
X406000Y229000D01*
X401500Y225500D02*
X402500D01*
X400750Y221250D02*
X402000Y220000D01*
X394173Y220173D02*
X395250Y221250D01*
X393622Y220173D02*
X394173D01*
X388173D02*
X393622D01*
X385750Y217750D02*
X388173Y220173D01*
X456000Y218000D02*
X457000D01*
X454096D02*
X456000D01*
X402250Y211250D02*
X418503D01*
X380750Y216250D02*
X385500Y211500D01*
X405000Y210000D02*
X418667D01*
X404000Y209000D02*
X405000Y210000D01*
X406000Y209000D02*
X450500D01*
X405000Y208000D02*
X406000Y209000D01*
X405414Y207000D02*
X406414Y208000D01*
X405828Y206000D02*
X406828Y207000D01*
X406243Y205000D02*
X407243Y206000D01*
X406657Y204000D02*
X407657Y205000D01*
X390086Y209500D02*
X391560Y208026D01*
X389672Y208500D02*
X391172Y207000D01*
X389257Y207500D02*
X390757Y206000D01*
X390500Y210500D02*
X391974Y209026D01*
X391215Y207000D02*
X391240Y207026D01*
X391172Y207000D02*
X391215D01*
X389029Y204900D02*
X389929Y204000D01*
X389443Y205900D02*
X390343Y205000D01*
X378400Y205900D02*
X389443D01*
X418503Y211250D02*
X418653Y211400D01*
X418089Y212250D02*
X418339Y212500D01*
X399250Y212250D02*
X418089D01*
X417675Y213250D02*
X417925Y213500D01*
X417260Y214250D02*
X417510Y214500D01*
X398750Y214250D02*
X417260D01*
X416846Y215250D02*
X417096Y215500D01*
X416432Y216250D02*
X416682Y216500D01*
X402568Y216250D02*
X416432D01*
X418667Y210000D02*
X419067Y210400D01*
X303663Y171163D02*
X303825Y171000D01*
X332500Y160500D02*
Y162000D01*
Y160500D02*
X333000Y160000D01*
X374667Y188691D02*
X374674Y188684D01*
X374717D01*
X372902Y190500D02*
X374717Y188684D01*
X365326Y185535D02*
X365600Y185809D01*
X365283Y185535D02*
X365326D01*
X365276Y185528D02*
X365283Y185535D01*
X365276Y185528D02*
Y185776D01*
X374724Y185528D02*
X377000Y183252D01*
X249687Y169601D02*
X249899D01*
X258500Y216000D02*
X274500D01*
X256500Y207000D02*
X258197Y205303D01*
X256500Y207000D02*
Y214000D01*
X258500Y216000D01*
X259379Y212121D02*
X273879D01*
X371500Y165000D02*
X375000D01*
X377500D02*
X378500D01*
X380500Y163000D01*
X375500Y162000D02*
X376500Y161000D01*
X375500Y162000D02*
Y162500D01*
X394975Y163000D02*
X398975Y167000D01*
X395500Y162000D02*
X399500Y166000D01*
X397652Y161000D02*
X400652Y164000D01*
X406182Y160000D02*
X409000Y162818D01*
X398975Y167000D02*
X403404D01*
X399500Y166000D02*
X403818D01*
X372000Y161500D02*
X373500Y160000D01*
X388750Y167750D02*
X390423Y169423D01*
X388250Y168750D02*
X390115Y170615D01*
X366400Y196900D02*
X373000D01*
X364874Y198000D02*
X372525D01*
X365288Y199000D02*
X371500D01*
X373000Y192500D02*
X373548D01*
X331613Y179613D02*
X332350D01*
Y179463D02*
Y179613D01*
X331500Y179500D02*
X331613Y179613D01*
X343000Y151000D02*
Y155000D01*
X406596Y159000D02*
X411000Y163404D01*
X412000Y174914D02*
Y178500D01*
X408500Y172828D02*
Y176500D01*
X403500Y167828D02*
X408500Y172828D01*
X403500Y167096D02*
Y167828D01*
X403404Y167000D02*
X403500Y167096D01*
X404500Y166682D02*
Y167414D01*
X403818Y166000D02*
X404500Y166682D01*
X413000Y174500D02*
Y176318D01*
X405500Y164500D02*
Y167000D01*
X417000D02*
X417500D01*
X414750Y167553D02*
Y170502D01*
Y167553D02*
X415250Y167053D01*
X413750Y167139D02*
Y170916D01*
Y167139D02*
X414250Y166639D01*
X412750Y166725D02*
Y171331D01*
Y166725D02*
X413250Y166225D01*
Y142750D02*
Y166225D01*
X411000Y165500D02*
X411500D01*
X423836Y166750D02*
X424586Y167500D01*
X422750Y166750D02*
X423836D01*
X423000Y164500D02*
X425000Y166500D01*
X421500Y165500D02*
X422750Y166750D01*
X320725Y154189D02*
Y155775D01*
X323000Y155500D02*
X323500Y155000D01*
X324000Y154500D01*
X474000Y177500D02*
Y190000D01*
Y177500D02*
X490000Y161500D01*
X319250Y169775D02*
Y169987D01*
X303500Y171000D02*
Y171000D01*
X303663Y171163D01*
X305500Y158000D02*
X306000Y157500D01*
X324000Y151990D02*
Y154500D01*
X318000Y153500D02*
X319661D01*
X327250Y145911D01*
X321747Y150000D02*
X326250Y145497D01*
X317000Y150000D02*
X321747D01*
X315000Y152000D02*
X317000Y150000D01*
X321833Y148500D02*
X325250Y145083D01*
X315101Y148500D02*
X321833D01*
X313300Y150300D02*
X315101Y148500D01*
X322419Y146500D02*
X324250Y144669D01*
X312151Y146500D02*
X322419D01*
X310825Y147825D02*
X312151Y146500D01*
X318305Y162725D02*
X321093D01*
X318720Y161725D02*
X321507D01*
X319134Y160725D02*
X321922D01*
X319548Y159725D02*
X322336D01*
X319962Y158725D02*
X323250D01*
X325000Y158500D02*
X325500Y158000D01*
X343000Y151000D02*
X344000Y150000D01*
X305000Y164000D02*
X309500Y159500D01*
X305000Y161000D02*
X307500Y158500D01*
X368000Y161737D02*
Y162000D01*
X321000Y184400D02*
X322100Y185500D01*
X324414D01*
X371000Y165000D02*
X371500D01*
X326000Y209500D02*
X332975D01*
X343000Y179000D02*
X343500Y178500D01*
X362750Y201538D02*
Y206164D01*
X360100Y207400D02*
X361750Y205750D01*
X360514Y208400D02*
X362750Y206164D01*
X374674Y181836D02*
Y182385D01*
X390423Y169423D02*
X397077D01*
X390115Y170615D02*
X403024D01*
X330250Y147068D02*
Y147154D01*
Y147068D02*
X337859Y139459D01*
X353223D01*
X337445Y138459D02*
X353638D01*
X329250Y146654D02*
X337445Y138459D01*
X329250Y146654D02*
Y146740D01*
X324000Y151990D02*
X329250Y146740D01*
X337031Y137459D02*
X354052D01*
X328250Y146240D02*
X337031Y137459D01*
X328250Y146240D02*
Y146325D01*
X323000Y151575D02*
X328250Y146325D01*
X336617Y136459D02*
X354466D01*
X327250Y145825D02*
X336617Y136459D01*
X327250Y145825D02*
Y145911D01*
X336203Y135459D02*
X354880D01*
X326250Y145411D02*
X336203Y135459D01*
X326250Y145411D02*
Y145497D01*
X335788Y134459D02*
X355294D01*
X325250Y144997D02*
X335788Y134459D01*
X325250Y144997D02*
Y145083D01*
X335374Y133459D02*
X355709D01*
X324250Y144583D02*
X335374Y133459D01*
X324250Y144583D02*
Y144669D01*
X334960Y132459D02*
X356123D01*
X323250Y144169D02*
X334960Y132459D01*
X323250Y144169D02*
Y144254D01*
X322154Y145351D02*
X323250Y144254D01*
X308350Y145351D02*
X322154D01*
X362510Y214601D02*
X362861Y214250D01*
X362250Y216275D02*
X363275Y215250D01*
X362250Y216275D02*
Y216389D01*
X367000Y194500D02*
X368000Y195500D01*
X380500Y216000D02*
X380750Y216250D01*
X379275Y217750D02*
X385750D01*
X322400Y205900D02*
X326000Y209500D01*
X322135Y207049D02*
X325586Y210500D01*
X371526Y226462D02*
Y226522D01*
X371224Y226160D02*
X371526Y226462D01*
X370982Y227065D02*
X371526Y226522D01*
X370982Y227065D02*
Y228328D01*
X371137Y228483D01*
X371374Y223161D02*
Y223166D01*
X371524Y223316D01*
X357748Y223323D02*
X358976D01*
X352500Y229799D02*
Y233354D01*
X374674Y182385D02*
X374717D01*
X374724Y182378D01*
X397077Y169423D02*
X398000Y168500D01*
X293484Y173016D02*
X294600Y171900D01*
X297000Y200250D02*
X298422D01*
X295500Y197000D02*
X296586D01*
X324414Y185500D02*
X327414Y182500D01*
X268991Y177191D02*
X270500Y175682D01*
X275191Y177191D02*
X277500Y179500D01*
X266500Y206000D02*
X276500D01*
X264496Y208004D02*
X266500Y206000D01*
X470010Y247000D02*
X476500D01*
X469760Y247250D02*
X470010Y247000D01*
X472096Y251000D02*
X476500D01*
X469346Y248250D02*
X472096Y251000D01*
X470250Y251750D02*
X474000Y255500D01*
X470250Y250568D02*
Y251750D01*
X468932Y249250D02*
X470250Y250568D01*
X474000Y255500D02*
X480500D01*
X356164Y132500D02*
X398500D01*
X356123Y132459D02*
X356164Y132500D01*
X355750Y133500D02*
X398914D01*
X355709Y133459D02*
X355750Y133500D01*
X355294Y134459D02*
X355336Y134500D01*
X354880Y135459D02*
X354922Y135500D01*
X354466Y136459D02*
X354507Y136500D01*
X354052Y137459D02*
X354093Y137500D01*
X353638Y138459D02*
X353679Y138500D01*
X353223Y139459D02*
X353265Y139500D01*
X400414Y132000D02*
X416500D01*
X398914Y133500D02*
X400414Y132000D01*
X464000Y253500D02*
X466000Y255500D01*
X466732Y251000D02*
X467500D01*
X465232Y252500D02*
X466732Y251000D01*
X439757Y252500D02*
X465232D01*
X440172Y251500D02*
X464818D01*
X464404Y250500D02*
X466654Y248250D01*
X463990Y249500D02*
X466240Y247250D01*
X441000Y249500D02*
X463990D01*
X440586Y250500D02*
X464404D01*
X439343Y253500D02*
X464000D01*
X437672Y249000D02*
X440172Y251500D01*
X438086Y248000D02*
X440586Y250500D01*
X438050Y252207D02*
X439343Y253500D01*
X438464Y251207D02*
X439757Y252500D01*
X436500Y245000D02*
X441000Y249500D01*
X434000Y239500D02*
X471000D01*
X433500Y240000D02*
X434000Y239500D01*
X431500Y242500D02*
X462000D01*
X466240Y247250D02*
X469760D01*
X466654Y248250D02*
X469346D01*
X467068Y249250D02*
X468932D01*
X464818Y251500D02*
X467068Y249250D01*
X480500Y255500D02*
X482750Y257750D01*
X475182Y221500D02*
X483750Y230068D01*
X482750Y267750D02*
X486000Y271000D01*
X483750Y266250D02*
X485500Y268000D01*
X483750Y230068D02*
Y266250D01*
X482750Y257750D02*
Y267750D01*
X291500Y173016D02*
X293484D01*
X467500Y251000D02*
X468000Y251500D01*
X459510Y221500D02*
X475182D01*
X457932Y220250D02*
X461682Y216500D01*
X490328D02*
X496500D01*
X489328Y215500D02*
X490328Y216500D01*
X461268Y215500D02*
X489328D01*
X460268Y216500D02*
X461268Y215500D01*
X458500Y216500D02*
X460268D01*
X491414Y219000D02*
X494500D01*
X488914Y216500D02*
X491414Y219000D01*
X461682Y216500D02*
X488914D01*
X488500Y217500D02*
X494500Y223500D01*
X462096Y217500D02*
X488500D01*
X458346Y221250D02*
X462096Y217500D01*
X457000Y218000D02*
X458500Y216500D01*
X496500D02*
X502500Y222500D01*
X494500Y219000D02*
X497500Y222000D01*
X459000Y197672D02*
Y199182D01*
X454750Y197750D02*
X456000Y199000D01*
X454750Y194836D02*
Y197750D01*
X453750Y195250D02*
Y199932D01*
X456932Y201250D02*
X459000Y199182D01*
X455068Y201250D02*
X456932D01*
X453750Y199932D02*
X455068Y201250D01*
X421843Y183500D02*
X427343Y178000D01*
X448500D01*
X412000Y183500D02*
X421843D01*
X466000Y259500D02*
X471500Y265000D01*
X466000Y255500D02*
Y259500D01*
X471500Y265000D02*
Y270000D01*
X247182Y217000D02*
X250432Y220250D01*
X248000Y221000D02*
X248250Y221250D01*
X303825Y170675D02*
X309500Y165000D01*
X319000Y167500D02*
X319500D01*
X325000Y157500D02*
X325500Y158000D01*
X320725Y154189D02*
X323000Y151914D01*
X339000Y211000D02*
Y211500D01*
X346378Y213874D02*
Y214878D01*
X418653Y211400D02*
X447496D01*
X419067Y210400D02*
X451100D01*
X433932Y215750D02*
X435682Y217500D01*
X431432Y215750D02*
X433932D01*
X430932Y216250D02*
X431432Y215750D01*
X429068Y216250D02*
X430932D01*
X423836Y223750D02*
X437664D01*
X435682Y217500D02*
X442000D01*
X456068Y202250D02*
X459750D01*
X455250Y203068D02*
X456068Y202250D01*
X455250Y203068D02*
Y204250D01*
X450500Y209000D02*
X455250Y204250D01*
X323000Y151575D02*
Y151914D01*
X277273Y157909D02*
X277864Y158500D01*
X414000Y172581D02*
Y174500D01*
X416500Y177000D01*
X417334Y174500D02*
X440500D01*
X416248Y172000D02*
X436500D01*
X414250Y178432D02*
X416318Y180500D01*
X414250Y177568D02*
Y178432D01*
X403677Y230000D02*
X426500D01*
X410250Y225568D02*
Y226068D01*
X409818Y226500D02*
X410250Y226068D01*
X407500Y226500D02*
X409818D01*
X346353Y182353D02*
X346378Y182378D01*
X436500Y172000D02*
X439000Y169500D01*
X440500Y174500D02*
X442000Y173000D01*
X490000Y161500D02*
X508000D01*
X449000Y134000D02*
X449500D01*
X446500Y131500D02*
X449000Y134000D01*
X435432Y133750D02*
X441000Y139318D01*
X419750Y134250D02*
X421250D01*
X421500Y134000D01*
X451250Y217750D02*
X453750Y220250D01*
X451250Y216568D02*
Y217750D01*
X453750Y220250D02*
X457932D01*
X447496Y211400D02*
X454096Y218000D01*
X447432Y215250D02*
X449932D01*
X451250Y216568D01*
X452507Y223250D02*
X459175D01*
X452922Y222250D02*
X458760D01*
X453336Y221250D02*
X458346D01*
X441500Y222500D02*
X451757D01*
X452507Y223250D01*
X452172Y221500D02*
X452922Y222250D01*
X451586Y221500D02*
X452172D01*
X452586Y220500D02*
X453336Y221250D01*
X452000Y220500D02*
X452586D01*
X429500Y135172D02*
Y157328D01*
X430500Y134757D02*
Y148000D01*
X441000Y139318D02*
Y141500D01*
X430500Y148000D02*
X435500Y153000D01*
X423000Y163828D02*
Y164500D01*
Y163828D02*
X429500Y157328D01*
X421500Y163914D02*
Y165500D01*
Y163914D02*
X428500Y156914D01*
X417000Y167000D02*
X427500Y156500D01*
X401500Y225500D02*
X402000Y225000D01*
X459925Y222500D02*
X474682D01*
X459175Y223250D02*
X459925Y222500D01*
X458760Y222250D02*
X459510Y221500D01*
X450336Y220250D02*
X451586Y221500D01*
X443846Y220250D02*
X450336D01*
X449000Y217500D02*
X452000Y220500D01*
X474682Y222500D02*
X477750Y225568D01*
X472750Y224750D02*
X474500Y226500D01*
X442932Y224750D02*
X472750D01*
X442932Y219750D02*
X447432Y215250D01*
X440346Y220750D02*
X443346D01*
X439250Y221846D02*
X440346Y220750D01*
X439250Y221846D02*
Y222164D01*
X439932Y219750D02*
X442932D01*
X436932Y222750D02*
X439932Y219750D01*
X437664Y223750D02*
X439250Y222164D01*
X442432Y225250D02*
X442932Y224750D01*
X441500Y222500D02*
Y223000D01*
X443346Y220750D02*
X443846Y220250D01*
X486000Y271000D02*
X498000D01*
X485500Y268000D02*
X500964D01*
X433500Y245000D02*
X436500D01*
X387323Y226737D02*
X389472Y228887D01*
X387323Y226472D02*
Y226737D01*
X413818Y226500D02*
X415068Y227750D01*
X477750Y227250D02*
X480500Y230000D01*
X477750Y225568D02*
Y227250D01*
X479818Y234000D02*
X480500D01*
X474500Y226500D02*
X475500D01*
X422336Y222250D02*
X423836Y223750D01*
X412568Y223250D02*
X421922D01*
X401400Y220100D02*
X402000Y220000D01*
X428500Y217500D02*
X432500D01*
X418000Y225500D02*
X421500D01*
X298500Y129000D02*
X298750Y128750D01*
X236000Y158500D02*
Y159500D01*
X449500Y133500D02*
Y134000D01*
X446500Y129500D02*
Y131500D01*
X438000Y156000D02*
X446500D01*
X434500Y159500D02*
X438000Y156000D01*
X434500Y159500D02*
Y163500D01*
X453250Y138568D02*
Y143250D01*
X451432Y136750D02*
X453250Y138568D01*
X447750Y136750D02*
X451432D01*
X453000Y143500D02*
X453250Y143250D01*
X201000Y275000D02*
X203500Y272500D01*
X210500Y275000D02*
X272500D01*
X191500Y275318D02*
Y275500D01*
X348927Y236927D02*
X352500Y233354D01*
X501982Y266982D02*
X502000Y267000D01*
Y268000D01*
X500964D02*
X501982Y266982D01*
X412500Y226500D02*
X413818D01*
X410250Y225568D02*
X412568Y223250D01*
X393622Y223323D02*
X394695Y222250D01*
X497000Y178500D02*
X499000Y176500D01*
X508500D01*
X494500Y223500D02*
Y224000D01*
X497500Y222000D02*
Y224000D01*
X472318Y226500D02*
X479818Y234000D01*
X467318Y229000D02*
X467568Y228750D01*
X469432D01*
X479750Y237654D02*
Y238250D01*
X469432Y228750D02*
X477000Y236318D01*
Y242500D01*
X435000Y231000D02*
X468500D01*
X432000Y234000D02*
X435000Y231000D01*
X502500Y222500D02*
Y223000D01*
X463500Y244000D02*
X471500D01*
X304000Y131000D02*
X317500D01*
X298750Y128750D02*
X318750D01*
X203500Y272500D02*
X264500D01*
X237500Y166500D02*
X238500D01*
X270500Y164000D02*
Y175682D01*
X236000Y159500D02*
X237000Y160500D01*
X267500Y167000D02*
Y174500D01*
X264500Y164000D02*
Y174500D01*
X260500Y164818D02*
X263568Y161750D01*
X257500Y162318D02*
Y165500D01*
Y162318D02*
X259568Y160250D01*
X335000Y229500D02*
X342427Y236927D01*
X246500Y217000D02*
X247182D01*
X402088Y228412D02*
X403677Y230000D01*
X421500Y225500D02*
X422500Y226500D01*
X421922Y223250D02*
X423922Y225250D01*
X442432D01*
X422500Y226500D02*
X472318D01*
X469846Y227750D02*
X479750Y237654D01*
X415068Y227750D02*
X469846D01*
X426500Y230000D02*
X429500Y233000D01*
Y240500D01*
X431500Y242500D01*
X462000D02*
X463000Y243500D01*
X371524Y223316D02*
X371568D01*
X413000Y176318D02*
X414250Y177568D01*
X413750Y170916D02*
X417334Y174500D01*
X414750Y170502D02*
X416248Y172000D01*
X412750Y171331D02*
X414000Y172581D01*
X416318Y180500D02*
X417500D01*
X409500Y168000D02*
X409750Y167750D01*
X409000Y162818D02*
Y167000D01*
X411000Y163404D02*
Y165500D01*
X402000Y220000D02*
X424000D01*
X405409Y173000D02*
X406000D01*
X400652Y164000D02*
X401500D01*
X403024Y170615D02*
X405409Y173000D01*
X395000Y174000D02*
X395500Y174500D01*
X253000Y169000D02*
X254000Y168000D01*
X250500Y163500D02*
X256000Y158000D01*
X254182Y155500D02*
X273318D01*
X237000Y160500D02*
X249182D01*
X254182Y155500D01*
X277346Y159750D02*
X278932D01*
X256000Y158000D02*
X272000D01*
X273318Y155500D02*
X275727Y157909D01*
X277273D01*
X263568Y161750D02*
X271432D01*
X259568Y160250D02*
X271346D01*
X257000Y159000D02*
X271510D01*
X249750Y166250D02*
X257000Y159000D01*
X248568Y166250D02*
X249750D01*
X289000Y207500D02*
X291000D01*
X247409Y167409D02*
X248568Y166250D01*
X249500Y170000D02*
X250500Y169000D01*
X244500Y164500D02*
X245500Y165500D01*
X247500Y163500D02*
X250500D01*
X245500Y165500D02*
X247500Y163500D01*
X374000Y169500D02*
X374100Y169600D01*
X365262Y182392D02*
X365262D01*
X365276Y182378D01*
X322400Y176600D02*
X323000Y176000D01*
X346378Y185528D02*
X346385Y185535D01*
Y185578D01*
X331000Y213500D02*
X331400Y213100D01*
X295600Y205900D02*
X322400D01*
X393000Y185000D02*
Y187750D01*
X374000Y192500D02*
X375500Y191000D01*
X391000Y182000D02*
Y183000D01*
X393000Y185000D01*
X391701Y178000D02*
X392000D01*
X393500Y176500D01*
X383500Y184414D02*
Y186414D01*
X383624Y186538D01*
Y186648D01*
X383500Y186772D02*
X383624Y186648D01*
X383500Y186772D02*
Y188004D01*
Y184414D02*
X384500Y183414D01*
X380972Y185528D02*
X383500Y183000D01*
X391000Y182000D02*
X394500Y178500D01*
X395500D01*
X328911Y205250D02*
X334089D01*
X325586Y210500D02*
X333389D01*
X335389Y208500D01*
X337000D01*
X360275Y214750D02*
X361725D01*
X361874Y214601D02*
X362510D01*
X359000Y192500D02*
X359650D01*
X342500Y210500D02*
X342657D01*
X339500Y209500D02*
X340500Y208500D01*
X343243D01*
X368000Y161737D02*
X370737Y159000D01*
X328250Y152336D02*
Y160750D01*
Y152336D02*
X335586Y145000D01*
X326000Y151404D02*
X330250Y147154D01*
X326000Y151404D02*
Y156500D01*
X325000Y157500D02*
X326000Y156500D01*
X327000Y152000D02*
X336500Y142500D01*
X335586Y145000D02*
X338000D01*
X336500Y142500D02*
X343000D01*
X355891Y240100D02*
X358900D01*
X359000Y240000D01*
X354991Y241000D02*
X355891Y240100D01*
X334089Y205250D02*
X335161Y204178D01*
X334503Y206250D02*
X335575Y205178D01*
X332975Y209500D02*
X336297Y206178D01*
X451100Y210400D02*
X457500Y204000D01*
X328250Y160750D02*
X328823Y161323D01*
X303825Y170675D02*
Y171000D01*
X376700Y168600D02*
X377550Y167750D01*
X378525Y168750D02*
X388250D01*
X374200Y168988D02*
X374438Y168750D01*
X369500Y186602D02*
X371575Y188677D01*
X368000Y195500D02*
X373125D01*
X371000Y194500D02*
X374500D01*
X368500Y188500D02*
X370500Y190500D01*
X372902D01*
X367500Y191000D02*
X371000Y194500D01*
X377867Y185528D02*
X380972D01*
X374438Y168750D02*
X375075D01*
X370500Y181303D02*
X371575Y182378D01*
X373325Y181653D02*
Y181836D01*
X374674D01*
X377000Y180500D02*
Y183252D01*
X376000Y179500D02*
X377000Y180500D01*
X389000Y184035D02*
X390500Y185535D01*
X389000Y180500D02*
Y184035D01*
X384600Y171486D02*
Y171625D01*
X384750Y171775D01*
X384000Y173975D02*
X384750Y173225D01*
Y171775D02*
Y173225D01*
X384000Y173975D02*
Y177000D01*
X383000Y175995D02*
Y177414D01*
X384500Y178914D01*
Y183414D01*
X382000Y177828D02*
X383500Y179328D01*
Y183000D01*
X381000Y181202D02*
X381600Y181802D01*
X384000Y177000D02*
X387323Y180323D01*
Y185528D01*
X385000Y176500D02*
X389000Y180500D01*
X385000Y174389D02*
Y176500D01*
X391500Y165000D02*
X394000D01*
X383000Y166000D02*
X390500D01*
X391500Y165000D01*
X390000Y174500D02*
X395500D01*
X388000Y172500D02*
X390000Y174500D01*
X385000Y174389D02*
X386000Y173389D01*
Y171000D02*
Y173389D01*
X384750Y169750D02*
X386000Y171000D01*
X375075Y168750D02*
X376075Y169750D01*
X377525D01*
X378525Y168750D01*
X374925Y170738D02*
X374937Y170750D01*
X374511Y171738D02*
X374523Y171750D01*
X374096Y172738D02*
X374109Y172750D01*
X373682Y173738D02*
X373694Y173750D01*
X373268Y174738D02*
X373280Y174750D01*
X372854Y175738D02*
X372866Y175750D01*
X372440Y176738D02*
X372452Y176750D01*
X352654Y192714D02*
X353166Y193226D01*
X362750Y201538D02*
X365288Y199000D01*
X361750Y201124D02*
Y205750D01*
Y201124D02*
X364874Y198000D01*
X352654Y191847D02*
Y192714D01*
X342657Y210500D02*
X344657Y208500D01*
X343243D02*
X344565Y207178D01*
X336750Y163275D02*
Y163750D01*
X348742Y188742D02*
X349549D01*
X355277Y195125D02*
Y202352D01*
X353378Y193226D02*
X355277Y195125D01*
X353166Y193226D02*
X353378D01*
X333000Y160000D02*
X335000D01*
X331329Y158671D02*
X332000Y158000D01*
X329500D02*
X331000Y156500D01*
X329500Y158000D02*
Y160000D01*
X330000Y160500D01*
X386598Y196376D02*
X388048D01*
X376500Y196000D02*
X381000D01*
X383000Y194000D01*
X374500Y194500D02*
X375000Y194000D01*
X379500D01*
X375500Y191000D02*
X376025D01*
X376775Y190250D01*
X378225D01*
X378975Y191000D01*
X373125Y195500D02*
X376172Y198547D01*
X373000Y196900D02*
X375647Y199547D01*
X394695Y222250D02*
X422336D01*
X395250Y221250D02*
X400750D01*
X393622Y217024D02*
Y217097D01*
X398568Y220250D02*
X402568Y216250D01*
X393622Y217097D02*
X396775Y220250D01*
X398568D01*
X398904Y218500D02*
X402154Y215250D01*
X416846D01*
X397500Y218500D02*
X398904D01*
X400000Y209000D02*
X402250Y211250D01*
X400414Y208000D02*
X401414Y209000D01*
X404000D01*
X400828Y207000D02*
X401828Y208000D01*
X401243Y206000D02*
X402243Y207000D01*
X405414D01*
X401657Y205000D02*
X402657Y206000D01*
X405828D01*
X402071Y204000D02*
X403071Y205000D01*
X406243D01*
X402485Y203000D02*
X403485Y204000D01*
X406657D01*
X401828Y208000D02*
X405000D01*
X395787Y203000D02*
X402485D01*
X396201Y204000D02*
X402071D01*
X396615Y205000D02*
X401657D01*
X397029Y206000D02*
X401243D01*
X397444Y207000D02*
X400828D01*
X397858Y208000D02*
X400414D01*
X390757Y206000D02*
X391629D01*
X391654Y206026D01*
X385500Y211500D02*
X392500D01*
X392483Y204026D02*
X394761D01*
X395787Y203000D01*
X392069Y205026D02*
X395175D01*
X396201Y204000D01*
X395589Y206026D02*
X396615Y205000D01*
X396004Y207026D02*
X397029Y206000D01*
X396418Y208026D02*
X397444Y207000D01*
X396832Y209026D02*
X397858Y208000D01*
X392500Y211500D02*
X393974Y210026D01*
X397246D01*
X398272Y209000D01*
X400000D01*
X391654Y206026D02*
X395589D01*
X391240Y207026D02*
X396004D01*
X391560Y208026D02*
X396418D01*
X391974Y209026D02*
X396832D01*
X392043Y205000D02*
X392069Y205026D01*
X390343Y205000D02*
X392043D01*
X392457Y204000D02*
X392483Y204026D01*
X389929Y204000D02*
X392457D01*
X398500Y211500D02*
X399250Y212250D01*
X390472Y216980D02*
X394203Y213250D01*
X417675D01*
X326911Y203250D02*
X328911Y205250D01*
X292500Y214000D02*
X299451Y207049D01*
X322135D01*
X295500Y206000D02*
X295600Y205900D01*
X295000Y186257D02*
Y189914D01*
X335000Y160000D02*
X336250Y161250D01*
X340250Y184230D02*
Y185725D01*
X335500Y176500D02*
Y177250D01*
X357823Y188677D02*
X359000D01*
X360750Y195250D02*
Y205250D01*
X351150Y184000D02*
X352677Y185528D01*
X364689Y181792D02*
X365276Y182378D01*
X352189Y178000D02*
X352282Y178093D01*
X352093D02*
X352282D01*
X344000Y193000D02*
X345000Y194000D01*
X348524D01*
X409000Y167000D02*
X409750Y167750D01*
X351500Y165000D02*
Y165500D01*
X359650Y192500D02*
X361400Y194250D01*
X363750D01*
X366400Y196900D01*
X359750Y194250D02*
X360750Y195250D01*
X358775Y194250D02*
X359750D01*
X357500Y192975D02*
X358775Y194250D01*
X357500Y192086D02*
Y192975D01*
X356500Y191086D02*
X357500Y192086D01*
X354000Y190000D02*
X356500Y192500D01*
Y195000D01*
X358500Y197000D01*
X356500Y190000D02*
Y191086D01*
Y190000D02*
X357823Y188677D01*
X359000Y181000D02*
Y182378D01*
Y182500D01*
X357000Y178000D02*
X358000D01*
X379250Y169750D02*
X384750D01*
X380449Y173750D02*
X380899Y174200D01*
X381205D01*
X381000Y177130D02*
Y181202D01*
X381385Y176100D02*
X381691D01*
X382000Y176409D01*
Y177828D01*
X381205Y174200D02*
X383000Y175995D01*
X378914Y171500D02*
X381000D01*
X381750Y170750D01*
X384000D01*
Y170900D01*
X384014D01*
X384600Y171486D01*
X370737Y159000D02*
X406596D01*
X374937Y170750D02*
X378250D01*
X379250Y169750D01*
X376000Y178500D02*
Y179500D01*
X367500Y180319D02*
Y191000D01*
X359674Y168250D02*
X370500Y179076D01*
Y181303D01*
X360088Y167250D02*
X371500Y178662D01*
Y179828D01*
X373325Y181653D01*
X372452Y176750D02*
X376725D01*
X377175Y177200D01*
X377200D01*
X378500Y178500D01*
X372866Y175750D02*
X379620D01*
X381000Y177130D01*
X373280Y174750D02*
X380035D01*
X381385Y176100D01*
X373694Y173750D02*
X380449D01*
X374109Y172750D02*
X379078D01*
X379328Y172500D01*
X383000D01*
X374523Y171750D02*
X378664D01*
X378914Y171500D01*
X377550Y167750D02*
X388750D01*
X355827Y185528D02*
X358325D01*
X358000Y178000D02*
X360750Y180750D01*
X362000Y185400D02*
X362200Y185600D01*
X342000Y185000D02*
X344500Y187500D01*
X347500D01*
X348742Y188742D01*
X348500Y184515D02*
X349585Y185600D01*
X334000Y166500D02*
X336750Y163750D01*
X345149Y179326D02*
X345250Y179225D01*
X351150Y180650D02*
Y184000D01*
X332000Y158000D02*
X336000D01*
X331000Y156500D02*
X336000D01*
X336750Y163275D02*
X337775Y162250D01*
X341500Y156500D02*
X343000Y155000D01*
X336000Y156500D02*
X338750Y159250D01*
X336000Y158000D02*
X338250Y160250D01*
X338500Y164000D02*
X339250Y163250D01*
X357862Y166000D02*
X358112Y166250D01*
X360502D01*
X355500Y180000D02*
X358000D01*
X359000Y181000D01*
X360750Y180750D02*
Y183103D01*
X358325Y185528D02*
X360750Y183103D01*
X373475Y170738D02*
X374925D01*
X373061Y171738D02*
X374511D01*
X372647Y172738D02*
X374096D01*
X372233Y173738D02*
X373682D01*
X371818Y174738D02*
X373268D01*
X371404Y175738D02*
X372854D01*
X363000Y183500D02*
X365276Y185776D01*
X350000Y176500D02*
X351525D01*
X351775Y176250D01*
X361330Y164250D02*
X371818Y174738D01*
X360916Y165250D02*
X371404Y175738D01*
X345149Y179326D02*
X346378Y180555D01*
Y182378D01*
X346250Y179013D02*
X348500Y181263D01*
Y184515D01*
X346250Y177361D02*
Y179013D01*
X352262Y166000D02*
X357862D01*
X358691Y164000D02*
X358941Y164250D01*
X361330D01*
X358276Y165000D02*
X358526Y165250D01*
X360916D01*
X350775Y167250D02*
X360088D01*
X349224Y201000D02*
X349500Y201276D01*
X350130Y197500D02*
X352654Y194976D01*
X348524Y194000D02*
X349500Y194976D01*
X348000Y190000D02*
X348500Y190500D01*
X350500D01*
X351000Y190000D01*
X354000D01*
X272000Y191000D02*
Y191500D01*
X324414Y194000D02*
X324423Y193991D01*
X362000Y179500D02*
Y185400D01*
X363000Y178647D02*
Y183500D01*
X364689Y178922D02*
Y181792D01*
X368500Y179905D02*
Y188500D01*
X359259Y169250D02*
X369500Y179491D01*
Y186602D01*
X360502Y166250D02*
X370990Y176738D01*
X372440D01*
X325100Y183400D02*
X327000Y181500D01*
X339250Y163250D02*
X342836D01*
X342007Y161250D02*
X343007Y160250D01*
X338250D02*
X341593D01*
X342593Y159250D01*
X338750D02*
X341179D01*
X342179Y158250D01*
X337775Y162250D02*
X342422D01*
X336250Y161250D02*
X342007D01*
X342422Y162250D02*
X343422Y161250D01*
X358997Y160503D02*
X372233Y173738D01*
X358000Y163000D02*
Y164000D01*
X355788D02*
X356788Y165000D01*
X358276D01*
X355000Y164000D02*
X355788D01*
X344225Y176750D02*
X345250Y177775D01*
Y179225D01*
X344639Y175750D02*
X346250Y177361D01*
X345250Y174750D02*
X351150Y180650D01*
X349536Y166011D02*
X350775Y167250D01*
X348432Y166321D02*
X350465Y168353D01*
X351086D01*
X351189Y168250D01*
X359409Y159500D02*
X372647Y172738D01*
X359823Y158500D02*
X373061Y171738D01*
X360237Y157500D02*
X373475Y170738D01*
X342975Y157500D02*
X360237D01*
X343389Y158500D02*
X359823D01*
X343803Y159500D02*
X359409D01*
X344217Y160500D02*
X358672D01*
X342179Y158250D02*
X342225D01*
X342975Y157500D01*
X342593Y159250D02*
X342639D01*
X343389Y158500D01*
X343007Y160250D02*
X343053D01*
X343803Y159500D01*
X343422Y161250D02*
X343467D01*
X344217Y160500D01*
X343836Y162250D02*
X343882D01*
X344632Y161500D01*
X342000Y165500D02*
X342046D01*
X345046Y162500D01*
X342836Y163250D02*
X343836Y162250D01*
X345046Y162500D02*
X347500D01*
X348432Y163432D01*
Y166321D01*
X347914Y161500D02*
X349536Y163122D01*
X344632Y161500D02*
X347914D01*
X349536Y163122D02*
Y166011D01*
X346000Y164500D02*
Y165836D01*
X332962Y177600D02*
X333712Y178350D01*
X327000Y181500D02*
X333000D01*
X335150Y179350D01*
X327414Y182500D02*
X333500D01*
X335650Y180350D01*
X339328Y168000D02*
X340525D01*
X344500Y167000D02*
X345500Y168000D01*
X346750D01*
X340263Y201000D02*
X349224D01*
X335639Y191250D02*
X336889Y192500D01*
X331639Y191250D02*
X335639D01*
X328500Y192000D02*
X329500D01*
X324423Y193991D02*
X330077D01*
X326750Y190250D02*
X329225D01*
X331225Y192250D01*
X329639Y189250D02*
X331639Y191250D01*
X330053Y188250D02*
X332053Y190250D01*
X342500Y173000D02*
X345000D01*
X340525Y168000D02*
X341525Y169000D01*
X345603D01*
X340750Y169750D02*
X341000Y170000D01*
X345189D01*
X340891Y175805D02*
X340947Y175750D01*
X344639D01*
X341361Y176750D02*
X342573D01*
X342674Y176851D01*
X342775Y176750D01*
X344225D01*
X340250Y185725D02*
X340600Y186075D01*
X340175Y179350D02*
X341025Y178500D01*
X343500D01*
X308586Y179500D02*
X309586Y178500D01*
X317828D01*
X310600Y182400D02*
X311500Y181500D01*
X317500D01*
X338250Y176750D02*
X338500Y177000D01*
X358000Y164000D02*
X358691D01*
X263500Y178500D02*
X267500Y174500D01*
X261000Y178000D02*
X264500Y174500D01*
X277500Y179500D02*
X281586D01*
X281672Y179414D01*
X294354Y203147D02*
X301855D01*
X301959Y203250D01*
X326911D01*
X296586Y197000D02*
X299836Y200250D01*
X298422D02*
X299422Y201250D01*
X324000Y193000D02*
X326750Y190250D01*
X339263Y200000D02*
X340263Y201000D01*
X343225Y197050D02*
X343675Y197500D01*
X350130D01*
X340600Y186075D02*
Y189577D01*
X341775Y197050D02*
X343225D01*
X341325Y197500D02*
X341775Y197050D01*
X337500Y196500D02*
X337950Y196050D01*
X342086Y190000D02*
X348000D01*
X341673Y191827D02*
X346378D01*
X342000Y193000D02*
X344000D01*
X339423Y189577D02*
X340600D01*
X299422Y201250D02*
X327740D01*
X329740Y203250D01*
X333260D01*
X334510Y202000D01*
X338000D01*
X299836Y200250D02*
X328154D01*
X330154Y202250D01*
X332846D01*
X335096Y200000D01*
X339263D01*
X300250Y199250D02*
X328568D01*
X330568Y201250D01*
X332432D01*
X334682Y199000D01*
X330077Y193991D02*
X333586Y197500D01*
X341325D01*
X329500Y192000D02*
X334000Y196500D01*
X337500D01*
X331225Y192250D02*
X335225D01*
X336475Y193500D01*
X336889Y192500D02*
X339586D01*
X342086Y190000D01*
X336475Y193500D02*
X340000D01*
X341673Y191827D01*
X335000Y194500D02*
X340500D01*
X342000Y193000D01*
X337950Y196050D02*
X342050D01*
X343000Y195100D01*
X351775Y176250D02*
X353750D01*
X354250Y176750D01*
Y178725D01*
X354237Y178737D02*
X354250Y178725D01*
X354237Y178737D02*
Y178737D01*
X355500Y180000D01*
X352500Y179000D02*
X356000Y182500D01*
X352500Y178000D02*
Y179000D01*
X346000Y165836D02*
X349518Y169353D01*
X346750Y168000D02*
X349103Y170353D01*
X345603Y169000D02*
X347957Y171353D01*
X345189Y170000D02*
X347543Y172353D01*
X344775Y171000D02*
X347128Y173354D01*
X345000Y173000D02*
X346500Y174500D01*
X351500Y165238D02*
X352262Y166000D01*
X349518Y169353D02*
X351500D01*
X346500Y174500D02*
X357000D01*
X362000Y179500D01*
X347128Y173354D02*
X353157D01*
X353260Y173250D01*
X357603D01*
X363000Y178647D01*
X347543Y172353D02*
X352743D01*
X352846Y172250D01*
X358017D01*
X364689Y178922D01*
X347957Y171353D02*
X352328D01*
X352432Y171250D01*
X358431D01*
X367500Y180319D01*
X349103Y170353D02*
X351914D01*
X352018Y170250D01*
X358845D01*
X368500Y179905D01*
X351500Y169353D02*
X351604Y169250D01*
X359259D01*
X351189Y168250D02*
X359674D01*
X314500Y161000D02*
X315500Y162000D01*
Y163000D01*
X309500Y159500D02*
X315080D01*
X318305Y162725D01*
X307500Y158500D02*
X315495D01*
X318720Y161725D01*
X306000Y157500D02*
X315909D01*
X319134Y160725D01*
X415250Y141922D02*
Y167053D01*
X414250Y142336D02*
Y166639D01*
X353265Y139500D02*
X410000D01*
X413250Y142750D01*
X353679Y138500D02*
X410414D01*
X414250Y142336D01*
X354093Y137500D02*
X410828D01*
X415250Y141922D01*
X354507Y136500D02*
X411243D01*
X355336Y134500D02*
X418000D01*
X354922Y135500D02*
X418500D01*
X419750Y134250D01*
X441000Y130000D02*
X447750Y136750D01*
X440000Y134000D02*
X449000Y143000D01*
X440586Y131000D02*
X448086Y138500D01*
X449500D01*
X450500Y139500D01*
X272500Y275000D02*
X279466Y268035D01*
X317000Y173500D02*
X317500Y173000D01*
Y171737D02*
Y173000D01*
X334500Y217500D02*
X336500Y215500D01*
X338000Y218000D02*
X342000D01*
X337500Y218500D02*
X338000Y218000D01*
X334075Y218500D02*
X337500D01*
X334240Y219750D02*
X339750D01*
X340000Y220000D01*
X336500Y215500D02*
X338500D01*
X339000Y211000D02*
X339500Y210500D01*
X331400Y213100D02*
X331550Y213250D01*
X501500Y267500D02*
X502000Y268000D01*
X402000Y187000D02*
X405291D01*
X409291Y191000D01*
X401000Y191500D02*
X403500Y189000D01*
X398000Y197800D02*
Y200500D01*
X399500Y202000D01*
X402000D01*
X403000Y201000D01*
X463250Y185750D02*
X475000Y197500D01*
X406414Y208000D02*
X433243D01*
X406828Y207000D02*
X432828D01*
X407243Y206000D02*
X432414D01*
X454000Y192672D02*
X459000Y197672D01*
X454000Y191500D02*
Y192672D01*
X452500Y194000D02*
X453750Y195250D01*
X452914Y193000D02*
X454750Y194836D01*
X433243Y208000D02*
X447243Y194000D01*
X452500D01*
X432828Y207000D02*
X446828Y193000D01*
X452914D01*
X432414Y206000D02*
X450414Y188000D01*
X454000D01*
X407657Y205000D02*
X432000D01*
X388048Y196376D02*
X390424Y194000D01*
X417000D01*
X383414Y195000D02*
X388010D01*
X390009Y193000D01*
X404000D01*
X406000Y191000D01*
X387595Y194000D02*
X389595Y192000D01*
X400000D01*
X400500Y191500D01*
X377500Y192000D02*
X388181D01*
X389181Y191000D01*
X398000D01*
X402000Y187000D01*
X378975Y191000D02*
X387767D01*
X388767Y190000D01*
X390750D01*
X393000Y187750D01*
X368747Y220533D02*
X371374Y223161D01*
X362124Y211250D02*
X364124Y213250D01*
X387323Y198126D02*
X387874D01*
X391000Y195000D01*
X414000D01*
X393622Y198126D02*
X395748Y196000D01*
X413500D01*
X316000Y110000D02*
X318000Y108000D01*
X480000Y103500D02*
X491000Y114500D01*
X481500Y101500D02*
X492000Y112000D01*
X286000Y110000D02*
X291500Y104500D01*
X296000Y110000D02*
X300000Y106000D01*
X478000Y104500D02*
X489500Y116000D01*
X488500Y117000D02*
Y152000D01*
X459500Y181000D02*
X488500Y152000D01*
X489500Y116000D02*
Y154000D01*
X471500Y177500D02*
Y181500D01*
Y177500D02*
X492110Y156890D01*
X520110D01*
X491000Y114500D02*
Y155000D01*
X492000Y112000D02*
Y155414D01*
X461000Y182500D02*
X489500Y154000D01*
X432000Y205000D02*
X451250Y185750D01*
X463250D01*
X450000Y183500D02*
X462500D01*
X491000Y155000D01*
X451000Y184500D02*
X462914D01*
X492000Y155414D01*
X424500Y185000D02*
X430000Y179500D01*
X459000D01*
X468500Y170000D01*
X403000Y199500D02*
Y201000D01*
X401750Y197750D02*
X407139D01*
X403000Y199500D02*
X403750Y198750D01*
X406725D01*
X400500Y199000D02*
X401750Y197750D01*
X414000Y195000D02*
X415500Y196500D01*
X426000D01*
X441500Y181000D01*
X407139Y197750D02*
X408389Y199000D01*
X434500D01*
X450000Y183500D01*
X407975Y200000D02*
X435500D01*
X406725Y198750D02*
X407975Y200000D01*
X435500D02*
X451000Y184500D01*
X413500Y196000D02*
X415000Y197500D01*
X428000D01*
X443000Y182500D01*
X461000D01*
X441500Y181000D02*
X459500D01*
X368382Y229622D02*
X368387D01*
X365500Y229387D02*
Y233000D01*
X362000Y236500D02*
X365500Y233000D01*
Y229387D02*
X368387Y226500D01*
X379425Y204900D02*
X389029D01*
X371500Y199000D02*
X378400Y205900D01*
X372525Y198000D02*
X379425Y204900D01*
X383000Y194000D02*
X387595D01*
X376172Y198547D02*
X379868D01*
X383414Y195000D01*
X375647Y199547D02*
X383427D01*
X386598Y196376D01*
X356550Y212622D02*
X356661D01*
X359033Y210250D01*
X359447Y211250D02*
X362124D01*
X359033Y210250D02*
X362539D01*
X353500Y235500D02*
X358976Y230024D01*
Y226472D02*
Y230024D01*
X374724Y226472D02*
X376500Y228248D01*
X356199Y224872D02*
X357748Y223323D01*
X353956Y224872D02*
X356199D01*
X353128Y222872D02*
X355370D01*
X357709Y220533D01*
X353542Y223872D02*
X355785D01*
X357709Y220533D02*
X368747D01*
X362539Y210250D02*
X364539Y212250D01*
X354500Y219500D02*
X371000D01*
X378525Y217000D02*
X379275Y217750D01*
X367532Y214750D02*
X377750D01*
X383525Y210500D02*
X390500D01*
X377750Y214750D02*
X383000Y209500D01*
X390086D01*
X382000Y207500D02*
X389257D01*
X377164Y213750D02*
X382414Y208500D01*
X389672D01*
X366375Y215900D02*
X367797D01*
X366139Y214250D02*
X366789Y214900D01*
X367383D01*
X363275Y215250D02*
X365725D01*
X366375Y215900D01*
X366561Y213250D02*
X367090Y213779D01*
X362861Y214250D02*
X366139D01*
X364124Y213250D02*
X366561D01*
X364539Y212250D02*
X366975D01*
X359603Y216538D02*
X362101D01*
X356964Y213622D02*
X357075D01*
X359447Y211250D01*
X346679Y219872D02*
X348051Y218500D01*
X346400Y210724D02*
X347053D01*
X367118Y213750D02*
X377164D01*
X366975Y212250D02*
X367475Y212750D01*
X376750D01*
X382000Y207500D01*
X367090Y213779D02*
X367090D01*
X367118Y213750D01*
X365000Y217000D02*
X378525D01*
X367947Y215750D02*
X378275D01*
X383525Y210500D01*
X376500Y228248D02*
Y235500D01*
X391328Y251000D02*
X395000D01*
X368572Y246250D02*
X370038Y244783D01*
X379288Y233784D02*
Y238212D01*
X382288Y235283D02*
Y237212D01*
X347053Y210724D02*
Y212053D01*
X348051Y218500D02*
X348550D01*
X344657Y208500D02*
X350310D01*
X344565Y207178D02*
X350218D01*
X336297Y206178D02*
X349804D01*
X335575Y205178D02*
X349390D01*
X335161Y204178D02*
X348975D01*
X350310Y208500D02*
X351410Y207400D01*
X350218Y207178D02*
X350996Y206400D01*
X359600D01*
X357100Y205400D02*
X358500Y204000D01*
X349500Y210724D02*
X351824Y208400D01*
X360514D01*
X351410Y207400D02*
X360100D01*
X349804Y206178D02*
X350582Y205400D01*
X357100D01*
X349390Y205178D02*
X350168Y204400D01*
X353230D01*
X355277Y202352D01*
X348975Y204178D02*
X349753Y203400D01*
X350529D01*
X352654Y201276D01*
X359600Y206400D02*
X360750Y205250D01*
X348550Y218500D02*
X350050Y217000D01*
X357727D01*
X360126Y214601D01*
X349015Y214500D02*
X356086D01*
X356964Y213622D01*
X355672Y213500D02*
X356550Y212622D01*
X347053Y212053D02*
X348500Y213500D01*
X355672D01*
X348066Y215449D02*
X349015Y214500D01*
X346378Y214878D02*
X346949Y215449D01*
X348066D01*
X353757Y218000D02*
X358141D01*
X359603Y216538D01*
X341000Y229000D02*
X349828D01*
X353956Y224872D01*
X349000Y227000D02*
X353128Y222872D01*
X341682Y228000D02*
X349414D01*
X353542Y223872D01*
X346378Y223323D02*
X348435D01*
X353757Y218000D01*
X348500Y225500D02*
X354500Y219500D01*
X342096Y227000D02*
X349000D01*
X333000D02*
X339000D01*
X341000Y229000D01*
X340062Y223500D02*
X342062Y225500D01*
X348500D01*
X333661Y217500D02*
X334500D01*
X250432Y220250D02*
X330911D01*
X333661Y217500D01*
X248250Y221250D02*
X331325D01*
X334075Y218500D01*
X248500Y225500D02*
X251500Y222500D01*
X331490D01*
X334240Y219750D01*
X329904Y225000D02*
X340096D01*
X342096Y227000D01*
X330318Y226000D02*
X339682D01*
X341682Y228000D01*
X331500Y228500D02*
X333000Y227000D01*
X286500Y285000D02*
X301000Y270500D01*
X287500Y286500D02*
X302500Y271500D01*
X288000Y288000D02*
X303500Y272500D01*
X284000Y294000D02*
X304500Y273500D01*
X333000Y245500D02*
X335000Y243500D01*
X321000Y241000D02*
X354991D01*
X320500Y245500D02*
X333000D01*
X340925Y273500D02*
X355750Y258675D01*
Y258068D02*
Y258675D01*
X340510Y272500D02*
X354750Y258260D01*
Y257654D02*
Y258260D01*
X340096Y271500D02*
X353750Y257846D01*
Y257240D02*
Y257846D01*
X339682Y270500D02*
X352750Y257432D01*
Y256825D02*
Y257432D01*
X301000Y270500D02*
X339682D01*
X302500Y271500D02*
X340096D01*
X303500Y272500D02*
X340510D01*
X304500Y273500D02*
X340925D01*
X371250Y248250D02*
X382288Y237212D01*
X370250Y247250D02*
X379288Y238212D01*
X333500Y248500D02*
X339500Y242500D01*
X359000D01*
X371137Y230363D01*
Y228483D02*
Y230363D01*
X357076Y237500D02*
X362586D01*
X368598Y231487D01*
Y229839D02*
Y231487D01*
X359000Y244000D02*
X369216Y233784D01*
X372788D01*
X360000Y245000D02*
X368216Y236784D01*
X372288D01*
X367164Y246250D02*
X368572D01*
X367578Y247250D02*
X370250D01*
X367993Y248250D02*
X371250D01*
X367743Y248500D02*
X367993Y248250D01*
X367328Y247500D02*
X367578Y247250D01*
X366914Y246500D02*
X367164Y246250D01*
X366500Y245500D02*
X376500Y235500D01*
X396500Y255000D02*
X398500Y253000D01*
X388328Y254000D02*
X391328Y251000D01*
X387914Y253000D02*
X393414Y247500D01*
X387500Y252000D02*
X394500Y245000D01*
X355750Y258068D02*
X358818Y255000D01*
X396500D01*
X354750Y257654D02*
X358404Y254000D01*
X388328D01*
X353750Y257240D02*
X357990Y253000D01*
X387914D01*
X352750Y256825D02*
X357575Y252000D01*
X387500D01*
X342500Y251500D02*
X348000Y246000D01*
X363000D01*
X368000Y241000D01*
X342914Y252500D02*
X348414Y247000D01*
X363414D01*
X364914Y245500D01*
X366500D01*
X343328Y253500D02*
X348828Y248000D01*
X363828D01*
X365328Y246500D01*
X366914D01*
X343743Y254500D02*
X349243Y249000D01*
X364243D01*
X365743Y247500D01*
X367328D01*
X344157Y255500D02*
X349657Y250000D01*
X364657D01*
X366157Y248500D01*
X367743D01*
X350500Y251000D02*
X365071D01*
X366071Y250000D01*
X369288D01*
X347500Y245000D02*
X360000D01*
X342000Y250500D02*
X347500Y245000D01*
X339500Y244000D02*
X359000D01*
X334000Y249500D02*
X339500Y244000D01*
X308000Y223500D02*
X340062D01*
X320000Y240000D02*
X321000Y241000D01*
X320414Y239000D02*
X321414Y240000D01*
X354576D01*
X320828Y238000D02*
X321828Y239000D01*
X354162D01*
X321243Y237000D02*
X322243Y238000D01*
X353748D01*
X320318Y236000D02*
X330318Y226000D01*
X319904Y235000D02*
X329904Y225000D01*
X345000Y256500D02*
X350500Y251000D01*
X183000Y103000D02*
X190000Y110000D01*
X174000Y104000D02*
X180000Y110000D01*
X169000Y104000D02*
X174000D01*
X168586Y103000D02*
X183000D01*
X165000Y108000D02*
X169000Y104000D01*
X194500Y109000D02*
Y112000D01*
Y109000D02*
X200000Y103500D01*
X213500D01*
X220000Y110000D01*
X250500Y115500D02*
X256000Y110000D01*
X200000D02*
Y112000D01*
X256000Y175818D02*
Y188571D01*
X258500Y176500D02*
Y187485D01*
X261000Y178000D02*
Y186399D01*
X263500Y178500D02*
Y185314D01*
X268991Y177191D02*
Y181237D01*
X164000Y107586D02*
X168586Y103000D01*
X165000Y108000D02*
Y116500D01*
X164000Y107586D02*
Y116086D01*
X166500Y118500D02*
X172000D01*
X171500Y239000D02*
X171672D01*
X172086Y238000D02*
X173586Y239500D01*
X172500Y230500D02*
X176500Y234500D01*
X206186Y115500D02*
X250500D01*
X205936Y115750D02*
X206186Y115500D01*
X197333Y112000D02*
X200000D01*
X194583Y114750D02*
X197333Y112000D01*
X192750Y113750D02*
X194500Y112000D01*
X172504Y276004D02*
X183008Y265500D01*
X252414D01*
X260914Y257000D01*
X266000D01*
X178500Y274000D02*
X186000Y266500D01*
X252828D01*
X259828Y259500D01*
X269000D01*
X182000Y276000D02*
X190500Y267500D01*
X253243D01*
X258243Y262500D01*
X265000D01*
X187500Y274000D02*
X193000Y268500D01*
X253657D01*
X257157Y265000D01*
X269000D01*
X191500Y275318D02*
X197318Y269500D01*
X254071D01*
X256071Y267500D01*
X265000D01*
X197000Y273000D02*
X199500Y270500D01*
X254485D01*
X254735Y270250D01*
X269000D01*
X252000Y264500D02*
X262500Y254000D01*
X299157Y238000D02*
X320828D01*
X299571Y239000D02*
X320414D01*
X299985Y240000D02*
X320000D01*
X176500Y234500D02*
X199672D01*
X176086Y235500D02*
X199257D01*
X175672Y236500D02*
X198843D01*
X175257Y237500D02*
X198429D01*
X173586Y239500D02*
X197600D01*
X174000Y238500D02*
X198015D01*
X172500Y241500D02*
X196772D01*
X172000Y242500D02*
X196358D01*
X171500Y243500D02*
X195944D01*
X171000Y244500D02*
X195529D01*
X170500Y245500D02*
X195115D01*
X181000Y232000D02*
X200000D01*
X180586Y233000D02*
X199586D01*
X245500Y165500D02*
Y199000D01*
X243500Y201000D02*
X245500Y199000D01*
X167500Y154000D02*
X168182D01*
D27*
X150000Y100000D02*
Y150000D01*
X140000Y290000D02*
X150000Y300000D01*
X140000Y160000D02*
Y290000D01*
Y160000D02*
X150000Y150000D01*
Y300000D02*
Y310000D01*
X625000D01*
X150000Y100000D02*
X625000D01*
Y310000D01*
D28*
X580400Y277000D02*
D03*
X604022D02*
D03*
X592211Y295504D02*
D03*
D29*
X373205Y298858D02*
D03*
Y281142D02*
D03*
X398795Y298858D02*
D03*
Y281142D02*
D03*
D30*
X246000Y110000D02*
D03*
X160000D02*
D03*
X210000Y300000D02*
D03*
X280000D02*
D03*
D31*
X256000Y110000D02*
D03*
X266000D02*
D03*
X276000D02*
D03*
X286000D02*
D03*
X296000D02*
D03*
X306000D02*
D03*
X316000D02*
D03*
X170000D02*
D03*
X180000D02*
D03*
X190000D02*
D03*
X200000D02*
D03*
X210000D02*
D03*
X220000D02*
D03*
X230000D02*
D03*
X200000Y300000D02*
D03*
X190000D02*
D03*
X180000D02*
D03*
X170000D02*
D03*
X160000D02*
D03*
X270000D02*
D03*
X260000D02*
D03*
X250000D02*
D03*
X240000D02*
D03*
X230000D02*
D03*
D32*
X548000Y132000D02*
D03*
Y140000D02*
D03*
Y148000D02*
D03*
X558000Y136000D02*
D03*
Y144000D02*
D03*
Y152000D02*
D03*
X584000Y175000D02*
D03*
Y137000D02*
D03*
X480500Y298000D02*
D03*
X458000D02*
D03*
D33*
X584000Y190600D02*
D03*
Y121400D02*
D03*
D34*
X609000Y185600D02*
D03*
X619000D02*
D03*
X609000Y126400D02*
D03*
X619000D02*
D03*
D35*
X451500Y143500D02*
D03*
X449000Y148500D02*
D03*
X451579Y154921D02*
D03*
X253500Y290500D02*
D03*
X199500Y158000D02*
D03*
X552000Y263000D02*
D03*
X230500Y217000D02*
D03*
X221500Y253500D02*
D03*
X212500Y231500D02*
D03*
X171500Y188500D02*
D03*
X165500Y201000D02*
D03*
X162500Y194000D02*
D03*
X165000Y186500D02*
D03*
X162000Y210500D02*
D03*
Y218000D02*
D03*
X171000Y167500D02*
D03*
X161004Y276504D02*
D03*
X169504Y272504D02*
D03*
X233000Y127000D02*
D03*
X598500Y202500D02*
D03*
X450000Y176500D02*
D03*
X416500Y289000D02*
D03*
X353291Y300709D02*
D03*
X579791Y224791D02*
D03*
X531500Y224500D02*
D03*
X336500Y261500D02*
D03*
X168500Y154000D02*
D03*
X173000Y171000D02*
D03*
X169500Y135000D02*
D03*
X171000Y143500D02*
D03*
X179500Y122500D02*
D03*
X200500Y184500D02*
D03*
X169500Y149500D02*
D03*
X224000Y181000D02*
D03*
X246500Y217000D02*
D03*
X258197Y205303D02*
D03*
X230000Y229500D02*
D03*
X254000Y168000D02*
D03*
X407000Y241000D02*
D03*
X395500Y245000D02*
D03*
X395000Y251000D02*
D03*
X399000Y249000D02*
D03*
X398500Y253000D02*
D03*
X361500Y265500D02*
D03*
X363500Y275000D02*
D03*
X411000Y278000D02*
D03*
X436500Y305500D02*
D03*
X416500Y267500D02*
D03*
X378000Y263500D02*
D03*
X275500Y215000D02*
D03*
X441000Y285000D02*
D03*
X601500Y194500D02*
D03*
X597791Y211209D02*
D03*
X529000Y253000D02*
D03*
X614000Y201500D02*
D03*
X614500Y216000D02*
D03*
X614000Y210500D02*
D03*
X602000Y219000D02*
D03*
X613500Y196000D02*
D03*
X614000Y222000D02*
D03*
X542500Y201500D02*
D03*
X210500Y127000D02*
D03*
X525500Y250000D02*
D03*
X534500Y248500D02*
D03*
X528500Y259500D02*
D03*
X528000Y179000D02*
D03*
X422000Y118000D02*
D03*
X421000Y133500D02*
D03*
X525500Y198000D02*
D03*
Y202500D02*
D03*
X567000Y196500D02*
D03*
X565000Y214500D02*
D03*
X576074Y194865D02*
D03*
X495209Y196291D02*
D03*
X408500Y176500D02*
D03*
X402000Y220000D02*
D03*
X424000D02*
D03*
X402000Y225000D02*
D03*
X229000Y185000D02*
D03*
X417500Y167000D02*
D03*
X343000Y142500D02*
D03*
X275191Y177191D02*
D03*
X268991D02*
D03*
X275000Y210000D02*
D03*
X259379Y212121D02*
D03*
X481000Y247000D02*
D03*
X476500D02*
D03*
X477500Y241500D02*
D03*
X476500Y251000D02*
D03*
X200500Y207000D02*
D03*
X375500Y143000D02*
D03*
X457500Y177000D02*
D03*
X447543Y245957D02*
D03*
X486000Y260500D02*
D03*
X489500Y262500D02*
D03*
X231000Y202500D02*
D03*
X205000Y288500D02*
D03*
X192000Y290000D02*
D03*
X480000Y223000D02*
D03*
X446500Y199000D02*
D03*
X456043Y210457D02*
D03*
X432000Y186000D02*
D03*
X439000Y191000D02*
D03*
X251756Y282244D02*
D03*
X273000Y143500D02*
D03*
X302000Y152000D02*
D03*
X483500Y118000D02*
D03*
X458000D02*
D03*
X528000Y149000D02*
D03*
X528250Y153250D02*
D03*
X496457Y187543D02*
D03*
X528000Y187500D02*
D03*
X558917Y241583D02*
D03*
X471957Y260457D02*
D03*
X465500Y268000D02*
D03*
X276500Y206000D02*
D03*
X270500Y203500D02*
D03*
X329500Y218000D02*
D03*
X317709Y228791D02*
D03*
X306291Y229209D02*
D03*
X244945Y231055D02*
D03*
X200500Y202500D02*
D03*
X344000Y150000D02*
D03*
X430000Y214000D02*
D03*
X436000Y220500D02*
D03*
X456000Y199000D02*
D03*
X462500Y199500D02*
D03*
X320500Y245500D02*
D03*
X335000Y243500D02*
D03*
X267646Y191646D02*
D03*
X412000Y178500D02*
D03*
X412500Y226500D02*
D03*
X417000Y225500D02*
D03*
X352291Y141709D02*
D03*
X477000Y197500D02*
D03*
X458000Y193000D02*
D03*
X264496Y208004D02*
D03*
X442000Y173000D02*
D03*
X419500Y149000D02*
D03*
X408000Y128000D02*
D03*
X404000Y127000D02*
D03*
X449500Y133500D02*
D03*
X446500Y129500D02*
D03*
X436000Y137500D02*
D03*
X416500Y132000D02*
D03*
X456000Y218000D02*
D03*
X449000Y217500D02*
D03*
X441500Y223000D02*
D03*
X442000Y217500D02*
D03*
X433000Y218000D02*
D03*
X498000Y271000D02*
D03*
X488000Y223000D02*
D03*
X484500Y226500D02*
D03*
X480500Y230000D02*
D03*
X475500Y226500D02*
D03*
X297000Y142000D02*
D03*
X300000Y228000D02*
D03*
X298500Y129000D02*
D03*
X304000Y131000D02*
D03*
X233000Y131500D02*
D03*
X200500Y162500D02*
D03*
X224000Y159000D02*
D03*
X226000Y163000D02*
D03*
X468000Y251500D02*
D03*
X442500Y163500D02*
D03*
X437000Y153000D02*
D03*
X446000Y151500D02*
D03*
X450500Y139000D02*
D03*
X440000Y134000D02*
D03*
X441000Y141500D02*
D03*
X163055Y250000D02*
D03*
X169354Y249000D02*
D03*
X185500Y248000D02*
D03*
X191750Y247750D02*
D03*
X269000Y270250D02*
D03*
X279466Y268035D02*
D03*
X264500Y272500D02*
D03*
X265000Y267500D02*
D03*
X269000Y265000D02*
D03*
X265000Y262500D02*
D03*
X269000Y259500D02*
D03*
X266000Y257000D02*
D03*
X210500Y275000D02*
D03*
X201000D02*
D03*
X197000Y273000D02*
D03*
X191500Y275500D02*
D03*
X187500Y274000D02*
D03*
X172504Y276004D02*
D03*
X341500Y246500D02*
D03*
X343000Y264000D02*
D03*
X441500Y278500D02*
D03*
X422500Y266000D02*
D03*
X442000Y273500D02*
D03*
X444500Y270500D02*
D03*
X471500Y287500D02*
D03*
X387500Y261500D02*
D03*
X349500Y274500D02*
D03*
X337291Y297000D02*
D03*
X334291Y293000D02*
D03*
X311791Y276000D02*
D03*
X334291Y287500D02*
D03*
X306291Y276000D02*
D03*
X303500Y289709D02*
D03*
X296791Y268500D02*
D03*
X485500Y280000D02*
D03*
X510500Y280500D02*
D03*
X522500Y227500D02*
D03*
X571500Y247500D02*
D03*
X596500Y251000D02*
D03*
X598709Y223791D02*
D03*
X543000Y291500D02*
D03*
X471500Y270000D02*
D03*
X532500Y243000D02*
D03*
X485500Y201000D02*
D03*
X512500Y218000D02*
D03*
X480500Y234000D02*
D03*
X389000Y236500D02*
D03*
X423500Y232500D02*
D03*
X283500Y264000D02*
D03*
X291000Y269500D02*
D03*
X479750Y238250D02*
D03*
X233500Y232000D02*
D03*
X235500Y226500D02*
D03*
X238791Y230000D02*
D03*
X241500Y226500D02*
D03*
X440500Y158500D02*
D03*
X439000Y169500D02*
D03*
X435500Y164000D02*
D03*
X446500Y156000D02*
D03*
X508000Y161500D02*
D03*
X474000Y190000D02*
D03*
X520110Y156890D02*
D03*
X471500Y181500D02*
D03*
X524500Y168500D02*
D03*
X492500Y189500D02*
D03*
X497000Y178500D02*
D03*
X507500Y176500D02*
D03*
X493500Y224000D02*
D03*
X497500D02*
D03*
X487654Y230154D02*
D03*
X468500Y231000D02*
D03*
X471000Y239500D02*
D03*
X433500Y240000D02*
D03*
X502500Y223200D02*
D03*
X471500Y244000D02*
D03*
X463000Y243500D02*
D03*
X462957Y236457D02*
D03*
X166205Y275295D02*
D03*
X182000Y276000D02*
D03*
X178500Y274000D02*
D03*
X320212Y133712D02*
D03*
X326000Y134500D02*
D03*
X237500Y166500D02*
D03*
X257500Y165500D02*
D03*
X234500Y163000D02*
D03*
X236000Y158500D02*
D03*
X267500Y167000D02*
D03*
X260500Y162500D02*
D03*
X264500Y164000D02*
D03*
X270500D02*
D03*
X274500Y167000D02*
D03*
X248000Y221000D02*
D03*
X248500Y225500D02*
D03*
X335000Y229500D02*
D03*
X331500Y228500D02*
D03*
X236500Y189000D02*
D03*
X433500Y245000D02*
D03*
X432000Y234000D02*
D03*
X407500Y226500D02*
D03*
X416500Y177000D02*
D03*
X417000Y194000D02*
D03*
X418000Y181000D02*
D03*
X405500Y164500D02*
D03*
X277500Y155500D02*
D03*
X248500Y158000D02*
D03*
X292500Y214000D02*
D03*
X331000Y213500D02*
D03*
X331500Y199000D02*
D03*
X165000Y296000D02*
D03*
X155000Y233500D02*
D03*
X518500Y262500D02*
D03*
X506500Y270000D02*
D03*
X501500Y267500D02*
D03*
X458500Y188000D02*
D03*
X453000Y190500D02*
D03*
X358000Y259000D02*
D03*
X158500Y130500D02*
D03*
X197500Y288000D02*
D03*
X165500Y212500D02*
D03*
X178500Y248000D02*
D03*
X172500Y218500D02*
D03*
X167500Y221000D02*
D03*
X196500Y124000D02*
D03*
X204000Y254000D02*
D03*
X228000Y206000D02*
D03*
X226500Y214000D02*
D03*
X216500Y232000D02*
D03*
X165000Y125500D02*
D03*
X166000Y138000D02*
D03*
X167000Y146500D02*
D03*
D36*
X453000Y149016D02*
D03*
X226000Y232000D02*
D03*
X166500Y158500D02*
D03*
X222818Y232200D02*
D03*
X266000Y234000D02*
D03*
X266500Y251500D02*
D03*
X262500Y234500D02*
D03*
X263500Y230500D02*
D03*
X275500Y232500D02*
D03*
X272000Y236000D02*
D03*
X317500Y181500D02*
D03*
Y186500D02*
D03*
X234000Y185000D02*
D03*
X231500Y180500D02*
D03*
X238000Y176000D02*
D03*
X237500Y171000D02*
D03*
X231500Y172500D02*
D03*
X227000Y175000D02*
D03*
X235000Y169000D02*
D03*
X342500Y181000D02*
D03*
X406000Y191000D02*
D03*
X278000Y165500D02*
D03*
X282500Y158500D02*
D03*
X288500D02*
D03*
X303500Y180000D02*
D03*
X303000Y171500D02*
D03*
Y177000D02*
D03*
X316500Y173000D02*
D03*
X321000Y170500D02*
D03*
X319000Y167500D02*
D03*
X320500Y165000D02*
D03*
X325000Y158500D02*
D03*
X331753Y165300D02*
D03*
X323000Y173000D02*
D03*
X303000Y187500D02*
D03*
X317000Y192000D02*
D03*
X323000Y176000D02*
D03*
X334150Y167000D02*
D03*
X298500Y175000D02*
D03*
X303500Y164000D02*
D03*
Y158000D02*
D03*
X282500Y187000D02*
D03*
X279500D02*
D03*
X280000Y192000D02*
D03*
X289000Y189500D02*
D03*
X295123Y194123D02*
D03*
X297000Y200250D02*
D03*
X331000Y186000D02*
D03*
X335500Y188500D02*
D03*
X327000Y176500D02*
D03*
X352677Y229622D02*
D03*
X349500Y233000D02*
D03*
X387330Y188650D02*
D03*
X381000Y188691D02*
D03*
X384173Y188677D02*
D03*
X402000Y182000D02*
D03*
X381682Y165682D02*
D03*
X395500Y178500D02*
D03*
X377500Y165000D02*
D03*
X375500Y162000D02*
D03*
X397500Y218500D02*
D03*
X390472Y217024D02*
D03*
X398500Y211500D02*
D03*
X398000Y215000D02*
D03*
X371575Y185528D02*
D03*
X374724Y188691D02*
D03*
X371575Y182378D02*
D03*
X387323Y201276D02*
D03*
X376500Y196000D02*
D03*
X374724Y185528D02*
D03*
X229500Y178000D02*
D03*
X249687Y169601D02*
D03*
X370000Y201000D02*
D03*
X365500Y201500D02*
D03*
X342000Y165500D02*
D03*
X411500D02*
D03*
X303500Y161000D02*
D03*
X315500Y163000D02*
D03*
X331329Y158671D02*
D03*
X322500Y191000D02*
D03*
X303500Y167000D02*
D03*
X393622Y201276D02*
D03*
X394000Y165000D02*
D03*
X401500Y164000D02*
D03*
X395500Y174500D02*
D03*
X409291Y191000D02*
D03*
X406000Y200500D02*
D03*
X380500Y216000D02*
D03*
X362126Y226500D02*
D03*
X358976Y226472D02*
D03*
X346378Y220173D02*
D03*
X371224Y226160D02*
D03*
X371374Y223161D02*
D03*
X374724Y226472D02*
D03*
X368387Y226500D02*
D03*
X360500Y234000D02*
D03*
X364500Y209000D02*
D03*
X374724Y210724D02*
D03*
X398000Y168500D02*
D03*
X285500Y186500D02*
D03*
X295500Y174000D02*
D03*
X291500Y173016D02*
D03*
X332500Y162000D02*
D03*
X320500Y155500D02*
D03*
X323500Y155000D02*
D03*
X318000Y153500D02*
D03*
X308350Y145351D02*
D03*
X310825Y147825D02*
D03*
X313500Y149500D02*
D03*
X315000Y152000D02*
D03*
X370000Y211000D02*
D03*
X295500Y197000D02*
D03*
X397500Y228047D02*
D03*
X397803Y231197D02*
D03*
X170500Y158500D02*
D03*
X346500Y233500D02*
D03*
X362126Y229622D02*
D03*
X365300Y223350D02*
D03*
X371575Y207575D02*
D03*
X393622Y217024D02*
D03*
Y220173D02*
D03*
X387323Y229622D02*
D03*
X390472Y223323D02*
D03*
X387323Y226472D02*
D03*
X262500Y254000D02*
D03*
X235500Y178000D02*
D03*
X402088Y228412D02*
D03*
X393622Y223323D02*
D03*
Y226472D02*
D03*
Y229622D02*
D03*
X374724D02*
D03*
X406000Y173000D02*
D03*
X409500Y168000D02*
D03*
X342000Y218000D02*
D03*
X340000Y220000D02*
D03*
X375500Y206000D02*
D03*
X291000Y207500D02*
D03*
X291500Y210500D02*
D03*
X295500Y206000D02*
D03*
X242500Y168000D02*
D03*
X244500Y164500D02*
D03*
X247500Y167500D02*
D03*
X364500Y206000D02*
D03*
X403500Y189000D02*
D03*
X393622Y182378D02*
D03*
X388000Y172500D02*
D03*
X390500Y185535D02*
D03*
X392000Y178000D02*
D03*
X380874Y182490D02*
D03*
X387323Y185528D02*
D03*
X333000Y207000D02*
D03*
X346378Y213874D02*
D03*
X358976Y223323D02*
D03*
X361000Y213000D02*
D03*
X365000Y192500D02*
D03*
X349500Y210724D02*
D03*
X337000Y208500D02*
D03*
X338000Y145000D02*
D03*
X365600Y185809D02*
D03*
X359000Y240000D02*
D03*
X358500Y204000D02*
D03*
X352654Y201276D02*
D03*
X358100Y200400D02*
D03*
X355938Y226622D02*
D03*
X278000Y196500D02*
D03*
X367000Y194500D02*
D03*
X373000Y192500D02*
D03*
X371575Y188677D02*
D03*
X374500Y182600D02*
D03*
X377867Y185528D02*
D03*
X346400Y210724D02*
D03*
X387323Y198126D02*
D03*
X393622D02*
D03*
X390500Y198500D02*
D03*
X379500Y194000D02*
D03*
X377500Y192000D02*
D03*
X371500Y204500D02*
D03*
X338500Y164000D02*
D03*
X341500Y156500D02*
D03*
X333250Y174800D02*
D03*
X362500Y192500D02*
D03*
X342500Y198800D02*
D03*
X359000Y188677D02*
D03*
X346378Y182378D02*
D03*
X355827Y185528D02*
D03*
X343000Y195000D02*
D03*
X358500Y197000D02*
D03*
X359500Y192500D02*
D03*
X346000Y164500D02*
D03*
X346486Y191978D02*
D03*
X346385Y185500D02*
D03*
X355827Y182378D02*
D03*
X352654Y194976D02*
D03*
X352700Y191847D02*
D03*
X352677Y185528D02*
D03*
X349500Y194976D02*
D03*
X349585Y185600D02*
D03*
X349600Y188742D02*
D03*
X383000Y172500D02*
D03*
X373500Y178500D02*
D03*
X376000D02*
D03*
X378500D02*
D03*
X376800Y168000D02*
D03*
X332350Y179463D02*
D03*
X362200Y185600D02*
D03*
X372000Y161500D02*
D03*
X371500Y165000D02*
D03*
X374200Y168988D02*
D03*
X365262Y182378D02*
D03*
X359000D02*
D03*
X368000Y162000D02*
D03*
X352500Y178000D02*
D03*
X357000D02*
D03*
X349500Y201276D02*
D03*
X272000Y191500D02*
D03*
X300000Y190500D02*
D03*
X358000Y163000D02*
D03*
X355000Y164000D02*
D03*
X350000Y176500D02*
D03*
X351500Y165500D02*
D03*
X335500Y176500D02*
D03*
X328500Y192000D02*
D03*
X339000Y168000D02*
D03*
X344500Y167000D02*
D03*
X342500Y173000D02*
D03*
X343500Y178500D02*
D03*
X342000Y185000D02*
D03*
X339000Y176500D02*
D03*
X339250Y182189D02*
D03*
X338000Y202000D02*
D03*
X335000Y194500D02*
D03*
X338500Y190500D02*
D03*
X227000Y287000D02*
D03*
X342900Y210500D02*
D03*
X338500Y215500D02*
D03*
X339200Y211300D02*
D03*
X400500Y200000D02*
D03*
X398000Y197800D02*
D03*
X368387Y229622D02*
D03*
X355936Y210872D02*
D03*
X353500Y235500D02*
D03*
X371000Y219500D02*
D03*
X365000Y217000D02*
D03*
X352654Y210724D02*
D03*
X370038Y244783D02*
D03*
X372788Y233784D02*
D03*
X379288D02*
D03*
X382288Y235283D02*
D03*
X346378Y223323D02*
D03*
X369288Y250000D02*
D03*
X372288Y236784D02*
D03*
X368000Y241000D02*
D03*
X173000Y117500D02*
D03*
X170500Y126000D02*
D03*
D37*
X563000Y300000D02*
D03*
X150000Y170000D02*
D03*
Y280000D02*
D03*
X350000Y110000D02*
D03*
X563000D02*
D03*
D52*
X212300Y225600D02*
D03*
Y215600D02*
D03*
Y205600D02*
D03*
X212300Y195600D02*
D03*
Y185600D02*
D03*
X212300Y175600D02*
D03*
Y165600D02*
D03*
Y155600D02*
D03*
X212300Y145600D02*
D03*
X187300Y135600D02*
D03*
X212300D02*
D03*
X187300Y145600D02*
D03*
Y155600D02*
D03*
Y165600D02*
D03*
Y175600D02*
D03*
Y185600D02*
D03*
Y195600D02*
D03*
Y205600D02*
D03*
Y215600D02*
D03*
Y225600D02*
D03*
M02*
