%FSLAX25Y25*%
%MOIN*%
G70*
G01*
G75*
G04 Layer_Color=6063849*
%ADD10R,0.03543X0.01969*%
%ADD11R,0.05512X0.04724*%
%ADD12R,0.05906X0.05118*%
%ADD13R,0.02362X0.05906*%
%ADD14R,0.05118X0.07087*%
%ADD15R,0.07087X0.05118*%
%ADD16R,0.04724X0.05512*%
%ADD17R,0.02756X0.01575*%
%ADD18R,0.05118X0.05906*%
%ADD19R,0.02165X0.05709*%
%ADD20R,0.21654X0.07874*%
%ADD21O,0.06693X0.01181*%
%ADD22O,0.00984X0.06102*%
%ADD23O,0.06102X0.00984*%
%ADD24O,0.08661X0.02362*%
%ADD25C,0.01400*%
%ADD26O,0.02165X0.05906*%
%ADD27R,0.01969X0.03543*%
%ADD28R,0.11811X0.06299*%
%ADD29R,0.24410X0.22835*%
%ADD30R,0.05512X0.07087*%
%ADD31R,0.04724X0.07087*%
%ADD32R,0.07087X0.03150*%
%ADD33C,0.01000*%
%ADD34C,0.00500*%
%ADD35C,0.02000*%
%ADD36C,0.00300*%
%ADD37C,0.00787*%
%ADD38R,0.05906X0.05906*%
%ADD39C,0.05906*%
%ADD40O,0.10000X0.05000*%
%ADD41C,0.07500*%
%ADD42C,0.06000*%
%ADD43C,0.08700*%
%ADD44C,0.07874*%
%ADD45C,0.02000*%
%ADD46C,0.04000*%
%ADD47C,0.03000*%
%ADD48C,0.12500*%
%ADD49C,0.04000*%
%ADD50C,0.05943*%
G04:AMPARAMS|DCode=51|XSize=75.433mil|YSize=75.433mil|CornerRadius=0mil|HoleSize=0mil|Usage=FLASHONLY|Rotation=0.000|XOffset=0mil|YOffset=0mil|HoleType=Round|Shape=Relief|Width=8mil|Gap=10mil|Entries=4|*
%AMTHD51*
7,0,0,0.07543,0.05543,0.00800,45*
%
%ADD51THD51*%
%ADD52C,0.12400*%
%ADD53C,0.07100*%
%ADD54C,0.05900*%
G04:AMPARAMS|DCode=55|XSize=75mil|YSize=75mil|CornerRadius=0mil|HoleSize=0mil|Usage=FLASHONLY|Rotation=0.000|XOffset=0mil|YOffset=0mil|HoleType=Round|Shape=Relief|Width=8mil|Gap=10mil|Entries=4|*
%AMTHD55*
7,0,0,0.07500,0.05500,0.00800,45*
%
%ADD55THD55*%
%ADD56C,0.07400*%
%ADD57C,0.15200*%
%ADD58C,0.08600*%
G04:AMPARAMS|DCode=59|XSize=90mil|YSize=90mil|CornerRadius=0mil|HoleSize=0mil|Usage=FLASHONLY|Rotation=0.000|XOffset=0mil|YOffset=0mil|HoleType=Round|Shape=Relief|Width=8mil|Gap=10mil|Entries=4|*
%AMTHD59*
7,0,0,0.09000,0.07000,0.00800,45*
%
%ADD59THD59*%
%ADD60C,0.03400*%
%ADD61C,0.06400*%
G04:AMPARAMS|DCode=62|XSize=50mil|YSize=50mil|CornerRadius=0mil|HoleSize=0mil|Usage=FLASHONLY|Rotation=0.000|XOffset=0mil|YOffset=0mil|HoleType=Round|Shape=Relief|Width=8mil|Gap=10mil|Entries=4|*
%AMTHD62*
7,0,0,0.05000,0.03000,0.00800,45*
%
%ADD62THD62*%
G04:AMPARAMS|DCode=63|XSize=56mil|YSize=56mil|CornerRadius=0mil|HoleSize=0mil|Usage=FLASHONLY|Rotation=0.000|XOffset=0mil|YOffset=0mil|HoleType=Round|Shape=Relief|Width=8mil|Gap=10mil|Entries=4|*
%AMTHD63*
7,0,0,0.05600,0.03600,0.00800,45*
%
%ADD63THD63*%
%ADD64C,0.14900*%
%ADD65R,0.02402X0.09843*%
%ADD66C,0.00984*%
%ADD67C,0.02362*%
%ADD68C,0.01969*%
%ADD69C,0.00394*%
%ADD70R,0.03740X0.02165*%
%ADD71R,0.06012X0.05224*%
%ADD72R,0.06406X0.05618*%
%ADD73R,0.02862X0.06406*%
%ADD74R,0.05618X0.07587*%
%ADD75R,0.07587X0.05618*%
%ADD76R,0.05224X0.06012*%
%ADD77R,0.03256X0.02075*%
%ADD78R,0.05618X0.06406*%
%ADD79R,0.02665X0.06209*%
%ADD80R,0.22154X0.08374*%
%ADD81O,0.07193X0.01681*%
%ADD82O,0.01484X0.06602*%
%ADD83O,0.06602X0.01484*%
%ADD84O,0.09161X0.02862*%
%ADD85C,0.01181*%
%ADD86O,0.02665X0.06406*%
%ADD87R,0.02165X0.03740*%
%ADD88R,0.12311X0.06799*%
%ADD89R,0.24910X0.23335*%
%ADD90R,0.06012X0.07587*%
%ADD91R,0.05224X0.07587*%
%ADD92R,0.07587X0.03650*%
%ADD93R,0.06406X0.06406*%
%ADD94C,0.06406*%
%ADD95C,0.00500*%
%ADD96O,0.10500X0.05500*%
%ADD97C,0.08000*%
%ADD98C,0.06500*%
%ADD99C,0.09200*%
%ADD100C,0.08374*%
%ADD101C,0.02500*%
%ADD102C,0.03500*%
%ADD103C,0.00800*%
%ADD104R,0.02902X0.10343*%
D36*
X335000Y137917D02*
G03*
X347500Y125417I12500J0D01*
G01*
Y335417D02*
G03*
X335000Y322917I0J-12500D01*
G01*
X784000Y355417D02*
X810000Y329417D01*
X614500Y355417D02*
X784000D01*
X594500Y335417D02*
X614500Y355417D01*
X347500Y335417D02*
X594500D01*
X810000Y125417D02*
Y135417D01*
Y285417D02*
X820000Y275417D01*
Y145417D02*
Y275417D01*
X810000Y135417D02*
X820000Y145417D01*
X347500Y125417D02*
X810000D01*
X335000Y137917D02*
Y322917D01*
X810000Y285417D02*
Y329417D01*
D37*
X448260Y249787D02*
X512433D01*
Y303331D01*
X448260D02*
X512433D01*
X448260Y249787D02*
Y303331D01*
D71*
X579500Y213543D02*
D03*
Y206457D02*
D03*
D93*
X705000Y155417D02*
D03*
X620000D02*
D03*
X670000Y345417D02*
D03*
X740000D02*
D03*
X714000Y325417D02*
D03*
X800000D02*
D03*
X680000Y135417D02*
D03*
X750000D02*
D03*
X594000D02*
D03*
D94*
X715000Y155417D02*
D03*
X725000D02*
D03*
X735000D02*
D03*
X745000D02*
D03*
X755000D02*
D03*
X765000D02*
D03*
X775000D02*
D03*
X630000D02*
D03*
X640000D02*
D03*
X650000D02*
D03*
X660000D02*
D03*
X670000D02*
D03*
X680000D02*
D03*
X690000D02*
D03*
X660000Y345417D02*
D03*
X650000D02*
D03*
X640000D02*
D03*
X630000D02*
D03*
X620000D02*
D03*
X730000D02*
D03*
X720000D02*
D03*
X710000D02*
D03*
X700000D02*
D03*
X690000D02*
D03*
X644000Y325417D02*
D03*
X654000D02*
D03*
X664000D02*
D03*
X674000D02*
D03*
X684000D02*
D03*
X694000D02*
D03*
X704000D02*
D03*
X790000D02*
D03*
X780000D02*
D03*
X770000D02*
D03*
X760000D02*
D03*
X750000D02*
D03*
X740000D02*
D03*
X730000D02*
D03*
X690000Y135417D02*
D03*
X700000D02*
D03*
X710000D02*
D03*
X720000D02*
D03*
X730000D02*
D03*
X800000D02*
D03*
X790000D02*
D03*
X780000D02*
D03*
X770000D02*
D03*
X760000D02*
D03*
X604000D02*
D03*
X614000D02*
D03*
X624000D02*
D03*
D95*
X795937Y227417D02*
D03*
X728063D02*
D03*
X779716D02*
D03*
X744283D02*
D03*
D96*
X579811Y136559D02*
D03*
Y154276D02*
D03*
X556189Y136559D02*
D03*
Y154276D02*
D03*
D97*
X341000Y285017D02*
D03*
X351000D02*
D03*
X341000Y225817D02*
D03*
X351000D02*
D03*
D98*
X376000Y274417D02*
D03*
Y236417D02*
D03*
X402000Y259417D02*
D03*
Y267417D02*
D03*
Y275417D02*
D03*
X412000Y263417D02*
D03*
Y271417D02*
D03*
Y279417D02*
D03*
X519500Y325917D02*
D03*
X545500D02*
D03*
X377500Y131917D02*
D03*
D99*
X376000Y290017D02*
D03*
Y220817D02*
D03*
D100*
X379600Y158417D02*
D03*
X355978D02*
D03*
X367789Y139913D02*
D03*
D101*
X714500Y204000D02*
D03*
X605000Y271417D02*
D03*
X643000Y241500D02*
D03*
X645500Y264000D02*
D03*
X641000Y267917D02*
D03*
X642500Y247000D02*
D03*
Y251500D02*
D03*
X657000Y247500D02*
D03*
Y255000D02*
D03*
Y258417D02*
D03*
Y263917D02*
D03*
X656500Y268417D02*
D03*
X597500Y178500D02*
D03*
X598500Y186000D02*
D03*
X601000Y177500D02*
D03*
X664500Y147000D02*
D03*
X680500Y205500D02*
D03*
X693500Y200417D02*
D03*
X720250Y233250D02*
D03*
X720000Y248500D02*
D03*
X723500Y246417D02*
D03*
X741000Y216500D02*
D03*
X719500Y228000D02*
D03*
X785500Y222500D02*
D03*
X801000Y216000D02*
D03*
X788000Y220500D02*
D03*
X791000D02*
D03*
X707000Y209500D02*
D03*
X707500Y212500D02*
D03*
X711000Y214417D02*
D03*
X738000Y215000D02*
D03*
X735000Y214500D02*
D03*
X731500D02*
D03*
X728500D02*
D03*
X725500D02*
D03*
X721925Y214575D02*
D03*
X718567Y214067D02*
D03*
X715500Y214200D02*
D03*
X504500Y214000D02*
D03*
X601000Y198500D02*
D03*
X602000Y272417D02*
D03*
X592000Y273417D02*
D03*
X588500Y270417D02*
D03*
X588000Y273917D02*
D03*
X578318Y269735D02*
D03*
X555000Y214073D02*
D03*
X617000Y189000D02*
D03*
X621500Y195000D02*
D03*
X489500Y230000D02*
D03*
X496035Y229382D02*
D03*
X520500Y225417D02*
D03*
X513500Y225917D02*
D03*
X546000Y201917D02*
D03*
X584500Y273417D02*
D03*
X582500Y270417D02*
D03*
X608500Y269917D02*
D03*
X559000Y203000D02*
D03*
X789500Y309417D02*
D03*
X585500Y198917D02*
D03*
X615500Y268417D02*
D03*
X631500Y243417D02*
D03*
X660000Y244917D02*
D03*
X688000Y243917D02*
D03*
X614000Y270917D02*
D03*
X621500Y271417D02*
D03*
X682000Y238917D02*
D03*
X556500Y246417D02*
D03*
X712500Y267917D02*
D03*
X715500Y270917D02*
D03*
X717500Y267417D02*
D03*
X668500Y224917D02*
D03*
X669000Y227917D02*
D03*
X550500Y267417D02*
D03*
X554000Y262417D02*
D03*
X724500Y257417D02*
D03*
X664500Y238417D02*
D03*
X636000Y282000D02*
D03*
X668500Y262402D02*
D03*
X664500Y261417D02*
D03*
X674500Y248917D02*
D03*
X552000Y235917D02*
D03*
X550709Y244417D02*
D03*
X558500Y271417D02*
D03*
X566000Y270417D02*
D03*
X637500Y244417D02*
D03*
X628671Y276746D02*
D03*
X644500Y272417D02*
D03*
X656500Y274417D02*
D03*
X548500Y269917D02*
D03*
X618000D02*
D03*
X710313Y265816D02*
D03*
X730500Y257417D02*
D03*
X633000Y258917D02*
D03*
X629000Y249417D02*
D03*
X663000Y235167D02*
D03*
X664877Y241295D02*
D03*
X671000Y245917D02*
D03*
X680000Y243417D02*
D03*
X680500Y248417D02*
D03*
X677500D02*
D03*
X656500Y277417D02*
D03*
Y271417D02*
D03*
X661500Y260417D02*
D03*
X637000Y259417D02*
D03*
Y262417D02*
D03*
X628247Y270117D02*
D03*
X639500Y270417D02*
D03*
X639000Y264917D02*
D03*
X671500Y276917D02*
D03*
X677500D02*
D03*
X682000Y269917D02*
D03*
X554000Y244417D02*
D03*
X725000Y266417D02*
D03*
X733000Y260417D02*
D03*
X728500Y262917D02*
D03*
X722500Y264417D02*
D03*
X722000Y259417D02*
D03*
X728500Y254917D02*
D03*
X726000Y250417D02*
D03*
X693500Y183917D02*
D03*
X788000Y277417D02*
D03*
X693500Y204917D02*
D03*
X696500Y201417D02*
D03*
X603500Y196500D02*
D03*
X550000Y210500D02*
D03*
X626750Y188750D02*
D03*
X557000Y254500D02*
D03*
X556000Y208000D02*
D03*
X542000Y224500D02*
D03*
X496500Y213000D02*
D03*
X541000Y242500D02*
D03*
X558281Y237219D02*
D03*
X553000Y210917D02*
D03*
X502500Y219000D02*
D03*
X535500Y223917D02*
D03*
X542500Y227500D02*
D03*
X558349Y209849D02*
D03*
X558500Y214917D02*
D03*
X508925Y248075D02*
D03*
X489000Y289000D02*
D03*
X488500Y284500D02*
D03*
X484500Y272000D02*
D03*
X491000Y279000D02*
D03*
X488000Y263000D02*
D03*
X624500Y193000D02*
D03*
X630000Y296500D02*
D03*
X639000Y286000D02*
D03*
X633500Y280500D02*
D03*
X644500Y288500D02*
D03*
X697500Y179500D02*
D03*
Y176500D02*
D03*
X698500Y173500D02*
D03*
X627500Y273417D02*
D03*
X625850Y268417D02*
D03*
X637000Y296000D02*
D03*
X649000Y293000D02*
D03*
X639000Y282000D02*
D03*
D102*
X636457Y163400D02*
D03*
X604500Y165417D02*
D03*
X687500Y204917D02*
D03*
X752000Y171500D02*
D03*
X765500Y170000D02*
D03*
X742748Y233165D02*
D03*
X747250Y170250D02*
D03*
X770000Y171000D02*
D03*
X712500Y170500D02*
D03*
X809500Y216500D02*
D03*
X674000Y190500D02*
D03*
X663500Y203500D02*
D03*
X801500Y289500D02*
D03*
X502500Y197075D02*
D03*
X490750Y200750D02*
D03*
X629000Y221917D02*
D03*
X630500Y217417D02*
D03*
X629500Y174000D02*
D03*
X625000D02*
D03*
X464500Y318417D02*
D03*
X390500Y152417D02*
D03*
X793987Y298430D02*
D03*
X360000Y185417D02*
D03*
X392500Y179417D02*
D03*
X402000Y176417D02*
D03*
X414500Y170917D02*
D03*
X378000Y209917D02*
D03*
X342000Y213917D02*
D03*
X357000D02*
D03*
X341000Y297417D02*
D03*
X442957Y225874D02*
D03*
X481000Y213417D02*
D03*
X571000Y198917D02*
D03*
X409500Y310917D02*
D03*
X434500Y262000D02*
D03*
X433500Y228917D02*
D03*
X450000Y307417D02*
D03*
X482441Y321359D02*
D03*
X483500Y326417D02*
D03*
X467512Y315929D02*
D03*
X514000Y307500D02*
D03*
X467500Y323917D02*
D03*
X463500Y325417D02*
D03*
X429000Y215917D02*
D03*
X447500Y217417D02*
D03*
X457500Y212217D02*
D03*
X446500Y190417D02*
D03*
X428500Y185917D02*
D03*
X431000Y177917D02*
D03*
X425000Y179917D02*
D03*
X434000Y174417D02*
D03*
X349500Y297417D02*
D03*
X759000Y277063D02*
D03*
X759500Y250917D02*
D03*
X758500Y232500D02*
D03*
X727000Y303917D02*
D03*
X687000Y291917D02*
D03*
X734000Y272417D02*
D03*
X790646Y186417D02*
D03*
X796945Y185417D02*
D03*
X769748Y202000D02*
D03*
X754000D02*
D03*
X793500Y139917D02*
D03*
X760299Y159000D02*
D03*
X642000Y210000D02*
D03*
X698500Y166000D02*
D03*
X605000Y175417D02*
D03*
X676500Y171417D02*
D03*
X520000Y246000D02*
D03*
X432000Y306917D02*
D03*
X582000Y171917D02*
D03*
X553000Y194417D02*
D03*
X497500Y166917D02*
D03*
X520000Y164917D02*
D03*
X382500Y188791D02*
D03*
X355500Y201874D02*
D03*
X479500Y157917D02*
D03*
X474000Y174917D02*
D03*
X481500Y207000D02*
D03*
X793000Y288917D02*
D03*
X795000Y309917D02*
D03*
X763500Y311417D02*
D03*
X779197Y203500D02*
D03*
X800000Y305000D02*
D03*
X458500Y167917D02*
D03*
X453000Y181917D02*
D03*
X440791Y172209D02*
D03*
X814000Y196000D02*
D03*
X628500Y236417D02*
D03*
X667500Y221417D02*
D03*
X711500Y277417D02*
D03*
X682500Y279917D02*
D03*
X554500Y270917D02*
D03*
X542000Y254417D02*
D03*
X543500Y258417D02*
D03*
X531000Y191917D02*
D03*
X628500Y206917D02*
D03*
X685500Y268417D02*
D03*
X689500Y271417D02*
D03*
X695500D02*
D03*
X699500Y272917D02*
D03*
X692500Y268417D02*
D03*
X724000Y276917D02*
D03*
X725500Y272417D02*
D03*
X702500Y269917D02*
D03*
X722500Y268917D02*
D03*
X634000Y300917D02*
D03*
X639788Y301705D02*
D03*
X506000Y203000D02*
D03*
X488500Y191417D02*
D03*
X472346Y205264D02*
D03*
X462500Y211417D02*
D03*
X518500Y284500D02*
D03*
X524500Y271417D02*
D03*
X519500Y276917D02*
D03*
X480250Y197167D02*
D03*
X676500Y167000D02*
D03*
X536291Y201417D02*
D03*
X479500D02*
D03*
X474500Y234417D02*
D03*
X488000Y175500D02*
D03*
X410500Y134417D02*
D03*
X363000Y211417D02*
D03*
X437500Y207917D02*
D03*
X629500Y163000D02*
D03*
X572500Y173917D02*
D03*
X518500Y156917D02*
D03*
X757018Y171482D02*
D03*
X691000Y170417D02*
D03*
X695000Y167917D02*
D03*
X694500Y162917D02*
D03*
X680535Y167383D02*
D03*
X691000Y165167D02*
D03*
X758500Y203500D02*
D03*
X519000Y293917D02*
D03*
X516000Y297000D02*
D03*
X523000Y282417D02*
D03*
X517500Y271917D02*
D03*
X492000Y178000D02*
D03*
X736000Y276417D02*
D03*
X759500Y272917D02*
D03*
X656000Y304417D02*
D03*
X661500Y306417D02*
D03*
X660000Y207417D02*
D03*
X666000Y293500D02*
D03*
X484500Y209917D02*
D03*
X464500Y192917D02*
D03*
X470000Y212417D02*
D03*
X461000Y164417D02*
D03*
X524000Y297917D02*
D03*
X540500Y286417D02*
D03*
X695504Y227413D02*
D03*
X611500Y291917D02*
D03*
X548000Y256917D02*
D03*
X692354Y243772D02*
D03*
X650500Y190000D02*
D03*
X500000Y211417D02*
D03*
X652429Y209988D02*
D03*
X689500Y231917D02*
D03*
X683500Y229417D02*
D03*
X401000Y190917D02*
D03*
X661709Y283500D02*
D03*
X528000Y249417D02*
D03*
X516500Y249417D02*
D03*
X755000Y146917D02*
D03*
X470500Y172917D02*
D03*
X585000Y290417D02*
D03*
X483500Y184417D02*
D03*
X482500Y193917D02*
D03*
X483500Y188417D02*
D03*
X479000D02*
D03*
X698500Y223296D02*
D03*
X685000Y225417D02*
D03*
X691009Y258226D02*
D03*
X684809D02*
D03*
X542500Y268417D02*
D03*
X731000Y250417D02*
D03*
X551500Y258917D02*
D03*
X431500Y327417D02*
D03*
X440500Y325917D02*
D03*
X431000Y245917D02*
D03*
X749500Y308417D02*
D03*
X519500Y148917D02*
D03*
X684500Y220417D02*
D03*
X539500Y167417D02*
D03*
X549000Y157417D02*
D03*
X597000Y148000D02*
D03*
X561500Y182417D02*
D03*
X561000Y186417D02*
D03*
X565000Y184417D02*
D03*
X564500Y190417D02*
D03*
X706000Y267417D02*
D03*
X701803Y230114D02*
D03*
X736000Y254417D02*
D03*
X790500Y285917D02*
D03*
X780500Y312917D02*
D03*
X789000Y291917D02*
D03*
X790500Y300417D02*
D03*
X787500Y281417D02*
D03*
X620500Y173917D02*
D03*
X427000Y209417D02*
D03*
X381500Y204917D02*
D03*
X727000Y308417D02*
D03*
X788500Y156000D02*
D03*
X799500Y165000D02*
D03*
X738500Y181917D02*
D03*
X428000Y165417D02*
D03*
X523500Y289000D02*
D03*
X736500Y232917D02*
D03*
X708500Y217417D02*
D03*
X762500Y232917D02*
D03*
X787500Y246917D02*
D03*
X654500Y129917D02*
D03*
X571500Y157295D02*
D03*
X598000Y173500D02*
D03*
X531457Y179917D02*
D03*
X543500Y146417D02*
D03*
X515000Y161417D02*
D03*
X474000Y146417D02*
D03*
Y139917D02*
D03*
X435500Y129417D02*
D03*
X464500Y140417D02*
D03*
X512000Y151417D02*
D03*
X493000Y133417D02*
D03*
Y151417D02*
D03*
X512000Y133417D02*
D03*
X355500Y184917D02*
D03*
X510000Y187874D02*
D03*
X502500Y142000D02*
D03*
X528500Y130000D02*
D03*
X504000Y226417D02*
D03*
X450000Y236500D02*
D03*
X488000Y267500D02*
D03*
X487500Y276000D02*
D03*
X515000Y288000D02*
D03*
X442500Y258000D02*
D03*
Y287000D02*
D03*
X428000Y279917D02*
D03*
X521000Y265917D02*
D03*
X518000Y262417D02*
D03*
X515500Y267000D02*
D03*
X792500Y170500D02*
D03*
X785750Y169250D02*
D03*
X767717Y177783D02*
D03*
X763500Y178500D02*
D03*
X732493Y147924D02*
D03*
X690752Y174748D02*
D03*
X689000Y199000D02*
D03*
X663000Y229500D02*
D03*
X658000Y293500D02*
D03*
X653575Y294000D02*
D03*
D103*
X622000Y211500D02*
D03*
X626500Y201500D02*
D03*
D104*
X744283Y212653D02*
D03*
X748220D02*
D03*
Y242181D02*
D03*
X744283D02*
D03*
X760032Y212653D02*
D03*
X763969D02*
D03*
Y242181D02*
D03*
X760032D02*
D03*
X752157D02*
D03*
X756095D02*
D03*
Y212653D02*
D03*
X752157D02*
D03*
X767906D02*
D03*
X771842D02*
D03*
Y242181D02*
D03*
X767906D02*
D03*
X775779D02*
D03*
X779716D02*
D03*
Y212653D02*
D03*
X775779D02*
D03*
M02*
