%FSLAX25Y25*%
%MOIN*%
G70*
G01*
G75*
G04 Layer_Color=12298146*
%ADD10C,0.01400*%
%ADD11R,0.11811X0.06299*%
%ADD12R,0.24410X0.22835*%
%ADD13R,0.05118X0.07087*%
%ADD14R,0.03543X0.01969*%
%ADD15O,0.06693X0.01181*%
%ADD16R,0.07087X0.05118*%
%ADD17R,0.04724X0.05512*%
%ADD18R,0.05512X0.04724*%
%ADD19R,0.21654X0.07874*%
%ADD20O,0.02165X0.05906*%
%ADD21O,0.00984X0.06102*%
%ADD22O,0.06102X0.00984*%
%ADD23R,0.02165X0.05709*%
%ADD24R,0.05118X0.05906*%
%ADD25R,0.02756X0.01575*%
%ADD26O,0.08661X0.02362*%
%ADD27C,0.01000*%
%ADD28C,0.00500*%
%ADD29C,0.02000*%
%ADD30C,0.00300*%
%ADD31C,0.07874*%
%ADD32R,0.05906X0.05906*%
%ADD33C,0.05906*%
%ADD34C,0.06000*%
%ADD35C,0.08700*%
%ADD36C,0.07500*%
%ADD37O,0.10000X0.05000*%
%ADD38C,0.03000*%
%ADD39C,0.02000*%
%ADD40C,0.12500*%
%ADD41C,0.04000*%
%ADD42C,0.07400*%
G04:AMPARAMS|DCode=43|XSize=90mil|YSize=90mil|CornerRadius=0mil|HoleSize=0mil|Usage=FLASHONLY|Rotation=0.000|XOffset=0mil|YOffset=0mil|HoleType=Round|Shape=Relief|Width=8mil|Gap=10mil|Entries=4|*
%AMTHD43*
7,0,0,0.09000,0.07000,0.00800,45*
%
%ADD43THD43*%
%ADD44C,0.05943*%
G04:AMPARAMS|DCode=45|XSize=75.433mil|YSize=75.433mil|CornerRadius=0mil|HoleSize=0mil|Usage=FLASHONLY|Rotation=0.000|XOffset=0mil|YOffset=0mil|HoleType=Round|Shape=Relief|Width=8mil|Gap=10mil|Entries=4|*
%AMTHD45*
7,0,0,0.07543,0.05543,0.00800,45*
%
%ADD45THD45*%
%ADD46C,0.07100*%
%ADD47C,0.12400*%
%ADD48C,0.05900*%
%ADD49C,0.08600*%
%ADD50C,0.15200*%
G04:AMPARAMS|DCode=51|XSize=75mil|YSize=75mil|CornerRadius=0mil|HoleSize=0mil|Usage=FLASHONLY|Rotation=0.000|XOffset=0mil|YOffset=0mil|HoleType=Round|Shape=Relief|Width=8mil|Gap=10mil|Entries=4|*
%AMTHD51*
7,0,0,0.07500,0.05500,0.00800,45*
%
%ADD51THD51*%
G04:AMPARAMS|DCode=52|XSize=56mil|YSize=56mil|CornerRadius=0mil|HoleSize=0mil|Usage=FLASHONLY|Rotation=0.000|XOffset=0mil|YOffset=0mil|HoleType=Round|Shape=Relief|Width=8mil|Gap=10mil|Entries=4|*
%AMTHD52*
7,0,0,0.05600,0.03600,0.00800,45*
%
%ADD52THD52*%
%ADD53C,0.04000*%
%ADD54C,0.03400*%
G04:AMPARAMS|DCode=55|XSize=50mil|YSize=50mil|CornerRadius=0mil|HoleSize=0mil|Usage=FLASHONLY|Rotation=0.000|XOffset=0mil|YOffset=0mil|HoleType=Round|Shape=Relief|Width=8mil|Gap=10mil|Entries=4|*
%AMTHD55*
7,0,0,0.05000,0.03000,0.00800,45*
%
%ADD55THD55*%
%ADD56C,0.14900*%
%ADD57R,0.02402X0.09843*%
%ADD58C,0.01969*%
%ADD59C,0.00984*%
%ADD60C,0.02362*%
%ADD61C,0.00394*%
%ADD62C,0.00787*%
%ADD63C,0.01181*%
%ADD64R,0.12311X0.06799*%
%ADD65R,0.24910X0.23335*%
%ADD66R,0.05618X0.07587*%
%ADD67R,0.03740X0.02165*%
%ADD68O,0.07193X0.01681*%
%ADD69R,0.07587X0.05618*%
%ADD70R,0.05224X0.06012*%
%ADD71R,0.06012X0.05224*%
%ADD72R,0.22154X0.08374*%
%ADD73O,0.02665X0.06406*%
%ADD74O,0.01484X0.06602*%
%ADD75O,0.06602X0.01484*%
%ADD76R,0.02665X0.06209*%
%ADD77R,0.05618X0.06406*%
%ADD78R,0.03256X0.02075*%
%ADD79O,0.09161X0.02862*%
%ADD80C,0.08374*%
%ADD81R,0.06406X0.06406*%
%ADD82C,0.06406*%
%ADD83C,0.00500*%
%ADD84C,0.06500*%
%ADD85C,0.09200*%
%ADD86C,0.08000*%
%ADD87O,0.10500X0.05500*%
%ADD88C,0.03500*%
%ADD89C,0.02500*%
%ADD90C,0.00800*%
D30*
X347500Y335417D02*
G03*
X335000Y322917I0J-12500D01*
G01*
Y137917D02*
G03*
X347500Y125417I12500J0D01*
G01*
X810000Y285417D02*
Y329417D01*
X347500Y335417D02*
X804000D01*
X810000Y329417D01*
X335000Y137917D02*
Y322917D01*
X347500Y125417D02*
X810000D01*
Y135417D02*
X820000Y145417D01*
Y275417D01*
X810000Y285417D02*
X820000Y275417D01*
X810000Y125417D02*
Y135417D01*
D63*
X615197Y254614D02*
D03*
X574252Y242016D02*
D03*
X564803Y254614D02*
D03*
Y251464D02*
D03*
Y248315D02*
D03*
Y245165D02*
D03*
Y242016D02*
D03*
Y238866D02*
D03*
Y235716D02*
D03*
Y232567D02*
D03*
Y229417D02*
D03*
Y226268D02*
D03*
Y223118D02*
D03*
Y219968D02*
D03*
Y216819D02*
D03*
Y213669D02*
D03*
Y210520D02*
D03*
Y207370D02*
D03*
Y204220D02*
D03*
X590000Y254614D02*
D03*
Y251464D02*
D03*
Y248315D02*
D03*
Y245165D02*
D03*
Y232567D02*
D03*
Y229417D02*
D03*
Y226268D02*
D03*
Y213669D02*
D03*
Y210520D02*
D03*
Y207370D02*
D03*
Y204220D02*
D03*
X586850D02*
D03*
Y207370D02*
D03*
Y210520D02*
D03*
Y213669D02*
D03*
Y226268D02*
D03*
Y229417D02*
D03*
Y232567D02*
D03*
Y245165D02*
D03*
Y248315D02*
D03*
Y251464D02*
D03*
Y254614D02*
D03*
X580551D02*
D03*
Y251464D02*
D03*
Y248315D02*
D03*
Y245165D02*
D03*
Y213669D02*
D03*
Y210520D02*
D03*
Y207370D02*
D03*
Y204220D02*
D03*
X583701D02*
D03*
Y207370D02*
D03*
Y210520D02*
D03*
Y213669D02*
D03*
Y245165D02*
D03*
Y248315D02*
D03*
Y251464D02*
D03*
Y254614D02*
D03*
X571102D02*
D03*
Y251464D02*
D03*
Y248315D02*
D03*
Y245165D02*
D03*
Y242016D02*
D03*
Y238866D02*
D03*
Y235716D02*
D03*
Y232567D02*
D03*
Y229417D02*
D03*
Y226268D02*
D03*
Y223118D02*
D03*
Y219968D02*
D03*
Y216819D02*
D03*
Y213669D02*
D03*
Y210520D02*
D03*
Y207370D02*
D03*
Y204220D02*
D03*
X567953D02*
D03*
Y207370D02*
D03*
Y210520D02*
D03*
Y213669D02*
D03*
Y216819D02*
D03*
Y219968D02*
D03*
Y223118D02*
D03*
Y226268D02*
D03*
Y229417D02*
D03*
Y232567D02*
D03*
Y235716D02*
D03*
Y238866D02*
D03*
Y242016D02*
D03*
Y245165D02*
D03*
Y248315D02*
D03*
Y251464D02*
D03*
Y254614D02*
D03*
X574252D02*
D03*
Y251464D02*
D03*
Y248315D02*
D03*
Y245165D02*
D03*
Y238866D02*
D03*
Y235716D02*
D03*
Y232567D02*
D03*
Y229417D02*
D03*
Y226268D02*
D03*
Y223118D02*
D03*
Y219968D02*
D03*
Y216819D02*
D03*
Y213669D02*
D03*
Y210520D02*
D03*
Y207370D02*
D03*
Y204220D02*
D03*
X577402D02*
D03*
Y207370D02*
D03*
Y210520D02*
D03*
Y213669D02*
D03*
Y245165D02*
D03*
Y248315D02*
D03*
Y251464D02*
D03*
Y254614D02*
D03*
X602598D02*
D03*
Y251464D02*
D03*
Y248315D02*
D03*
Y245165D02*
D03*
Y213669D02*
D03*
Y210520D02*
D03*
Y207370D02*
D03*
Y204220D02*
D03*
X599449D02*
D03*
Y207370D02*
D03*
Y210520D02*
D03*
Y213669D02*
D03*
Y245165D02*
D03*
Y248315D02*
D03*
Y251464D02*
D03*
Y254614D02*
D03*
X593150D02*
D03*
Y251464D02*
D03*
Y248315D02*
D03*
Y245165D02*
D03*
Y232567D02*
D03*
Y229417D02*
D03*
Y226268D02*
D03*
Y213669D02*
D03*
Y210520D02*
D03*
Y207370D02*
D03*
Y204220D02*
D03*
X596299D02*
D03*
Y207370D02*
D03*
Y210520D02*
D03*
Y213669D02*
D03*
Y245165D02*
D03*
Y248315D02*
D03*
Y251464D02*
D03*
Y254614D02*
D03*
X608898D02*
D03*
Y251464D02*
D03*
Y248315D02*
D03*
Y245165D02*
D03*
Y242016D02*
D03*
Y238866D02*
D03*
Y235716D02*
D03*
Y232567D02*
D03*
Y229417D02*
D03*
Y226268D02*
D03*
Y223118D02*
D03*
Y219968D02*
D03*
Y216819D02*
D03*
Y213669D02*
D03*
Y210520D02*
D03*
Y207370D02*
D03*
Y204220D02*
D03*
X605748D02*
D03*
Y207370D02*
D03*
Y210520D02*
D03*
Y213669D02*
D03*
Y216819D02*
D03*
Y219968D02*
D03*
Y223118D02*
D03*
Y226268D02*
D03*
Y229417D02*
D03*
Y232567D02*
D03*
Y235716D02*
D03*
Y238866D02*
D03*
Y242016D02*
D03*
Y245165D02*
D03*
Y248315D02*
D03*
Y251464D02*
D03*
Y254614D02*
D03*
X612047D02*
D03*
Y251464D02*
D03*
Y248315D02*
D03*
Y245165D02*
D03*
Y242016D02*
D03*
Y238866D02*
D03*
Y235716D02*
D03*
Y232567D02*
D03*
Y229417D02*
D03*
Y226268D02*
D03*
Y223118D02*
D03*
Y219968D02*
D03*
Y216819D02*
D03*
Y213669D02*
D03*
Y210520D02*
D03*
Y207370D02*
D03*
Y204220D02*
D03*
X615197D02*
D03*
Y207370D02*
D03*
Y210520D02*
D03*
Y213669D02*
D03*
Y216819D02*
D03*
Y219968D02*
D03*
Y223118D02*
D03*
Y226268D02*
D03*
Y229417D02*
D03*
Y232567D02*
D03*
Y235716D02*
D03*
Y238866D02*
D03*
Y242016D02*
D03*
Y245165D02*
D03*
Y248315D02*
D03*
Y251464D02*
D03*
D64*
X474000Y151472D02*
D03*
Y133362D02*
D03*
D65*
X502347Y142417D02*
D03*
D66*
X346291Y133417D02*
D03*
X357709D02*
D03*
X525291Y147417D02*
D03*
X536709D02*
D03*
X607709Y301417D02*
D03*
X596291D02*
D03*
X577709D02*
D03*
X566291D02*
D03*
X629000Y161417D02*
D03*
X640417D02*
D03*
X640000Y171417D02*
D03*
X651417D02*
D03*
X527709Y173417D02*
D03*
X516291D02*
D03*
X536291D02*
D03*
X547709D02*
D03*
X534291Y247417D02*
D03*
X545709D02*
D03*
X647709Y217417D02*
D03*
X636291D02*
D03*
X653709Y199417D02*
D03*
X642291D02*
D03*
X547709Y195417D02*
D03*
X536291D02*
D03*
X415791Y134417D02*
D03*
X427209D02*
D03*
X432291Y165417D02*
D03*
X443709D02*
D03*
X497709Y255417D02*
D03*
X486291D02*
D03*
X664291Y283417D02*
D03*
X675709D02*
D03*
X668291Y293417D02*
D03*
X679709D02*
D03*
X744291Y215417D02*
D03*
X755709D02*
D03*
X461709Y133417D02*
D03*
X450291D02*
D03*
X749709Y145417D02*
D03*
X738291D02*
D03*
X786791D02*
D03*
X798209D02*
D03*
X768791D02*
D03*
X780209D02*
D03*
X388291Y159417D02*
D03*
X399709D02*
D03*
X365791Y183417D02*
D03*
X377209D02*
D03*
D67*
X675150Y232693D02*
D03*
Y242142D02*
D03*
X668850D02*
D03*
Y232693D02*
D03*
Y238992D02*
D03*
Y235842D02*
D03*
X675150Y238992D02*
D03*
Y235842D02*
D03*
X679150Y218693D02*
D03*
Y228142D02*
D03*
X672850D02*
D03*
Y218693D02*
D03*
Y224992D02*
D03*
Y221842D02*
D03*
X679150Y224992D02*
D03*
Y221842D02*
D03*
X638950Y246693D02*
D03*
Y256142D02*
D03*
X632650D02*
D03*
Y246693D02*
D03*
Y252992D02*
D03*
Y249842D02*
D03*
X638950Y252992D02*
D03*
Y249842D02*
D03*
X667150Y266693D02*
D03*
Y276142D02*
D03*
X660850D02*
D03*
Y266693D02*
D03*
Y272992D02*
D03*
Y269842D02*
D03*
X667150Y272992D02*
D03*
Y269842D02*
D03*
X679150Y256693D02*
D03*
Y266142D02*
D03*
X672850D02*
D03*
Y256693D02*
D03*
Y262992D02*
D03*
Y259842D02*
D03*
X679150Y262992D02*
D03*
Y259842D02*
D03*
X667150Y248193D02*
D03*
Y257642D02*
D03*
X660850D02*
D03*
Y248193D02*
D03*
Y254492D02*
D03*
Y251342D02*
D03*
X667150Y254492D02*
D03*
Y251342D02*
D03*
X705150Y290693D02*
D03*
Y300142D02*
D03*
X698850D02*
D03*
Y290693D02*
D03*
Y296992D02*
D03*
Y293842D02*
D03*
X705150Y296992D02*
D03*
Y293842D02*
D03*
X719150Y296693D02*
D03*
Y306142D02*
D03*
X712850D02*
D03*
Y296693D02*
D03*
Y302992D02*
D03*
Y299842D02*
D03*
X719150Y302992D02*
D03*
Y299842D02*
D03*
X528850Y314142D02*
D03*
Y304693D02*
D03*
X535150D02*
D03*
Y314142D02*
D03*
Y307842D02*
D03*
Y310992D02*
D03*
X528850Y307842D02*
D03*
Y310992D02*
D03*
Y266142D02*
D03*
Y256693D02*
D03*
X535150D02*
D03*
Y266142D02*
D03*
Y259842D02*
D03*
Y262992D02*
D03*
X528850Y259842D02*
D03*
Y262992D02*
D03*
Y298142D02*
D03*
Y288693D02*
D03*
X535150D02*
D03*
Y298142D02*
D03*
Y291842D02*
D03*
Y294992D02*
D03*
X528850Y291842D02*
D03*
Y294992D02*
D03*
Y282142D02*
D03*
Y272693D02*
D03*
X535150D02*
D03*
Y282142D02*
D03*
Y275842D02*
D03*
Y278992D02*
D03*
X528850Y275842D02*
D03*
Y278992D02*
D03*
X472850Y250142D02*
D03*
Y240693D02*
D03*
X479150D02*
D03*
Y250142D02*
D03*
Y243842D02*
D03*
Y246992D02*
D03*
X472850Y243842D02*
D03*
Y246992D02*
D03*
X490850Y248142D02*
D03*
Y238693D02*
D03*
X497150D02*
D03*
Y248142D02*
D03*
Y241842D02*
D03*
Y244992D02*
D03*
X490850Y241842D02*
D03*
Y244992D02*
D03*
D68*
X633638Y153354D02*
D03*
Y151386D02*
D03*
Y149417D02*
D03*
Y147449D02*
D03*
Y145480D02*
D03*
X649780Y153354D02*
D03*
Y151386D02*
D03*
Y149417D02*
D03*
Y147449D02*
D03*
Y145480D02*
D03*
X426205Y308055D02*
D03*
Y306087D02*
D03*
Y304118D02*
D03*
Y302149D02*
D03*
Y300181D02*
D03*
Y298212D02*
D03*
Y296244D02*
D03*
Y294275D02*
D03*
Y292307D02*
D03*
Y290338D02*
D03*
Y288370D02*
D03*
Y286401D02*
D03*
Y284433D02*
D03*
Y282464D02*
D03*
Y280496D02*
D03*
Y278527D02*
D03*
Y276559D02*
D03*
Y274590D02*
D03*
Y272622D02*
D03*
Y270653D02*
D03*
Y268685D02*
D03*
Y266716D02*
D03*
Y264748D02*
D03*
Y262779D02*
D03*
X501795Y308055D02*
D03*
Y306087D02*
D03*
Y304118D02*
D03*
Y302149D02*
D03*
Y300181D02*
D03*
Y298212D02*
D03*
Y296244D02*
D03*
Y294275D02*
D03*
Y292307D02*
D03*
Y290338D02*
D03*
Y288370D02*
D03*
Y286401D02*
D03*
Y284433D02*
D03*
Y282464D02*
D03*
Y280496D02*
D03*
Y278527D02*
D03*
Y276559D02*
D03*
Y274590D02*
D03*
Y272622D02*
D03*
Y270653D02*
D03*
Y268685D02*
D03*
Y266716D02*
D03*
Y264748D02*
D03*
Y262779D02*
D03*
X526429Y163768D02*
D03*
Y161799D02*
D03*
Y159831D02*
D03*
Y157862D02*
D03*
Y155894D02*
D03*
X542571Y163768D02*
D03*
Y161799D02*
D03*
Y159831D02*
D03*
Y157862D02*
D03*
Y155894D02*
D03*
D69*
X663209Y157126D02*
D03*
Y145709D02*
D03*
X673209Y157126D02*
D03*
Y145709D02*
D03*
X565500Y174039D02*
D03*
Y162622D02*
D03*
X555500Y174039D02*
D03*
Y162622D02*
D03*
X508000Y159709D02*
D03*
Y171126D02*
D03*
X612000Y189126D02*
D03*
Y177709D02*
D03*
X634000Y237126D02*
D03*
Y225709D02*
D03*
X644000Y237126D02*
D03*
Y225709D02*
D03*
X458000Y325126D02*
D03*
Y313709D02*
D03*
X448000Y329126D02*
D03*
Y317709D02*
D03*
X418000Y327626D02*
D03*
Y316209D02*
D03*
X596000Y157126D02*
D03*
Y145709D02*
D03*
X428000Y327626D02*
D03*
Y316209D02*
D03*
X514000Y243126D02*
D03*
Y231709D02*
D03*
X438000Y257126D02*
D03*
Y245708D02*
D03*
X507000Y331126D02*
D03*
Y319709D02*
D03*
X497000Y330626D02*
D03*
Y319209D02*
D03*
X768000Y305126D02*
D03*
Y293709D02*
D03*
X758000Y307126D02*
D03*
Y295709D02*
D03*
X742300Y311126D02*
D03*
Y299709D02*
D03*
X734000Y311126D02*
D03*
Y299709D02*
D03*
X480000Y229126D02*
D03*
Y217709D02*
D03*
X498500Y184126D02*
D03*
Y172709D02*
D03*
X470000Y229126D02*
D03*
Y217709D02*
D03*
X398000Y208626D02*
D03*
Y197209D02*
D03*
X388000Y208626D02*
D03*
Y197209D02*
D03*
X408500Y189126D02*
D03*
Y177708D02*
D03*
X421500Y209126D02*
D03*
Y197709D02*
D03*
X411500Y209126D02*
D03*
Y197709D02*
D03*
X418500Y189126D02*
D03*
Y177708D02*
D03*
X370000Y209126D02*
D03*
Y197709D02*
D03*
X554000Y231126D02*
D03*
Y219709D02*
D03*
X808000Y191126D02*
D03*
Y179709D02*
D03*
X702000Y163126D02*
D03*
Y151709D02*
D03*
X692000Y157126D02*
D03*
Y145709D02*
D03*
X682000Y157126D02*
D03*
Y145709D02*
D03*
X581000Y193626D02*
D03*
Y182209D02*
D03*
X571000Y193626D02*
D03*
Y182209D02*
D03*
X606709Y155417D02*
D03*
Y144000D02*
D03*
X410000Y297709D02*
D03*
Y309126D02*
D03*
X428000Y251126D02*
D03*
Y239708D02*
D03*
D70*
X539543Y137417D02*
D03*
X532457D02*
D03*
X436457Y233417D02*
D03*
X443543D02*
D03*
X620457Y181417D02*
D03*
X627543D02*
D03*
X525543Y137417D02*
D03*
X518457D02*
D03*
X522957Y231417D02*
D03*
X530043D02*
D03*
X525351Y238417D02*
D03*
X531650D02*
D03*
X347543Y181417D02*
D03*
X340457D02*
D03*
X532000Y185417D02*
D03*
X539087D02*
D03*
X342457Y303417D02*
D03*
X349543D02*
D03*
X441543Y215417D02*
D03*
X434457D02*
D03*
X475850Y319417D02*
D03*
X482150D02*
D03*
X663543Y189417D02*
D03*
X656457D02*
D03*
X661543Y181417D02*
D03*
X654457D02*
D03*
X519543Y199417D02*
D03*
X512457D02*
D03*
Y192417D02*
D03*
X519543D02*
D03*
X452850Y217417D02*
D03*
X459150D02*
D03*
X395150Y185417D02*
D03*
X388850D02*
D03*
X435457Y135417D02*
D03*
X442543D02*
D03*
X466457Y160417D02*
D03*
X473543D02*
D03*
X490457Y161417D02*
D03*
X497543D02*
D03*
X797543Y213417D02*
D03*
X790457D02*
D03*
X752457Y227417D02*
D03*
X759543D02*
D03*
X605543Y170000D02*
D03*
X598457D02*
D03*
X691543Y211417D02*
D03*
X684457D02*
D03*
X574457Y163417D02*
D03*
X581543D02*
D03*
X508457Y183417D02*
D03*
X515543D02*
D03*
D71*
X604000Y188961D02*
D03*
Y181874D02*
D03*
X616709Y158165D02*
D03*
Y165252D02*
D03*
X350000Y208961D02*
D03*
Y201874D02*
D03*
X490000Y224960D02*
D03*
Y217874D02*
D03*
X498000Y224960D02*
D03*
Y217874D02*
D03*
X489000Y322961D02*
D03*
Y315874D02*
D03*
X670000Y171874D02*
D03*
Y178961D02*
D03*
X678000Y177874D02*
D03*
Y184961D02*
D03*
X482000Y174960D02*
D03*
Y167874D02*
D03*
X504000Y198960D02*
D03*
Y191874D02*
D03*
X432000Y194268D02*
D03*
Y200567D02*
D03*
X592000Y176961D02*
D03*
Y169874D02*
D03*
X634000Y206961D02*
D03*
Y199874D02*
D03*
X342000Y208960D02*
D03*
Y201874D02*
D03*
X362000Y204960D02*
D03*
Y197874D02*
D03*
X456500Y254960D02*
D03*
Y247874D02*
D03*
X448500Y253960D02*
D03*
Y246874D02*
D03*
X438000Y316374D02*
D03*
Y323461D02*
D03*
X616709Y144165D02*
D03*
Y151252D02*
D03*
X450000Y234961D02*
D03*
Y227874D02*
D03*
X538000Y235961D02*
D03*
Y228874D02*
D03*
X458000Y225874D02*
D03*
Y232961D02*
D03*
X422000Y170960D02*
D03*
Y163874D02*
D03*
X408000Y170960D02*
D03*
Y163874D02*
D03*
X397500Y174960D02*
D03*
Y167874D02*
D03*
X388000Y174960D02*
D03*
Y167874D02*
D03*
D72*
X563299Y284917D02*
D03*
X600701D02*
D03*
X413299Y149417D02*
D03*
X450701D02*
D03*
D73*
X796945Y197661D02*
D03*
X793795D02*
D03*
X790646D02*
D03*
X787496D02*
D03*
X784346D02*
D03*
X781197D02*
D03*
X778047D02*
D03*
X774898D02*
D03*
X771748D02*
D03*
X768598D02*
D03*
X765449D02*
D03*
X762299D02*
D03*
X759150D02*
D03*
X756000D02*
D03*
X752850D02*
D03*
X749701D02*
D03*
X746551D02*
D03*
X743402D02*
D03*
X740252D02*
D03*
X737102D02*
D03*
X733953D02*
D03*
X730803D02*
D03*
X727654D02*
D03*
X724504D02*
D03*
X721354D02*
D03*
X718205D02*
D03*
X715055D02*
D03*
X796945Y153173D02*
D03*
X793795D02*
D03*
X790646D02*
D03*
X787496D02*
D03*
X784346D02*
D03*
X781197D02*
D03*
X778047D02*
D03*
X774898D02*
D03*
X771748D02*
D03*
X768598D02*
D03*
X765449D02*
D03*
X762299D02*
D03*
X759150D02*
D03*
X756000D02*
D03*
X752850D02*
D03*
X749701D02*
D03*
X746551D02*
D03*
X743402D02*
D03*
X740252D02*
D03*
X737102D02*
D03*
X733953D02*
D03*
X730803D02*
D03*
X727654D02*
D03*
X724504D02*
D03*
X721354D02*
D03*
X718205D02*
D03*
X715055D02*
D03*
X767945Y283661D02*
D03*
X764795D02*
D03*
X761646D02*
D03*
X758496D02*
D03*
X755346D02*
D03*
X752197D02*
D03*
X749047D02*
D03*
X745898D02*
D03*
X742748D02*
D03*
X739598D02*
D03*
X736449D02*
D03*
X733299D02*
D03*
X730150D02*
D03*
X727000D02*
D03*
X723850D02*
D03*
X720701D02*
D03*
X717551D02*
D03*
X714402D02*
D03*
X711252D02*
D03*
X708102D02*
D03*
X704953D02*
D03*
X701803D02*
D03*
X698654D02*
D03*
X695504D02*
D03*
X692354D02*
D03*
X689205D02*
D03*
X686055D02*
D03*
X767945Y239173D02*
D03*
X764795D02*
D03*
X761646D02*
D03*
X758496D02*
D03*
X755346D02*
D03*
X752197D02*
D03*
X749047D02*
D03*
X745898D02*
D03*
X742748D02*
D03*
X739598D02*
D03*
X736449D02*
D03*
X733299D02*
D03*
X730150D02*
D03*
X727000D02*
D03*
X723850D02*
D03*
X720701D02*
D03*
X717551D02*
D03*
X714402D02*
D03*
X711252D02*
D03*
X708102D02*
D03*
X704953D02*
D03*
X701803D02*
D03*
X698654D02*
D03*
X695504D02*
D03*
X692354D02*
D03*
X689205D02*
D03*
X686055D02*
D03*
D74*
X445173Y205264D02*
D03*
X447142D02*
D03*
X449110D02*
D03*
X451079D02*
D03*
X453047D02*
D03*
X455016D02*
D03*
X456984D02*
D03*
X458953D02*
D03*
X460921D02*
D03*
X462890D02*
D03*
X464858D02*
D03*
X466827D02*
D03*
Y173571D02*
D03*
X464858D02*
D03*
X462890D02*
D03*
X460921D02*
D03*
X458953D02*
D03*
X456984D02*
D03*
X455016D02*
D03*
X453047D02*
D03*
X451079D02*
D03*
X449110D02*
D03*
X447142D02*
D03*
X445173D02*
D03*
D75*
X471846Y200244D02*
D03*
Y198275D02*
D03*
Y196307D02*
D03*
Y194338D02*
D03*
Y192370D02*
D03*
Y190401D02*
D03*
Y188433D02*
D03*
Y186464D02*
D03*
Y184496D02*
D03*
Y182527D02*
D03*
Y180559D02*
D03*
Y178590D02*
D03*
X440154D02*
D03*
Y180559D02*
D03*
Y182527D02*
D03*
Y184496D02*
D03*
Y186464D02*
D03*
Y188433D02*
D03*
Y190401D02*
D03*
Y192370D02*
D03*
Y194338D02*
D03*
Y196307D02*
D03*
Y198275D02*
D03*
Y200244D02*
D03*
D76*
X378000Y200543D02*
D03*
Y191291D02*
D03*
D77*
X348260Y191417D02*
D03*
X355740D02*
D03*
X546260Y186000D02*
D03*
X553740D02*
D03*
D78*
X472965Y331477D02*
D03*
Y328918D02*
D03*
Y326359D02*
D03*
X481036D02*
D03*
Y331477D02*
D03*
D79*
X516551Y220917D02*
D03*
Y215917D02*
D03*
Y210917D02*
D03*
Y205917D02*
D03*
X535449Y220917D02*
D03*
Y215917D02*
D03*
Y210917D02*
D03*
Y205917D02*
D03*
D80*
X367789Y139913D02*
D03*
X355978Y158417D02*
D03*
X379600D02*
D03*
D81*
X594000Y135417D02*
D03*
X714000Y325417D02*
D03*
X800000D02*
D03*
X750000Y135417D02*
D03*
X680000D02*
D03*
D82*
X604000D02*
D03*
X614000D02*
D03*
X704000Y325417D02*
D03*
X694000D02*
D03*
X684000D02*
D03*
X674000D02*
D03*
X664000D02*
D03*
X654000D02*
D03*
X644000D02*
D03*
X790000D02*
D03*
X780000D02*
D03*
X770000D02*
D03*
X760000D02*
D03*
X750000D02*
D03*
X740000D02*
D03*
X730000D02*
D03*
X760000Y135417D02*
D03*
X770000D02*
D03*
X780000D02*
D03*
X790000D02*
D03*
X800000D02*
D03*
X690000D02*
D03*
X700000D02*
D03*
X710000D02*
D03*
X720000D02*
D03*
X730000D02*
D03*
D83*
X744283Y227417D02*
D03*
X779716D02*
D03*
X728063D02*
D03*
X795937D02*
D03*
D84*
X412000Y279417D02*
D03*
Y271417D02*
D03*
Y263417D02*
D03*
X402000Y275417D02*
D03*
Y267417D02*
D03*
Y259417D02*
D03*
X376000Y236417D02*
D03*
Y274417D02*
D03*
X377500Y131917D02*
D03*
X545500Y325917D02*
D03*
X519500D02*
D03*
D85*
X376000Y220817D02*
D03*
Y290017D02*
D03*
D86*
X351000Y225817D02*
D03*
X341000D02*
D03*
X351000Y285017D02*
D03*
X341000D02*
D03*
D87*
X579811Y136559D02*
D03*
Y154276D02*
D03*
X556189Y136559D02*
D03*
Y154276D02*
D03*
D88*
X502500Y142000D02*
D03*
X510000Y188000D02*
D03*
X355500Y184917D02*
D03*
X512000Y133417D02*
D03*
X493000Y151417D02*
D03*
Y133417D02*
D03*
X512000Y151417D02*
D03*
X464500Y140417D02*
D03*
X435500Y129417D02*
D03*
X474000Y139917D02*
D03*
Y146417D02*
D03*
X515000Y161417D02*
D03*
X543500Y146417D02*
D03*
X531457Y179917D02*
D03*
X597500Y175417D02*
D03*
X571500Y157295D02*
D03*
X653500Y129917D02*
D03*
X787500Y246917D02*
D03*
X735500Y211917D02*
D03*
X684500Y202417D02*
D03*
X707500Y210417D02*
D03*
X790500Y206917D02*
D03*
X691500Y217417D02*
D03*
X789500Y218917D02*
D03*
X757500Y221417D02*
D03*
X762500Y232917D02*
D03*
X711000Y214417D02*
D03*
X708500Y217417D02*
D03*
X736500Y232917D02*
D03*
X720500D02*
D03*
X508500Y291917D02*
D03*
X511000Y286917D02*
D03*
X428000Y165417D02*
D03*
X729500Y218417D02*
D03*
X738500Y181917D02*
D03*
X747500Y203917D02*
D03*
X798000Y161417D02*
D03*
X790496Y162913D02*
D03*
X727000Y308417D02*
D03*
X626000Y134917D02*
D03*
X381500Y204917D02*
D03*
X427000Y209417D02*
D03*
X623500Y173917D02*
D03*
X787500Y281417D02*
D03*
X790500Y300417D02*
D03*
X789000Y291917D02*
D03*
X780500Y312917D02*
D03*
X790500Y285917D02*
D03*
X736000Y254417D02*
D03*
X701803Y230114D02*
D03*
X730000Y205917D02*
D03*
X706000Y267417D02*
D03*
X564500Y190417D02*
D03*
X565000Y184417D02*
D03*
X561000Y186417D02*
D03*
X561500Y182417D02*
D03*
X600500Y162417D02*
D03*
X596000D02*
D03*
X549000Y157417D02*
D03*
X539500Y167417D02*
D03*
X684500Y220417D02*
D03*
X519500Y148917D02*
D03*
X749500Y308417D02*
D03*
X431500Y257417D02*
D03*
X538000Y317417D02*
D03*
X539000Y301917D02*
D03*
X442000Y330917D02*
D03*
X433000Y332417D02*
D03*
X551500Y258917D02*
D03*
X731000Y250417D02*
D03*
X542500Y268417D02*
D03*
X617000Y290917D02*
D03*
X684809Y258226D02*
D03*
X691009D02*
D03*
X685000Y225417D02*
D03*
X698500Y223296D02*
D03*
X479000Y188417D02*
D03*
X483500D02*
D03*
X482500Y193917D02*
D03*
X483500Y184417D02*
D03*
X585000Y290417D02*
D03*
X504500Y258417D02*
D03*
X470500Y172917D02*
D03*
X755000Y146917D02*
D03*
X516500Y249417D02*
D03*
X528000Y249417D02*
D03*
X708244Y153173D02*
D03*
X658000Y283417D02*
D03*
X431750Y282167D02*
D03*
X401000Y190917D02*
D03*
X488043Y174960D02*
D03*
X683500Y229417D02*
D03*
X689500Y231917D02*
D03*
X653709Y206208D02*
D03*
X616000Y285417D02*
D03*
X503000Y211417D02*
D03*
X504000Y236417D02*
D03*
X497500Y235917D02*
D03*
X639500Y189917D02*
D03*
X625000Y191917D02*
D03*
X692354Y243772D02*
D03*
X548000Y256917D02*
D03*
X611500Y291917D02*
D03*
X479500Y237417D02*
D03*
X502000Y242417D02*
D03*
X695504Y227413D02*
D03*
X518000Y262417D02*
D03*
X540500Y286417D02*
D03*
X552000Y307417D02*
D03*
X556000Y308417D02*
D03*
X510500Y301917D02*
D03*
X513500Y305917D02*
D03*
X524000Y297917D02*
D03*
X543500Y303417D02*
D03*
X461000Y164417D02*
D03*
X470000Y212417D02*
D03*
X464500Y192917D02*
D03*
X484500Y209917D02*
D03*
X663000Y293417D02*
D03*
X660000Y207417D02*
D03*
X661500Y306417D02*
D03*
X656000Y304417D02*
D03*
X759500Y272917D02*
D03*
X736000Y276417D02*
D03*
X492000Y183917D02*
D03*
X517500Y271917D02*
D03*
X523000Y282417D02*
D03*
X514000Y283917D02*
D03*
X509500Y296417D02*
D03*
X520000Y301417D02*
D03*
X519000Y293917D02*
D03*
X768250Y187667D02*
D03*
X691000Y165167D02*
D03*
X680535Y167383D02*
D03*
X695500Y162917D02*
D03*
X695000Y167917D02*
D03*
X691000Y170417D02*
D03*
X695000Y172917D02*
D03*
X691000Y175917D02*
D03*
X694000Y178417D02*
D03*
X749500Y160417D02*
D03*
X756500Y160500D02*
D03*
X762209Y163209D02*
D03*
X768500Y159917D02*
D03*
X772500Y161417D02*
D03*
X787496Y159413D02*
D03*
X618500Y188917D02*
D03*
X620500Y169917D02*
D03*
X518500Y156917D02*
D03*
X572500Y173917D02*
D03*
X610500Y160917D02*
D03*
X633500Y142417D02*
D03*
X625709D02*
D03*
X648209Y159417D02*
D03*
X625709Y147917D02*
D03*
X653709Y159417D02*
D03*
X656500Y145709D02*
D03*
X663209Y166917D02*
D03*
X437500Y207917D02*
D03*
X363000Y211417D02*
D03*
X410500Y134417D02*
D03*
X488500Y170417D02*
D03*
X474500Y234417D02*
D03*
X479500Y201417D02*
D03*
X536291D02*
D03*
X669000Y165917D02*
D03*
X480250Y197167D02*
D03*
X726500Y203417D02*
D03*
X724500Y207917D02*
D03*
X721209Y205417D02*
D03*
X717500Y207417D02*
D03*
X519500Y276917D02*
D03*
X521000Y265917D02*
D03*
X524500Y271417D02*
D03*
X513500Y279417D02*
D03*
X452000Y273917D02*
D03*
X486000Y243417D02*
D03*
X439890Y278527D02*
D03*
X486500Y249417D02*
D03*
X435500Y266917D02*
D03*
X467500Y245917D02*
D03*
X463000Y256917D02*
D03*
X452500Y258917D02*
D03*
X462500Y211417D02*
D03*
X472346Y205264D02*
D03*
X489000Y195917D02*
D03*
X526500Y196917D02*
D03*
X488500Y191417D02*
D03*
X497000Y191917D02*
D03*
X497043Y198960D02*
D03*
X793795Y160122D02*
D03*
X778000Y159417D02*
D03*
X781500Y161417D02*
D03*
X639788Y301705D02*
D03*
X634000Y300917D02*
D03*
X722500Y268917D02*
D03*
X702500Y269917D02*
D03*
X725500Y272417D02*
D03*
X724000Y276917D02*
D03*
X692500Y268417D02*
D03*
X699500Y272917D02*
D03*
X695500Y271417D02*
D03*
X689500D02*
D03*
X685500Y268417D02*
D03*
X711500Y208917D02*
D03*
X628500Y206917D02*
D03*
X723500Y246417D02*
D03*
X531000Y191917D02*
D03*
X543500Y258417D02*
D03*
X542000Y254417D02*
D03*
X554500Y270917D02*
D03*
X682500Y279917D02*
D03*
X711500Y277417D02*
D03*
X667500Y221417D02*
D03*
X629000Y221917D02*
D03*
X628500Y236417D02*
D03*
X805000Y201917D02*
D03*
X440791Y172209D02*
D03*
X453000Y181917D02*
D03*
X458500Y167917D02*
D03*
X501500Y246417D02*
D03*
X507000Y244917D02*
D03*
X801500Y304917D02*
D03*
X781500Y187417D02*
D03*
X763500Y311417D02*
D03*
X735000Y219417D02*
D03*
X743500Y203417D02*
D03*
X795000Y309917D02*
D03*
X793000Y288917D02*
D03*
X503500Y216417D02*
D03*
X474000Y174917D02*
D03*
X479500Y157917D02*
D03*
X355500Y201874D02*
D03*
X382500Y188791D02*
D03*
X520000Y164917D02*
D03*
X497500Y166917D02*
D03*
X553000Y194417D02*
D03*
X582000Y171917D02*
D03*
X433500Y311917D02*
D03*
X432000Y286417D02*
D03*
X463543Y247874D02*
D03*
X521000Y244417D02*
D03*
X508421Y280496D02*
D03*
X676500Y171417D02*
D03*
X605000Y175417D02*
D03*
X706500Y144917D02*
D03*
X715055Y204362D02*
D03*
X630500Y217417D02*
D03*
X642291Y206626D02*
D03*
X762299Y159000D02*
D03*
X793500Y139917D02*
D03*
X756000Y181417D02*
D03*
X774500Y187417D02*
D03*
X796945Y185417D02*
D03*
X790646Y186417D02*
D03*
X734000Y272417D02*
D03*
X687000Y291917D02*
D03*
X727000Y303917D02*
D03*
X751709Y222917D02*
D03*
X759500Y250917D02*
D03*
X759000Y277063D02*
D03*
X349500Y297417D02*
D03*
X434000Y174417D02*
D03*
X425000Y179917D02*
D03*
X431000Y177917D02*
D03*
X428500Y185917D02*
D03*
X446500Y190417D02*
D03*
X457500Y212217D02*
D03*
X447500Y217417D02*
D03*
X429000Y215917D02*
D03*
X508000Y310417D02*
D03*
X465000Y330417D02*
D03*
X469000Y328917D02*
D03*
X503000Y313417D02*
D03*
X469012Y320929D02*
D03*
X485000Y331417D02*
D03*
X483941Y326359D02*
D03*
X451500Y312417D02*
D03*
X434000Y240417D02*
D03*
X419000Y297917D02*
D03*
X411000Y315917D02*
D03*
X571000Y198917D02*
D03*
X481000Y213417D02*
D03*
X442957Y225874D02*
D03*
X463500Y233417D02*
D03*
X504000Y226417D02*
D03*
X506000Y222417D02*
D03*
X450000Y239917D02*
D03*
X341000Y297417D02*
D03*
X357000Y213917D02*
D03*
X342000D02*
D03*
X378000Y209917D02*
D03*
X414500Y170917D02*
D03*
X402000Y176417D02*
D03*
X392500Y179417D02*
D03*
X360000Y185417D02*
D03*
X793987Y298430D02*
D03*
X390500Y152417D02*
D03*
X466000Y323417D02*
D03*
D89*
X688000Y199417D02*
D03*
X601481Y196936D02*
D03*
X696500Y201417D02*
D03*
X693500Y204917D02*
D03*
Y200417D02*
D03*
X788000Y277417D02*
D03*
X734000Y203417D02*
D03*
X737182Y203217D02*
D03*
X693500Y183917D02*
D03*
X687500Y204917D02*
D03*
X642500Y253917D02*
D03*
Y248917D02*
D03*
X726000Y250417D02*
D03*
X728500Y254917D02*
D03*
X722000Y259417D02*
D03*
X722500Y264417D02*
D03*
X728500Y262917D02*
D03*
X733000Y260417D02*
D03*
X725000Y266417D02*
D03*
X554000Y244417D02*
D03*
X682000Y269917D02*
D03*
X677500Y276917D02*
D03*
X671500D02*
D03*
X656500Y255417D02*
D03*
X657000Y263917D02*
D03*
Y258417D02*
D03*
X643500Y262417D02*
D03*
X639000Y264917D02*
D03*
X641000Y267917D02*
D03*
X639500Y270417D02*
D03*
X635000Y276917D02*
D03*
X628247Y270117D02*
D03*
X637000Y262417D02*
D03*
X657000Y247917D02*
D03*
X643000Y243417D02*
D03*
X637000Y259417D02*
D03*
X625850Y268417D02*
D03*
X661500Y260417D02*
D03*
X656500Y271417D02*
D03*
Y277417D02*
D03*
X677500Y248417D02*
D03*
X680500D02*
D03*
X680000Y243417D02*
D03*
X671000Y245917D02*
D03*
X664877Y241295D02*
D03*
X663000Y235167D02*
D03*
X629000Y249417D02*
D03*
X633000Y258917D02*
D03*
X558000Y253417D02*
D03*
X730500Y257417D02*
D03*
X710313Y265816D02*
D03*
X618000Y269917D02*
D03*
X548500D02*
D03*
X656500Y274417D02*
D03*
X644500Y272417D02*
D03*
X628671Y276746D02*
D03*
X637500Y244417D02*
D03*
X656500Y268417D02*
D03*
X566000Y270417D02*
D03*
X558500Y271417D02*
D03*
X550709Y244417D02*
D03*
X552000Y235917D02*
D03*
X674500Y248917D02*
D03*
X664500Y261417D02*
D03*
X668500Y262402D02*
D03*
X627500Y273417D02*
D03*
X639500Y279917D02*
D03*
X636500Y280417D02*
D03*
X642000Y281917D02*
D03*
X651650Y290067D02*
D03*
X649175Y287592D02*
D03*
X646500Y285917D02*
D03*
X645000Y283417D02*
D03*
X664500Y238417D02*
D03*
X548500Y209917D02*
D03*
X697500Y181417D02*
D03*
X724500Y257417D02*
D03*
X557911Y207006D02*
D03*
X553000Y210917D02*
D03*
X554000Y262417D02*
D03*
X542000Y241917D02*
D03*
X550500Y267417D02*
D03*
X669000Y227917D02*
D03*
X668500Y224917D02*
D03*
X664500Y229417D02*
D03*
X717500Y267417D02*
D03*
X715500Y270917D02*
D03*
X712500Y267917D02*
D03*
X556500Y246417D02*
D03*
X622000Y290417D02*
D03*
X682000Y238917D02*
D03*
X621500Y271417D02*
D03*
X618500Y278917D02*
D03*
X614000Y270917D02*
D03*
X688000Y243917D02*
D03*
X660000Y244917D02*
D03*
X602000Y272417D02*
D03*
X605000Y271417D02*
D03*
X631500Y243417D02*
D03*
X615500Y268417D02*
D03*
X589962Y190634D02*
D03*
X585500Y198917D02*
D03*
X593150Y192917D02*
D03*
X787000Y317917D02*
D03*
X789500Y309417D02*
D03*
X558500Y214917D02*
D03*
X559000Y201417D02*
D03*
X557500Y209917D02*
D03*
X507000Y286401D02*
D03*
X733000Y148417D02*
D03*
X608500Y269917D02*
D03*
X578318Y269735D02*
D03*
X582500Y270417D02*
D03*
X584500Y273417D02*
D03*
X592000D02*
D03*
X588000Y273917D02*
D03*
X588500Y270417D02*
D03*
X536000Y224417D02*
D03*
X543500D02*
D03*
X546000Y201917D02*
D03*
X507500Y217417D02*
D03*
X543500Y228917D02*
D03*
X513500Y225917D02*
D03*
X520500Y225417D02*
D03*
X499500Y229417D02*
D03*
X494500Y230917D02*
D03*
X507000Y229417D02*
D03*
D90*
X625000Y205917D02*
D03*
M02*
