%FSLAX25Y25*%
%MOIN*%
G70*
G01*
G75*
G04 Layer_Physical_Order=4*
G04 Layer_Color=2107597*
%ADD10C,0.01400*%
%ADD11R,0.11811X0.06299*%
%ADD12R,0.24410X0.22835*%
%ADD13R,0.05118X0.07087*%
%ADD14R,0.03543X0.01969*%
%ADD15O,0.06693X0.01181*%
%ADD16R,0.07087X0.05118*%
%ADD17R,0.04724X0.05512*%
%ADD18R,0.05512X0.04724*%
%ADD19R,0.21654X0.07874*%
%ADD20O,0.02165X0.05906*%
%ADD21O,0.00984X0.06102*%
%ADD22O,0.06102X0.00984*%
%ADD23R,0.02165X0.05709*%
%ADD24R,0.05118X0.05906*%
%ADD25R,0.02756X0.01575*%
%ADD26O,0.08661X0.02362*%
%ADD27C,0.01000*%
%ADD28C,0.00500*%
%ADD29C,0.02000*%
%ADD30C,0.00300*%
%ADD31C,0.07874*%
%ADD32R,0.05906X0.05906*%
%ADD33C,0.05906*%
%ADD34C,0.06000*%
%ADD35C,0.08700*%
%ADD36C,0.07500*%
%ADD37O,0.10000X0.05000*%
%ADD38C,0.03000*%
%ADD39C,0.02000*%
%ADD40C,0.12500*%
%ADD41C,0.04000*%
%ADD42C,0.07400*%
G04:AMPARAMS|DCode=43|XSize=90mil|YSize=90mil|CornerRadius=0mil|HoleSize=0mil|Usage=FLASHONLY|Rotation=0.000|XOffset=0mil|YOffset=0mil|HoleType=Round|Shape=Relief|Width=8mil|Gap=10mil|Entries=4|*
%AMTHD43*
7,0,0,0.09000,0.07000,0.00800,45*
%
%ADD43THD43*%
%ADD44C,0.05943*%
G04:AMPARAMS|DCode=45|XSize=75.433mil|YSize=75.433mil|CornerRadius=0mil|HoleSize=0mil|Usage=FLASHONLY|Rotation=0.000|XOffset=0mil|YOffset=0mil|HoleType=Round|Shape=Relief|Width=8mil|Gap=10mil|Entries=4|*
%AMTHD45*
7,0,0,0.07543,0.05543,0.00800,45*
%
%ADD45THD45*%
%ADD46C,0.07100*%
%ADD47C,0.12400*%
%ADD48C,0.05900*%
%ADD49C,0.08600*%
%ADD50C,0.15200*%
G04:AMPARAMS|DCode=51|XSize=75mil|YSize=75mil|CornerRadius=0mil|HoleSize=0mil|Usage=FLASHONLY|Rotation=0.000|XOffset=0mil|YOffset=0mil|HoleType=Round|Shape=Relief|Width=8mil|Gap=10mil|Entries=4|*
%AMTHD51*
7,0,0,0.07500,0.05500,0.00800,45*
%
%ADD51THD51*%
G04:AMPARAMS|DCode=52|XSize=56mil|YSize=56mil|CornerRadius=0mil|HoleSize=0mil|Usage=FLASHONLY|Rotation=0.000|XOffset=0mil|YOffset=0mil|HoleType=Round|Shape=Relief|Width=8mil|Gap=10mil|Entries=4|*
%AMTHD52*
7,0,0,0.05600,0.03600,0.00800,45*
%
%ADD52THD52*%
%ADD53C,0.04000*%
%ADD54C,0.03400*%
G04:AMPARAMS|DCode=55|XSize=50mil|YSize=50mil|CornerRadius=0mil|HoleSize=0mil|Usage=FLASHONLY|Rotation=0.000|XOffset=0mil|YOffset=0mil|HoleType=Round|Shape=Relief|Width=8mil|Gap=10mil|Entries=4|*
%AMTHD55*
7,0,0,0.05000,0.03000,0.00800,45*
%
%ADD55THD55*%
%ADD56C,0.14900*%
%ADD57R,0.02402X0.09843*%
G36*
X769656Y262081D02*
X769806Y262050D01*
X769938Y262013D01*
X770069Y261963D01*
X770181Y261900D01*
X770288Y261831D01*
X770388Y261762D01*
X770475Y261687D01*
X770550Y261613D01*
X770619Y261538D01*
X770675Y261469D01*
X770719Y261406D01*
X770756Y261356D01*
X770781Y261319D01*
X770794Y261287D01*
X770800Y261281D01*
Y262006D01*
X771600D01*
Y257500D01*
X770800D01*
Y260075D01*
X770794Y260175D01*
X770787Y260275D01*
X770750Y260456D01*
X770700Y260613D01*
X770675Y260687D01*
X770644Y260756D01*
X770612Y260812D01*
X770587Y260862D01*
X770563Y260912D01*
X770538Y260950D01*
X770519Y260981D01*
X770500Y261000D01*
X770494Y261013D01*
X770487Y261019D01*
X770425Y261087D01*
X770363Y261150D01*
X770300Y261200D01*
X770237Y261244D01*
X770175Y261287D01*
X770113Y261319D01*
X769994Y261363D01*
X769894Y261394D01*
X769850Y261400D01*
X769812Y261406D01*
X769788Y261413D01*
X769744D01*
X769644Y261406D01*
X769550Y261387D01*
X769456Y261356D01*
X769381Y261325D01*
X769312Y261287D01*
X769263Y261262D01*
X769231Y261238D01*
X769219Y261231D01*
X768881Y262006D01*
X769025Y262031D01*
X769150Y262056D01*
X769256Y262069D01*
X769344Y262075D01*
X769413Y262081D01*
X769462Y262087D01*
X769500D01*
X769656Y262081D01*
D02*
G37*
G36*
X740906Y263756D02*
X741144Y263731D01*
X741369Y263687D01*
X741575Y263631D01*
X741775Y263562D01*
X741950Y263488D01*
X742119Y263406D01*
X742263Y263325D01*
X742400Y263238D01*
X742513Y263156D01*
X742613Y263081D01*
X742694Y263013D01*
X742763Y262956D01*
X742806Y262913D01*
X742831Y262888D01*
X742844Y262875D01*
X742987Y262700D01*
X743113Y262519D01*
X743219Y262331D01*
X743313Y262138D01*
X743388Y261944D01*
X743450Y261750D01*
X743506Y261562D01*
X743550Y261381D01*
X743581Y261212D01*
X743606Y261056D01*
X743625Y260912D01*
X743638Y260794D01*
X743644Y260694D01*
Y260656D01*
X743650Y260619D01*
Y260594D01*
Y260575D01*
Y260562D01*
Y260556D01*
X743644Y260294D01*
X743619Y260044D01*
X743581Y259812D01*
X743538Y259594D01*
X743481Y259387D01*
X743419Y259200D01*
X743350Y259025D01*
X743281Y258869D01*
X743213Y258725D01*
X743144Y258606D01*
X743081Y258500D01*
X743025Y258413D01*
X742981Y258344D01*
X742944Y258294D01*
X742919Y258269D01*
X742912Y258256D01*
X742769Y258106D01*
X742613Y257969D01*
X742456Y257856D01*
X742287Y257756D01*
X742119Y257675D01*
X741956Y257606D01*
X741787Y257550D01*
X741631Y257500D01*
X741481Y257469D01*
X741344Y257437D01*
X741225Y257419D01*
X741119Y257406D01*
X741025Y257400D01*
X740963Y257394D01*
X740906D01*
X740694Y257400D01*
X740481Y257419D01*
X740287Y257450D01*
X740194Y257463D01*
X740106Y257481D01*
X740031Y257494D01*
X739956Y257506D01*
X739894Y257525D01*
X739838Y257538D01*
X739794Y257550D01*
X739762Y257556D01*
X739744Y257562D01*
X739738D01*
X739625Y257594D01*
X739525Y257631D01*
X739425Y257669D01*
X739331Y257706D01*
X739250Y257750D01*
X739175Y257787D01*
X739100Y257825D01*
X739038Y257862D01*
X738981Y257894D01*
X738931Y257925D01*
X738888Y257956D01*
X738856Y257975D01*
X738831Y258000D01*
X738806Y258013D01*
X738800Y258025D01*
X738794D01*
Y260713D01*
X740494D01*
Y260000D01*
X739638D01*
Y258550D01*
X739719Y258481D01*
X739806Y258419D01*
X739894Y258363D01*
X739988Y258319D01*
X740075Y258281D01*
X740169Y258250D01*
X740344Y258200D01*
X740419Y258181D01*
X740494Y258169D01*
X740562Y258162D01*
X740619Y258156D01*
X740669Y258150D01*
X740731D01*
X740906Y258156D01*
X741069Y258181D01*
X741219Y258212D01*
X741362Y258250D01*
X741494Y258300D01*
X741619Y258356D01*
X741731Y258413D01*
X741831Y258475D01*
X741925Y258538D01*
X742000Y258594D01*
X742069Y258650D01*
X742125Y258700D01*
X742169Y258737D01*
X742200Y258775D01*
X742219Y258794D01*
X742225Y258800D01*
X742319Y258925D01*
X742406Y259063D01*
X742475Y259200D01*
X742537Y259344D01*
X742594Y259488D01*
X742637Y259631D01*
X742669Y259769D01*
X742700Y259906D01*
X742725Y260031D01*
X742737Y260144D01*
X742750Y260250D01*
X742763Y260344D01*
Y260419D01*
X742769Y260469D01*
Y260506D01*
Y260519D01*
X742763Y260725D01*
X742744Y260919D01*
X742719Y261106D01*
X742681Y261275D01*
X742637Y261438D01*
X742594Y261588D01*
X742544Y261719D01*
X742487Y261844D01*
X742438Y261956D01*
X742387Y262050D01*
X742344Y262131D01*
X742300Y262200D01*
X742263Y262256D01*
X742238Y262294D01*
X742219Y262319D01*
X742212Y262325D01*
X742100Y262444D01*
X741988Y262550D01*
X741862Y262644D01*
X741738Y262725D01*
X741606Y262788D01*
X741481Y262844D01*
X741356Y262888D01*
X741237Y262925D01*
X741125Y262956D01*
X741019Y262975D01*
X740925Y262994D01*
X740844Y263000D01*
X740781Y263006D01*
X740731Y263013D01*
X740688D01*
X740575Y263006D01*
X740456Y262994D01*
X740344Y262969D01*
X740231Y262937D01*
X740025Y262862D01*
X739925Y262819D01*
X739831Y262775D01*
X739750Y262731D01*
X739669Y262687D01*
X739606Y262650D01*
X739544Y262613D01*
X739500Y262581D01*
X739469Y262556D01*
X739444Y262544D01*
X739437Y262538D01*
X739087Y263238D01*
X739206Y263331D01*
X739331Y263412D01*
X739456Y263481D01*
X739587Y263544D01*
X739719Y263594D01*
X739850Y263637D01*
X739975Y263675D01*
X740100Y263700D01*
X740212Y263725D01*
X740319Y263744D01*
X740413Y263750D01*
X740494Y263762D01*
X740562D01*
X740613Y263769D01*
X740656D01*
X740906Y263756D01*
D02*
G37*
G36*
X749050Y257500D02*
X748106D01*
X747656Y258800D01*
X745369D01*
X744938Y257500D01*
X744006D01*
X746325Y263744D01*
X746550D01*
X749050Y257500D01*
D02*
G37*
G36*
X753994Y262906D02*
X752031D01*
Y257500D01*
X751188D01*
Y262906D01*
X749137D01*
Y263663D01*
X753994D01*
Y262906D01*
D02*
G37*
G36*
X766644Y262081D02*
X766794Y262063D01*
X766937Y262031D01*
X767069Y261994D01*
X767194Y261950D01*
X767312Y261894D01*
X767425Y261844D01*
X767525Y261788D01*
X767613Y261725D01*
X767694Y261675D01*
X767763Y261625D01*
X767825Y261575D01*
X767869Y261538D01*
X767906Y261506D01*
X767925Y261488D01*
X767931Y261481D01*
X768050Y261350D01*
X768156Y261212D01*
X768244Y261069D01*
X768319Y260919D01*
X768388Y260775D01*
X768444Y260625D01*
X768488Y260481D01*
X768519Y260337D01*
X768550Y260206D01*
X768569Y260087D01*
X768587Y259981D01*
X768594Y259888D01*
X768600Y259806D01*
X768606Y259750D01*
Y259713D01*
Y259706D01*
Y259700D01*
X768600Y259506D01*
X768575Y259319D01*
X768544Y259144D01*
X768506Y258981D01*
X768456Y258825D01*
X768400Y258687D01*
X768337Y258562D01*
X768275Y258444D01*
X768219Y258344D01*
X768156Y258250D01*
X768100Y258175D01*
X768050Y258113D01*
X768013Y258056D01*
X767975Y258025D01*
X767956Y258000D01*
X767950Y257994D01*
X767837Y257894D01*
X767719Y257806D01*
X767594Y257725D01*
X767475Y257663D01*
X767350Y257606D01*
X767231Y257556D01*
X767119Y257519D01*
X767006Y257494D01*
X766900Y257469D01*
X766806Y257450D01*
X766719Y257437D01*
X766650Y257425D01*
X766587D01*
X766544Y257419D01*
X766506D01*
X766288Y257425D01*
X766087Y257444D01*
X765906Y257475D01*
X765825Y257488D01*
X765744Y257506D01*
X765675Y257525D01*
X765613Y257538D01*
X765562Y257556D01*
X765513Y257569D01*
X765481Y257575D01*
X765450Y257588D01*
X765438Y257594D01*
X765431D01*
X765300Y257644D01*
X765181Y257700D01*
X765081Y257750D01*
X765006Y257800D01*
X764944Y257844D01*
X764900Y257881D01*
X764869Y257906D01*
X764862Y257912D01*
X765200Y258488D01*
X765287Y258419D01*
X765381Y258356D01*
X765475Y258306D01*
X765575Y258262D01*
X765669Y258225D01*
X765769Y258188D01*
X765950Y258144D01*
X766031Y258125D01*
X766106Y258113D01*
X766175Y258106D01*
X766237Y258100D01*
X766281Y258094D01*
X766350D01*
X766463Y258100D01*
X766563Y258113D01*
X766663Y258125D01*
X766756Y258150D01*
X766844Y258181D01*
X766925Y258212D01*
X767000Y258244D01*
X767063Y258281D01*
X767125Y258313D01*
X767181Y258344D01*
X767225Y258375D01*
X767263Y258406D01*
X767294Y258431D01*
X767312Y258444D01*
X767325Y258456D01*
X767331Y258463D01*
X767406Y258544D01*
X767475Y258637D01*
X767531Y258731D01*
X767581Y258831D01*
X767625Y258931D01*
X767656Y259031D01*
X767688Y259131D01*
X767706Y259225D01*
X767725Y259319D01*
X767737Y259400D01*
X767750Y259481D01*
X767756Y259544D01*
X767763Y259600D01*
Y259637D01*
Y259669D01*
Y259675D01*
X764519D01*
X764494Y259756D01*
X764481Y259844D01*
X764469Y259925D01*
X764456Y260000D01*
Y260069D01*
X764450Y260119D01*
Y260150D01*
Y260162D01*
X764456Y260319D01*
X764475Y260469D01*
X764500Y260606D01*
X764531Y260737D01*
X764575Y260862D01*
X764619Y260975D01*
X764669Y261081D01*
X764712Y261175D01*
X764762Y261256D01*
X764813Y261331D01*
X764856Y261394D01*
X764900Y261450D01*
X764931Y261488D01*
X764956Y261519D01*
X764975Y261538D01*
X764981Y261544D01*
X765088Y261637D01*
X765206Y261725D01*
X765325Y261794D01*
X765450Y261856D01*
X765575Y261912D01*
X765700Y261956D01*
X765825Y261994D01*
X765944Y262019D01*
X766056Y262044D01*
X766162Y262056D01*
X766256Y262069D01*
X766337Y262081D01*
X766400D01*
X766450Y262087D01*
X766494D01*
X766644Y262081D01*
D02*
G37*
G36*
X763325Y262944D02*
Y262006D01*
X763844D01*
Y261375D01*
X763325D01*
Y258819D01*
X763319Y258706D01*
X763306Y258600D01*
X763294Y258500D01*
X763269Y258406D01*
X763244Y258319D01*
X763212Y258231D01*
X763175Y258156D01*
X763144Y258087D01*
X763112Y258025D01*
X763075Y257969D01*
X763044Y257925D01*
X763019Y257888D01*
X762994Y257856D01*
X762975Y257831D01*
X762969Y257819D01*
X762962Y257812D01*
X762894Y257744D01*
X762819Y257681D01*
X762744Y257631D01*
X762663Y257588D01*
X762587Y257550D01*
X762512Y257512D01*
X762369Y257469D01*
X762306Y257450D01*
X762244Y257437D01*
X762194Y257431D01*
X762144Y257425D01*
X762106Y257419D01*
X762056D01*
X761837Y257425D01*
X761637Y257437D01*
X761450Y257456D01*
X761363Y257469D01*
X761287Y257481D01*
X761212Y257494D01*
X761150Y257506D01*
X761094Y257512D01*
X761050Y257525D01*
X761013Y257531D01*
X760988Y257538D01*
X760969Y257544D01*
X760962D01*
X761081Y258250D01*
X761206Y258200D01*
X761319Y258162D01*
X761431Y258131D01*
X761525Y258113D01*
X761606Y258100D01*
X761662Y258094D01*
X761719D01*
X761869Y258106D01*
X761994Y258131D01*
X762100Y258169D01*
X762187Y258212D01*
X762256Y258256D01*
X762300Y258294D01*
X762331Y258319D01*
X762337Y258331D01*
X762369Y258381D01*
X762400Y258431D01*
X762444Y258556D01*
X762481Y258694D01*
X762500Y258825D01*
X762512Y258944D01*
X762519Y259000D01*
Y259044D01*
X762525Y259081D01*
Y259113D01*
Y259131D01*
Y259138D01*
Y261375D01*
X761287D01*
Y262006D01*
X762525D01*
Y263256D01*
X763325Y262944D01*
D02*
G37*
G36*
X778956Y262081D02*
X779106Y262063D01*
X779250Y262031D01*
X779381Y261994D01*
X779506Y261950D01*
X779625Y261894D01*
X779738Y261844D01*
X779838Y261788D01*
X779925Y261725D01*
X780006Y261675D01*
X780075Y261625D01*
X780137Y261575D01*
X780181Y261538D01*
X780219Y261506D01*
X780237Y261488D01*
X780244Y261481D01*
X780363Y261350D01*
X780469Y261212D01*
X780556Y261069D01*
X780631Y260919D01*
X780700Y260775D01*
X780756Y260625D01*
X780800Y260481D01*
X780831Y260337D01*
X780863Y260206D01*
X780881Y260087D01*
X780900Y259981D01*
X780906Y259888D01*
X780912Y259806D01*
X780919Y259750D01*
Y259713D01*
Y259706D01*
Y259700D01*
X780912Y259506D01*
X780888Y259319D01*
X780856Y259144D01*
X780819Y258981D01*
X780769Y258825D01*
X780713Y258687D01*
X780650Y258562D01*
X780587Y258444D01*
X780531Y258344D01*
X780469Y258250D01*
X780412Y258175D01*
X780363Y258113D01*
X780325Y258056D01*
X780288Y258025D01*
X780269Y258000D01*
X780263Y257994D01*
X780150Y257894D01*
X780031Y257806D01*
X779906Y257725D01*
X779787Y257663D01*
X779663Y257606D01*
X779544Y257556D01*
X779431Y257519D01*
X779319Y257494D01*
X779213Y257469D01*
X779119Y257450D01*
X779031Y257437D01*
X778963Y257425D01*
X778900D01*
X778856Y257419D01*
X778819D01*
X778600Y257425D01*
X778400Y257444D01*
X778219Y257475D01*
X778137Y257488D01*
X778056Y257506D01*
X777987Y257525D01*
X777925Y257538D01*
X777875Y257556D01*
X777825Y257569D01*
X777794Y257575D01*
X777763Y257588D01*
X777750Y257594D01*
X777744D01*
X777612Y257644D01*
X777494Y257700D01*
X777394Y257750D01*
X777319Y257800D01*
X777256Y257844D01*
X777212Y257881D01*
X777181Y257906D01*
X777175Y257912D01*
X777513Y258488D01*
X777600Y258419D01*
X777694Y258356D01*
X777787Y258306D01*
X777887Y258262D01*
X777981Y258225D01*
X778081Y258188D01*
X778263Y258144D01*
X778344Y258125D01*
X778419Y258113D01*
X778487Y258106D01*
X778550Y258100D01*
X778594Y258094D01*
X778662D01*
X778775Y258100D01*
X778875Y258113D01*
X778975Y258125D01*
X779069Y258150D01*
X779156Y258181D01*
X779238Y258212D01*
X779313Y258244D01*
X779375Y258281D01*
X779437Y258313D01*
X779494Y258344D01*
X779537Y258375D01*
X779575Y258406D01*
X779606Y258431D01*
X779625Y258444D01*
X779637Y258456D01*
X779644Y258463D01*
X779719Y258544D01*
X779787Y258637D01*
X779844Y258731D01*
X779894Y258831D01*
X779938Y258931D01*
X779969Y259031D01*
X780000Y259131D01*
X780019Y259225D01*
X780037Y259319D01*
X780050Y259400D01*
X780062Y259481D01*
X780069Y259544D01*
X780075Y259600D01*
Y259637D01*
Y259669D01*
Y259675D01*
X776831D01*
X776806Y259756D01*
X776794Y259844D01*
X776781Y259925D01*
X776769Y260000D01*
Y260069D01*
X776762Y260119D01*
Y260150D01*
Y260162D01*
X776769Y260319D01*
X776788Y260469D01*
X776813Y260606D01*
X776844Y260737D01*
X776888Y260862D01*
X776931Y260975D01*
X776981Y261081D01*
X777025Y261175D01*
X777075Y261256D01*
X777125Y261331D01*
X777169Y261394D01*
X777212Y261450D01*
X777244Y261488D01*
X777269Y261519D01*
X777287Y261538D01*
X777294Y261544D01*
X777400Y261637D01*
X777519Y261725D01*
X777637Y261794D01*
X777763Y261856D01*
X777887Y261912D01*
X778013Y261956D01*
X778137Y261994D01*
X778256Y262019D01*
X778369Y262044D01*
X778475Y262056D01*
X778569Y262069D01*
X778650Y262081D01*
X778713D01*
X778762Y262087D01*
X778806D01*
X778956Y262081D01*
D02*
G37*
G36*
X774069D02*
X774256Y262063D01*
X774431Y262025D01*
X774600Y261987D01*
X774756Y261937D01*
X774894Y261881D01*
X775025Y261819D01*
X775144Y261762D01*
X775244Y261700D01*
X775338Y261637D01*
X775413Y261581D01*
X775475Y261531D01*
X775525Y261494D01*
X775562Y261462D01*
X775588Y261438D01*
X775594Y261431D01*
X775706Y261306D01*
X775800Y261169D01*
X775881Y261031D01*
X775956Y260888D01*
X776013Y260744D01*
X776069Y260600D01*
X776106Y260462D01*
X776137Y260325D01*
X776169Y260200D01*
X776188Y260081D01*
X776200Y259975D01*
X776206Y259888D01*
X776213Y259812D01*
X776219Y259756D01*
Y259719D01*
Y259713D01*
Y259706D01*
X776213Y259512D01*
X776194Y259331D01*
X776162Y259162D01*
X776125Y259000D01*
X776081Y258850D01*
X776031Y258713D01*
X775975Y258588D01*
X775919Y258475D01*
X775863Y258369D01*
X775806Y258281D01*
X775756Y258206D01*
X775712Y258144D01*
X775675Y258094D01*
X775644Y258063D01*
X775625Y258037D01*
X775619Y258031D01*
X775500Y257925D01*
X775381Y257831D01*
X775256Y257750D01*
X775125Y257675D01*
X775000Y257619D01*
X774875Y257569D01*
X774750Y257525D01*
X774631Y257494D01*
X774525Y257469D01*
X774425Y257450D01*
X774331Y257437D01*
X774250Y257431D01*
X774188Y257425D01*
X774137Y257419D01*
X774100D01*
X773925Y257425D01*
X773756Y257437D01*
X773600Y257456D01*
X773444Y257488D01*
X773306Y257519D01*
X773175Y257550D01*
X773050Y257588D01*
X772944Y257631D01*
X772844Y257669D01*
X772756Y257706D01*
X772681Y257737D01*
X772612Y257775D01*
X772563Y257800D01*
X772531Y257819D01*
X772506Y257831D01*
X772500Y257838D01*
X772819Y258512D01*
X772919Y258437D01*
X773019Y258375D01*
X773119Y258319D01*
X773219Y258269D01*
X773313Y258231D01*
X773400Y258194D01*
X773481Y258169D01*
X773562Y258144D01*
X773637Y258131D01*
X773700Y258119D01*
X773756Y258106D01*
X773806Y258100D01*
X773844Y258094D01*
X773900D01*
X774025Y258100D01*
X774144Y258113D01*
X774256Y258131D01*
X774363Y258156D01*
X774463Y258188D01*
X774550Y258225D01*
X774631Y258262D01*
X774706Y258300D01*
X774769Y258337D01*
X774825Y258375D01*
X774875Y258413D01*
X774913Y258444D01*
X774944Y258469D01*
X774969Y258488D01*
X774981Y258500D01*
X774988Y258506D01*
X775056Y258588D01*
X775112Y258675D01*
X775169Y258769D01*
X775212Y258869D01*
X775250Y258969D01*
X775281Y259069D01*
X775325Y259262D01*
X775344Y259350D01*
X775356Y259437D01*
X775362Y259512D01*
X775369Y259575D01*
X775375Y259631D01*
Y259669D01*
Y259700D01*
Y259706D01*
X775369Y259850D01*
X775356Y259987D01*
X775338Y260119D01*
X775313Y260238D01*
X775287Y260350D01*
X775256Y260450D01*
X775219Y260544D01*
X775181Y260631D01*
X775150Y260706D01*
X775112Y260769D01*
X775081Y260825D01*
X775050Y260875D01*
X775031Y260906D01*
X775012Y260938D01*
X775000Y260950D01*
X774994Y260956D01*
X774919Y261037D01*
X774837Y261106D01*
X774756Y261169D01*
X774669Y261219D01*
X774581Y261262D01*
X774494Y261300D01*
X774406Y261331D01*
X774325Y261356D01*
X774250Y261375D01*
X774175Y261387D01*
X774113Y261400D01*
X774056Y261406D01*
X774013Y261413D01*
X773950D01*
X773838Y261406D01*
X773725Y261394D01*
X773625Y261375D01*
X773531Y261356D01*
X773450Y261337D01*
X773394Y261319D01*
X773369Y261313D01*
X773350Y261306D01*
X773344Y261300D01*
X773338D01*
X773231Y261262D01*
X773138Y261219D01*
X773063Y261181D01*
X773000Y261150D01*
X772956Y261119D01*
X772925Y261094D01*
X772906Y261081D01*
X772900Y261075D01*
X772500Y261637D01*
X772581Y261694D01*
X772681Y261750D01*
X772781Y261800D01*
X772881Y261844D01*
X772969Y261881D01*
X773044Y261912D01*
X773075Y261925D01*
X773094Y261931D01*
X773106Y261937D01*
X773112D01*
X773263Y261987D01*
X773400Y262025D01*
X773531Y262050D01*
X773644Y262069D01*
X773737Y262081D01*
X773775D01*
X773806Y262087D01*
X773869D01*
X774069Y262081D01*
D02*
G37*
G36*
X783394Y263762D02*
X783531Y263750D01*
X783656Y263725D01*
X783775Y263700D01*
X783887Y263663D01*
X783994Y263625D01*
X784088Y263581D01*
X784175Y263544D01*
X784250Y263500D01*
X784319Y263456D01*
X784375Y263419D01*
X784425Y263381D01*
X784462Y263356D01*
X784487Y263331D01*
X784506Y263319D01*
X784513Y263313D01*
X784600Y263225D01*
X784675Y263131D01*
X784737Y263037D01*
X784794Y262944D01*
X784844Y262844D01*
X784881Y262750D01*
X784912Y262656D01*
X784937Y262569D01*
X784956Y262488D01*
X784975Y262413D01*
X784987Y262344D01*
X784994Y262281D01*
Y262238D01*
X785000Y262200D01*
Y262175D01*
Y262169D01*
X784987Y261963D01*
X784963Y261775D01*
X784919Y261613D01*
X784900Y261538D01*
X784875Y261469D01*
X784850Y261406D01*
X784831Y261350D01*
X784806Y261306D01*
X784788Y261269D01*
X784775Y261238D01*
X784762Y261212D01*
X784750Y261200D01*
Y261194D01*
X784700Y261119D01*
X784637Y261050D01*
X784506Y260919D01*
X784363Y260794D01*
X784212Y260694D01*
X784081Y260613D01*
X784025Y260575D01*
X783969Y260550D01*
X783931Y260525D01*
X783894Y260506D01*
X783875Y260500D01*
X783869Y260494D01*
X783375Y260262D01*
X783256Y260206D01*
X783144Y260150D01*
X783050Y260094D01*
X782963Y260037D01*
X782881Y259987D01*
X782819Y259944D01*
X782756Y259894D01*
X782706Y259856D01*
X782662Y259819D01*
X782625Y259781D01*
X782594Y259756D01*
X782575Y259731D01*
X782544Y259694D01*
X782538Y259687D01*
Y259681D01*
X782481Y259581D01*
X782438Y259475D01*
X782412Y259381D01*
X782387Y259288D01*
X782375Y259212D01*
X782369Y259156D01*
Y259131D01*
Y259113D01*
Y259106D01*
Y259100D01*
X782375Y259025D01*
X782381Y258950D01*
X782412Y258819D01*
X782463Y258706D01*
X782519Y258606D01*
X782575Y258525D01*
X782619Y258469D01*
X782656Y258431D01*
X782662Y258425D01*
X782669Y258419D01*
X782725Y258369D01*
X782788Y258331D01*
X782919Y258262D01*
X783050Y258219D01*
X783175Y258181D01*
X783287Y258162D01*
X783337Y258156D01*
X783381D01*
X783413Y258150D01*
X783462D01*
X783569Y258156D01*
X783675Y258169D01*
X783781Y258188D01*
X783881Y258206D01*
X783969Y258225D01*
X784031Y258244D01*
X784056Y258250D01*
X784075Y258256D01*
X784088Y258262D01*
X784094D01*
X784219Y258313D01*
X784331Y258356D01*
X784431Y258406D01*
X784513Y258456D01*
X784581Y258494D01*
X784631Y258525D01*
X784662Y258550D01*
X784675Y258556D01*
X784981Y257781D01*
X784869Y257713D01*
X784756Y257656D01*
X784637Y257600D01*
X784519Y257556D01*
X784400Y257519D01*
X784288Y257488D01*
X784175Y257463D01*
X784062Y257444D01*
X783962Y257425D01*
X783875Y257413D01*
X783787Y257406D01*
X783719Y257400D01*
X783663Y257394D01*
X783581D01*
X783413Y257400D01*
X783250Y257413D01*
X783100Y257437D01*
X782956Y257469D01*
X782825Y257506D01*
X782700Y257544D01*
X782587Y257588D01*
X782487Y257638D01*
X782400Y257681D01*
X782319Y257725D01*
X782250Y257763D01*
X782194Y257800D01*
X782150Y257831D01*
X782119Y257856D01*
X782100Y257869D01*
X782094Y257875D01*
X781994Y257969D01*
X781906Y258063D01*
X781831Y258162D01*
X781769Y258262D01*
X781712Y258363D01*
X781669Y258456D01*
X781631Y258550D01*
X781600Y258644D01*
X781581Y258725D01*
X781563Y258806D01*
X781550Y258875D01*
X781537Y258931D01*
Y258981D01*
X781531Y259019D01*
Y259044D01*
Y259050D01*
X781544Y259281D01*
X781556Y259387D01*
X781569Y259488D01*
X781588Y259581D01*
X781612Y259669D01*
X781637Y259750D01*
X781656Y259819D01*
X781681Y259888D01*
X781706Y259944D01*
X781725Y259994D01*
X781750Y260031D01*
X781763Y260063D01*
X781775Y260087D01*
X781787Y260100D01*
Y260106D01*
X781838Y260181D01*
X781900Y260256D01*
X782031Y260394D01*
X782181Y260512D01*
X782325Y260619D01*
X782463Y260700D01*
X782519Y260737D01*
X782575Y260769D01*
X782613Y260788D01*
X782650Y260806D01*
X782669Y260812D01*
X782675Y260819D01*
X783181Y261063D01*
X783269Y261106D01*
X783350Y261144D01*
X783419Y261181D01*
X783488Y261219D01*
X783544Y261250D01*
X783600Y261281D01*
X783687Y261331D01*
X783750Y261369D01*
X783794Y261400D01*
X783819Y261419D01*
X783825Y261425D01*
X783881Y261475D01*
X783931Y261531D01*
X783969Y261588D01*
X784006Y261637D01*
X784031Y261681D01*
X784050Y261719D01*
X784062Y261744D01*
X784069Y261750D01*
X784100Y261825D01*
X784119Y261900D01*
X784137Y261969D01*
X784144Y262037D01*
X784150Y262094D01*
X784156Y262144D01*
Y262169D01*
Y262181D01*
X784144Y262319D01*
X784119Y262438D01*
X784081Y262544D01*
X784031Y262637D01*
X783988Y262706D01*
X783950Y262762D01*
X783925Y262794D01*
X783913Y262806D01*
X783813Y262888D01*
X783706Y262950D01*
X783594Y262994D01*
X783481Y263025D01*
X783388Y263044D01*
X783344Y263050D01*
X783306D01*
X783281Y263056D01*
X783238D01*
X783125Y263050D01*
X783012Y263037D01*
X782906Y263019D01*
X782806Y263000D01*
X782725Y262975D01*
X782656Y262956D01*
X782631Y262950D01*
X782613Y262944D01*
X782606Y262937D01*
X782600D01*
X782475Y262894D01*
X782369Y262856D01*
X782281Y262812D01*
X782206Y262781D01*
X782150Y262750D01*
X782113Y262725D01*
X782088Y262713D01*
X782081Y262706D01*
X781831Y263431D01*
X781913Y263494D01*
X782006Y263544D01*
X782113Y263587D01*
X782225Y263625D01*
X782463Y263687D01*
X782694Y263725D01*
X782806Y263744D01*
X782912Y263750D01*
X783006Y263756D01*
X783087Y263762D01*
X783156Y263769D01*
X783256D01*
X783394Y263762D01*
D02*
G37*
G36*
X742444Y255944D02*
Y255006D01*
X742963D01*
Y254375D01*
X742444D01*
Y251819D01*
X742438Y251706D01*
X742425Y251600D01*
X742413Y251500D01*
X742387Y251406D01*
X742362Y251319D01*
X742331Y251231D01*
X742294Y251156D01*
X742263Y251087D01*
X742231Y251025D01*
X742194Y250969D01*
X742163Y250925D01*
X742137Y250887D01*
X742112Y250856D01*
X742094Y250831D01*
X742088Y250819D01*
X742081Y250813D01*
X742013Y250744D01*
X741937Y250681D01*
X741862Y250631D01*
X741781Y250588D01*
X741706Y250550D01*
X741631Y250513D01*
X741488Y250469D01*
X741425Y250450D01*
X741362Y250437D01*
X741313Y250431D01*
X741262Y250425D01*
X741225Y250419D01*
X741175D01*
X740956Y250425D01*
X740756Y250437D01*
X740569Y250456D01*
X740481Y250469D01*
X740406Y250481D01*
X740331Y250494D01*
X740269Y250506D01*
X740212Y250513D01*
X740169Y250525D01*
X740131Y250531D01*
X740106Y250537D01*
X740088Y250544D01*
X740081D01*
X740200Y251250D01*
X740325Y251200D01*
X740438Y251163D01*
X740550Y251131D01*
X740644Y251113D01*
X740725Y251100D01*
X740781Y251094D01*
X740837D01*
X740987Y251106D01*
X741113Y251131D01*
X741219Y251169D01*
X741306Y251213D01*
X741375Y251256D01*
X741419Y251294D01*
X741450Y251319D01*
X741456Y251331D01*
X741488Y251381D01*
X741519Y251431D01*
X741563Y251556D01*
X741600Y251694D01*
X741619Y251825D01*
X741631Y251944D01*
X741638Y252000D01*
Y252044D01*
X741644Y252081D01*
Y252113D01*
Y252131D01*
Y252137D01*
Y254375D01*
X740406D01*
Y255006D01*
X741644D01*
Y256256D01*
X742444Y255944D01*
D02*
G37*
G36*
X737699Y244123D02*
X737796Y244108D01*
X737883Y244083D01*
X737924Y244070D01*
X737961Y244058D01*
X737995Y244042D01*
X738024Y244029D01*
X738052Y244017D01*
X738073Y244005D01*
X738089Y243995D01*
X738105Y243989D01*
X738111Y243986D01*
X738114Y243983D01*
X738195Y243923D01*
X738267Y243864D01*
X738323Y243802D01*
X738373Y243742D01*
X738407Y243693D01*
X738423Y243671D01*
X738432Y243652D01*
X738442Y243636D01*
X738448Y243624D01*
X738454Y243618D01*
Y243615D01*
X738086Y243327D01*
X738049Y243387D01*
X738008Y243440D01*
X737967Y243483D01*
X737924Y243521D01*
X737880Y243555D01*
X737839Y243583D01*
X737799Y243605D01*
X737758Y243624D01*
X737721Y243636D01*
X737687Y243646D01*
X737655Y243655D01*
X737627Y243658D01*
X737605Y243661D01*
X737587Y243665D01*
X737574D01*
X737499Y243661D01*
X737437Y243649D01*
X737381Y243633D01*
X737331Y243611D01*
X737293Y243583D01*
X737259Y243555D01*
X737231Y243521D01*
X737209Y243490D01*
X737190Y243459D01*
X737178Y243424D01*
X737169Y243396D01*
X737162Y243371D01*
X737159Y243346D01*
X737156Y243331D01*
Y243318D01*
Y243315D01*
X737159Y243259D01*
X737169Y243200D01*
X737184Y243140D01*
X737203Y243078D01*
X737225Y243019D01*
X737250Y242956D01*
X737275Y242900D01*
X737303Y242844D01*
X737331Y242791D01*
X737356Y242744D01*
X737381Y242700D01*
X737403Y242663D01*
X737421Y242632D01*
X737437Y242610D01*
X737446Y242597D01*
X737449Y242591D01*
X738420Y241159D01*
Y241000D01*
X736404D01*
Y241484D01*
X737559D01*
X736932Y242441D01*
X736872Y242538D01*
X736819Y242629D01*
X736772Y242716D01*
X736732Y242800D01*
X736701Y242875D01*
X736673Y242947D01*
X736651Y243016D01*
X736632Y243075D01*
X736616Y243128D01*
X736607Y243178D01*
X736598Y243218D01*
X736595Y243253D01*
X736591Y243281D01*
X736588Y243299D01*
Y243312D01*
Y243315D01*
X736591Y243384D01*
X736601Y243452D01*
X736613Y243512D01*
X736629Y243571D01*
X736651Y243624D01*
X736673Y243674D01*
X736697Y243718D01*
X736723Y243758D01*
X736747Y243795D01*
X736772Y243827D01*
X736794Y243852D01*
X736816Y243874D01*
X736832Y243892D01*
X736844Y243905D01*
X736854Y243911D01*
X736857Y243914D01*
X736910Y243952D01*
X736966Y243986D01*
X737022Y244014D01*
X737084Y244039D01*
X737147Y244061D01*
X737206Y244076D01*
X737268Y244092D01*
X737325Y244101D01*
X737381Y244111D01*
X737431Y244117D01*
X737477Y244123D01*
X737518Y244126D01*
X737549Y244129D01*
X737649D01*
X737699Y244123D01*
D02*
G37*
G36*
X739574Y242145D02*
Y242079D01*
X739580Y242020D01*
X739583Y241964D01*
X739593Y241911D01*
X739599Y241864D01*
X739608Y241821D01*
X739621Y241783D01*
X739630Y241746D01*
X739640Y241715D01*
X739652Y241689D01*
X739662Y241665D01*
X739668Y241649D01*
X739677Y241633D01*
X739680Y241624D01*
X739686Y241618D01*
Y241615D01*
X739708Y241583D01*
X739733Y241559D01*
X739761Y241537D01*
X739793Y241515D01*
X739855Y241484D01*
X739917Y241465D01*
X739973Y241452D01*
X739998Y241449D01*
X740020Y241446D01*
X740039Y241443D01*
X740064D01*
X740133Y241446D01*
X740192Y241456D01*
X740248Y241468D01*
X740295Y241484D01*
X740335Y241505D01*
X740373Y241527D01*
X740404Y241552D01*
X740432Y241577D01*
X740454Y241602D01*
X740473Y241627D01*
X740485Y241649D01*
X740498Y241671D01*
X740504Y241686D01*
X740510Y241699D01*
X740513Y241708D01*
Y241711D01*
X741000D01*
X740994Y241646D01*
X740981Y241587D01*
X740969Y241527D01*
X740950Y241474D01*
X740931Y241424D01*
X740909Y241381D01*
X740888Y241337D01*
X740863Y241300D01*
X740841Y241268D01*
X740819Y241237D01*
X740800Y241212D01*
X740782Y241193D01*
X740766Y241178D01*
X740754Y241165D01*
X740747Y241159D01*
X740744Y241156D01*
X740697Y241122D01*
X740651Y241090D01*
X740597Y241066D01*
X740548Y241044D01*
X740495Y241025D01*
X740445Y241006D01*
X740345Y240984D01*
X740301Y240975D01*
X740261Y240969D01*
X740223Y240966D01*
X740189Y240963D01*
X740164Y240959D01*
X740126D01*
X740020Y240963D01*
X739924Y240972D01*
X739836Y240987D01*
X739752Y241006D01*
X739677Y241028D01*
X739608Y241053D01*
X739546Y241078D01*
X739493Y241106D01*
X739443Y241134D01*
X739403Y241159D01*
X739368Y241184D01*
X739340Y241206D01*
X739318Y241225D01*
X739303Y241240D01*
X739293Y241250D01*
X739290Y241253D01*
X739243Y241312D01*
X739203Y241377D01*
X739169Y241446D01*
X739137Y241521D01*
X739112Y241596D01*
X739091Y241671D01*
X739075Y241746D01*
X739059Y241821D01*
X739050Y241889D01*
X739041Y241955D01*
X739038Y242011D01*
X739031Y242064D01*
Y242105D01*
X739028Y242136D01*
Y242148D01*
Y242158D01*
Y242161D01*
Y242164D01*
Y244076D01*
X739574D01*
Y242145D01*
D02*
G37*
G36*
X749125Y255081D02*
X749281Y255063D01*
X749431Y255031D01*
X749575Y254988D01*
X749706Y254938D01*
X749831Y254881D01*
X749937Y254825D01*
X750044Y254769D01*
X750131Y254706D01*
X750212Y254650D01*
X750281Y254594D01*
X750338Y254544D01*
X750381Y254506D01*
X750413Y254469D01*
X750431Y254450D01*
X750437Y254444D01*
X750537Y254319D01*
X750619Y254187D01*
X750694Y254050D01*
X750756Y253912D01*
X750812Y253769D01*
X750856Y253631D01*
X750894Y253494D01*
X750925Y253362D01*
X750950Y253238D01*
X750962Y253125D01*
X750975Y253025D01*
X750987Y252938D01*
Y252863D01*
X750994Y252806D01*
Y252775D01*
Y252763D01*
X750987Y252569D01*
X750969Y252381D01*
X750944Y252206D01*
X750913Y252044D01*
X750869Y251887D01*
X750825Y251750D01*
X750775Y251619D01*
X750725Y251506D01*
X750675Y251400D01*
X750625Y251306D01*
X750581Y251231D01*
X750537Y251169D01*
X750506Y251119D01*
X750481Y251081D01*
X750462Y251056D01*
X750456Y251050D01*
X750350Y250938D01*
X750238Y250844D01*
X750119Y250756D01*
X749994Y250688D01*
X749869Y250625D01*
X749744Y250575D01*
X749625Y250531D01*
X749506Y250500D01*
X749394Y250469D01*
X749288Y250450D01*
X749194Y250437D01*
X749113Y250431D01*
X749050Y250425D01*
X749000Y250419D01*
X748956D01*
X748781Y250425D01*
X748619Y250444D01*
X748469Y250475D01*
X748325Y250519D01*
X748194Y250563D01*
X748069Y250619D01*
X747956Y250675D01*
X747856Y250731D01*
X747769Y250787D01*
X747687Y250844D01*
X747625Y250900D01*
X747569Y250944D01*
X747525Y250988D01*
X747494Y251019D01*
X747475Y251038D01*
X747469Y251044D01*
X747369Y251169D01*
X747288Y251300D01*
X747213Y251437D01*
X747150Y251581D01*
X747100Y251725D01*
X747050Y251863D01*
X747019Y252006D01*
X746987Y252137D01*
X746962Y252269D01*
X746950Y252387D01*
X746938Y252494D01*
X746925Y252581D01*
Y252656D01*
X746919Y252712D01*
Y252750D01*
Y252763D01*
X746925Y252962D01*
X746944Y253150D01*
X746969Y253325D01*
X747000Y253494D01*
X747044Y253644D01*
X747087Y253781D01*
X747137Y253912D01*
X747188Y254025D01*
X747237Y254131D01*
X747288Y254219D01*
X747331Y254294D01*
X747375Y254356D01*
X747406Y254406D01*
X747431Y254437D01*
X747450Y254463D01*
X747456Y254469D01*
X747563Y254575D01*
X747675Y254675D01*
X747794Y254756D01*
X747913Y254825D01*
X748037Y254888D01*
X748163Y254938D01*
X748287Y254975D01*
X748406Y255012D01*
X748519Y255037D01*
X748619Y255056D01*
X748712Y255069D01*
X748794Y255075D01*
X748863Y255081D01*
X748912Y255087D01*
X748956D01*
X749125Y255081D01*
D02*
G37*
G36*
X753725D02*
X753837Y255069D01*
X753944Y255044D01*
X754050Y255019D01*
X754144Y254981D01*
X754238Y254944D01*
X754319Y254900D01*
X754394Y254862D01*
X754462Y254819D01*
X754525Y254775D01*
X754575Y254737D01*
X754619Y254700D01*
X754656Y254675D01*
X754681Y254650D01*
X754694Y254638D01*
X754700Y254631D01*
Y255006D01*
X755500D01*
Y248731D01*
X754700D01*
Y250750D01*
X754656Y250700D01*
X754600Y250656D01*
X754531Y250619D01*
X754462Y250588D01*
X754394Y250556D01*
X754338Y250537D01*
X754300Y250525D01*
X754294Y250519D01*
X754287D01*
X754169Y250487D01*
X754050Y250463D01*
X753950Y250444D01*
X753856Y250431D01*
X753781Y250425D01*
X753725Y250419D01*
X753675D01*
X753487Y250425D01*
X753312Y250444D01*
X753150Y250481D01*
X753000Y250519D01*
X752863Y250569D01*
X752738Y250625D01*
X752619Y250681D01*
X752513Y250744D01*
X752425Y250800D01*
X752344Y250856D01*
X752275Y250912D01*
X752219Y250962D01*
X752175Y251006D01*
X752144Y251038D01*
X752125Y251056D01*
X752119Y251062D01*
X752025Y251187D01*
X751937Y251319D01*
X751869Y251456D01*
X751806Y251600D01*
X751750Y251737D01*
X751706Y251881D01*
X751669Y252012D01*
X751644Y252144D01*
X751619Y252269D01*
X751606Y252381D01*
X751594Y252481D01*
X751581Y252569D01*
Y252638D01*
X751575Y252694D01*
Y252725D01*
Y252737D01*
X751581Y252950D01*
X751600Y253144D01*
X751625Y253331D01*
X751656Y253500D01*
X751700Y253656D01*
X751744Y253800D01*
X751794Y253931D01*
X751844Y254044D01*
X751894Y254150D01*
X751944Y254238D01*
X751988Y254312D01*
X752031Y254375D01*
X752063Y254425D01*
X752087Y254463D01*
X752106Y254481D01*
X752112Y254487D01*
X752219Y254594D01*
X752331Y254688D01*
X752450Y254769D01*
X752569Y254837D01*
X752694Y254894D01*
X752819Y254944D01*
X752938Y254981D01*
X753056Y255012D01*
X753169Y255037D01*
X753275Y255056D01*
X753369Y255069D01*
X753450Y255081D01*
X753512D01*
X753562Y255087D01*
X753606D01*
X753725Y255081D01*
D02*
G37*
G36*
X755544Y259763D02*
Y259562D01*
X755556Y259387D01*
X755562Y259225D01*
X755581Y259087D01*
X755600Y258962D01*
X755619Y258850D01*
X755638Y258756D01*
X755656Y258675D01*
X755681Y258606D01*
X755700Y258550D01*
X755719Y258500D01*
X755737Y258469D01*
X755756Y258444D01*
X755762Y258425D01*
X755775Y258419D01*
Y258413D01*
X755819Y258369D01*
X755875Y258331D01*
X755994Y258275D01*
X756125Y258231D01*
X756256Y258206D01*
X756381Y258188D01*
X756431Y258181D01*
X756475D01*
X756512Y258175D01*
X756569D01*
X756669Y258181D01*
X756756Y258200D01*
X756838Y258225D01*
X756906Y258262D01*
X756969Y258306D01*
X757025Y258350D01*
X757069Y258400D01*
X757113Y258456D01*
X757144Y258506D01*
X757169Y258556D01*
X757194Y258600D01*
X757206Y258644D01*
X757219Y258681D01*
X757225Y258706D01*
X757231Y258725D01*
Y258731D01*
X757969D01*
X757956Y258619D01*
X757937Y258519D01*
X757919Y258419D01*
X757888Y258331D01*
X757856Y258244D01*
X757819Y258162D01*
X757781Y258094D01*
X757744Y258031D01*
X757706Y257969D01*
X757675Y257919D01*
X757638Y257875D01*
X757613Y257838D01*
X757587Y257812D01*
X757569Y257794D01*
X757556Y257781D01*
X757550Y257775D01*
X757475Y257713D01*
X757394Y257656D01*
X757312Y257612D01*
X757231Y257569D01*
X757150Y257538D01*
X757069Y257506D01*
X756913Y257463D01*
X756838Y257450D01*
X756775Y257437D01*
X756712Y257431D01*
X756663Y257425D01*
X756619Y257419D01*
X756563D01*
X756375Y257425D01*
X756200Y257444D01*
X756044Y257469D01*
X755894Y257506D01*
X755762Y257550D01*
X755644Y257594D01*
X755538Y257644D01*
X755444Y257700D01*
X755363Y257750D01*
X755294Y257800D01*
X755237Y257844D01*
X755194Y257888D01*
X755156Y257925D01*
X755131Y257950D01*
X755119Y257969D01*
X755113Y257975D01*
X755037Y258087D01*
X754975Y258212D01*
X754919Y258350D01*
X754875Y258500D01*
X754831Y258650D01*
X754800Y258800D01*
X754775Y258950D01*
X754750Y259100D01*
X754731Y259238D01*
X754719Y259369D01*
X754712Y259488D01*
X754706Y259594D01*
X754700Y259681D01*
Y259744D01*
Y259769D01*
Y259788D01*
Y259794D01*
Y259800D01*
Y263663D01*
X755544D01*
Y259763D01*
D02*
G37*
G36*
X744075Y255081D02*
X744225Y255050D01*
X744356Y255012D01*
X744487Y254962D01*
X744600Y254900D01*
X744706Y254831D01*
X744806Y254763D01*
X744894Y254688D01*
X744969Y254612D01*
X745038Y254538D01*
X745094Y254469D01*
X745138Y254406D01*
X745175Y254356D01*
X745200Y254319D01*
X745213Y254288D01*
X745219Y254281D01*
Y255006D01*
X746019D01*
Y250500D01*
X745219D01*
Y253075D01*
X745213Y253175D01*
X745206Y253275D01*
X745169Y253456D01*
X745119Y253612D01*
X745094Y253688D01*
X745062Y253756D01*
X745031Y253813D01*
X745006Y253863D01*
X744981Y253912D01*
X744956Y253950D01*
X744938Y253981D01*
X744919Y254000D01*
X744912Y254012D01*
X744906Y254019D01*
X744844Y254087D01*
X744781Y254150D01*
X744719Y254200D01*
X744656Y254244D01*
X744594Y254288D01*
X744531Y254319D01*
X744413Y254363D01*
X744312Y254394D01*
X744269Y254400D01*
X744231Y254406D01*
X744206Y254413D01*
X744163D01*
X744063Y254406D01*
X743969Y254387D01*
X743875Y254356D01*
X743800Y254325D01*
X743731Y254288D01*
X743681Y254262D01*
X743650Y254238D01*
X743638Y254231D01*
X743300Y255006D01*
X743444Y255031D01*
X743569Y255056D01*
X743675Y255069D01*
X743762Y255075D01*
X743831Y255081D01*
X743881Y255087D01*
X743919D01*
X744075Y255081D01*
D02*
G37*
%LPC*%
G36*
X749006Y254437D02*
X748956D01*
X748850Y254431D01*
X748744Y254419D01*
X748650Y254394D01*
X748562Y254369D01*
X748481Y254325D01*
X748400Y254281D01*
X748269Y254175D01*
X748150Y254050D01*
X748056Y253906D01*
X747975Y253756D01*
X747913Y253600D01*
X747862Y253444D01*
X747825Y253294D01*
X747800Y253150D01*
X747781Y253025D01*
X747769Y252919D01*
Y252875D01*
X747762Y252837D01*
Y252806D01*
Y252781D01*
Y252769D01*
Y252763D01*
X747769Y252619D01*
X747775Y252481D01*
X747794Y252356D01*
X747813Y252238D01*
X747837Y252125D01*
X747862Y252025D01*
X747894Y251931D01*
X747919Y251844D01*
X747950Y251769D01*
X747981Y251706D01*
X748006Y251650D01*
X748031Y251600D01*
X748050Y251569D01*
X748069Y251537D01*
X748075Y251525D01*
X748081Y251519D01*
X748144Y251437D01*
X748212Y251369D01*
X748281Y251312D01*
X748350Y251256D01*
X748425Y251213D01*
X748500Y251181D01*
X748569Y251150D01*
X748637Y251125D01*
X748763Y251094D01*
X748819Y251081D01*
X748863Y251075D01*
X748900D01*
X748931Y251069D01*
X748956D01*
X749062Y251075D01*
X749169Y251087D01*
X749263Y251113D01*
X749350Y251144D01*
X749431Y251181D01*
X749512Y251225D01*
X749644Y251331D01*
X749762Y251463D01*
X749856Y251606D01*
X749937Y251756D01*
X750000Y251919D01*
X750050Y252075D01*
X750087Y252225D01*
X750112Y252369D01*
X750131Y252500D01*
X750144Y252606D01*
Y252650D01*
X750150Y252688D01*
Y252719D01*
Y252744D01*
Y252756D01*
Y252763D01*
X750144Y252906D01*
X750138Y253038D01*
X750119Y253169D01*
X750100Y253281D01*
X750075Y253394D01*
X750050Y253494D01*
X750019Y253588D01*
X749988Y253669D01*
X749956Y253744D01*
X749925Y253806D01*
X749900Y253863D01*
X749875Y253906D01*
X749856Y253944D01*
X749837Y253969D01*
X749831Y253981D01*
X749825Y253988D01*
X749762Y254069D01*
X749694Y254137D01*
X749625Y254194D01*
X749550Y254250D01*
X749481Y254294D01*
X749406Y254325D01*
X749337Y254356D01*
X749269Y254381D01*
X749144Y254413D01*
X749094Y254425D01*
X749044Y254431D01*
X749006Y254437D01*
D02*
G37*
G36*
X753937Y254413D02*
X753906D01*
X753762Y254406D01*
X753631Y254394D01*
X753512Y254375D01*
X753400Y254350D01*
X753300Y254319D01*
X753206Y254288D01*
X753119Y254250D01*
X753050Y254212D01*
X752981Y254175D01*
X752925Y254137D01*
X752881Y254106D01*
X752844Y254075D01*
X752812Y254050D01*
X752794Y254031D01*
X752781Y254019D01*
X752775Y254012D01*
X752712Y253931D01*
X752656Y253844D01*
X752612Y253750D01*
X752569Y253650D01*
X752531Y253550D01*
X752506Y253444D01*
X752462Y253244D01*
X752450Y253150D01*
X752437Y253056D01*
X752431Y252975D01*
X752425Y252906D01*
X752419Y252850D01*
Y252806D01*
Y252781D01*
Y252769D01*
X752425Y252619D01*
X752437Y252475D01*
X752456Y252344D01*
X752481Y252219D01*
X752519Y252100D01*
X752556Y251994D01*
X752600Y251894D01*
X752650Y251800D01*
X752706Y251719D01*
X752763Y251638D01*
X752825Y251569D01*
X752887Y251500D01*
X753025Y251394D01*
X753162Y251306D01*
X753300Y251231D01*
X753438Y251181D01*
X753562Y251144D01*
X753675Y251119D01*
X753769Y251106D01*
X753806Y251100D01*
X753844D01*
X753869Y251094D01*
X753906D01*
X753994Y251100D01*
X754075Y251113D01*
X754156Y251125D01*
X754231Y251144D01*
X754294Y251163D01*
X754338Y251181D01*
X754369Y251187D01*
X754381Y251194D01*
X754462Y251231D01*
X754531Y251269D01*
X754588Y251306D01*
X754631Y251344D01*
X754663Y251369D01*
X754681Y251394D01*
X754694Y251406D01*
X754700Y251413D01*
Y254025D01*
X754644Y254081D01*
X754581Y254131D01*
X754519Y254175D01*
X754456Y254219D01*
X754400Y254250D01*
X754356Y254275D01*
X754331Y254288D01*
X754319Y254294D01*
X754231Y254331D01*
X754150Y254363D01*
X754081Y254381D01*
X754019Y254400D01*
X753975Y254406D01*
X753937Y254413D01*
D02*
G37*
G36*
X778819Y261413D02*
X778769D01*
X778662Y261406D01*
X778562Y261400D01*
X778469Y261381D01*
X778381Y261356D01*
X778306Y261331D01*
X778231Y261300D01*
X778162Y261269D01*
X778100Y261238D01*
X778044Y261200D01*
X778000Y261169D01*
X777956Y261138D01*
X777925Y261112D01*
X777894Y261087D01*
X777875Y261069D01*
X777869Y261063D01*
X777863Y261056D01*
X777806Y260994D01*
X777763Y260931D01*
X777719Y260862D01*
X777688Y260800D01*
X777631Y260663D01*
X777594Y260538D01*
X777575Y260425D01*
X777563Y260375D01*
Y260337D01*
X777556Y260300D01*
Y260275D01*
Y260262D01*
Y260256D01*
X780056D01*
X780044Y260344D01*
X780025Y260431D01*
X779975Y260588D01*
X779913Y260725D01*
X779844Y260844D01*
X779781Y260938D01*
X779750Y260975D01*
X779725Y261013D01*
X779700Y261037D01*
X779681Y261056D01*
X779675Y261063D01*
X779669Y261069D01*
X779600Y261131D01*
X779525Y261181D01*
X779450Y261231D01*
X779375Y261269D01*
X779225Y261331D01*
X779081Y261369D01*
X779019Y261381D01*
X778956Y261394D01*
X778906Y261400D01*
X778856Y261406D01*
X778819Y261413D01*
D02*
G37*
G36*
X746481Y262131D02*
X745606Y259419D01*
X747431D01*
X746481Y262131D01*
D02*
G37*
G36*
X766506Y261413D02*
X766456D01*
X766350Y261406D01*
X766250Y261400D01*
X766156Y261381D01*
X766069Y261356D01*
X765994Y261331D01*
X765919Y261300D01*
X765850Y261269D01*
X765788Y261238D01*
X765731Y261200D01*
X765688Y261169D01*
X765644Y261138D01*
X765613Y261112D01*
X765581Y261087D01*
X765562Y261069D01*
X765556Y261063D01*
X765550Y261056D01*
X765494Y260994D01*
X765450Y260931D01*
X765406Y260862D01*
X765375Y260800D01*
X765319Y260663D01*
X765281Y260538D01*
X765263Y260425D01*
X765250Y260375D01*
Y260337D01*
X765244Y260300D01*
Y260275D01*
Y260262D01*
Y260256D01*
X767744D01*
X767731Y260344D01*
X767712Y260431D01*
X767662Y260588D01*
X767600Y260725D01*
X767531Y260844D01*
X767469Y260938D01*
X767438Y260975D01*
X767413Y261013D01*
X767387Y261037D01*
X767369Y261056D01*
X767362Y261063D01*
X767356Y261069D01*
X767287Y261131D01*
X767212Y261181D01*
X767137Y261231D01*
X767063Y261269D01*
X766913Y261331D01*
X766769Y261369D01*
X766706Y261381D01*
X766644Y261394D01*
X766594Y261400D01*
X766544Y261406D01*
X766506Y261413D01*
D02*
G37*
%LPD*%
D27*
X533000Y129917D02*
X549000Y145917D01*
X539500Y167417D02*
X542142D01*
X549000Y160559D01*
Y157417D02*
Y160559D01*
X600500Y162417D02*
X623500Y139417D01*
X676000D01*
X680000Y135417D01*
X618209Y151209D02*
X624500Y144917D01*
X629500D01*
X632000Y142417D01*
X633500D01*
X779716Y212653D02*
X785453Y206917D01*
X790500D01*
X782764Y242181D02*
X787500Y246917D01*
X779716Y242181D02*
X782764D01*
X760032Y235386D02*
Y242181D01*
Y235386D02*
X762500Y232917D01*
X744283Y242181D02*
X748220D01*
X752157D01*
X756095D01*
X760032D01*
X763969D01*
X767906D01*
X771842D01*
X775779D01*
X707768Y205917D02*
X712500D01*
X714500Y207917D01*
Y214953D01*
X705518Y208167D02*
X707768Y205917D01*
X709536Y219917D02*
X714500Y214953D01*
X660000Y207417D02*
X660750Y208167D01*
X705518D01*
X757500Y221417D02*
X769000D01*
X771842Y218575D01*
Y212653D02*
Y218575D01*
X707750Y221672D02*
Y228000D01*
Y221672D02*
X709504Y219917D01*
X709536D01*
X700750Y235000D02*
X707750Y228000D01*
X698535Y183917D02*
X699339Y183114D01*
X737303D01*
X738500Y181917D01*
X549000Y145917D02*
Y157417D01*
X689500Y183917D02*
X693500D01*
X694000Y180917D02*
X697000Y183917D01*
X698535D01*
X692000Y180917D02*
X694000D01*
X686000Y174917D02*
X692000Y180917D01*
X679500Y173917D02*
X689500Y183917D01*
X623500Y173917D02*
X679500D01*
X700750Y235000D02*
Y241667D01*
X687500Y254917D02*
X700750Y241667D01*
X685500Y268417D02*
X687500Y266417D01*
X532657Y257417D02*
X538157Y251917D01*
X682500Y279917D02*
X683750Y281167D01*
X711500Y277417D02*
Y278417D01*
X618209Y151209D02*
Y153209D01*
X625709Y147917D02*
X638459Y160667D01*
X646959D01*
X654209Y148000D02*
X656500Y145709D01*
X654209Y148000D02*
Y156917D01*
X653709Y159417D02*
X654209Y156917D01*
X646959Y160667D02*
X648209Y159417D01*
X721000Y272417D02*
X725500D01*
X710218Y277917D02*
X711000D01*
X720000Y273417D02*
X721000Y272417D01*
X706967Y281167D02*
X710218Y277917D01*
X705300Y278667D02*
X710550Y273417D01*
X683750Y281167D02*
X706967D01*
X710550Y273417D02*
X720000D01*
X687482Y278667D02*
X705300D01*
X684732Y275917D02*
X687482Y278667D01*
X682904Y275917D02*
X684732D01*
X566500Y258917D02*
X568000Y257417D01*
X628400Y222117D02*
X628450Y222167D01*
X617200Y222117D02*
X628400D01*
X599000Y222417D02*
X600177D01*
X602927Y219667D02*
X610467D01*
X600177Y222417D02*
X602927Y219667D01*
X613500Y218417D02*
X617200Y222117D01*
X611718Y218417D02*
X613500D01*
X610467Y219667D02*
X611718Y218417D01*
X684533Y174917D02*
X686000D01*
X675533Y165917D02*
X684533Y174917D01*
X669000Y165917D02*
X675533D01*
X687500Y254917D02*
Y266417D01*
X464500Y192917D02*
Y201417D01*
X470000Y206917D02*
Y212417D01*
X464500Y201417D02*
X470000Y206917D01*
X581500Y247417D02*
X582000Y246917D01*
X711000Y277917D02*
X711500Y278417D01*
X610000Y161417D02*
X610500Y160917D01*
X618209Y153209D01*
X412000Y277074D02*
Y279417D01*
X433757Y174417D02*
X434000D01*
X402000Y275417D02*
X406500Y270917D01*
X412000Y279417D02*
X417000Y274417D01*
X412000Y263417D02*
X415000Y260417D01*
X406500Y257917D02*
Y270917D01*
X415672Y183917D02*
X420000D01*
X400500Y257917D02*
X402000Y259417D01*
X400500Y199089D02*
Y257917D01*
Y199089D02*
X415672Y183917D01*
X402500Y253917D02*
X406500Y257917D01*
X402500Y199917D02*
Y253917D01*
X446500Y190417D02*
Y216417D01*
X447500Y217417D01*
X420000Y183917D02*
X424000Y179917D01*
X512000Y257417D02*
X532657D01*
X469012Y320929D02*
X479500Y331417D01*
X485000D01*
X475000Y317417D02*
X483941Y326359D01*
X456500Y317417D02*
X475000D01*
X556500Y258917D02*
X566500D01*
X549500Y251917D02*
X556500Y258917D01*
X538157Y251917D02*
X549500D01*
X507500Y261917D02*
X512000Y257417D01*
X498000Y261917D02*
X507500D01*
X487500Y272417D02*
X498000Y261917D01*
X487500Y272417D02*
Y302917D01*
X501000Y311917D02*
X503000Y313917D01*
X496500Y311917D02*
X501000D01*
X487500Y302917D02*
X496500Y311917D01*
X578500Y256917D02*
X581500Y253917D01*
Y247417D02*
Y253917D01*
X341000Y285017D02*
Y297417D01*
Y214917D02*
Y225817D01*
Y214917D02*
X342000Y213917D01*
X351000Y219917D02*
Y225817D01*
Y219917D02*
X357000Y213917D01*
X370500Y209917D02*
X378000D01*
X357500Y222917D02*
X370500Y209917D01*
X357500Y222917D02*
Y278517D01*
X351000Y285017D02*
X357500Y278517D01*
X424000Y179917D02*
X425000D01*
X424000Y170917D02*
X431000Y177917D01*
X414500Y170917D02*
X424000D01*
X411172Y179417D02*
X415672Y183917D01*
X393000Y179417D02*
X411172D01*
X415000Y209917D02*
Y260417D01*
X417000Y210746D02*
Y274417D01*
Y210746D02*
X434000Y193746D01*
Y174417D02*
Y193746D01*
X415000Y209917D02*
X432000Y192917D01*
Y178917D02*
Y192917D01*
X431000Y177917D02*
X432000Y178917D01*
X402500Y199917D02*
X416500Y185917D01*
X428500Y178917D02*
Y185417D01*
X416500Y185917D02*
X428500D01*
X426000Y176417D02*
X428500Y178917D01*
X402500Y176417D02*
X426000D01*
X451500Y312417D02*
X456500Y317417D01*
D28*
X754083Y162917D02*
X756500Y160500D01*
X519740Y181000D02*
X521950Y183211D01*
X519325Y182000D02*
X521536Y184211D01*
X493268Y184417D02*
X495685Y182000D01*
X518911Y183000D02*
X522328Y186417D01*
X492932Y186167D02*
X496099Y183000D01*
X518497Y184000D02*
X521914Y187417D01*
X493346Y187167D02*
X496513Y184000D01*
X495083Y181000D02*
X519740D01*
X494000Y179917D02*
X495083Y181000D01*
X495685Y182000D02*
X519325D01*
X496099Y183000D02*
X518911D01*
X496513Y184000D02*
X518497D01*
X518083Y185000D02*
X525000Y191917D01*
X496928Y185000D02*
X518083D01*
X493760Y188167D02*
X496928Y185000D01*
X525000Y191917D02*
X555000D01*
X559000Y195917D01*
X499500Y194417D02*
X531500D01*
X532500Y195417D01*
Y200808D01*
X535359Y203667D01*
X571500Y157295D02*
X589622Y175417D01*
X597500D01*
X592929Y183417D02*
X604743D01*
X618250Y169910D01*
X563500Y180417D02*
X603500D01*
X615250Y168667D01*
X603914Y181417D02*
X616250Y169081D01*
X604328Y182417D02*
X617250Y169496D01*
X616250Y168157D02*
Y169081D01*
X592100Y181417D02*
X603914D01*
X617250Y168571D02*
Y169496D01*
X592515Y182417D02*
X604328D01*
X618250Y168985D02*
Y169910D01*
X618575Y164417D02*
X653000D01*
X618250Y168985D02*
X619818Y167417D01*
X654243D01*
X617250Y168571D02*
X619404Y166417D01*
X653828D01*
X616250Y168157D02*
X618990Y165417D01*
X653414D01*
X615250Y167743D02*
X618575Y164417D01*
X615250Y167743D02*
Y168667D01*
X571500Y145917D02*
Y157295D01*
X562142Y136559D02*
X571500Y145917D01*
X556189Y136559D02*
X562142D01*
X593150Y192917D02*
X596650Y189417D01*
X593343Y184417D02*
X609500D01*
X593757Y185417D02*
X610343D01*
X594172Y186417D02*
X610757D01*
X592836Y189167D02*
X594586Y187417D01*
X611172D01*
X589193Y182917D02*
X590600D01*
X592100Y181417D01*
X589607Y183917D02*
X591015D01*
X592515Y182417D01*
X590021Y184917D02*
X591429D01*
X592929Y183417D01*
X590435Y185917D02*
X591843D01*
X593343Y184417D01*
X590850Y186917D02*
X592257D01*
X593757Y185417D01*
X591264Y187917D02*
X592672D01*
X594172Y186417D01*
X587750Y192667D02*
X590750D01*
X595000Y188417D01*
X611586D01*
X585500Y198917D02*
X591500D01*
X599000Y191417D01*
X601496D01*
X583500Y196917D02*
Y201417D01*
Y196917D02*
X587750Y192667D01*
X586000Y191917D02*
X586203D01*
X589237Y188884D01*
X585000Y190917D02*
X585789D01*
X588823Y187884D01*
X584500Y189917D02*
X585375D01*
X588408Y186884D01*
X567000Y188917D02*
X584961D01*
X587994Y185884D01*
X570757Y187917D02*
X584546D01*
X587580Y184884D01*
X571172Y186917D02*
X584132D01*
X587166Y183884D01*
X589237Y188884D02*
X590297D01*
X588823Y187884D02*
X589883D01*
X588408Y186884D02*
X589469D01*
X587994Y185884D02*
X589055D01*
X587580Y184884D02*
X588640D01*
X587166Y183884D02*
X588226D01*
X580712Y197206D02*
X586000Y191917D01*
X580712Y197206D02*
Y200706D01*
X577712Y198206D02*
X585000Y190917D01*
X575938Y198480D02*
X584500Y189917D01*
X577712Y198206D02*
Y200134D01*
X575938Y198480D02*
Y209355D01*
X597500Y194917D02*
X597586D01*
X600086Y192417D01*
X601910D01*
X593500Y200417D02*
X600500Y193417D01*
X596000Y199331D02*
X600914Y194417D01*
X672000D01*
X591500Y200917D02*
X597500Y194917D01*
X600500Y193417D02*
X602324D01*
X601496Y191417D02*
X602496Y190417D01*
X601910Y192417D02*
X602910Y191417D01*
X602324Y193417D02*
X603324Y192417D01*
X590297Y188884D02*
X591264Y187917D01*
X589883Y187884D02*
X590850Y186917D01*
X589469Y186884D02*
X590435Y185917D01*
X565500Y190417D02*
X567000Y188917D01*
X589055Y185884D02*
X590021Y184917D01*
X566586Y187917D02*
X568257Y186246D01*
X569086D01*
X570757Y187917D01*
X588640Y184884D02*
X589607Y183917D01*
X588226Y183884D02*
X589193Y182917D01*
X602910Y191417D02*
X620500D01*
X603324Y192417D02*
X621000D01*
X602496Y190417D02*
X612500D01*
X568672Y184417D02*
X571172Y186917D01*
X596650Y189417D02*
X612000D01*
X601481Y196936D02*
X659910D01*
X589962Y190634D02*
X591428Y189167D01*
X592836D01*
X656743Y164917D02*
X659000D01*
X656328Y163917D02*
X657500D01*
X654243Y167417D02*
X656743Y164917D01*
X653828Y166417D02*
X656328Y163917D01*
X653414Y165417D02*
X655914Y162917D01*
X656500D01*
X653000Y164417D02*
X676000Y141417D01*
X579050Y209017D02*
X587150Y200917D01*
X591500D01*
X575938Y209355D02*
X581000Y214417D01*
X583000D01*
X585500Y211917D01*
X576000D02*
X580000Y215917D01*
X605500D01*
X570865Y215244D02*
X574038Y218417D01*
X595000D01*
X579500Y220417D02*
Y222337D01*
X809000Y282917D02*
Y316417D01*
X811000Y211104D02*
Y247917D01*
X799250Y273167D02*
X809000Y282917D01*
X799250Y259667D02*
Y273167D01*
X789814Y189917D02*
X811000Y211104D01*
X799250Y259667D02*
X811000Y247917D01*
X766814Y189917D02*
X789814D01*
X761260Y184364D02*
X766814Y189917D01*
X699857Y184364D02*
X761260D01*
X698319Y185902D02*
X699857Y184364D01*
X677484Y185902D02*
X698319D01*
X670500Y178917D02*
X677484Y185902D01*
X615000Y178917D02*
X670500D01*
X609500Y184417D02*
X615000Y178917D01*
X575844Y212073D02*
X576000Y211917D01*
X579000Y205917D02*
X583500Y201417D01*
X579000Y202417D02*
X580712Y200706D01*
X597874Y205795D02*
X604733Y198936D01*
X593500Y200417D02*
Y203870D01*
X574795Y227041D02*
X579500Y222337D01*
X568052Y227041D02*
X574795D01*
X570608Y228041D02*
X575210D01*
X571022Y229041D02*
X575624D01*
X576038Y230041D02*
X584412Y221667D01*
X571436Y230041D02*
X576038D01*
X571850Y231041D02*
X576452D01*
X575624Y229041D02*
X583998Y220667D01*
X575210Y228041D02*
X583584Y219667D01*
X588474Y208896D02*
X593500Y203870D01*
X596000Y199331D02*
Y204219D01*
X591402Y208817D02*
X596000Y204219D01*
X760000Y323417D02*
X762667D01*
X735500Y211917D02*
Y214417D01*
X744000Y222917D01*
X728253Y215417D02*
X737103Y206567D01*
X727839Y214417D02*
X736689Y205567D01*
X727425Y213417D02*
X737182Y203660D01*
X727010Y212417D02*
X733250Y206178D01*
X727500Y203417D02*
Y209003D01*
X726500Y211417D02*
X730000Y207917D01*
Y206917D02*
Y207917D01*
X744000Y222917D02*
X745500D01*
X711500Y208917D02*
Y209917D01*
X718750Y216682D02*
X725015Y210417D01*
X719750Y217096D02*
X725429Y211417D01*
X720750Y217510D02*
X725843Y212417D01*
X721750Y217925D02*
X726257Y213417D01*
X722750Y218339D02*
X726672Y214417D01*
X725015Y210417D02*
X726086D01*
X727500Y209003D01*
X725429Y211417D02*
X726500D01*
X725843Y212417D02*
X727010D01*
X726257Y213417D02*
X727425D01*
X726672Y214417D02*
X727839D01*
X723750Y218753D02*
X727086Y215417D01*
X728253D01*
X718000Y225948D02*
X724750Y219198D01*
X717000Y225534D02*
X723750Y218784D01*
X716000Y225120D02*
X722750Y218370D01*
X715000Y224706D02*
X721750Y217956D01*
X714000Y224291D02*
X720750Y217542D01*
X713000Y223877D02*
X719750Y217127D01*
X712000Y223463D02*
X718750Y216713D01*
X711000Y223049D02*
X717750Y216299D01*
X710467Y222167D02*
X716750Y215885D01*
X710053Y221167D02*
X715750Y215471D01*
X724750Y219167D02*
Y219198D01*
Y219167D02*
X725500Y218417D01*
X723750Y218753D02*
Y218784D01*
X722750Y218339D02*
Y218370D01*
X721750Y217925D02*
Y217956D01*
X720750Y217510D02*
Y217542D01*
X719750Y217096D02*
Y217127D01*
X718750Y216682D02*
Y216713D01*
X717750Y216268D02*
Y216299D01*
Y216268D02*
X724500Y209518D01*
X716750Y212667D02*
X721209Y208208D01*
X716750Y212667D02*
Y215885D01*
X715750Y209167D02*
X717250Y207667D01*
X715750Y209167D02*
Y215471D01*
X725500Y218417D02*
X729500D01*
X721209Y205417D02*
Y208208D01*
X724500Y207917D02*
Y209518D01*
X664929Y204917D02*
X687500D01*
X684500Y202417D02*
X685500Y203417D01*
X693500Y204917D02*
X703657D01*
X691000Y202917D02*
X693500Y200417D01*
X687500Y201417D02*
X689000D01*
X692000Y198417D01*
X704500D01*
X691000Y205417D02*
X692500Y206917D01*
X705000D01*
X711000Y200917D01*
X691000Y202917D02*
Y205417D01*
X685500Y203417D02*
X687500Y201417D01*
X625760Y215667D02*
X628260Y213167D01*
X626339Y217917D02*
X629089Y215167D01*
X631432D01*
X625925Y216917D02*
X628675Y214167D01*
X631846D01*
X693096Y214417D02*
X710750D01*
X711000Y214167D01*
X628260Y213167D02*
X632260D01*
X632510Y213417D01*
X689490D01*
X631846Y214167D02*
X632096Y214417D01*
X689904D01*
X631432Y215167D02*
X631682Y215417D01*
X690318D01*
X689490Y213417D02*
X689740Y213167D01*
X693260D01*
X693510Y213417D01*
X708000D01*
X689904Y214417D02*
X690154Y214167D01*
X692846D01*
X693096Y214417D01*
X690318Y215417D02*
X690568Y215167D01*
X692432D01*
X692682Y215417D01*
X706500D01*
X708500Y217417D01*
X708000Y213417D02*
X711500Y209917D01*
X706000Y211917D02*
X707250Y210667D01*
X787000Y221417D02*
X789500Y218917D01*
X684500Y220417D02*
X700000D01*
X702500Y222917D01*
X681500Y199417D02*
X684500Y202417D01*
X662191Y199417D02*
X681500D01*
X660948Y200936D02*
X664929Y204917D01*
X777500Y221417D02*
X787000D01*
X775779Y219697D02*
X777500Y221417D01*
X775779Y212653D02*
Y219697D01*
X745500Y222917D02*
X750000Y227417D01*
X774000D01*
X790250Y243667D01*
X752157Y205075D02*
Y212653D01*
X748000Y200917D02*
X752157Y205075D01*
X711000Y200917D02*
X748000D01*
X703657Y204917D02*
X709157Y199417D01*
X748500D01*
X756095Y207012D01*
X707328Y198417D02*
X753500D01*
X706500Y196417D02*
X754414D01*
X753500Y198417D02*
X760032Y204949D01*
X704328Y201417D02*
X707328Y198417D01*
X754414Y196417D02*
X763969Y205972D01*
X704500Y198417D02*
X706500Y196417D01*
X696500Y201417D02*
X704328D01*
X771842Y207760D02*
Y212653D01*
X757500Y193417D02*
X771842Y207760D01*
X700271Y185364D02*
X760846D01*
X700685Y186364D02*
X760432D01*
X701099Y187364D02*
X760018D01*
X701513Y188364D02*
X759604D01*
X701928Y189364D02*
X759189D01*
X702342Y190364D02*
X758775D01*
X702756Y191364D02*
X758361D01*
X760846Y185364D02*
X766399Y190917D01*
X789399D01*
X760432Y186364D02*
X765985Y191917D01*
X788985D01*
X760018Y187364D02*
X765571Y192917D01*
X788571D01*
X759604Y188364D02*
X765157Y193917D01*
X788157D01*
X759189Y189364D02*
X764743Y194917D01*
X787743D01*
X758775Y190364D02*
X764328Y195917D01*
X787328D01*
X758361Y191364D02*
X763914Y196917D01*
X786914D01*
X703170Y192364D02*
X757947D01*
X763500Y197917D01*
X786500D01*
X705360Y194417D02*
X755500D01*
X767906Y206823D01*
Y212653D01*
X704000Y193417D02*
X757500D01*
X702000Y195417D02*
X704000Y193417D01*
X660429Y196417D02*
X703360D01*
X705360Y194417D01*
X673000Y195417D02*
X702000D01*
X672000Y194417D02*
X673000Y195417D01*
X659910Y196936D02*
X660429Y196417D01*
X604733Y198936D02*
X661257D01*
X607500Y202063D02*
X609626Y199936D01*
X619019D01*
X625000Y205917D01*
X630096Y210417D02*
X639577Y200936D01*
X660948D01*
X629682Y209417D02*
X639163Y199936D01*
X661672D01*
X662191Y199417D01*
X661257Y198936D02*
X661777Y198417D01*
X685500D01*
X621000Y192417D02*
X626500Y186917D01*
X685500Y198417D02*
X686500Y199417D01*
X756095Y207012D02*
Y212653D01*
X760032Y204949D02*
Y212653D01*
X763969Y205972D02*
Y212653D01*
X790250Y243667D02*
Y276991D01*
X795500Y282241D01*
X791250Y276577D02*
X797000Y282327D01*
X792250Y276163D02*
X798000Y281913D01*
X793250Y275749D02*
X799000Y281499D01*
X794250Y275334D02*
X801500Y282584D01*
X795250Y258010D02*
Y274920D01*
X803750Y283420D01*
X799000Y281499D02*
Y309917D01*
X798000Y281913D02*
Y306917D01*
X797000Y282327D02*
Y303917D01*
X795500Y282241D02*
Y286417D01*
X794250Y257596D02*
Y275334D01*
X793250Y257182D02*
Y275749D01*
X792250Y256768D02*
Y276163D01*
X791250Y256353D02*
Y276577D01*
X803750Y283420D02*
Y306667D01*
X793000Y288917D02*
X795500Y286417D01*
X796250Y274410D02*
X805750Y283910D01*
X797250Y258839D02*
Y273996D01*
X806750Y283496D01*
X798250Y259253D02*
Y273581D01*
X807750Y283081D01*
X801500Y282584D02*
Y304917D01*
X796250Y258425D02*
Y274410D01*
X737103Y206567D02*
X744850D01*
X736689Y205567D02*
X742850D01*
X717000Y225534D02*
Y266917D01*
X716000Y225120D02*
Y234917D01*
X715000Y224706D02*
Y232417D01*
X714000Y224291D02*
Y230589D01*
X713000Y223877D02*
Y230175D01*
X712000Y223463D02*
Y229760D01*
X711000Y223049D02*
Y229346D01*
X710000Y222604D02*
Y228932D01*
X709000Y222189D02*
Y228518D01*
X718000Y225948D02*
Y265417D01*
X710000Y222604D02*
X710436Y222167D01*
X710467D01*
X709000Y222189D02*
X710022Y221167D01*
X710053D01*
X702500Y222917D02*
Y229417D01*
X701803Y230114D02*
X702500Y229417D01*
X803000Y214417D02*
Y244603D01*
X804000Y214003D02*
Y245018D01*
X805000Y213589D02*
Y245432D01*
X806000Y213175D02*
Y245846D01*
X807000Y212760D02*
Y246260D01*
X808000Y212346D02*
Y246675D01*
X809000Y211932D02*
Y247089D01*
X810000Y211518D02*
Y247503D01*
X717000Y266917D02*
X717500Y267417D01*
X702000Y235518D02*
X709000Y228518D01*
X703000Y235932D02*
X710000Y228932D01*
X704000Y236346D02*
X711000Y229346D01*
X705000Y236760D02*
X712000Y229760D01*
X706000Y237175D02*
X713000Y230175D01*
X707000Y237589D02*
X714000Y230589D01*
X710500Y236917D02*
X715000Y232417D01*
X714500Y236417D02*
X716000Y234917D01*
X718000Y265417D02*
X721500Y268917D01*
X786914Y196917D02*
X804000Y214003D01*
X787328Y195917D02*
X805000Y213589D01*
X787743Y194917D02*
X806000Y213175D01*
X788157Y193917D02*
X807000Y212760D01*
X788571Y192917D02*
X808000Y212346D01*
X788985Y191917D02*
X809000Y211932D01*
X789399Y190917D02*
X810000Y211518D01*
X786500Y197917D02*
X803000Y214417D01*
X798250Y259253D02*
X810000Y247503D01*
X797250Y258839D02*
X809000Y247089D01*
X796250Y258425D02*
X808000Y246675D01*
X795250Y258010D02*
X807000Y246260D01*
X794250Y257596D02*
X806000Y245846D01*
X793250Y257182D02*
X805000Y245432D01*
X792250Y256768D02*
X804000Y245018D01*
X791250Y256353D02*
X803000Y244603D01*
X511000Y286917D02*
Y292417D01*
X435500Y266917D02*
X463500D01*
X467500Y262917D01*
Y245917D02*
Y262917D01*
X787000Y317917D02*
X788000Y316917D01*
X787336Y313667D02*
X789750D01*
X777821Y315667D02*
X781093D01*
X783000Y313760D01*
Y311074D02*
Y313760D01*
X784000Y311488D02*
Y314175D01*
X781507Y316667D02*
X784000Y314175D01*
X777407Y316667D02*
X781507D01*
X776993Y317667D02*
X781922D01*
X786922Y312667D01*
X787164D01*
X789500Y310331D01*
X777407Y318667D02*
X782336D01*
X787336Y313667D01*
X777821Y319667D02*
X782750D01*
X787750Y314667D01*
X794250D01*
X783000Y311074D02*
X790500Y303574D01*
X784000Y311488D02*
X794000Y301488D01*
X789500Y309417D02*
Y310331D01*
X639788Y301705D02*
X642500Y304417D01*
X634000Y300917D02*
X635500D01*
X737182Y203417D02*
Y203660D01*
X805750Y283910D02*
Y306081D01*
X806750Y283496D02*
Y307167D01*
X807750Y283081D02*
Y307581D01*
X698717Y186917D02*
X700271Y185364D01*
X699132Y187917D02*
X700685Y186364D01*
X699546Y188917D02*
X701099Y187364D01*
X699960Y189917D02*
X701513Y188364D01*
X700374Y190917D02*
X701928Y189364D01*
X700789Y191917D02*
X702342Y190364D01*
X701203Y192917D02*
X702756Y191364D01*
X701617Y193917D02*
X703170Y192364D01*
X744850Y206567D02*
X747500Y203917D01*
X742850Y205567D02*
X743500Y204917D01*
X790914Y320917D02*
X805750Y306081D01*
X793500Y316917D02*
X803750Y306667D01*
X800000Y325417D02*
X808750Y316667D01*
X796000Y319331D02*
X807750Y307581D01*
X795000Y318917D02*
X806750Y307167D01*
X794250Y314667D02*
X799000Y309917D01*
X792000Y308917D02*
X797000Y303917D01*
X795000Y309917D02*
X798000Y306917D01*
X784750Y280167D02*
Y303667D01*
Y280167D02*
X787500Y277417D01*
X708000Y170917D02*
X789000D01*
X793795Y166122D01*
Y160122D02*
Y166122D01*
X535404Y319417D02*
X536654Y320667D01*
X539346D01*
X540727Y319286D02*
Y319286D01*
X535818Y318417D02*
X537068Y319667D01*
X538932D01*
X540250Y318349D01*
Y317417D02*
Y318349D01*
Y317417D02*
X540272D01*
X540858Y319417D02*
X551090D01*
X551340Y319667D01*
X540272Y317417D02*
X541272Y318417D01*
X551504D01*
X551754Y318667D01*
X540418Y316417D02*
X540686D01*
X541686Y317417D01*
X551919D01*
X552169Y317667D01*
X540833Y315417D02*
X541101D01*
X542100Y316417D01*
X552333D01*
X552583Y316667D01*
X541247Y314417D02*
X541515D01*
X542515Y315417D01*
X552485D01*
X552616Y315286D01*
X552616D01*
X552997Y315667D01*
X541661Y313417D02*
X541929D01*
X542929Y314417D01*
X552071D01*
X552616Y313872D01*
X552616D01*
X553411Y314667D01*
X542075Y312417D02*
X542343D01*
X543343Y313417D01*
X551657D01*
X552407Y312667D01*
X552825D01*
X553825Y313667D01*
X542490Y311417D02*
X542757D01*
X543757Y312417D01*
X551243D01*
X551993Y311667D01*
X553240D01*
X554240Y312667D01*
X542904Y310417D02*
X543172D01*
X544172Y311417D01*
X550828D01*
X551578Y310667D01*
X553346D01*
X553500Y310513D01*
X554654Y311667D01*
X543318Y309417D02*
X543586D01*
X544586Y310417D01*
X550414D01*
X551164Y309667D01*
X552932D01*
X553182Y309417D01*
X553818D01*
X536750Y302849D02*
X543318Y309417D01*
X535750Y303263D02*
X542904Y310417D01*
X534750Y303678D02*
X542490Y311417D01*
X533750Y304092D02*
X542075Y312417D01*
X532750Y304506D02*
X541661Y313417D01*
X531750Y304920D02*
X541247Y314417D01*
X530750Y305334D02*
X540833Y315417D01*
X529750Y305749D02*
X540418Y316417D01*
X635500Y300917D02*
X641250Y306667D01*
X766596Y312917D02*
X780500D01*
X752182Y308917D02*
X753500D01*
X760818Y311917D02*
X762568Y313667D01*
X764432D02*
X766182Y311917D01*
X774000D01*
X753425D02*
X760818D01*
X752582Y318417D02*
X755082Y315917D01*
X759161D01*
X752167Y317417D02*
X754667Y314917D01*
X759575D01*
X751753Y316417D02*
X754253Y313917D01*
X759990D01*
X753839Y312917D02*
X760404D01*
X750925Y314417D02*
X753425Y311917D01*
X753010Y310917D02*
X754328D01*
X750096Y312417D02*
X752596Y309917D01*
X753914D01*
X759161Y315917D02*
X760911Y317667D01*
X766089D01*
X767839Y315917D01*
X775243D01*
X759575Y314917D02*
X761325Y316667D01*
X765675D01*
X767425Y314917D01*
X775657D01*
X759990Y313917D02*
X761740Y315667D01*
X765260D01*
X767010Y313917D01*
X776071D01*
X760404Y312917D02*
X762154Y314667D01*
X764846D01*
X766596Y312917D01*
X762568Y313667D02*
X764432D01*
X753500Y308917D02*
X755500Y306917D01*
X753914Y309917D02*
X755914Y307917D01*
X754328Y310917D02*
X756328Y308917D01*
X774000Y311917D02*
X776000Y309917D01*
X776071Y313917D02*
X777821Y315667D01*
X775657Y314917D02*
X777407Y316667D01*
X775243Y315917D02*
X776993Y317667D01*
X756328Y308917D02*
X782328D01*
X755914Y307917D02*
X781914D01*
X755500Y306917D02*
X781500D01*
X594700Y212067D02*
X596511Y213878D01*
X601882D01*
X604215Y211545D01*
X682000Y269917D02*
X682750Y270667D01*
X685568D01*
X688568Y273667D01*
X661197Y240286D02*
X664328Y243417D01*
X669100D01*
X672500Y240017D01*
X671000Y227917D02*
X672500Y229417D01*
Y240017D01*
X682000Y238917D02*
Y241417D01*
X680000Y243417D02*
X682000Y241417D01*
X785750Y287485D02*
Y304081D01*
X677086Y186917D02*
X698717D01*
X676672Y187917D02*
X699132D01*
X676257Y188917D02*
X699546D01*
X675843Y189917D02*
X699960D01*
X675429Y190917D02*
X700374D01*
X675015Y191917D02*
X700789D01*
X674601Y192917D02*
X701203D01*
X674186Y193917D02*
X701617D01*
X667186Y186917D02*
X674186Y193917D01*
X667600Y185917D02*
X674601Y192917D01*
X668015Y184917D02*
X675015Y191917D01*
X668429Y183917D02*
X675429Y190917D01*
X668843Y182917D02*
X675843Y189917D01*
X669257Y181917D02*
X676257Y188917D01*
X669672Y180917D02*
X676672Y187917D01*
X670086Y179917D02*
X677086Y186917D01*
X686500Y199417D02*
X688000D01*
X626500Y186917D02*
X667186D01*
X626000Y185917D02*
X667600D01*
X618000Y184917D02*
X668015D01*
X617500Y183917D02*
X668429D01*
X617086Y182917D02*
X668843D01*
X616672Y181917D02*
X669257D01*
X616257Y180917D02*
X669672D01*
X615843Y179917D02*
X670086D01*
X642500Y248917D02*
X643250Y249667D01*
X728500Y252917D02*
Y254917D01*
X726000Y250417D02*
X728500Y252917D01*
X722000Y263917D02*
X722500Y264417D01*
X722000Y259417D02*
Y263917D01*
X728500Y262917D02*
X731000Y260417D01*
X733000D01*
X725000Y266417D02*
X730311D01*
X735500Y261228D01*
Y255228D02*
Y261228D01*
X730500Y257417D02*
X732000D01*
X794000Y297417D02*
Y301488D01*
X776000Y309917D02*
X782743D01*
X787750Y294081D02*
Y304910D01*
X786750Y290985D02*
Y304496D01*
X782743Y309917D02*
X787750Y304910D01*
X782328Y308917D02*
X786750Y304496D01*
X781914Y307917D02*
X785750Y304081D01*
X781500Y306917D02*
X784750Y303667D01*
X789750Y313667D02*
X792000Y311417D01*
Y308917D02*
Y311417D01*
X790500Y300417D02*
Y303574D01*
X787750Y294081D02*
X789000Y292831D01*
X767250Y321667D02*
X777235D01*
X765417Y320667D02*
X776821D01*
X754064Y319667D02*
X776407D01*
X777235Y321667D02*
X777985Y320917D01*
X790914D01*
X776821Y320667D02*
X777821Y319667D01*
X776407D02*
X777407Y318667D01*
X786750Y290985D02*
X790500Y287235D01*
Y285917D02*
Y287235D01*
X789000Y291917D02*
Y292831D01*
X736000Y254417D02*
X736811Y255228D01*
X731000Y250417D02*
X733000Y252417D01*
Y256417D01*
X732000Y257417D02*
X733000Y256417D01*
X723500Y246417D02*
Y256417D01*
X724500Y257417D01*
X705000Y236760D02*
Y244432D01*
X704000Y236346D02*
Y244018D01*
X703000Y235932D02*
Y243603D01*
X702000Y235518D02*
Y243189D01*
X707000Y237589D02*
Y266417D01*
X710500Y236917D02*
Y265417D01*
X704000Y246846D02*
X706000Y244846D01*
Y237175D02*
Y244846D01*
X701500Y247932D02*
X705000Y244432D01*
X699000Y249018D02*
X704000Y244018D01*
X696500Y250103D02*
X703000Y243603D01*
X691009Y254180D02*
X702000Y243189D01*
X702500Y261099D02*
Y269917D01*
X699500Y260917D02*
Y270599D01*
X702500Y261099D02*
X704000Y259599D01*
X699500Y260917D02*
X701500Y258917D01*
X685500Y333917D02*
X694000Y325417D01*
X677500Y331917D02*
X684000Y325417D01*
X535500Y250417D02*
X551500D01*
X554500Y253417D01*
X618500Y255067D02*
X624350D01*
X620884Y259169D02*
X621882Y260167D01*
X619825Y256067D02*
X624850D01*
X618639Y258667D02*
X620239Y257067D01*
X626288D01*
X621000Y247917D02*
Y252917D01*
X623717Y263417D02*
X628264D01*
X623303Y264417D02*
X627850D01*
X622889Y265417D02*
X627436D01*
X624132Y262417D02*
X628678D01*
X619818Y262064D02*
X621422Y263667D01*
X619250Y265667D02*
X621725D01*
X621882Y260167D02*
X624132Y262417D01*
X620818Y261649D02*
X621836Y262667D01*
X622967D01*
X623717Y263417D01*
X621422Y263667D02*
X622553D01*
X623303Y264417D01*
X620757D02*
X621007Y264667D01*
X622139D01*
X622889Y265417D01*
X621725Y265667D02*
X622475Y266417D01*
X615225Y264417D02*
X620757D01*
X618750Y260667D02*
X619818Y261735D01*
Y262064D01*
X619109Y259612D02*
X620818Y261321D01*
Y261649D01*
X614750Y260667D02*
X618750D01*
X620577Y245840D02*
X621500Y244917D01*
X549708Y184211D02*
X552914Y187417D01*
X550122Y183211D02*
X553328Y186417D01*
X555157D01*
X552914Y187417D02*
X554743D01*
X550500Y186417D02*
X552500Y188417D01*
X554328D01*
X550000Y187417D02*
X552000Y189417D01*
X553914D01*
X521914Y187417D02*
X550000D01*
X522328Y186417D02*
X550500D01*
X521536Y184211D02*
X549708D01*
X521950Y183211D02*
X550122D01*
X564500Y190417D02*
X565500D01*
X562500Y187917D02*
X566586D01*
X561000Y186417D02*
X562500Y187917D01*
X554500Y253417D02*
X558000D01*
X673500Y150417D02*
X714000D01*
X720000Y144417D01*
X751500D01*
X712000Y147417D02*
X717000Y142417D01*
X750086D01*
X676000Y141417D02*
X744000D01*
X750000Y135417D01*
X750086Y142417D02*
X751586Y140917D01*
X713500Y148917D02*
X719000Y143417D01*
X750500D01*
X752000Y141917D01*
X751500Y144417D02*
X753000Y142917D01*
X772500D01*
X751586Y140917D02*
X754500D01*
X760000Y135417D01*
X752000Y141917D02*
X763500D01*
X772500Y142917D02*
X780000Y135417D01*
X672500Y148917D02*
X713500D01*
X763500Y141917D02*
X770000Y135417D01*
X672000Y147417D02*
X712000D01*
X681811Y272167D02*
X682061Y272417D01*
X685904D01*
X681396Y273167D02*
X681646Y273417D01*
X685490D01*
X680982Y274167D02*
X681232Y274417D01*
X685000D01*
X676775Y275167D02*
X680568D01*
X681068Y275667D01*
X685000Y274417D02*
X688000Y277417D01*
X665664Y274167D02*
X680982D01*
X685490Y273417D02*
X688490Y276417D01*
X685904Y272417D02*
X688654Y275167D01*
X672250Y272167D02*
X681811D01*
X671000Y270917D02*
X672250Y272167D01*
X675134Y276808D02*
X676775Y275167D01*
X672649Y276808D02*
X675134D01*
X665250Y273167D02*
X681396D01*
X671000Y260917D02*
Y270917D01*
X677500Y276917D02*
X682136D01*
X667500Y257417D02*
X671000Y260917D01*
X659414Y280417D02*
X665664Y274167D01*
X659000Y279417D02*
X665250Y273167D01*
X651772Y258917D02*
X653093Y260238D01*
X654600D01*
X654672Y260167D01*
X652679Y261238D02*
X654657D01*
X654836Y261417D01*
X654672Y260167D02*
X659078D01*
X652186Y257917D02*
X653086Y258817D01*
X655900D01*
X643000Y258917D02*
X651772D01*
X642586Y257917D02*
X652186D01*
X654836Y261417D02*
X655086Y261167D01*
X654250Y263417D02*
X655500Y262167D01*
X658250D01*
X659078Y260167D02*
X659578Y260667D01*
X658664Y261167D02*
X659164Y261667D01*
X658250Y262167D02*
X659600Y263517D01*
X655086Y261167D02*
X658664D01*
X645763Y263417D02*
X654250D01*
X659578Y260667D02*
X660250D01*
X659164Y261667D02*
X659250D01*
X657000Y247917D02*
X661000D01*
X645750Y247167D02*
X648000Y244917D01*
X660000D01*
X643250Y249667D02*
X661423D01*
X651007Y250667D02*
X661008D01*
X651422Y251667D02*
X660594D01*
X651836Y252667D02*
X660180D01*
X661423Y249667D02*
X664758Y253003D01*
X670414D01*
X661008Y250667D02*
X664344Y254003D01*
X671914D01*
X660594Y251667D02*
X663930Y255003D01*
X673914D01*
X660180Y252667D02*
X663516Y256003D01*
X678328D01*
X652250Y253667D02*
X659766D01*
X663516Y257417D01*
X667500D01*
X650000Y255917D02*
X652250Y253667D01*
X651486Y253017D02*
X651836Y252667D01*
X651072Y252017D02*
X651422Y251667D01*
X650657Y251017D02*
X651007Y250667D01*
X634900Y252017D02*
X651072D01*
X639000Y251017D02*
X650657D01*
X649400Y253017D02*
X651486D01*
X640038Y276692D02*
X643763Y280417D01*
X659414D01*
X640452Y275692D02*
X644177Y279417D01*
X659000D01*
X660000Y262417D02*
X663000D01*
X663750Y261667D01*
X659250D02*
X660000Y262417D01*
X659600Y263517D02*
X665400D01*
X636163Y265580D02*
X637250D01*
Y265642D01*
X638275Y266667D01*
X639725D01*
X635748Y266580D02*
X636734D01*
X637177Y267023D01*
Y270962D01*
X638907Y272692D01*
X636177Y271377D02*
X638493Y273692D01*
X635177Y271791D02*
X638078Y274692D01*
X634177Y272205D02*
X637664Y275692D01*
X633177Y272619D02*
X636750Y276192D01*
Y276692D01*
X632177Y273594D02*
X633000Y274417D01*
Y283417D01*
X627986Y258817D02*
X635748Y266580D01*
X628093Y260417D02*
X636177Y268502D01*
Y271377D01*
X628678Y262417D02*
X635177Y268916D01*
Y271791D01*
X628264Y263417D02*
X634177Y269330D01*
Y272205D01*
X627850Y264417D02*
X633177Y269744D01*
Y272619D01*
X627436Y265417D02*
X632177Y270158D01*
Y273594D01*
X627022Y266417D02*
X631177Y270573D01*
Y274094D01*
X643500Y259917D02*
X651358D01*
X652679Y261238D01*
X628400Y257817D02*
X636163Y265580D01*
X639000Y263317D02*
X641400Y260917D01*
X637000Y262417D02*
X638486D01*
X641086Y259817D01*
X641400Y260917D02*
X642500D01*
X641086Y259817D02*
X642100D01*
X643000Y258917D01*
X637600Y258817D02*
X641686D01*
X642586Y257917D01*
X629947Y247167D02*
X645750D01*
X630361Y246167D02*
X644427D01*
X648309Y242286D01*
X635586Y241417D02*
X642414D01*
X642423Y241426D01*
X646052D01*
X637500Y244417D02*
X641525D01*
X642275Y245167D01*
X643725D01*
X647606Y241286D01*
X636000Y242417D02*
X642000D01*
X643000Y243417D01*
X639500Y270417D02*
X650500D01*
X642500Y260917D02*
X643500Y259917D01*
X635600Y257317D02*
X638163D01*
X639000Y263317D02*
Y264917D01*
X628500Y255917D02*
X650000D01*
X622475Y266417D02*
X627022D01*
X628247Y270117D02*
X630000Y271871D01*
Y274917D01*
X639725Y266667D02*
X640750Y265642D01*
X640500Y267569D02*
X640566Y267503D01*
X645500Y274417D02*
X650000D01*
X656000Y268417D01*
X655000Y271417D02*
X656500D01*
X655000Y274417D02*
X656500D01*
X654500Y277417D02*
X656500D01*
X641677Y267503D02*
X645763Y263417D01*
X640750Y265430D02*
X642500Y263680D01*
X671914Y254003D02*
X677500Y248417D01*
X670414Y253003D02*
X674500Y248917D01*
X671500Y245417D02*
X687000D01*
X671000Y245917D02*
X671500Y245417D01*
X665757Y249917D02*
X670500D01*
X674000Y246417D01*
X689709D01*
X673914Y255003D02*
X680500Y248417D01*
X687000Y245417D02*
X688000Y244417D01*
X689709Y246417D02*
X692354Y243772D01*
X665000Y249160D02*
X665757Y249917D01*
X661000Y247917D02*
X662500Y246417D01*
X660368Y242286D02*
X662500Y244417D01*
Y246417D01*
X646052Y241426D02*
X647192Y240286D01*
X660783Y241286D02*
X665000Y245503D01*
X647606Y241286D02*
X660783D01*
X647192Y240286D02*
X661197D01*
X648309Y242286D02*
X660368D01*
X659750Y236167D02*
X664877Y241295D01*
X666500Y226917D02*
X668500Y224917D01*
X666500Y226917D02*
Y231417D01*
X665647Y232271D02*
X666500Y231417D01*
X626500Y246917D02*
X629000Y249417D01*
X621000Y247917D02*
X623750Y245167D01*
X627947D01*
X624500Y246917D02*
X626500D01*
X638263Y257417D02*
X641672D01*
X642172Y256917D01*
X625150Y258817D02*
X627986D01*
X627038Y257817D02*
X628400D01*
X513500Y305917D02*
X525000Y317417D01*
X538000D01*
X519414Y304417D02*
X529914D01*
X531500Y298932D02*
X535750Y303182D01*
X531500Y278503D02*
Y298932D01*
X525343Y297917D02*
X529843Y302417D01*
X529500Y305417D02*
X529750Y305667D01*
Y305749D01*
X529914Y304417D02*
X530750Y305253D01*
Y305334D01*
X530328Y303417D02*
X531750Y304839D01*
Y304920D01*
X530743Y302417D02*
X532750Y304425D01*
Y304506D01*
X531157Y301417D02*
X533750Y304010D01*
Y304092D01*
X531571Y300417D02*
X534750Y303596D01*
Y303678D01*
X535750Y303182D02*
Y303263D01*
X532500Y298518D02*
X536750Y302768D01*
Y302849D01*
X532500Y278917D02*
Y298518D01*
X530500Y300246D02*
X530672Y300417D01*
X531571D01*
X529500Y300660D02*
X530257Y301417D01*
X531157D01*
X529843Y302417D02*
X530743D01*
X527679Y301667D02*
X529429Y303417D01*
X530328D01*
X519000Y305417D02*
X529500D01*
X541000Y303099D02*
Y305417D01*
X545000Y309417D01*
X550000D01*
X552000Y307417D01*
X524000Y297917D02*
X525343D01*
X524568Y301667D02*
X527679D01*
X541250D02*
X542000Y300917D01*
X541250Y301667D02*
Y302849D01*
X541000Y303099D02*
X541250Y302849D01*
X538500Y301417D02*
X539000Y301917D01*
X523000Y282417D02*
X524500D01*
X540500Y286417D02*
Y290660D01*
X548757Y298917D01*
X523682Y268917D02*
X535000D01*
X519268Y271917D02*
X523268Y267917D01*
X535414D01*
X517500Y271917D02*
X519268D01*
X519500Y273099D02*
Y276917D01*
Y273099D02*
X523682Y268917D01*
X542000Y254417D02*
X542500Y254917D01*
X502000Y243417D02*
X506000Y247417D01*
Y243917D02*
X507000Y244917D01*
X494000Y235917D02*
Y239917D01*
X620500Y224917D02*
Y225917D01*
X625497Y229167D02*
X626750D01*
X627000Y228917D01*
Y228417D02*
Y228917D01*
X548000Y260503D02*
X555500Y268003D01*
X547000Y260917D02*
X554500Y268417D01*
X564750Y214167D02*
X565827Y215244D01*
X566378D01*
X656175Y264417D02*
X656337Y264254D01*
X627500Y273417D02*
Y274917D01*
X627000Y275417D02*
X627500Y274917D01*
X585326Y246733D02*
X585333Y246726D01*
X585283Y246733D02*
X585326D01*
X686121Y223296D02*
X698500D01*
X581500Y270417D02*
X582500D01*
X583500Y274417D02*
X584500Y273417D01*
Y272917D02*
Y273417D01*
X561025Y268417D02*
X565025Y272417D01*
X560500Y269417D02*
X564500Y273417D01*
X559348Y271417D02*
X562349Y274417D01*
X551000Y272599D02*
X553818Y275417D01*
X556596Y268417D02*
X561025D01*
X556182Y269417D02*
X560500D01*
X586452Y242917D02*
X587000D01*
X627650Y255804D02*
Y255955D01*
X628387Y255804D02*
X628500Y255917D01*
X617000Y280417D02*
Y284417D01*
X549000Y272013D02*
X553404Y276417D01*
X548000Y256917D02*
Y260503D01*
X551500Y258917D02*
Y262589D01*
X556500Y267589D01*
Y268321D01*
X556596Y268417D01*
X555500Y268003D02*
Y268735D01*
X556182Y269417D01*
X547000Y259099D02*
Y260917D01*
X554500Y268417D02*
Y270917D01*
X542500Y268417D02*
X543000D01*
X545250Y264915D02*
Y267864D01*
X544750Y268364D02*
X545250Y267864D01*
X546250Y264501D02*
Y268278D01*
X545750Y268778D02*
X546250Y268278D01*
X547250Y264087D02*
Y268692D01*
X546750Y269192D02*
X547250Y268692D01*
X546750Y269192D02*
Y292667D01*
X548500Y269917D02*
X549000D01*
X535414Y267917D02*
X536164Y268667D01*
X537250D01*
X535000Y268917D02*
X537000Y270917D01*
X537250Y268667D02*
X538500Y269917D01*
X636500Y280417D02*
X637000Y279917D01*
X636000Y280917D02*
X636500Y280417D01*
X640750Y265430D02*
Y265642D01*
X656500Y264417D02*
Y264417D01*
X656337Y264254D02*
X656500Y264417D01*
X654000Y277917D02*
X654500Y277417D01*
X636000Y280917D02*
Y283428D01*
X640339Y281917D02*
X642000D01*
X632750Y289506D02*
X640339Y281917D01*
X633750Y289920D02*
X638253Y285417D01*
X643000D01*
X645000Y283417D01*
X634750Y290334D02*
X638167Y286917D01*
X644900D01*
X635750Y290749D02*
X637581Y288917D01*
X647849D01*
X649175Y287592D01*
X638907Y272692D02*
X641695D01*
X638493Y273692D02*
X641281D01*
X638078Y274692D02*
X640866D01*
X637664Y275692D02*
X640452D01*
X636750Y276692D02*
X640038D01*
X634500Y277417D02*
X635000Y276917D01*
X616000Y285417D02*
X617000Y284417D01*
X650500Y275917D02*
X655000Y271417D01*
X652500Y276917D02*
X655000Y274417D01*
X637900Y249917D02*
X639000Y251017D01*
X635586Y249917D02*
X637900D01*
X588500Y270417D02*
X589000D01*
X627025Y225917D02*
X634000D01*
X616500Y256917D02*
X617000Y256417D01*
X598250Y229667D02*
X599900Y228017D01*
X597250Y229253D02*
X599486Y227017D01*
X585326Y253032D02*
Y253581D01*
X562923Y265994D02*
X569577D01*
X556976Y264802D02*
X569885D01*
X629750Y288263D02*
Y288349D01*
X630750Y288678D02*
Y288763D01*
Y288678D02*
X636000Y283428D01*
X631750Y289092D02*
Y289178D01*
Y289092D02*
X637000Y283842D01*
X632750Y289506D02*
Y289592D01*
X633750Y289920D02*
Y290006D01*
X634750Y290334D02*
Y290420D01*
X635750Y290749D02*
Y290834D01*
X636750Y291163D02*
Y291249D01*
Y291163D02*
X637846Y290067D01*
X651650D01*
X597139Y221167D02*
X597490Y220816D01*
X596725Y220167D02*
X597750Y219142D01*
Y219028D02*
Y219142D01*
X634000Y225917D02*
X637600Y229517D01*
X634414Y224917D02*
X637865Y228368D01*
X588474Y208896D02*
Y208956D01*
X588776Y209257D01*
X588626Y212251D02*
Y212256D01*
X588476Y212101D02*
X588626Y212251D01*
X601024Y212094D02*
X602252D01*
X607500Y202063D02*
Y205618D01*
X585283Y253032D02*
X585326D01*
X585276Y253039D02*
X585283Y253032D01*
X562000Y266917D02*
X562923Y265994D01*
X665400Y263517D02*
X666516Y262402D01*
X661578Y235167D02*
X663000D01*
X663414Y238417D02*
X664500D01*
X632586Y252917D02*
X635586Y249917D01*
X689500Y259735D02*
X691009Y258226D01*
X682500Y255917D02*
X684809Y258226D01*
X683500Y229417D02*
X693500D01*
X695504Y227413D01*
X483500Y188417D02*
X489990D01*
X490240Y188167D01*
X483500Y184417D02*
X487904D01*
X490654Y187167D01*
X486000Y179917D02*
X489750Y183667D01*
Y184849D01*
X491068Y186167D01*
X479500Y179917D02*
X486000D01*
X492500Y184417D02*
X493268D01*
X489000Y195917D02*
X526000D01*
X526500Y195417D01*
X490240Y188167D02*
X493760D01*
X490654Y187167D02*
X493346D01*
X491068Y186167D02*
X492932D01*
X477250Y177667D02*
X479500Y179917D01*
X476250Y205349D02*
X484818Y213917D01*
X474000Y164417D02*
X477250Y167667D01*
X474500Y167417D02*
X476250Y169167D01*
Y205349D01*
X477250Y167667D02*
Y177667D01*
X666516Y262402D02*
X668500D01*
X492000Y183917D02*
X492500Y184417D01*
X501000Y236235D02*
Y237746D01*
X504000Y236417D02*
X505250Y237667D01*
Y240581D01*
X488500Y170417D02*
X494000Y175917D01*
Y179917D01*
X650500Y270417D02*
X656175Y264743D01*
X640500Y267917D02*
X641000D01*
X637000Y283503D02*
X639275Y281228D01*
X613622Y220539D02*
Y221543D01*
X637000Y283503D02*
Y283842D01*
X682136Y276917D02*
X682727Y277508D01*
X546000Y260917D02*
Y262837D01*
X543500Y258417D02*
X546000Y260917D01*
X519500D02*
X542666D01*
X523500Y263417D02*
X543752D01*
X543682Y254917D02*
X545750Y256985D01*
Y257849D01*
X613622Y253039D02*
X613647Y253064D01*
X521000Y265917D02*
X523500Y263417D01*
X518000Y262417D02*
X519500Y260917D01*
X452000Y273917D02*
X470000D01*
X519000Y296099D02*
X524568Y301667D01*
X530500Y278089D02*
Y300246D01*
X529500Y287417D02*
Y300660D01*
X519000Y293917D02*
Y296099D01*
X524500Y282417D02*
X529500Y287417D01*
X537000Y270917D02*
Y271589D01*
X530500Y278089D02*
X537000Y271589D01*
X538500Y269917D02*
Y271503D01*
X531500Y278503D02*
X538500Y271503D01*
X486500Y209917D02*
X487250Y210667D01*
X461000Y164417D02*
X474000D01*
X459035Y167417D02*
X474500D01*
X479500Y201417D02*
X487000D01*
X558000Y215417D02*
X558600Y215317D01*
X661250Y306667D02*
X661500Y306417D01*
X724000Y275917D02*
Y276917D01*
X510500Y301417D02*
Y301917D01*
X513500Y303917D02*
Y305917D01*
Y279417D02*
X522000D01*
X525500Y275917D01*
Y271917D02*
Y275917D01*
X506750Y292167D02*
Y296849D01*
X508568Y298667D01*
X512250D01*
X506750Y292167D02*
X507000Y291917D01*
X687500Y160417D02*
X749500D01*
X768500Y159917D02*
Y160099D01*
X565305Y213167D02*
X566378Y212094D01*
X461000Y258917D02*
X463000Y256917D01*
X462500Y211417D02*
Y213417D01*
X480250Y197167D02*
Y197763D01*
X457500Y212417D02*
Y212917D01*
X488500Y191417D02*
X496500D01*
X642500Y304417D02*
X656000D01*
X641250Y306667D02*
X661250D01*
X695500Y162917D02*
X754083D01*
X721500Y268917D02*
X722500D01*
X689500Y259735D02*
Y271417D01*
X723000Y274917D02*
X724000Y275917D01*
X692500Y260917D02*
Y268417D01*
X695500Y260917D02*
Y271417D01*
X702500Y269917D02*
Y273099D01*
X700432Y275167D02*
X702500Y273099D01*
X497000Y191917D02*
X499500Y194417D01*
X588432Y212101D02*
X588476D01*
X545750Y257849D02*
X547000Y259099D01*
X542666Y260917D02*
X546250Y264501D01*
X543752Y263417D02*
X545250Y264915D01*
X546000Y262837D02*
X547250Y264087D01*
X542500Y254917D02*
X543682D01*
X550250Y267667D02*
X550500Y267417D01*
X551000Y268417D02*
Y272599D01*
X554000Y262417D02*
X554591D01*
X558500Y271417D02*
X559348D01*
X554591Y262417D02*
X556976Y264802D01*
X706000Y267417D02*
X707000Y266417D01*
X704000Y277417D02*
X709500Y271917D01*
X686682Y279917D02*
X705818D01*
X710818Y274917D02*
X723000D01*
X705818Y279917D02*
X710818Y274917D01*
X681068Y275667D02*
X682654D01*
X688000Y277417D02*
X704000D01*
X684273Y277508D02*
X686682Y279917D01*
X682727Y277508D02*
X684273D01*
X688568Y273667D02*
X696432D01*
X688654Y275167D02*
X700432D01*
X688490Y276417D02*
X703000D01*
X710250Y269167D01*
X711432D01*
X669000Y227917D02*
X671000D01*
X714500Y269917D02*
X715500Y270917D01*
X709500Y271917D02*
X712500D01*
X714500Y269917D01*
X585900Y265817D02*
X586000Y265917D01*
X637000Y259417D02*
X637600Y258817D01*
X613615Y249883D02*
X613622Y249890D01*
X613615Y249839D02*
Y249883D01*
X628600Y222317D02*
X629000Y221917D01*
X637600Y229517D02*
X664400D01*
X569000Y252417D02*
Y253417D01*
X568000Y257417D02*
X568299D01*
X565500Y256917D02*
X569000Y253417D01*
X564500Y256917D02*
X565500D01*
X625911Y230167D02*
X631089D01*
X626611Y224917D02*
X634414D01*
X624611Y226917D02*
X626611Y224917D01*
X623000Y226917D02*
X624611D01*
X598275Y220667D02*
X599725D01*
X597490Y220816D02*
X598126D01*
X617343Y224917D02*
X617500D01*
X619500Y226917D02*
X620500Y225917D01*
X616757Y226917D02*
X619500D01*
X631750Y274667D02*
Y283081D01*
X624414Y290417D02*
X631750Y283081D01*
X629750Y288263D02*
X634000Y284013D01*
Y278917D02*
Y284013D01*
Y278917D02*
X635000Y277917D01*
X622000Y290417D02*
X624414D01*
X624839Y231239D02*
X625911Y230167D01*
X624425Y230239D02*
X625497Y229167D01*
X623703Y229239D02*
X627025Y225917D01*
X631177Y274094D02*
X631750Y274667D01*
X656175Y264417D02*
Y264743D01*
X588425Y253039D02*
X589500Y254114D01*
X586675Y253581D02*
Y253764D01*
X583000Y254917D02*
X584000Y255917D01*
X569500Y249883D02*
X571000Y251383D01*
X566000Y270417D02*
X568500D01*
X569500Y269417D01*
X606834Y242191D02*
X607346Y242704D01*
X615435Y228239D02*
X616757Y226917D01*
X623250Y271667D02*
Y272142D01*
X610451Y246676D02*
X611258D01*
X604723Y233065D02*
Y240292D01*
X606622Y242191D01*
X606834D01*
X625000Y275417D02*
X627000D01*
X628000Y277417D02*
X628671Y276746D01*
X629000Y278917D02*
X630500Y277417D01*
Y275417D02*
Y277417D01*
X630000Y274917D02*
X630500Y275417D01*
X577000Y241417D02*
X579000Y239417D01*
X566378Y218320D02*
Y218394D01*
X631089Y230167D02*
X633089Y232167D01*
X660549Y228368D02*
X667500Y221417D01*
X637865Y228368D02*
X660549D01*
X664400Y229517D02*
X664500Y229417D01*
X665000Y245503D02*
Y249160D01*
X623750Y274167D02*
X625000Y275417D01*
X619750Y249692D02*
Y251187D01*
X624500Y258167D02*
Y258917D01*
X607323Y249890D02*
X608850Y251417D01*
X607718Y257324D02*
X607811Y257417D01*
X607718Y257324D02*
X607907D01*
X611476Y241417D02*
X615000D01*
X593600Y238517D02*
X596250Y241167D01*
X601000Y253039D02*
Y254417D01*
Y252917D02*
Y253039D01*
X584000Y255917D02*
Y256917D01*
X597800Y249817D02*
X598000Y250017D01*
X612500Y247917D02*
X615500D01*
X611258Y246676D02*
X612500Y247917D01*
X610415Y249817D02*
X611500Y250902D01*
X623250Y271667D02*
X626000Y268917D01*
X614750Y256192D02*
X614851Y256091D01*
X624000Y277417D02*
X628000D01*
X624000Y278917D02*
X629000D01*
X622225Y273167D02*
X623250Y272142D01*
X617000Y280417D02*
X618500Y278917D01*
X621250Y276167D02*
X624000Y278917D01*
X621750Y275167D02*
X624000Y277417D01*
X620750Y272167D02*
X621500Y271417D01*
X601888Y269167D02*
X602138Y269417D01*
X599498Y269167D02*
X601888D01*
X601000Y254417D02*
X602000Y255417D01*
X613622Y254862D02*
X614851Y256091D01*
X613622Y253039D02*
Y254862D01*
X611500Y254154D02*
X613750Y256404D01*
X611500Y250902D02*
Y254154D01*
X613750Y256404D02*
Y258056D01*
X601059Y271167D02*
X601309Y271417D01*
X598670Y271167D02*
X601059D01*
X601474Y270167D02*
X601724Y270417D01*
X599084Y270167D02*
X601474D01*
X599912Y268167D02*
X609225D01*
X610500Y234142D02*
X610776Y234417D01*
X610500Y240441D02*
X611476Y241417D01*
X611500Y244917D02*
X612000Y245417D01*
X609500Y244917D02*
X611500D01*
X609000Y245417D02*
X609500Y244917D01*
X688000Y243917D02*
Y244417D01*
X635577Y241426D02*
X635586Y241417D01*
X633000Y253917D02*
X634900Y252017D01*
X617164Y272167D02*
X620750D01*
X616993Y275167D02*
X617993Y274167D01*
X618407Y275167D02*
X621750D01*
X617407Y276167D02*
X618407Y275167D01*
X618821Y276167D02*
X621250D01*
X617821Y277167D02*
X618821Y276167D01*
X617578Y273167D02*
X622225D01*
X617993Y274167D02*
X623750D01*
X616578D02*
X617578Y273167D01*
X602000Y271417D02*
Y272417D01*
X603211Y270417D02*
X604211Y271417D01*
X601724Y270417D02*
X603211D01*
X604211Y271417D02*
X605000D01*
X614750Y257642D02*
X615775Y258667D01*
X614750Y256192D02*
Y257642D01*
X613750Y258056D02*
X615361Y259667D01*
X609225Y268167D02*
X610464Y269407D01*
X599763Y277917D02*
X617025D01*
X600177Y276917D02*
X616611D01*
X600591Y275917D02*
X616197D01*
X601328Y274917D02*
X615782D01*
X617775Y277167D02*
X617821D01*
X617025Y277917D02*
X617775Y277167D01*
X617361Y276167D02*
X617407D01*
X616611Y276917D02*
X617361Y276167D01*
X616947Y275167D02*
X616993D01*
X616197Y275917D02*
X616947Y275167D01*
X616533Y274167D02*
X616578D01*
X615782Y274917D02*
X616533Y274167D01*
X616118Y273167D02*
X616164D01*
X615368Y273917D02*
X616118Y273167D01*
X617954Y269917D02*
X618000D01*
X614954Y272917D02*
X617954Y269917D01*
X616164Y273167D02*
X617164Y272167D01*
X612500Y272917D02*
X614954D01*
X611568Y271985D02*
X612500Y272917D01*
X611568Y269096D02*
Y271985D01*
X610464Y272296D02*
X612086Y273917D01*
X615368D01*
X610464Y269407D02*
Y272296D01*
X614000Y269581D02*
Y270917D01*
X626288Y257067D02*
X627038Y257817D01*
X627000Y253917D02*
X633000D01*
X624850Y256067D02*
X627000Y253917D01*
X626500Y252917D02*
X632586D01*
X624350Y255067D02*
X626500Y252917D01*
X619475Y267417D02*
X620672D01*
X614500D02*
X615500Y268417D01*
X613250Y267417D02*
X614500D01*
X623111Y242917D02*
X624361Y244167D01*
X628361D01*
X630500Y243417D02*
X631500D01*
X629923Y241426D02*
X635577D01*
X630775Y245167D02*
X633250D01*
X628775Y243167D02*
X630775Y245167D01*
X628361Y244167D02*
X630361Y246167D01*
X627947Y245167D02*
X629947Y247167D01*
X615000Y262417D02*
X617500D01*
X618475Y266417D02*
X619475Y267417D01*
X614397Y266417D02*
X618475D01*
X619000Y265417D02*
X619250Y265667D01*
X614811Y265417D02*
X619000D01*
X619053Y259667D02*
X619109Y259612D01*
X615361Y259667D02*
X619053D01*
X617427Y258667D02*
X618639D01*
X617326Y258566D02*
X617427Y258667D01*
X617225D02*
X617326Y258566D01*
X615775Y258667D02*
X617225D01*
X619400Y249342D02*
X619750Y249692D01*
X618975Y256917D02*
X619825Y256067D01*
X616500Y256917D02*
X618975D01*
X650414D02*
X651414Y255917D01*
X642172Y256917D02*
X650414D01*
X648500Y253917D02*
X649400Y253017D01*
X642500Y253917D02*
X648500D01*
X692500Y260917D02*
X696500Y256917D01*
X695500Y260917D02*
X699000Y257417D01*
X678414Y255917D02*
X682500D01*
X678328Y256003D02*
X678414Y255917D01*
X658145Y232271D02*
X665647D01*
X658041Y232167D02*
X658145Y232271D01*
X633089Y232167D02*
X658041D01*
X660164Y235167D02*
X663414Y238417D01*
X660578Y234167D02*
X661578Y235167D01*
X633250Y245167D02*
X636000Y242417D01*
X619737Y234417D02*
X620737Y235417D01*
X609870Y237917D02*
X616325D01*
X619400Y245840D02*
Y249342D01*
X622050Y239367D02*
X622500Y238917D01*
X612000Y245417D02*
X617914D01*
X613622Y243590D02*
X618327D01*
X619400Y245840D02*
X620577D01*
X632260Y234167D02*
X660578D01*
X630260Y232167D02*
X632260Y234167D01*
X626740Y232167D02*
X630260D01*
X625490Y233417D02*
X626740Y232167D01*
X622000Y233417D02*
X625490D01*
X631846Y235167D02*
X660164D01*
X629846Y233167D02*
X631846Y235167D01*
X627154Y233167D02*
X629846D01*
X624904Y235417D02*
X627154Y233167D01*
X620737Y235417D02*
X624904D01*
X631432Y236167D02*
X659750D01*
X629432Y234167D02*
X631432Y236167D01*
X627568Y234167D02*
X629432D01*
X625318Y236417D02*
X627568Y234167D01*
X626414Y237917D02*
X629923Y241426D01*
X618675Y237917D02*
X626414D01*
X626000Y238917D02*
X630500Y243417D01*
X622500Y238917D02*
X626000D01*
X624775Y243167D02*
X628775D01*
X623525Y241917D02*
X624775Y243167D01*
X620414Y242917D02*
X623111D01*
X617914Y245417D02*
X620414Y242917D01*
X620000Y241917D02*
X623525D01*
X618327Y243590D02*
X620000Y241917D01*
X619500Y240917D02*
X625000D01*
X617950Y239367D02*
X622050D01*
X617000Y240317D02*
X617950Y239367D01*
X607500Y256417D02*
Y257417D01*
X612043Y264064D02*
X614397Y266417D01*
X612457Y263064D02*
X614811Y265417D01*
X612872Y262064D02*
X615225Y264417D01*
X613500Y260917D02*
X615000Y262417D01*
X644500Y273417D02*
X645500Y274417D01*
X644500Y272417D02*
Y273417D01*
X644920Y275917D02*
X650500D01*
X641695Y272692D02*
X644920Y275917D01*
X644505Y276917D02*
X652500D01*
X641281Y273692D02*
X644505Y276917D01*
X644091Y277917D02*
X654000D01*
X640866Y274692D02*
X644091Y277917D01*
X544750Y268364D02*
Y293496D01*
X545750Y268778D02*
Y293081D01*
X546750Y292667D02*
X550000Y295917D01*
X545750Y293081D02*
X549586Y296917D01*
X544750Y293496D02*
X549172Y297917D01*
X540250Y301167D02*
X541500Y299917D01*
X512250Y298667D02*
X519000Y305417D01*
X511000Y292417D02*
X520000Y301417D01*
X511914Y296917D02*
X519414Y304417D01*
X510500Y296917D02*
X511914D01*
X680535Y167383D02*
X687500Y160417D01*
X623500Y219917D02*
X625500Y217917D01*
X618000Y217417D02*
X622000D01*
X622500Y216917D01*
X625925D01*
X620250Y215667D02*
X625760D01*
X620000Y215417D02*
X620250Y215667D01*
X621500Y219917D02*
X623500D01*
X620500Y224917D02*
X621000Y224417D01*
X458000Y167417D02*
X458500Y167917D01*
X554709Y248417D02*
X558000D01*
X550709Y244417D02*
X554709Y248417D01*
X484500Y237417D02*
X496750Y249667D01*
X501000Y237746D02*
X506000Y242746D01*
Y243917D01*
X505250Y240581D02*
X507086Y242417D01*
X513172D01*
X506000Y247417D02*
X509586D01*
X588626Y212256D02*
X591253Y214884D01*
X595876Y222167D02*
X597876Y224167D01*
X572126Y237291D02*
X572677D01*
X564252Y239417D02*
X566378Y237291D01*
X642000Y327417D02*
X644000Y325417D01*
X668500Y330917D02*
X674000Y325417D01*
X660000Y329417D02*
X664000Y325417D01*
X471500Y283417D02*
Y295417D01*
Y283417D02*
X500500Y254417D01*
X439890Y278527D02*
X467890D01*
X470500Y281417D02*
X499000Y252917D01*
X496750Y249667D02*
X508750D01*
X497500Y251917D02*
X510000D01*
X469000Y280417D02*
X497500Y251917D01*
X497086Y250917D02*
X509000D01*
X468000Y280003D02*
X497086Y250917D01*
X530000Y255917D02*
X535500Y250417D01*
X501000Y255917D02*
X530000D01*
X580132Y236871D02*
X583828D01*
X576586Y240417D02*
X580132Y236871D01*
X603339Y222795D02*
X603450D01*
X600968Y225167D02*
X603339Y222795D01*
X597876Y224167D02*
X600553D01*
X597462Y225167D02*
X600968D01*
X601024Y205394D02*
X605613Y200805D01*
X601024Y205394D02*
Y208945D01*
X602252Y212094D02*
X603801Y210545D01*
X606044D01*
X604630Y212545D02*
X606872D01*
X602291Y214884D02*
X604630Y212545D01*
X604215Y211545D02*
X606458D01*
X591253Y214884D02*
X602291D01*
X595462Y223167D02*
X597462Y225167D01*
X592203Y219517D02*
X593625D01*
X593211Y220517D02*
X593861Y221167D01*
X592618Y220517D02*
X593211D01*
X594275Y220167D02*
X596725D01*
X593625Y219517D02*
X594275Y220167D01*
X592910Y221638D02*
X593439Y222167D01*
X593861Y221167D02*
X597139D01*
X593439Y222167D02*
X595876D01*
X593025Y223167D02*
X595462D01*
X597899Y218879D02*
X600397D01*
X602925Y221795D02*
X603036D01*
X600553Y224167D02*
X602925Y221795D01*
X611949Y216917D02*
X613321Y215545D01*
X612947Y224693D02*
X613600D01*
X592525Y222667D02*
X593025Y223167D01*
X592910Y221638D02*
X592910D01*
X592882Y221667D02*
X592910Y221638D01*
X565000Y184417D02*
X568672D01*
X611450Y216917D02*
X611949D01*
X609690Y226917D02*
X615343D01*
X609782Y228239D02*
X615435D01*
X610196Y229239D02*
X623703D01*
X610610Y230239D02*
X624425D01*
X611025Y231239D02*
X624839D01*
X608590Y228017D02*
X609690Y226917D01*
X609004Y229017D02*
X609782Y228239D01*
X600400Y229017D02*
X609004D01*
X601500Y231417D02*
X602900Y230017D01*
X608176Y227017D02*
X610500Y224693D01*
X599486Y227017D02*
X608176D01*
X599900Y228017D02*
X608590D01*
X609418Y230017D02*
X610196Y229239D01*
X602900Y230017D02*
X609418D01*
X609832Y231017D02*
X610610Y230239D01*
X606770Y231017D02*
X609832D01*
X604723Y233065D02*
X606770Y231017D01*
X610247Y232017D02*
X611025Y231239D01*
X609471Y232017D02*
X610247D01*
X607346Y234142D02*
X609471Y232017D01*
X609950Y218417D02*
X611450Y216917D01*
X602273Y218417D02*
X609950D01*
X599874Y220816D02*
X602273Y218417D01*
X603914Y220917D02*
X610985D01*
X603036Y221795D02*
X603914Y220917D01*
X603450Y222795D02*
X604328Y221917D01*
X611500D02*
X612947Y223364D01*
X604328Y221917D02*
X611500D01*
X610985Y220917D02*
X611934Y219968D01*
X613051D02*
X613622Y220539D01*
X611934Y219968D02*
X613051D01*
X601859Y217417D02*
X606243D01*
X600397Y218879D02*
X601859Y217417D01*
X610172Y206417D02*
X619000D01*
X606044Y210545D02*
X610172Y206417D01*
X606872Y212545D02*
X611000Y208417D01*
X610586Y207417D02*
X618318D01*
X606458Y211545D02*
X610586Y207417D01*
X611565Y212094D02*
X613622D01*
X606243Y217417D02*
X611565Y212094D01*
X605500Y215917D02*
X611500Y209917D01*
X611000Y208417D02*
X617904D01*
X621000D02*
X627000D01*
X619000Y206417D02*
X621000Y208417D01*
X617938Y209917D02*
X619938Y211917D01*
X611500Y209917D02*
X617938D01*
X625500Y217917D02*
X626339D01*
X619904Y210417D02*
X630096D01*
X617904Y208417D02*
X619904Y210417D01*
X620318Y209417D02*
X629682D01*
X618318Y207417D02*
X620318Y209417D01*
X627000Y208417D02*
X628500Y206917D01*
X659000Y164917D02*
X673500Y150417D01*
X657500Y163917D02*
X672500Y148917D01*
X656500Y162917D02*
X672000Y147417D01*
X625000Y191917D02*
X627000Y189917D01*
X639500D01*
X561500Y182417D02*
X563500Y180417D01*
X612000Y189417D02*
X617500Y183917D01*
X611586Y188417D02*
X617086Y182917D01*
X611172Y187417D02*
X616672Y181917D01*
X610757Y186417D02*
X616257Y180917D01*
X610343Y185417D02*
X615843Y179917D01*
X612500Y190417D02*
X618000Y184917D01*
X620500Y191417D02*
X626000Y185917D01*
X619938Y211917D02*
X706000D01*
X770000Y325417D02*
X777000Y332417D01*
X780000Y325417D02*
X786000Y331417D01*
X791000D01*
X777000Y332417D02*
X791414D01*
X791000Y331417D02*
X795000Y327417D01*
X765500Y323417D02*
Y326417D01*
X760000Y331917D02*
X765500Y326417D01*
X746500Y331917D02*
X760000D01*
X740000Y325417D02*
X746500Y331917D01*
X704000Y325417D02*
X709500Y319917D01*
X760000Y323417D02*
Y325417D01*
X704000Y246846D02*
Y259599D01*
X701500Y247932D02*
Y258917D01*
X699000Y249018D02*
Y257417D01*
X696500Y250103D02*
Y256917D01*
X691009Y254180D02*
Y258226D01*
X791414Y332417D02*
X796000Y327831D01*
X795000Y318917D02*
Y327417D01*
X796000Y319331D02*
Y327831D01*
X788000Y316917D02*
X793500D01*
X762667Y323417D02*
X765417Y320667D01*
X765500Y323417D02*
X767250Y321667D01*
X776992Y169917D02*
X787496Y159413D01*
X707586Y169917D02*
X776992D01*
X699086Y178417D02*
X707586Y169917D01*
X694000Y178417D02*
X699086D01*
X774000Y168917D02*
X781500Y161417D01*
X707172Y168917D02*
X774000D01*
X700172Y175917D02*
X707172Y168917D01*
X691000Y175917D02*
X700172D01*
X769500Y167917D02*
X778000Y159417D01*
X706757Y167917D02*
X769500D01*
X701757Y172917D02*
X706757Y167917D01*
X695000Y172917D02*
X701757D01*
X767000Y166917D02*
X772500Y161417D01*
X706343Y166917D02*
X767000D01*
X702843Y170417D02*
X706343Y166917D01*
X691000Y170417D02*
X702843D01*
X762682Y165917D02*
X768500Y160099D01*
X705929Y165917D02*
X762682D01*
X703929Y167917D02*
X705929Y165917D01*
X695000Y167917D02*
X703929D01*
X760500Y164917D02*
X762209Y163209D01*
X705515Y164917D02*
X760500D01*
X705265Y165167D02*
X705515Y164917D01*
X691000Y165167D02*
X705265D01*
X697500Y181417D02*
X708000Y170917D01*
X714500Y236417D02*
Y269917D01*
X484500Y209917D02*
X486500D01*
Y213917D02*
X488750Y211667D01*
X484818Y213917D02*
X486500D01*
X457500Y212917D02*
X464500Y219917D01*
X467000Y217917D02*
X485000D01*
X462500Y213417D02*
X467000Y217917D01*
X571000Y254917D02*
X571677Y255594D01*
X574687Y254500D02*
X575500Y253687D01*
X585283Y246733D02*
X587098Y244917D01*
X582525Y240917D02*
X582775Y241167D01*
X581000Y240917D02*
X582525D01*
X583025Y244417D02*
X583275Y244667D01*
X605750Y256692D02*
Y258667D01*
Y256692D02*
X605763Y256680D01*
Y256680D02*
Y256680D01*
X608850Y254768D02*
X614750Y260667D01*
X615500Y247917D02*
X618000Y250417D01*
X618620Y252317D02*
X619750Y251187D01*
X617400Y252317D02*
X618620D01*
X614922Y249839D02*
X617400Y252317D01*
X618000Y242417D02*
X619500Y240917D01*
X616000Y242417D02*
X618000D01*
X615000Y241417D02*
X616000Y242417D01*
X618225Y238367D02*
X618675Y237917D01*
X616775Y238367D02*
X618225D01*
X616325Y237917D02*
X616775Y238367D01*
X610776Y234417D02*
X619737D01*
X604500Y255417D02*
X605763Y256680D01*
X602000Y255417D02*
X604500D01*
X598600Y241167D02*
X600350Y242917D01*
X596250Y241167D02*
X598600D01*
X607346Y240441D02*
X609870Y237917D01*
X603500Y240417D02*
Y242917D01*
X598954Y235871D02*
X603500Y240417D01*
X600250Y241167D02*
X601225D01*
X602500Y242442D01*
Y243331D01*
X603500Y244331D01*
X592000Y273417D02*
Y273680D01*
X606000Y245417D02*
X609000D01*
X603500Y242917D02*
X606000Y245417D01*
X608850Y251417D02*
Y254768D01*
X603500Y244331D02*
Y245417D01*
X602177Y246740D02*
X603500Y245417D01*
X601000Y246740D02*
X602177D01*
X592000Y239917D02*
X593000Y240917D01*
X599250Y230167D02*
Y230971D01*
Y230167D02*
X600400Y229017D01*
X597250Y229253D02*
Y230142D01*
X598250Y229667D02*
Y230556D01*
X595500Y236417D02*
X600250Y241167D01*
X595500Y234720D02*
Y236417D01*
Y234720D02*
X599250Y230971D01*
X594500Y234306D02*
Y235871D01*
X592954Y237417D02*
X594500Y235871D01*
X592540Y236417D02*
X593500Y235457D01*
Y233892D02*
Y235457D01*
X594500Y234306D02*
X598250Y230556D01*
X593500Y233892D02*
X597250Y230142D01*
X597500Y235871D02*
X598954D01*
X563225Y215167D02*
X566378Y218320D01*
X559250Y214167D02*
X564750D01*
X558000Y215417D02*
X559250Y214167D01*
X556000Y210917D02*
Y211167D01*
X556750Y211917D01*
X560500D01*
X562500Y209917D01*
X458018Y168435D02*
X459035Y167417D01*
X458000Y168417D02*
X458018Y168435D01*
X458000Y167417D02*
Y168417D01*
X621000Y223917D02*
Y224417D01*
X711432Y269167D02*
X712591Y268008D01*
X730000Y206917D02*
X731000Y205917D01*
X627650Y255804D02*
X628387D01*
X642500Y262417D02*
Y263680D01*
Y262417D02*
X643000Y261917D01*
X709500Y266417D02*
X710101Y265816D01*
X710500Y265417D01*
X710101Y265816D02*
X710313D01*
X617675Y254242D02*
X618500Y255067D01*
X617500Y254067D02*
X617675Y254242D01*
X617500Y254067D02*
Y254417D01*
Y253917D02*
Y254067D01*
X633500Y259417D02*
X635600Y257317D01*
X651414Y255917D02*
X657000D01*
X608500Y270179D02*
Y270417D01*
Y269917D02*
Y270179D01*
X601309Y271417D02*
X602000D01*
X585326Y253581D02*
X586675D01*
X594724Y253039D02*
X595311Y253626D01*
X594724Y253039D02*
X594738Y253026D01*
X600500Y242917D02*
X601000D01*
X600350D02*
X600500D01*
X582450Y267667D02*
X583300Y266817D01*
X604000Y252917D02*
X607500Y256417D01*
X550250Y267667D02*
X551000Y268417D01*
X549000Y269917D02*
Y272013D01*
X612947Y223364D02*
Y224693D01*
X617500Y236417D02*
X625318D01*
X607346Y242704D02*
Y243571D01*
X624875Y258542D02*
X625150Y258817D01*
X624500Y258167D02*
X624875Y258542D01*
X626750Y260417D02*
X628093D01*
X626500D02*
X626750D01*
X621500Y258417D02*
X621750Y258667D01*
X660250Y260667D02*
X661000Y259917D01*
X640500Y267569D02*
Y267917D01*
X641000Y267503D02*
X641677D01*
X640566D02*
X641000D01*
X613615Y249839D02*
X614922D01*
X452500Y258917D02*
X461000D01*
X451500D02*
X452500D01*
X540727Y319286D02*
X540858Y319417D01*
X539346Y320667D02*
X540727Y319286D01*
X634500Y277417D02*
X635000Y277917D01*
X509500Y295917D02*
X510500Y296917D01*
X736000Y255228D02*
X736811D01*
X735500D02*
X736000D01*
X644900Y286917D02*
X646700Y285117D01*
X511000Y301417D02*
X513500Y303917D01*
X510500Y301417D02*
X511000D01*
X538500D02*
X538750Y301167D01*
X639275Y279642D02*
Y281228D01*
X785750Y287485D02*
X787500Y285735D01*
X532500Y278917D02*
X543000Y268417D01*
X684500Y224917D02*
X686121Y223296D01*
X696432Y273667D02*
X699500Y270599D01*
X672129Y276289D02*
X672649Y276808D01*
X628450Y222167D02*
X628600Y222317D01*
X467890Y278527D02*
X486500Y259917D01*
Y249417D02*
Y259917D01*
X470000Y273917D02*
X482671Y261246D01*
X471500Y295417D02*
X494500Y318417D01*
X470500Y300417D02*
X501000Y330917D01*
X470500Y281417D02*
Y300417D01*
X469000Y301917D02*
X499000Y331917D01*
X469000Y280417D02*
Y301917D01*
X468000Y303417D02*
X498500Y333917D01*
X468000Y280003D02*
Y303417D01*
X499000Y318417D02*
X535818D01*
X498586Y319417D02*
X535404D01*
X497586Y318417D02*
X498586Y319417D01*
X494500Y318417D02*
X497586D01*
X479500Y237417D02*
X484500D01*
X482671Y246746D02*
Y261246D01*
Y246746D02*
X486000Y243417D01*
X615343Y226917D02*
X617343Y224917D01*
X482500Y301917D02*
X499000Y318417D01*
X482500Y274417D02*
Y301917D01*
Y274417D02*
X501000Y255917D01*
X538750Y301167D02*
X540250D01*
X639500Y330917D02*
X668500D01*
X639414Y329417D02*
X660000D01*
X638828Y327417D02*
X642000D01*
X638500Y331917D02*
X677500D01*
X639000Y333917D02*
X685500D01*
X624000Y292417D02*
X633000Y283417D01*
X618500Y292417D02*
X624000D01*
X617000Y290917D02*
X618500Y292417D01*
X576452Y231041D02*
X584826Y222667D01*
X592525D01*
X584412Y221667D02*
X592882D01*
X583998Y220667D02*
X592467D01*
X583584Y219667D02*
X592053D01*
X579221Y231268D02*
X583350D01*
X579635Y232268D02*
X582325D01*
X558000Y248417D02*
X562000Y244417D01*
X559500Y243917D02*
X560000Y243417D01*
X559000Y243917D02*
X559500D01*
X556500Y246417D02*
X559000Y243917D01*
X558250Y237667D02*
X559250Y236667D01*
X589500Y254114D02*
Y256341D01*
X569577Y265994D02*
X571250Y267667D01*
X569885Y264802D02*
X571750Y266667D01*
X577318Y269735D02*
X578318D01*
X588500Y255589D02*
Y256755D01*
X586875Y239917D02*
X592000D01*
X588500Y236417D02*
X592540D01*
X583350Y231268D02*
X588500Y236417D01*
X589000Y240917D02*
X592500Y244417D01*
X607738Y269417D02*
X608500Y270179D01*
X602138Y269417D02*
X607738D01*
X605750Y258667D02*
X606250Y259167D01*
X600326Y267167D02*
X608811D01*
X600741Y266167D02*
X608396D01*
X601155Y265167D02*
X607982D01*
X601569Y264167D02*
X607568D01*
X601983Y263167D02*
X607154D01*
X609536Y267064D02*
X611568Y269096D01*
X608914Y267064D02*
X609536D01*
X608811Y267167D02*
X608914Y267064D01*
X610482Y266064D02*
X614000Y269581D01*
X608500Y266064D02*
X610482D01*
X608396Y266167D02*
X608500Y266064D01*
X610896Y265064D02*
X613250Y267417D01*
X608086Y265064D02*
X610896D01*
X607982Y265167D02*
X608086Y265064D01*
X607672Y264064D02*
X612043D01*
X607568Y264167D02*
X607672Y264064D01*
X607257Y263064D02*
X612457D01*
X607154Y263167D02*
X607257Y263064D01*
X606740Y262167D02*
X606843Y262064D01*
X612872D01*
X603000Y260917D02*
X613500D01*
X608475Y258917D02*
X610000D01*
X608225Y259167D02*
X608475Y258917D01*
X606250Y259167D02*
X608225D01*
X602000Y257417D02*
X603000D01*
X599250Y252314D02*
Y254667D01*
X602000Y257417D01*
X598000Y250017D02*
Y255917D01*
X587146Y259679D02*
X588596D01*
X587134Y259667D02*
X587146Y259679D01*
X587560Y258679D02*
X589010D01*
X587548Y258667D02*
X587560Y258679D01*
X582825Y258217D02*
X583275Y258667D01*
X582800Y258217D02*
X582825D01*
X586675Y253764D02*
X588500Y255589D01*
X577000Y269417D02*
X577318Y269735D01*
X569500Y269417D02*
X577000D01*
X579500Y272417D02*
X581500Y270417D01*
X565025Y272417D02*
X579500D01*
X562349Y274417D02*
X583500D01*
X602397Y262167D02*
X606740D01*
X595311Y253626D02*
Y256495D01*
X574000Y264417D02*
X575250Y265667D01*
X575400Y263792D02*
Y263931D01*
X575250Y263642D02*
X575400Y263792D01*
X575250Y262192D02*
Y263642D01*
X576500Y252417D02*
X579028Y249890D01*
X576500Y252417D02*
Y254101D01*
X564500Y273417D02*
X582000D01*
X571250Y267667D02*
X582450D01*
X586720Y260667D02*
X586732Y260679D01*
X588182D01*
X583275Y258667D02*
X587548D01*
X580500Y241417D02*
X581000Y240917D01*
X579000Y239417D02*
X583500D01*
X587475Y237417D02*
X592954D01*
X582325Y232268D02*
X587475Y237417D01*
X587000Y238517D02*
X593600D01*
X584353Y235871D02*
X587000Y238517D01*
X583828Y236871D02*
X586875Y239917D01*
X574000Y262356D02*
Y264417D01*
X571677Y260034D02*
X574000Y262356D01*
X571677Y255594D02*
Y260034D01*
X572677Y259619D02*
X575250Y262192D01*
X589500Y244917D02*
X591500Y246917D01*
X587098Y244917D02*
X589500D01*
X577000Y262917D02*
X580672D01*
X578250Y264667D02*
X579000Y263917D01*
X576000Y264667D02*
X578250D01*
X576000Y264517D02*
Y264667D01*
X575986Y264517D02*
X576000D01*
X575400Y263931D02*
X575986Y264517D01*
X577250Y260667D02*
X578250Y261667D01*
X576947Y260667D02*
X577250D01*
X577361Y259667D02*
X578659D01*
X579659Y260667D01*
X576687Y255329D02*
X578400Y253616D01*
X575687Y254914D02*
X576500Y254101D01*
X572677Y249890D02*
Y259619D01*
X575827Y246740D02*
X576500Y247413D01*
X590500Y248815D02*
Y255927D01*
X588425Y246740D02*
X590500Y248815D01*
X594400Y249609D02*
X594674Y249883D01*
X594717D01*
X594724Y249890D01*
Y249642D02*
Y249890D01*
Y249642D02*
X597000Y251917D01*
Y256770D01*
X592500Y244417D02*
Y255098D01*
X587768Y261679D02*
X601003Y274915D01*
X588182Y260679D02*
X598670Y271167D01*
X588596Y259679D02*
X599084Y270167D01*
X589010Y258679D02*
X599498Y269167D01*
X588500Y256755D02*
X599912Y268167D01*
X589500Y256341D02*
X600326Y267167D01*
X590500Y255927D02*
X600741Y266167D01*
X591500Y255512D02*
X601155Y265167D01*
X592500Y255098D02*
X601569Y264167D01*
X595311Y256495D02*
X601983Y263167D01*
X597000Y256770D02*
X602397Y262167D01*
X598000Y255917D02*
X603000Y260917D01*
X601675Y249890D02*
X604173D01*
X599250Y252314D02*
X601675Y249890D01*
X591500Y246917D02*
Y255512D01*
X571000Y251383D02*
Y254917D01*
X567000Y247667D02*
Y250417D01*
X569000Y252417D01*
X572233Y244417D02*
X583025D01*
X571233Y245417D02*
X572233Y244417D01*
X571819Y243417D02*
X583500D01*
X570819Y244417D02*
X571819Y243417D01*
X572405Y241417D02*
X577000D01*
X570405Y243417D02*
X572405Y241417D01*
X571990Y240417D02*
X576586D01*
X569990Y242417D02*
X571990Y240417D01*
X569576Y241417D02*
X571952Y239041D01*
X569000Y240417D02*
X572126Y237291D01*
X579380Y258667D02*
X580380Y259667D01*
X577775Y258667D02*
X579380D01*
X581500Y256917D02*
X582800Y258217D01*
X586500Y275417D02*
X588000Y273917D01*
X553818Y275417D02*
X586500D01*
X585000Y270417D02*
X588500D01*
X582000Y273417D02*
X585000Y270417D01*
X585562Y266667D02*
X585800Y266429D01*
X584925Y266667D02*
X585562D01*
X583925Y265667D02*
X584925Y266667D01*
X582475Y265667D02*
X583925D01*
X581475Y266667D02*
X582475Y265667D01*
X571750Y266667D02*
X581475D01*
X589263Y276417D02*
X592000Y273680D01*
X586525Y264679D02*
X599763Y277917D01*
X585075Y264679D02*
X586525D01*
X585063Y264667D02*
X585075Y264679D01*
X581750Y264667D02*
X585063D01*
X580750Y265667D02*
X581750Y264667D01*
X575250Y265667D02*
X580750D01*
X553404Y276417D02*
X589263D01*
X586939Y263679D02*
X600177Y276917D01*
X585489Y263679D02*
X586939D01*
X585477Y263667D02*
X585489Y263679D01*
X581336Y263667D02*
X585477D01*
X581086Y263917D02*
X581336Y263667D01*
X579000Y263917D02*
X581086D01*
X587353Y262679D02*
X600591Y275917D01*
X585904Y262679D02*
X587353D01*
X585891Y262667D02*
X585904Y262679D01*
X580922Y262667D02*
X585891D01*
X580672Y262917D02*
X580922Y262667D01*
X586318Y261679D02*
X587768D01*
X586306Y261667D02*
X586318Y261679D01*
X578250Y261667D02*
X586306D01*
X579659Y260667D02*
X586720D01*
X580380Y259667D02*
X587134D01*
X574687Y258407D02*
X576947Y260667D01*
X574687Y254500D02*
Y258407D01*
X575687Y254914D02*
Y257993D01*
X577361Y259667D01*
X576687Y257579D02*
X577775Y258667D01*
X576687Y255329D02*
Y257579D01*
X583000Y252165D02*
Y254917D01*
Y252165D02*
X585276Y249890D01*
X575500Y249646D02*
Y253687D01*
Y249646D02*
X576500Y248646D01*
Y247413D02*
Y248646D01*
X569250Y245417D02*
X571233D01*
X567000Y247667D02*
X569250Y245417D01*
X562000Y244417D02*
X570819D01*
X560000Y243417D02*
X570405D01*
X585250Y244667D02*
X587000Y242917D01*
X583275Y244667D02*
X585250D01*
X584475Y240917D02*
X589000D01*
X584225Y241167D02*
X584475Y240917D01*
X582775Y241167D02*
X584225D01*
X577446Y235871D02*
X584353D01*
X572264Y232041D02*
X578447D01*
X571239Y233066D02*
X572264Y232041D01*
X570239Y232652D02*
X571850Y231041D01*
X570239Y232652D02*
Y232691D01*
X573402Y235541D02*
X573402Y235541D01*
X561750Y237367D02*
X562000Y237617D01*
X574275Y239041D02*
X577446Y235871D01*
X573402Y235541D02*
X576361D01*
X571952Y239041D02*
X574275D01*
X576361Y235541D02*
X579635Y232268D01*
X556664Y237667D02*
X558250D01*
X555414Y238917D02*
X556664Y237667D01*
X556328Y239417D02*
X564252D01*
X555828Y239917D02*
X556328Y239417D01*
X556243Y240917D02*
X556743Y240417D01*
X556657Y241917D02*
X557157Y241417D01*
X557571Y242417D02*
X569990D01*
X557071Y242917D02*
X557571Y242417D01*
X555500Y242917D02*
X557071D01*
X554000Y244417D02*
X555500Y242917D01*
X556743Y240417D02*
X569000D01*
X557157Y241417D02*
X569576D01*
X542000Y241917D02*
X556657D01*
X561750Y236692D02*
Y237367D01*
X569803Y234541D02*
X571239Y233105D01*
X578447Y232041D02*
X579221Y231268D01*
X568108Y230541D02*
X570608Y228041D01*
X568522Y231541D02*
X571022Y229041D01*
X568936Y232541D02*
X571436Y230041D01*
X569388Y233541D02*
X570239Y232691D01*
X567178Y226167D02*
X568052Y227041D01*
X564084Y230541D02*
X568108D01*
X562013Y235541D02*
X573402D01*
X562427Y234541D02*
X569803D01*
X562842Y233541D02*
X569388D01*
X563256Y232541D02*
X568936D01*
X563670Y231541D02*
X568522D01*
X569543Y221374D02*
X572803D01*
X567500Y223417D02*
X569543Y221374D01*
X565728Y226167D02*
X567178D01*
X564478Y227417D02*
X565728Y226167D01*
X565788Y224693D02*
X569500D01*
X565500Y223417D02*
X567500D01*
X566797Y221167D02*
X569528Y218437D01*
X499000Y252917D02*
X517000D01*
X500500Y254417D02*
X518500D01*
X556376Y236541D02*
X557401D01*
X555000Y237917D02*
X556376Y236541D01*
X565953Y228417D02*
X566453Y227917D01*
X563374Y228417D02*
X565953D01*
X563789Y227417D02*
X564478D01*
X564314Y226167D02*
X565788Y224693D01*
X523000Y225417D02*
X524000Y226417D01*
X518500Y254417D02*
X533250Y239667D01*
X529522Y230667D02*
X537840D01*
X529936Y231667D02*
X537426D01*
X537012Y232667D02*
X537762Y233417D01*
X530350Y232667D02*
X537012D01*
X536597Y233667D02*
X537348Y234417D01*
X530765Y233667D02*
X536597D01*
X536183Y234667D02*
X536933Y235417D01*
X531179Y234667D02*
X536183D01*
X535769Y235667D02*
X536519Y236417D01*
X531593Y235667D02*
X535769D01*
X535355Y236667D02*
X536105Y237417D01*
X532007Y236667D02*
X535355D01*
X534941Y237667D02*
X535691Y238417D01*
X532422Y237667D02*
X534941D01*
X534526Y238667D02*
X535277Y239417D01*
X532836Y238667D02*
X534526D01*
X534112Y239667D02*
X534862Y240417D01*
X533250Y239667D02*
X534112D01*
X541275Y240167D02*
X542725D01*
X541025Y240417D02*
X541275Y240167D01*
X534862Y240417D02*
X541025D01*
X540861Y239167D02*
X543139D01*
X540611Y239417D02*
X540861Y239167D01*
X535277Y239417D02*
X540611D01*
X540447Y238167D02*
X543553D01*
X540197Y238417D02*
X540447Y238167D01*
X535691Y238417D02*
X540197D01*
X540032Y237167D02*
X543967D01*
X539782Y237417D02*
X540032Y237167D01*
X536105Y237417D02*
X539782D01*
X544382Y236167D02*
X544632Y236417D01*
X539618Y236167D02*
X544382D01*
X539368Y236417D02*
X539618Y236167D01*
X536519Y236417D02*
X539368D01*
X545046Y235417D02*
X547586D01*
X544796Y235167D02*
X545046Y235417D01*
X539204Y235167D02*
X544796D01*
X538954Y235417D02*
X539204Y235167D01*
X536933Y235417D02*
X538954D01*
X545460Y234417D02*
X547172D01*
X545210Y234167D02*
X545460Y234417D01*
X538790Y234167D02*
X545210D01*
X538540Y234417D02*
X538790Y234167D01*
X537348Y234417D02*
X538540D01*
X545874Y233417D02*
X546757D01*
X545624Y233167D02*
X545874Y233417D01*
X538376Y233167D02*
X545624D01*
X538126Y233417D02*
X538376Y233167D01*
X537762Y233417D02*
X538126D01*
X546289Y232417D02*
X546343D01*
X546039Y232167D02*
X546289Y232417D01*
X537961Y232167D02*
X546039D01*
X537426Y231667D02*
X537944Y232185D01*
X538340Y231167D02*
X546179D01*
X537840Y230667D02*
X538340Y231167D01*
X544632Y236417D02*
X548000D01*
X537944Y232185D02*
X537961Y232167D01*
X537944Y232185D02*
X537944D01*
X542725Y240167D02*
X543475Y240917D01*
X543139Y239167D02*
X543889Y239917D01*
X543553Y238167D02*
X544303Y238917D01*
X543967Y237167D02*
X544718Y237917D01*
X543475Y240917D02*
X556243D01*
X543889Y239917D02*
X555828D01*
X544303Y238917D02*
X555414D01*
X544718Y237917D02*
X555000D01*
X561500Y197003D02*
Y199917D01*
X553914Y189417D02*
X561500Y197003D01*
X554328Y188417D02*
X562500Y196589D01*
X554743Y187417D02*
X572677Y205352D01*
X555157Y186417D02*
X571142Y202403D01*
X561500Y199917D02*
X563000Y201417D01*
X559000Y195917D02*
Y201417D01*
X566378Y215244D02*
X570865D01*
X571142Y202403D02*
X572485D01*
X572677Y205352D02*
Y208945D01*
X569456Y204373D02*
Y205795D01*
X562500Y197417D02*
X569456Y204373D01*
X562500Y196589D02*
Y197417D01*
X546000Y201917D02*
X556000D01*
X561000Y206917D01*
X575750Y214667D02*
Y215667D01*
X568000Y206917D02*
X575750Y214667D01*
X561000Y206917D02*
X568000D01*
X512000Y222417D02*
X512500Y221917D01*
X548250Y209667D02*
X548500Y209917D01*
X552750Y207667D02*
X556000Y210917D01*
X556323Y205417D02*
X557911Y207006D01*
X554000Y206417D02*
X557500Y209917D01*
X485000Y217917D02*
X494000Y208917D01*
X489836Y211667D02*
X493586Y207917D01*
X488750Y211667D02*
X489836D01*
X489422Y210667D02*
X493172Y206917D01*
X542493Y209667D02*
X548250D01*
X541907Y207667D02*
X552750D01*
X539157Y204917D02*
X541907Y207667D01*
X542071Y206417D02*
X554000D01*
X539571Y203917D02*
X542071Y206417D01*
X539985Y202917D02*
X542485Y205417D01*
X537973Y202917D02*
X539985D01*
X537223Y203667D02*
X537973Y202917D01*
X535359Y203667D02*
X537223D01*
X538388Y203917D02*
X539571D01*
X537638Y204667D02*
X538388Y203917D01*
X534945Y204667D02*
X537638D01*
X534195Y203917D02*
X534945Y204667D01*
X538802Y204917D02*
X539157D01*
X538052Y205667D02*
X538802Y204917D01*
X534531Y205667D02*
X538052D01*
X533781Y204917D02*
X534531Y205667D01*
X533367Y205917D02*
X534117Y206667D01*
X532953Y206917D02*
X533703Y207667D01*
X493172Y206917D02*
X532953D01*
X533288Y208667D02*
X538664D01*
X532538Y207917D02*
X533288Y208667D01*
X493586Y207917D02*
X532538D01*
X532874Y209667D02*
X538250D01*
X532124Y208917D02*
X532874Y209667D01*
X494000Y208917D02*
X532124D01*
X542485Y205417D02*
X556323D01*
X487250Y210667D02*
X489422D01*
X538250Y209667D02*
X542500Y213917D01*
X533703Y207667D02*
X539078D01*
X539493Y206667D02*
X542493Y209667D01*
X534117Y206667D02*
X539493D01*
X539078Y207667D02*
X543328Y211917D01*
X538664Y208667D02*
X542914Y212917D01*
X503000Y211417D02*
X506500Y214917D01*
X560225Y235167D02*
X561750Y236692D01*
X558775Y235167D02*
X560225D01*
X557401Y236541D02*
X558775Y235167D01*
X560639Y234167D02*
X562013Y235541D01*
X550250Y234167D02*
X560639D01*
X548000Y236417D02*
X550250Y234167D01*
X561053Y233167D02*
X562427Y234541D01*
X549836Y233167D02*
X561053D01*
X547586Y235417D02*
X549836Y233167D01*
X561468Y232167D02*
X562842Y233541D01*
X549422Y232167D02*
X561468D01*
X547172Y234417D02*
X549422Y232167D01*
X561882Y231167D02*
X563256Y232541D01*
X549007Y231167D02*
X561882D01*
X546757Y233417D02*
X549007Y231167D01*
X562296Y230167D02*
X563670Y231541D01*
X548593Y230167D02*
X562296D01*
X546343Y232417D02*
X548593Y230167D01*
X562710Y229167D02*
X564084Y230541D01*
X548179Y229167D02*
X562710D01*
X546179Y231167D02*
X548179Y229167D01*
X563124Y228167D02*
X563374Y228417D01*
X547250Y228167D02*
X563124D01*
X561432Y215167D02*
X563225D01*
X563953Y226167D02*
X564314D01*
X564058Y224859D02*
X565500Y223417D01*
X560728Y215871D02*
X561432Y215167D01*
X560728Y215871D02*
X560728D01*
X560750Y220142D02*
X561775Y221167D01*
X560750Y220136D02*
Y220142D01*
X560281Y219667D02*
X560750Y220136D01*
X559947Y226667D02*
X563039D01*
X563789Y227417D01*
X561775Y221167D02*
X566797D01*
X560695Y218667D02*
X561945Y219917D01*
X559639Y217667D02*
X560389Y216917D01*
X560499Y215642D02*
X560728Y215871D01*
X560250Y215642D02*
X560499D01*
X563453Y225667D02*
X563953Y226167D01*
X560361Y225667D02*
X563453D01*
X563867Y224667D02*
X564058Y224859D01*
X560775Y224667D02*
X563867D01*
X560389Y216917D02*
X562500D01*
X560439Y222917D02*
X561500D01*
X557760Y213167D02*
X565305D01*
X557510Y212917D02*
X557760Y213167D01*
X552000Y211917D02*
X553000Y210917D01*
X558189Y220667D02*
X560439Y222917D01*
X556962Y215854D02*
Y215933D01*
X555962Y216269D02*
Y216348D01*
X554962Y216683D02*
Y216762D01*
X553962Y217097D02*
Y217176D01*
X553783Y216917D02*
X553962Y217097D01*
X559225Y216667D02*
X560250Y215642D01*
X556947Y223667D02*
X559947Y226667D01*
X554797Y223667D02*
X556947D01*
X552047Y220917D02*
X554797Y223667D01*
X555211Y222667D02*
X557361D01*
X552461Y219917D02*
X555211Y222667D01*
X555625Y221667D02*
X557775D01*
X552875Y218917D02*
X555625Y221667D01*
X556039Y220667D02*
X558189D01*
X553289Y217917D02*
X556039Y220667D01*
X556454Y219667D02*
X560281D01*
X553962Y217176D02*
X556454Y219667D01*
X556868Y218667D02*
X560695D01*
X554962Y216762D02*
X556868Y218667D01*
X554197Y215917D02*
X554962Y216683D01*
X557282Y217667D02*
X559639D01*
X555962Y216348D02*
X557282Y217667D01*
X554611Y214917D02*
X555962Y216269D01*
X557696Y216667D02*
X559225D01*
X556962Y215933D02*
X557696Y216667D01*
X555025Y213917D02*
X556962Y215854D01*
X542914Y212917D02*
X557510D01*
X543328Y211917D02*
X552000D01*
X542500Y213917D02*
X555025D01*
X506500Y214917D02*
X554611D01*
X557775Y221667D02*
X560775Y224667D01*
X557361Y222667D02*
X560361Y225667D01*
X544500Y220917D02*
X552047D01*
X539257Y221917D02*
X543257Y217917D01*
X512500Y221917D02*
X539257D01*
X537750Y224839D02*
Y225142D01*
X538750Y225253D02*
Y225556D01*
X539750Y225667D02*
X544500Y220917D01*
X539750Y225667D02*
Y225971D01*
X536475Y226417D02*
X537750Y225142D01*
X524000Y226417D02*
X536475D01*
X543257Y217917D02*
X553289D01*
X514000Y216917D02*
X553783D01*
X543672Y218917D02*
X552875D01*
X544086Y219917D02*
X552461D01*
X543500Y224417D02*
X547250Y228167D01*
X513250Y225667D02*
X513500Y225917D01*
X520500Y225417D02*
X523000D01*
X492500Y204917D02*
X533781D01*
X485346Y197763D02*
X492500Y204917D01*
X480250Y197763D02*
X485346D01*
X492914Y203917D02*
X534195D01*
X483000Y192917D02*
Y194003D01*
X492914Y203917D01*
X491500Y205917D02*
X533367D01*
X487000Y201417D02*
X491500Y205917D01*
X561945Y219917D02*
X562500D01*
X509500Y215917D02*
X554197D01*
X508500Y216917D02*
X509500Y215917D01*
X507500Y241417D02*
X512757D01*
X506250Y240167D02*
X507500Y241417D01*
X506250Y235485D02*
Y240167D01*
X504932Y234167D02*
X506250Y235485D01*
X503068Y234167D02*
X504932D01*
X501000Y236235D02*
X503068Y234167D01*
X500250Y233167D02*
X503932D01*
X497500Y235917D02*
X500250Y233167D01*
X528272Y231917D02*
X529522Y230667D01*
X498000Y231917D02*
X528272D01*
X494000Y235917D02*
X498000Y231917D01*
X504182Y232917D02*
X528686D01*
X503932Y233167D02*
X504182Y232917D01*
X520257Y233917D02*
X529101D01*
X512757Y241417D02*
X520257Y233917D01*
X520672Y234917D02*
X529515D01*
X513172Y242417D02*
X520672Y234917D01*
X521086Y235917D02*
X529929D01*
X521500Y236917D02*
X530343D01*
X522000Y237917D02*
X530757D01*
X509000Y250917D02*
X522000Y237917D01*
X523000Y238917D02*
X531172D01*
X510000Y251917D02*
X523000Y238917D01*
X530000Y239917D02*
X531586D01*
X517000Y252917D02*
X530000Y239917D01*
X509586Y247417D02*
X521086Y235917D01*
X508750Y249667D02*
X521500Y236917D01*
X528686Y232917D02*
X529936Y231667D01*
X529101Y233917D02*
X530350Y232667D01*
X529515Y234917D02*
X530765Y233667D01*
X529929Y235917D02*
X531179Y234667D01*
X530343Y236917D02*
X531593Y235667D01*
X530757Y237917D02*
X532007Y236667D01*
X531172Y238917D02*
X532422Y237667D01*
X531586Y239917D02*
X532836Y238667D01*
X504000Y216417D02*
Y218417D01*
X511007Y219910D02*
X514000Y216917D01*
X506000Y222417D02*
X512000D01*
X505493Y219910D02*
X511007D01*
X504000Y218417D02*
X505493Y219910D01*
X464500Y219917D02*
X497500D01*
X504000Y226417D01*
X537750Y224839D02*
X543672Y218917D01*
X538750Y225253D02*
X544086Y219917D01*
X536389Y227917D02*
X538750Y225556D01*
X515500Y227917D02*
X536389D01*
X513500Y225917D02*
X515500Y227917D01*
X536803Y228917D02*
X539750Y225971D01*
X512500Y228917D02*
X536803D01*
X510000Y226417D02*
X512500Y228917D01*
X504000Y226417D02*
X510000D01*
X469000Y227917D02*
X498000D01*
X463500Y233417D02*
X469000Y227917D01*
X498000D02*
X499500Y229417D01*
X502500D02*
X507000D01*
X498500Y225417D02*
X502500Y229417D01*
X462500Y225417D02*
X498500D01*
X450000Y237917D02*
X462500Y225417D01*
X450000Y237917D02*
Y239917D01*
X638172Y313417D02*
X750510D01*
X753814Y319917D02*
X754064Y319667D01*
X709500Y319917D02*
X753814D01*
X749682Y311417D02*
X752182Y308917D01*
X638586Y312417D02*
X750096D01*
X750510Y313417D02*
X753010Y310917D01*
X751339Y315417D02*
X753839Y312917D01*
X639000Y311417D02*
X749682D01*
X632000Y304417D02*
X639000Y311417D01*
X631586Y305417D02*
X638586Y312417D01*
X631172Y306417D02*
X638172Y313417D01*
X630757Y307417D02*
X637757Y314417D01*
X630343Y308417D02*
X637343Y315417D01*
X629929Y309417D02*
X636929Y316417D01*
X629515Y310417D02*
X636515Y317417D01*
X629101Y311417D02*
X636100Y318417D01*
X637757Y314417D02*
X750925D01*
X637343Y315417D02*
X751339D01*
X636929Y316417D02*
X751753D01*
X636515Y317417D02*
X752167D01*
X636100Y318417D02*
X752582D01*
X624243Y311417D02*
X629101D01*
X624657Y310417D02*
X629515D01*
X625071Y309417D02*
X629929D01*
X625485Y308417D02*
X630343D01*
X625900Y307417D02*
X630757D01*
X626314Y306417D02*
X631172D01*
X626728Y305417D02*
X631586D01*
X627142Y304417D02*
X632000D01*
X625503Y299667D02*
X634750Y290420D01*
X625089Y298667D02*
X633750Y290006D01*
X624675Y297667D02*
X632750Y289592D01*
X624260Y296667D02*
X631750Y289178D01*
X623846Y295667D02*
X630750Y288763D01*
X623432Y294667D02*
X629750Y288349D01*
X625917Y300667D02*
X635750Y290834D01*
X626332Y301667D02*
X636750Y291249D01*
X625392Y302667D02*
X627142Y304417D01*
X624978Y303667D02*
X626728Y305417D01*
X624564Y304667D02*
X626314Y306417D01*
X624150Y305667D02*
X625900Y307417D01*
X623735Y306667D02*
X625485Y308417D01*
X623321Y307667D02*
X625071Y309417D01*
X622907Y308667D02*
X624657Y310417D01*
X622493Y309667D02*
X624243Y311417D01*
X622078Y310667D02*
X638828Y327417D01*
X621664Y311667D02*
X639414Y329417D01*
X621250Y312667D02*
X639500Y330917D01*
X620250Y313667D02*
X638500Y331917D01*
X619750Y314667D02*
X639000Y333917D01*
X561618Y294667D02*
X623432D01*
X562447Y296667D02*
X624260D01*
X563275Y298667D02*
X625089D01*
X564518Y301667D02*
X626332D01*
X565346Y303667D02*
X624978D01*
X565760Y304667D02*
X624564D01*
X566175Y305667D02*
X624150D01*
X567003Y307667D02*
X623321D01*
X567417Y308667D02*
X622907D01*
X498500Y333917D02*
X548000D01*
X499000Y331917D02*
X548586D01*
X501000Y330917D02*
X548172D01*
X558422Y320667D01*
X569903Y314667D02*
X619750D01*
X555068Y310667D02*
X556932D01*
X558175Y313667D02*
X566175Y305667D01*
X558422Y320667D02*
X561074D01*
X558836Y321667D02*
X561488D01*
X548586Y331917D02*
X558836Y321667D01*
X559250Y322667D02*
X561903D01*
X553818Y309417D02*
X555068Y310667D01*
X554654Y311667D02*
X557346D01*
X554240Y312667D02*
X557760D01*
X553825Y313667D02*
X558175D01*
X553411Y314667D02*
X558589D01*
X552997Y315667D02*
X559003D01*
X552583Y316667D02*
X559417D01*
X552169Y317667D02*
X559831D01*
X551754Y318667D02*
X560246D01*
X551340Y319667D02*
X560660D01*
X548000Y333917D02*
X559250Y322667D01*
X560660Y319667D02*
X568660Y311667D01*
X561903Y322667D02*
X569903Y314667D01*
X569488Y313667D02*
X620250D01*
X561488Y321667D02*
X569488Y313667D01*
X569074Y312667D02*
X621250D01*
X561074Y320667D02*
X569074Y312667D01*
X568660Y311667D02*
X621664D01*
X568246Y310667D02*
X622078D01*
X560246Y318667D02*
X568246Y310667D01*
X567832Y309667D02*
X622493D01*
X559831Y317667D02*
X567832Y309667D01*
X559003Y315667D02*
X567003Y307667D01*
X566589Y306667D02*
X623735D01*
X558589Y314667D02*
X566589Y306667D01*
X557760Y312667D02*
X565760Y304667D01*
X557346Y311667D02*
X565346Y303667D01*
X564932Y302667D02*
X625392D01*
X556932Y310667D02*
X564932Y302667D01*
X564104Y300667D02*
X625917D01*
X563689Y299667D02*
X625503D01*
X562439Y300917D02*
X563689Y299667D01*
X542000Y300917D02*
X562439D01*
X562025Y299917D02*
X563275Y298667D01*
X541500Y299917D02*
X562025D01*
X562861Y297667D02*
X624675D01*
X561611Y298917D02*
X562861Y297667D01*
X548757Y298917D02*
X561611D01*
X561197Y297917D02*
X562447Y296667D01*
X549172Y297917D02*
X561197D01*
X562033Y295667D02*
X623846D01*
X560782Y296917D02*
X562033Y295667D01*
X549586Y296917D02*
X560782D01*
X560368Y295917D02*
X561618Y294667D01*
X550000Y295917D02*
X560368D01*
X559417Y316667D02*
X567417Y308667D01*
X561354Y303417D02*
X564104Y300667D01*
X543500Y303417D02*
X561354D01*
X557768Y308417D02*
X564518Y301667D01*
X556000Y308417D02*
X557768D01*
X733250Y205764D02*
X734000Y205014D01*
X733250Y205764D02*
Y206178D01*
X734000Y203417D02*
Y205014D01*
X787500Y281417D02*
Y285735D01*
X494000Y239917D02*
X501500Y247417D01*
D29*
X355500Y172917D02*
Y184917D01*
Y172917D02*
X380500Y147917D01*
X405500D01*
X417500Y135917D01*
X470000D01*
X474000Y139917D01*
X533000Y129917D02*
X653500D01*
X474000Y139917D02*
X484000Y129917D01*
X533000D01*
X379600Y158417D02*
X462000D01*
X474000Y146417D01*
D30*
X347500Y335417D02*
G03*
X335000Y322917I0J-12500D01*
G01*
Y137917D02*
G03*
X347500Y125417I12500J0D01*
G01*
X810000Y285417D02*
Y329417D01*
X347500Y335417D02*
X804000D01*
X810000Y329417D01*
X335000Y137917D02*
Y322917D01*
X347500Y125417D02*
X810000D01*
Y135417D02*
X820000Y145417D01*
Y275417D01*
X810000Y285417D02*
X820000Y275417D01*
X810000Y125417D02*
Y135417D01*
D31*
X367789Y139913D02*
D03*
X355978Y158417D02*
D03*
X379600D02*
D03*
D32*
X594000Y135417D02*
D03*
X714000Y325417D02*
D03*
X800000D02*
D03*
X750000Y135417D02*
D03*
X680000D02*
D03*
D33*
X604000D02*
D03*
X614000D02*
D03*
X704000Y325417D02*
D03*
X694000D02*
D03*
X684000D02*
D03*
X674000D02*
D03*
X664000D02*
D03*
X654000D02*
D03*
X644000D02*
D03*
X790000D02*
D03*
X780000D02*
D03*
X770000D02*
D03*
X760000D02*
D03*
X750000D02*
D03*
X740000D02*
D03*
X730000D02*
D03*
X760000Y135417D02*
D03*
X770000D02*
D03*
X780000D02*
D03*
X790000D02*
D03*
X800000D02*
D03*
X690000D02*
D03*
X700000D02*
D03*
X710000D02*
D03*
X720000D02*
D03*
X730000D02*
D03*
D34*
X412000Y279417D02*
D03*
Y271417D02*
D03*
Y263417D02*
D03*
X402000Y275417D02*
D03*
Y267417D02*
D03*
Y259417D02*
D03*
X376000Y236417D02*
D03*
Y274417D02*
D03*
X377500Y131917D02*
D03*
X545500Y325917D02*
D03*
X519500D02*
D03*
D35*
X376000Y220817D02*
D03*
Y290017D02*
D03*
D36*
X351000Y225817D02*
D03*
X341000D02*
D03*
X351000Y285017D02*
D03*
X341000D02*
D03*
D37*
X579811Y136559D02*
D03*
Y154276D02*
D03*
X556189Y136559D02*
D03*
Y154276D02*
D03*
D38*
X502500Y142000D02*
D03*
X510000Y188000D02*
D03*
X355500Y184917D02*
D03*
X512000Y133417D02*
D03*
X493000Y151417D02*
D03*
Y133417D02*
D03*
X512000Y151417D02*
D03*
X464500Y140417D02*
D03*
X435500Y129417D02*
D03*
X474000Y139917D02*
D03*
Y146417D02*
D03*
X515000Y161417D02*
D03*
X543500Y146417D02*
D03*
X531457Y179917D02*
D03*
X597500Y175417D02*
D03*
X571500Y157295D02*
D03*
X653500Y129917D02*
D03*
X787500Y246917D02*
D03*
X735500Y211917D02*
D03*
X684500Y202417D02*
D03*
X707500Y210417D02*
D03*
X790500Y206917D02*
D03*
X691500Y217417D02*
D03*
X789500Y218917D02*
D03*
X757500Y221417D02*
D03*
X762500Y232917D02*
D03*
X711000Y214417D02*
D03*
X708500Y217417D02*
D03*
X736500Y232917D02*
D03*
X720500D02*
D03*
X508500Y291917D02*
D03*
X511000Y286917D02*
D03*
X428000Y165417D02*
D03*
X729500Y218417D02*
D03*
X738500Y181917D02*
D03*
X747500Y203917D02*
D03*
X798000Y161417D02*
D03*
X790496Y162913D02*
D03*
X727000Y308417D02*
D03*
X626000Y134917D02*
D03*
X381500Y204917D02*
D03*
X427000Y209417D02*
D03*
X623500Y173917D02*
D03*
X787500Y281417D02*
D03*
X790500Y300417D02*
D03*
X789000Y291917D02*
D03*
X780500Y312917D02*
D03*
X790500Y285917D02*
D03*
X736000Y254417D02*
D03*
X701803Y230114D02*
D03*
X730000Y205917D02*
D03*
X706000Y267417D02*
D03*
X564500Y190417D02*
D03*
X565000Y184417D02*
D03*
X561000Y186417D02*
D03*
X561500Y182417D02*
D03*
X600500Y162417D02*
D03*
X596000D02*
D03*
X549000Y157417D02*
D03*
X539500Y167417D02*
D03*
X684500Y220417D02*
D03*
X519500Y148917D02*
D03*
X749500Y308417D02*
D03*
X431500Y257417D02*
D03*
X538000Y317417D02*
D03*
X539000Y301917D02*
D03*
X442000Y330917D02*
D03*
X433000Y332417D02*
D03*
X551500Y258917D02*
D03*
X731000Y250417D02*
D03*
X542500Y268417D02*
D03*
X617000Y290917D02*
D03*
X684809Y258226D02*
D03*
X691009D02*
D03*
X685000Y225417D02*
D03*
X698500Y223296D02*
D03*
X479000Y188417D02*
D03*
X483500D02*
D03*
X482500Y193917D02*
D03*
X483500Y184417D02*
D03*
X585000Y290417D02*
D03*
X504500Y258417D02*
D03*
X470500Y172917D02*
D03*
X755000Y146917D02*
D03*
X516500Y249417D02*
D03*
X528000Y249417D02*
D03*
X708244Y153173D02*
D03*
X658000Y283417D02*
D03*
X431750Y282167D02*
D03*
X401000Y190917D02*
D03*
X488043Y174960D02*
D03*
X683500Y229417D02*
D03*
X689500Y231917D02*
D03*
X653709Y206208D02*
D03*
X616000Y285417D02*
D03*
X503000Y211417D02*
D03*
X504000Y236417D02*
D03*
X497500Y235917D02*
D03*
X639500Y189917D02*
D03*
X625000Y191917D02*
D03*
X692354Y243772D02*
D03*
X548000Y256917D02*
D03*
X611500Y291917D02*
D03*
X479500Y237417D02*
D03*
X502000Y242417D02*
D03*
X695504Y227413D02*
D03*
X518000Y262417D02*
D03*
X540500Y286417D02*
D03*
X552000Y307417D02*
D03*
X556000Y308417D02*
D03*
X510500Y301917D02*
D03*
X513500Y305917D02*
D03*
X524000Y297917D02*
D03*
X543500Y303417D02*
D03*
X461000Y164417D02*
D03*
X470000Y212417D02*
D03*
X464500Y192917D02*
D03*
X484500Y209917D02*
D03*
X663000Y293417D02*
D03*
X660000Y207417D02*
D03*
X661500Y306417D02*
D03*
X656000Y304417D02*
D03*
X759500Y272917D02*
D03*
X736000Y276417D02*
D03*
X492000Y183917D02*
D03*
X517500Y271917D02*
D03*
X523000Y282417D02*
D03*
X514000Y283917D02*
D03*
X509500Y296417D02*
D03*
X520000Y301417D02*
D03*
X519000Y293917D02*
D03*
X768250Y187667D02*
D03*
X691000Y165167D02*
D03*
X680535Y167383D02*
D03*
X695500Y162917D02*
D03*
X695000Y167917D02*
D03*
X691000Y170417D02*
D03*
X695000Y172917D02*
D03*
X691000Y175917D02*
D03*
X694000Y178417D02*
D03*
X749500Y160417D02*
D03*
X756500Y160500D02*
D03*
X762209Y163209D02*
D03*
X768500Y159917D02*
D03*
X772500Y161417D02*
D03*
X787496Y159413D02*
D03*
X618500Y188917D02*
D03*
X620500Y169917D02*
D03*
X518500Y156917D02*
D03*
X572500Y173917D02*
D03*
X610500Y160917D02*
D03*
X633500Y142417D02*
D03*
X625709D02*
D03*
X648209Y159417D02*
D03*
X625709Y147917D02*
D03*
X653709Y159417D02*
D03*
X656500Y145709D02*
D03*
X663209Y166917D02*
D03*
X437500Y207917D02*
D03*
X363000Y211417D02*
D03*
X410500Y134417D02*
D03*
X488500Y170417D02*
D03*
X474500Y234417D02*
D03*
X479500Y201417D02*
D03*
X536291D02*
D03*
X669000Y165917D02*
D03*
X480250Y197167D02*
D03*
X726500Y203417D02*
D03*
X724500Y207917D02*
D03*
X721209Y205417D02*
D03*
X717500Y207417D02*
D03*
X519500Y276917D02*
D03*
X521000Y265917D02*
D03*
X524500Y271417D02*
D03*
X513500Y279417D02*
D03*
X452000Y273917D02*
D03*
X486000Y243417D02*
D03*
X439890Y278527D02*
D03*
X486500Y249417D02*
D03*
X435500Y266917D02*
D03*
X467500Y245917D02*
D03*
X463000Y256917D02*
D03*
X452500Y258917D02*
D03*
X462500Y211417D02*
D03*
X472346Y205264D02*
D03*
X489000Y195917D02*
D03*
X526500Y196917D02*
D03*
X488500Y191417D02*
D03*
X497000Y191917D02*
D03*
X497043Y198960D02*
D03*
X793795Y160122D02*
D03*
X778000Y159417D02*
D03*
X781500Y161417D02*
D03*
X639788Y301705D02*
D03*
X634000Y300917D02*
D03*
X722500Y268917D02*
D03*
X702500Y269917D02*
D03*
X725500Y272417D02*
D03*
X724000Y276917D02*
D03*
X692500Y268417D02*
D03*
X699500Y272917D02*
D03*
X695500Y271417D02*
D03*
X689500D02*
D03*
X685500Y268417D02*
D03*
X711500Y208917D02*
D03*
X625000Y205917D02*
D03*
X628500Y206917D02*
D03*
X723500Y246417D02*
D03*
X531000Y191917D02*
D03*
X543500Y258417D02*
D03*
X542000Y254417D02*
D03*
X554500Y270917D02*
D03*
X682500Y279917D02*
D03*
X711500Y277417D02*
D03*
X667500Y221417D02*
D03*
X629000Y221917D02*
D03*
X628500Y236417D02*
D03*
X805000Y201917D02*
D03*
X440791Y172209D02*
D03*
X453000Y181917D02*
D03*
X458500Y167917D02*
D03*
X501500Y246417D02*
D03*
X507000Y244917D02*
D03*
X801500Y304917D02*
D03*
X781500Y187417D02*
D03*
X763500Y311417D02*
D03*
X735000Y219417D02*
D03*
X743500Y203417D02*
D03*
X795000Y309917D02*
D03*
X793000Y288917D02*
D03*
X503500Y216417D02*
D03*
X474000Y174917D02*
D03*
X479500Y157917D02*
D03*
X355500Y201874D02*
D03*
X382500Y188791D02*
D03*
X520000Y164917D02*
D03*
X497500Y166917D02*
D03*
X553000Y194417D02*
D03*
X582000Y171917D02*
D03*
X433500Y311917D02*
D03*
X432000Y286417D02*
D03*
X463543Y247874D02*
D03*
X521000Y244417D02*
D03*
X508421Y280496D02*
D03*
X676500Y171417D02*
D03*
X605000Y175417D02*
D03*
X706500Y144917D02*
D03*
X715055Y204362D02*
D03*
X630500Y217417D02*
D03*
X642291Y206626D02*
D03*
X762299Y159000D02*
D03*
X793500Y139917D02*
D03*
X756000Y181417D02*
D03*
X774500Y187417D02*
D03*
X796945Y185417D02*
D03*
X790646Y186417D02*
D03*
X734000Y272417D02*
D03*
X687000Y291917D02*
D03*
X727000Y303917D02*
D03*
X751709Y222917D02*
D03*
X759500Y250917D02*
D03*
X759000Y277063D02*
D03*
X349500Y297417D02*
D03*
X434000Y174417D02*
D03*
X425000Y179917D02*
D03*
X431000Y177917D02*
D03*
X428500Y185917D02*
D03*
X446500Y190417D02*
D03*
X457500Y212217D02*
D03*
X447500Y217417D02*
D03*
X429000Y215917D02*
D03*
X508000Y310417D02*
D03*
X465000Y330417D02*
D03*
X469000Y328917D02*
D03*
X503000Y313417D02*
D03*
X469012Y320929D02*
D03*
X485000Y331417D02*
D03*
X483941Y326359D02*
D03*
X451500Y312417D02*
D03*
X434000Y240417D02*
D03*
X419000Y297917D02*
D03*
X411000Y315917D02*
D03*
X571000Y198917D02*
D03*
X481000Y213417D02*
D03*
X442957Y225874D02*
D03*
X463500Y233417D02*
D03*
X504000Y226417D02*
D03*
X506000Y222417D02*
D03*
X450000Y239917D02*
D03*
X341000Y297417D02*
D03*
X357000Y213917D02*
D03*
X342000D02*
D03*
X378000Y209917D02*
D03*
X414500Y170917D02*
D03*
X402000Y176417D02*
D03*
X392500Y179417D02*
D03*
X360000Y185417D02*
D03*
X793987Y298430D02*
D03*
X390500Y152417D02*
D03*
X466000Y323417D02*
D03*
D39*
X585300Y212117D02*
D03*
X575844Y212073D02*
D03*
X588300Y205917D02*
D03*
X599500Y201417D02*
D03*
X579050Y209017D02*
D03*
X591400Y208817D02*
D03*
X688000Y199417D02*
D03*
X601481Y196936D02*
D03*
X696500Y201417D02*
D03*
X693500Y204917D02*
D03*
Y200417D02*
D03*
X788000Y277417D02*
D03*
X734000Y203417D02*
D03*
X737182Y203217D02*
D03*
X693500Y183917D02*
D03*
X687500Y204917D02*
D03*
X642500Y253917D02*
D03*
Y248917D02*
D03*
X726000Y250417D02*
D03*
X728500Y254917D02*
D03*
X722000Y259417D02*
D03*
X722500Y264417D02*
D03*
X728500Y262917D02*
D03*
X733000Y260417D02*
D03*
X725000Y266417D02*
D03*
X617500Y254417D02*
D03*
X554000Y244417D02*
D03*
X682000Y269917D02*
D03*
X677500Y276917D02*
D03*
X671500D02*
D03*
X656500Y255417D02*
D03*
X657000Y263917D02*
D03*
Y258417D02*
D03*
X643500Y262417D02*
D03*
X639000Y264917D02*
D03*
X641000Y267917D02*
D03*
X639500Y270417D02*
D03*
X635000Y276917D02*
D03*
X628247Y270117D02*
D03*
X637000Y262417D02*
D03*
X657000Y247917D02*
D03*
X643000Y243417D02*
D03*
X637000Y259417D02*
D03*
X625850Y268417D02*
D03*
X661500Y260417D02*
D03*
X656500Y271417D02*
D03*
Y277417D02*
D03*
X677500Y248417D02*
D03*
X680500D02*
D03*
X680000Y243417D02*
D03*
X671000Y245917D02*
D03*
X664877Y241295D02*
D03*
X663000Y235167D02*
D03*
X629000Y249417D02*
D03*
X624500Y246917D02*
D03*
X633000Y258917D02*
D03*
X607323Y205795D02*
D03*
X558000Y253417D02*
D03*
X564500Y256917D02*
D03*
X569528Y218394D02*
D03*
X562500Y219417D02*
D03*
X730500Y257417D02*
D03*
X710313Y265816D02*
D03*
X591500Y230917D02*
D03*
X618000Y269917D02*
D03*
X548500D02*
D03*
X656500Y274417D02*
D03*
X644500Y272417D02*
D03*
X628671Y276746D02*
D03*
X637500Y244417D02*
D03*
X656500Y268417D02*
D03*
X566000Y270417D02*
D03*
X558500Y271417D02*
D03*
X550709Y244417D02*
D03*
X552000Y235917D02*
D03*
X579500Y220417D02*
D03*
X597874Y208917D02*
D03*
X601024Y208945D02*
D03*
X613622Y215244D02*
D03*
X588776Y209257D02*
D03*
X588626Y212256D02*
D03*
X578900Y205867D02*
D03*
X595500Y226417D02*
D03*
X585276Y224693D02*
D03*
X562000Y266917D02*
D03*
X674500Y248917D02*
D03*
X664500Y261417D02*
D03*
X668500Y262402D02*
D03*
X627500Y273417D02*
D03*
X639500Y279917D02*
D03*
X636500Y280417D02*
D03*
X642000Y281917D02*
D03*
X651650Y290067D02*
D03*
X649175Y287592D02*
D03*
X646500Y285917D02*
D03*
X645000Y283417D02*
D03*
X590000Y224417D02*
D03*
X664500Y238417D02*
D03*
X548500Y209917D02*
D03*
X613500Y201917D02*
D03*
X597874Y205795D02*
D03*
X594700Y212067D02*
D03*
X588425Y227842D02*
D03*
X566378Y218394D02*
D03*
Y215244D02*
D03*
X572500Y202417D02*
D03*
X569500Y205795D02*
D03*
X572677Y208945D02*
D03*
X697500Y181417D02*
D03*
X724500Y257417D02*
D03*
X557911Y207006D02*
D03*
X553000Y210917D02*
D03*
X566378Y212094D02*
D03*
Y208945D02*
D03*
X563000Y201417D02*
D03*
X554000Y262417D02*
D03*
X542000Y241917D02*
D03*
X550500Y267417D02*
D03*
X618000Y217417D02*
D03*
X620000Y215417D02*
D03*
X584500Y229417D02*
D03*
X669000Y227917D02*
D03*
X668500Y224917D02*
D03*
X664500Y229417D02*
D03*
X717500Y267417D02*
D03*
X715500Y270917D02*
D03*
X712500Y267917D02*
D03*
X595500Y229417D02*
D03*
X556500Y246417D02*
D03*
X566378Y253039D02*
D03*
X568000Y257417D02*
D03*
X627000Y228417D02*
D03*
X613622Y221543D02*
D03*
X601024Y212094D02*
D03*
X599000Y222417D02*
D03*
X610500Y224693D02*
D03*
X623000Y226917D02*
D03*
X622000Y290417D02*
D03*
X601500Y231417D02*
D03*
X607346Y234142D02*
D03*
X601900Y235018D02*
D03*
X604062Y208795D02*
D03*
X682000Y238917D02*
D03*
X593000Y240917D02*
D03*
X613600Y224693D02*
D03*
X572677Y237291D02*
D03*
X569500D02*
D03*
X621500Y271417D02*
D03*
X618500Y278917D02*
D03*
X626750Y260617D02*
D03*
X597500Y242917D02*
D03*
X614000Y270917D02*
D03*
X613615Y249917D02*
D03*
X584000Y256917D02*
D03*
X627650Y255955D02*
D03*
X610500Y234142D02*
D03*
X688000Y243917D02*
D03*
X660000Y244917D02*
D03*
X602000Y272417D02*
D03*
X605000Y271417D02*
D03*
X624500Y258917D02*
D03*
X631500Y243417D02*
D03*
X621000Y267417D02*
D03*
X615500Y268417D02*
D03*
X617500Y262417D02*
D03*
X616500Y256917D02*
D03*
X621000Y258917D02*
D03*
X620750Y253228D02*
D03*
X622000Y233417D02*
D03*
X625000Y240917D02*
D03*
X621500Y244917D02*
D03*
X617100Y224917D02*
D03*
X621500Y219917D02*
D03*
X620800Y224117D02*
D03*
X604064Y224545D02*
D03*
X605613Y200805D02*
D03*
X595000Y218417D02*
D03*
X589962Y190634D02*
D03*
X579000Y202417D02*
D03*
X577712Y200134D02*
D03*
X613622Y212094D02*
D03*
X585500Y198917D02*
D03*
X593150Y192917D02*
D03*
X787000Y317917D02*
D03*
X789500Y309417D02*
D03*
X588500Y230917D02*
D03*
X604173Y253039D02*
D03*
X610415Y249817D02*
D03*
X618000Y250417D02*
D03*
X617500Y236617D02*
D03*
X617000Y240417D02*
D03*
X613514Y243439D02*
D03*
X610400Y246676D02*
D03*
X613622Y253039D02*
D03*
X607323Y249890D02*
D03*
X610500Y240441D02*
D03*
X607346D02*
D03*
X597500Y235871D02*
D03*
X600500Y242917D02*
D03*
X607300Y243571D02*
D03*
X604173Y249890D02*
D03*
X562500Y216917D02*
D03*
X558500Y214917D02*
D03*
X559000Y201417D02*
D03*
X562500Y209917D02*
D03*
X557500D02*
D03*
X562197Y204220D02*
D03*
X572670Y246767D02*
D03*
X507000Y286401D02*
D03*
X610500Y202417D02*
D03*
X733000Y148417D02*
D03*
X595000Y242917D02*
D03*
X607346Y224693D02*
D03*
X562000Y237617D02*
D03*
X559500Y236917D02*
D03*
X579000Y246726D02*
D03*
X588425Y253039D02*
D03*
X587000Y242917D02*
D03*
X608500Y269917D02*
D03*
X610000Y258917D02*
D03*
X607500Y257417D02*
D03*
X603000D02*
D03*
X588425Y246740D02*
D03*
Y249890D02*
D03*
X578318Y269735D02*
D03*
X582500Y270417D02*
D03*
X586500Y256917D02*
D03*
X580500Y241417D02*
D03*
X577000Y262917D02*
D03*
X579000Y249890D02*
D03*
X594738Y253039D02*
D03*
X597800Y249817D02*
D03*
X601000Y253039D02*
D03*
Y246740D02*
D03*
X594400Y249609D02*
D03*
X585276Y249890D02*
D03*
X575827Y246740D02*
D03*
X572677Y249890D02*
D03*
X569500Y249883D02*
D03*
X566378Y237291D02*
D03*
X584500Y273417D02*
D03*
X583200Y267417D02*
D03*
X592000Y273417D02*
D03*
X588000Y273917D02*
D03*
X588500Y270417D02*
D03*
X585800Y266429D02*
D03*
X581500Y256917D02*
D03*
X578500D02*
D03*
X579126Y252928D02*
D03*
X585500Y252817D02*
D03*
X582150Y246747D02*
D03*
X585276Y246726D02*
D03*
X584000Y242917D02*
D03*
X583500Y239417D02*
D03*
X572989Y233791D02*
D03*
X536000Y224417D02*
D03*
X569500Y224693D02*
D03*
X572803Y221374D02*
D03*
X566453Y227917D02*
D03*
X561500Y222917D02*
D03*
X543500Y224417D02*
D03*
X546000Y201917D02*
D03*
X576000Y215417D02*
D03*
X507500Y217417D02*
D03*
X543500Y228917D02*
D03*
X513500Y225917D02*
D03*
X520500Y225417D02*
D03*
X499500Y229417D02*
D03*
X494500Y230917D02*
D03*
X507000Y229417D02*
D03*
D40*
X397000Y135417D02*
D03*
X810000Y265417D02*
D03*
Y155417D02*
D03*
X610000Y325417D02*
D03*
X397000D02*
D03*
D57*
X775779Y212653D02*
D03*
X779716D02*
D03*
Y242181D02*
D03*
X775779D02*
D03*
X767906D02*
D03*
X771842D02*
D03*
Y212653D02*
D03*
X767906D02*
D03*
X752157D02*
D03*
X756095D02*
D03*
Y242181D02*
D03*
X752157D02*
D03*
X760032D02*
D03*
X763969D02*
D03*
Y212653D02*
D03*
X760032D02*
D03*
X744283Y242181D02*
D03*
X748220D02*
D03*
Y212653D02*
D03*
X744283D02*
D03*
M02*
