%FSLAX25Y25*%
%MOIN*%
G70*
G01*
G75*
G04 Layer_Color=8421504*
%ADD10C,0.01400*%
%ADD11R,0.11811X0.06299*%
%ADD12R,0.24410X0.22835*%
%ADD13R,0.05118X0.07087*%
%ADD14R,0.03543X0.01969*%
%ADD15O,0.06693X0.01181*%
%ADD16R,0.07087X0.05118*%
%ADD17R,0.04724X0.05512*%
%ADD18R,0.05512X0.04724*%
%ADD19R,0.21654X0.07874*%
%ADD20O,0.02165X0.05906*%
%ADD21O,0.00984X0.06102*%
%ADD22O,0.06102X0.00984*%
%ADD23R,0.02165X0.05709*%
%ADD24R,0.05118X0.05906*%
%ADD25R,0.02756X0.01575*%
%ADD26O,0.08661X0.02362*%
%ADD27C,0.01000*%
%ADD28C,0.00500*%
%ADD29C,0.02000*%
%ADD30C,0.00300*%
%ADD31C,0.07874*%
%ADD32R,0.05906X0.05906*%
%ADD33C,0.05906*%
%ADD34C,0.06000*%
%ADD35C,0.08700*%
%ADD36C,0.07500*%
%ADD37O,0.10000X0.05000*%
%ADD38C,0.03000*%
%ADD39C,0.02000*%
%ADD40C,0.12500*%
%ADD41C,0.04000*%
%ADD42C,0.07400*%
G04:AMPARAMS|DCode=43|XSize=90mil|YSize=90mil|CornerRadius=0mil|HoleSize=0mil|Usage=FLASHONLY|Rotation=0.000|XOffset=0mil|YOffset=0mil|HoleType=Round|Shape=Relief|Width=8mil|Gap=10mil|Entries=4|*
%AMTHD43*
7,0,0,0.09000,0.07000,0.00800,45*
%
%ADD43THD43*%
%ADD44C,0.05943*%
G04:AMPARAMS|DCode=45|XSize=75.433mil|YSize=75.433mil|CornerRadius=0mil|HoleSize=0mil|Usage=FLASHONLY|Rotation=0.000|XOffset=0mil|YOffset=0mil|HoleType=Round|Shape=Relief|Width=8mil|Gap=10mil|Entries=4|*
%AMTHD45*
7,0,0,0.07543,0.05543,0.00800,45*
%
%ADD45THD45*%
%ADD46C,0.07100*%
%ADD47C,0.12400*%
%ADD48C,0.05900*%
%ADD49C,0.08600*%
%ADD50C,0.15200*%
G04:AMPARAMS|DCode=51|XSize=75mil|YSize=75mil|CornerRadius=0mil|HoleSize=0mil|Usage=FLASHONLY|Rotation=0.000|XOffset=0mil|YOffset=0mil|HoleType=Round|Shape=Relief|Width=8mil|Gap=10mil|Entries=4|*
%AMTHD51*
7,0,0,0.07500,0.05500,0.00800,45*
%
%ADD51THD51*%
G04:AMPARAMS|DCode=52|XSize=56mil|YSize=56mil|CornerRadius=0mil|HoleSize=0mil|Usage=FLASHONLY|Rotation=0.000|XOffset=0mil|YOffset=0mil|HoleType=Round|Shape=Relief|Width=8mil|Gap=10mil|Entries=4|*
%AMTHD52*
7,0,0,0.05600,0.03600,0.00800,45*
%
%ADD52THD52*%
%ADD53C,0.04000*%
%ADD54C,0.03400*%
G04:AMPARAMS|DCode=55|XSize=50mil|YSize=50mil|CornerRadius=0mil|HoleSize=0mil|Usage=FLASHONLY|Rotation=0.000|XOffset=0mil|YOffset=0mil|HoleType=Round|Shape=Relief|Width=8mil|Gap=10mil|Entries=4|*
%AMTHD55*
7,0,0,0.05000,0.03000,0.00800,45*
%
%ADD55THD55*%
%ADD56C,0.14900*%
%ADD57R,0.02402X0.09843*%
%ADD58C,0.01969*%
%ADD59C,0.00984*%
%ADD60C,0.02362*%
%ADD61C,0.00394*%
%ADD62C,0.00787*%
D10*
X615197Y254614D02*
D03*
X574252Y242016D02*
D03*
X564803Y254614D02*
D03*
Y251464D02*
D03*
Y248315D02*
D03*
Y245165D02*
D03*
Y242016D02*
D03*
Y238866D02*
D03*
Y235716D02*
D03*
Y232567D02*
D03*
Y229417D02*
D03*
Y226268D02*
D03*
Y223118D02*
D03*
Y219968D02*
D03*
Y216819D02*
D03*
Y213669D02*
D03*
Y210520D02*
D03*
Y207370D02*
D03*
Y204220D02*
D03*
X590000Y254614D02*
D03*
Y251464D02*
D03*
Y248315D02*
D03*
Y245165D02*
D03*
Y232567D02*
D03*
Y229417D02*
D03*
Y226268D02*
D03*
Y213669D02*
D03*
Y210520D02*
D03*
Y207370D02*
D03*
Y204220D02*
D03*
X586850D02*
D03*
Y207370D02*
D03*
Y210520D02*
D03*
Y213669D02*
D03*
Y226268D02*
D03*
Y229417D02*
D03*
Y232567D02*
D03*
Y245165D02*
D03*
Y248315D02*
D03*
Y251464D02*
D03*
Y254614D02*
D03*
X580551D02*
D03*
Y251464D02*
D03*
Y248315D02*
D03*
Y245165D02*
D03*
Y213669D02*
D03*
Y210520D02*
D03*
Y207370D02*
D03*
Y204220D02*
D03*
X583701D02*
D03*
Y207370D02*
D03*
Y210520D02*
D03*
Y213669D02*
D03*
Y245165D02*
D03*
Y248315D02*
D03*
Y251464D02*
D03*
Y254614D02*
D03*
X571102D02*
D03*
Y251464D02*
D03*
Y248315D02*
D03*
Y245165D02*
D03*
Y242016D02*
D03*
Y238866D02*
D03*
Y235716D02*
D03*
Y232567D02*
D03*
Y229417D02*
D03*
Y226268D02*
D03*
Y223118D02*
D03*
Y219968D02*
D03*
Y216819D02*
D03*
Y213669D02*
D03*
Y210520D02*
D03*
Y207370D02*
D03*
Y204220D02*
D03*
X567953D02*
D03*
Y207370D02*
D03*
Y210520D02*
D03*
Y213669D02*
D03*
Y216819D02*
D03*
Y219968D02*
D03*
Y223118D02*
D03*
Y226268D02*
D03*
Y229417D02*
D03*
Y232567D02*
D03*
Y235716D02*
D03*
Y238866D02*
D03*
Y242016D02*
D03*
Y245165D02*
D03*
Y248315D02*
D03*
Y251464D02*
D03*
Y254614D02*
D03*
X574252D02*
D03*
Y251464D02*
D03*
Y248315D02*
D03*
Y245165D02*
D03*
Y238866D02*
D03*
Y235716D02*
D03*
Y232567D02*
D03*
Y229417D02*
D03*
Y226268D02*
D03*
Y223118D02*
D03*
Y219968D02*
D03*
Y216819D02*
D03*
Y213669D02*
D03*
Y210520D02*
D03*
Y207370D02*
D03*
Y204220D02*
D03*
X577402D02*
D03*
Y207370D02*
D03*
Y210520D02*
D03*
Y213669D02*
D03*
Y245165D02*
D03*
Y248315D02*
D03*
Y251464D02*
D03*
Y254614D02*
D03*
X602598D02*
D03*
Y251464D02*
D03*
Y248315D02*
D03*
Y245165D02*
D03*
Y213669D02*
D03*
Y210520D02*
D03*
Y207370D02*
D03*
Y204220D02*
D03*
X599449D02*
D03*
Y207370D02*
D03*
Y210520D02*
D03*
Y213669D02*
D03*
Y245165D02*
D03*
Y248315D02*
D03*
Y251464D02*
D03*
Y254614D02*
D03*
X593150D02*
D03*
Y251464D02*
D03*
Y248315D02*
D03*
Y245165D02*
D03*
Y232567D02*
D03*
Y229417D02*
D03*
Y226268D02*
D03*
Y213669D02*
D03*
Y210520D02*
D03*
Y207370D02*
D03*
Y204220D02*
D03*
X596299D02*
D03*
Y207370D02*
D03*
Y210520D02*
D03*
Y213669D02*
D03*
Y245165D02*
D03*
Y248315D02*
D03*
Y251464D02*
D03*
Y254614D02*
D03*
X608898D02*
D03*
Y251464D02*
D03*
Y248315D02*
D03*
Y245165D02*
D03*
Y242016D02*
D03*
Y238866D02*
D03*
Y235716D02*
D03*
Y232567D02*
D03*
Y229417D02*
D03*
Y226268D02*
D03*
Y223118D02*
D03*
Y219968D02*
D03*
Y216819D02*
D03*
Y213669D02*
D03*
Y210520D02*
D03*
Y207370D02*
D03*
Y204220D02*
D03*
X605748D02*
D03*
Y207370D02*
D03*
Y210520D02*
D03*
Y213669D02*
D03*
Y216819D02*
D03*
Y219968D02*
D03*
Y223118D02*
D03*
Y226268D02*
D03*
Y229417D02*
D03*
Y232567D02*
D03*
Y235716D02*
D03*
Y238866D02*
D03*
Y242016D02*
D03*
Y245165D02*
D03*
Y248315D02*
D03*
Y251464D02*
D03*
Y254614D02*
D03*
X612047D02*
D03*
Y251464D02*
D03*
Y248315D02*
D03*
Y245165D02*
D03*
Y242016D02*
D03*
Y238866D02*
D03*
Y235716D02*
D03*
Y232567D02*
D03*
Y229417D02*
D03*
Y226268D02*
D03*
Y223118D02*
D03*
Y219968D02*
D03*
Y216819D02*
D03*
Y213669D02*
D03*
Y210520D02*
D03*
Y207370D02*
D03*
Y204220D02*
D03*
X615197D02*
D03*
Y207370D02*
D03*
Y210520D02*
D03*
Y213669D02*
D03*
Y216819D02*
D03*
Y219968D02*
D03*
Y223118D02*
D03*
Y226268D02*
D03*
Y229417D02*
D03*
Y232567D02*
D03*
Y235716D02*
D03*
Y238866D02*
D03*
Y242016D02*
D03*
Y245165D02*
D03*
Y248315D02*
D03*
Y251464D02*
D03*
D11*
X474000Y151472D02*
D03*
Y133362D02*
D03*
D12*
X502347Y142417D02*
D03*
D13*
X346291Y133417D02*
D03*
X357709D02*
D03*
X525291Y147417D02*
D03*
X536709D02*
D03*
X607709Y301417D02*
D03*
X596291D02*
D03*
X577709D02*
D03*
X566291D02*
D03*
X629000Y161417D02*
D03*
X640417D02*
D03*
X640000Y171417D02*
D03*
X651417D02*
D03*
X527709Y173417D02*
D03*
X516291D02*
D03*
X536291D02*
D03*
X547709D02*
D03*
X534291Y247417D02*
D03*
X545709D02*
D03*
X647709Y217417D02*
D03*
X636291D02*
D03*
X653709Y199417D02*
D03*
X642291D02*
D03*
X547709Y195417D02*
D03*
X536291D02*
D03*
X415791Y134417D02*
D03*
X427209D02*
D03*
X432291Y165417D02*
D03*
X443709D02*
D03*
X497709Y255417D02*
D03*
X486291D02*
D03*
X664291Y283417D02*
D03*
X675709D02*
D03*
X668291Y293417D02*
D03*
X679709D02*
D03*
X744291Y215417D02*
D03*
X755709D02*
D03*
X461709Y133417D02*
D03*
X450291D02*
D03*
X749709Y145417D02*
D03*
X738291D02*
D03*
X786791D02*
D03*
X798209D02*
D03*
X768791D02*
D03*
X780209D02*
D03*
X388291Y159417D02*
D03*
X399709D02*
D03*
X365791Y183417D02*
D03*
X377209D02*
D03*
D14*
X675150Y232693D02*
D03*
Y242142D02*
D03*
X668850D02*
D03*
Y232693D02*
D03*
Y238992D02*
D03*
Y235842D02*
D03*
X675150Y238992D02*
D03*
Y235842D02*
D03*
X679150Y218693D02*
D03*
Y228142D02*
D03*
X672850D02*
D03*
Y218693D02*
D03*
Y224992D02*
D03*
Y221842D02*
D03*
X679150Y224992D02*
D03*
Y221842D02*
D03*
X638950Y246693D02*
D03*
Y256142D02*
D03*
X632650D02*
D03*
Y246693D02*
D03*
Y252992D02*
D03*
Y249842D02*
D03*
X638950Y252992D02*
D03*
Y249842D02*
D03*
X667150Y266693D02*
D03*
Y276142D02*
D03*
X660850D02*
D03*
Y266693D02*
D03*
Y272992D02*
D03*
Y269842D02*
D03*
X667150Y272992D02*
D03*
Y269842D02*
D03*
X679150Y256693D02*
D03*
Y266142D02*
D03*
X672850D02*
D03*
Y256693D02*
D03*
Y262992D02*
D03*
Y259842D02*
D03*
X679150Y262992D02*
D03*
Y259842D02*
D03*
X667150Y248193D02*
D03*
Y257642D02*
D03*
X660850D02*
D03*
Y248193D02*
D03*
Y254492D02*
D03*
Y251342D02*
D03*
X667150Y254492D02*
D03*
Y251342D02*
D03*
X705150Y290693D02*
D03*
Y300142D02*
D03*
X698850D02*
D03*
Y290693D02*
D03*
Y296992D02*
D03*
Y293842D02*
D03*
X705150Y296992D02*
D03*
Y293842D02*
D03*
X719150Y296693D02*
D03*
Y306142D02*
D03*
X712850D02*
D03*
Y296693D02*
D03*
Y302992D02*
D03*
Y299842D02*
D03*
X719150Y302992D02*
D03*
Y299842D02*
D03*
X528850Y314142D02*
D03*
Y304693D02*
D03*
X535150D02*
D03*
Y314142D02*
D03*
Y307842D02*
D03*
Y310992D02*
D03*
X528850Y307842D02*
D03*
Y310992D02*
D03*
Y266142D02*
D03*
Y256693D02*
D03*
X535150D02*
D03*
Y266142D02*
D03*
Y259842D02*
D03*
Y262992D02*
D03*
X528850Y259842D02*
D03*
Y262992D02*
D03*
Y298142D02*
D03*
Y288693D02*
D03*
X535150D02*
D03*
Y298142D02*
D03*
Y291842D02*
D03*
Y294992D02*
D03*
X528850Y291842D02*
D03*
Y294992D02*
D03*
Y282142D02*
D03*
Y272693D02*
D03*
X535150D02*
D03*
Y282142D02*
D03*
Y275842D02*
D03*
Y278992D02*
D03*
X528850Y275842D02*
D03*
Y278992D02*
D03*
X472850Y250142D02*
D03*
Y240693D02*
D03*
X479150D02*
D03*
Y250142D02*
D03*
Y243842D02*
D03*
Y246992D02*
D03*
X472850Y243842D02*
D03*
Y246992D02*
D03*
X490850Y248142D02*
D03*
Y238693D02*
D03*
X497150D02*
D03*
Y248142D02*
D03*
Y241842D02*
D03*
Y244992D02*
D03*
X490850Y241842D02*
D03*
Y244992D02*
D03*
D15*
X633638Y153354D02*
D03*
Y151386D02*
D03*
Y149417D02*
D03*
Y147449D02*
D03*
Y145480D02*
D03*
X649780Y153354D02*
D03*
Y151386D02*
D03*
Y149417D02*
D03*
Y147449D02*
D03*
Y145480D02*
D03*
X426205Y308055D02*
D03*
Y306087D02*
D03*
Y304118D02*
D03*
Y302149D02*
D03*
Y300181D02*
D03*
Y298212D02*
D03*
Y296244D02*
D03*
Y294275D02*
D03*
Y292307D02*
D03*
Y290338D02*
D03*
Y288370D02*
D03*
Y286401D02*
D03*
Y284433D02*
D03*
Y282464D02*
D03*
Y280496D02*
D03*
Y278527D02*
D03*
Y276559D02*
D03*
Y274590D02*
D03*
Y272622D02*
D03*
Y270653D02*
D03*
Y268685D02*
D03*
Y266716D02*
D03*
Y264748D02*
D03*
Y262779D02*
D03*
X501795Y308055D02*
D03*
Y306087D02*
D03*
Y304118D02*
D03*
Y302149D02*
D03*
Y300181D02*
D03*
Y298212D02*
D03*
Y296244D02*
D03*
Y294275D02*
D03*
Y292307D02*
D03*
Y290338D02*
D03*
Y288370D02*
D03*
Y286401D02*
D03*
Y284433D02*
D03*
Y282464D02*
D03*
Y280496D02*
D03*
Y278527D02*
D03*
Y276559D02*
D03*
Y274590D02*
D03*
Y272622D02*
D03*
Y270653D02*
D03*
Y268685D02*
D03*
Y266716D02*
D03*
Y264748D02*
D03*
Y262779D02*
D03*
X526429Y163768D02*
D03*
Y161799D02*
D03*
Y159831D02*
D03*
Y157862D02*
D03*
Y155894D02*
D03*
X542571Y163768D02*
D03*
Y161799D02*
D03*
Y159831D02*
D03*
Y157862D02*
D03*
Y155894D02*
D03*
D16*
X663209Y157126D02*
D03*
Y145709D02*
D03*
X673209Y157126D02*
D03*
Y145709D02*
D03*
X565500Y174039D02*
D03*
Y162622D02*
D03*
X555500Y174039D02*
D03*
Y162622D02*
D03*
X508000Y159709D02*
D03*
Y171126D02*
D03*
X612000Y189126D02*
D03*
Y177709D02*
D03*
X634000Y237126D02*
D03*
Y225709D02*
D03*
X644000Y237126D02*
D03*
Y225709D02*
D03*
X458000Y325126D02*
D03*
Y313709D02*
D03*
X448000Y329126D02*
D03*
Y317709D02*
D03*
X418000Y327626D02*
D03*
Y316209D02*
D03*
X596000Y157126D02*
D03*
Y145709D02*
D03*
X428000Y327626D02*
D03*
Y316209D02*
D03*
X514000Y243126D02*
D03*
Y231709D02*
D03*
X438000Y257126D02*
D03*
Y245708D02*
D03*
X507000Y331126D02*
D03*
Y319709D02*
D03*
X497000Y330626D02*
D03*
Y319209D02*
D03*
X768000Y305126D02*
D03*
Y293709D02*
D03*
X758000Y307126D02*
D03*
Y295709D02*
D03*
X742300Y311126D02*
D03*
Y299709D02*
D03*
X734000Y311126D02*
D03*
Y299709D02*
D03*
X480000Y229126D02*
D03*
Y217709D02*
D03*
X498500Y184126D02*
D03*
Y172709D02*
D03*
X470000Y229126D02*
D03*
Y217709D02*
D03*
X398000Y208626D02*
D03*
Y197209D02*
D03*
X388000Y208626D02*
D03*
Y197209D02*
D03*
X408500Y189126D02*
D03*
Y177708D02*
D03*
X421500Y209126D02*
D03*
Y197709D02*
D03*
X411500Y209126D02*
D03*
Y197709D02*
D03*
X418500Y189126D02*
D03*
Y177708D02*
D03*
X370000Y209126D02*
D03*
Y197709D02*
D03*
X554000Y231126D02*
D03*
Y219709D02*
D03*
X808000Y191126D02*
D03*
Y179709D02*
D03*
X702000Y163126D02*
D03*
Y151709D02*
D03*
X692000Y157126D02*
D03*
Y145709D02*
D03*
X682000Y157126D02*
D03*
Y145709D02*
D03*
X581000Y193626D02*
D03*
Y182209D02*
D03*
X571000Y193626D02*
D03*
Y182209D02*
D03*
X606709Y155417D02*
D03*
Y144000D02*
D03*
X410000Y297709D02*
D03*
Y309126D02*
D03*
X428000Y251126D02*
D03*
Y239708D02*
D03*
D17*
X539543Y137417D02*
D03*
X532457D02*
D03*
X436457Y233417D02*
D03*
X443543D02*
D03*
X620457Y181417D02*
D03*
X627543D02*
D03*
X525543Y137417D02*
D03*
X518457D02*
D03*
X522957Y231417D02*
D03*
X530043D02*
D03*
X525351Y238417D02*
D03*
X531650D02*
D03*
X347543Y181417D02*
D03*
X340457D02*
D03*
X532000Y185417D02*
D03*
X539087D02*
D03*
X342457Y303417D02*
D03*
X349543D02*
D03*
X441543Y215417D02*
D03*
X434457D02*
D03*
X475850Y319417D02*
D03*
X482150D02*
D03*
X663543Y189417D02*
D03*
X656457D02*
D03*
X661543Y181417D02*
D03*
X654457D02*
D03*
X519543Y199417D02*
D03*
X512457D02*
D03*
Y192417D02*
D03*
X519543D02*
D03*
X452850Y217417D02*
D03*
X459150D02*
D03*
X395150Y185417D02*
D03*
X388850D02*
D03*
X435457Y135417D02*
D03*
X442543D02*
D03*
X466457Y160417D02*
D03*
X473543D02*
D03*
X490457Y161417D02*
D03*
X497543D02*
D03*
X797543Y213417D02*
D03*
X790457D02*
D03*
X752457Y227417D02*
D03*
X759543D02*
D03*
X605543Y170000D02*
D03*
X598457D02*
D03*
X691543Y211417D02*
D03*
X684457D02*
D03*
X574457Y163417D02*
D03*
X581543D02*
D03*
X508457Y183417D02*
D03*
X515543D02*
D03*
D18*
X604000Y188961D02*
D03*
Y181874D02*
D03*
X616709Y158165D02*
D03*
Y165252D02*
D03*
X350000Y208961D02*
D03*
Y201874D02*
D03*
X490000Y224960D02*
D03*
Y217874D02*
D03*
X498000Y224960D02*
D03*
Y217874D02*
D03*
X489000Y322961D02*
D03*
Y315874D02*
D03*
X670000Y171874D02*
D03*
Y178961D02*
D03*
X678000Y177874D02*
D03*
Y184961D02*
D03*
X482000Y174960D02*
D03*
Y167874D02*
D03*
X504000Y198960D02*
D03*
Y191874D02*
D03*
X432000Y194268D02*
D03*
Y200567D02*
D03*
X592000Y176961D02*
D03*
Y169874D02*
D03*
X634000Y206961D02*
D03*
Y199874D02*
D03*
X342000Y208960D02*
D03*
Y201874D02*
D03*
X362000Y204960D02*
D03*
Y197874D02*
D03*
X456500Y254960D02*
D03*
Y247874D02*
D03*
X448500Y253960D02*
D03*
Y246874D02*
D03*
X438000Y316374D02*
D03*
Y323461D02*
D03*
X616709Y144165D02*
D03*
Y151252D02*
D03*
X450000Y234961D02*
D03*
Y227874D02*
D03*
X538000Y235961D02*
D03*
Y228874D02*
D03*
X458000Y225874D02*
D03*
Y232961D02*
D03*
X422000Y170960D02*
D03*
Y163874D02*
D03*
X408000Y170960D02*
D03*
Y163874D02*
D03*
X397500Y174960D02*
D03*
Y167874D02*
D03*
X388000Y174960D02*
D03*
Y167874D02*
D03*
D19*
X563299Y284917D02*
D03*
X600701D02*
D03*
X413299Y149417D02*
D03*
X450701D02*
D03*
D20*
X796945Y197661D02*
D03*
X793795D02*
D03*
X790646D02*
D03*
X787496D02*
D03*
X784346D02*
D03*
X781197D02*
D03*
X778047D02*
D03*
X774898D02*
D03*
X771748D02*
D03*
X768598D02*
D03*
X765449D02*
D03*
X762299D02*
D03*
X759150D02*
D03*
X756000D02*
D03*
X752850D02*
D03*
X749701D02*
D03*
X746551D02*
D03*
X743402D02*
D03*
X740252D02*
D03*
X737102D02*
D03*
X733953D02*
D03*
X730803D02*
D03*
X727654D02*
D03*
X724504D02*
D03*
X721354D02*
D03*
X718205D02*
D03*
X715055D02*
D03*
X796945Y153173D02*
D03*
X793795D02*
D03*
X790646D02*
D03*
X787496D02*
D03*
X784346D02*
D03*
X781197D02*
D03*
X778047D02*
D03*
X774898D02*
D03*
X771748D02*
D03*
X768598D02*
D03*
X765449D02*
D03*
X762299D02*
D03*
X759150D02*
D03*
X756000D02*
D03*
X752850D02*
D03*
X749701D02*
D03*
X746551D02*
D03*
X743402D02*
D03*
X740252D02*
D03*
X737102D02*
D03*
X733953D02*
D03*
X730803D02*
D03*
X727654D02*
D03*
X724504D02*
D03*
X721354D02*
D03*
X718205D02*
D03*
X715055D02*
D03*
X767945Y283661D02*
D03*
X764795D02*
D03*
X761646D02*
D03*
X758496D02*
D03*
X755346D02*
D03*
X752197D02*
D03*
X749047D02*
D03*
X745898D02*
D03*
X742748D02*
D03*
X739598D02*
D03*
X736449D02*
D03*
X733299D02*
D03*
X730150D02*
D03*
X727000D02*
D03*
X723850D02*
D03*
X720701D02*
D03*
X717551D02*
D03*
X714402D02*
D03*
X711252D02*
D03*
X708102D02*
D03*
X704953D02*
D03*
X701803D02*
D03*
X698654D02*
D03*
X695504D02*
D03*
X692354D02*
D03*
X689205D02*
D03*
X686055D02*
D03*
X767945Y239173D02*
D03*
X764795D02*
D03*
X761646D02*
D03*
X758496D02*
D03*
X755346D02*
D03*
X752197D02*
D03*
X749047D02*
D03*
X745898D02*
D03*
X742748D02*
D03*
X739598D02*
D03*
X736449D02*
D03*
X733299D02*
D03*
X730150D02*
D03*
X727000D02*
D03*
X723850D02*
D03*
X720701D02*
D03*
X717551D02*
D03*
X714402D02*
D03*
X711252D02*
D03*
X708102D02*
D03*
X704953D02*
D03*
X701803D02*
D03*
X698654D02*
D03*
X695504D02*
D03*
X692354D02*
D03*
X689205D02*
D03*
X686055D02*
D03*
D21*
X445173Y205264D02*
D03*
X447142D02*
D03*
X449110D02*
D03*
X451079D02*
D03*
X453047D02*
D03*
X455016D02*
D03*
X456984D02*
D03*
X458953D02*
D03*
X460921D02*
D03*
X462890D02*
D03*
X464858D02*
D03*
X466827D02*
D03*
Y173571D02*
D03*
X464858D02*
D03*
X462890D02*
D03*
X460921D02*
D03*
X458953D02*
D03*
X456984D02*
D03*
X455016D02*
D03*
X453047D02*
D03*
X451079D02*
D03*
X449110D02*
D03*
X447142D02*
D03*
X445173D02*
D03*
D22*
X471846Y200244D02*
D03*
Y198275D02*
D03*
Y196307D02*
D03*
Y194338D02*
D03*
Y192370D02*
D03*
Y190401D02*
D03*
Y188433D02*
D03*
Y186464D02*
D03*
Y184496D02*
D03*
Y182527D02*
D03*
Y180559D02*
D03*
Y178590D02*
D03*
X440154D02*
D03*
Y180559D02*
D03*
Y182527D02*
D03*
Y184496D02*
D03*
Y186464D02*
D03*
Y188433D02*
D03*
Y190401D02*
D03*
Y192370D02*
D03*
Y194338D02*
D03*
Y196307D02*
D03*
Y198275D02*
D03*
Y200244D02*
D03*
D23*
X378000Y200543D02*
D03*
Y191291D02*
D03*
D24*
X348260Y191417D02*
D03*
X355740D02*
D03*
X546260Y186000D02*
D03*
X553740D02*
D03*
D25*
X472965Y331477D02*
D03*
Y328918D02*
D03*
Y326359D02*
D03*
X481036D02*
D03*
Y331477D02*
D03*
D26*
X516551Y220917D02*
D03*
Y215917D02*
D03*
Y210917D02*
D03*
Y205917D02*
D03*
X535449Y220917D02*
D03*
Y215917D02*
D03*
Y210917D02*
D03*
Y205917D02*
D03*
D30*
X347500Y335417D02*
G03*
X335000Y322917I0J-12500D01*
G01*
Y137917D02*
G03*
X347500Y125417I12500J0D01*
G01*
X810000Y285417D02*
Y329417D01*
X347500Y335417D02*
X804000D01*
X810000Y329417D01*
X335000Y137917D02*
Y322917D01*
X347500Y125417D02*
X810000D01*
Y135417D02*
X820000Y145417D01*
Y275417D01*
X810000Y285417D02*
X820000Y275417D01*
X810000Y125417D02*
Y135417D01*
M02*
