M48
;Layer_Color=7557959
;FILE_FORMAT=2:5
INCH,LZ
;TYPE=PLATED
T1F00S00C0.01000
T2F00S00C0.01600
T3F00S00C0.03500
T4F00S00C0.03543
T5F00S00C0.05000
T6F00S00C0.06200
T7F00S00C0.12500
T8F00S00C0.12800
;TYPE=NON_PLATED
T9F00S00C0.04700
T10F00S00C0.10000
%
T01
X0733Y0148417
X0788Y0277417
X07895Y0309417
X0733Y0260417
X07305Y0257417
X07285Y0254917
X07245Y0257417
X0722Y0259417
X07225Y0264417
X0725Y0266417
X07285Y0262917
X0726Y0250417
X07175Y0267417
X07155Y0270917
X07125Y0267917
X0710313Y0265816
X0682Y0269917
X06775Y0276917
X06715
X06565Y0277417
Y0274417
Y0271417
Y0268417
X0657Y0263917
Y0258417
X06565Y0255417
X0657Y0247917
X066Y0244917
X0664877Y0241295
X06645Y0238417
X0663Y0235167
X06645Y0229417
X0669Y0227917
X06685Y0224917
X0671Y0245917
X06745Y0248917
X06775Y0248417
X06805
X068Y0243417
X0682Y0238917
X0688Y0243917
X06685Y0262402
X06645Y0261417
X06615Y0260417
X06435Y0262417
X0637
Y0259417
X0633Y0258917
X062675Y0260617
X062765Y0255955
X0629Y0249417
X06315Y0243417
X06375Y0244417
X0643Y0243417
X06425Y0248917
Y0253917
X0639Y0264917
X0641Y0267917
X06395Y0270417
X06445Y0272417
X0645Y0283417
X06465Y0285917
X0649175Y0287592
X065165Y0290067
X0642Y0281917
X06395Y0279917
X06365Y0280417
X0635Y0276917
X0628671Y0276746
X06275Y0273417
X0628247Y0270117
X062585Y0268417
X0625Y0240917
X0627Y0228417
X06875Y0204917
X0688Y0199417
X06935Y0200417
X06965Y0201417
X06935Y0204917
Y0183917
X06975Y0181417
X0734Y0203417
X0737182Y0203217
X06135Y0201917
X06105Y0202417
X0605613Y0200805
X0607323Y0205795
X0604062Y0208795
X0601024Y0208945
Y0212094
X0597874Y0208917
Y0205795
X05995Y0201417
X0601481Y0196936
X059315Y0192917
X0589962Y0190634
X05855Y0198917
X0577712Y0200134
X0579Y0202417
X05789Y0205867
X057905Y0209017
X0575844Y0212073
X0576Y0215417
X05795Y0220417
X0572803Y0221374
X0569528Y0218394
X0566378
Y0215244
Y0212094
Y0208945
X05625Y0209917
X05575
X0557911Y0207006
X0559Y0201417
X0563
X0562197Y020422
X05695Y0205795
X0572677Y0208945
X05725Y0202417
X05883Y0205917
X0588776Y0209257
X05914Y0208817
X0588626Y0212256
X05853Y0212117
X05947Y0212067
X0595Y0218417
X0599Y0222417
X0604064Y0224545
X0607346Y0224693
X06105
X06136
X0613622Y0221543
Y0215244
Y0212094
X0618Y0217417
X062Y0215417
X06215Y0219917
X06208Y0224117
X06171Y0224917
X0623Y0226917
X0622Y0233417
X06175Y0236617
X0617Y0240417
X0613514Y0243439
X06105Y0240441
X0607346
X06073Y0243571
X06104Y0246676
X0610415Y0249817
X0607323Y024989
X0604173
Y0253039
X0601
X0594738
X05944Y0249609
X05978Y0249817
X0601Y024674
X06005Y0242917
X05975
X0595
X0593Y0240917
X0587Y0242917
X0584
X05835Y0239417
X05805Y0241417
X0579Y0246726
Y024989
X0579126Y0252928
X05785Y0256917
X05815
X0584
X05865
X05855Y0252817
X0588425Y0253039
Y024989
Y024674
X0585276Y0246726
X058215Y0246747
X0585276Y024989
X0575827Y024674
X057267Y0246767
X0572677Y024989
X05695Y0249883
X0566378Y0253039
X05645Y0256917
X0568Y0257417
X0558Y0253417
X05565Y0246417
X0554Y0244417
X0550709
X0552Y0235917
X05595Y0236917
X0562Y0237617
X0566378Y0237291
X05695
X0572677
X0572989Y0233791
X0566453Y0227917
X05695Y0224693
X05615Y0222917
X05625Y0219417
Y0216917
X05585Y0214917
X0553Y0210917
X05485Y0209917
X0546Y0201917
X05435Y0224417
Y0228917
X0536Y0224417
X05205Y0225417
X05135Y0225917
X0507Y0229417
X04995
X04945Y0230917
X05075Y0217417
X0542Y0241917
X0554Y0262417
X05505Y0267417
X05485Y0269917
X05585Y0271417
X0562Y0266917
X0566Y0270417
X0578318Y0269735
X05825Y0270417
X05832Y0267417
X05858Y0266429
X05885Y0270417
X0588Y0273917
X05845Y0273417
X0592
X0602Y0272417
X0605Y0271417
X06085Y0269917
X0614Y0270917
X06155Y0268417
X0618Y0269917
X06215Y0271417
X0621Y0267417
X06175Y0262417
X06165Y0256917
X06175Y0254417
X062075Y0253228
X0618Y0250417
X0613615Y0249917
X0613622Y0253039
X061Y0258917
X06075Y0257417
X0603
X0621Y0258917
X06245
Y0246917
X06215Y0244917
X06105Y0234142
X0607346
X06019Y0235018
X06015Y0231417
X05955Y0229417
Y0226417
X059Y0224417
X0585276Y0224693
X05845Y0229417
X0588425Y0227842
X05885Y0230917
X05915
X05975Y0235871
X0577Y0262917
X06185Y0278917
X0622Y0290417
X0507Y0286401
X0787Y0317917
T02
X03905Y0152417
X04105Y0134417
X04355Y0129417
X04645Y0140417
X0474Y0139917
Y0146417
X0493Y0151417
Y0133417
X05025Y0142
X0512Y0133417
Y0151417
X05195Y0148917
X05435Y0146417
X0625709Y0147917
Y0142417
X0626Y0134917
X06335Y0142417
X06565Y0145709
X06535Y0129917
X07065Y0144917
X0708244Y0153173
X0755Y0146917
X07935Y0139917
X0793795Y0160122
X0798Y0161417
X0790496Y0162913
X0787496Y0159413
X07815Y0161417
Y0187417
X0790646Y0186417
X0796945Y0185417
X0805Y0201917
X07905Y0206917
X07895Y0218917
X07875Y0246917
Y0281417
X07905Y0285917
X0793Y0288917
X0789Y0291917
X07905Y0300417
X0793987Y029843
X0795Y0309917
X08015Y0304917
X07635Y0311417
X07495Y0308417
X0727
Y0303917
X0724Y0276917
X07255Y0272417
X07225Y0268917
X0734Y0272417
X0736Y0276417
Y0254417
X0731Y0250417
X07235Y0246417
X07205Y0232917
X07365
X0735Y0219417
X07295Y0218417
X07355Y0211917
X073Y0205917
X07265Y0203417
X07245Y0207917
X0721209Y0205417
X07175Y0207417
X0715055Y0204362
X07115Y0208917
X07075Y0210417
X0711Y0214417
X07085Y0217417
X06985Y0223296
X0695504Y0227413
X0701803Y0230114
X06895Y0231917
X06835Y0229417
X0685Y0225417
X06845Y0220417
X06915Y0217417
X06845Y0202417
X066Y0207417
X0653709Y0206208
X0642291Y0206626
X06285Y0206917
X0625Y0205917
Y0191917
X06395Y0189917
X06305Y0217417
X0629Y0221917
X06285Y0236417
X06675Y0221417
X0692354Y0243772
X0691009Y0258226
X0684809
X06855Y0268417
X06925
X06955Y0271417
X06995Y0272917
X07025Y0269917
X0706Y0267417
X07115Y0277417
X06895Y0271417
X06825Y0279917
X0687Y0291917
X0663Y0293417
X06615Y0306417
X0656Y0304417
X0639788Y0301705
X0634Y0300917
X0658Y0283417
X0759Y0277063
X07595Y0272917
Y0250917
X07625Y0232917
X07575Y0221417
X0751709Y0222917
X07475Y0203917
X07435Y0203417
X07385Y0181917
X0756Y0181417
X076825Y0187667
X07745Y0187417
X07725Y0161417
X07685Y0159917
X0762299Y0159
X0762209Y0163209
X07565Y01605
X07495Y0160417
X0778Y0159417
X06955Y0162917
X0695Y0167917
Y0172917
X0691Y0170417
Y0165167
Y0175917
X0694Y0178417
X0680535Y0167383
X06765Y0171417
X0669Y0165917
X0663209Y0166917
X0653709Y0159417
X0648209
X06205Y0169917
X06235Y0173917
X06185Y0188917
X0605Y0175417
X05975
X0596Y0162417
X06005
X06105Y0160917
X0582Y0171917
X05725Y0173917
X05715Y0157295
X0549Y0157417
X05395Y0167417
X0531457Y0179917
X0531Y0191917
X05265Y0196917
X0536291Y0201417
X0553Y0194417
X05645Y0190417
X0565Y0184417
X05615Y0182417
X0561Y0186417
X0571Y0198917
X051Y0188
X0497Y0191917
X0497043Y019896
X0489Y0195917
X04885Y0191417
X04835Y0188417
Y0184417
X0479Y0188417
X04825Y0193917
X048025Y0197167
X04795Y0201417
X0472346Y0205264
X047Y0212417
X0481Y0213417
X04845Y0209917
X0503Y0211417
X05035Y0216417
X0506Y0222417
X0504Y0226417
Y0236417
X04975Y0235917
X0502Y0242417
X05015Y0246417
X0507Y0244917
X05165Y0249417
X0521Y0244417
X0528Y0249417
X0542Y0254417
X05435Y0258417
X0548Y0256917
X05515Y0258917
X05545Y0270917
X05425Y0268417
X05405Y0286417
X0539Y0301917
X05435Y0303417
X0552Y0307417
X0556Y0308417
X0524Y0297917
X052Y0301417
X0519Y0293917
X05095Y0296417
X05085Y0291917
X0511Y0286917
X0514Y0283917
X05135Y0279417
X0508421Y0280496
X05195Y0276917
X05175Y0271917
X05245Y0271417
X0521Y0265917
X0518Y0262417
X05045Y0258417
X04865Y0249417
X0486Y0243417
X04795Y0237417
X04745Y0234417
X0474Y0174917
X04705Y0172917
X0488043Y017496
X04885Y0170417
X04975Y0166917
X0492Y0183917
X04795Y0157917
X0515Y0161417
X05185Y0156917
X052Y0164917
X0523Y0282417
X05105Y0301917
X05135Y0305917
X0508Y0310417
X0585Y0290417
X06115Y0291917
X0617Y0290917
X0616Y0285417
X0452Y0273917
X04525Y0258917
X0463Y0256917
X0463543Y0247874
X04675Y0245917
X04635Y0233417
X045Y0239917
X0434Y0240417
X04315Y0257417
X04355Y0266917
X043989Y0278527
X043175Y0282167
X0432Y0286417
X0419Y0297917
X04335Y0311917
X04515Y0312417
X0442957Y0225874
X04475Y0217417
X04575Y0212217
X04625Y0211417
X04645Y0192917
X04465Y0190417
X0453Y0181917
X04585Y0167917
X0461Y0164417
X0440791Y0172209
X0434Y0174417
X0431Y0177917
X0425Y0179917
X04285Y0185917
X0428Y0165417
X04145Y0170917
X0402Y0176417
X03925Y0179417
X03825Y0188791
X03815Y0204917
X0378Y0209917
X0363Y0211417
X0357Y0213917
X03555Y0201874
Y0184917
X036Y0185417
X0401Y0190917
X0427Y0209417
X0429Y0215917
X04375Y0207917
X0342Y0213917
X0341Y0297417
X03495
X0411Y0315917
X0433Y0332417
X0442Y0330917
X0465Y0330417
X0466Y0323417
X0469012Y0320929
X0469Y0328917
X0483941Y0326359
X0485Y0331417
X0503Y0313417
X0538Y0317417
X07805Y0312917
T03
X03775Y0131917
X0556189Y0136559
Y0154276
X0579811
Y0136559
X0412Y0263417
Y0271417
Y0279417
X0402Y0275417
Y0267417
Y0259417
X05195Y0325917
X05455
T04
X0594Y0135417
X0604
X0614
X068
X069
X07
X071
X072
X073
X075
X076
X077
X078
X079
X08
X078Y0325417
X077
X076
X075
X074
X073
X0714
X0704
X0694
X0684
X0674
X0664
X0654
X0644
X079
X08
T05
X0367789Y0139913
X03796Y0158417
X0355978
X0351Y0225817
X0341
Y0285017
X0351
T06
X0376Y0220817
Y0290017
T07
X0397Y0135417
X081Y0155417
Y0265417
X0397Y0325417
X061
T08
X0376Y0236417
Y0274417
T09
X0744283Y0227417
X0779716
T10
X0795937Y0227417
X0728063
M30
