M48
;Layer_Color=7557959
;FILE_FORMAT=2:5
INCH,LZ
;TYPE=PLATED
T1F00S00C0.01000
T2F00S00C0.01600
T3F00S00C0.03500
T4F00S00C0.03543
T5F00S00C0.04000
T6F00S00C0.05000
T7F00S00C0.06200
T8F00S00C0.12500
T9F00S00C0.12800
;TYPE=NON_PLATED
T10F00S00C0.04700
T11F00S00C0.10000
%
T01
X06645Y0147
X07855Y02225
X0788Y02205
X0791
X0801Y0216
X0788Y0277417
X07895Y0309417
X0733Y0260417
X07305Y0257417
X07285Y0254917
X07245Y0257417
X0722Y0259417
X07225Y0264417
X0725Y0266417
X07285Y0262917
X0726Y0250417
X07235Y0246417
X072Y02485
X072025Y023325
X07195Y0228
X0718567Y0214067
X07155Y02142
X0711Y0214417
X07075Y02125
X0707Y02095
X07145Y0204
X0721925Y0214575
X07255Y02145
X07285
X07315
X0735
X0738Y0215
X0741Y02165
X06935Y0204917
Y0200417
X06965Y0201417
X06805Y02055
X06685Y0224917
X0669Y0227917
X0663Y0235167
X06645Y0238417
X0664877Y0241295
X066Y0244917
X0657Y02475
Y0255
Y0258417
Y0263917
X06565Y0268417
Y0271417
Y0274417
Y0277417
X06715Y0276917
X06775
X0682Y0269917
X06685Y0262402
X06645Y0261417
X06615Y0260417
X06455Y0264
X0639Y0264917
X0637Y0262417
Y0259417
X0633Y0258917
X062675Y0260617
X062765Y0255955
X0629Y0249417
X06315Y0243417
X06375Y0244417
X06425Y0247
Y02515
X0643Y02415
X0625Y0240917
X0627Y0228417
X062675Y018875
X06935Y0183917
X06975Y01795
Y01765
X06985Y01735
X0688Y0243917
X068Y0243417
X06805Y0248417
X06775
X06745Y0248917
X0671Y0245917
X0682Y0238917
X0710313Y0265816
X07125Y0267917
X07175Y0267417
X07155Y0270917
X06445Y0272417
X06395Y0270417
X0641Y0267917
X0628247Y0270117
X06275Y0273417
X0628671Y0276746
X06335Y02805
X0636Y0282
X0639
Y0286
X06445Y02885
X0649Y0293
X0637Y0296
X063Y02965
X062585Y0268417
X0621Y0267417
X06215Y0271417
X0618Y0269917
X06155Y0268417
X0614Y0270917
X06085Y0269917
X0605Y0271417
X0602Y0272417
X0592Y0273417
X0588Y0273917
X05885Y0270417
X05825
X05832Y0267417
X05858Y0266429
X05845Y0273417
X0578318Y0269735
X0577Y0262917
X05785Y0256917
X05815
X0584
X05865
X05855Y0252817
X0588425Y0253039
Y024989
X0585276
Y0246726
X058215Y0246747
X0579Y0246726
Y024989
X0579126Y0252928
X0572677Y024989
X057267Y0246767
X0575827Y024674
X05695Y0249883
X0566378Y0253039
X05645Y0256917
X0568Y0257417
X0557Y02545
X05565Y0246417
X0554Y0244417
X0550709
X0552Y0235917
X0558281Y0237219
X0561Y02365
X056125Y023375
X05595Y02295
X05597Y0223
X0563
X05625Y0219417
Y0216917
X05664Y02184
X05695
X056655Y02151
X0566378Y0208945
X056955Y020895
X0572677Y0208945
X05725Y02119
Y0202417
X0575Y0202
X0579Y0202417
X0577712Y0200134
X05855Y0198917
X0585Y0206
X0588288Y020597
X0588626Y0212256
X0589Y0216
X059315Y0216819
X05947Y0212067
X0597874Y0208917
Y0205795
X0601024Y0208945
Y0212094
X0604062Y0208795
X06044Y0206
X0605613Y0200805
X06Y02015
X0601Y01985
X06035Y01965
X05965Y01995
X0592Y02015
X06105Y0202417
X06135Y01995
X06215Y0195
X06245Y0193
X0617Y0189
X05985Y0186
X05975Y01785
X0601Y01775
X0599Y0222417
X0604064Y0224545
X0607346Y0224693
Y0234142
X06105
Y0240441
X0607346
X06073Y0243571
X06104Y0246676
X0610415Y0249817
X0607323Y024989
X0604173
Y0253039
X0601
X0594738
X05944Y0249609
X05978Y0249817
X0601Y024674
X06005Y0242917
X05975
X0595
X0593Y0240917
X0587Y0242917
X0584
X05835Y0239417
X05805Y0241417
X05777Y02364
X05795Y0234
X05815Y0232
X058Y02295
X0585Y02285
X0585276Y0224693
X059Y0224417
X0588425Y0227842
X05885Y0230917
X05915
X05955Y0229417
Y0226417
X06015Y0231417
X06019Y0235018
X05975Y0235871
X0588425Y024674
X05727Y02373
X05695Y0236917
X057265Y022785
X05695Y0224693
X0572806Y0221376
X0577Y022
X05845
X05585Y0214917
X0555Y0214073
X0553Y0210917
X055Y02105
X0556Y0208
X0558349Y0209849
X05615Y021052
X0563Y0204
Y0201417
X0559Y0203
X0546Y0201917
X0542Y02245
X05425Y02275
X05355Y0223917
X05205Y0225417
X05135Y0225917
X05025Y0219
X05045Y0214
X04965Y0213
X0496035Y0229382
X04895Y023
X0488Y0263
X04845Y0272
X0491Y0279
X04885Y02845
X0489Y0289
X0508925Y0248075
X0541Y02425
X0554Y0262417
X05505Y0267417
X05485Y0269917
X05585Y0271417
X0562Y0266917
X0566Y0270417
X0603Y0257417
X06075
X061Y0258917
X06165Y0256917
X06175Y0254417
X062075Y0253228
X0618Y0250417
X0613615Y0249917
X0613622Y0253039
X0613514Y0243439
X0617Y0240417
X06175Y0236617
X0622Y0233417
X0623Y0226917
Y02175
X062Y0215417
X06215Y0244917
X06245Y0246917
Y0258917
X0621
X06175Y0262417
T02
X03905Y0152417
X04105Y0134417
X04355Y0129417
X04645Y0140417
X0474Y0139917
Y0146417
X0493Y0151417
Y0133417
X05025Y0142
X0512Y0133417
Y0151417
X05195Y0148917
X05435Y0146417
X05285Y013
X0597Y0148
X06545Y0129917
X0732493Y0147924
X0755Y0146917
X07885Y0156
X07935Y0139917
X07995Y0165
X07925Y01705
X078575Y016925
X0790646Y0186417
X0796945Y0185417
X0814Y0196
X08095Y02165
X07875Y0246917
Y0281417
X07905Y0285917
X0793Y0288917
X0789Y0291917
X07905Y0300417
X0793987Y029843
X0795Y0309917
X08Y0305
X08015Y02895
X0759Y0277063
X07595Y0272917
Y0250917
X07585Y02325
X07625Y0232917
X0742748Y0233165
X07365Y0232917
X0736Y0254417
X0731Y0250417
X0734Y0272417
X0736Y0276417
X0724Y0276917
X07255Y0272417
X07225Y0268917
X0706Y0267417
X07025Y0269917
X06995Y0272917
X06955Y0271417
X06895
X06925Y0268417
X06855
X0684809Y0258226
X0691009
X0692354Y0243772
X06895Y0231917
X06835Y0229417
X0685Y0225417
X06845Y0220417
X06985Y0223296
X0695504Y0227413
X0701803Y0230114
X07085Y0217417
X06875Y0204917
X0689Y0199
X0674Y01905
X06765Y0171417
Y0167
X0680535Y0167383
X0691Y0165167
Y0170417
X0690752Y0174748
X0695Y0167917
X06985Y0166
X06945Y0162917
X07125Y01705
X074725Y017025
X0752Y01715
X0757018Y0171482
X07655Y017
X077Y0171
X0767717Y0177783
X07635Y01785
X0760299Y0159
X07385Y0181917
X0754Y0202
X07585Y02035
X0769748Y0202
X0779197Y02035
X06635
X066Y0207417
X0652429Y0209988
X0642Y021
X06285Y0206917
X06265Y02015
X06305Y0217417
X0629Y0221917
X06285Y0236417
X0663Y02295
X06675Y0221417
X06505Y019
X06295Y0174
X0625
X06295Y0163
X0636457Y01634
X0634Y0300917
X0639788Y0301705
X0656Y0304417
X06615Y0306417
X0658Y02935
X0653575Y0294
X0666Y02935
X0661709Y02835
X06825Y0279917
X0687Y0291917
X07115Y0277417
X0727Y0303917
Y0308417
X07495
X07635Y0311417
X06115Y0291917
X0585Y0290417
X05405Y0286417
X05235Y0289
X0523Y0282417
X05185Y02845
X0515Y0288
X0519Y0293917
X0516Y0297
X0524Y0297917
X0514Y03075
X05195Y0276917
X05175Y0271917
X05155Y0267
X0521Y0265917
X0518Y0262417
X05165Y0249417
X052Y0246
X0528Y0249417
X0542Y0254417
X05435Y0258417
X0548Y0256917
X05515Y0258917
X05545Y0270917
X05425Y0268417
X05245Y0271417
X0488Y02675
X04875Y0276
X04745Y0234417
X047Y0212417
X0472346Y0205264
X04815Y0207
X04845Y0209917
X0481Y0213417
X04795Y0201417
X048025Y0197167
X04825Y0193917
X04835Y0188417
Y0184417
X0479Y0188417
X04885Y0191417
X049075Y020075
X05025Y0197075
X0506Y0203
X05Y0211417
X0504Y0226417
X051Y0187874
X0531Y0191917
X0531457Y0179917
X05395Y0167417
X0549Y0157417
X05715Y0157295
X05725Y0173917
X0582Y0171917
X0598Y01735
X0605Y0175417
X06045Y0165417
X06205Y0173917
X0622Y02115
X0571Y0198917
X05645Y0190417
X0565Y0184417
X05615Y0182417
X0561Y0186417
X0553Y0194417
X0536291Y0201417
X052Y0164917
X0515Y0161417
X05185Y0156917
X04975Y0166917
X0492Y0178
X0488Y01755
X0474Y0174917
X04705Y0172917
X04795Y0157917
X0461Y0164417
X04585Y0167917
X0453Y0181917
X04465Y0190417
X04645Y0192917
X04625Y0211417
X04575Y0212217
X04475Y0217417
X0442957Y0225874
X04335Y0228917
X0429Y0215917
X0427Y0209417
X04375Y0207917
X04285Y0185917
X0425Y0179917
X0431Y0177917
X0434Y0174417
X0440791Y0172209
X0428Y0165417
X04145Y0170917
X0402Y0176417
X03925Y0179417
X03825Y0188791
X03815Y0204917
X0378Y0209917
X0363Y0211417
X0357Y0213917
X03555Y0201874
Y0184917
X036Y0185417
X0342Y0213917
X0401Y0190917
X0431Y0245917
X04345Y0262
X04425Y0258
X045Y02365
X04425Y0287
X0428Y0279917
X0432Y0306917
X045Y0307417
X04095Y0310917
X03495Y0297417
X0341
X04315Y0327417
X04405Y0325917
X04635Y0325417
X04675Y0323917
X0467512Y0315929
X04645Y0318417
X0482441Y0321359
X04835Y0326417
X07805Y0312917
T03
X03775Y0131917
X0556189Y0136559
Y0154276
X0579811
Y0136559
X0412Y0263417
Y0271417
Y0279417
X0402Y0275417
Y0267417
Y0259417
X05195Y0325917
X05455
T04
X0594Y0135417
X0604
X0614
X0624
X062Y0155417
X063
X064
X065
X066
X067
X068
X069
X0705
X0715
X0725
X0735
X0745
X0755
X0765
X0775
X078Y0135417
X077
X076
X075
X073
X072
X071
X07
X069
X068
X079
X08
X062Y0345417
X063
X064
X065
X066
X067
X069
X07
X071
X072
X073
X074
Y0325417
X075
X076
X077
X078
X073
X0714
X0704
X0694
X0684
X0674
X0664
X0654
X0644
X079
X08
T05
X06425Y0255417
T06
X0367789Y0139913
X03796Y0158417
X0355978
X0351Y0225817
X0341
Y0285017
X0351
T07
X0376Y0220817
Y0290017
T08
X0397Y0135417
X081Y0155417
Y0265417
X0397Y0325417
X061
T09
X0376Y0236417
Y0274417
T10
X0744283Y0227417
X0779716
T11
X0795937Y0227417
X0728063
M30
