%FSLAX25Y25*%
%MOIN*%
G70*
G01*
G75*
G04 Layer_Color=8421504*
%ADD10R,0.03543X0.01969*%
%ADD11O,0.06693X0.01181*%
%ADD12R,0.07087X0.05118*%
%ADD13R,0.05512X0.04724*%
%ADD14C,0.01400*%
%ADD15R,0.04724X0.05512*%
%ADD16R,0.05118X0.07087*%
%ADD17R,0.21654X0.07874*%
%ADD18O,0.02165X0.05906*%
%ADD19O,0.00984X0.06102*%
%ADD20O,0.06102X0.00984*%
%ADD21R,0.02165X0.05709*%
%ADD22R,0.05118X0.05906*%
%ADD23R,0.02756X0.01575*%
%ADD24C,0.01000*%
%ADD25C,0.00500*%
%ADD26C,0.02000*%
%ADD27C,0.00300*%
%ADD28C,0.07874*%
%ADD29O,0.10000X0.05000*%
%ADD30R,0.05906X0.05906*%
%ADD31C,0.05906*%
%ADD32C,0.06000*%
%ADD33C,0.08700*%
%ADD34C,0.07500*%
%ADD35C,0.03000*%
%ADD36C,0.02000*%
%ADD37C,0.12500*%
%ADD38C,0.04000*%
%ADD39C,0.07400*%
G04:AMPARAMS|DCode=40|XSize=90mil|YSize=90mil|CornerRadius=0mil|HoleSize=0mil|Usage=FLASHONLY|Rotation=0.000|XOffset=0mil|YOffset=0mil|HoleType=Round|Shape=Relief|Width=8mil|Gap=10mil|Entries=4|*
%AMTHD40*
7,0,0,0.09000,0.07000,0.00800,45*
%
%ADD40THD40*%
%ADD41C,0.05900*%
G04:AMPARAMS|DCode=42|XSize=75mil|YSize=75mil|CornerRadius=0mil|HoleSize=0mil|Usage=FLASHONLY|Rotation=0.000|XOffset=0mil|YOffset=0mil|HoleType=Round|Shape=Relief|Width=8mil|Gap=10mil|Entries=4|*
%AMTHD42*
7,0,0,0.07500,0.05500,0.00800,45*
%
%ADD42THD42*%
%ADD43C,0.05943*%
G04:AMPARAMS|DCode=44|XSize=75.433mil|YSize=75.433mil|CornerRadius=0mil|HoleSize=0mil|Usage=FLASHONLY|Rotation=0.000|XOffset=0mil|YOffset=0mil|HoleType=Round|Shape=Relief|Width=8mil|Gap=10mil|Entries=4|*
%AMTHD44*
7,0,0,0.07543,0.05543,0.00800,45*
%
%ADD44THD44*%
%ADD45C,0.08600*%
%ADD46C,0.15200*%
%ADD47C,0.04000*%
%ADD48C,0.03400*%
G04:AMPARAMS|DCode=49|XSize=56mil|YSize=56mil|CornerRadius=0mil|HoleSize=0mil|Usage=FLASHONLY|Rotation=0.000|XOffset=0mil|YOffset=0mil|HoleType=Round|Shape=Relief|Width=8mil|Gap=10mil|Entries=4|*
%AMTHD49*
7,0,0,0.05600,0.03600,0.00800,45*
%
%ADD49THD49*%
%ADD50C,0.14900*%
G04:AMPARAMS|DCode=51|XSize=50mil|YSize=50mil|CornerRadius=0mil|HoleSize=0mil|Usage=FLASHONLY|Rotation=0.000|XOffset=0mil|YOffset=0mil|HoleType=Round|Shape=Relief|Width=8mil|Gap=10mil|Entries=4|*
%AMTHD51*
7,0,0,0.05000,0.03000,0.00800,45*
%
%ADD51THD51*%
%ADD52R,0.18000X0.05000*%
%ADD53C,0.00984*%
%ADD54C,0.01969*%
%ADD55C,0.02362*%
%ADD56C,0.00787*%
%ADD57C,0.00394*%
D10*
X284850Y202724D02*
D03*
Y193276D02*
D03*
X291150D02*
D03*
Y202724D02*
D03*
Y196425D02*
D03*
Y199575D02*
D03*
X284850Y196425D02*
D03*
Y199575D02*
D03*
X280850Y216724D02*
D03*
Y207276D02*
D03*
X287150D02*
D03*
Y216724D02*
D03*
Y210425D02*
D03*
Y213575D02*
D03*
X280850Y210425D02*
D03*
Y213575D02*
D03*
X321050Y188724D02*
D03*
Y179276D02*
D03*
X327350D02*
D03*
Y188724D02*
D03*
Y182425D02*
D03*
Y185575D02*
D03*
X321050Y182425D02*
D03*
Y185575D02*
D03*
X292850Y168724D02*
D03*
Y159276D02*
D03*
X299150D02*
D03*
Y168724D02*
D03*
Y162425D02*
D03*
Y165575D02*
D03*
X292850Y162425D02*
D03*
Y165575D02*
D03*
X280850Y178724D02*
D03*
Y169276D02*
D03*
X287150D02*
D03*
Y178724D02*
D03*
Y172425D02*
D03*
Y175575D02*
D03*
X280850Y172425D02*
D03*
Y175575D02*
D03*
X292850Y187224D02*
D03*
Y177776D02*
D03*
X299150D02*
D03*
Y187224D02*
D03*
Y180925D02*
D03*
Y184075D02*
D03*
X292850Y180925D02*
D03*
Y184075D02*
D03*
X254850Y144724D02*
D03*
Y135276D02*
D03*
X261150D02*
D03*
Y144724D02*
D03*
Y138425D02*
D03*
Y141575D02*
D03*
X254850Y138425D02*
D03*
Y141575D02*
D03*
X240850Y138724D02*
D03*
Y129276D02*
D03*
X247150D02*
D03*
Y138724D02*
D03*
Y132425D02*
D03*
Y135575D02*
D03*
X240850Y132425D02*
D03*
Y135575D02*
D03*
X431150Y121276D02*
D03*
Y130724D02*
D03*
X424850D02*
D03*
Y121276D02*
D03*
Y127575D02*
D03*
Y124425D02*
D03*
X431150Y127575D02*
D03*
Y124425D02*
D03*
Y169276D02*
D03*
Y178724D02*
D03*
X424850D02*
D03*
Y169276D02*
D03*
Y175575D02*
D03*
Y172425D02*
D03*
X431150Y175575D02*
D03*
Y172425D02*
D03*
Y137276D02*
D03*
Y146724D02*
D03*
X424850D02*
D03*
Y137276D02*
D03*
Y143575D02*
D03*
Y140425D02*
D03*
X431150Y143575D02*
D03*
Y140425D02*
D03*
Y153276D02*
D03*
Y162724D02*
D03*
X424850D02*
D03*
Y153276D02*
D03*
Y159575D02*
D03*
Y156425D02*
D03*
X431150Y159575D02*
D03*
Y156425D02*
D03*
X487150Y185276D02*
D03*
Y194724D02*
D03*
X480850D02*
D03*
Y185276D02*
D03*
Y191575D02*
D03*
Y188425D02*
D03*
X487150Y191575D02*
D03*
Y188425D02*
D03*
X469150Y185276D02*
D03*
Y194724D02*
D03*
X462850D02*
D03*
Y185276D02*
D03*
Y191575D02*
D03*
Y188425D02*
D03*
X469150Y191575D02*
D03*
Y188425D02*
D03*
D11*
X326362Y282063D02*
D03*
Y284031D02*
D03*
Y286000D02*
D03*
Y287969D02*
D03*
Y289937D02*
D03*
X310220Y282063D02*
D03*
Y284031D02*
D03*
Y286000D02*
D03*
Y287969D02*
D03*
Y289937D02*
D03*
X533795Y127362D02*
D03*
Y129331D02*
D03*
Y131299D02*
D03*
Y133268D02*
D03*
Y135236D02*
D03*
Y137205D02*
D03*
Y139173D02*
D03*
Y141142D02*
D03*
Y143110D02*
D03*
Y145079D02*
D03*
Y147047D02*
D03*
Y149016D02*
D03*
Y150984D02*
D03*
Y152953D02*
D03*
Y154921D02*
D03*
Y156890D02*
D03*
Y158858D02*
D03*
Y160827D02*
D03*
Y162795D02*
D03*
Y164764D02*
D03*
Y166732D02*
D03*
Y168701D02*
D03*
Y170669D02*
D03*
Y172638D02*
D03*
X458205Y127362D02*
D03*
Y129331D02*
D03*
Y131299D02*
D03*
Y133268D02*
D03*
Y135236D02*
D03*
Y137205D02*
D03*
Y139173D02*
D03*
Y141142D02*
D03*
Y143110D02*
D03*
Y145079D02*
D03*
Y147047D02*
D03*
Y149016D02*
D03*
Y150984D02*
D03*
Y152953D02*
D03*
Y154921D02*
D03*
Y156890D02*
D03*
Y158858D02*
D03*
Y160827D02*
D03*
Y162795D02*
D03*
Y164764D02*
D03*
Y166732D02*
D03*
Y168701D02*
D03*
Y170669D02*
D03*
Y172638D02*
D03*
X433571Y271650D02*
D03*
Y273618D02*
D03*
Y275587D02*
D03*
Y277555D02*
D03*
Y279524D02*
D03*
X417429Y271650D02*
D03*
Y273618D02*
D03*
Y275587D02*
D03*
Y277555D02*
D03*
Y279524D02*
D03*
D12*
X296791Y278291D02*
D03*
Y289709D02*
D03*
X286791Y278291D02*
D03*
Y289709D02*
D03*
X394500Y261378D02*
D03*
Y272795D02*
D03*
X404500Y261378D02*
D03*
Y272795D02*
D03*
X460000Y276291D02*
D03*
Y287709D02*
D03*
X348000Y246291D02*
D03*
Y257709D02*
D03*
X326000Y198291D02*
D03*
Y209709D02*
D03*
X316000Y198291D02*
D03*
Y209709D02*
D03*
X549000Y199791D02*
D03*
Y211209D02*
D03*
X561000Y197791D02*
D03*
Y209209D02*
D03*
X591000Y199791D02*
D03*
Y211209D02*
D03*
X363000Y280291D02*
D03*
Y291709D02*
D03*
X581000Y199791D02*
D03*
Y211209D02*
D03*
X524000Y178291D02*
D03*
Y189709D02*
D03*
X502000Y196291D02*
D03*
Y207709D02*
D03*
X512000Y196791D02*
D03*
Y208209D02*
D03*
X192000Y130291D02*
D03*
Y141709D02*
D03*
X202000Y128291D02*
D03*
Y139709D02*
D03*
X217700Y124291D02*
D03*
Y135709D02*
D03*
X226000Y124291D02*
D03*
Y135709D02*
D03*
X480000Y206291D02*
D03*
Y217709D02*
D03*
X461500Y251291D02*
D03*
Y262709D02*
D03*
X490000Y206291D02*
D03*
Y217709D02*
D03*
X563000Y224791D02*
D03*
Y236209D02*
D03*
X573000Y224791D02*
D03*
Y236209D02*
D03*
X552000Y242291D02*
D03*
Y253709D02*
D03*
X539000Y222791D02*
D03*
Y234209D02*
D03*
X549000Y222791D02*
D03*
Y234209D02*
D03*
X542000Y242291D02*
D03*
Y253709D02*
D03*
X590000Y224291D02*
D03*
Y235709D02*
D03*
X406000Y204291D02*
D03*
Y215709D02*
D03*
X155000Y244291D02*
D03*
Y255709D02*
D03*
X258000Y272291D02*
D03*
Y283709D02*
D03*
X268000Y278291D02*
D03*
Y289709D02*
D03*
X278000Y278291D02*
D03*
Y289709D02*
D03*
X379000Y241791D02*
D03*
Y253209D02*
D03*
X389000Y241791D02*
D03*
Y253209D02*
D03*
X353291Y280000D02*
D03*
Y291417D02*
D03*
D13*
X451000Y287587D02*
D03*
Y280500D02*
D03*
X533500Y185543D02*
D03*
Y178457D02*
D03*
X358000Y246457D02*
D03*
Y253543D02*
D03*
X343291Y277252D02*
D03*
Y270165D02*
D03*
X451000Y273587D02*
D03*
Y266500D02*
D03*
X620000Y205086D02*
D03*
Y198000D02*
D03*
X608000Y216457D02*
D03*
Y223543D02*
D03*
X608000Y205543D02*
D03*
Y198457D02*
D03*
X470000Y210457D02*
D03*
Y217543D02*
D03*
X462000Y210457D02*
D03*
Y217543D02*
D03*
X520000Y204457D02*
D03*
Y211543D02*
D03*
X290000Y263543D02*
D03*
Y256457D02*
D03*
X282000Y257543D02*
D03*
Y250457D02*
D03*
X478000Y260457D02*
D03*
Y267543D02*
D03*
X456000Y236457D02*
D03*
Y243543D02*
D03*
X528000Y241150D02*
D03*
Y234850D02*
D03*
X368000Y258457D02*
D03*
Y265543D02*
D03*
X326000Y228457D02*
D03*
Y235543D02*
D03*
X620000Y216457D02*
D03*
Y223543D02*
D03*
X590000Y243913D02*
D03*
Y251000D02*
D03*
X480000Y278457D02*
D03*
Y285543D02*
D03*
X158000Y159543D02*
D03*
Y152457D02*
D03*
X166000Y179543D02*
D03*
Y172457D02*
D03*
X156000Y193543D02*
D03*
Y186457D02*
D03*
Y209543D02*
D03*
Y202457D02*
D03*
X503500Y180457D02*
D03*
Y187543D02*
D03*
X511500Y181457D02*
D03*
Y188543D02*
D03*
X571000Y211043D02*
D03*
Y203957D02*
D03*
X343291Y291252D02*
D03*
Y284165D02*
D03*
D14*
X344803Y180803D02*
D03*
X385748Y193402D02*
D03*
X395197Y180803D02*
D03*
Y183953D02*
D03*
Y187102D02*
D03*
Y190252D02*
D03*
Y193402D02*
D03*
Y196551D02*
D03*
Y199701D02*
D03*
Y202850D02*
D03*
Y206000D02*
D03*
Y209150D02*
D03*
Y212299D02*
D03*
Y215449D02*
D03*
Y218598D02*
D03*
Y221748D02*
D03*
Y224898D02*
D03*
Y228047D02*
D03*
Y231197D02*
D03*
X370000Y180803D02*
D03*
Y183953D02*
D03*
Y187102D02*
D03*
Y190252D02*
D03*
Y202850D02*
D03*
Y206000D02*
D03*
Y209150D02*
D03*
Y221748D02*
D03*
Y224898D02*
D03*
Y228047D02*
D03*
Y231197D02*
D03*
X373150D02*
D03*
Y228047D02*
D03*
Y224898D02*
D03*
Y221748D02*
D03*
Y209150D02*
D03*
Y206000D02*
D03*
Y202850D02*
D03*
Y190252D02*
D03*
Y187102D02*
D03*
Y183953D02*
D03*
Y180803D02*
D03*
X379449D02*
D03*
Y183953D02*
D03*
Y187102D02*
D03*
Y190252D02*
D03*
Y221748D02*
D03*
Y224898D02*
D03*
Y228047D02*
D03*
Y231197D02*
D03*
X376299D02*
D03*
Y228047D02*
D03*
Y224898D02*
D03*
Y221748D02*
D03*
Y190252D02*
D03*
Y187102D02*
D03*
Y183953D02*
D03*
Y180803D02*
D03*
X388898D02*
D03*
Y183953D02*
D03*
Y187102D02*
D03*
Y190252D02*
D03*
Y193402D02*
D03*
Y196551D02*
D03*
Y199701D02*
D03*
Y202850D02*
D03*
Y206000D02*
D03*
Y209150D02*
D03*
Y212299D02*
D03*
Y215449D02*
D03*
Y218598D02*
D03*
Y221748D02*
D03*
Y224898D02*
D03*
Y228047D02*
D03*
Y231197D02*
D03*
X392047D02*
D03*
Y228047D02*
D03*
Y224898D02*
D03*
Y221748D02*
D03*
Y218598D02*
D03*
Y215449D02*
D03*
Y212299D02*
D03*
Y209150D02*
D03*
Y206000D02*
D03*
Y202850D02*
D03*
Y199701D02*
D03*
Y196551D02*
D03*
Y193402D02*
D03*
Y190252D02*
D03*
Y187102D02*
D03*
Y183953D02*
D03*
Y180803D02*
D03*
X385748D02*
D03*
Y183953D02*
D03*
Y187102D02*
D03*
Y190252D02*
D03*
Y196551D02*
D03*
Y199701D02*
D03*
Y202850D02*
D03*
Y206000D02*
D03*
Y209150D02*
D03*
Y212299D02*
D03*
Y215449D02*
D03*
Y218598D02*
D03*
Y221748D02*
D03*
Y224898D02*
D03*
Y228047D02*
D03*
Y231197D02*
D03*
X382598D02*
D03*
Y228047D02*
D03*
Y224898D02*
D03*
Y221748D02*
D03*
Y190252D02*
D03*
Y187102D02*
D03*
Y183953D02*
D03*
Y180803D02*
D03*
X357402D02*
D03*
Y183953D02*
D03*
Y187102D02*
D03*
Y190252D02*
D03*
Y221748D02*
D03*
Y224898D02*
D03*
Y228047D02*
D03*
Y231197D02*
D03*
X360551D02*
D03*
Y228047D02*
D03*
Y224898D02*
D03*
Y221748D02*
D03*
Y190252D02*
D03*
Y187102D02*
D03*
Y183953D02*
D03*
Y180803D02*
D03*
X366850D02*
D03*
Y183953D02*
D03*
Y187102D02*
D03*
Y190252D02*
D03*
Y202850D02*
D03*
Y206000D02*
D03*
Y209150D02*
D03*
Y221748D02*
D03*
Y224898D02*
D03*
Y228047D02*
D03*
Y231197D02*
D03*
X363701D02*
D03*
Y228047D02*
D03*
Y224898D02*
D03*
Y221748D02*
D03*
Y190252D02*
D03*
Y187102D02*
D03*
Y183953D02*
D03*
Y180803D02*
D03*
X351102D02*
D03*
Y183953D02*
D03*
Y187102D02*
D03*
Y190252D02*
D03*
Y193402D02*
D03*
Y196551D02*
D03*
Y199701D02*
D03*
Y202850D02*
D03*
Y206000D02*
D03*
Y209150D02*
D03*
Y212299D02*
D03*
Y215449D02*
D03*
Y218598D02*
D03*
Y221748D02*
D03*
Y224898D02*
D03*
Y228047D02*
D03*
Y231197D02*
D03*
X354252D02*
D03*
Y228047D02*
D03*
Y224898D02*
D03*
Y221748D02*
D03*
Y218598D02*
D03*
Y215449D02*
D03*
Y212299D02*
D03*
Y209150D02*
D03*
Y206000D02*
D03*
Y202850D02*
D03*
Y199701D02*
D03*
Y196551D02*
D03*
Y193402D02*
D03*
Y190252D02*
D03*
Y187102D02*
D03*
Y183953D02*
D03*
Y180803D02*
D03*
X347953D02*
D03*
Y183953D02*
D03*
Y187102D02*
D03*
Y190252D02*
D03*
Y193402D02*
D03*
Y196551D02*
D03*
Y199701D02*
D03*
Y202850D02*
D03*
Y206000D02*
D03*
Y209150D02*
D03*
Y212299D02*
D03*
Y215449D02*
D03*
Y218598D02*
D03*
Y221748D02*
D03*
Y224898D02*
D03*
Y228047D02*
D03*
Y231197D02*
D03*
X344803D02*
D03*
Y228047D02*
D03*
Y224898D02*
D03*
Y221748D02*
D03*
Y218598D02*
D03*
Y215449D02*
D03*
Y212299D02*
D03*
Y209150D02*
D03*
Y206000D02*
D03*
Y202850D02*
D03*
Y199701D02*
D03*
Y196551D02*
D03*
Y193402D02*
D03*
Y190252D02*
D03*
Y187102D02*
D03*
Y183953D02*
D03*
D15*
X339543Y254000D02*
D03*
X332457D02*
D03*
X429543Y206000D02*
D03*
X422457D02*
D03*
X435149Y198000D02*
D03*
X428850D02*
D03*
X612457Y250000D02*
D03*
X619543D02*
D03*
X441543Y298000D02*
D03*
X434457D02*
D03*
X161543Y146000D02*
D03*
X154457D02*
D03*
X533150Y208000D02*
D03*
X526850D02*
D03*
X296457Y246000D02*
D03*
X303543D02*
D03*
X298457Y254000D02*
D03*
X305543D02*
D03*
X447543Y232000D02*
D03*
X440457D02*
D03*
X447543Y240000D02*
D03*
X440457D02*
D03*
X507150Y218000D02*
D03*
X500850D02*
D03*
X558850Y248000D02*
D03*
X565150D02*
D03*
X504087Y298000D02*
D03*
X497000D02*
D03*
X501543Y276000D02*
D03*
X494457D02*
D03*
X385543Y272000D02*
D03*
X378457D02*
D03*
X451543Y252000D02*
D03*
X444457D02*
D03*
D16*
X434709Y288000D02*
D03*
X423291D02*
D03*
X352291Y134000D02*
D03*
X363709D02*
D03*
X382291D02*
D03*
X393709D02*
D03*
X331000Y274000D02*
D03*
X319583D02*
D03*
X320000Y264000D02*
D03*
X308583D02*
D03*
X441209Y263000D02*
D03*
X429791D02*
D03*
X421209Y253000D02*
D03*
X409791D02*
D03*
X425709Y188000D02*
D03*
X414291D02*
D03*
X449709Y206000D02*
D03*
X438291D02*
D03*
X312291Y218000D02*
D03*
X323709D02*
D03*
X306291Y236000D02*
D03*
X317709D02*
D03*
X412291Y240000D02*
D03*
X423709D02*
D03*
X535209Y291500D02*
D03*
X523791D02*
D03*
X560291Y258000D02*
D03*
X571709D02*
D03*
X475709Y118000D02*
D03*
X464291D02*
D03*
X295709Y152000D02*
D03*
X284291D02*
D03*
X291709Y142000D02*
D03*
X280291D02*
D03*
X217709Y210000D02*
D03*
X206291D02*
D03*
X508252Y288000D02*
D03*
X496835D02*
D03*
X210291Y290000D02*
D03*
X221709D02*
D03*
X169709D02*
D03*
X158291D02*
D03*
X187709D02*
D03*
X176291D02*
D03*
D17*
X396701Y150500D02*
D03*
X359299D02*
D03*
X560701Y274000D02*
D03*
X523299D02*
D03*
D18*
X163055Y237756D02*
D03*
X166205D02*
D03*
X169354D02*
D03*
X172504D02*
D03*
X175654D02*
D03*
X178803D02*
D03*
X181953D02*
D03*
X185102D02*
D03*
X188252D02*
D03*
X191402D02*
D03*
X194551D02*
D03*
X197701D02*
D03*
X200850D02*
D03*
X204000D02*
D03*
X207150D02*
D03*
X210299D02*
D03*
X213449D02*
D03*
X216598D02*
D03*
X219748D02*
D03*
X222898D02*
D03*
X226047D02*
D03*
X229197D02*
D03*
X232346D02*
D03*
X235496D02*
D03*
X238646D02*
D03*
X241795D02*
D03*
X244945D02*
D03*
X163055Y282244D02*
D03*
X166205D02*
D03*
X169354D02*
D03*
X172504D02*
D03*
X175654D02*
D03*
X178803D02*
D03*
X181953D02*
D03*
X185102D02*
D03*
X188252D02*
D03*
X191402D02*
D03*
X194551D02*
D03*
X197701D02*
D03*
X200850D02*
D03*
X204000D02*
D03*
X207150D02*
D03*
X210299D02*
D03*
X213449D02*
D03*
X216598D02*
D03*
X219748D02*
D03*
X222898D02*
D03*
X226047D02*
D03*
X229197D02*
D03*
X232346D02*
D03*
X235496D02*
D03*
X238646D02*
D03*
X241795D02*
D03*
X244945D02*
D03*
X192055Y151756D02*
D03*
X195205D02*
D03*
X198354D02*
D03*
X201504D02*
D03*
X204654D02*
D03*
X207803D02*
D03*
X210953D02*
D03*
X214102D02*
D03*
X217252D02*
D03*
X220402D02*
D03*
X223551D02*
D03*
X226701D02*
D03*
X229850D02*
D03*
X233000D02*
D03*
X236150D02*
D03*
X239299D02*
D03*
X242449D02*
D03*
X245598D02*
D03*
X248748D02*
D03*
X251898D02*
D03*
X255047D02*
D03*
X258197D02*
D03*
X261346D02*
D03*
X264496D02*
D03*
X267646D02*
D03*
X270795D02*
D03*
X273945D02*
D03*
X192055Y196244D02*
D03*
X195205D02*
D03*
X198354D02*
D03*
X201504D02*
D03*
X204654D02*
D03*
X207803D02*
D03*
X210953D02*
D03*
X214102D02*
D03*
X217252D02*
D03*
X220402D02*
D03*
X223551D02*
D03*
X226701D02*
D03*
X229850D02*
D03*
X233000D02*
D03*
X236150D02*
D03*
X239299D02*
D03*
X242449D02*
D03*
X245598D02*
D03*
X248748D02*
D03*
X251898D02*
D03*
X255047D02*
D03*
X258197D02*
D03*
X261346D02*
D03*
X264496D02*
D03*
X267646D02*
D03*
X270795D02*
D03*
X273945D02*
D03*
D19*
X514827Y230154D02*
D03*
X512858D02*
D03*
X510890D02*
D03*
X508921D02*
D03*
X506953D02*
D03*
X504984D02*
D03*
X503016D02*
D03*
X501047D02*
D03*
X499079D02*
D03*
X497110D02*
D03*
X495142D02*
D03*
X493173D02*
D03*
Y261846D02*
D03*
X495142D02*
D03*
X497110D02*
D03*
X499079D02*
D03*
X501047D02*
D03*
X503016D02*
D03*
X504984D02*
D03*
X506953D02*
D03*
X508921D02*
D03*
X510890D02*
D03*
X512858D02*
D03*
X514827D02*
D03*
D20*
X488154Y235173D02*
D03*
Y237142D02*
D03*
Y239110D02*
D03*
Y241079D02*
D03*
Y243047D02*
D03*
Y245016D02*
D03*
Y246984D02*
D03*
Y248953D02*
D03*
Y250921D02*
D03*
Y252890D02*
D03*
Y254858D02*
D03*
Y256827D02*
D03*
X519846D02*
D03*
Y254858D02*
D03*
Y252890D02*
D03*
Y250921D02*
D03*
Y248953D02*
D03*
Y246984D02*
D03*
Y245016D02*
D03*
Y243047D02*
D03*
Y241079D02*
D03*
Y239110D02*
D03*
Y237142D02*
D03*
Y235173D02*
D03*
D21*
X578000Y245374D02*
D03*
Y254626D02*
D03*
D22*
X611740Y238000D02*
D03*
X604260D02*
D03*
X425740Y298000D02*
D03*
X418260D02*
D03*
D23*
X529965Y200559D02*
D03*
Y198000D02*
D03*
Y195441D02*
D03*
X538035D02*
D03*
Y200559D02*
D03*
D27*
X150000Y100000D02*
Y150000D01*
X140000Y290000D02*
X150000Y300000D01*
X140000Y160000D02*
Y290000D01*
Y160000D02*
X150000Y150000D01*
Y300000D02*
Y310000D01*
X625000D01*
X150000Y100000D02*
X625000D01*
Y310000D01*
M02*
