M48
;Layer_Color=7557959
;FILE_FORMAT=2:5
INCH,LZ
;TYPE=PLATED
T1F00S00C0.01000
T2F00S00C0.01299
T3F00S00C0.01600
T4F00S00C0.03500
T5F00S00C0.03543
T6F00S00C0.03622
T7F00S00C0.05000
T8F00S00C0.06200
T9F00S00C0.09055
T10F00S00C0.12800
;TYPE=NON_PLATED
T11F00S00C0.12500
%
T01
X0216929Y0025984
X0289764Y0027559
X030455Y0023796
X0282283Y0011024
X0442264Y0093602
X0445118Y0092126
X0446Y0095083
X04385Y015
X0422945Y0120866
X0416646
X0422874Y0090748
X0433012Y008937
X0397284Y0089799
X0393Y0089583
X039Y0089083
X03865
X03835
X03805
X0376925Y0089158
X0373567Y008865
X03705Y0088783
X0364705Y0089083
X036225Y009075
X03625Y0087083
X0362Y0084083
X03485Y00795
Y0075
X03515Y0076
X03485Y00585
X03525Y0054083
Y0051083
X03535Y0048083
X0341055Y0110236
X0337Y01135
X0335Y0118
X0334Y0123
X0337
X0343Y0119783
X0346791Y0119488
X032Y0123
X0317Y0122
X0319877Y0115877
X03195Y0113
X0318Y010975
X0324Y01025
X03235Y00995
X0318Y01305
X0316Y01335
X0319Y01365
X03195Y014
Y0143
X0315Y014
X03115Y0143
Y0146
Y0149
Y0152
X02995Y0147
X02945Y0145
X0296Y01425
X0294Y01395
X0292Y0137
Y0134
X0288Y01335
X028175Y01352
X028265Y0130537
X0284Y0124
X02865Y0118
X02925Y0119
X0298Y0116083
X0296Y0124
X0297Y0132
X0301Y01395
X0283247Y01447
X02825Y0148
X0283671Y0151329
X02885Y0155083
X0291Y0156583
X0294
Y0160583
X02995Y0163083
X0304Y0167583
X0292Y0170583
X0285Y0171083
X028085Y0143
X028Y01155
X0283465Y0111024
X0282Y0103
X028175Y0063333
X0337Y01445
X03325Y01515
X03305Y0155
X0365313Y0140399
X03675Y01425
X03725Y0142
X03705Y01455
X03775Y0139
X038Y0141
X03835Y01375
X0388Y0135
X03855Y0132
X03835Y01295
X03795Y0132
X0377Y0134
X0381Y0125
X03785Y0121
X0377205Y0109941
X0378386Y0107087
X038189Y0110236
X0387402Y0109055
X0398818Y0094488
X0278Y00925
X0275Y009
X02795Y0088
X0278Y01015
X0277Y0108
X02725Y01112
X0272Y0115
X0268514Y0118022
X02655Y0115024
X0262347
X02623Y0118154
X02654Y0121258
X0265415Y01244
X0262323Y0124472
X0259173
Y0127622
X0256
X0249738
X02494Y0124191
X02528Y01244
X0256Y0121323
X02555Y01175
X0252756Y0117717
X0250062Y0117654
X0248Y01155
X0242Y01175
X0239
X02385Y0114
X02355Y0116
X0234211Y0121612
X0234Y0124472
X0234126Y012751
X02335Y01315
X02365
X0239
X0241732Y0131434
X02405Y01274
X0243425Y0127622
X0243488Y0124409
X0243425Y0121323
X0240276Y0121309
X023715Y012133
X0240276Y0124472
X0230827Y0121323
X0227677Y0121339
X0227677Y0124472
X02245Y0124465
X0223Y0132
X0217385Y0131615
X0216768Y0129083
X0217Y0134583
Y01415
X02195Y0145083
X02135Y0146
X02035Y01445
X02055Y0142
X0209Y0137
X0208907Y0124735
X02125Y0125591
X0216142Y0119291
X0213281Y0111802
X0213385Y0105905
X0215472Y0102362
X02147Y0097583
X0218
X02175Y0094
X021496Y0091782
X0209449Y008937
X02115Y0082
X0214Y0077583
X02165Y0085102
X0221457Y0083583
X022455Y0083533
X022155Y0089683
X02277Y0089833
X0231496Y0094488
X0232049Y0097009
X0224555Y0096137
X02245Y0099276
X022765Y0102433
X0227756Y010563
X0235Y0104083
X02365Y0106583
X02345Y0108583
X02327Y0110983
X0224591Y0111811
X0216929Y0108267
X0207874Y0109055
X0205512Y0105905
X02Y0108268
X0196Y0117083
X0188583Y0124016
X0178Y0122083
X0174409Y0121653
X0175984Y0130315
X0180315Y0116535
X01815Y0101083
X0187008Y0101575
X0182283Y0088583
X0175756Y0086083
X0186221Y008189
X0198031Y0077559
X0222835Y0072047
X0230354Y0074016
X023Y0076583
X0234Y0077
X0233996Y0073524
X0238583Y0074016
X0240016Y0080599
X0240354Y0083425
X0246457Y0083646
X02465Y0076583
X0246063Y0071653
X0254117Y0076434
X0252874Y0080378
X0256024Y0083528
Y0086677
X0255906Y0090945
X0258661Y0090551
X0258767Y009887
X0262283Y0099252
X0262347Y0108724
X02655
X0257724Y0110174
X02565Y0106
X02525Y0110454
X025Y0103937
X0249213Y0099213
X0245Y0098937
X024185Y0098543
X0239764Y0103937
X0243369Y010878
X0248425Y0095276
X0249619Y0090158
X0244094
X0241339Y0090551
X0230827Y0080394
X0233071Y0062598
X0255118Y0054331
X025748Y0051181
X0259843Y0048819
X0265748Y0063779
X0268504Y0073622
X0265354Y0076378
X0260612Y0075388
X02594Y0080583
X02585Y0071083
X02765Y0069583
Y01195
X02795Y01215
X0273Y0125
X02725Y0129
X02715Y01315
X0276Y01335
X02795
X027575Y0127811
X0268622Y0127622
X0268615Y01245
X0265Y01335
X02625Y0132
X0258
X026Y0146
X0257Y0147
X02635Y01445
X0269Y01455
X02705Y0143
X0273Y01445
X02765Y0146
X0276Y0142
X02725Y0137
X02408Y0141012
X02382Y0142
X02375Y0145
X0233318Y0144318
X0232Y01375
X02395Y0148
X0243Y01485
X02435Y0145
X0247Y0148
X0205354Y0122441
X0163779Y0098819
X0156299Y0093307
Y0089764
X0161417Y0083071
X0158268Y0079476
X0160118Y0074583
X0167323Y0072441
X0159055Y0065011
X0135827Y0048425
X0127953Y0099606
X0148031Y0111861
X0152362Y0151181
X0156299Y015315
X0158661Y0158661
X0137992Y0158661
X0132402Y0152756
X0125197Y017874
X0244882Y0032283
X0106693Y0096113
X0094882Y0093357
X0096063Y0090207
X0085039Y0085039
Y0081759
Y0078478
Y0075197
X0075591Y0070472
X0092126Y0147638
X009685Y015748
X0103937Y0155906
X0102362Y0163386
X0100285Y0171762
X0102756Y0173622
X0107598Y0173622
X0110157Y0175118
X0120079Y0178346
X0118898Y0181102
X0123228Y018189
X0116929Y0185827
X0093307Y0181102
X00964Y0170529
X0091732Y0168898
X0106988Y0147539
X0113779Y0191732
X0114075Y0203445
X004685Y0200787
X0047638Y0194488
X0127165Y019311
X0148031Y0191142
X0143701Y0199606
X0161834Y0201158
X0161417Y0204331
X0162598Y0196063
X044025Y018775
T02
X0124724Y0159276
Y0164
Y0168724
X012
Y0164
Y0159276
X0115276
Y0164
Y0168724
T03
X0085039Y0011811
X0105512Y0011024
X0101395Y0022261
X0120539Y00145
X0132677Y0026378
X0152362
X0169291Y0025394
X0187402Y0025591
X0205512Y002724
X0251181Y0017323
X0165354Y0005
X03095Y00045
X0319291Y0012205
X0419685Y0027953
X0443701Y003189
X0450787
X04475Y0045083
X0451575Y0048819
X044075Y0043833
X0464173Y0054331
X0455905Y007126
X0470472Y0082284
X04645Y0091083
X0466417Y011626
X04405Y0153
X04385Y01565
X04415Y0165
X0445276Y0166142
X045Y01665
X0448987Y0173013
X04455Y0175
X0455Y01715
X045Y01845
X0416535Y0172835
X0416929Y0166535
X0416646Y0152866
X0407197Y0151465
X0397748Y0151685
X0388299Y0151685
X0383575
X0379Y01515
X03805Y0147
X03775Y01435
X0361Y0142
X03575Y01445
X03545Y01475
X03505Y0146
X03445
X03475Y0143
X03405
X0339809Y0132809
X0346009
X03375Y01545
X0337118Y0160236
X0323228Y0167323
X0313Y0168083
X0308575Y0168583
X03165Y0181
X0294788Y0176288
X0289Y01755
X0351Y0182
X03665Y0152
X0386Y0125
X0391Y0129
X0396063Y0122835
X0407197Y0123906
X0409Y007722
X0413386Y0077559
X0424748Y0076039
X0434197Y0076039
X0422717Y0052366
X04185Y0053083
X04205Y0044583
X0425Y0045583
X0412018Y0046065
X0407Y0046083
X040225Y0044833
X0396063Y003189
X0420079
X0367535Y0045851
X0355118Y0041339
X035Y00425
X03495Y00375
X0346Y003975
Y0045
X0345752Y0049331
X0335534Y0041966
X0329Y0065083
X03185Y0078083
X0315Y0082
X0308268Y0085433
X0296457Y0079921
X02835Y00815
X02815Y0076083
X0285039Y009252
X0284Y00965
X03225Y0096
X0318Y0104083
X03385Y0104
X034Y01
X03395Y0095
X03425Y00795
X0344Y0073583
X036811Y0078347
X03935Y0078
X0356803Y0104697
X0353583Y0101673
X0350433Y010561
X0394488Y0173622
X0396063Y0177953
X0291457Y0037983
X02845Y0037583
X02755Y00485
X02595Y004
X0220031Y006083
X0216Y0061
X0211811Y0059055
X0219539Y0065358
X0188189Y00485
X0165354Y0066929
X0152362Y0038583
X0133071
X013189Y0087402
X0127559
X0125197Y010315
X0144095Y0113386
X0149215Y014173
X0140551Y0148425
X0133858Y0140945
X0136221Y0175984
X0136614Y0181102
X015315Y0183858
Y0174803
X0151969Y0161811
X01735Y0159083
X0178Y0157
X01785Y0163583
X0174Y01685
X0171Y0171583
X0179Y01725
X0169Y0182083
X0171Y0148083
X01745Y01515
X01795Y0146
X0176Y01405
X01795Y01355
X01985Y0133
X0197Y0129
X0203Y01315
X02065Y01335
X02095Y01455
X01975Y0143
X01955Y0161
X0235827Y0174803
X0277Y0086083
X0177296Y0101051
X0123228Y0087402
X0118898
X0114567
X0095669Y01
X009252Y0113386
X0080315Y0102362
X0070079Y0092913
X006378
X0088189Y0196063
X0103937Y0206693
X0035039Y0192126
X0015157Y0193307
X0003937Y0193701
X04325Y01875
T04
X0202756Y0173228
X0079484Y0169543
Y0161543
X0069484Y0157543
Y0165543
Y0173543
X0079484Y0177543
X0202756Y0195669
T05
X015Y001
X016
X017
X018
X019
X02
X0215
X0225
X0235
X0245
X0255
X0265
X0335
X0345
X0355
X0365
X0375
X0385
X0405
X0415
X0425
X0435
X0445
X0455
Y01
X0465
X0445
X0435
X0425
X0415
X0405
X0395
X0385
X0375
X0197Y0070583
X0187
X0299Y02
X0309
X0319
X0329
X0339
X0349
X0359
X0369
X0385
X0395
X0405
X0415
X0425
X0435
X0445
X0455
T06
X004248Y007022
Y0080063
Y0087937
Y009778
X0052795
Y0087937
Y0080063
Y007022
T07
X0032789Y0014496
X00446Y0033
X0020978
X0018484Y0123943
X0008484
Y0183143
X0018484
T08
X0043484Y0118943
Y0188143
T09
X0031811Y0058134
X0054173
Y0109866
X0031811
T10
X0043484Y0134543
Y0172543
T11
X0062Y001
X0465Y003
Y014
X0062Y02
X0265
M30
