%FSLAX25Y25*%
%MOIN*%
G70*
G01*
G75*
G04 Layer_Physical_Order=1*
G04 Layer_Color=255*
%ADD10R,0.07087X0.05118*%
%ADD11O,0.06693X0.01181*%
%ADD12R,0.04724X0.05512*%
%ADD13R,0.02953X0.00984*%
%ADD14R,0.02953X0.01457*%
%ADD15R,0.05512X0.04724*%
%ADD16R,0.05118X0.07087*%
%ADD17R,0.02756X0.01575*%
%ADD18R,0.21654X0.07874*%
%ADD19O,0.02165X0.05906*%
%ADD20O,0.00984X0.06102*%
%ADD21O,0.06102X0.00984*%
%ADD22R,0.02165X0.05709*%
%ADD23C,0.01693*%
%ADD24R,0.12598X0.03937*%
%ADD25R,0.03937X0.03937*%
%ADD26R,0.05906X0.05118*%
%ADD27C,0.00500*%
%ADD28C,0.01000*%
%ADD29C,0.02000*%
%ADD30C,0.15748*%
%ADD31R,0.05906X0.05906*%
%ADD32C,0.05906*%
%ADD33C,0.06000*%
%ADD34C,0.08700*%
%ADD35C,0.07500*%
%ADD36C,0.06496*%
%ADD37R,0.06496X0.06496*%
%ADD38C,0.09843*%
%ADD39C,0.01700*%
%ADD40C,0.03000*%
%ADD41C,0.04000*%
D10*
X408583Y339878D02*
D03*
Y351295D02*
D03*
X248500Y303709D02*
D03*
Y292291D02*
D03*
X348000Y257709D02*
D03*
Y246291D02*
D03*
X326000Y196291D02*
D03*
Y207709D02*
D03*
X316000Y196291D02*
D03*
Y207709D02*
D03*
X499000Y315583D02*
D03*
Y327000D02*
D03*
X508500Y315583D02*
D03*
Y327000D02*
D03*
X548500Y323583D02*
D03*
Y335000D02*
D03*
X392000Y247791D02*
D03*
Y259209D02*
D03*
X382000Y247791D02*
D03*
Y259209D02*
D03*
X328500Y336378D02*
D03*
Y347795D02*
D03*
X338500Y336378D02*
D03*
Y347795D02*
D03*
X214791Y329291D02*
D03*
Y340709D02*
D03*
X204791Y329291D02*
D03*
Y340709D02*
D03*
X276291Y333500D02*
D03*
Y344917D02*
D03*
X176000Y303709D02*
D03*
Y292291D02*
D03*
X199000Y304709D02*
D03*
Y293291D02*
D03*
X211000Y304709D02*
D03*
Y293291D02*
D03*
X260000Y303709D02*
D03*
Y292291D02*
D03*
X272000Y303709D02*
D03*
Y292291D02*
D03*
X463500Y309083D02*
D03*
Y320500D02*
D03*
X475500Y299083D02*
D03*
Y310500D02*
D03*
X192000Y130291D02*
D03*
Y141709D02*
D03*
X202000Y122291D02*
D03*
Y133709D02*
D03*
X218000Y124291D02*
D03*
Y135709D02*
D03*
X228000Y124291D02*
D03*
Y135709D02*
D03*
X480000Y206291D02*
D03*
Y217709D02*
D03*
X457500Y257291D02*
D03*
Y268709D02*
D03*
X492000Y206291D02*
D03*
Y217709D02*
D03*
X563000Y221291D02*
D03*
Y232709D02*
D03*
X573000Y221291D02*
D03*
Y232709D02*
D03*
X549500Y241583D02*
D03*
Y253000D02*
D03*
X539000Y220791D02*
D03*
Y232209D02*
D03*
X549000Y220791D02*
D03*
Y232209D02*
D03*
X539500Y241583D02*
D03*
Y253000D02*
D03*
X591000Y223791D02*
D03*
Y235209D02*
D03*
X406000Y204291D02*
D03*
Y215709D02*
D03*
X236500Y303709D02*
D03*
Y292291D02*
D03*
D11*
X535795Y127362D02*
D03*
Y129331D02*
D03*
Y131299D02*
D03*
Y133268D02*
D03*
Y135236D02*
D03*
Y137205D02*
D03*
Y139173D02*
D03*
Y141142D02*
D03*
Y143110D02*
D03*
Y145079D02*
D03*
Y147047D02*
D03*
Y149016D02*
D03*
Y150984D02*
D03*
Y152953D02*
D03*
Y154921D02*
D03*
Y156890D02*
D03*
Y158858D02*
D03*
Y160827D02*
D03*
Y162795D02*
D03*
Y164764D02*
D03*
Y166732D02*
D03*
Y168701D02*
D03*
Y170669D02*
D03*
Y172638D02*
D03*
X460205Y127362D02*
D03*
Y129331D02*
D03*
Y131299D02*
D03*
Y133268D02*
D03*
Y135236D02*
D03*
Y137205D02*
D03*
Y139173D02*
D03*
Y141142D02*
D03*
Y143110D02*
D03*
Y145079D02*
D03*
Y147047D02*
D03*
Y149016D02*
D03*
Y150984D02*
D03*
Y152953D02*
D03*
Y154921D02*
D03*
Y156890D02*
D03*
Y158858D02*
D03*
Y160827D02*
D03*
Y162795D02*
D03*
Y164764D02*
D03*
Y166732D02*
D03*
Y168701D02*
D03*
Y170669D02*
D03*
Y172638D02*
D03*
X374071Y338650D02*
D03*
Y340618D02*
D03*
Y342587D02*
D03*
Y344555D02*
D03*
Y346524D02*
D03*
X357929Y338650D02*
D03*
Y340618D02*
D03*
Y342587D02*
D03*
Y344555D02*
D03*
Y346524D02*
D03*
X244362Y333063D02*
D03*
Y335031D02*
D03*
Y337000D02*
D03*
Y338969D02*
D03*
Y340937D02*
D03*
X228220Y333063D02*
D03*
Y335031D02*
D03*
Y337000D02*
D03*
Y338969D02*
D03*
Y340937D02*
D03*
D12*
X553543Y162000D02*
D03*
X546457D02*
D03*
X339543Y254000D02*
D03*
X332457D02*
D03*
X429543Y204000D02*
D03*
X422457D02*
D03*
X435149Y196000D02*
D03*
X428850D02*
D03*
X159543Y146000D02*
D03*
X152457D02*
D03*
X484350Y326791D02*
D03*
X490650D02*
D03*
X309457Y253500D02*
D03*
X316543D02*
D03*
X309457Y263500D02*
D03*
X316543D02*
D03*
X447543Y232000D02*
D03*
X440457D02*
D03*
X447543Y240000D02*
D03*
X440457D02*
D03*
X507150Y216000D02*
D03*
X500850D02*
D03*
X558850Y252000D02*
D03*
X565150D02*
D03*
X504087Y298000D02*
D03*
X497000D02*
D03*
X501543Y276000D02*
D03*
X494457D02*
D03*
X299543Y112000D02*
D03*
X292457D02*
D03*
D13*
X283638Y191016D02*
D03*
Y192984D02*
D03*
X288362D02*
D03*
Y191016D02*
D03*
X430362Y158984D02*
D03*
Y157016D02*
D03*
X425638D02*
D03*
Y158984D02*
D03*
X430362Y174984D02*
D03*
Y173016D02*
D03*
X425638D02*
D03*
Y174984D02*
D03*
X486362Y190984D02*
D03*
Y189016D02*
D03*
X481638D02*
D03*
Y190984D02*
D03*
X468362D02*
D03*
Y189016D02*
D03*
X463638D02*
D03*
Y190984D02*
D03*
X281638Y209016D02*
D03*
Y210984D02*
D03*
X286362D02*
D03*
Y209016D02*
D03*
X293638Y181016D02*
D03*
Y182984D02*
D03*
X298362D02*
D03*
Y181016D02*
D03*
X241638Y133016D02*
D03*
Y134984D02*
D03*
X246362D02*
D03*
Y133016D02*
D03*
X430362Y142984D02*
D03*
Y141016D02*
D03*
X425638D02*
D03*
Y142984D02*
D03*
X430362Y126984D02*
D03*
Y125016D02*
D03*
X425638D02*
D03*
Y126984D02*
D03*
X255638Y139016D02*
D03*
Y140984D02*
D03*
X260362D02*
D03*
Y139016D02*
D03*
X292776Y165205D02*
D03*
Y167173D02*
D03*
X297500D02*
D03*
Y165205D02*
D03*
X281638Y173016D02*
D03*
Y174984D02*
D03*
X286362D02*
D03*
Y173016D02*
D03*
X323638Y181016D02*
D03*
Y182984D02*
D03*
X328362D02*
D03*
Y181016D02*
D03*
D14*
X288362Y195189D02*
D03*
Y188811D02*
D03*
X283638D02*
D03*
Y195189D02*
D03*
X425638Y154811D02*
D03*
Y161189D02*
D03*
X430362D02*
D03*
Y154811D02*
D03*
X425638Y170811D02*
D03*
Y177189D02*
D03*
X430362D02*
D03*
Y170811D02*
D03*
X481638Y186811D02*
D03*
Y193189D02*
D03*
X486362D02*
D03*
Y186811D02*
D03*
X463638D02*
D03*
Y193189D02*
D03*
X468362D02*
D03*
Y186811D02*
D03*
X286362Y213189D02*
D03*
Y206811D02*
D03*
X281638D02*
D03*
Y213189D02*
D03*
X298362Y185189D02*
D03*
Y178811D02*
D03*
X293638D02*
D03*
Y185189D02*
D03*
X246362Y137189D02*
D03*
Y130811D02*
D03*
X241638D02*
D03*
Y137189D02*
D03*
X425638Y138811D02*
D03*
Y145189D02*
D03*
X430362D02*
D03*
Y138811D02*
D03*
X425638Y122811D02*
D03*
Y129189D02*
D03*
X430362D02*
D03*
Y122811D02*
D03*
X260362Y143189D02*
D03*
Y136811D02*
D03*
X255638D02*
D03*
Y143189D02*
D03*
X297500Y169378D02*
D03*
Y163000D02*
D03*
X292776D02*
D03*
Y169378D02*
D03*
X286362Y177189D02*
D03*
Y170811D02*
D03*
X281638D02*
D03*
Y177189D02*
D03*
X328362Y185189D02*
D03*
Y178811D02*
D03*
X323638D02*
D03*
Y185189D02*
D03*
D15*
X358000Y246457D02*
D03*
Y253543D02*
D03*
X434000Y259543D02*
D03*
Y252457D02*
D03*
X536500Y332835D02*
D03*
Y325748D02*
D03*
X396000Y351587D02*
D03*
Y344500D02*
D03*
X516000Y180457D02*
D03*
Y187543D02*
D03*
X506000Y180457D02*
D03*
Y187543D02*
D03*
X266291Y344752D02*
D03*
Y337665D02*
D03*
Y330752D02*
D03*
Y323665D02*
D03*
X396000Y337587D02*
D03*
Y330500D02*
D03*
X188000Y318457D02*
D03*
Y325543D02*
D03*
X429500Y323000D02*
D03*
Y330087D02*
D03*
X664000Y249543D02*
D03*
Y242457D02*
D03*
X654000Y334457D02*
D03*
Y341543D02*
D03*
X650000Y249543D02*
D03*
Y242457D02*
D03*
X470000Y210457D02*
D03*
Y217543D02*
D03*
X462000Y210457D02*
D03*
Y217543D02*
D03*
X475500Y319248D02*
D03*
Y326335D02*
D03*
X309500Y287587D02*
D03*
Y280500D02*
D03*
X299500Y287587D02*
D03*
Y280500D02*
D03*
X478000Y260457D02*
D03*
Y267543D02*
D03*
X456000Y236457D02*
D03*
Y243543D02*
D03*
X528000Y241150D02*
D03*
Y234850D02*
D03*
X309500Y118543D02*
D03*
Y111457D02*
D03*
X326000Y228457D02*
D03*
Y235543D02*
D03*
X664000Y334457D02*
D03*
Y341543D02*
D03*
X590000Y243913D02*
D03*
Y251000D02*
D03*
X468000Y276457D02*
D03*
Y283543D02*
D03*
X152000Y161543D02*
D03*
Y154457D02*
D03*
Y177543D02*
D03*
Y170457D02*
D03*
Y193543D02*
D03*
Y186457D02*
D03*
Y209543D02*
D03*
Y202457D02*
D03*
D16*
X379709Y360000D02*
D03*
X368291D02*
D03*
X245000Y357000D02*
D03*
X233583D02*
D03*
X352291Y134000D02*
D03*
X363709D02*
D03*
X382291D02*
D03*
X393709D02*
D03*
X249000Y325000D02*
D03*
X237583D02*
D03*
X238000Y315000D02*
D03*
X226583D02*
D03*
X381709Y330000D02*
D03*
X370291D02*
D03*
X361709Y320000D02*
D03*
X350291D02*
D03*
X520791Y317291D02*
D03*
X532209D02*
D03*
X425709Y186000D02*
D03*
X414291D02*
D03*
X449709Y206000D02*
D03*
X438291D02*
D03*
X312291Y218000D02*
D03*
X323709D02*
D03*
X306291Y236000D02*
D03*
X317709D02*
D03*
X412291Y238000D02*
D03*
X423709D02*
D03*
X535709Y300500D02*
D03*
X524291D02*
D03*
X552291D02*
D03*
X563709D02*
D03*
X475709Y118000D02*
D03*
X464291D02*
D03*
X539709Y182000D02*
D03*
X528291D02*
D03*
X295709Y152000D02*
D03*
X284291D02*
D03*
X291709Y142000D02*
D03*
X280291D02*
D03*
X217709Y210000D02*
D03*
X206291D02*
D03*
X508252Y288000D02*
D03*
X496835D02*
D03*
D17*
X520465Y331850D02*
D03*
Y329291D02*
D03*
Y326732D02*
D03*
X528535D02*
D03*
Y331850D02*
D03*
D18*
X396701Y150500D02*
D03*
X359299D02*
D03*
X563201Y283500D02*
D03*
X525799D02*
D03*
D19*
X163055Y237756D02*
D03*
X166205D02*
D03*
X169354D02*
D03*
X172504D02*
D03*
X175654D02*
D03*
X178803D02*
D03*
X181953D02*
D03*
X185102D02*
D03*
X188252D02*
D03*
X191402D02*
D03*
X194551D02*
D03*
X197701D02*
D03*
X200850D02*
D03*
X204000D02*
D03*
X207150D02*
D03*
X210299D02*
D03*
X213449D02*
D03*
X216598D02*
D03*
X219748D02*
D03*
X222898D02*
D03*
X226047D02*
D03*
X229197D02*
D03*
X232346D02*
D03*
X235496D02*
D03*
X238646D02*
D03*
X241795D02*
D03*
X244945D02*
D03*
X163055Y282244D02*
D03*
X166205D02*
D03*
X169354D02*
D03*
X172504D02*
D03*
X175654D02*
D03*
X178803D02*
D03*
X181953D02*
D03*
X185102D02*
D03*
X188252D02*
D03*
X191402D02*
D03*
X194551D02*
D03*
X197701D02*
D03*
X200850D02*
D03*
X204000D02*
D03*
X207150D02*
D03*
X210299D02*
D03*
X213449D02*
D03*
X216598D02*
D03*
X219748D02*
D03*
X222898D02*
D03*
X226047D02*
D03*
X229197D02*
D03*
X232346D02*
D03*
X235496D02*
D03*
X238646D02*
D03*
X241795D02*
D03*
X244945D02*
D03*
X192055Y151756D02*
D03*
X195205D02*
D03*
X198354D02*
D03*
X201504D02*
D03*
X204654D02*
D03*
X207803D02*
D03*
X210953D02*
D03*
X214102D02*
D03*
X217252D02*
D03*
X220402D02*
D03*
X223551D02*
D03*
X226701D02*
D03*
X229850D02*
D03*
X233000D02*
D03*
X236150D02*
D03*
X239299D02*
D03*
X242449D02*
D03*
X245598D02*
D03*
X248748D02*
D03*
X251898D02*
D03*
X255047D02*
D03*
X258197D02*
D03*
X261346D02*
D03*
X264496D02*
D03*
X267646D02*
D03*
X270795D02*
D03*
X273945D02*
D03*
X192055Y196244D02*
D03*
X195205D02*
D03*
X198354D02*
D03*
X201504D02*
D03*
X204654D02*
D03*
X207803D02*
D03*
X210953D02*
D03*
X214102D02*
D03*
X217252D02*
D03*
X220402D02*
D03*
X223551D02*
D03*
X226701D02*
D03*
X229850D02*
D03*
X233000D02*
D03*
X236150D02*
D03*
X239299D02*
D03*
X242449D02*
D03*
X245598D02*
D03*
X248748D02*
D03*
X251898D02*
D03*
X255047D02*
D03*
X258197D02*
D03*
X261346D02*
D03*
X264496D02*
D03*
X267646D02*
D03*
X270795D02*
D03*
X273945D02*
D03*
D20*
X514827Y230154D02*
D03*
X512858D02*
D03*
X510890D02*
D03*
X508921D02*
D03*
X506953D02*
D03*
X504984D02*
D03*
X503016D02*
D03*
X501047D02*
D03*
X499079D02*
D03*
X497110D02*
D03*
X495142D02*
D03*
X493173D02*
D03*
Y261846D02*
D03*
X495142D02*
D03*
X497110D02*
D03*
X499079D02*
D03*
X501047D02*
D03*
X503016D02*
D03*
X504984D02*
D03*
X506953D02*
D03*
X508921D02*
D03*
X510890D02*
D03*
X512858D02*
D03*
X514827D02*
D03*
D21*
X488154Y235173D02*
D03*
Y237142D02*
D03*
Y239110D02*
D03*
Y241079D02*
D03*
Y243047D02*
D03*
Y245016D02*
D03*
Y246984D02*
D03*
Y248953D02*
D03*
Y250921D02*
D03*
Y252890D02*
D03*
Y254858D02*
D03*
Y256827D02*
D03*
X519846D02*
D03*
Y254858D02*
D03*
Y252890D02*
D03*
Y250921D02*
D03*
Y248953D02*
D03*
Y246984D02*
D03*
Y245016D02*
D03*
Y243047D02*
D03*
Y241079D02*
D03*
Y239110D02*
D03*
Y237142D02*
D03*
Y235173D02*
D03*
D22*
X578000Y245374D02*
D03*
Y254626D02*
D03*
D23*
X344803Y183953D02*
D03*
Y187102D02*
D03*
Y190252D02*
D03*
Y193402D02*
D03*
Y196551D02*
D03*
Y199701D02*
D03*
Y202850D02*
D03*
Y206000D02*
D03*
Y209150D02*
D03*
Y212299D02*
D03*
Y215449D02*
D03*
Y218598D02*
D03*
Y221748D02*
D03*
Y224898D02*
D03*
Y228047D02*
D03*
Y231197D02*
D03*
X347953D02*
D03*
Y228047D02*
D03*
Y224898D02*
D03*
Y221748D02*
D03*
Y218598D02*
D03*
Y215449D02*
D03*
Y212299D02*
D03*
Y209150D02*
D03*
Y206000D02*
D03*
Y202850D02*
D03*
Y199701D02*
D03*
Y196551D02*
D03*
Y193402D02*
D03*
Y190252D02*
D03*
Y187102D02*
D03*
Y183953D02*
D03*
Y180803D02*
D03*
X354252D02*
D03*
Y183953D02*
D03*
Y187102D02*
D03*
Y190252D02*
D03*
Y193402D02*
D03*
Y196551D02*
D03*
Y199701D02*
D03*
Y202850D02*
D03*
Y206000D02*
D03*
Y209150D02*
D03*
Y212299D02*
D03*
Y215449D02*
D03*
Y218598D02*
D03*
Y221748D02*
D03*
Y224898D02*
D03*
Y228047D02*
D03*
Y231197D02*
D03*
X351102D02*
D03*
Y228047D02*
D03*
Y224898D02*
D03*
Y221748D02*
D03*
Y218598D02*
D03*
Y215449D02*
D03*
Y212299D02*
D03*
Y209150D02*
D03*
Y206000D02*
D03*
Y202850D02*
D03*
Y199701D02*
D03*
Y196551D02*
D03*
Y193402D02*
D03*
Y190252D02*
D03*
Y187102D02*
D03*
Y183953D02*
D03*
Y180803D02*
D03*
X363701D02*
D03*
Y183953D02*
D03*
Y187102D02*
D03*
Y190252D02*
D03*
Y221748D02*
D03*
Y224898D02*
D03*
Y228047D02*
D03*
Y231197D02*
D03*
X366850D02*
D03*
Y228047D02*
D03*
Y224898D02*
D03*
Y221748D02*
D03*
Y209150D02*
D03*
Y206000D02*
D03*
Y202850D02*
D03*
Y190252D02*
D03*
Y187102D02*
D03*
Y183953D02*
D03*
Y180803D02*
D03*
X360551D02*
D03*
Y183953D02*
D03*
Y187102D02*
D03*
Y190252D02*
D03*
Y221748D02*
D03*
Y224898D02*
D03*
Y228047D02*
D03*
Y231197D02*
D03*
X357402D02*
D03*
Y228047D02*
D03*
Y224898D02*
D03*
Y221748D02*
D03*
Y190252D02*
D03*
Y187102D02*
D03*
Y183953D02*
D03*
Y180803D02*
D03*
X382598D02*
D03*
Y183953D02*
D03*
Y187102D02*
D03*
Y190252D02*
D03*
Y221748D02*
D03*
Y224898D02*
D03*
Y228047D02*
D03*
Y231197D02*
D03*
X385748D02*
D03*
Y228047D02*
D03*
Y224898D02*
D03*
Y221748D02*
D03*
Y218598D02*
D03*
Y215449D02*
D03*
Y212299D02*
D03*
Y209150D02*
D03*
Y206000D02*
D03*
Y202850D02*
D03*
Y199701D02*
D03*
Y196551D02*
D03*
Y190252D02*
D03*
Y187102D02*
D03*
Y183953D02*
D03*
Y180803D02*
D03*
X392047D02*
D03*
Y183953D02*
D03*
Y187102D02*
D03*
Y190252D02*
D03*
Y193402D02*
D03*
Y196551D02*
D03*
Y199701D02*
D03*
Y202850D02*
D03*
Y206000D02*
D03*
Y209150D02*
D03*
Y212299D02*
D03*
Y215449D02*
D03*
Y218598D02*
D03*
Y221748D02*
D03*
Y224898D02*
D03*
Y228047D02*
D03*
Y231197D02*
D03*
X388898D02*
D03*
Y228047D02*
D03*
Y224898D02*
D03*
Y221748D02*
D03*
Y218598D02*
D03*
Y215449D02*
D03*
Y212299D02*
D03*
Y209150D02*
D03*
Y206000D02*
D03*
Y202850D02*
D03*
Y199701D02*
D03*
Y196551D02*
D03*
Y193402D02*
D03*
Y190252D02*
D03*
Y187102D02*
D03*
Y183953D02*
D03*
Y180803D02*
D03*
X376299D02*
D03*
Y183953D02*
D03*
Y187102D02*
D03*
Y190252D02*
D03*
Y221748D02*
D03*
Y224898D02*
D03*
Y228047D02*
D03*
Y231197D02*
D03*
X379449D02*
D03*
Y228047D02*
D03*
Y224898D02*
D03*
Y221748D02*
D03*
Y190252D02*
D03*
Y187102D02*
D03*
Y183953D02*
D03*
Y180803D02*
D03*
X373150D02*
D03*
Y183953D02*
D03*
Y187102D02*
D03*
Y190252D02*
D03*
Y202850D02*
D03*
Y206000D02*
D03*
Y209150D02*
D03*
Y221748D02*
D03*
Y224898D02*
D03*
Y228047D02*
D03*
Y231197D02*
D03*
X370000D02*
D03*
Y228047D02*
D03*
Y224898D02*
D03*
Y221748D02*
D03*
Y209150D02*
D03*
Y206000D02*
D03*
Y202850D02*
D03*
Y190252D02*
D03*
Y187102D02*
D03*
Y183953D02*
D03*
Y180803D02*
D03*
X395197Y231197D02*
D03*
Y228047D02*
D03*
Y224898D02*
D03*
Y221748D02*
D03*
Y218598D02*
D03*
Y215449D02*
D03*
Y212299D02*
D03*
Y209150D02*
D03*
Y206000D02*
D03*
Y202850D02*
D03*
Y199701D02*
D03*
Y196551D02*
D03*
Y193402D02*
D03*
Y190252D02*
D03*
Y187102D02*
D03*
Y183953D02*
D03*
Y180803D02*
D03*
X385748Y193402D02*
D03*
X344803Y180803D02*
D03*
D24*
X247008Y108126D02*
D03*
Y123874D02*
D03*
X272992Y108126D02*
D03*
Y123874D02*
D03*
D25*
Y116000D02*
D03*
D26*
X188000Y336260D02*
D03*
Y343740D02*
D03*
X429500Y344803D02*
D03*
Y352284D02*
D03*
D27*
X375500Y179000D02*
X376299Y179799D01*
X365301Y217049D02*
X366752Y218500D01*
X354252Y206000D02*
X363853Y215601D01*
X459000Y191000D02*
X463622D01*
X358500Y204000D02*
X364500Y198000D01*
X304500Y178800D02*
Y179500D01*
X301016Y182984D02*
X304500Y179500D01*
X303600Y181814D02*
Y187163D01*
Y181814D02*
X305014Y180400D01*
X305428Y181400D02*
X305577D01*
X304600Y182228D02*
X305428Y181400D01*
X304600Y182228D02*
Y187663D01*
X305600Y182643D02*
Y188077D01*
Y182643D02*
X305843Y182400D01*
X305991D01*
X306600Y183205D02*
Y188629D01*
X307600Y183620D02*
Y189043D01*
Y183620D02*
X310100Y181120D01*
X308600Y184034D02*
X311100Y181534D01*
X308600Y184034D02*
Y189457D01*
X309600Y184448D02*
Y189872D01*
Y184448D02*
X312100Y181948D01*
X310600Y184862D02*
X313100Y182362D01*
X310600Y184862D02*
Y190286D01*
X311600Y185276D02*
Y190700D01*
Y185276D02*
X314100Y182776D01*
X312600Y185691D02*
X315100Y183191D01*
X312600Y185691D02*
Y191114D01*
X313600Y186105D02*
Y191528D01*
Y186105D02*
X316100Y183605D01*
X315000Y186119D02*
X317100Y184019D01*
X315000Y186119D02*
Y188877D01*
X312100Y172743D02*
Y181948D01*
X313100Y180462D02*
Y182362D01*
X314100Y180876D02*
Y182776D01*
X315100Y181291D02*
Y183191D01*
X316100Y181705D02*
Y183605D01*
X317100Y182119D02*
Y184019D01*
X302000Y177500D02*
X303000Y176500D01*
X302000Y177500D02*
Y179037D01*
X300022Y181016D02*
X302000Y179037D01*
X299689Y178811D02*
X300900Y177600D01*
Y176600D02*
Y177600D01*
Y176600D02*
X301100Y176400D01*
Y175400D02*
Y176400D01*
Y175400D02*
X302600Y173900D01*
Y172225D02*
Y173900D01*
X297311Y177189D02*
X299000Y175500D01*
X286362Y177189D02*
X297311D01*
X322911Y180289D02*
X323638Y181016D01*
X321851Y180289D02*
X322911D01*
X321061Y179500D02*
X321851Y180289D01*
X319500Y179500D02*
X321061D01*
X321000Y178500D02*
X323327D01*
X323638Y178811D01*
X320100Y177600D02*
X321000Y178500D01*
X318500Y180500D02*
X319500Y179500D01*
X320500Y181500D02*
X321984Y182984D01*
X323638D01*
X320100Y171923D02*
Y177600D01*
X317100Y182119D02*
X317500Y181719D01*
X316100Y181705D02*
X316500Y181305D01*
X315100Y181291D02*
X315500Y180891D01*
X314100Y180876D02*
X314500Y180476D01*
X313100Y180462D02*
X313500Y180062D01*
X305014Y180400D02*
X305163D01*
X317500Y175500D02*
Y181719D01*
Y175500D02*
X319100Y173900D01*
X316500Y174800D02*
Y181305D01*
Y174800D02*
X318000Y173300D01*
X323638Y185189D02*
Y187862D01*
X321638Y189862D02*
X323638Y187862D01*
X346356Y194998D02*
X346367Y194987D01*
X346356Y194998D02*
X346356Y194998D01*
X346367Y194987D02*
X346378Y194976D01*
Y194976D02*
X347953Y196551D01*
X346367Y194987D02*
X346435Y195055D01*
X346356Y194976D02*
X346367Y194987D01*
X328362Y190862D02*
X328500Y191000D01*
X328362Y185189D02*
Y190862D01*
X331213Y183213D02*
X332500Y184500D01*
X332475Y182213D02*
X334400Y184137D01*
X328409Y181063D02*
X330123D01*
X332890Y181213D02*
X335500Y183823D01*
X331273Y182213D02*
X332475D01*
X331687Y181213D02*
X332890D01*
X330123Y181063D02*
X331273Y182213D01*
X328591Y183213D02*
X331213D01*
X328362Y182984D02*
X328591Y183213D01*
X329286Y178811D02*
X331687Y181213D01*
X328362Y181016D02*
X328409Y181063D01*
X349535Y191834D02*
X351102Y193402D01*
X328362Y178811D02*
X329286D01*
X332587Y179850D02*
X334845D01*
X332350Y179613D02*
X332587Y179850D01*
X334845D02*
X339000Y184005D01*
X335259Y178850D02*
X340000Y183591D01*
X334837Y178850D02*
X335259D01*
X333250Y177263D02*
X334837Y178850D01*
X335566Y166411D02*
X337089Y167934D01*
X335566Y164257D02*
Y166411D01*
X336566Y165996D02*
X337504Y166934D01*
X336566Y164671D02*
Y165996D01*
X339766Y165266D02*
X341000Y166500D01*
X339766Y165148D02*
Y165266D01*
Y165148D02*
X340000Y164914D01*
Y160843D02*
Y164914D01*
X339171Y166934D02*
X340928Y168691D01*
X337504Y166934D02*
X339171D01*
X337762Y167934D02*
X339328Y169500D01*
X337089Y167934D02*
X337762D01*
X334863Y174100D02*
X346991D01*
X334163Y173400D02*
X334863Y174100D01*
X327600Y173400D02*
X334163D01*
X335277Y173100D02*
X346577D01*
X334577Y172400D02*
X335277Y173100D01*
X326600Y172400D02*
X334577D01*
X335691Y172100D02*
X346163D01*
X334991Y171400D02*
X335691Y172100D01*
X324600Y171400D02*
X334991D01*
X334000Y167500D02*
Y168000D01*
X326500Y174500D02*
X327600Y173400D01*
X323000Y176000D02*
X326600Y172400D01*
X323000Y173000D02*
X324600Y171400D01*
X328362Y181016D02*
X328500D01*
X336566Y164671D02*
X337504Y163734D01*
X335566Y164257D02*
X336500Y163323D01*
X337504Y161175D02*
Y163734D01*
X298362Y181016D02*
X300022D01*
X298362Y178811D02*
X299689D01*
X315000Y188877D02*
X316090Y189967D01*
X307395Y192076D02*
X309600Y189872D01*
X306981Y191076D02*
X308600Y189457D01*
X306567Y190076D02*
X307600Y189043D01*
X306153Y189076D02*
X306600Y188629D01*
X301500Y192177D02*
X305600Y188077D01*
X300500Y191763D02*
X304600Y187663D01*
X302663Y188100D02*
X303600Y187163D01*
X302500Y192591D02*
X306015Y189076D01*
X306153D01*
X307809Y193076D02*
X310600Y190286D01*
X308224Y194076D02*
X311600Y190700D01*
X308675Y195040D02*
X312600Y191114D01*
X309500Y195628D02*
X313600Y191528D01*
X317500Y172800D02*
X318000Y173300D01*
X316090Y189967D02*
Y189967D01*
X317000Y190877D01*
Y191500D01*
X303500Y193005D02*
X306429Y190076D01*
X304500Y193420D02*
X306843Y191076D01*
X305500Y193834D02*
X307257Y192076D01*
X306500Y194248D02*
X307672Y193076D01*
X307500Y194662D02*
Y207172D01*
X306429Y190076D02*
X306567D01*
X306843Y191076D02*
X306981D01*
X307257Y192076D02*
X307395D01*
X307672Y193076D02*
X307809D01*
X307500Y194662D02*
X308086Y194076D01*
X308224D01*
X356500Y201263D02*
Y202000D01*
X299689Y185189D02*
X301500Y187000D01*
X298362Y185189D02*
X299689D01*
X299000Y191849D02*
Y204358D01*
Y191849D02*
X302663Y188186D01*
X300500Y191763D02*
Y204272D01*
X301500Y192177D02*
Y204686D01*
X302500Y192591D02*
Y205100D01*
X303500Y193005D02*
Y205515D01*
X304500Y193420D02*
Y205929D01*
X305500Y193834D02*
Y206343D01*
X306500Y194248D02*
Y206757D01*
X302663Y188100D02*
Y188186D01*
X362133Y185535D02*
X363701Y187102D01*
X297500Y187000D02*
X299000Y188500D01*
X292016Y191016D02*
X293500Y192500D01*
X294000Y195500D02*
X295500Y197000D01*
X293286Y195500D02*
X294000D01*
X290725Y192939D02*
X293286Y195500D01*
X318500Y180500D02*
Y186000D01*
X299827Y167173D02*
X302000Y165000D01*
X302163Y170100D02*
X303263Y169000D01*
X301400Y170100D02*
X302163D01*
X300084Y171416D02*
X301400Y170100D01*
X300622Y169378D02*
X301500Y168500D01*
X297500Y169378D02*
X300622D01*
X268991Y177191D02*
X275191D01*
X279189Y177189D02*
X281638D01*
X275500Y173500D02*
X279189Y177189D01*
X281820Y179400D02*
X282420Y180000D01*
X277180Y179400D02*
X281820D01*
X277595Y180400D02*
X281405D01*
X277495Y180500D02*
X277595Y180400D01*
X278009Y181400D02*
X280991D01*
X277909Y181500D02*
X278009Y181400D01*
X247257Y181500D02*
X277909D01*
X278423Y182400D02*
X280577D01*
X278323Y182500D02*
X278423Y182400D01*
X247672Y182500D02*
X278323D01*
X278837Y183400D02*
X280163D01*
X278737Y183500D02*
X278837Y183400D01*
X248086Y183500D02*
X278737D01*
X282420Y180000D02*
X291624D01*
X280163Y183400D02*
X280824Y184061D01*
X280577Y182400D02*
X281238Y183061D01*
X280991Y181400D02*
X281652Y182061D01*
X281405Y180400D02*
X282021Y181016D01*
X246843Y180500D02*
X277495D01*
X293175Y179774D02*
X294138Y178811D01*
X291851Y179774D02*
X293175D01*
X291624Y180000D02*
X291851Y179774D01*
X275914Y172500D02*
X278353Y174939D01*
X224535Y174061D02*
X226096Y172500D01*
X276328Y171500D02*
X277889Y173061D01*
X224121D02*
X225682Y171500D01*
X251263Y170500D02*
X281327D01*
X223500D02*
X249737D01*
X281327D02*
X281638Y170811D01*
X223189D02*
X223500Y170500D01*
X252505Y173500D02*
X275500D01*
X252405Y173600D02*
X252505Y173500D01*
X248595Y173600D02*
X252405D01*
X248495Y173500D02*
X248595Y173600D01*
X226510Y173500D02*
X248495D01*
X252091Y172500D02*
X275914D01*
X251991Y172600D02*
X252091Y172500D01*
X249009Y172600D02*
X251991D01*
X248909Y172500D02*
X249009Y172600D01*
X226096Y172500D02*
X248909D01*
X251677Y171500D02*
X276328D01*
X251577Y171600D02*
X251677Y171500D01*
X249423Y171600D02*
X251577D01*
X249323Y171500D02*
X249423Y171600D01*
X225682Y171500D02*
X249323D01*
X251163Y170600D02*
X251263Y170500D01*
X249837Y170600D02*
X251163D01*
X249737Y170500D02*
X249837Y170600D01*
X224949Y175061D02*
X226510Y173500D01*
X201504Y180496D02*
X209000Y173000D01*
X222196D01*
X221429Y175061D02*
X224949D01*
X221368Y175000D02*
X221429Y175061D01*
X219189Y175000D02*
X221368D01*
X221843Y174061D02*
X224535D01*
X221782Y174000D02*
X221843Y174061D01*
X218775Y174000D02*
X221782D01*
X222257Y173061D02*
X224121D01*
X222196Y173000D02*
X222257Y173061D01*
X277889D02*
X281592D01*
X278353Y174939D02*
X281592D01*
X217836D02*
X218775Y174000D01*
X211561Y174939D02*
X217836D01*
X217000Y177189D02*
X219189Y175000D01*
X204654Y181846D02*
X211561Y174939D01*
X281592D02*
X281638Y174984D01*
X277080Y179500D02*
X277180Y179400D01*
X250615Y179500D02*
X277080D01*
X249926Y178811D02*
X250615Y179500D01*
X246327Y181016D02*
X246843Y180500D01*
X236984Y181016D02*
X246327D01*
X246696Y182061D02*
X247257Y181500D01*
X239299Y192287D02*
X248086Y183500D01*
X247111Y183061D02*
X247672Y182500D01*
X236939Y181061D02*
X236984Y181016D01*
X281652Y182061D02*
X290738D01*
X228257D02*
X246696D01*
X290738D02*
X291661Y182984D01*
X290324Y183061D02*
X291489Y184226D01*
X281238Y183061D02*
X290324D01*
X230439D02*
X247111D01*
X278500Y187000D02*
X297500D01*
X291489Y184226D02*
X292675D01*
X280824Y184061D02*
X281561D01*
X282500Y185000D01*
X277250Y185750D02*
X278500Y187000D01*
X249250Y185750D02*
X277250D01*
X245598Y189402D02*
X249250Y185750D01*
X276250Y186750D02*
X280516Y191016D01*
X251750Y186750D02*
X276250D01*
X248748Y189752D02*
X251750Y186750D01*
X275250Y187750D02*
X280484Y192984D01*
X255750Y187750D02*
X275250D01*
X251898Y191602D02*
X255750Y187750D01*
X272932Y188750D02*
X278500Y194318D01*
X258164Y188750D02*
X272932D01*
X255047Y191867D02*
X258164Y188750D01*
X235189Y178811D02*
X249926D01*
X264496Y163996D02*
Y167996D01*
X265833Y169333D02*
X292730D01*
X264496Y167996D02*
X265833Y169333D01*
X292730D02*
X292776Y169378D01*
X281418Y168100D02*
X286788D01*
X279500Y166182D02*
X281418Y168100D01*
X286788D02*
X287715Y167173D01*
X292776D01*
X278577Y216250D02*
X281638Y213189D01*
X272500Y214000D02*
X274750Y216250D01*
X278577D01*
X276500Y214000D02*
X279516Y210984D01*
X281638D01*
X275000Y210000D02*
X275984Y209016D01*
X272500Y207500D02*
Y214000D01*
X257000Y214500D02*
X259379Y212121D01*
X261346Y210154D01*
Y196244D02*
Y210154D01*
X257000Y214500D02*
Y254000D01*
X264496Y208004D02*
Y212504D01*
X258000Y219000D02*
X264496Y212504D01*
X258000Y219000D02*
Y256500D01*
X483547Y248953D02*
X488154D01*
X482500Y250000D02*
X483547Y248953D01*
X479500Y250000D02*
X482500D01*
X476500Y247000D02*
X479500Y250000D01*
X479579Y241079D02*
X488154D01*
X478158Y242500D02*
X479579Y241079D01*
X476500Y251000D02*
X488075D01*
X473500Y246000D02*
Y252500D01*
X474500Y253500D01*
X482500D01*
X474000Y254500D02*
X481000D01*
X473000Y255500D02*
X480500D01*
X472000Y252500D02*
X474000Y254500D01*
X471000Y253500D02*
X473000Y255500D01*
X392000Y118500D02*
X402750Y129250D01*
X391586Y119500D02*
X402336Y130250D01*
X332000Y139500D02*
X352000Y119500D01*
X391172Y120500D02*
X401922Y131250D01*
X334000Y138914D02*
X352414Y120500D01*
X351586Y118500D02*
X392000D01*
X345086Y125000D02*
X351586Y118500D01*
X339500Y125000D02*
X345086D01*
X352000Y119500D02*
X391586D01*
X352414Y120500D02*
X391172D01*
X390757Y121500D02*
X401507Y132250D01*
X352828Y121500D02*
X390757D01*
X337000Y137328D02*
X352828Y121500D01*
X325500Y139000D02*
X339500Y125000D01*
X202318Y139000D02*
X211000D01*
X195205Y146113D02*
Y151756D01*
Y146113D02*
X202318Y139000D01*
X215000Y144000D02*
X235657D01*
X214102Y144898D02*
X215000Y144000D01*
X214102Y144898D02*
Y151756D01*
X213257Y140000D02*
X234000D01*
X212629Y140629D02*
X213257Y140000D01*
X212629Y140629D02*
Y140629D01*
X211000Y139000D02*
X212629Y140629D01*
X212485Y142187D02*
X213672Y141000D01*
X211952Y141654D02*
X212485Y142187D01*
X212086Y144000D02*
X214086Y142000D01*
X203000Y144000D02*
X212086D01*
X214500Y143000D02*
X235243D01*
X210953Y146547D02*
X214500Y143000D01*
X214086Y142000D02*
X234828D01*
X213672Y141000D02*
X234414D01*
X201504Y145496D02*
X203000Y144000D01*
X208154Y141654D02*
X211952D01*
X294500Y176000D02*
X297000Y173500D01*
X290000Y176000D02*
X294500D01*
X286362Y173016D02*
X291500D01*
X289916Y171416D02*
X300084D01*
X419500Y255000D02*
X424000D01*
X482568Y225250D02*
X483568Y224250D01*
X479068Y225250D02*
X482568D01*
X478818Y225000D02*
X479068Y225250D01*
X478500Y225000D02*
X478818D01*
X485750Y224250D02*
X487500Y226000D01*
X483568Y224250D02*
X485750D01*
X477000Y226500D02*
X478500Y225000D01*
X435000Y182000D02*
Y189500D01*
X433500Y180500D02*
X435000Y182000D01*
X420000Y180500D02*
X433500D01*
X433000Y191500D02*
X435000Y189500D01*
X425500Y191500D02*
X433000D01*
X271500Y136500D02*
X300661D01*
X267646Y140354D02*
X271500Y136500D01*
X267646Y140354D02*
Y151756D01*
X201504Y145496D02*
Y151756D01*
X501122Y193000D02*
X521000D01*
X500122Y192000D02*
X501122Y193000D01*
X521000D02*
X523000Y191000D01*
X278500Y194318D02*
Y201500D01*
X272500Y207500D02*
X278500Y201500D01*
X277000Y206500D02*
X277311Y206811D01*
X273945Y196244D02*
Y202445D01*
X295000Y209772D02*
Y216500D01*
X296000Y210186D02*
Y217000D01*
X297000Y210600D02*
Y217414D01*
X298000Y211015D02*
Y217828D01*
X299000Y211429D02*
Y218243D01*
X300000Y211843D02*
Y218657D01*
X301000Y212257D02*
Y219071D01*
X302000Y212672D02*
Y219485D01*
X303000Y213086D02*
Y219900D01*
X308500Y195076D02*
Y207586D01*
X295858Y207500D02*
X299000Y204358D01*
X295000Y207500D02*
X295858D01*
X295000Y209772D02*
X300500Y204272D01*
X296000Y210186D02*
X301500Y204686D01*
X297000Y210600D02*
X302500Y205100D01*
X298000Y211015D02*
X303500Y205515D01*
X299000Y211429D02*
X304500Y205929D01*
X300000Y211843D02*
X305500Y206343D01*
X301000Y212257D02*
X306500Y206757D01*
X302000Y212672D02*
X307500Y207172D01*
X303000Y213086D02*
X308500Y207586D01*
X309500Y195628D02*
Y208000D01*
X304000Y213500D02*
X309500Y208000D01*
X304000Y213500D02*
Y220314D01*
X312291Y218000D02*
Y220709D01*
X314000Y225000D02*
X321000D01*
X322000Y224000D01*
X336000D01*
X244945Y231055D02*
Y237756D01*
X207803Y196244D02*
Y202803D01*
X198354Y196244D02*
Y202854D01*
X192055Y196244D02*
Y202945D01*
X346400Y210724D02*
Y210770D01*
Y210702D02*
Y210724D01*
X376935Y177565D02*
X383500Y171000D01*
X302600Y172225D02*
X303663Y171163D01*
X304814Y169000D02*
X305400Y169586D01*
X303263Y169000D02*
X304814D01*
X297500Y167173D02*
X299827D01*
X297500Y165205D02*
X299295D01*
X302000Y162500D01*
X317400Y165100D02*
X320175Y162325D01*
X319600Y169100D02*
X321000Y170500D01*
X319000Y167500D02*
X330000D01*
X346407Y191856D02*
X347953Y193402D01*
X349570Y188720D02*
X351102Y190252D01*
X302000Y162500D02*
X303500D01*
X305900Y166976D02*
X306400Y167476D01*
X305900Y159024D02*
Y166976D01*
Y159024D02*
X306400Y158524D01*
Y158286D02*
Y158524D01*
X307400Y158701D02*
Y158938D01*
X306900Y159438D02*
X307400Y158938D01*
X306900Y159438D02*
Y166562D01*
X307400Y167062D01*
X307900Y166148D02*
X308400Y166648D01*
X307900Y159852D02*
Y166148D01*
Y159852D02*
X308400Y159352D01*
Y159115D02*
Y159352D01*
X309400Y159529D02*
Y159766D01*
X308900Y160266D02*
X309400Y159766D01*
X308900Y160266D02*
Y165734D01*
X309400Y166234D01*
X309900Y165320D02*
X310400Y165820D01*
X309900Y160680D02*
Y165320D01*
Y160680D02*
X310400Y160180D01*
Y159943D02*
Y160180D01*
X311400Y160357D02*
Y160595D01*
X310900Y161095D02*
X311400Y160595D01*
X310900Y161095D02*
Y164905D01*
X311400Y165405D01*
X311900Y164491D02*
X312400Y164991D01*
X311900Y161509D02*
Y164491D01*
Y161509D02*
X312400Y161009D01*
Y160772D02*
Y161009D01*
X313400Y161186D02*
Y161423D01*
X312900Y161923D02*
X313400Y161423D01*
X312900Y161923D02*
Y164077D01*
X313400Y164577D01*
X313900Y163663D02*
X314400Y164163D01*
X313900Y162337D02*
Y163663D01*
Y162337D02*
X314400Y161837D01*
Y161600D02*
Y161837D01*
Y161600D02*
X315675Y160325D01*
X313400Y161186D02*
X315261Y159325D01*
X312400Y160772D02*
X314847Y158325D01*
X311400Y160357D02*
X314433Y157325D01*
X310400Y159943D02*
X311100Y159243D01*
X309400Y159529D02*
X310100Y158829D01*
X308400Y159115D02*
X309100Y158415D01*
X307400Y158701D02*
X308100Y158001D01*
X306400Y158286D02*
X307100Y157586D01*
X331323Y162500D02*
X331500D01*
X334566Y163842D02*
X335500Y162909D01*
Y162496D02*
Y162909D01*
X331254Y158250D02*
X335500Y162496D01*
X336500Y162081D02*
Y163323D01*
X331669Y157250D02*
X336500Y162081D01*
X335578Y159250D02*
X337504Y161175D01*
X335083Y159250D02*
X335578D01*
X332083Y156250D02*
X335083Y159250D01*
X332497Y155250D02*
X335497Y158250D01*
X335993D01*
X339000Y161257D01*
Y164500D01*
X336407Y157250D02*
X340000Y160843D01*
X335911Y157250D02*
X336407D01*
X332911Y154250D02*
X335911Y157250D01*
X341000Y162500D02*
X343500Y165000D01*
X341000Y160429D02*
Y162500D01*
X336821Y156250D02*
X341000Y160429D01*
X336325Y156250D02*
X336821D01*
X333325Y153250D02*
X336325Y156250D01*
X336740Y155250D02*
X343864D01*
X334250Y152760D02*
X336740Y155250D01*
X337154Y154250D02*
X344278D01*
X335250Y152346D02*
X337154Y154250D01*
X337568Y153250D02*
X344693D01*
X336250Y151932D02*
X337568Y153250D01*
X334250Y152265D02*
Y152760D01*
X335250Y151850D02*
Y152346D01*
X334649Y151250D02*
X335250Y151850D01*
X336250Y151436D02*
Y151932D01*
X335041Y150227D02*
X336250Y151436D01*
X334000Y146237D02*
X338500Y150737D01*
X330000Y160000D02*
Y160500D01*
X328175Y162325D02*
X330000Y160500D01*
X317863Y171100D02*
X319100Y172337D01*
X317509Y171100D02*
X317863D01*
X316400Y164600D02*
X319675Y161325D01*
X311100Y158643D02*
Y159243D01*
Y158643D02*
X315775Y153967D01*
X310100Y155900D02*
Y158829D01*
X309100Y152400D02*
Y158415D01*
X308100Y146868D02*
Y158001D01*
X307100Y147282D02*
Y157586D01*
X315675Y160325D02*
X323175D01*
X315261Y159325D02*
X320175D01*
X314847Y158325D02*
X318175D01*
X318775Y157725D01*
X316175Y157325D02*
X318250Y155250D01*
X314433Y157325D02*
X316175D01*
X315500Y163000D02*
Y164086D01*
X319675Y161325D02*
X326938D01*
X319100Y172337D02*
Y173900D01*
X315400Y164186D02*
X315500Y164086D01*
X328823Y165000D02*
X331323Y162500D01*
X320500Y165000D02*
X328823D01*
X326938Y161325D02*
X327600Y160663D01*
X320175Y162325D02*
X328175D01*
X416192Y177192D02*
X418000Y179000D01*
X323175Y160325D02*
X325500Y158000D01*
X326991Y154400D02*
X329234Y156643D01*
X329600D01*
X328943Y149281D02*
X331305Y151643D01*
X328943Y148543D02*
Y149281D01*
X338500Y150737D02*
Y150818D01*
X329648Y155643D02*
X330385D01*
X334000Y138914D02*
Y146237D01*
X330943Y148452D02*
X332134Y149643D01*
X329943Y148866D02*
X331719Y150643D01*
X328648Y150400D02*
X330891Y152643D01*
X328395Y150400D02*
X328648D01*
X328234Y151400D02*
X330477Y153643D01*
X327980Y151400D02*
X328234D01*
X327820Y152400D02*
X330063Y154643D01*
X327566Y152400D02*
X327820D01*
X327405Y153400D02*
X329648Y155643D01*
X327152Y153400D02*
X327405D01*
X326738Y154400D02*
X326991D01*
X328100Y156923D02*
Y157176D01*
X326577Y155400D02*
X328100Y156923D01*
X326324Y155400D02*
X326577D01*
X327100Y157337D02*
Y157591D01*
X326163Y156400D02*
X327100Y157337D01*
X325909Y156400D02*
X326163D01*
X332134Y149643D02*
X332871D01*
X330943Y147715D02*
Y148452D01*
X331719Y150643D02*
X332457D01*
X329943Y148129D02*
Y148866D01*
X331305Y151643D02*
X332042D01*
X330891Y152643D02*
X331628D01*
X327943Y149948D02*
X328395Y150400D01*
X330477Y153643D02*
X331214D01*
X326943Y150363D02*
X327980Y151400D01*
X330063Y154643D02*
X330800D01*
X325943Y150777D02*
X327566Y152400D01*
X324943Y151191D02*
X327152Y153400D01*
X323943Y151605D02*
X326738Y154400D01*
X328100Y157176D02*
X328567Y157643D01*
X322943Y152019D02*
X326324Y155400D01*
X327100Y157591D02*
X327600Y158091D01*
X321943Y152434D02*
X325909Y156400D01*
X320175Y159325D02*
X323000Y156500D01*
X320275Y157725D02*
X320500Y157500D01*
X318775Y157725D02*
X320275D01*
X441984Y173016D02*
X442000Y173000D01*
X445750Y169250D01*
X320000Y156500D02*
X320500Y157000D01*
Y157500D01*
X327600Y158091D02*
Y160663D01*
X321943Y151443D02*
Y152434D01*
X307750Y137250D02*
X321943Y151443D01*
X328600Y157643D02*
Y158250D01*
X328567Y157643D02*
X328600D01*
X322943Y151029D02*
Y152019D01*
X308164Y136250D02*
X322943Y151029D01*
X329600Y156643D02*
Y157250D01*
X323943Y150615D02*
Y151605D01*
X308578Y135250D02*
X323943Y150615D01*
X330385Y155643D02*
X330600Y155857D01*
X324943Y150200D02*
Y151191D01*
X308993Y134250D02*
X324943Y150200D01*
X330800Y154643D02*
X331407Y155250D01*
X325943Y149786D02*
Y150777D01*
X309407Y133250D02*
X325943Y149786D01*
X331214Y153643D02*
X331821Y154250D01*
X326943Y149372D02*
Y150363D01*
X331628Y152643D02*
X332235Y153250D01*
X327943Y148958D02*
Y149948D01*
X319500Y140515D02*
X327943Y148958D01*
X332042Y151643D02*
X332649Y152250D01*
X321500Y141101D02*
X328943Y148543D01*
X332457Y150643D02*
X333064Y151250D01*
X322500Y140686D02*
X329943Y148129D01*
X332871Y149643D02*
X333455Y150227D01*
X325500Y142272D02*
X330943Y147715D01*
X333455Y150227D02*
X335041D01*
X333064Y151250D02*
X334649D01*
X332649Y152250D02*
X334235D01*
X332235Y153250D02*
X333325D01*
X331821Y154250D02*
X332911D01*
X331407Y155250D02*
X332497D01*
X330600Y156250D02*
X332083D01*
X330600Y155857D02*
Y156250D01*
X329600Y157250D02*
X331669D01*
X328600Y158250D02*
X331254D01*
X301825Y136250D02*
X308164D01*
X302240Y135250D02*
X308578D01*
X302654Y134250D02*
X308993D01*
X303068Y133250D02*
X309407D01*
X322500Y132500D02*
Y140686D01*
X325500Y139000D02*
Y142272D01*
X321500Y135000D02*
Y141101D01*
X319500Y139818D02*
Y140515D01*
X301411Y137250D02*
X307750D01*
X339228Y187900D02*
X341000Y189672D01*
X338400Y187900D02*
X339228D01*
X338000Y187500D02*
X338400Y187900D01*
X338500Y189500D02*
Y191500D01*
X337500Y186000D02*
Y188000D01*
X334400Y192500D02*
X335500Y191400D01*
Y183823D02*
Y191400D01*
X332400Y188600D02*
X334400Y186600D01*
Y184137D02*
Y186600D01*
X334000Y192500D02*
X334400D01*
X332500Y193263D02*
Y195000D01*
X332400Y193163D02*
X332500Y193263D01*
X332400Y188600D02*
Y193163D01*
X332500Y195000D02*
X334400Y196900D01*
Y204100D01*
X333000Y205500D02*
X334400Y204100D01*
X333000Y205500D02*
Y207000D01*
X338000Y191500D02*
X338500D01*
X337000Y210500D02*
X339500Y208000D01*
X340600Y210837D02*
Y216400D01*
X338000Y200500D02*
Y201000D01*
X339500Y205172D02*
Y208000D01*
X340500Y210737D02*
X340600Y210837D01*
X339000Y218000D02*
X340600Y216400D01*
X337500Y188000D02*
X338000Y187500D01*
X343602Y187102D02*
X344803D01*
X343100Y186600D02*
X343602Y187102D01*
X342323Y188500D02*
X342500D01*
X341837Y186600D02*
X343100D01*
X339000Y185177D02*
X342323Y188500D01*
X339000Y184005D02*
Y185177D01*
X340000Y184763D02*
X341837Y186600D01*
X340000Y183591D02*
Y184763D01*
X341000Y183500D02*
X342500Y185000D01*
X341000Y183177D02*
Y183500D01*
X335500Y177677D02*
X341000Y183177D01*
X340500Y206000D02*
Y210737D01*
X336000Y197500D02*
Y203914D01*
X341337Y182100D02*
X342950D01*
X338500Y179263D02*
X341337Y182100D01*
X338500Y177000D02*
Y179263D01*
X336000Y197500D02*
X338500Y195000D01*
X335900Y204014D02*
Y211272D01*
X346385Y201283D02*
X347953Y202850D01*
X341449Y196551D02*
X344803D01*
X339600Y198400D02*
X341449Y196551D01*
X340386Y195114D02*
X343886D01*
X338000Y191500D02*
X338500Y192000D01*
X339600Y198400D02*
Y203077D01*
X338500Y204177D02*
X339600Y203077D01*
X338500Y204177D02*
Y206500D01*
X337000Y210500D02*
Y211586D01*
X335900Y204014D02*
X336000Y203914D01*
X340500Y206000D02*
X341400Y205100D01*
X337500Y207500D02*
X338500Y206500D01*
X334400Y212772D02*
Y218314D01*
Y212772D02*
X335900Y211272D01*
X335400Y213186D02*
X337000Y211586D01*
X339500Y205172D02*
X341697Y202975D01*
X341400Y205100D02*
X342663D01*
X343650Y204113D01*
Y202850D02*
Y204113D01*
X341000Y189823D02*
X341429Y190252D01*
X341000Y189672D02*
Y189823D01*
X365301Y216538D02*
Y217049D01*
X364364Y215601D02*
X365301Y216538D01*
X363853Y215601D02*
X364364D01*
X363701Y217201D02*
Y221748D01*
X338500Y211500D02*
X339000D01*
X337500Y212500D02*
X338500Y211500D01*
X346400Y210702D02*
X347953Y209150D01*
X343453Y210500D02*
X344803Y209150D01*
X342500Y210500D02*
X343453D01*
X344803Y212299D02*
X346378Y213874D01*
X398500Y209000D02*
X400500Y211000D01*
X395346Y209000D02*
X398500D01*
X428000Y220000D02*
Y265000D01*
X417000Y209000D02*
X428000Y220000D01*
X400500Y211000D02*
Y215500D01*
X457500Y204000D02*
Y204500D01*
X456000Y199000D02*
X470500D01*
X452000Y198500D02*
X457500Y204000D01*
X452000Y195000D02*
Y198500D01*
Y195000D02*
X458250Y188750D01*
X455000Y188000D02*
X456189Y186811D01*
X463638D01*
X346378Y220173D02*
X347953Y218598D01*
X462500Y193500D02*
Y196500D01*
Y193500D02*
X462811Y193189D01*
X463638D01*
X217500Y220000D02*
X243500D01*
X210500Y227000D02*
X217500Y220000D01*
X210500Y227000D02*
Y230500D01*
X283638Y166500D02*
X285327D01*
X282021Y181016D02*
X293638D01*
X291661Y182984D02*
X293638D01*
X285500Y185000D02*
X285664Y185164D01*
X290164D01*
X292675Y184226D02*
X293638Y185189D01*
X292847Y182984D02*
X293638D01*
X334566Y163842D02*
Y167434D01*
X334000Y168000D02*
X334566Y167434D01*
X334235Y152250D02*
X334250Y152265D01*
X343000Y157500D02*
X344700D01*
X330000Y167500D02*
X332284Y165216D01*
X344102Y199000D02*
X344803Y199701D01*
X288407Y192939D02*
X290725D01*
X341697Y202975D02*
X342000Y203278D01*
X315775Y152775D02*
Y153967D01*
X311050Y148050D02*
Y150450D01*
X309100Y152400D02*
X311050Y150450D01*
X308000Y146768D02*
X308100Y146868D01*
X308000Y146151D02*
Y146768D01*
X303500Y143682D02*
X307100Y147282D01*
X288984Y174984D02*
X290000Y176000D01*
X342337Y170600D02*
X345400D01*
X384795Y183000D02*
X385748Y183953D01*
X383551Y183000D02*
X384795D01*
X382598Y183953D02*
X383551Y183000D01*
X316543Y253500D02*
X324000D01*
X335000Y234000D02*
Y247000D01*
Y234000D02*
X339500Y229500D01*
X288362Y195189D02*
X291189D01*
X279500Y161500D02*
Y166182D01*
X354252Y206000D02*
X354626Y205626D01*
X335000Y229500D02*
X338500Y226000D01*
X303500Y143000D02*
Y143682D01*
X308000Y146151D02*
X308575Y145575D01*
X286362Y174984D02*
X288984D01*
X286362Y170811D02*
X289311D01*
X279500Y161500D02*
X281724Y159276D01*
X287500Y159500D02*
X291189Y163189D01*
X297500Y169378D02*
X297545Y169423D01*
X263311Y143189D02*
X271000Y135500D01*
X263516Y140984D02*
X270000Y134500D01*
X262984Y139016D02*
X268500Y133500D01*
X260362Y136811D02*
X264673Y132500D01*
X299000Y163000D02*
X301500Y160500D01*
X297500Y163000D02*
X299000D01*
X270795Y192205D02*
X272000Y191000D01*
X270795Y192205D02*
Y196244D01*
X267646Y191646D02*
Y196244D01*
X425372Y172750D02*
X425638Y173016D01*
X420164Y173750D02*
X421398Y174984D01*
X419750Y174750D02*
X422189Y177189D01*
X411500Y176500D02*
X413250Y174750D01*
X419750D01*
X411250Y173750D02*
X420164D01*
X406000Y172942D02*
X406192Y172750D01*
X416384Y177000D02*
X416500D01*
X416192Y177192D02*
X416384Y177000D01*
X411836Y165664D02*
X418516Y158984D01*
X399086Y189000D02*
X401336Y186750D01*
X402250D01*
X401000Y196000D02*
X402075D01*
X397146Y198500D02*
X402404D01*
X395197Y196551D02*
X397146Y198500D01*
X402413Y193400D02*
X402813Y193000D01*
X406500Y192000D02*
X407500Y191000D01*
X409291D01*
X395197Y206000D02*
X396318D01*
X402096Y191500D02*
X403596Y190000D01*
X407500Y180500D02*
Y186096D01*
X402813Y193000D02*
X403621D01*
X408500Y180000D02*
Y186510D01*
X398453Y183953D02*
X398500Y184000D01*
X424827Y170000D02*
X425638Y170811D01*
X412293Y199283D02*
Y218707D01*
X410293Y200111D02*
Y219793D01*
X409291Y191000D02*
X414291Y186000D01*
X411500Y176500D02*
Y178000D01*
X417000Y200500D02*
Y209000D01*
X410293Y219793D02*
X413750Y223250D01*
X413846D01*
X415750Y225154D01*
X418500Y196000D02*
X422500Y200000D01*
Y203957D01*
X422457Y204000D02*
X422500Y203957D01*
X418500Y196000D02*
X428850D01*
X421250Y224154D02*
Y229750D01*
X419500Y231500D02*
X421250Y229750D01*
X420250Y224568D02*
Y228750D01*
X429750Y214250D02*
Y236250D01*
X395197Y193402D02*
X395402D01*
X416000Y225500D02*
X418000D01*
X415750Y225250D02*
X416000Y225500D01*
X415750Y225154D02*
Y225250D01*
X352291Y134000D02*
Y141709D01*
X478811Y193189D02*
X481638D01*
X477500Y194500D02*
X478811Y193189D01*
X458250Y188750D02*
X463372D01*
X463622Y191000D02*
X463638Y190984D01*
X463372Y188750D02*
X463638Y189016D01*
X357500Y217000D02*
X359500D01*
X355949Y215449D02*
X357500Y217000D01*
X354252Y215449D02*
X355949D01*
X354252Y209150D02*
X354650D01*
X470500Y199000D02*
X478516Y190984D01*
X476500Y182500D02*
Y191414D01*
X474725Y193189D02*
X476500Y191414D01*
X468362Y193189D02*
X474725D01*
X478516Y190984D02*
X481638D01*
X494000Y192000D02*
X500122D01*
X493000Y193000D02*
X494000Y192000D01*
X487500Y193000D02*
X493000D01*
X486362Y189016D02*
X488500D01*
X489705Y187811D01*
X491138D01*
X275984Y209016D02*
X281638D01*
X277311Y206811D02*
X281638D01*
X258197Y196244D02*
Y205303D01*
X256000Y207500D02*
X258197Y205303D01*
X264496Y196244D02*
Y208004D01*
X288000Y203500D02*
X290000D01*
X286362Y205138D02*
X288000Y203500D01*
X286362Y205138D02*
Y206811D01*
X278500Y244399D02*
Y267000D01*
X277500Y243985D02*
Y247485D01*
X276500Y243571D02*
Y247071D01*
X275500Y243157D02*
Y246657D01*
X274500Y242743D02*
Y246243D01*
X273500Y242328D02*
Y245828D01*
X272500Y241914D02*
Y245414D01*
X271500Y241500D02*
Y245000D01*
X392047Y183953D02*
X393622Y182378D01*
X366707Y180207D02*
Y181293D01*
X437484Y174984D02*
X438500Y176000D01*
X443000D01*
X446500Y172500D01*
X430362Y174984D02*
X437484D01*
X421398D02*
X425638D01*
X417725Y161189D02*
X425638D01*
X418516Y158984D02*
X425638D01*
X422189Y177189D02*
X425638D01*
X419311Y145189D02*
X425638D01*
X420016Y142984D02*
X425638D01*
X418984Y141016D02*
X425638D01*
X417500Y139000D02*
X425449D01*
X425638Y138811D01*
X438500Y148000D02*
X446500Y156000D01*
X424500Y148000D02*
X438500D01*
X421500Y151000D02*
X424500Y148000D01*
X449500Y133500D02*
Y134000D01*
X449000D02*
X449500Y133500D01*
X449732Y133268D01*
X449000Y134000D02*
X449500D01*
X426750Y117250D02*
X430362Y120862D01*
X404000Y127000D02*
X413750Y117250D01*
X426750D01*
X416000Y119500D02*
X424500D01*
X430362Y120862D02*
Y122811D01*
X409500Y126000D02*
X416000Y119500D01*
X412250Y132250D02*
X415311Y129189D01*
X411750Y131250D02*
X416016Y126984D01*
X410750Y130250D02*
X415984Y125016D01*
X410250Y129250D02*
X416689Y122811D01*
X402750Y129250D02*
X410250D01*
X402336Y130250D02*
X410750D01*
X401922Y131250D02*
X411750D01*
X401507Y132250D02*
X412250D01*
X445568Y131750D02*
Y132432D01*
X441500Y136500D02*
X445568Y132432D01*
X439000Y136500D02*
X441500D01*
X441189Y138811D02*
X444764Y135236D01*
X431689Y138811D02*
X441189D01*
X444764Y135236D02*
X447054D01*
X449154Y135750D02*
X450932D01*
X448654Y136250D02*
X449154Y135750D01*
X448068Y136250D02*
X448654D01*
X447054Y135236D02*
X448068Y136250D01*
X449568Y136750D02*
X451432D01*
X448250Y138068D02*
X449568Y136750D01*
X448250Y138068D02*
Y139068D01*
X452000Y138500D02*
X455500D01*
X451000Y139500D02*
X452000Y138500D01*
X451446Y135236D02*
X460205D01*
X450932Y135750D02*
X451446Y135236D01*
X448568Y131250D02*
X450432D01*
X448068Y131750D02*
X448568Y131250D01*
X445568Y131750D02*
X448068D01*
X451932Y137250D02*
X460160D01*
X434500Y132000D02*
X439000Y136500D01*
X430500Y132000D02*
X434500D01*
X427000Y135500D02*
X430500Y132000D01*
X424000Y135500D02*
X427000D01*
X422000Y137500D02*
X424000Y135500D01*
X417500Y137500D02*
X422000D01*
X416500Y136500D02*
X417500Y137500D01*
X416500Y132000D02*
Y136500D01*
X421500Y134000D02*
X425551D01*
X415311Y129189D02*
X425638D01*
X416016Y126984D02*
X425638D01*
X415984Y125016D02*
X425638D01*
X416689Y122811D02*
X425638D01*
X366850Y180350D02*
Y180803D01*
X366707Y180207D02*
X366850Y180350D01*
X456000Y218000D02*
X461543D01*
X379449Y187102D02*
X381017Y185535D01*
Y185578D01*
X428551Y179000D02*
X430362Y177189D01*
X425551Y134000D02*
X430362Y129189D01*
X308350Y145351D02*
X308575Y145575D01*
X310825Y147825D02*
X311050Y148050D01*
X317500Y131000D02*
X321500Y135000D01*
X410682Y226500D02*
X412500D01*
X406828D02*
X407500D01*
X395197Y221748D02*
X395425D01*
X401500Y225500D02*
X402000Y225000D01*
X493500D02*
Y226165D01*
X442000Y217500D02*
X449000D01*
X441500Y222500D02*
Y223000D01*
X432500Y217500D02*
X433000Y218000D01*
X398000D02*
X400500Y215500D01*
X388898Y218598D02*
X390472Y217024D01*
Y216980D02*
Y217024D01*
X498921Y271921D02*
X501543D01*
X498000Y271000D02*
X498921Y271921D01*
X439000Y220500D02*
X441000Y222500D01*
X436000Y220500D02*
X439000D01*
X441000Y222500D02*
X441500D01*
X470000Y219500D02*
X477000Y226500D01*
X470000Y217543D02*
Y219500D01*
X434500Y232000D02*
X440457D01*
X395197Y212299D02*
X395299D01*
X250432Y147250D02*
X254493Y143189D01*
X243654Y147250D02*
X250432D01*
X247250Y143904D02*
X252138Y139016D01*
X247250Y143904D02*
Y144932D01*
X252138Y139016D02*
X255638D01*
X309500Y118543D02*
Y126000D01*
X260362Y143189D02*
X263311D01*
X260362Y140984D02*
X263516D01*
X379449Y190252D02*
X379500Y190201D01*
X373000Y190402D02*
X373150Y190252D01*
X260362Y139016D02*
X262984D01*
X219748Y279252D02*
Y282244D01*
X216598Y278902D02*
Y282244D01*
X213449Y279551D02*
Y282244D01*
X246362Y133016D02*
X247984D01*
X246362Y137189D02*
X247811D01*
X252189Y136811D02*
X255638D01*
X247500Y141500D02*
X252189Y136811D01*
X238157Y141500D02*
X247500D01*
X299543Y112000D02*
X306087Y118543D01*
X309500D01*
X373150Y187102D02*
X374724Y185528D01*
X246362Y130811D02*
X248689D01*
X234000Y140000D02*
X237000Y137000D01*
X234414Y141000D02*
X238000Y137414D01*
X234828Y142000D02*
X239000Y137828D01*
X235243Y143000D02*
X237743Y140500D01*
X238327D01*
X235657Y144000D02*
X238157Y141500D01*
X236071Y145000D02*
X238071Y143000D01*
X245000D01*
X236485Y146000D02*
X238485Y144000D01*
X241818D01*
X236899Y147000D02*
X238899Y145000D01*
X241404D01*
X237000Y133000D02*
Y137000D01*
X238000Y134000D02*
Y137414D01*
X239000Y135000D02*
Y137828D01*
X225657Y145000D02*
X236071D01*
X227328Y146000D02*
X236485D01*
X231000Y147000D02*
X236899D01*
X239000Y135000D02*
X239016Y134984D01*
X238000Y134000D02*
X238984Y133016D01*
X237000Y133000D02*
X239189Y130811D01*
X230000Y148000D02*
X231000Y147000D01*
X223551Y149777D02*
X227328Y146000D01*
X222157Y148500D02*
X225657Y145000D01*
X221000Y148500D02*
X222157D01*
X220402Y149098D02*
X221000Y148500D01*
X239189Y130811D02*
X241638D01*
X238984Y133016D02*
X241638D01*
X239016Y134984D02*
X241638D01*
X204654Y146346D02*
Y151756D01*
X238327Y140500D02*
X241638Y137189D01*
X210953Y146547D02*
Y151756D01*
X223551Y149777D02*
Y151756D01*
X252577Y140984D02*
X255638D01*
X250000Y143561D02*
X252577Y140984D01*
X254493Y143189D02*
X255638D01*
X220402Y149098D02*
Y151756D01*
X250000Y143561D02*
Y144500D01*
X241818Y144000D02*
X244068Y146250D01*
X241404Y145000D02*
X243654Y147250D01*
X245000Y143000D02*
Y144000D01*
X245932Y146250D02*
X247250Y144932D01*
X244068Y146250D02*
X245932D01*
X230000Y148000D02*
Y151606D01*
X229850Y151756D02*
X230000Y151606D01*
X433500Y251957D02*
X434000Y252457D01*
X488075Y251000D02*
X488154Y250921D01*
X468000Y276457D02*
X479543D01*
X468000Y251500D02*
Y276457D01*
X501047Y261846D02*
Y265771D01*
X473957Y267543D02*
X478000D01*
X471500Y270000D02*
X473957Y267543D01*
X354000Y280000D02*
Y300000D01*
Y280000D02*
X364500Y269500D01*
X368674Y229326D02*
X369976Y228024D01*
X366850Y231197D02*
Y239350D01*
X371500Y234582D02*
X373150Y232932D01*
Y231197D02*
Y232932D01*
X461543Y218000D02*
X462000Y217543D01*
X376299Y220701D02*
X380750Y216250D01*
X376299Y220701D02*
Y221748D01*
X424551Y167000D02*
X430362Y161189D01*
X417000Y167000D02*
X424551D01*
X444590Y163500D02*
X445295Y162795D01*
X442500Y163500D02*
X444590D01*
X449068Y165750D02*
X450068Y164750D01*
X436007Y161189D02*
X440568Y165750D01*
X449068D01*
X430362Y154811D02*
X433173Y152000D01*
X434500D01*
X449000Y156000D02*
X450171Y157171D01*
X459923D01*
X460205Y156890D01*
X449818Y148500D02*
X452068Y146250D01*
X449000Y148500D02*
X449818D01*
X453432Y146250D02*
X456572Y143110D01*
X452068Y146250D02*
X453432D01*
X451040Y158858D02*
X460205D01*
X450432Y158250D02*
X451040Y158858D01*
X448568Y158250D02*
X450432D01*
X447960Y158858D02*
X448568Y158250D01*
X444858Y158858D02*
X447960D01*
X440811Y154811D02*
X444858Y158858D01*
X446500Y156000D02*
X449000D01*
X450500Y146000D02*
X453000Y143500D01*
X449250Y146000D02*
X450500D01*
X456572Y143110D02*
X460205D01*
X451432Y136750D02*
X451932Y137250D01*
X444334Y142984D02*
X448250Y139068D01*
X450500Y139000D02*
X451000Y139500D01*
X440068Y147250D02*
X443250D01*
Y146750D02*
Y147250D01*
X443875Y146125D02*
X449250Y146000D01*
X443250Y146750D02*
X443875Y146125D01*
X453000Y143500D02*
X455358Y141142D01*
X460205D01*
X450932Y131750D02*
X459754D01*
X450432Y131250D02*
X450932Y131750D01*
X456173Y139173D02*
X460205D01*
X455500Y138500D02*
X456173Y139173D01*
X460160Y137250D02*
X460205Y137205D01*
X435189Y129189D02*
X440000Y134000D01*
X438984Y142984D02*
X444334D01*
X430362D02*
X438984D01*
X441000Y145000D01*
X438007Y145189D02*
X440068Y147250D01*
X430362Y145189D02*
X438007D01*
X286388Y165439D02*
X292541D01*
X285327Y166500D02*
X286388Y165439D01*
X292541D02*
X292776Y165205D01*
X291189Y163189D02*
X292776D01*
X431689Y138811D02*
X434500Y136000D01*
X430362Y138811D02*
X431689D01*
X430362Y129189D02*
X435189D01*
X442016Y125016D02*
X446500Y129500D01*
X236000Y151906D02*
X236150Y151756D01*
X242449D02*
X242500Y151807D01*
X261346Y151756D02*
X261500Y151910D01*
X269000Y275000D02*
X272500D01*
X264500Y272500D02*
X273000D01*
X265000Y267500D02*
X270336D01*
X265000Y262500D02*
X269500D01*
X210299Y275201D02*
X210500Y275000D01*
X210299Y275201D02*
Y282244D01*
X200850Y275150D02*
Y282244D01*
X194551Y275449D02*
X197000Y273000D01*
X194551Y275449D02*
Y282244D01*
X191402Y275598D02*
X191500Y275500D01*
X191402Y275598D02*
Y282244D01*
X185102Y276398D02*
X187500Y274000D01*
X185102Y276398D02*
Y282244D01*
X181953Y276047D02*
X182000Y276000D01*
X181953Y276047D02*
Y282244D01*
X175654Y276846D02*
X178500Y274000D01*
X175654Y276846D02*
Y282244D01*
X172504Y276004D02*
Y282244D01*
X338500Y252957D02*
X339543Y254000D01*
X338500Y244000D02*
Y252957D01*
Y244000D02*
X349000Y233500D01*
X355500D01*
X347953Y231197D02*
Y232047D01*
X346500Y233500D02*
X347953Y232047D01*
X360500Y234000D02*
X360551Y233949D01*
Y231197D02*
Y233949D01*
X326000Y228457D02*
X330043D01*
X331500Y227000D01*
X332500D01*
X358976Y226472D02*
X360551Y224898D01*
X364000Y291000D02*
Y300000D01*
Y291000D02*
X369000Y286000D01*
X353500Y235500D02*
Y240500D01*
Y235000D02*
Y235500D01*
X355827Y226398D02*
X357402Y227972D01*
X353500Y240500D02*
X358000Y245000D01*
Y246457D01*
X359000Y238000D02*
Y240000D01*
Y238000D02*
X363701Y233299D01*
X332457Y232043D02*
Y254000D01*
Y232043D02*
X335000Y229500D01*
X362126Y229622D02*
X363701Y228047D01*
X365276Y229622D02*
X366850Y228047D01*
X363701Y231197D02*
Y233299D01*
X392047Y224898D02*
X393622Y226472D01*
X349528Y229622D02*
X351102Y228047D01*
X347953Y224898D02*
X349528Y223323D01*
X392047Y187102D02*
X393622Y185528D01*
X385748Y228047D02*
X387323Y229622D01*
X352677D02*
X354252Y228047D01*
X385748Y183953D02*
X387323Y182378D01*
X388898Y221748D02*
X390472Y223323D01*
X385748Y187102D02*
X387323Y185528D01*
X379449Y183953D02*
X381024Y182378D01*
X373150Y228047D02*
X374724Y229622D01*
X387323Y198126D02*
X388898Y196551D01*
X352677Y191827D02*
X354252Y193402D01*
X362126Y226472D02*
X363701Y224898D01*
X388898Y199701D02*
X390472Y198126D01*
X373150Y224898D02*
X374724Y226472D01*
X365276D02*
X366850Y224898D01*
X373150Y221748D02*
X374724Y223323D01*
X385748Y202850D02*
X387323Y201276D01*
X365276Y210724D02*
X366850Y209150D01*
X373150Y202850D02*
X374724Y201276D01*
X365276D02*
X366850Y202850D01*
X370000Y206000D02*
X371575Y207575D01*
X370000Y209150D02*
Y211500D01*
Y201000D02*
Y202850D01*
X373150Y206000D02*
X375500D01*
X364500D02*
X366850D01*
X390000Y281500D02*
Y300000D01*
X370000Y261500D02*
X390000Y281500D01*
X400000Y289500D02*
Y300000D01*
X410000Y297000D02*
Y300000D01*
X373000Y260000D02*
X410000Y297000D01*
X373000Y236500D02*
Y260000D01*
Y236500D02*
X376299Y233201D01*
Y231197D02*
Y233201D01*
X371500Y261000D02*
X400000Y289500D01*
X392047Y231197D02*
X393622Y229622D01*
X395197Y228047D02*
X397953D01*
X501982Y266982D02*
X502000Y267000D01*
Y268000D01*
X503016Y261846D02*
Y266982D01*
X501982D02*
X503016D01*
X366850Y218598D02*
Y221748D01*
X395197Y218598D02*
Y219197D01*
X402000Y220000D02*
X404500D01*
X406000Y218500D01*
Y215709D02*
Y218500D01*
X392047Y215449D02*
X393622Y217024D01*
X392047Y218598D02*
X393622Y220173D01*
X483642Y237142D02*
X488154D01*
X480500Y234000D02*
X483642Y237142D01*
X485673Y235173D02*
X488154D01*
X480500Y230000D02*
X485673Y235173D01*
X475500Y226500D02*
X477000D01*
X395197Y231197D02*
X397803D01*
X434500Y206000D02*
X438291D01*
X432500Y204000D02*
X434500Y206000D01*
X429543Y204000D02*
X432500D01*
X385748Y224898D02*
X387323Y226472D01*
X385748Y231197D02*
X392051Y237500D01*
X388898Y231197D02*
X391201Y233500D01*
X358976Y223323D02*
X360551Y221748D01*
X358976Y229622D02*
X360551Y228047D01*
X241795Y278205D02*
Y282244D01*
X238646Y278854D02*
Y282244D01*
X226047Y279453D02*
Y282244D01*
X222898Y279602D02*
Y282244D01*
X245598Y196244D02*
Y202684D01*
X242449Y196244D02*
Y200949D01*
X248748Y196244D02*
Y201748D01*
X251898Y196244D02*
Y202398D01*
X210299Y230701D02*
Y237756D01*
Y230701D02*
X210500Y230500D01*
X216598Y232098D02*
Y237756D01*
X216500Y232000D02*
X216598Y232098D01*
X251898Y202398D02*
X254000Y204500D01*
X242449Y200949D02*
X251000Y209500D01*
X245598Y202684D02*
X252000Y209086D01*
X248748Y201748D02*
X253000Y206000D01*
X213500Y228000D02*
Y228500D01*
X213449Y228551D02*
X213500Y228500D01*
X479750Y238250D02*
X480610Y239110D01*
X488154D01*
X477000Y242500D02*
X478158D01*
X365276Y223323D02*
X366850Y221748D01*
X129000Y199000D02*
X137500Y207500D01*
Y211500D01*
X144500Y218500D01*
X226047Y231047D02*
Y237756D01*
X222898Y231080D02*
Y237756D01*
X220000Y228000D02*
Y228182D01*
X222898Y231080D01*
X229197Y228197D02*
Y237756D01*
X227500Y226500D02*
X229197Y228197D01*
X232346Y230154D02*
Y237756D01*
Y230154D02*
X232500Y230000D01*
X235496Y226504D02*
Y237756D01*
Y226504D02*
X235500Y226500D01*
X238646Y230146D02*
Y237756D01*
Y230146D02*
X238791Y230000D01*
X241795Y226795D02*
Y237756D01*
X241500Y226500D02*
X241795Y226795D01*
X430362Y154811D02*
X440811D01*
X430362Y173016D02*
X441984D01*
X430362Y177189D02*
X445311D01*
X451831Y170669D01*
X460205D01*
X459754Y131750D02*
X460205Y131299D01*
X440802Y126984D02*
X445568Y131750D01*
X449732Y133268D02*
X460205D01*
X430362Y125016D02*
X442016D01*
X430362Y141016D02*
X442984D01*
X446000Y138000D01*
X430362Y126984D02*
X440802D01*
X430362Y158984D02*
X436984D01*
X438500Y160500D01*
X430362Y161189D02*
X436007D01*
X449500Y160500D02*
X449827Y160827D01*
X460205D01*
X430362Y157016D02*
X439516D01*
X445295Y162795D01*
X460205D01*
X460191Y164750D02*
X460205Y164764D01*
X450068Y164750D02*
X460191D01*
X451268Y166732D02*
X460205D01*
X445750Y169250D02*
X454250D01*
X454799Y168701D01*
X460205D01*
X430362Y170811D02*
X434500Y166673D01*
Y163500D02*
Y166673D01*
X535795Y162795D02*
X545661D01*
X546457Y162000D01*
X530142Y158858D02*
X535795D01*
X516000Y156000D02*
Y180457D01*
Y156000D02*
X528890Y143110D01*
X535795D01*
X528358Y141142D02*
X535795D01*
X508000Y161500D02*
X528358Y141142D01*
X505750Y180207D02*
X506000Y180457D01*
X505750Y160568D02*
Y180207D01*
Y160568D02*
X527145Y139173D01*
X535795D01*
X468378Y189000D02*
X473000D01*
X468362Y189016D02*
X468378Y189000D01*
X520110Y156890D02*
X535795D01*
X468362Y184138D02*
X468500Y184000D01*
X468362Y184138D02*
Y186811D01*
X523000Y166000D02*
X530142Y158858D01*
X523000Y166000D02*
Y191000D01*
X531173Y160827D02*
X535795D01*
X526500Y165500D02*
X531173Y160827D01*
X526500Y165500D02*
Y168500D01*
X468362Y190984D02*
X470984D01*
X472000Y192000D01*
X474500D01*
X475500Y191000D01*
Y181500D02*
Y191000D01*
Y181500D02*
X478500Y178500D01*
X499500D01*
X505707Y180750D02*
X506000Y180457D01*
X511000Y176500D02*
X514957Y180457D01*
X516000D01*
X476500Y182500D02*
X478250Y180750D01*
X505707D01*
X493500Y226165D02*
X495142Y227806D01*
Y230154D01*
X499079Y226421D02*
Y230154D01*
X493500Y225000D02*
X494500Y224000D01*
X487500Y226000D02*
X489000D01*
X490500Y224500D01*
Y223000D02*
Y224500D01*
Y223000D02*
X492240Y221260D01*
X499079Y226421D02*
X500000Y225500D01*
Y222500D02*
Y225500D01*
X497110Y224390D02*
Y230154D01*
Y224390D02*
X497500Y224000D01*
X501047Y224453D02*
Y230154D01*
Y224453D02*
X502500Y223000D01*
X498068Y268750D02*
X501047Y265771D01*
X499079Y261846D02*
Y265421D01*
X497110Y261846D02*
Y265890D01*
X479543Y276457D02*
X487000Y269000D01*
X497068Y268750D02*
X498068D01*
X496250Y266750D02*
X497110Y265890D01*
X478000Y267500D02*
X478500Y268000D01*
X496654Y267750D02*
X496750D01*
X499079Y265421D01*
X440000Y232000D02*
X440457D01*
X432000Y234000D02*
X432500D01*
X434500Y232000D01*
X429750Y214250D02*
X430000Y214000D01*
X495142Y261846D02*
Y265358D01*
X496818Y269000D02*
X497068Y268750D01*
X496404Y268000D02*
X496654Y267750D01*
X495990Y267000D02*
X496240Y266750D01*
X487000Y269000D02*
X496818D01*
X478500Y268000D02*
X496404D01*
X485000Y267000D02*
X495990D01*
X494500Y266000D02*
X495142Y265358D01*
X485500Y266000D02*
X494500D01*
X482500Y264500D02*
X485000Y267000D01*
X482500Y257500D02*
Y264500D01*
X483500Y264000D02*
X485500Y266000D01*
X483500Y257000D02*
Y264000D01*
X469250Y241250D02*
X471000Y239500D01*
X468250Y232750D02*
X469000Y232000D01*
X492240Y221260D02*
X498760D01*
X500000Y222500D01*
X483110Y252890D02*
X488154D01*
X480500Y255500D02*
X482500Y257500D01*
Y253500D02*
X483110Y252890D01*
X481000Y254500D02*
X483500Y257000D01*
X471500Y244000D02*
X473500Y246000D01*
X468250Y232750D02*
Y245346D01*
X471000Y248096D02*
Y253500D01*
X468250Y245346D02*
X471000Y248096D01*
X472000Y247682D02*
Y252500D01*
X469250Y244932D02*
X472000Y247682D01*
X460043Y243500D02*
X463000D01*
X456000Y243543D02*
X460000D01*
X469250Y241250D02*
Y244932D01*
X264673Y132500D02*
X302318D01*
X303068Y133250D01*
X268500Y133500D02*
X301904D01*
X302654Y134250D01*
X270000Y134500D02*
X301490D01*
X302240Y135250D01*
X301075Y135500D02*
X301825Y136250D01*
X300661Y136500D02*
X301411Y137250D01*
X271000Y135500D02*
X301075D01*
X284000Y259500D02*
Y263500D01*
X272500Y275000D02*
X284000Y263500D01*
Y259500D02*
X292500Y251000D01*
X236000Y151906D02*
Y158500D01*
Y159500D01*
X166205Y275295D02*
Y282244D01*
X229197Y278803D02*
Y282244D01*
X232346Y278654D02*
Y282244D01*
X235496Y279004D02*
Y282244D01*
X241795Y278205D02*
X260000Y260000D01*
X238646Y278854D02*
X259000Y258500D01*
X235496Y279004D02*
X258000Y256500D01*
X232346Y278654D02*
X257000Y254000D01*
X229197Y278803D02*
X256000Y252000D01*
X226047Y279453D02*
X255000Y250500D01*
X222898Y279602D02*
X254000Y248500D01*
X219748Y279252D02*
X253000Y246000D01*
X216598Y278902D02*
X252000Y243500D01*
X213449Y279551D02*
X251000Y242000D01*
X452831Y129331D02*
X460205D01*
X446311Y122811D02*
X452831Y129331D01*
X430362Y122811D02*
X446311D01*
X269500Y262500D02*
X272000Y260000D01*
X269000Y265000D02*
X273500Y260500D01*
X273000Y272500D02*
X278500Y267000D01*
X270336Y267500D02*
X275000Y262836D01*
X269000Y270250D02*
X276500Y262750D01*
X262500Y254000D02*
X271500Y245000D01*
X266000Y251914D02*
Y257000D01*
Y251914D02*
X272500Y245414D01*
X269000Y250328D02*
X273500Y245828D01*
X269000Y250328D02*
Y259500D01*
X272000Y248743D02*
Y260000D01*
Y248743D02*
X274500Y246243D01*
X273500Y248657D02*
X275500Y246657D01*
X273500Y248657D02*
Y260500D01*
X275000Y248571D02*
Y262836D01*
Y248571D02*
X276500Y247071D01*
Y248485D02*
X277500Y247485D01*
X276500Y248485D02*
Y262750D01*
X237500Y166500D02*
X238500D01*
X239000Y152055D02*
Y164500D01*
X237750Y165750D02*
X239000Y164500D01*
X254000Y166500D02*
X255047Y165453D01*
X257500Y165500D02*
X258197Y164803D01*
Y151756D02*
Y164803D01*
X270795Y151756D02*
Y163705D01*
X264496Y151756D02*
Y163996D01*
X264500Y164000D01*
X267646Y151756D02*
Y166854D01*
X267500Y167000D02*
X267646Y166854D01*
X260500Y162500D02*
X261500Y161500D01*
Y151910D02*
Y161500D01*
X280516Y191016D02*
X283638D01*
X280484Y192984D02*
X283638D01*
X255047Y191867D02*
Y196244D01*
X251898Y191602D02*
Y196244D01*
X223500Y196193D02*
X223551Y196244D01*
X204654Y181846D02*
Y196244D01*
X201504Y180496D02*
Y196244D01*
X255047Y151756D02*
Y165453D01*
X251898Y151756D02*
Y163102D01*
X250500Y164500D02*
X251898Y163102D01*
X242500Y151807D02*
Y168000D01*
X245598Y151756D02*
Y163402D01*
X270500Y164000D02*
X270795Y163705D01*
X248748Y189752D02*
Y196244D01*
X242449Y190551D02*
Y196244D01*
X239299Y192287D02*
Y196244D01*
X245598Y189402D02*
Y196244D01*
X242449Y190551D02*
X248500Y184500D01*
X279500D01*
X288362Y192984D02*
X288407Y192939D01*
X288362Y188811D02*
X288407Y188766D01*
X352677Y185528D02*
X354252Y187102D01*
X213449Y228551D02*
Y237756D01*
X220000Y224500D02*
Y228000D01*
Y224500D02*
X223500Y221000D01*
X243500Y220000D02*
X246500Y217000D01*
X223500Y221000D02*
X248000D01*
X223500Y228500D02*
X225000Y230000D01*
X223500Y225500D02*
Y228500D01*
X270795Y196244D02*
Y210705D01*
X267646Y196244D02*
Y211854D01*
X260000Y221500D02*
X270795Y210705D01*
X260000Y221500D02*
Y260000D01*
X259000Y220500D02*
Y258500D01*
Y220500D02*
X267646Y211854D01*
X256000Y207500D02*
Y252000D01*
X255000Y196291D02*
Y250500D01*
X254000Y204500D02*
Y248500D01*
X253000Y206000D02*
Y246000D01*
X252000Y209086D02*
Y243500D01*
X251000Y209500D02*
Y242000D01*
X223500Y225500D02*
X225500Y223500D01*
X246500D01*
X248500Y225500D01*
X195205Y180795D02*
Y196244D01*
Y180795D02*
X198811Y177189D01*
X210953Y181047D02*
Y196244D01*
X281592Y173061D02*
X281638Y173016D01*
X214102Y189898D02*
Y196244D01*
Y189898D02*
X219000Y185000D01*
X220402Y187614D02*
Y196244D01*
X223500Y186818D02*
Y196193D01*
X229850Y189650D02*
Y196244D01*
Y189650D02*
X233000Y186500D01*
X220402Y187614D02*
X226955Y181061D01*
X223500Y186818D02*
X228257Y182061D01*
X228500Y185000D02*
X230439Y183061D01*
X226955Y181061D02*
X236939D01*
X393622Y182378D02*
X395197Y180803D01*
Y187102D02*
X397898D01*
X395197Y183953D02*
X398453D01*
X432500Y217500D02*
Y230000D01*
X434500Y232000D01*
X433500Y240000D02*
X440457D01*
X433500Y245000D02*
Y251957D01*
X429750Y236250D02*
X433500Y240000D01*
X395197Y224898D02*
X396699Y226400D01*
X398663D01*
X405250Y225568D02*
X406568Y224250D01*
X398663Y226400D02*
X399600Y227337D01*
Y228600D01*
X402000Y231000D01*
X406568Y224250D02*
X408432D01*
X410682Y226500D01*
X406828D02*
Y229172D01*
X391201Y233500D02*
X402500D01*
X405250Y225568D02*
Y228250D01*
X402000Y231000D02*
X402500D01*
Y233500D02*
X406828Y229172D01*
X402500Y231000D02*
X405250Y228250D01*
X395197Y215449D02*
X396932Y215957D01*
X395299Y212299D02*
X395500Y212500D01*
X398500D01*
X337000Y137328D02*
Y145000D01*
X347803Y180803D02*
X347953D01*
X292500Y231814D02*
X304000Y220314D01*
X292500Y231814D02*
Y251000D01*
X278500Y244399D02*
X303000Y219900D01*
X277500Y243985D02*
X302000Y219485D01*
X276500Y243571D02*
X301000Y219071D01*
X275500Y243157D02*
X300000Y218657D01*
X274500Y242743D02*
X299000Y218243D01*
X273500Y242328D02*
X298000Y217828D01*
X272500Y241914D02*
X297000Y217414D01*
X284500Y225000D02*
X286500D01*
X335250Y224750D02*
X336000Y224000D01*
X335500Y224500D02*
X336000Y224000D01*
X392047Y221748D02*
X393622Y223323D01*
X395197Y219197D02*
X401500Y225500D01*
X395425Y221748D02*
X402088Y228412D01*
X392051Y237500D02*
X397914D01*
X450000Y289586D02*
Y300000D01*
X454500Y291500D02*
Y308000D01*
X385000D02*
X454500D01*
X374500Y312500D02*
X380500D01*
X385000Y308000D01*
X367000Y254000D02*
Y257000D01*
X369000Y255182D02*
X369250Y254932D01*
X369000Y255182D02*
Y286000D01*
X370000Y255596D02*
X370250Y255346D01*
X370000Y255596D02*
Y261500D01*
Y231197D02*
X370250Y231447D01*
X369250Y241750D02*
Y254932D01*
X366850Y239350D02*
X369250Y241750D01*
X324000Y300000D02*
X367000Y257000D01*
X294000Y300000D02*
X302500Y308500D01*
X368914D01*
X369500Y307914D01*
X321500Y307500D02*
X368500D01*
X369500Y307914D02*
X369914D01*
X374500Y312500D01*
X368500Y307500D02*
X371500Y304500D01*
Y270000D02*
Y304500D01*
X370250Y231447D02*
Y255346D01*
X371500Y234582D02*
Y261000D01*
X371524Y226465D02*
X371568D01*
X371524Y223316D02*
X371568D01*
X370000Y224898D02*
X371568Y226465D01*
X314000Y300000D02*
X321500Y307500D01*
X373150Y209150D02*
X374724Y210724D01*
X366752Y218500D02*
X366850Y218598D01*
X370000Y221748D02*
X371568Y223316D01*
X369500Y219500D02*
X371500D01*
X379500Y211500D01*
Y205000D02*
Y211500D01*
Y201000D02*
X380263D01*
X374500Y219249D02*
X382100Y211649D01*
X383000Y219500D02*
X384100Y218400D01*
X380000Y219500D02*
X383100Y216400D01*
X407500Y256500D02*
X415500D01*
X430000Y271000D02*
Y300000D01*
X428000Y265000D02*
X454500Y291500D01*
X415500Y256500D02*
X430000Y271000D01*
X334000Y295500D02*
X348000Y281500D01*
X334000Y295500D02*
Y300000D01*
X380000Y277500D02*
Y300000D01*
X377000Y274500D02*
X380000Y277500D01*
X409500Y231500D02*
X419500D01*
X418500Y230500D02*
X420250Y228750D01*
X408000Y230500D02*
X418500D01*
X402500Y236000D02*
X408000Y230500D01*
X404500Y236500D02*
X409500Y231500D01*
X397914Y237500D02*
X450000Y289586D01*
X402500Y236000D02*
Y240000D01*
X422000Y259500D02*
X424000D01*
X402500Y240000D02*
X422000Y259500D01*
X404500Y236500D02*
Y240000D01*
X419500Y255000D01*
X344000Y292500D02*
X349000Y287500D01*
X344000Y292500D02*
Y300000D01*
X417000Y263000D02*
X420000Y266000D01*
Y300000D01*
X401500Y259500D02*
Y276000D01*
X412000Y286500D01*
X439000Y290000D02*
X440000Y291000D01*
Y300000D01*
X349535Y182385D02*
X349578D01*
X349535D02*
X351102Y183953D01*
X408500Y176500D02*
X411250Y173750D01*
X393500Y169615D02*
X401865Y161250D01*
X400500Y191500D02*
X402096D01*
X398000D02*
X400500Y189000D01*
X379500Y190201D02*
Y192000D01*
X411293Y199697D02*
Y219122D01*
X399000Y197000D02*
X402490D01*
X406500Y181500D02*
Y185682D01*
X402500Y182500D02*
X403500D01*
X400500Y189000D02*
X403182D01*
X403621Y193000D02*
X404250Y192371D01*
Y190760D02*
Y192371D01*
X418250Y196250D02*
X418500Y196000D01*
X414291Y194473D02*
X416068Y196250D01*
X418250D01*
X414291Y186000D02*
Y194473D01*
X417000Y194000D02*
X423000D01*
X425500Y191500D01*
X418000Y179000D02*
X418318D01*
X419068Y178250D01*
X420932D01*
X421682Y179000D01*
X428551D01*
X392047Y190252D02*
X393622Y188677D01*
X406192Y172750D02*
X425372D01*
X406932Y170750D02*
X407432Y171250D01*
X405068Y170750D02*
X406932D01*
X403500Y172318D02*
X405068Y170750D01*
X407346Y169750D02*
X407846Y170250D01*
X404654Y169750D02*
X407346D01*
X402500Y171904D02*
X404654Y169750D01*
X402500Y171904D02*
Y175500D01*
X403500Y172318D02*
Y175000D01*
X408500Y180000D01*
X402500Y175500D02*
X407500Y180500D01*
X417689Y154811D02*
X425638D01*
X418484Y157016D02*
X425638D01*
X412000Y152500D02*
X419311Y145189D01*
X412000Y152500D02*
Y159000D01*
X406500Y164500D02*
X412000Y159000D01*
X407250Y162250D02*
X411000Y158500D01*
X406836Y161250D02*
X410000Y158086D01*
X406422Y160250D02*
X409000Y157672D01*
Y147500D02*
Y157672D01*
X410000Y150000D02*
Y158086D01*
X411000Y152000D02*
Y158500D01*
Y152000D02*
X420016Y142984D01*
X410000Y150000D02*
X418984Y141016D01*
X409000Y147500D02*
X417500Y139000D01*
X414000Y164914D02*
X417725Y161189D01*
X407846Y170250D02*
X410250D01*
X414000Y166500D01*
Y164914D02*
Y166500D01*
X410664Y171250D02*
X411914Y170000D01*
X424827D01*
X407432Y171250D02*
X410664D01*
X401865Y161250D02*
X406836D01*
X401451Y160250D02*
X406422D01*
X402500Y164000D02*
X404250Y162250D01*
X407250D01*
X405500Y164500D02*
X406500D01*
X407750Y164750D02*
Y165432D01*
Y164750D02*
X417689Y154811D01*
X411672Y165500D02*
X411836Y165664D01*
X411000Y165500D02*
X411672D01*
X411600Y163900D02*
X418484Y157016D01*
X410337Y163900D02*
X411600D01*
X409400Y164837D02*
X410337Y163900D01*
X409400Y164837D02*
Y166163D01*
X409500Y166263D01*
Y168000D01*
X401500Y164000D02*
X402500D01*
X409250Y194250D02*
X413500Y198500D01*
Y201500D01*
X415500Y203500D01*
X412293Y218707D02*
X414586Y221000D01*
X418096D01*
X421250Y224154D01*
X414172Y222000D02*
X417682D01*
X420250Y224568D01*
X411293Y219122D02*
X414172Y222000D01*
X366000Y218500D02*
X366752D01*
X415500Y203500D02*
Y218500D01*
Y219000D01*
X346385Y201283D02*
Y201326D01*
Y198133D02*
Y198176D01*
X336836Y220750D02*
X337346D01*
X339500Y222904D02*
Y229500D01*
X337346Y220750D02*
X339500Y222904D01*
X336422Y221750D02*
X336932D01*
X338500Y223318D01*
Y226000D01*
X337250Y219750D02*
X338609D01*
X339073Y220214D01*
X344654Y209000D02*
X344803Y209150D01*
X349528Y201276D02*
X351102Y202850D01*
X298362Y185189D02*
X298551Y185000D01*
X342000Y180500D02*
X342303Y180803D01*
X376299Y183953D02*
X377874Y182378D01*
X355827D02*
X357402Y183953D01*
X365262Y182392D02*
X365276Y182378D01*
X365262Y182392D02*
X365262D01*
X398000Y168500D02*
X404682D01*
X407750Y165432D01*
X373150Y180803D02*
X373697D01*
X393000Y167000D02*
X394701D01*
X401451Y160250D01*
X370000Y180803D02*
X370042Y180845D01*
X366850Y190252D02*
Y194350D01*
X367000Y194500D01*
X382598Y187102D02*
X384173Y188677D01*
X387330Y188684D02*
X388898Y190252D01*
X387330Y188684D02*
Y188728D01*
X388898Y183953D02*
X390350Y182500D01*
X390594D01*
X392047Y183953D01*
X393500Y169615D02*
Y178500D01*
X399500Y174500D02*
X406500Y181500D01*
X395500Y174500D02*
X399500D01*
X407432Y197250D02*
X410293Y200111D01*
X407846Y196250D02*
X411293Y199697D01*
X408260Y195250D02*
X412293Y199283D01*
X404250Y190760D02*
X408500Y186510D01*
X403596Y190000D02*
X407500Y186096D01*
X403182Y189000D02*
X406500Y185682D01*
X396318Y206000D02*
X405068Y197250D01*
X407432D01*
X402404Y198500D02*
X404654Y196250D01*
X407846D01*
X402490Y197000D02*
X404240Y195250D01*
X408260D01*
X402075Y196000D02*
X403825Y194250D01*
X409250D01*
X400100Y191900D02*
X400500Y191500D01*
X376299Y187102D02*
X377845Y185556D01*
X364500Y198000D02*
X378000D01*
X363586Y197000D02*
X377500D01*
X374674Y188684D02*
X374717D01*
X384000Y198299D02*
X385748Y196551D01*
X388898Y187102D02*
X390500Y185500D01*
X390422Y185535D02*
X390465D01*
X376299Y179799D02*
Y180803D01*
X375500Y178500D02*
Y179000D01*
X373697Y180803D02*
X374369Y180131D01*
X373900Y179663D02*
X374369Y180131D01*
X373900Y178337D02*
Y179663D01*
X377500Y197000D02*
X382598Y191902D01*
Y190252D02*
Y191902D01*
X376299Y190252D02*
X377875Y188676D01*
X398000Y191500D02*
Y193000D01*
X401000Y196000D01*
X395402Y193402D02*
X399000Y197000D01*
X395197Y190252D02*
X396748D01*
X398000Y189000D01*
X399086D01*
X380500Y203500D02*
X381000D01*
X380263Y201000D02*
X382100Y202837D01*
Y211649D01*
X382500Y197000D02*
Y201323D01*
X383100Y201923D01*
Y216400D01*
X384000Y198299D02*
Y201409D01*
X384100Y201509D01*
Y218400D01*
X378000Y198000D02*
X385748Y190252D01*
X374667Y188691D02*
X374674Y188684D01*
X392047Y199701D02*
X393622Y201276D01*
X392047Y196551D02*
X393622Y198126D01*
X379500Y205000D02*
X381000Y203500D01*
X382500Y197000D02*
X383000Y196500D01*
X390465Y194926D02*
Y194969D01*
X388898Y193402D02*
X390465Y194969D01*
X365283Y185535D02*
X365326D01*
X365600Y185809D01*
X373900Y164600D02*
X374000Y164500D01*
X364500Y163000D02*
X367000D01*
X342303Y180803D02*
X344803D01*
X254000Y166500D02*
Y168000D01*
X351102Y180803D02*
X351834D01*
X346577Y173100D02*
X348100Y171577D01*
X346163Y172100D02*
X347100Y171163D01*
X352778Y182500D02*
X352799D01*
X354252Y183953D01*
Y196551D02*
X356500Y198799D01*
Y199000D01*
X356259Y210759D02*
Y211200D01*
X354650Y209150D02*
X356259Y210759D01*
X237750Y165750D02*
X238500Y166500D01*
X342000Y203000D02*
Y203500D01*
X291016Y210984D02*
X291500Y210500D01*
X291189Y195189D02*
X296000Y200000D01*
X286362Y210984D02*
X291016D01*
X286362Y213189D02*
X291689D01*
X271500Y241500D02*
X296000Y217000D01*
X291689Y213189D02*
X292500Y214000D01*
X286362Y209016D02*
X289484D01*
X286500Y225000D02*
X295000Y216500D01*
X288362Y191016D02*
X292016D01*
X292000Y189000D02*
X292100Y188900D01*
Y188774D02*
Y188900D01*
X292092Y188766D02*
X292100Y188774D01*
X288407Y188766D02*
X292092D01*
X346385Y198133D02*
X347953Y199701D01*
X342500Y199000D02*
X344102D01*
X296000Y200000D02*
Y203500D01*
X289484Y209016D02*
X291000Y207500D01*
X244500Y164500D02*
X245598Y163402D01*
X250500Y164500D02*
Y169000D01*
X242500Y168000D02*
X247000D01*
X247500Y167500D01*
X349563Y185563D02*
X351102Y187102D01*
X358983Y182385D02*
X360551Y183953D01*
X358983Y182385D02*
X359027D01*
X363686Y162400D02*
X364086Y162000D01*
X386252Y174000D02*
X386500D01*
X358976Y188677D02*
X360551Y187102D01*
X362126Y182378D02*
X363701Y183953D01*
X352677Y201276D02*
X354252Y202850D01*
X352677Y198126D02*
X354252Y199701D01*
X371553Y180142D02*
Y180778D01*
X370912D02*
X371553D01*
X370845Y180845D02*
X370912Y180778D01*
X370042Y180845D02*
X370845D01*
X373150Y190252D02*
X374717Y188684D01*
X362133Y185535D02*
Y185578D01*
X362086Y198500D02*
X363586Y197000D01*
X357402Y190252D02*
X359000Y191850D01*
Y192500D01*
X374674Y182385D02*
X374717D01*
X373150Y183953D02*
X374717Y182385D01*
X376935Y177565D02*
X376935D01*
X376771Y177400D02*
X376935Y177565D01*
X374009Y175400D02*
X376100D01*
X374423Y176400D02*
X376514D01*
X374837Y177400D02*
X376771D01*
X373900Y178337D02*
X374837Y177400D01*
X370000Y183953D02*
X371575Y182378D01*
X370000Y190252D02*
X371575Y188677D01*
X370000Y187102D02*
X371575Y185528D01*
X397898Y187102D02*
X402500Y182500D01*
X383500Y171000D02*
X384000Y171500D01*
X376514Y176400D02*
X385000Y167914D01*
X376100Y175400D02*
X384000Y167500D01*
X385000Y164086D02*
Y167914D01*
X380500Y161000D02*
X384000Y164500D01*
Y167500D01*
X372900Y177923D02*
X374423Y176400D01*
X372900Y177923D02*
Y178795D01*
X371553Y180142D02*
X372900Y178795D01*
X371837Y169700D02*
X374300D01*
X364991Y165500D02*
X368237D01*
X370343Y169900D02*
X371143Y169100D01*
X371237D01*
X371837Y169700D01*
X369928Y168900D02*
X370728Y168100D01*
X372900D01*
X369514Y167900D02*
X370314Y167100D01*
X364086Y162000D02*
X365737D01*
X358000Y163000D02*
Y165763D01*
X353100Y164337D02*
Y166863D01*
X348100Y167137D02*
X349900Y165337D01*
Y164337D02*
Y165337D01*
X347100Y166723D02*
X348900Y164923D01*
Y163923D02*
Y164923D01*
X378500Y161000D02*
X380500D01*
X365283Y185535D02*
X366850Y187102D01*
X364591Y165900D02*
X364991Y165500D01*
X364137Y164900D02*
X364537Y164500D01*
X363600Y163900D02*
X364500Y163000D01*
X364186Y169900D02*
X370343D01*
X363772Y168900D02*
X369928D01*
X363357Y167900D02*
X369514D01*
X362943Y166900D02*
X369100D01*
X362529Y165900D02*
X364591D01*
X362115Y164900D02*
X364137D01*
X361701Y163900D02*
X363600D01*
X354252Y180803D02*
X354882Y180174D01*
X358500Y175586D02*
X364186Y169900D01*
X357500Y175172D02*
X363772Y168900D01*
X357402Y180087D02*
Y180803D01*
X366707Y181293D02*
X368793Y179207D01*
X358500Y175586D02*
Y176823D01*
X357500Y175172D02*
Y176409D01*
X356500Y177409D02*
Y178000D01*
Y177409D02*
X357500Y176409D01*
X374300Y169700D02*
X374500Y169500D01*
X370337Y163400D02*
X371663D01*
X369100Y166900D02*
X371000Y165000D01*
X348000Y178500D02*
X348326Y178826D01*
X364537Y164500D02*
X367763D01*
X370763Y161500D01*
X360541Y180803D02*
X360551D01*
X365500Y173500D02*
X375477D01*
X366595Y156900D02*
X379228D01*
X386000Y163672D01*
Y171763D01*
X378963Y178800D02*
X386000Y171763D01*
X378346Y178800D02*
X378963D01*
X367009Y157900D02*
X378814D01*
X372863Y164600D02*
X373900D01*
X371663Y163400D02*
X372863Y164600D01*
X368237Y165500D02*
X370337Y163400D01*
X365323Y161000D02*
X367423Y158900D01*
X364909Y160000D02*
X367009Y157900D01*
X378814D02*
X385000Y164086D01*
X364495Y159000D02*
X366595Y156900D01*
X381682Y165682D02*
Y167295D01*
X365737Y162000D02*
X367837Y159900D01*
X365276Y182378D02*
X366850Y183953D01*
X372900Y168100D02*
X373500Y167500D01*
X375600D02*
X376700Y168600D01*
X367000Y163000D02*
X368000Y162000D01*
X367423Y158900D02*
X376400D01*
X378500Y161000D01*
X367837Y159900D02*
X375400D01*
X378600Y163100D01*
X370763Y161500D02*
X372000D01*
X326500Y174500D02*
Y176000D01*
X333250Y175250D02*
X333500Y175000D01*
X346385Y185535D02*
Y185578D01*
X368793Y179207D02*
X371074D01*
X371900Y178381D01*
Y177509D02*
Y178381D01*
Y177509D02*
X374009Y175400D01*
X356500Y174757D02*
Y175237D01*
Y174757D02*
X363357Y167900D01*
X355663Y168100D02*
X358000Y165763D01*
X354337Y168100D02*
X355663D01*
X353100Y166863D02*
X354337Y168100D01*
X359263Y198500D02*
X362086D01*
X379449Y180803D02*
X386252Y174000D01*
X375477Y173500D02*
X381682Y167295D01*
X376463Y171100D02*
X378600Y168963D01*
X357402Y180087D02*
X357900Y179589D01*
X365637Y171100D02*
X376463D01*
X370314Y167100D02*
X372137D01*
X372837Y166400D01*
X378600Y163100D02*
Y168963D01*
X373500Y167500D02*
X375600D01*
X372837Y166400D02*
X377000D01*
X348100Y167137D02*
Y171577D01*
X347100Y166723D02*
Y171163D01*
X346385Y185535D02*
X347953Y187102D01*
X338166Y165334D02*
X339000Y164500D01*
X343500Y165000D02*
Y168500D01*
X340928Y168691D02*
Y169191D01*
X342337Y170600D01*
X333250Y175250D02*
Y177263D01*
X349528Y198126D02*
X351102Y199701D01*
Y196528D02*
Y196551D01*
Y196528D02*
X352654Y194976D01*
X351400Y174337D02*
Y177900D01*
X351500Y178000D01*
X346356Y194976D02*
Y194998D01*
X346378Y194976D02*
Y194976D01*
X355500Y174343D02*
X362943Y166900D01*
X355500Y174343D02*
Y174823D01*
X349500Y176101D02*
X350400Y175200D01*
Y173923D02*
Y175200D01*
X353000Y175000D02*
X353818D01*
X354000Y174818D01*
Y174429D02*
Y174818D01*
Y174429D02*
X362529Y165900D01*
X346991Y174100D02*
X351500Y169591D01*
Y165000D02*
Y169591D01*
X353615Y173400D02*
X362115Y164900D01*
X352337Y173400D02*
X353615D01*
X351400Y174337D02*
X352337Y173400D01*
X359905Y158400D02*
X360505Y159000D01*
X364495D01*
X359491Y159400D02*
X360091Y160000D01*
X364909D01*
X359077Y160400D02*
X359677Y161000D01*
X365323D01*
X359600Y162400D02*
X363686D01*
X359600Y162337D02*
Y162400D01*
X358663Y161400D02*
X359600Y162337D01*
X357337Y161400D02*
X358663D01*
X356509Y159400D02*
X359491D01*
X356923Y160400D02*
X359077D01*
X356095Y158400D02*
X359905D01*
X355909Y160000D02*
X356509Y159400D01*
X356323Y161000D02*
X356923Y160400D01*
X356400Y162337D02*
X357337Y161400D01*
X356400Y162337D02*
Y162400D01*
X344693Y153250D02*
X349843Y158400D01*
X354234D01*
X354834Y159000D01*
X355495D01*
X356095Y158400D01*
X344278Y154250D02*
X349428Y159400D01*
X353820D01*
X354420Y160000D01*
X355909D01*
X343864Y155250D02*
X349304Y160690D01*
X349595Y160400D01*
X353405D01*
X354005Y161000D01*
X356323D01*
X353991Y162400D02*
X356400D01*
X352991Y161400D02*
X353991Y162400D01*
X350009Y161400D02*
X352991D01*
X349304Y162104D02*
X350009Y161400D01*
X344700Y157500D02*
X349304Y162104D01*
X348900Y163923D02*
X350423Y162400D01*
X352577D01*
X354100Y163923D01*
X349900Y164337D02*
X350837Y163400D01*
X352163D01*
X353100Y164337D01*
X350400Y173923D02*
X351923Y172400D01*
X353201D01*
X361701Y163900D01*
X349535Y191834D02*
Y191877D01*
X349599Y191942D01*
X346435Y195055D02*
Y195077D01*
X357000Y193500D02*
X359000Y195500D01*
X360551Y190252D02*
X362000Y191701D01*
Y192500D01*
X363701Y190252D02*
X364500Y191051D01*
Y192500D01*
X355827Y185528D02*
X357402Y187102D01*
X348326Y178826D02*
X349526D01*
X349500Y178800D02*
X349526Y178826D01*
X349500Y176101D02*
Y178800D01*
X343500Y178500D02*
X345500D01*
X347803Y180803D01*
X346378Y182378D02*
X347953Y183953D01*
X356000Y178000D02*
X356500D01*
X360500Y178500D02*
X365500Y173500D01*
X358900Y179163D02*
X360541Y180803D01*
X358900Y177837D02*
Y179163D01*
Y177837D02*
X365637Y171100D01*
X357900Y177423D02*
X358500Y176823D01*
X357900Y177423D02*
Y179589D01*
X354882Y179144D02*
Y180174D01*
X354400Y178663D02*
X354882Y179144D01*
X354400Y177337D02*
Y178663D01*
Y177337D02*
X356500Y175237D01*
X353400Y176923D02*
X355500Y174823D01*
X353400Y176923D02*
Y179237D01*
X351834Y180803D02*
X353400Y179237D01*
X354252Y190252D02*
X357000Y193000D01*
Y193500D01*
X342950Y182100D02*
X344803Y183953D01*
X346435Y188735D02*
Y188778D01*
Y188735D02*
X347953Y190252D01*
X346435Y195077D02*
X346536Y195178D01*
X346385Y198176D02*
X346587Y198378D01*
X346385Y201326D02*
X346637Y201578D01*
X289311Y170811D02*
X289916Y171416D01*
X298362Y182984D02*
X301016D01*
X332000Y139500D02*
Y147500D01*
X332500Y148000D01*
X310100Y155900D02*
X313300Y152700D01*
Y150300D02*
Y152700D01*
X356500Y202000D02*
X357000D01*
X341429Y190252D02*
X344803D01*
X338500Y192000D02*
Y195000D01*
X338250Y197250D02*
X340386Y195114D01*
X335400Y217900D02*
X337250Y219750D01*
X334400Y218314D02*
X336836Y220750D01*
X333400Y218728D02*
X336422Y221750D01*
X352677Y213874D02*
X354252Y212299D01*
X333400Y215900D02*
Y218728D01*
X337000Y215000D02*
X337500Y214500D01*
Y212500D02*
Y214500D01*
X335400Y213186D02*
Y217900D01*
X331000Y213500D02*
X333400Y215900D01*
X351102Y209150D02*
X352677Y210724D01*
X338250Y197250D02*
Y200250D01*
X338000Y200500D02*
X338250Y200250D01*
X343650Y202850D02*
X344803D01*
X343886Y195114D02*
X344803Y194197D01*
Y193402D02*
Y194197D01*
X356500Y201263D02*
X359263Y198500D01*
X246362Y134984D02*
X248016D01*
X306182Y126500D02*
X319500Y139818D01*
X305071Y127500D02*
X326943Y149372D01*
X297568Y126750D02*
X299432D01*
X297154Y125750D02*
X299846D01*
X301596Y127500D01*
X296740Y124750D02*
X300260D01*
X302010Y126500D01*
X301596Y127500D02*
X305071D01*
X302010Y126500D02*
X306182D01*
X303682Y131000D02*
X304000D01*
X299432Y126750D02*
X303682Y131000D01*
X248689Y130811D02*
X251500Y128000D01*
X293490D01*
X296740Y124750D01*
X247984Y133016D02*
X252000Y129000D01*
X293904D01*
X248016Y134984D02*
X253000Y130000D01*
X294318D01*
X247811Y137189D02*
X254000Y131000D01*
X296500D01*
X293904Y129000D02*
X297154Y125750D01*
X294318Y130000D02*
X297568Y126750D01*
X296500Y131000D02*
X298500Y129000D01*
X317400Y168163D02*
X318337Y169100D01*
X316400Y168577D02*
X317923Y170100D01*
X314400Y169405D02*
X316500Y171505D01*
X305400Y169586D02*
Y174528D01*
X316500Y171505D02*
Y171737D01*
X315900Y172337D02*
X316500Y171737D01*
X315900Y172337D02*
Y173663D01*
X313400Y169820D02*
X315202Y171621D01*
Y171621D01*
X314900Y171923D02*
X315202Y171621D01*
X312400Y170234D02*
X313900Y171734D01*
X315900Y173663D02*
X316061Y173824D01*
Y173824D01*
X315500Y174386D02*
X316061Y173824D01*
X314500Y173972D02*
X314900Y173572D01*
X313900Y171734D02*
Y173157D01*
X313500Y173557D02*
X313900Y173157D01*
X317400Y165100D02*
Y168163D01*
X318337Y169100D02*
X319600D01*
X316400Y164600D02*
Y168577D01*
X315400Y164186D02*
Y168991D01*
X317509Y171100D01*
X314400Y164163D02*
Y169405D01*
X315500Y174386D02*
Y180891D01*
X313400Y164577D02*
Y169820D01*
X314900Y171923D02*
Y173572D01*
X314500Y173972D02*
Y180476D01*
X312400Y164991D02*
Y170234D01*
X313500Y173557D02*
Y180062D01*
X317923Y170100D02*
X318277D01*
X320100Y171923D01*
X311400Y165405D02*
Y172043D01*
X310400Y165820D02*
Y172457D01*
X309400Y166234D02*
Y172872D01*
X308400Y166648D02*
Y173286D01*
X307400Y167062D02*
Y173700D01*
X306400Y167476D02*
Y174114D01*
X306100Y175228D02*
Y179463D01*
X305163Y180400D02*
X306100Y179463D01*
X307100Y174814D02*
Y179877D01*
X305577Y181400D02*
X307100Y179877D01*
X305991Y182400D02*
X308100Y180291D01*
X306600Y183205D02*
X309100Y180705D01*
X311400Y172043D02*
X312100Y172743D01*
X310400Y172457D02*
X311100Y173157D01*
Y181534D01*
X309400Y172872D02*
X310100Y173572D01*
Y181120D01*
X308400Y173286D02*
X309100Y173986D01*
Y180705D01*
X307400Y173700D02*
X308100Y174400D01*
Y180291D01*
X306400Y174114D02*
X307100Y174814D01*
X305400Y174528D02*
X306100Y175228D01*
D28*
X483000Y245000D02*
X488138D01*
X482000Y244000D02*
X483000Y245000D01*
X475035Y244000D02*
X482000D01*
X481000Y247000D02*
X481016Y246984D01*
X488154D01*
X474500Y243464D02*
X475035Y244000D01*
X474500Y232465D02*
Y243464D01*
Y232465D02*
X480465Y226500D01*
X309500Y242500D02*
X321500D01*
X306291Y239291D02*
X309500Y242500D01*
X306291Y229209D02*
Y239291D01*
X321500Y242500D02*
X326000Y238000D01*
Y235543D02*
Y238000D01*
X215500Y217000D02*
X217709Y214791D01*
Y210000D02*
Y214791D01*
X199500Y210000D02*
X206291D01*
X195354Y158354D02*
X198354D01*
X192055Y155055D02*
X195354Y158354D01*
X192055Y151756D02*
Y155055D01*
X373000Y129000D02*
X378000Y134000D01*
X382291D01*
X447543Y232000D02*
Y240000D01*
X475500Y310500D02*
Y319248D01*
X429500Y330087D02*
Y344803D01*
X457500Y177000D02*
X460205Y174295D01*
Y172638D02*
Y174295D01*
X447543Y240000D02*
Y245957D01*
X486000Y260500D02*
X488154Y258346D01*
Y256827D02*
Y258346D01*
Y254858D02*
Y256827D01*
X489500Y262500D02*
X490154Y261846D01*
X493173D01*
X194000Y141709D02*
X202000Y133709D01*
X192000Y141709D02*
X194000D01*
X217252Y147748D02*
X218500Y146500D01*
X217252Y147748D02*
Y151756D01*
X223000Y203000D02*
X226701Y199299D01*
Y196244D02*
Y199299D01*
X228000Y204000D02*
X233000Y199000D01*
Y196244D02*
Y199000D01*
X204000Y287500D02*
X205000Y288500D01*
X204000Y282244D02*
Y287500D01*
X188252Y288252D02*
X190000Y290000D01*
X188252Y282244D02*
Y288252D01*
X168000Y290000D02*
X169354Y288646D01*
Y282244D02*
Y288646D01*
X163055Y282244D02*
Y290945D01*
X480000Y217709D02*
Y223000D01*
X445500Y199000D02*
X449709Y203209D01*
Y206000D01*
X440000Y191000D02*
Y193500D01*
X456043Y210457D02*
X462000D01*
X425709Y186000D02*
X432000D01*
X437500Y196000D02*
X440000Y193500D01*
X435149Y196000D02*
X437500D01*
X272000Y303709D02*
X279709D01*
X272000Y286000D02*
Y292291D01*
X226291Y303709D02*
X236500D01*
X229209Y292291D02*
X236500D01*
X244945Y282244D02*
X251756D01*
X211000Y293291D02*
X218791D01*
X176000Y292291D02*
X184209D01*
X191709Y304709D02*
X199000D01*
X176000Y303709D02*
X183791D01*
X178803Y282244D02*
Y289488D01*
X176000Y292291D02*
X178803Y289488D01*
X197701Y291992D02*
X199000Y293291D01*
X197701Y282244D02*
Y291992D01*
X199000Y293291D02*
X211000D01*
X199000Y304709D02*
X211000D01*
X260000Y303709D02*
X272000D01*
X248500D02*
X260000D01*
X236500D02*
X248500D01*
X260000Y292291D02*
X272000D01*
X248500D02*
X260000D01*
X236500D02*
X248500D01*
X274500Y142000D02*
X280291D01*
X273000Y143500D02*
X274500Y142000D01*
X273000Y143500D02*
Y147000D01*
X273945Y147945D02*
Y151756D01*
X273000Y147000D02*
X273945Y147945D01*
X274500Y158500D02*
X277500Y155500D01*
X274500Y158500D02*
Y167000D01*
X293709Y152000D02*
X302000D01*
X654000Y321600D02*
X654000Y321600D01*
X654000Y321600D02*
Y334457D01*
X475709Y118000D02*
X483500D01*
X458000D02*
X464291D01*
X460205Y122087D02*
X464291Y118000D01*
X460205Y122087D02*
Y127362D01*
X553543Y162000D02*
Y169457D01*
X542984Y149016D02*
X546000Y146000D01*
X535795Y149016D02*
X542984D01*
X535795Y150984D02*
X546484D01*
X498957Y187543D02*
X516000D01*
X539709Y182000D02*
Y190291D01*
X528291Y182000D02*
Y190209D01*
X539500Y241583D02*
X558917D01*
X471957Y260457D02*
X478000D01*
X461543Y283543D02*
X468000D01*
X452000Y274209D02*
Y277000D01*
Y274209D02*
X457500Y268709D01*
X450291Y257291D02*
X457500D01*
X434000Y259543D02*
X440457D01*
X306291Y226709D02*
Y229209D01*
Y226709D02*
X312291Y220709D01*
X323709Y218000D02*
X329500D01*
X317709Y228791D02*
Y236000D01*
X200850Y218972D02*
Y237756D01*
X179500Y197621D02*
X200850Y218972D01*
X203000Y219000D02*
Y225500D01*
X181500Y197500D02*
X203000Y219000D01*
X176000Y198364D02*
X191402Y213766D01*
X177500Y197743D02*
X194551Y214794D01*
X191402Y213766D02*
Y237756D01*
X194551Y214794D02*
Y237756D01*
X176000Y139000D02*
Y198364D01*
X177500Y143000D02*
Y197743D01*
X179500Y146000D02*
Y197621D01*
X181500Y168500D02*
Y197500D01*
X185102Y210102D02*
Y237756D01*
X174500Y199500D02*
X185102Y210102D01*
X174500Y136000D02*
Y199500D01*
X217252Y202252D02*
X217709Y202709D01*
Y210000D01*
X217252Y196244D02*
Y202252D01*
X330000Y197500D02*
X331500Y199000D01*
X327209Y197500D02*
X330000D01*
X453375Y201643D02*
Y219875D01*
X450000Y198268D02*
X453375Y201643D01*
X450000Y179000D02*
Y198268D01*
X406000Y199000D02*
Y204291D01*
X390000Y157201D02*
X396701Y150500D01*
X359299Y144701D02*
Y150500D01*
Y144701D02*
X363709Y140291D01*
Y134000D02*
Y140291D01*
X393709Y134000D02*
Y142209D01*
X396701Y145201D01*
Y150500D01*
X480465Y226500D02*
X484500D01*
X291709Y142000D02*
X297000D01*
X248500Y152004D02*
Y158000D01*
X299500Y235500D02*
Y236000D01*
X296500Y239000D02*
X299500Y236000D01*
X296500Y239000D02*
Y260457D01*
X299500Y263457D01*
X326000Y196291D02*
X327209Y197500D01*
X316000Y196291D02*
X326000D01*
X233791Y124291D02*
X236500Y127000D01*
X228000Y124291D02*
X233791D01*
X209000Y115291D02*
X218000Y124291D01*
X202000Y122291D02*
X209000Y115291D01*
X273945Y151756D02*
X274189Y152000D01*
X282291D01*
X228000Y135709D02*
X234291D01*
X211209D02*
X218000D01*
X188209Y130291D02*
X192000D01*
X198354Y151756D02*
Y158354D01*
X207803Y151756D02*
Y157803D01*
X192000Y141709D02*
X192055Y141764D01*
Y151756D01*
X224000Y159000D02*
X226701Y156299D01*
Y151756D02*
Y156299D01*
X230000Y159000D02*
X233000Y156000D01*
Y151756D02*
Y156000D01*
X488138Y245000D02*
X488154Y245016D01*
X165500Y158000D02*
X168500Y161000D01*
X167500Y154000D02*
X170000Y156500D01*
X173000Y145500D02*
Y201000D01*
X171000Y143500D02*
X173000Y145500D01*
X179500Y146000D02*
X183500Y142000D01*
X177500Y143000D02*
X179500Y141000D01*
X169500Y149500D02*
X171500Y151500D01*
X449000Y152500D02*
X450000Y151500D01*
X447000Y152500D02*
X449000D01*
X450000Y151500D02*
X456000D01*
X456516Y150984D01*
X453000Y148500D02*
Y150000D01*
X451579Y154921D02*
X460205D01*
X446000Y151500D02*
X447000Y152500D01*
X455484Y149016D02*
X460205D01*
X454500Y150000D02*
X455484Y149016D01*
X453000Y150000D02*
X454500D01*
X453000Y149000D02*
X456921Y145079D01*
X456516Y150984D02*
X460205D01*
X453000Y149000D02*
Y150000D01*
X456921Y145079D02*
X460205D01*
X177500Y133000D02*
X181000D01*
X174500Y136000D02*
X177500Y133000D01*
X176000Y139000D02*
X178500Y136500D01*
X187000Y163000D02*
X234500D01*
X181500Y168500D02*
X187000Y163000D01*
X168500Y161000D02*
Y204500D01*
X177000Y213000D01*
X159543Y167543D02*
X166500Y174500D01*
Y210000D01*
X157957Y170457D02*
X164500Y177000D01*
Y212500D01*
X170500Y218500D01*
X166500Y210000D02*
X172500Y216000D01*
X163055Y230555D02*
Y237756D01*
X169354Y230646D02*
Y237756D01*
X178803Y231303D02*
Y237756D01*
X175654Y224846D02*
Y237756D01*
Y224846D02*
X180453Y220047D01*
X181953Y209953D02*
Y237756D01*
X173000Y201000D02*
X181953Y209953D01*
X188252Y231248D02*
Y237756D01*
X197701Y225701D02*
Y237756D01*
X204000Y230500D02*
Y237756D01*
X219748Y249248D02*
X221500Y251000D01*
X219748Y237756D02*
Y249248D01*
X171500Y151500D02*
Y202500D01*
X170000Y156500D02*
Y203500D01*
X171500Y202500D02*
X180453Y211453D01*
X170000Y203500D02*
X178953Y212453D01*
X203000Y225500D02*
X207150Y229650D01*
Y237756D01*
X177000Y213000D02*
Y218500D01*
X166205Y229295D02*
X177000Y218500D01*
X178953Y212453D02*
Y219047D01*
X172504Y225496D02*
X178953Y219047D01*
X180453Y211453D02*
Y220047D01*
X172504Y225496D02*
Y237756D01*
X166205Y229295D02*
Y237756D01*
X162000Y190000D02*
Y215500D01*
X158500Y186500D02*
X162000Y190000D01*
Y215500D02*
X165500Y219000D01*
X172500Y216000D02*
X174500D01*
X358000Y259000D02*
X358000Y259000D01*
Y253543D02*
Y259000D01*
X348000Y257709D02*
Y263500D01*
X341709Y246291D02*
X348000D01*
X548500Y335000D02*
Y340791D01*
Y318291D02*
Y323583D01*
X515500Y329291D02*
X520465D01*
X511424Y327000D02*
X512633Y325791D01*
X518000D01*
X519209Y327000D01*
X519083Y315583D02*
X520791Y317291D01*
X510500Y315583D02*
X519083D01*
X519209Y327000D02*
X520197D01*
X509000D02*
X511424D01*
X519524Y332791D02*
X520465Y331850D01*
X505351Y332791D02*
X519524D01*
X499559Y331850D02*
X504410D01*
X505351Y332791D01*
X536500Y332835D02*
X541043D01*
X532043D02*
X536500D01*
X543209Y335000D02*
X548500D01*
X541043Y332835D02*
X543209Y335000D01*
X531059Y331850D02*
X532043Y332835D01*
X528535Y331850D02*
X531059D01*
X532043Y317457D02*
X532209Y317291D01*
X532043Y317457D02*
Y325748D01*
X536500D01*
X531059Y326732D02*
X532043Y325748D01*
X528535Y326732D02*
X531059D01*
X499000Y331291D02*
X499559Y331850D01*
X499000Y327000D02*
Y331291D01*
X520465Y326732D02*
X520500Y326697D01*
X195957Y316957D02*
X196000Y317000D01*
X188500Y316957D02*
X195957D01*
X202791Y340709D02*
X204791D01*
X194110Y349390D02*
X202791Y340709D01*
X188500Y349390D02*
X194110D01*
X266291Y318000D02*
Y323665D01*
X420500Y323000D02*
X429500D01*
X402000Y351587D02*
X408291D01*
X396000D02*
X402000D01*
X408583Y351295D02*
X415295D01*
X396000Y325000D02*
Y330500D01*
X380413Y342587D02*
X382500Y340500D01*
X379709Y352291D02*
Y360000D01*
X368291Y352291D02*
Y360000D01*
X385000Y337500D02*
X388000Y340500D01*
X380500Y337500D02*
X385000D01*
X377382Y340618D02*
X380500Y337500D01*
X374071Y340618D02*
X377382D01*
X368000Y330000D02*
X370291D01*
X365000Y333000D02*
X368000Y330000D01*
X363000Y333000D02*
X365000D01*
X374071Y342587D02*
X380413D01*
X381709Y330000D02*
Y333791D01*
X380000Y335500D02*
X381709Y333791D01*
X377220Y335500D02*
X380000D01*
X374071Y338650D02*
X377220Y335500D01*
X408291Y351587D02*
X408583Y351295D01*
X403378Y339878D02*
X408583D01*
X401087Y337587D02*
X403378Y339878D01*
X396000Y337587D02*
X401087D01*
X396000D02*
Y344500D01*
X390000D02*
X396000D01*
X385547Y348953D02*
X390000Y344500D01*
X376500Y348953D02*
X385547D01*
X374071Y346524D02*
X376500Y348953D01*
X374071Y344555D02*
X380945D01*
X345205Y347795D02*
X348619Y344381D01*
X354780Y335500D02*
X357929Y338650D01*
X352000Y335500D02*
X354780D01*
X338500Y347795D02*
X345205D01*
X350291Y320000D02*
Y325209D01*
X346500Y329000D02*
X350291Y325209D01*
X346500Y329000D02*
Y338500D01*
X350587Y342587D01*
X357929D01*
X361709Y320000D02*
Y323791D01*
X359500Y326000D02*
X361709Y323791D01*
X353000Y326000D02*
X359500D01*
X348500Y330500D02*
X353000Y326000D01*
X348500Y330500D02*
Y337000D01*
X352118Y340618D01*
X357929D01*
X338500Y329000D02*
Y336378D01*
X328500D02*
X338500D01*
X328500Y347795D02*
X338500D01*
X245000Y357000D02*
X251791D01*
X260043Y351000D02*
X266291Y344752D01*
X235291Y351000D02*
X260043D01*
X233583Y352709D02*
X235291Y351000D01*
X233583Y352709D02*
Y357000D01*
X261626Y337665D02*
X266291D01*
X259791Y339500D02*
X261626Y337665D01*
X258543Y344752D02*
X266291D01*
X256791Y343000D02*
X258543Y344752D01*
X256791Y336000D02*
Y343000D01*
X255823Y335031D02*
X256791Y336000D01*
X248291Y348000D02*
X255291D01*
X244362Y344071D02*
X248291Y348000D01*
X244362Y340937D02*
Y344071D01*
X252291Y342500D02*
Y344000D01*
X248760Y338969D02*
X252291Y342500D01*
X244362Y338969D02*
X248760D01*
X235583Y327000D02*
X237583Y325000D01*
X229791Y327000D02*
X235583D01*
X224291D02*
X225291Y328000D01*
X220091Y335300D02*
X221791Y337000D01*
X220091Y321491D02*
X226583Y315000D01*
X221691Y333400D02*
X223323Y335031D01*
X221691Y323600D02*
X225648Y319643D01*
X221691Y323600D02*
Y333400D01*
X220091Y321491D02*
Y335300D01*
X250791Y337000D02*
X252291Y338500D01*
X244362Y337000D02*
X250791D01*
X225291Y329000D02*
X228220Y331929D01*
X225291Y328000D02*
Y329000D01*
X244362Y335031D02*
X255823D01*
X228220Y331929D02*
Y333063D01*
X214791Y340709D02*
X221500D01*
X234241Y315000D02*
X238000D01*
X229597Y319643D02*
X234241Y315000D01*
X225648Y319643D02*
X229597D01*
X223323Y335031D02*
X228220D01*
X221791Y337000D02*
X228220D01*
X214791Y319500D02*
Y329291D01*
X248791Y325000D02*
X249000D01*
X250291Y326500D02*
Y331000D01*
X248228Y333063D02*
X250291Y331000D01*
X244362Y333063D02*
X248228D01*
X263335Y344752D02*
X266291D01*
X204791Y340709D02*
X214791D01*
X204791Y329291D02*
X214791D01*
X266291Y330752D02*
X273543D01*
X276291Y333500D01*
X266291Y330752D02*
Y337665D01*
Y344752D02*
X276126D01*
X664000Y321600D02*
Y334457D01*
Y341543D02*
Y349000D01*
X535709Y300500D02*
X543500D01*
X552291D01*
X518500Y294709D02*
X524291Y300500D01*
X518500Y290799D02*
Y294709D01*
Y290799D02*
X525799Y283500D01*
X563709Y300500D02*
X570500Y293709D01*
X563201Y283500D02*
X570500Y290799D01*
X488000Y276000D02*
X494457D01*
X485500Y278500D02*
X488000Y276000D01*
X485500Y278500D02*
Y280000D01*
X506953Y261846D02*
Y269953D01*
X507000Y270000D01*
X514827Y261846D02*
X517500Y264520D01*
Y268000D01*
X539000Y232209D02*
X549000D01*
X539000Y220791D02*
X549000D01*
X538709Y220500D02*
X539000Y220791D01*
X532000Y220500D02*
X538709D01*
X519846Y241079D02*
Y243047D01*
X504087Y298000D02*
X508252Y293835D01*
X497000Y283500D02*
X499000Y281500D01*
X504500D01*
X510000Y276000D01*
Y268000D02*
Y276000D01*
X508921Y266921D02*
X510000Y268000D01*
X508921Y261846D02*
Y266921D01*
X512000Y269701D02*
X525799Y283500D01*
X512000Y267500D02*
Y269701D01*
X510890Y266390D02*
X512000Y267500D01*
X510890Y261846D02*
Y266390D01*
X550701Y271000D02*
X563201Y283500D01*
X515500Y271000D02*
X550701D01*
X513500Y269000D02*
X515500Y271000D01*
X513500Y266237D02*
Y269000D01*
X512858Y265595D02*
X513500Y266237D01*
X512858Y261846D02*
Y265595D01*
X508252Y282748D02*
X510500Y280500D01*
X570500Y290799D02*
Y293709D01*
X603000Y266500D02*
Y272000D01*
X597000Y266343D02*
Y280000D01*
X593000Y284000D02*
X597000Y280000D01*
X519846Y250921D02*
X526921D01*
X519846Y252890D02*
X526390D01*
X519846Y254858D02*
X525858D01*
X519846Y256827D02*
X525327D01*
X599000Y265500D02*
Y284000D01*
X603000Y288000D01*
X526921Y250921D02*
X536000Y260000D01*
X596500D01*
X603000Y266500D01*
X595000Y261500D02*
X599000Y265500D01*
X593657Y263000D02*
X597000Y266343D01*
X589500Y264500D02*
X593000Y268000D01*
X526390Y252890D02*
X535000Y261500D01*
X595000D01*
X525858Y254858D02*
X534000Y263000D01*
X593657D01*
X525327Y256827D02*
X533000Y264500D01*
X589500D01*
X519846Y246984D02*
Y248953D01*
X534500Y253000D02*
X539500D01*
X532500Y251000D02*
X534500Y253000D01*
X532500Y249000D02*
Y251000D01*
X557850Y253000D02*
X558850Y252000D01*
X539500Y253000D02*
X549500D01*
X557850D01*
X565150Y252000D02*
X570500D01*
X519846Y245016D02*
X524134D01*
X528000Y241150D01*
X524244Y238373D02*
X527767Y234850D01*
X519846Y241079D02*
X522547D01*
X524244Y239382D01*
Y238373D02*
Y239382D01*
X527767Y234850D02*
X528000D01*
X519846Y235173D02*
X522500Y232520D01*
Y227500D02*
Y232520D01*
X519846Y235173D02*
Y237142D01*
Y239110D01*
X528000Y234850D02*
X530642Y232209D01*
X539000D01*
X528000Y241150D02*
X530850D01*
X535500Y236500D01*
X559209D01*
X563000Y232709D01*
X573000D01*
X570500Y252000D02*
X573500Y255000D01*
X577626D01*
X578000Y254626D01*
X586374D01*
X590000Y251000D01*
X596500D01*
X578000Y245374D02*
X580374Y243000D01*
X589087D01*
X590000Y243913D01*
X591000Y242913D01*
Y235209D02*
Y242913D01*
Y223791D02*
X598709D01*
X508252Y282748D02*
Y293835D01*
X509000Y308791D02*
Y315583D01*
X499000D02*
X509000D01*
X563000Y221291D02*
X579791D01*
X497000Y283500D02*
Y298000D01*
X248791Y325000D02*
X250291Y326500D01*
X504984Y261846D02*
Y268480D01*
X501543Y271921D02*
Y276000D01*
Y271921D02*
X502964Y270500D01*
X503035D01*
X504500Y269036D01*
Y268965D02*
Y269036D01*
Y268965D02*
X504984Y268480D01*
X463500Y309083D02*
X473500Y299083D01*
X483000Y299291D02*
X483209Y299083D01*
X473500D02*
X483209D01*
X490858Y327000D02*
X499000D01*
X475957Y326791D02*
X484350D01*
X469335Y326335D02*
X475500D01*
X463500Y320500D02*
X469335Y326335D01*
X447000Y251465D02*
X449965Y248500D01*
X458000Y320500D02*
X463500D01*
X276291Y344917D02*
X282083D01*
X583000Y215000D02*
Y234000D01*
X578000Y239000D02*
X583000Y234000D01*
X578000Y239000D02*
Y245374D01*
X643543Y249543D02*
X648543D01*
X654000Y255000D02*
Y262400D01*
X648543Y249543D02*
X654000Y255000D01*
X519846Y246984D02*
X519862Y247000D01*
X527879D01*
X529129Y248250D01*
X531750D02*
X532500Y249000D01*
X529129Y248250D02*
X531750D01*
X530850Y241150D02*
X532500Y242799D01*
Y243000D01*
X499500Y206500D02*
X499709Y206291D01*
X654000Y341543D02*
X664000D01*
X509150Y218000D02*
X512500D01*
X579000Y211000D02*
X583000Y215000D01*
X603500Y209500D02*
X643543Y249543D01*
X526657Y209500D02*
X603500D01*
X527278Y211000D02*
X579000D01*
X512858Y225420D02*
X527278Y211000D01*
X671543Y242457D02*
X672000Y242000D01*
X512858Y225420D02*
Y230154D01*
X470000Y210457D02*
X474165Y206291D01*
X480000D01*
X492000D01*
X499709D01*
X382000Y243000D02*
Y247791D01*
X379500Y240500D02*
X382000Y243000D01*
X379209Y259209D02*
X382000D01*
X375500Y255500D02*
X379209Y259209D01*
X382000D02*
X392000D01*
X382000Y247791D02*
X392000D01*
X423709Y232291D02*
Y238000D01*
X423500Y232500D02*
X423709Y232291D01*
X457000Y319500D02*
X458000Y320500D01*
X298000Y287587D02*
X309500D01*
X297957Y287543D02*
X298000Y287587D01*
X292000Y287543D02*
X297957D01*
X316543Y253500D02*
Y263500D01*
X309500Y263543D02*
Y280500D01*
X299500Y263457D02*
Y280500D01*
Y263457D02*
X309457Y253500D01*
X144543Y161543D02*
X152000D01*
X144500Y161500D02*
X144543Y161543D01*
X144043Y177543D02*
X152000D01*
X144000Y177500D02*
X144043Y177543D01*
X144543Y193543D02*
X152000D01*
X144500Y193500D02*
X144543Y193543D01*
Y209543D02*
X152000D01*
X144500Y209500D02*
X144543Y209543D01*
X152000Y146457D02*
Y154457D01*
Y146457D02*
X152457Y146000D01*
X129000Y159000D02*
X138000D01*
X142543Y154457D01*
X152000D01*
X129000Y169000D02*
X143500D01*
X144957Y170457D01*
X152000D01*
X145957Y186457D02*
X152000D01*
X138500Y179000D02*
X145957Y186457D01*
X129000Y179000D02*
X138500D01*
X142457Y202457D02*
X152000D01*
X129000Y189000D02*
X142457Y202457D01*
X152000Y170457D02*
X157957D01*
X159543Y146000D02*
Y167543D01*
X303500Y263500D02*
X309457D01*
X152000Y186457D02*
X152043Y186500D01*
X158500D01*
X152000Y202457D02*
X156457D01*
X159500Y205500D01*
Y218500D01*
X123500Y213500D02*
X129000Y219000D01*
X115500Y213500D02*
X123500D01*
X309500Y111457D02*
X314543D01*
X322500Y103500D01*
X373500D01*
X380000Y110000D01*
X488000Y223000D02*
X488732Y222268D01*
Y220976D02*
X492000Y217709D01*
X488732Y220976D02*
Y222268D01*
X487654Y230154D02*
X493173D01*
X506500Y225621D02*
X510535D01*
X526657Y209500D01*
X505879Y224121D02*
X509914D01*
X526035Y208000D01*
X503016Y226984D02*
Y230154D01*
X504984Y227137D02*
X506500Y225621D01*
X504984Y227137D02*
Y230154D01*
X503016Y226984D02*
X505879Y224121D01*
X492000Y217709D02*
X500559D01*
X500850Y218000D01*
X507150Y216000D02*
X509150Y218000D01*
X449965Y248500D02*
X464000D01*
X456000Y236457D02*
X462957D01*
X453375Y219875D02*
X466000Y232500D01*
Y246500D01*
X464000Y248500D02*
X466000Y246500D01*
X447000Y251465D02*
Y281500D01*
X457000Y291500D01*
Y319500D01*
X407000Y238000D02*
X412291D01*
X654000Y321600D02*
X687000Y288600D01*
X664000Y249543D02*
Y262400D01*
X650000Y242457D02*
X671543D01*
X687000Y251500D02*
Y288600D01*
X666500Y231000D02*
X687000Y251500D01*
X526035Y208000D02*
X605500D01*
X628500Y231000D01*
X666500D01*
X359299Y150500D02*
X376000D01*
X388500Y163000D01*
X385748Y180803D02*
X390000Y176551D01*
X382598Y180803D02*
X388500Y174902D01*
X390000Y157201D02*
Y176551D01*
X388500Y163000D02*
Y174902D01*
X185500Y133000D02*
X188209Y130291D01*
X299543Y112000D02*
Y118457D01*
X294126Y123874D02*
X299543Y118457D01*
X272992Y123874D02*
X294126D01*
X272992Y108126D02*
X283874D01*
X286000Y106000D01*
X415295Y351295D02*
X416284Y352284D01*
X429500D01*
X110500Y208500D02*
X115500Y213500D01*
X110500Y145000D02*
Y208500D01*
Y145000D02*
X120000Y135500D01*
X168500D01*
X175500Y128500D01*
X182000D01*
X208000Y102500D01*
X300543D01*
X309500Y111457D01*
X292457Y106043D02*
Y112000D01*
D29*
X312291Y207709D02*
X316000D01*
X307000Y213000D02*
X312291Y207709D01*
X307000Y213000D02*
Y219789D01*
X326000Y207709D02*
X330709Y212417D01*
Y213209D01*
X316000Y207709D02*
X326000D01*
X285500Y313750D02*
Y341500D01*
Y313750D02*
X287000Y312250D01*
X282083Y344917D02*
X285500Y341500D01*
X160000Y340000D02*
X169390Y349390D01*
X204610Y365500D02*
X299500D01*
X317205Y347795D01*
X188500Y349390D02*
X204610Y365500D01*
X317205Y347795D02*
X328500D01*
X287000Y259750D02*
Y312250D01*
Y259750D02*
X294500Y252250D01*
Y234500D02*
Y252250D01*
Y234500D02*
X304500Y224500D01*
Y222288D02*
Y224500D01*
Y222288D02*
X307000Y219789D01*
X188000Y343740D02*
Y348890D01*
X169390Y349390D02*
X188500D01*
X188000Y325543D02*
Y336260D01*
X160000Y306000D02*
Y340000D01*
X146500Y292500D02*
X160000Y306000D01*
X146500Y278000D02*
Y292500D01*
X119500Y251000D02*
X146500Y278000D01*
X116500Y251000D02*
X119500D01*
X103500Y138500D02*
X118000Y124000D01*
X103500Y138500D02*
Y238000D01*
X116500Y251000D01*
X118000Y124000D02*
X170000D01*
X184000Y110000D01*
X195500D01*
D30*
X160000Y340000D02*
D03*
X136378D02*
D03*
X148189Y321496D02*
D03*
D31*
X380000Y110000D02*
D03*
X450000D02*
D03*
Y300000D02*
D03*
X364000D02*
D03*
D32*
X370000Y110000D02*
D03*
X360000D02*
D03*
X350000D02*
D03*
X340000D02*
D03*
X330000D02*
D03*
X440000D02*
D03*
X430000D02*
D03*
X420000D02*
D03*
X410000D02*
D03*
X400000D02*
D03*
X440000Y300000D02*
D03*
X430000D02*
D03*
X420000D02*
D03*
X410000D02*
D03*
X400000D02*
D03*
X390000D02*
D03*
X380000D02*
D03*
X354000D02*
D03*
X344000D02*
D03*
X334000D02*
D03*
X324000D02*
D03*
X314000D02*
D03*
X304000D02*
D03*
X294000D02*
D03*
D33*
X593000Y268000D02*
D03*
Y276000D02*
D03*
Y284000D02*
D03*
X603000Y272000D02*
D03*
Y280000D02*
D03*
Y288000D02*
D03*
X629000Y311000D02*
D03*
Y273000D02*
D03*
D34*
Y326600D02*
D03*
Y257400D02*
D03*
D35*
X654000Y321600D02*
D03*
X664000D02*
D03*
X654000Y262400D02*
D03*
X664000D02*
D03*
D36*
X119000Y239000D02*
D03*
X129000D02*
D03*
X119000Y229000D02*
D03*
X129000D02*
D03*
X119000Y219000D02*
D03*
X129000D02*
D03*
X119000Y209000D02*
D03*
X129000D02*
D03*
X119000Y199000D02*
D03*
X129000D02*
D03*
X119000Y189000D02*
D03*
X129000D02*
D03*
X119000Y179000D02*
D03*
X129000D02*
D03*
X119000Y169000D02*
D03*
X129000D02*
D03*
X119000Y159000D02*
D03*
X129000D02*
D03*
X119000Y149000D02*
D03*
D37*
X129000D02*
D03*
D38*
X124984Y114000D02*
D03*
Y274000D02*
D03*
D39*
X318500Y186000D02*
D03*
X317000Y191500D02*
D03*
X320500Y181500D02*
D03*
X332350Y179613D02*
D03*
X333500Y175000D02*
D03*
X334000Y167500D02*
D03*
X338166Y165334D02*
D03*
X341000Y166500D02*
D03*
X301500Y187000D02*
D03*
X303663Y171163D02*
D03*
X301500Y168500D02*
D03*
X299500Y175000D02*
D03*
X304500Y178800D02*
D03*
X285500Y185000D02*
D03*
X290164Y185164D02*
D03*
X332500Y184500D02*
D03*
X297000Y173500D02*
D03*
X291500Y173016D02*
D03*
X406000Y199000D02*
D03*
X319000Y167500D02*
D03*
X321000Y170500D02*
D03*
X331500Y162500D02*
D03*
X330000Y160000D02*
D03*
X317500Y173000D02*
D03*
X320500Y165000D02*
D03*
X315500Y163000D02*
D03*
X303500Y162500D02*
D03*
X320000Y156500D02*
D03*
X333000Y147500D02*
D03*
X325500Y158000D02*
D03*
X323000Y156500D02*
D03*
X318000Y154500D02*
D03*
X308350Y145351D02*
D03*
X310825Y147825D02*
D03*
X313300Y150300D02*
D03*
X315775Y152775D02*
D03*
X338500Y189500D02*
D03*
X337500Y186000D02*
D03*
X334000Y192500D02*
D03*
X333000Y207000D02*
D03*
X328500Y191000D02*
D03*
X338000Y201000D02*
D03*
X337500Y207500D02*
D03*
X339000Y211500D02*
D03*
X342500Y210500D02*
D03*
Y188500D02*
D03*
Y185000D02*
D03*
X342000Y180500D02*
D03*
X342500Y198500D02*
D03*
X342000Y203000D02*
D03*
X361000Y213000D02*
D03*
X363701Y217201D02*
D03*
X366000Y218500D02*
D03*
X369500Y219500D02*
D03*
X359500Y217000D02*
D03*
X356259Y211200D02*
D03*
X365276Y223323D02*
D03*
X358976D02*
D03*
X346400Y210724D02*
D03*
X346637Y201578D02*
D03*
X346587Y198378D02*
D03*
X346536Y195178D02*
D03*
X346435Y188778D02*
D03*
X337000Y215000D02*
D03*
X346378Y213874D02*
D03*
X370000Y211000D02*
D03*
X352677Y210724D02*
D03*
Y213874D02*
D03*
X398500Y212500D02*
D03*
X346378Y220173D02*
D03*
X283638Y166500D02*
D03*
X302000Y165000D02*
D03*
X282500Y185000D02*
D03*
X279500D02*
D03*
X343000Y157500D02*
D03*
X295500Y197000D02*
D03*
X343500Y168500D02*
D03*
X383000Y219500D02*
D03*
X398000Y228000D02*
D03*
X397803Y231197D02*
D03*
X396932Y215957D02*
D03*
X390472Y216980D02*
D03*
X368382Y229622D02*
D03*
X346500Y233500D02*
D03*
X360500Y234000D02*
D03*
X358976Y226472D02*
D03*
X353500Y235500D02*
D03*
X355500Y233500D02*
D03*
X362126Y226472D02*
D03*
X365276Y229622D02*
D03*
X358976D02*
D03*
X362126D02*
D03*
X365276Y226472D02*
D03*
X349528Y223323D02*
D03*
X365276Y210724D02*
D03*
Y201276D02*
D03*
X371575Y207575D02*
D03*
X393622Y217024D02*
D03*
Y220173D02*
D03*
X387323Y229622D02*
D03*
X390472Y223323D02*
D03*
X387323Y226472D02*
D03*
X352677Y229622D02*
D03*
X355827Y226472D02*
D03*
X349528Y229622D02*
D03*
X402088Y228412D02*
D03*
X398000Y218000D02*
D03*
X393622Y223323D02*
D03*
Y226472D02*
D03*
Y229622D02*
D03*
X374724Y223323D02*
D03*
Y229622D02*
D03*
Y226472D02*
D03*
X371524Y226465D02*
D03*
Y223316D02*
D03*
X374500Y219249D02*
D03*
X380750Y216250D02*
D03*
X374724Y210724D02*
D03*
X380000Y219500D02*
D03*
X379500Y201000D02*
D03*
X401500Y164000D02*
D03*
X387323Y201276D02*
D03*
X409500Y168000D02*
D03*
X411000Y165500D02*
D03*
X339000Y218000D02*
D03*
X339073Y220214D02*
D03*
X398000Y168500D02*
D03*
X393000Y167000D02*
D03*
X395500Y174500D02*
D03*
X393500Y178500D02*
D03*
X402413Y193400D02*
D03*
X400100Y191900D02*
D03*
X374724Y201276D02*
D03*
X370000Y201000D02*
D03*
X393622Y185528D02*
D03*
X390422Y185535D02*
D03*
X375500Y206000D02*
D03*
X393622Y201276D02*
D03*
Y198126D02*
D03*
X380500Y203500D02*
D03*
X383000Y196500D02*
D03*
X387323Y198126D02*
D03*
X387330Y188728D02*
D03*
X393622Y188677D02*
D03*
X390472Y198126D02*
D03*
X390465Y194926D02*
D03*
X323000Y173000D02*
D03*
Y176000D02*
D03*
X292000Y189000D02*
D03*
X293500Y192500D02*
D03*
X299000Y188500D02*
D03*
X291000Y207500D02*
D03*
X296000Y203500D02*
D03*
X291500Y210500D02*
D03*
X295000Y207500D02*
D03*
X242500Y168000D02*
D03*
X244500Y164500D02*
D03*
X247500Y167500D02*
D03*
X250500Y169000D02*
D03*
X367000Y194500D02*
D03*
X364500Y206000D02*
D03*
X358500Y204000D02*
D03*
X384000Y171500D02*
D03*
X377867Y188728D02*
D03*
X381017Y185578D02*
D03*
X387323Y185528D02*
D03*
X379500Y192000D02*
D03*
X384173Y188677D02*
D03*
X371575D02*
D03*
X374667Y188691D02*
D03*
X374724Y185528D02*
D03*
X371575D02*
D03*
X377867D02*
D03*
X398500Y184000D02*
D03*
X393622Y182378D02*
D03*
X387323D02*
D03*
X381024D02*
D03*
X377874D02*
D03*
X381682Y165682D02*
D03*
X368000Y162000D02*
D03*
X371000Y165000D02*
D03*
X372000Y161500D02*
D03*
X321638Y189862D02*
D03*
X365262Y182392D02*
D03*
X362126Y182378D02*
D03*
X362133Y185578D02*
D03*
X365600Y185809D02*
D03*
X374674Y182385D02*
D03*
X371575Y182378D02*
D03*
X375500Y179000D02*
D03*
X386500Y174000D02*
D03*
X378346Y178800D02*
D03*
X376700Y168600D02*
D03*
X349578Y182385D02*
D03*
X359027D02*
D03*
X377000Y166400D02*
D03*
X374500Y164000D02*
D03*
X326500Y176000D02*
D03*
X332284Y165216D02*
D03*
X339328Y169500D02*
D03*
X335500Y177250D02*
D03*
X355827Y182378D02*
D03*
X358000Y163000D02*
D03*
X355000Y164000D02*
D03*
X351500Y165000D02*
D03*
X353000Y175000D02*
D03*
X352654Y194976D02*
D03*
X364500Y192500D02*
D03*
X362000D02*
D03*
X349585Y185542D02*
D03*
X343500Y178500D02*
D03*
X352778Y182500D02*
D03*
X352654Y191847D02*
D03*
X352677Y185528D02*
D03*
X345500Y170000D02*
D03*
X374500Y169500D02*
D03*
X360500Y178500D02*
D03*
X356000Y178000D02*
D03*
X351500D02*
D03*
X348000Y178500D02*
D03*
X346378Y182378D02*
D03*
X358976Y188677D02*
D03*
X355827Y185528D02*
D03*
X346385Y185578D02*
D03*
X349549Y188742D02*
D03*
X349599Y191942D02*
D03*
X303000Y176500D02*
D03*
X352677Y201276D02*
D03*
X357000Y202000D02*
D03*
X338500Y177000D02*
D03*
X346486Y191978D02*
D03*
X356500Y199000D02*
D03*
X349528Y198126D02*
D03*
Y201276D02*
D03*
X359000Y192500D02*
D03*
Y195500D02*
D03*
X352677Y198126D02*
D03*
D40*
X275191Y177191D02*
D03*
X268991D02*
D03*
X276500Y214000D02*
D03*
X259379Y212121D02*
D03*
X481000Y247000D02*
D03*
X476500D02*
D03*
X477500Y241500D02*
D03*
X476500Y251000D02*
D03*
X215500Y217000D02*
D03*
X199500Y210000D02*
D03*
X373000Y129000D02*
D03*
X457500Y177000D02*
D03*
X447543Y245957D02*
D03*
X486000Y260500D02*
D03*
X489500Y262500D02*
D03*
X218500Y146500D02*
D03*
X223000Y203000D02*
D03*
X228000Y204000D02*
D03*
X205000Y288500D02*
D03*
X190000Y290000D02*
D03*
X168000D02*
D03*
X163055Y290945D02*
D03*
X480000Y223000D02*
D03*
X445500Y199000D02*
D03*
X456043Y210457D02*
D03*
X432000Y186000D02*
D03*
X440000Y191000D02*
D03*
X279709Y303709D02*
D03*
X272000Y286000D02*
D03*
X226291Y303709D02*
D03*
X229209Y292291D02*
D03*
X251756Y282244D02*
D03*
X218791Y293291D02*
D03*
X184209Y292291D02*
D03*
X191709Y304709D02*
D03*
X183791Y303709D02*
D03*
X273000Y143500D02*
D03*
X302000Y152000D02*
D03*
X483500Y118000D02*
D03*
X458000D02*
D03*
X553543Y169457D02*
D03*
X546000Y146000D02*
D03*
X546484Y150984D02*
D03*
X498957Y187543D02*
D03*
X539709Y190291D02*
D03*
X528291Y190209D02*
D03*
X558917Y241583D02*
D03*
X471957Y260457D02*
D03*
X461543Y283543D02*
D03*
X452000Y277000D02*
D03*
X450291Y257291D02*
D03*
X440457Y259543D02*
D03*
X277000Y206500D02*
D03*
X273945Y202445D02*
D03*
X329500Y218000D02*
D03*
X317709Y228791D02*
D03*
X306291Y229209D02*
D03*
X244945Y231055D02*
D03*
X207803Y202803D02*
D03*
X198354Y202854D02*
D03*
X192055Y202945D02*
D03*
X338500Y151000D02*
D03*
X337000Y145000D02*
D03*
X331500Y199000D02*
D03*
X430000Y214000D02*
D03*
X436000Y220500D02*
D03*
X457500Y204500D02*
D03*
X456000Y199000D02*
D03*
X455000Y188000D02*
D03*
X462500Y196500D02*
D03*
X324000Y253500D02*
D03*
X335000Y247000D02*
D03*
X282500Y158500D02*
D03*
X303500Y143000D02*
D03*
X309500Y126000D02*
D03*
X301500Y159500D02*
D03*
X287500D02*
D03*
X272000Y191000D02*
D03*
X267646Y191646D02*
D03*
X412000Y178500D02*
D03*
X417000Y200500D02*
D03*
X412500Y226500D02*
D03*
X418000Y225500D02*
D03*
X352291Y141709D02*
D03*
X477500Y196000D02*
D03*
X459000Y191500D02*
D03*
X275000Y210000D02*
D03*
X264496Y208004D02*
D03*
X258197Y205303D02*
D03*
X290000Y203500D02*
D03*
X450000Y179000D02*
D03*
X442000Y173000D02*
D03*
X421500Y151000D02*
D03*
X424500Y119500D02*
D03*
X409500Y126000D02*
D03*
X404000Y127000D02*
D03*
X449500Y133500D02*
D03*
X446500Y129500D02*
D03*
X434500Y136000D02*
D03*
X416500Y132000D02*
D03*
X421500Y134000D02*
D03*
X456000Y218000D02*
D03*
X402000Y225000D02*
D03*
X449000Y217500D02*
D03*
X441500Y223000D02*
D03*
X442000Y217500D02*
D03*
X433000Y218000D02*
D03*
X498000Y271000D02*
D03*
X488000Y223000D02*
D03*
X484500Y226500D02*
D03*
X480500Y230000D02*
D03*
X475500Y226500D02*
D03*
X402000Y220000D02*
D03*
X297000Y142000D02*
D03*
X250000Y144500D02*
D03*
X299500Y235500D02*
D03*
X298500Y129000D02*
D03*
X304000Y131000D02*
D03*
X236500Y127000D02*
D03*
X234291Y135709D02*
D03*
X209000Y115291D02*
D03*
X211209Y135709D02*
D03*
X185500Y133000D02*
D03*
X198354Y158354D02*
D03*
X207803Y157803D02*
D03*
X208154Y141654D02*
D03*
X204654Y146346D02*
D03*
X224000Y159000D02*
D03*
X230000D02*
D03*
X245000Y144000D02*
D03*
X468000Y251500D02*
D03*
X364500Y269500D02*
D03*
X417000Y167000D02*
D03*
X165500Y158000D02*
D03*
X442500Y163500D02*
D03*
X167500Y154000D02*
D03*
X169500Y149500D02*
D03*
X171000Y143500D02*
D03*
X434500Y152000D02*
D03*
X453000Y148500D02*
D03*
X451579Y154921D02*
D03*
X449000Y148500D02*
D03*
X446000Y151500D02*
D03*
Y138000D02*
D03*
X450500Y139000D02*
D03*
X453000Y143500D02*
D03*
X440000Y134000D02*
D03*
X181000Y133000D02*
D03*
X178500Y136500D02*
D03*
X441000Y145000D02*
D03*
X179500Y141000D02*
D03*
X183500Y142000D02*
D03*
X163055Y230555D02*
D03*
X169354Y230646D02*
D03*
X178803Y231303D02*
D03*
X188252Y231248D02*
D03*
X197701Y225701D02*
D03*
X204000Y230500D02*
D03*
X269000Y270250D02*
D03*
Y275000D02*
D03*
X264500Y272500D02*
D03*
X265000Y267500D02*
D03*
X269000Y265000D02*
D03*
X265000Y262500D02*
D03*
X269000Y259500D02*
D03*
X266000Y257000D02*
D03*
X210500Y275000D02*
D03*
X201000D02*
D03*
X197000Y273000D02*
D03*
X191500Y275500D02*
D03*
X187500Y274000D02*
D03*
X172504Y276004D02*
D03*
X221500Y251000D02*
D03*
X170500Y218500D02*
D03*
X358000Y259000D02*
D03*
X348000Y263500D02*
D03*
X341709Y246291D02*
D03*
X359000Y240000D02*
D03*
X548500Y340791D02*
D03*
Y318291D02*
D03*
X515500Y329291D02*
D03*
X509000Y308791D02*
D03*
X196000Y317000D02*
D03*
X266291Y318000D02*
D03*
X420500Y323000D02*
D03*
X396000Y325000D02*
D03*
X379709Y352291D02*
D03*
X368291D02*
D03*
X382000Y345500D02*
D03*
X363000Y333000D02*
D03*
X382500Y340500D02*
D03*
X388000D02*
D03*
X402000Y351587D02*
D03*
X352000Y335500D02*
D03*
X348619Y344381D02*
D03*
X338500Y329000D02*
D03*
X251791Y357000D02*
D03*
X259791Y339500D02*
D03*
X255291Y348000D02*
D03*
X252291Y344000D02*
D03*
X229791Y327000D02*
D03*
X252291Y338500D02*
D03*
X224291Y327000D02*
D03*
X221500Y340709D02*
D03*
X214791Y319500D02*
D03*
X664000Y349000D02*
D03*
X672000Y242000D02*
D03*
X485500Y280000D02*
D03*
X507000Y270000D02*
D03*
X517500Y268000D02*
D03*
X532000Y220500D02*
D03*
X510500Y280500D02*
D03*
X522500Y227500D02*
D03*
X570500Y252000D02*
D03*
X579791Y221291D02*
D03*
X596500Y251000D02*
D03*
X598709Y223791D02*
D03*
X543500Y300500D02*
D03*
X471500Y270000D02*
D03*
X502000Y268000D02*
D03*
X483000Y299291D02*
D03*
X532500Y243000D02*
D03*
X499500Y206500D02*
D03*
X512500Y218000D02*
D03*
X480500Y234000D02*
D03*
X379500Y240500D02*
D03*
X375500Y255500D02*
D03*
X423500Y232500D02*
D03*
X292000Y287543D02*
D03*
X144500Y161500D02*
D03*
X144000Y177500D02*
D03*
X144500Y193500D02*
D03*
Y209500D02*
D03*
X210500Y230500D02*
D03*
X303500Y263500D02*
D03*
X213500Y228000D02*
D03*
X479750Y238250D02*
D03*
X165500Y219000D02*
D03*
X159500Y218500D02*
D03*
X144500D02*
D03*
X174500Y216000D02*
D03*
X220000Y228000D02*
D03*
X225000Y230000D02*
D03*
X227500Y226500D02*
D03*
X232500Y230000D02*
D03*
X235500Y226500D02*
D03*
X238791Y230000D02*
D03*
X241500Y226500D02*
D03*
X438500Y160500D02*
D03*
X449500D02*
D03*
X446500Y172500D02*
D03*
X451000Y167000D02*
D03*
X434500Y163500D02*
D03*
X446500Y156000D02*
D03*
X508000Y161500D02*
D03*
X473000Y189000D02*
D03*
X520110Y156890D02*
D03*
X468500Y182500D02*
D03*
X526500Y168500D02*
D03*
X491138Y187811D02*
D03*
X499500Y178500D02*
D03*
X511000Y176500D02*
D03*
X493500Y224000D02*
D03*
X497500D02*
D03*
X487654Y230154D02*
D03*
X468500Y231000D02*
D03*
X471000Y239500D02*
D03*
X433500Y240000D02*
D03*
X502500Y223000D02*
D03*
X471500Y244000D02*
D03*
X463000Y243500D02*
D03*
X462957Y236457D02*
D03*
X166205Y275295D02*
D03*
X182000Y276000D02*
D03*
X178500Y274000D02*
D03*
X262500Y254000D02*
D03*
X317500Y131000D02*
D03*
X322500Y132500D02*
D03*
X237500Y166500D02*
D03*
X254000Y168000D02*
D03*
X257500Y165500D02*
D03*
X234500Y163000D02*
D03*
X236000Y158500D02*
D03*
X267500Y167000D02*
D03*
X260500Y162500D02*
D03*
X264500Y164000D02*
D03*
X270500D02*
D03*
X274500Y167000D02*
D03*
X216500Y232000D02*
D03*
X246500Y217000D02*
D03*
X248000Y221000D02*
D03*
X248500Y225500D02*
D03*
X335000Y229500D02*
D03*
X332500Y227000D02*
D03*
X336000Y224000D02*
D03*
X198811Y177189D02*
D03*
X216811D02*
D03*
X210953Y181047D02*
D03*
X223189Y170811D02*
D03*
X219000Y185000D02*
D03*
X228500D02*
D03*
X233000Y186500D02*
D03*
X235189Y178811D02*
D03*
X433500Y245000D02*
D03*
X432000Y234000D02*
D03*
X407500Y226500D02*
D03*
X284500Y225000D02*
D03*
X417000Y263000D02*
D03*
X407500Y256500D02*
D03*
X367000Y254000D02*
D03*
X371500Y270000D02*
D03*
X401500Y259500D02*
D03*
X424000D02*
D03*
X377000Y274500D02*
D03*
X348000Y281500D02*
D03*
X407000Y238000D02*
D03*
X424000Y255000D02*
D03*
X349000Y287500D02*
D03*
X412000Y286500D02*
D03*
X439000Y290000D02*
D03*
X406000Y173000D02*
D03*
X416500Y177000D02*
D03*
X408500Y176500D02*
D03*
X403500Y182500D02*
D03*
X417000Y194000D02*
D03*
X420000Y180500D02*
D03*
X405500Y164500D02*
D03*
X415500Y218500D02*
D03*
X406500Y192000D02*
D03*
X402250Y186750D02*
D03*
X277500Y155500D02*
D03*
X248500Y158000D02*
D03*
X314000Y225000D02*
D03*
X292500Y214000D02*
D03*
X331000Y213500D02*
D03*
X286000Y106000D02*
D03*
X195500Y110000D02*
D03*
X292500Y106000D02*
D03*
D41*
X110000Y290000D02*
D03*
Y310500D02*
D03*
M02*
