%FSLAX25Y25*%
%MOIN*%
G70*
G01*
G75*
G04 Layer_Color=6063849*
%ADD10R,0.03543X0.01969*%
%ADD11R,0.05512X0.04724*%
%ADD12R,0.05906X0.05118*%
%ADD13R,0.02362X0.05906*%
%ADD14R,0.05118X0.07087*%
%ADD15R,0.07087X0.05118*%
%ADD16R,0.04724X0.05512*%
%ADD17R,0.02756X0.01575*%
%ADD18R,0.05118X0.05906*%
%ADD19R,0.02165X0.05709*%
%ADD20R,0.21654X0.07874*%
%ADD21O,0.06693X0.01181*%
%ADD22O,0.00984X0.06102*%
%ADD23O,0.06102X0.00984*%
%ADD24O,0.08661X0.02362*%
%ADD25C,0.01400*%
%ADD26O,0.02165X0.05906*%
%ADD27R,0.01969X0.03543*%
%ADD28R,0.11811X0.06299*%
%ADD29R,0.24410X0.22835*%
%ADD30R,0.05512X0.07087*%
%ADD31R,0.04724X0.07087*%
%ADD32R,0.07087X0.03150*%
%ADD33C,0.01000*%
%ADD34C,0.00500*%
%ADD35C,0.02000*%
%ADD36C,0.00300*%
%ADD37C,0.00787*%
%ADD38R,0.05906X0.05906*%
%ADD39C,0.05906*%
%ADD40O,0.10000X0.05000*%
%ADD41C,0.07500*%
%ADD42C,0.06000*%
%ADD43C,0.08700*%
%ADD44C,0.07874*%
%ADD45C,0.02000*%
%ADD46C,0.04000*%
%ADD47C,0.03000*%
%ADD48C,0.12500*%
%ADD49C,0.04000*%
%ADD50C,0.05943*%
G04:AMPARAMS|DCode=51|XSize=75.433mil|YSize=75.433mil|CornerRadius=0mil|HoleSize=0mil|Usage=FLASHONLY|Rotation=0.000|XOffset=0mil|YOffset=0mil|HoleType=Round|Shape=Relief|Width=8mil|Gap=10mil|Entries=4|*
%AMTHD51*
7,0,0,0.07543,0.05543,0.00800,45*
%
%ADD51THD51*%
%ADD52C,0.12400*%
%ADD53C,0.07100*%
%ADD54C,0.05900*%
G04:AMPARAMS|DCode=55|XSize=75mil|YSize=75mil|CornerRadius=0mil|HoleSize=0mil|Usage=FLASHONLY|Rotation=0.000|XOffset=0mil|YOffset=0mil|HoleType=Round|Shape=Relief|Width=8mil|Gap=10mil|Entries=4|*
%AMTHD55*
7,0,0,0.07500,0.05500,0.00800,45*
%
%ADD55THD55*%
%ADD56C,0.07400*%
%ADD57C,0.15200*%
%ADD58C,0.08600*%
G04:AMPARAMS|DCode=59|XSize=90mil|YSize=90mil|CornerRadius=0mil|HoleSize=0mil|Usage=FLASHONLY|Rotation=0.000|XOffset=0mil|YOffset=0mil|HoleType=Round|Shape=Relief|Width=8mil|Gap=10mil|Entries=4|*
%AMTHD59*
7,0,0,0.09000,0.07000,0.00800,45*
%
%ADD59THD59*%
%ADD60C,0.03400*%
%ADD61C,0.06400*%
G04:AMPARAMS|DCode=62|XSize=50mil|YSize=50mil|CornerRadius=0mil|HoleSize=0mil|Usage=FLASHONLY|Rotation=0.000|XOffset=0mil|YOffset=0mil|HoleType=Round|Shape=Relief|Width=8mil|Gap=10mil|Entries=4|*
%AMTHD62*
7,0,0,0.05000,0.03000,0.00800,45*
%
%ADD62THD62*%
G04:AMPARAMS|DCode=63|XSize=56mil|YSize=56mil|CornerRadius=0mil|HoleSize=0mil|Usage=FLASHONLY|Rotation=0.000|XOffset=0mil|YOffset=0mil|HoleType=Round|Shape=Relief|Width=8mil|Gap=10mil|Entries=4|*
%AMTHD63*
7,0,0,0.05600,0.03600,0.00800,45*
%
%ADD63THD63*%
%ADD64C,0.14900*%
%ADD65R,0.02402X0.09843*%
%ADD66C,0.00984*%
%ADD67C,0.02362*%
%ADD68C,0.01969*%
%ADD69C,0.00394*%
%ADD70R,0.03740X0.02165*%
%ADD71R,0.06012X0.05224*%
%ADD72R,0.06406X0.05618*%
%ADD73R,0.02862X0.06406*%
%ADD74R,0.05618X0.07587*%
%ADD75R,0.07587X0.05618*%
%ADD76R,0.05224X0.06012*%
%ADD77R,0.03256X0.02075*%
%ADD78R,0.05618X0.06406*%
%ADD79R,0.02665X0.06209*%
%ADD80R,0.22154X0.08374*%
%ADD81O,0.07193X0.01681*%
%ADD82O,0.01484X0.06602*%
%ADD83O,0.06602X0.01484*%
%ADD84O,0.09161X0.02862*%
%ADD85C,0.01181*%
%ADD86O,0.02665X0.06406*%
%ADD87R,0.02165X0.03740*%
%ADD88R,0.12311X0.06799*%
%ADD89R,0.24910X0.23335*%
%ADD90R,0.06012X0.07587*%
%ADD91R,0.05224X0.07587*%
%ADD92R,0.07587X0.03650*%
%ADD93R,0.06406X0.06406*%
%ADD94C,0.06406*%
%ADD95C,0.00500*%
%ADD96O,0.10500X0.05500*%
%ADD97C,0.08000*%
%ADD98C,0.06500*%
%ADD99C,0.09200*%
%ADD100C,0.08374*%
%ADD101C,0.02500*%
%ADD102C,0.03500*%
%ADD103C,0.00800*%
%ADD104R,0.02902X0.10343*%
D36*
X335000Y137917D02*
G03*
X347500Y125417I12500J0D01*
G01*
Y335417D02*
G03*
X335000Y322917I0J-12500D01*
G01*
X784000Y355417D02*
X810000Y329417D01*
X614500Y355417D02*
X784000D01*
X594500Y335417D02*
X614500Y355417D01*
X347500Y335417D02*
X594500D01*
X810000Y125417D02*
Y135417D01*
Y285417D02*
X820000Y275417D01*
Y145417D02*
Y275417D01*
X810000Y135417D02*
X820000Y145417D01*
X347500Y125417D02*
X810000D01*
X335000Y137917D02*
Y322917D01*
X810000Y285417D02*
Y329417D01*
X335000Y137917D02*
G03*
X347500Y125417I12500J0D01*
G01*
Y335417D02*
G03*
X335000Y322917I0J-12500D01*
G01*
X784000Y355417D02*
X810000Y329417D01*
X614500Y355417D02*
X784000D01*
X594500Y335417D02*
X614500Y355417D01*
X347500Y335417D02*
X594500D01*
X810000Y125417D02*
Y135417D01*
Y285417D02*
X820000Y275417D01*
Y145417D02*
Y275417D01*
X810000Y135417D02*
X820000Y145417D01*
X347500Y125417D02*
X810000D01*
X335000Y137917D02*
Y322917D01*
X810000Y285417D02*
Y329417D01*
D37*
X448260Y249787D02*
X512433D01*
Y303331D01*
X448260D02*
X512433D01*
X448260Y249787D02*
Y303331D01*
Y249787D02*
X512433D01*
Y303331D01*
X448260D02*
X512433D01*
X448260Y249787D02*
Y303331D01*
M02*
